<?xml version="1.0" encoding="utf-8"?>
<!-- Generator: Adobe Illustrator 25.4.1, SVG Export Plug-In . SVG Version: 6.00 Build 0)  -->
<svg version="1.1" id="圖層_1" xmlns="http://www.w3.org/2000/svg" xmlns:xlink="http://www.w3.org/1999/xlink" x="0px" y="0px"
	 viewBox="0 0 22.8 25.1" style="enable-background:new 0 0 22.8 25.1;" xml:space="preserve">
<style type="text/css">
	.st0{fill:#666666;}
	.st1{fill:#FFFFFF;}
</style>
<symbol  id="New_Symbol_3" viewBox="-184.1 -202.9 368.1 405.8">
	<g id="Layer_1_00000121276215835259674030000006166294946708736139_">
		<g>
			<g>
				<path class="st0" d="M116.6,65.3c-8.1,82-81,141.9-163,133.9c-82-8-141.9-81-133.9-163c8.1-82,81.1-141.9,163.1-133.9
					C2.6-95.8,21-90,37.6-81.3l96.1-112.5c11.1-11.7,29.5-12.2,41.2-1.1c11.7,11.1,12.2,29.6,1.1,41.3L83-44.5
					C107.5-14.9,120.6,24.1,116.6,65.3z M71,60.8c5.6-56.8-36-107.4-92.8-113c-56.8-5.6-107.4,35.9-113,92.8
					c-5.6,56.8,36,107.4,92.8,112.9C14.9,159.2,65.5,117.7,71,60.8z"/>
				<polygon class="st0" points="25.6,63.6 -17.6,63.6 -17.6,106.8 -43,106.9 -43,63.6 -86.2,63.7 -86.2,38.3 -43.1,38.2 
					-43.1,-4.9 -17.7,-5 -17.6,38.2 25.6,38.2 				"/>
			</g>
			<g>
				<g>
					<g>
						<g>
							<path class="st1" d="M113.6,68.3c-8.1,82-81,141.9-163,133.9c-82-8-141.9-81-133.9-163c8.1-82,81.1-141.9,163.1-133.9
								c19.8,1.9,38.3,7.7,54.9,16.4l96.1-112.5c11.1-11.7,29.5-12.2,41.2-1.1c11.7,11.1,12.2,29.6,1.1,41.3L80-41.5
								C104.5-11.9,117.6,27.1,113.6,68.3z M68,63.8c5.6-56.8-36-107.4-92.8-113c-56.8-5.6-107.4,35.9-113,92.8
								c-5.6,56.8,36,107.4,92.8,112.9C11.9,162.2,62.5,120.7,68,63.8z"/>
						</g>
					</g>
					<g>
						<polygon class="st1" points="22.6,66.6 -20.6,66.6 -20.6,109.8 -46,109.8 -46,66.6 -89.2,66.7 -89.2,41.3 -46,41.2 
							-46.1,-1.9 -20.7,-2 -20.6,41.2 22.6,41.2 						"/>
					</g>
				</g>
			</g>
		</g>
	</g>
</symbol>
<use xlink:href="#New_Symbol_3"  width="368.1" height="405.8" id="XMLID_00000030485199430932571250000012580699004860478100_" x="-184.1" y="-202.9" transform="matrix(6.197031e-02 0 0 -6.197031e-02 11.4058 12.5737)" style="overflow:visible;"/>
</svg>
