<?xml version="1.0" encoding="utf-8"?>
<!-- Generator: Adobe Illustrator 24.0.2, SVG Export Plug-In . SVG Version: 6.00 Build 0)  -->
<svg version="1.1" id="圖層_1" xmlns="http://www.w3.org/2000/svg" xmlns:xlink="http://www.w3.org/1999/xlink" x="0px" y="0px"
	 viewBox="0 0 50 50" style="enable-background:new 0 0 50 50;" xml:space="preserve">
<style type="text/css">
	.st0{fill:#454444;}
</style>
<g>
	<path class="st0" d="M35.3,47.9c-0.7,0-1.3-0.6-1.3-1.3v-7.7c0-0.7-0.6-1.3-1.3-1.3H17.3c-0.7,0-1.3,0.6-1.3,1.3v7.7
		c0,0.7-0.6,1.3-1.3,1.3s-1.3-0.6-1.3-1.3v-7.7c0-2.1,1.7-3.9,3.9-3.9h15.5c2.1,0,3.9,1.7,3.9,3.9v7.7
		C36.6,47.3,36.1,47.9,35.3,47.9z"/>
	<path class="st0" d="M39.2,19.5c-0.7,0-1.3-0.6-1.3-1.3V4.6c0-0.3-0.3-0.6-0.6-0.6H12.7c-0.3,0-0.6,0.3-0.6,0.6v13.6
		c0,0.7-0.6,1.3-1.3,1.3s-1.3-0.6-1.3-1.3V4.6c0-1.7,1.4-3.2,3.2-3.2h24.6c1.7,0,3.2,1.4,3.2,3.2v13.6
		C40.5,18.9,39.9,19.5,39.2,19.5z"/>
	<path class="st0" d="M32.8,9.2H18.6c-0.7,0-1.3-0.6-1.3-1.3s0.6-1.3,1.3-1.3h14.2c0.7,0,1.3,0.6,1.3,1.3S33.5,9.2,32.8,9.2z"/>
	<path class="st0" d="M30.2,19.5H18.6c-0.7,0-1.3-0.6-1.3-1.3s0.6-1.3,1.3-1.3h11.6c0.7,0,1.3,0.6,1.3,1.3S30.9,19.5,30.2,19.5z"/>
	<path class="st0" d="M34.1,14.3H18.6c-0.7,0-1.3-0.6-1.3-1.3c0-0.7,0.6-1.3,1.3-1.3h15.5c0.7,0,1.3,0.6,1.3,1.3
		C35.3,13.8,34.8,14.3,34.1,14.3z"/>
	<path class="st0" d="M18.6,31.1h-3.9c-0.7,0-1.3-0.6-1.3-1.3s0.6-1.3,1.3-1.3h3.9c0.7,0,1.3,0.6,1.3,1.3S19.3,31.1,18.6,31.1z"/>
	<path class="st0" d="M25,31.1h-2.6c-0.7,0-1.3-0.6-1.3-1.3s0.6-1.3,1.3-1.3H25c0.7,0,1.3,0.6,1.3,1.3S25.7,31.1,25,31.1z"/>
	<path class="st0" d="M46.1,47.9H4c-1.9,0-3.5-1.5-3.5-3.5V25.6c0-1.9,1.6-3.5,3.5-3.5h42.1c1.9,0,3.5,1.5,3.5,3.5v18.9
		C49.5,46.3,48,47.9,46.1,47.9z M4,24.7c-0.5,0-0.9,0.4-0.9,0.9v18.9c0,0.5,0.4,0.9,0.9,0.9h42.1c0.5,0,0.9-0.4,0.9-0.9V25.6
		c0-0.5-0.4-0.9-0.9-0.9H4z"/>
	<path class="st0" d="M41.8,47.9c-0.7,0-1.3-0.6-1.3-1.3V23.4c0-0.7,0.6-1.3,1.3-1.3c0.7,0,1.3,0.6,1.3,1.3v23.2
		C43.1,47.3,42.5,47.9,41.8,47.9z M8.3,47.9c-0.7,0-1.3-0.6-1.3-1.3V23.4c0-0.7,0.6-1.3,1.3-1.3s1.3,0.6,1.3,1.3v23.2
		C9.5,47.3,9,47.9,8.3,47.9z"/>
</g>
</svg>
