<?xml version="1.0" encoding="utf-8"?>
<!-- Generator: Adobe Illustrator 24.0.2, SVG Export Plug-In . SVG Version: 6.00 Build 0)  -->
<svg version="1.1" id="圖層_1" xmlns="http://www.w3.org/2000/svg" xmlns:xlink="http://www.w3.org/1999/xlink" x="0px" y="0px"
	 viewBox="0 0 50 50" style="enable-background:new 0 0 50 50;" xml:space="preserve">
<style type="text/css">
	.st0{fill:#464C54;}
</style>
<g>
	<g>
		<path class="st0" d="M47.4,20.2c-0.8,0-1.5-0.7-1.5-1.5V4.1H31.2c-0.8,0-1.5-0.7-1.5-1.5s0.7-1.5,1.5-1.5h16.2
			c0.8,0,1.5,0.7,1.5,1.5v16.2C48.9,19.6,48.2,20.2,47.4,20.2z"/>
		<path class="st0" d="M47.4,49H2.5C1.7,49,1,48.3,1,47.5V2.6c0-0.8,0.7-1.5,1.5-1.5h18.2c0.8,0,1.5,0.7,1.5,1.5s-0.7,1.5-1.5,1.5
			H3.9v42h42V29.3c0-0.8,0.7-1.5,1.5-1.5c0.8,0,1.5,0.7,1.5,1.5v18.2C48.9,48.3,48.2,49,47.4,49z"/>
		<path class="st0" d="M24.9,26.5c-0.4,0-0.7-0.1-1-0.4c-0.6-0.6-0.6-1.5,0-2.1L46.4,1.6c0.6-0.6,1.5-0.6,2.1,0
			c0.6,0.6,0.6,1.5,0,2.1L26,26.1C25.7,26.4,25.3,26.5,24.9,26.5z"/>
	</g>
</g>
</svg>
