<?xml version="1.0" encoding="utf-8"?>
<!-- Generator: Adobe Illustrator 24.0.2, SVG Export Plug-In . SVG Version: 6.00 Build 0)  -->
<svg version="1.1" id="圖層_1" xmlns="http://www.w3.org/2000/svg" xmlns:xlink="http://www.w3.org/1999/xlink" x="0px" y="0px"
	 viewBox="0 0 50 50" style="enable-background:new 0 0 50 50;" xml:space="preserve">
<style type="text/css">
	.st0{fill:#454444;}
</style>
<g>
	<path class="st0" d="M10.5,45.2c-2.3,0-4.6-0.9-6.4-2.6l-0.3-0.3c-3.5-3.5-3.5-9.2,0-12.7l13.2-13.2c3.5-3.5,9.2-3.5,12.7,0
		l0.3,0.3c3.5,3.5,3.5,9.2,0,12.7L27,32.5c-0.5,0.5-1.2,0.5-1.7,0c-0.5-0.5-0.5-1.2,0-1.7l3.2-3.2c2.6-2.6,2.6-6.8,0-9.3l-0.3-0.3
		c-2.6-2.6-6.8-2.6-9.3,0L5.5,31.2c-2.6,2.6-2.6,6.8,0,9.3l0.3,0.3c2.6,2.6,6.8,2.6,9.3,0l3.6-3.6c0.5-0.5,1.2-0.5,1.7,0
		s0.5,1.2,0,1.7l-3.6,3.6C15.1,44.3,12.8,45.2,10.5,45.2z"/>
	<path class="st0" d="M26.6,36.8c-2.3,0-4.6-0.9-6.4-2.6c-3.5-3.5-3.5-9.2,0-12.7l3.2-3.2c0.5-0.5,1.2-0.5,1.7,0s0.5,1.2,0,1.7
		l-3.2,3.2c-2.6,2.6-2.6,6.8,0,9.3c1.2,1.2,2.9,1.9,4.7,1.9c1.8,0,3.4-0.7,4.7-1.9L44.7,19c2.6-2.6,2.6-6.8,0-9.3
		c-2.6-2.6-6.8-2.6-9.3,0l-3.5,3.5c-0.5,0.5-1.2,0.5-1.7,0c-0.5-0.5-0.5-1.2,0-1.7L33.7,8c3.5-3.5,9.2-3.5,12.7,0
		c3.5,3.5,3.5,9.2,0,12.7L33,34.1C31.2,35.9,28.9,36.8,26.6,36.8z"/>
</g>
</svg>
