<?xml version="1.0" encoding="utf-8"?>
<!-- Generator: Adobe Illustrator 28.0.0, SVG Export Plug-In . SVG Version: 6.00 Build 0)  -->
<svg version="1.1" id="圖層_1" xmlns="http://www.w3.org/2000/svg" xmlns:xlink="http://www.w3.org/1999/xlink" x="0px" y="0px"
	 viewBox="0 0 30 30" style="enable-background:new 0 0 30 30;" xml:space="preserve">
<style type="text/css">
	.st0{fill:#FFFFFF;}
</style>
<g>
	<path class="st0" d="M29.4,10.1h-0.6V3.8C29.5,3.5,30,2.8,30,2c0-1-0.8-1.9-1.9-1.9S26.3,1,26.3,2c0,0.8,0.5,1.5,1.2,1.8v6.4h-0.6
		V8.3c0-1.7-1.4-3.1-3.1-3.1h-3.2c-0.2-1.1-1.1-1.9-2.2-1.9h-6.9c-1.1,0-2,0.8-2.2,1.9h-3c-1.7,0-3.1,1.4-3.1,3.1v1.9H2.5V3.8
		c0.8-0.3,1.3-1,1.3-1.8c0-1-0.8-1.9-1.9-1.9S0,1,0,2c0,0.8,0.5,1.5,1.2,1.8v6.4H0.7c-0.3,0-0.6,0.3-0.6,0.6v10
		c0,0.3,0.3,0.6,0.6,0.6h2.5v4.5c0,1.7,1.4,3.1,3.1,3.1h6.2h5h6.2c1.7,0,3.1-1.4,3.1-3.1v-4.5h2.5c0.3,0,0.6-0.3,0.6-0.6v-10
		C30,10.4,29.7,10.1,29.4,10.1z M28.1,1.4c0.3,0,0.6,0.3,0.6,0.6s-0.3,0.6-0.6,0.6c-0.3,0-0.6-0.3-0.6-0.6S27.8,1.4,28.1,1.4z
		 M1.9,1.4c0.3,0,0.6,0.3,0.6,0.6S2.2,2.6,1.9,2.6S1.3,2.4,1.3,2C1.3,1.7,1.6,1.4,1.9,1.4z M11.6,4.5h6.9c0.5,0,0.9,0.4,0.9,0.9
		S19,6.3,18.5,6.3h-6.9c-0.5,0-0.9-0.4-0.9-0.9C10.6,4.9,11.1,4.5,11.6,4.5z M1.3,20.1v-8.7h1.2h0.6v8.7H1.3z M25.6,25.9
		c0,1-0.8,1.9-1.9,1.9H6.3c-1,0-1.9-0.8-1.9-1.9v-5.1v-10V8.3c0-1,0.8-1.9,1.9-1.9h3.3c0.4,0.7,1.1,1.2,2,1.2h6.9
		c0.9,0,1.6-0.5,2-1.2h3.3c1,0,1.9,0.8,1.9,1.9v2.5v5L25.6,25.9L25.6,25.9z M28.8,20.1h-1.9v-8.7h0.6h1.2L28.8,20.1L28.8,20.1z"/>
	<path class="st0" d="M22.5,9.5h-15c-1,0-1.9,0.8-1.9,1.9v13.2c0,1,0.8,1.9,1.9,1.9h15c1,0,1.9-0.8,1.9-1.9V11.4
		C24.4,10.3,23.5,9.5,22.5,9.5z M23.1,24.6c0,0.3-0.3,0.6-0.6,0.6h-15c-0.3,0-0.6-0.3-0.6-0.6V11.4c0-0.3,0.3-0.6,0.6-0.6h15
		c0.3,0,0.6,0.3,0.6,0.6V24.6z"/>
	<path class="st0" d="M11.8,14.5c-0.9,0-1.5,0.6-1.5,1.3c0,0.3,0.3,0.6,0.6,0.6s0.6-0.3,0.6-0.6c0,0,0.2-0.1,0.4-0.1
		s0.3,0.1,0.3,0.1c0,0.3,0.3,0.6,0.7,0.6c0.3,0,0.6-0.3,0.6-0.7C13.5,15,12.8,14.5,11.8,14.5z"/>
	<path class="st0" d="M18.2,14.5c-0.9,0-1.6,0.5-1.7,1.3c0,0.3,0.2,0.6,0.6,0.7c0.3,0,0.6-0.2,0.7-0.6c0,0,0.1-0.1,0.3-0.1
		c0.2,0,0.4,0.1,0.4,0.1l0,0c0,0.3,0.3,0.6,0.6,0.6s0.6-0.3,0.6-0.6C19.7,15.1,19.1,14.5,18.2,14.5z"/>
</g>
<g>
	<line class="st0" x1="12.3" y1="20.1" x2="17.3" y2="20.1"/>
	<rect x="12.3" y="19.6" class="st0" width="5" height="1"/>
</g>
</svg>
