<?xml version="1.0" encoding="utf-8"?>
<!-- Generator: Adobe Illustrator 24.0.2, SVG Export Plug-In . SVG Version: 6.00 Build 0)  -->
<svg version="1.1" id="圖層_1" xmlns="http://www.w3.org/2000/svg" xmlns:xlink="http://www.w3.org/1999/xlink" x="0px" y="0px"
	 viewBox="0 0 48 33.6" style="enable-background:new 0 0 48 33.6;" xml:space="preserve">
<style type="text/css">
	.st0{fill:#FFFFFF;}
</style>
<path class="st0" d="M42.4,30.1H5.6c-0.6,0-1-0.5-1-1V2.3C4.6,1,5.6,0,6.9,0h34.1c0.9,0,1.5,0.4,1.8,0.7c0.7,0.7,0.7,1.6,0.7,1.8
	l0,26.6C43.4,29.6,43,30.1,42.4,30.1z M6.6,28h34.7V2.5C41.4,2,41.1,2,40.9,2H6.9C6.7,2,6.6,2.2,6.6,2.3V28z"/>
<path class="st0" d="M44.1,33.6H3.9c-1.5,0-3.3-1.3-3.5-1.4C0.2,32,0,31.7,0,31.3v-2.3c0-0.6,0.5-1,1-1h46c0.6,0,1,0.5,1,1v2.3
	c0,0.3-0.2,0.6-0.4,0.8C47.4,32.3,45.6,33.6,44.1,33.6z M2,30.8c0.6,0.4,1.4,0.7,1.8,0.7h40.2c0.5,0,1.3-0.4,1.8-0.7v-0.7H2V30.8z
	 M47,31.3L47,31.3L47,31.3z"/>
<rect x="10.1" y="17.3" class="st0" width="27.1" height="2"/>
<rect x="24.2" y="8" class="st0" width="12.2" height="2"/>
<rect x="24.2" y="12.1" class="st0" width="12.2" height="2"/>
<rect x="10.1" y="22.4" class="st0" width="27.1" height="2"/>
<path class="st0" d="M20.1,14.1H10V5.5h10.1V14.1z M12.1,12.1h6V7.5h-6V12.1z"/>
</svg>
