<?xml version="1.0" encoding="utf-8"?>
<!-- Generator: Adobe Illustrator 24.0.2, SVG Export Plug-In . SVG Version: 6.00 Build 0)  -->
<svg version="1.1" id="圖層_1" xmlns="http://www.w3.org/2000/svg" xmlns:xlink="http://www.w3.org/1999/xlink" x="0px" y="0px"
	 viewBox="0 0 47 42" style="enable-background:new 0 0 47 42;" xml:space="preserve">
<style type="text/css">
	.st0{fill:#FFFFFF;}
</style>
<g>
	<g>
		<path class="st0" d="M23.5,42c-0.2,0-0.4-0.1-0.5-0.2c-0.3-0.2-0.5-0.5-0.5-0.9V24.6c0-0.4,0.2-0.7,0.6-0.9l14.6-7.3
			c0.5-0.3,1.1,0,1.4,0.5c0.3,0.5,0,1.1-0.5,1.4l-14,7v14.1l12.6-6.3v-7.3c0-0.6,0.5-1,1-1s1,0.5,1,1v7.9c0,0.4-0.2,0.7-0.6,0.9
			L24,41.9C23.8,42,23.7,42,23.5,42z"/>
		<path class="st0" d="M23.5,42c-0.2,0-0.3,0-0.5-0.1L8.5,34.6c-0.3-0.2-0.6-0.5-0.6-0.9v-7.9h2v7.3l12.6,6.3V25.2l-14-7l0.9-1.8
			L24,23.7c0.3,0.2,0.6,0.5,0.6,0.9V41c0,0.4-0.2,0.7-0.5,0.9C23.9,42,23.7,42,23.5,42z"/>
		<path class="st0" d="M15.6,30.2c-0.2,0-0.3,0-0.5-0.1L0.6,22.8C0.2,22.6,0,22.2,0,21.9c0-0.4,0.2-0.7,0.5-0.9l7.9-4.5
			c0.3-0.2,0.7-0.2,1,0L24,23.7c0.3,0.2,0.6,0.5,0.6,0.9c0,0.4-0.2,0.7-0.5,0.9L16.1,30C16,30.1,15.8,30.2,15.6,30.2z M3.2,21.8
			L15.6,28l5.8-3.3L9,18.5L3.2,21.8z"/>
		<path class="st0" d="M31.4,30.2c-0.2,0-0.4,0-0.5-0.1L23,25.5c-0.3-0.2-0.5-0.5-0.5-0.9c0-0.4,0.2-0.7,0.6-0.9l14.6-7.3
			c0.3-0.2,0.7-0.1,1,0l7.9,4.5c0.3,0.2,0.5,0.5,0.5,0.9c0,0.4-0.2,0.7-0.6,0.9L31.9,30C31.7,30.1,31.6,30.2,31.4,30.2z M25.7,24.7
			l5.8,3.3l12.4-6.2l-5.8-3.3L25.7,24.7z"/>
		<path class="st0" d="M8.9,18.3c-0.2,0-0.3,0-0.5-0.1l-7.9-4.5C0.2,13.5,0,13.1,0,12.7c0-0.4,0.2-0.7,0.6-0.9l12-6
			c0.5-0.3,1.1,0,1.4,0.5c0.3,0.5,0,1.1-0.5,1.4L3.2,12.8L9,16.2l4.2-2.1c0.5-0.2,1.1,0,1.4,0.5c0.2,0.5,0,1.1-0.5,1.4l-4.7,2.3
			C9.2,18.3,9.1,18.3,8.9,18.3z"/>
		<path class="st0" d="M38.1,18.3c-0.2,0-0.3,0-0.5-0.1l-4.7-2.4c-0.5-0.3-0.7-0.9-0.5-1.4c0.3-0.5,0.9-0.7,1.4-0.5l4.2,2.1l5.8-3.3
			L33.2,7.7c-0.5-0.2-0.7-0.9-0.5-1.4c0.2-0.5,0.9-0.7,1.4-0.5l12.3,6c0.3,0.2,0.6,0.5,0.6,0.9c0,0.4-0.2,0.7-0.5,0.9l-7.9,4.5
			C38.5,18.3,38.3,18.3,38.1,18.3z"/>
	</g>
	<g>
		<path class="st0" d="M23.5,42c-0.2,0-0.4-0.1-0.5-0.2c-0.3-0.2-0.5-0.5-0.5-0.9V24.6c0-0.4,0.2-0.7,0.6-0.9l14.6-7.3
			c0.5-0.3,1.1,0,1.4,0.5c0.3,0.5,0,1.1-0.5,1.4l-14,7v14.1l12.6-6.3v-7.3c0-0.6,0.5-1,1-1s1,0.5,1,1v7.9c0,0.4-0.2,0.7-0.6,0.9
			L24,41.9C23.8,42,23.7,42,23.5,42z"/>
		<path class="st0" d="M23.5,42c-0.2,0-0.3,0-0.5-0.1L8.5,34.6c-0.3-0.2-0.6-0.5-0.6-0.9v-7.9h2v7.3l12.6,6.3V25.2l-14-7l0.9-1.8
			L24,23.7c0.3,0.2,0.6,0.5,0.6,0.9V41c0,0.4-0.2,0.7-0.5,0.9C23.9,42,23.7,42,23.5,42z"/>
		<path class="st0" d="M15.6,30.2c-0.2,0-0.3,0-0.5-0.1L0.6,22.8C0.2,22.6,0,22.2,0,21.9c0-0.4,0.2-0.7,0.5-0.9l7.9-4.5
			c0.3-0.2,0.7-0.2,1,0L24,23.7c0.3,0.2,0.6,0.5,0.6,0.9c0,0.4-0.2,0.7-0.5,0.9L16.1,30C16,30.1,15.8,30.2,15.6,30.2z M3.2,21.8
			L15.6,28l5.8-3.3L9,18.5L3.2,21.8z"/>
		<path class="st0" d="M31.4,30.2c-0.2,0-0.4,0-0.5-0.1L23,25.5c-0.3-0.2-0.5-0.5-0.5-0.9c0-0.4,0.2-0.7,0.6-0.9l14.6-7.3
			c0.3-0.2,0.7-0.1,1,0l7.9,4.5c0.3,0.2,0.5,0.5,0.5,0.9c0,0.4-0.2,0.7-0.6,0.9L31.9,30C31.7,30.1,31.6,30.2,31.4,30.2z M25.7,24.7
			l5.8,3.3l12.4-6.2l-5.8-3.3L25.7,24.7z"/>
		<path class="st0" d="M8.9,18.3c-0.2,0-0.3,0-0.5-0.1l-7.9-4.5C0.2,13.5,0,13.1,0,12.7c0-0.4,0.2-0.7,0.6-0.9l12-6
			c0.5-0.3,1.1,0,1.4,0.5c0.3,0.5,0,1.1-0.5,1.4L3.2,12.8L9,16.2l4.2-2.1c0.5-0.2,1.1,0,1.4,0.5c0.2,0.5,0,1.1-0.5,1.4l-4.7,2.3
			C9.2,18.3,9.1,18.3,8.9,18.3z"/>
		<path class="st0" d="M38.1,18.3c-0.2,0-0.3,0-0.5-0.1l-4.7-2.4c-0.5-0.3-0.7-0.9-0.5-1.4c0.3-0.5,0.9-0.7,1.4-0.5l4.2,2.1l5.8-3.3
			L33.2,7.7c-0.5-0.2-0.7-0.9-0.5-1.4c0.2-0.5,0.9-0.7,1.4-0.5l12.3,6c0.3,0.2,0.6,0.5,0.6,0.9c0,0.4-0.2,0.7-0.5,0.9l-7.9,4.5
			C38.5,18.3,38.3,18.3,38.1,18.3z"/>
	</g>
	<g>
		<path class="st0" d="M23.5,16.4c-4.5,0-8.2-3.7-8.2-8.2C15.3,3.7,19,0,23.5,0c4.5,0,8.2,3.7,8.2,8.2C31.7,12.7,28,16.4,23.5,16.4z
			 M23.5,2c-3.4,0-6.1,2.8-6.1,6.1c0,3.4,2.8,6.1,6.1,6.1c3.4,0,6.1-2.8,6.1-6.1C29.7,4.8,26.9,2,23.5,2z"/>
		<path class="st0" d="M22.9,11.3c-0.3,0-0.5-0.1-0.7-0.3l-1.9-1.9c-0.4-0.4-0.4-1,0-1.4c0.4-0.4,1-0.4,1.4,0l1.1,1.1l3.1-3.5
			c0.4-0.4,1-0.5,1.4-0.1c0.4,0.4,0.5,1,0.1,1.4L23.7,11C23.5,11.2,23.2,11.3,22.9,11.3C23,11.3,22.9,11.3,22.9,11.3z"/>
	</g>
	<g>
		<path class="st0" d="M23.5,16.4c-4.5,0-8.2-3.7-8.2-8.2C15.3,3.7,19,0,23.5,0c4.5,0,8.2,3.7,8.2,8.2C31.7,12.7,28,16.4,23.5,16.4z
			 M23.5,2c-3.4,0-6.1,2.8-6.1,6.1c0,3.4,2.8,6.1,6.1,6.1c3.4,0,6.1-2.8,6.1-6.1C29.7,4.8,26.9,2,23.5,2z"/>
		<path class="st0" d="M22.9,11.3c-0.3,0-0.5-0.1-0.7-0.3l-1.9-1.9c-0.4-0.4-0.4-1,0-1.4c0.4-0.4,1-0.4,1.4,0l1.1,1.1l3.1-3.5
			c0.4-0.4,1-0.5,1.4-0.1c0.4,0.4,0.5,1,0.1,1.4L23.7,11C23.5,11.2,23.2,11.3,22.9,11.3C23,11.3,22.9,11.3,22.9,11.3z"/>
	</g>
</g>
</svg>
