<?xml version="1.0" encoding="utf-8"?>
<!-- Generator: Adobe Illustrator 24.0.2, SVG Export Plug-In . SVG Version: 6.00 Build 0)  -->
<svg version="1.1" id="圖層_1" xmlns="http://www.w3.org/2000/svg" xmlns:xlink="http://www.w3.org/1999/xlink" x="0px" y="0px"
	 viewBox="0 0 46 46" style="enable-background:new 0 0 46 46;" xml:space="preserve">
<style type="text/css">
	.st0{fill:#FFFFFF;}
</style>
<path class="st0" d="M21.4,20.8c-0.5-0.5-1.4-0.5-1.9,0c-0.5,0.5-0.5,1.4,0,1.9l3.8,3.8c0.5,0.5,1.4,0.5,1.9,0
	c0.5-0.5,0.5-1.4,0-1.9L21.4,20.8z M17.5,24.6c-0.5-0.5-1.4-0.5-1.9,0c-0.5,0.5-0.5,1.4,0,1.9l3.8,3.8c0.5,0.5,1.4,0.5,1.9,0
	c0.5-0.5,0.5-1.4,0-1.9L17.5,24.6z M25.2,9.4c-0.5-0.5-1.4-0.5-1.9,0L8,24.6c-0.5,0.5-0.5,1.4,0,1.9L19.5,38c0.5,0.5,1.4,0.5,1.9,0
	l15.2-15.2c0.5-0.5,0.5-1.4,0-1.9L25.2,9.4z M20.4,35.1l-9.5-9.5l13.3-13.3l9.5,9.5L20.4,35.1z M23.3,17c-0.5,0.5-0.5,1.4,0,1.9
	l3.8,3.8c0.5,0.5,1.4,0.5,1.9,0c0.5-0.5,0.5-1.4,0-1.9L25.2,17C24.6,16.5,23.8,16.5,23.3,17L23.3,17z M42.6,5.3l3-3
	c0.5-0.5,0.5-1.4,0-1.9c-0.5-0.5-1.4-0.5-1.9,0l-3,3l-2.9-2.9c-0.3-0.3-0.6-0.4-1-0.4c0,0-11.4,0-11.4,0c-0.4,0-0.7,0.1-0.9,0.4
	L0.4,24.6c-0.5,0.5-0.5,1.4,0,1.9l19.1,19.1c0.5,0.5,1.4,0.5,1.9,0l24.1-24.1c0.3-0.3,0.4-0.6,0.4-1V9.2c0-0.4-0.1-0.7-0.4-1
	L42.6,5.3z M43.1,20L20.4,42.7L3.3,25.6L26,2.9l10.3,0l2.5,2.5l-6,6c-0.5,0.5-0.5,1.4,0,1.9c0.5,0.5,1.4,0.5,1.9,0l6-6l2.5,2.5V20z
	 M43.1,20"/>
</svg>
