<?xml version="1.0" encoding="utf-8"?>
<!-- Generator: Adobe Illustrator 24.0.2, SVG Export Plug-In . SVG Version: 6.00 Build 0)  -->
<svg version="1.1" id="圖層_1" xmlns="http://www.w3.org/2000/svg" xmlns:xlink="http://www.w3.org/1999/xlink" x="0px" y="0px"
	 viewBox="0 0 37.7 31.7" style="enable-background:new 0 0 37.7 31.7;" xml:space="preserve">
<style type="text/css">
	.st0{fill:#FFFFFF;}
</style>
<path class="st0" d="M18.8,31.7c-0.2,0-0.4-0.1-0.6-0.2C17.6,31.1,4,21.6,1.1,15.4c-1.3-2.7-1.4-6-0.4-8.9c0.9-2.5,2.6-4.4,4.8-5.4
	c4.8-2.3,10.8-0.8,13.4,3.1c2.6-4,8.6-5.4,13.4-3.2c2.2,1,3.9,3,4.8,5.4c1,2.8,0.9,6.2-0.4,8.9c-2.9,6.1-16.1,15.3-17.1,16
	C19.3,31.6,19.1,31.7,18.8,31.7z M10.3,2.3C9,2.3,7.6,2.6,6.4,3.1C4.8,3.9,3.5,5.4,2.8,7.3c-0.8,2.3-0.7,5,0.3,7.2
	c2.3,4.9,12.9,12.7,15.7,14.7c2.7-1.9,13.4-9.8,15.8-14.8c1-2.2,1.2-4.9,0.3-7.2c-0.7-1.9-2-3.4-3.6-4.2c0,0,0,0,0,0
	c-3.8-1.8-8.9-0.6-10.7,2.6L19.8,7c0,0,0,0,0,0.1l0,0.1c-0.2,0.3-0.6,0.5-1,0.5c-0.4,0-0.7-0.2-0.9-0.6l-0.7-1.2
	C15.9,3.6,13.1,2.3,10.3,2.3z"/>
</svg>
