<?xml version="1.0" encoding="utf-8"?>
<!-- Generator: Adobe Illustrator 25.4.1, SVG Export Plug-In . SVG Version: 6.00 Build 0)  -->
<svg version="1.1" id="圖層_1" xmlns:serif="http://www.serif.com/"
	 xmlns="http://www.w3.org/2000/svg" xmlns:xlink="http://www.w3.org/1999/xlink" x="0px" y="0px" viewBox="0 0 150 200"
	 style="enable-background:new 0 0 150 200;" xml:space="preserve">
<style type="text/css">
	.st0{fill-rule:evenodd;clip-rule:evenodd;fill:#737373;}
	.st1{fill-rule:evenodd;clip-rule:evenodd;fill:#66BD00;}
</style>
<g>
	<g transform="matrix(0.75,0,0,0.75,3.5,7)">
		<path class="st0" d="M35.6,12c0-1.3-1-2.3-2.3-2.3h-6.9c-1.3,0-2.3,1-2.3,2.3v6.9c0,1.3,1,2.3,2.3,2.3h6.9c1.3,0,2.3-1,2.3-2.3V12
			z M28,13.5v3.8h3.8v-3.8H28z"/>
	</g>
	<g transform="matrix(0.75,0,0,0.75,3.5,14)">
		<path class="st0" d="M35.6,16c0-1.3-1-2.3-2.3-2.3h-6.9c-1.3,0-2.3,1-2.3,2.3v6.9c0,1.3,1,2.3,2.3,2.3h6.9c1.3,0,2.3-1,2.3-2.3V16
			z M28,17.5v3.8h3.8v-3.8H28z"/>
	</g>
	<g transform="matrix(0.75,0,0,0.75,3.5,21)">
		<path class="st0" d="M35.6,20c0-1.3-1-2.3-2.3-2.3h-6.9c-1.3,0-2.3,1-2.3,2.3v6.9c0,1.3,1,2.3,2.3,2.3h6.9c1.3,0,2.3-1,2.3-2.3V20
			z M28,21.5v3.8h3.8v-3.8H28z"/>
	</g>
	<g transform="matrix(2,0,0,0.5,4,9)">
		<path class="st0" d="M26,15.7c0-1.3-0.3-2.3-0.6-2.3H15.1c-0.3,0-0.6,1-0.6,2.3v6.9c0,1.3,0.3,2.3,0.6,2.3h10.3
			c0.3,0,0.6-1,0.6-2.3V15.7z"/>
	</g>
	<g transform="matrix(2,0,0,0.5,4,16)">
		<path class="st0" d="M26,21.7c0-1.3-0.3-2.3-0.6-2.3H15.1c-0.3,0-0.6,1-0.6,2.3v6.9c0,1.3,0.3,2.3,0.6,2.3h10.3
			c0.3,0,0.6-1,0.6-2.3V21.7z"/>
	</g>
	<g transform="matrix(2,0,0,0.5,4,23)">
		<path class="st0" d="M26,27.7c0-1.3-0.3-2.3-0.6-2.3H15.1c-0.3,0-0.6,1-0.6,2.3v6.9c0,1.3,0.3,2.3,0.6,2.3h10.3
			c0.3,0,0.6-1,0.6-2.3V27.7z"/>
	</g>
</g>
<g transform="matrix(1,0,0,1,50,0)">
	<g transform="matrix(0.75,0,0,0.75,3.5,7)">
		<path class="st1" d="M64.2,12c0-1.3-1-2.3-2.3-2.3H55c-1.3,0-2.3,1-2.3,2.3v6.9c0,1.3,1,2.3,2.3,2.3h6.9c1.3,0,2.3-1,2.3-2.3V12z
			 M56.6,13.5v3.8h3.8v-3.8H56.6z"/>
	</g>
	<g transform="matrix(0.75,0,0,0.75,3.5,14)">
		<path class="st1" d="M64.2,16c0-1.3-1-2.3-2.3-2.3H55c-1.3,0-2.3,1-2.3,2.3v6.9c0,1.3,1,2.3,2.3,2.3h6.9c1.3,0,2.3-1,2.3-2.3V16z
			 M56.6,17.5v3.8h3.8v-3.8H56.6z"/>
	</g>
	<g transform="matrix(0.75,0,0,0.75,3.5,21)">
		<path class="st1" d="M64.2,20c0-1.3-1-2.3-2.3-2.3H55c-1.3,0-2.3,1-2.3,2.3v6.9c0,1.3,1,2.3,2.3,2.3h6.9c1.3,0,2.3-1,2.3-2.3V20z
			 M56.6,21.5v3.8h3.8v-3.8H56.6z"/>
	</g>
	<g transform="matrix(2,0,0,0.5,4,9)">
		<path class="st1" d="M36.7,15.7c0-1.3-0.3-2.3-0.6-2.3H25.8c-0.3,0-0.6,1-0.6,2.3v6.9c0,1.3,0.3,2.3,0.6,2.3h10.3
			c0.3,0,0.6-1,0.6-2.3V15.7z"/>
	</g>
	<g transform="matrix(2,0,0,0.5,4,16)">
		<path class="st1" d="M36.7,21.7c0-1.3-0.3-2.3-0.6-2.3H25.8c-0.3,0-0.6,1-0.6,2.3v6.9c0,1.3,0.3,2.3,0.6,2.3h10.3
			c0.3,0,0.6-1,0.6-2.3V21.7z"/>
	</g>
	<g transform="matrix(2,0,0,0.5,4,23)">
		<path class="st1" d="M36.7,27.7c0-1.3-0.3-2.3-0.6-2.3H25.8c-0.3,0-0.6,1-0.6,2.3v6.9c0,1.3,0.3,2.3,0.6,2.3h10.3
			c0.3,0,0.6-1,0.6-2.3V27.7z"/>
	</g>
</g>
<g transform="matrix(1,0,0,1,50,100)">
	<g transform="matrix(2.5,0,0,0.5,-7,23)">
		<path class="st1" d="M31.5,113.4c0-1.3-0.2-2.3-0.5-2.3H20.5c-0.3,0-0.5,1-0.5,2.3v6.9c0,1.3,0.2,2.3,0.5,2.3H31
			c0.3,0,0.5-1,0.5-2.3V113.4z"/>
	</g>
	<g transform="matrix(1.75,0,0,0.5,-2.5,9)">
		<path class="st1" d="M37.5,101.4c0-1.3-0.3-2.3-0.7-2.3H26.7c-0.4,0-0.7,1-0.7,2.3v6.9c0,1.3,0.3,2.3,0.7,2.3h10.1
			c0.4,0,0.7-1,0.7-2.3V101.4z"/>
	</g>
	<g transform="matrix(1.75,0,0,0.5,-2.5,16)">
		<path class="st1" d="M37.5,107.4c0-1.3-0.3-2.3-0.7-2.3H26.7c-0.4,0-0.7,1-0.7,2.3v6.9c0,1.3,0.3,2.3,0.7,2.3h10.1
			c0.4,0,0.7-1,0.7-2.3V107.4z"/>
	</g>
	<g transform="matrix(7.23655e-17,1.18182,-1.25,7.65404e-17,181.25,10)">
		<path class="st1" d="M46.6,81.4c0.3-0.4,0.7-0.6,1.2-0.6c0.5,0,0.9,0.2,1.2,0.6c1.4,2.1,3.8,5.5,5.3,7.7c0.3,0.4,0.3,0.9,0.1,1.3
			c-0.2,0.4-0.7,0.7-1.2,0.7c-2.9,0-7.7,0-10.6,0c-0.5,0-1-0.3-1.2-0.7C41,90,41,89.5,41.3,89.1C42.8,86.9,45.2,83.4,46.6,81.4z"/>
	</g>
</g>
<g transform="matrix(1,0,0,1,0,100)">
	<g transform="matrix(2.5,0,0,0.5,-7,23)">
		<path class="st0" d="M22.9,113.4c0-1.3-0.2-2.3-0.5-2.3H11.9c-0.3,0-0.5,1-0.5,2.3v6.9c0,1.3,0.2,2.3,0.5,2.3h10.5
			c0.3,0,0.5-1,0.5-2.3V113.4z"/>
	</g>
	<g transform="matrix(1.75,0,0,0.5,-2.5,9)">
		<path class="st0" d="M25.2,101.4c0-1.3-0.3-2.3-0.7-2.3H14.4c-0.4,0-0.7,1-0.7,2.3v6.9c0,1.3,0.3,2.3,0.7,2.3h10.1
			c0.4,0,0.7-1,0.7-2.3V101.4z"/>
	</g>
	<g transform="matrix(1.75,0,0,0.5,-2.5,16)">
		<path class="st0" d="M25.2,107.4c0-1.3-0.3-2.3-0.7-2.3H14.4c-0.4,0-0.7,1-0.7,2.3v6.9c0,1.3,0.3,2.3,0.7,2.3h10.1
			c0.4,0,0.7-1,0.7-2.3V107.4z"/>
	</g>
	<g transform="matrix(7.23655e-17,1.18182,-1.25,7.65404e-17,181.25,10)">
		<path class="st0" d="M46.6,98.5c0.3-0.4,0.7-0.6,1.2-0.6c0.5,0,0.9,0.2,1.2,0.6c1.4,2.1,3.8,5.5,5.3,7.7c0.3,0.4,0.3,0.9,0.1,1.3
			c-0.2,0.4-0.7,0.7-1.2,0.7c-2.9,0-7.7,0-10.6,0c-0.5,0-1-0.3-1.2-0.7c-0.2-0.4-0.2-0.9,0.1-1.3C42.8,104,45.2,100.6,46.6,98.5z"/>
	</g>
</g>
<g transform="matrix(0.707107,0.707107,-0.707107,0.707107,57.3697,1.36039)">
	<path class="st0" d="M47.9,94.1h16.5c0.9,0,1.8-0.4,2.5-1c0.7-0.7,1-1.5,1-2.5V74.1c0-4.7-3.8-8.6-8.6-8.6s-8.6,3.8-8.6,8.6V77
		h-2.9c-4.7,0-8.6,3.8-8.6,8.6C39.3,90.3,43.1,94.1,47.9,94.1z"/>
</g>
<g transform="matrix(0.707107,0.707107,-0.707107,0.707107,107.37,1.36039)">
	<path class="st1" d="M63,79h16.5c0.9,0,1.8-0.4,2.5-1c0.7-0.7,1-1.5,1-2.5V59c0-4.7-3.8-8.6-8.6-8.6s-8.6,3.8-8.6,8.6v2.9H63
		c-4.7,0-8.6,3.8-8.6,8.6C54.5,75.1,58.3,79,63,79z"/>
</g>
</svg>
