<?xml version="1.0" encoding="UTF-8" standalone="no"?>
<!DOCTYPE svg PUBLIC "-//W3C//DTD SVG 1.1//EN" "http://www.w3.org/Graphics/SVG/1.1/DTD/svg11.dtd">
<svg width="100%" height="100%" viewBox="0 0 90 140" version="1.1" xmlns="http://www.w3.org/2000/svg" xmlns:xlink="http://www.w3.org/1999/xlink" xml:space="preserve" xmlns:serif="http://www.serif.com/" style="fill-rule:evenodd;clip-rule:evenodd;stroke-linejoin:round;stroke-miterlimit:2;">
    <g>
        <g transform="matrix(0.75,0,0,0.75,3.5,7)">
            <path d="M14,5.6C14,4.717 13.283,4 12.4,4L7.6,4C6.717,4 6,4.717 6,5.6L6,10.4C6,11.283 6.717,12 7.6,12L12.4,12C13.283,12 14,11.283 14,10.4L14,5.6ZM8.667,6.667L8.667,9.333L11.333,9.333L11.333,6.667L8.667,6.667Z" style="fill:rgb(115,115,115);"/>
        </g>
        <g transform="matrix(0.75,0,0,0.75,3.5,14)">
            <path d="M14,5.6C14,4.717 13.283,4 12.4,4L7.6,4C6.717,4 6,4.717 6,5.6L6,10.4C6,11.283 6.717,12 7.6,12L12.4,12C13.283,12 14,11.283 14,10.4L14,5.6ZM8.667,6.667L8.667,9.333L11.333,9.333L11.333,6.667L8.667,6.667Z" style="fill:rgb(115,115,115);"/>
        </g>
        <g transform="matrix(0.75,0,0,0.75,3.5,21)">
            <path d="M14,5.6C14,4.717 13.283,4 12.4,4L7.6,4C6.717,4 6,4.717 6,5.6L6,10.4C6,11.283 6.717,12 7.6,12L12.4,12C13.283,12 14,11.283 14,10.4L14,5.6ZM8.667,6.667L8.667,9.333L11.333,9.333L11.333,6.667L8.667,6.667Z" style="fill:rgb(115,115,115);"/>
        </g>
        <g transform="matrix(2,0,0,0.5,4,9)">
            <path d="M14,5.6C14,4.717 13.821,4 13.6,4L6.4,4C6.179,4 6,4.717 6,5.6L6,10.4C6,11.283 6.179,12 6.4,12L13.6,12C13.821,12 14,11.283 14,10.4L14,5.6Z" style="fill:rgb(115,115,115);"/>
        </g>
        <g transform="matrix(2,0,0,0.5,4,16)">
            <path d="M14,5.6C14,4.717 13.821,4 13.6,4L6.4,4C6.179,4 6,4.717 6,5.6L6,10.4C6,11.283 6.179,12 6.4,12L13.6,12C13.821,12 14,11.283 14,10.4L14,5.6Z" style="fill:rgb(115,115,115);"/>
        </g>
        <g transform="matrix(2,0,0,0.5,4,23)">
            <path d="M14,5.6C14,4.717 13.821,4 13.6,4L6.4,4C6.179,4 6,4.717 6,5.6L6,10.4C6,11.283 6.179,12 6.4,12L13.6,12C13.821,12 14,11.283 14,10.4L14,5.6Z" style="fill:rgb(115,115,115);"/>
        </g>
    </g>
    <g transform="matrix(1,0,0,1,50,0)">
        <g transform="matrix(0.75,0,0,0.75,3.5,7)">
            <path d="M14,5.6C14,4.717 13.283,4 12.4,4L7.6,4C6.717,4 6,4.717 6,5.6L6,10.4C6,11.283 6.717,12 7.6,12L12.4,12C13.283,12 14,11.283 14,10.4L14,5.6ZM8.667,6.667L8.667,9.333L11.333,9.333L11.333,6.667L8.667,6.667Z" style="fill:white;"/>
        </g>
        <g transform="matrix(0.75,0,0,0.75,3.5,14)">
            <path d="M14,5.6C14,4.717 13.283,4 12.4,4L7.6,4C6.717,4 6,4.717 6,5.6L6,10.4C6,11.283 6.717,12 7.6,12L12.4,12C13.283,12 14,11.283 14,10.4L14,5.6ZM8.667,6.667L8.667,9.333L11.333,9.333L11.333,6.667L8.667,6.667Z" style="fill:white;"/>
        </g>
        <g transform="matrix(0.75,0,0,0.75,3.5,21)">
            <path d="M14,5.6C14,4.717 13.283,4 12.4,4L7.6,4C6.717,4 6,4.717 6,5.6L6,10.4C6,11.283 6.717,12 7.6,12L12.4,12C13.283,12 14,11.283 14,10.4L14,5.6ZM8.667,6.667L8.667,9.333L11.333,9.333L11.333,6.667L8.667,6.667Z" style="fill:white;"/>
        </g>
        <g transform="matrix(2,0,0,0.5,4,9)">
            <path d="M14,5.6C14,4.717 13.821,4 13.6,4L6.4,4C6.179,4 6,4.717 6,5.6L6,10.4C6,11.283 6.179,12 6.4,12L13.6,12C13.821,12 14,11.283 14,10.4L14,5.6Z" style="fill:white;"/>
        </g>
        <g transform="matrix(2,0,0,0.5,4,16)">
            <path d="M14,5.6C14,4.717 13.821,4 13.6,4L6.4,4C6.179,4 6,4.717 6,5.6L6,10.4C6,11.283 6.179,12 6.4,12L13.6,12C13.821,12 14,11.283 14,10.4L14,5.6Z" style="fill:white;"/>
        </g>
        <g transform="matrix(2,0,0,0.5,4,23)">
            <path d="M14,5.6C14,4.717 13.821,4 13.6,4L6.4,4C6.179,4 6,4.717 6,5.6L6,10.4C6,11.283 6.179,12 6.4,12L13.6,12C13.821,12 14,11.283 14,10.4L14,5.6Z" style="fill:white;"/>
        </g>
    </g>
    <g transform="matrix(1,0,0,1,50,100)">
        <g transform="matrix(2.5,0,0,0.5,-7,23)">
            <path d="M14,5.6C14,4.717 13.857,4 13.68,4L6.32,4C6.143,4 6,4.717 6,5.6L6,10.4C6,11.283 6.143,12 6.32,12L13.68,12C13.857,12 14,11.283 14,10.4L14,5.6Z" style="fill:white;"/>
        </g>
        <g transform="matrix(1.75,0,0,0.5,-2.5,9)">
            <path d="M14,5.6C14,4.717 13.795,4 13.543,4L6.457,4C6.205,4 6,4.717 6,5.6L6,10.4C6,11.283 6.205,12 6.457,12L13.543,12C13.795,12 14,11.283 14,10.4L14,5.6Z" style="fill:white;"/>
        </g>
        <g transform="matrix(1.75,0,0,0.5,-2.5,16)">
            <path d="M14,5.6C14,4.717 13.795,4 13.543,4L6.457,4C6.205,4 6,4.717 6,5.6L6,10.4C6,11.283 6.205,12 6.457,12L13.543,12C13.795,12 14,11.283 14,10.4L14,5.6Z" style="fill:white;"/>
        </g>
        <g transform="matrix(7.23655e-17,1.18182,-1.25,7.65404e-17,181.25,10)">
            <path d="M4.685,118.185C4.864,117.925 5.171,117.767 5.5,117.767C5.829,117.767 6.136,117.925 6.315,118.185C7.303,119.623 8.968,122.044 10.024,123.58C10.218,123.863 10.233,124.223 10.063,124.519C9.893,124.816 9.565,125 9.209,125C7.164,125 3.836,125 1.791,125C1.435,125 1.107,124.816 0.937,124.519C0.767,124.223 0.782,123.863 0.976,123.58C2.032,122.044 3.697,119.623 4.685,118.185Z" style="fill:white;"/>
        </g>
    </g>
    <g transform="matrix(1,0,0,1,0,100)">
        <g transform="matrix(2.5,0,0,0.5,-7,23)">
            <path d="M14,5.6C14,4.717 13.857,4 13.68,4L6.32,4C6.143,4 6,4.717 6,5.6L6,10.4C6,11.283 6.143,12 6.32,12L13.68,12C13.857,12 14,11.283 14,10.4L14,5.6Z" style="fill:rgb(115,115,115);"/>
        </g>
        <g transform="matrix(1.75,0,0,0.5,-2.5,9)">
            <path d="M14,5.6C14,4.717 13.795,4 13.543,4L6.457,4C6.205,4 6,4.717 6,5.6L6,10.4C6,11.283 6.205,12 6.457,12L13.543,12C13.795,12 14,11.283 14,10.4L14,5.6Z" style="fill:rgb(115,115,115);"/>
        </g>
        <g transform="matrix(1.75,0,0,0.5,-2.5,16)">
            <path d="M14,5.6C14,4.717 13.795,4 13.543,4L6.457,4C6.205,4 6,4.717 6,5.6L6,10.4C6,11.283 6.205,12 6.457,12L13.543,12C13.795,12 14,11.283 14,10.4L14,5.6Z" style="fill:rgb(115,115,115);"/>
        </g>
        <g transform="matrix(7.23655e-17,1.18182,-1.25,7.65404e-17,181.25,10)">
            <path d="M4.685,118.185C4.864,117.925 5.171,117.767 5.5,117.767C5.829,117.767 6.136,117.925 6.315,118.185C7.303,119.623 8.968,122.044 10.024,123.58C10.218,123.863 10.233,124.223 10.063,124.519C9.893,124.816 9.565,125 9.209,125C7.164,125 3.836,125 1.791,125C1.435,125 1.107,124.816 0.937,124.519C0.767,124.223 0.782,123.863 0.976,123.58C2.032,122.044 3.697,119.623 4.685,118.185Z" style="fill:rgb(115,115,115);"/>
        </g>
    </g>
    <g transform="matrix(0.707107,0.707107,-0.707107,0.707107,57.3697,1.36039)">
        <path d="M16,82.828L27.547,82.828C28.197,82.828 28.821,82.57 29.281,82.11C29.742,81.65 30,81.026 30,80.375L30,68.828C30,65.517 27.311,62.828 24,62.828C20.689,62.828 18,65.517 18,68.828L18,70.828L16,70.828C12.689,70.828 10,73.517 10,76.828C10,80.14 12.689,82.828 16,82.828Z" style="fill:rgb(115,115,115);"/>
    </g>
    <g transform="matrix(0.707107,0.707107,-0.707107,0.707107,107.37,1.36039)">
        <path d="M16,82.828L27.547,82.828C28.197,82.828 28.821,82.57 29.281,82.11C29.742,81.65 30,81.026 30,80.375L30,68.828C30,65.517 27.311,62.828 24,62.828C20.689,62.828 18,65.517 18,68.828L18,70.828L16,70.828C12.689,70.828 10,73.517 10,76.828C10,80.14 12.689,82.828 16,82.828Z" style="fill:white;"/>
    </g>
</svg>
