<?xml version="1.0" encoding="utf-8"?>
<!-- Generator: Adobe Illustrator 27.4.0, SVG Export Plug-In . SVG Version: 6.00 Build 0)  -->
<svg version="1.1" id="圖層_1" xmlns="http://www.w3.org/2000/svg" xmlns:xlink="http://www.w3.org/1999/xlink" x="0px" y="0px"
	 viewBox="0 0 50 50" style="enable-background:new 0 0 50 50;" xml:space="preserve">
<style type="text/css">
	.st0{fill:#0094E0;}
	.st1{display:none;fill:#0094E0;}
	.st2{display:none;fill-rule:evenodd;clip-rule:evenodd;fill:#0094E0;}
</style>
<path class="st0" d="M25,2c12.7,0,23,10.3,23,23S37.7,48,25,48S2,37.7,2,25S12.3,2,25,2 M25,0C11.2,0,0,11.2,0,25s11.2,25,25,25
	s25-11.2,25-25S38.8,0,25,0L25,0z"/>
<path class="st1" d="M33.9,11.5l4.3,4.3c0.3,0.3,0.5,0.8,0.5,1.2s-0.2,0.9-0.5,1.2l-2.4,2.4l-6.7-6.7l2.4-2.4
	c0.3-0.3,0.8-0.5,1.2-0.5C33.1,11,33.6,11.1,33.9,11.5L33.9,11.5z M16.1,26.7l6.9,6.9l11.7-11.7l-1.1-1.1l-1.2-1.2l-2.2-2.2L29,16.2
	L27.8,15L16.1,26.7L16.1,26.7z M11.2,37.4l1-2.6l2.8,2.8l-2.6,1l0,0c-0.2,0.1-0.4,0.1-0.6,0C11.3,38.3,11.1,37.8,11.2,37.4
	L11.2,37.4z M12.8,32.9l1.8-5c0-0.1,0-0.1,0.1-0.2l7.2,7.2h-0.1l-5,1.8L12.8,32.9z"/>
<path class="st2" d="M19.7,22h10.8v-3.6c0-1.5-0.6-2.9-1.6-3.8c-1-1-2.3-1.6-3.8-1.6s-2.9,0.6-3.8,1.6c-1,1-1.6,2.3-1.6,3.8V22
	L19.7,22z M25.2,27.5c-1.2,0-2.3,1-2.3,2.3c0,0.9,0.6,1.7,1.4,2.1v1.5c0,0.5,0.4,0.9,0.9,0.9s0.9-0.4,0.9-0.9v-1.5
	c0.8-0.3,1.4-1.1,1.4-2.1C27.4,28.5,26.4,27.5,25.2,27.5L25.2,27.5z M33.3,22L33.3,22c1.5,0,2.7,1.2,2.7,2.7v11.7
	c0,1.5-1.2,2.7-2.7,2.7H17c-1.5,0-2.7-1.2-2.7-2.7V24.7c0-1.5,1.2-2.7,2.7-2.7v-3.6c0-2.2,0.9-4.3,2.4-5.7c1.5-1.5,3.5-2.4,5.7-2.4
	s4.3,0.9,5.7,2.4c1.5,1.5,2.4,3.5,2.4,5.7L33.3,22L33.3,22z"/>
<g>
	<path class="st0" d="M24.1,14.7c-0.8,0-1.5-0.3-2.1-0.8c-0.6-0.5-0.9-1.2-0.9-2.1c0-0.8,0.3-1.5,0.9-2.1C22.6,9.2,23.3,9,24.1,9
		c0.8,0,1.4,0.2,2,0.7c0.6,0.5,0.9,1.2,0.9,2.1c0,0.9-0.3,1.6-0.9,2.1C25.6,14.5,24.9,14.7,24.1,14.7z M27,20.8v17
		c0,1.2-0.3,2.1-0.8,2.7s-1.3,0.9-2.1,0.9S22.5,41,22,40.4s-0.8-1.5-0.8-2.6V20.9c0-1.2,0.3-2,0.8-2.6c0.5-0.6,1.2-0.9,2.1-0.9
		s1.6,0.3,2.1,0.9C26.7,18.9,27,19.7,27,20.8z"/>
</g>
</svg>
