<?xml version="1.0" encoding="UTF-8" standalone="no"?>
<!DOCTYPE svg PUBLIC "-//W3C//DTD SVG 1.1//EN" "http://www.w3.org/Graphics/SVG/1.1/DTD/svg11.dtd">
<svg width="100%" height="100%" viewBox="0 0 50 50" version="1.1" xmlns="http://www.w3.org/2000/svg" xmlns:xlink="http://www.w3.org/1999/xlink" xml:space="preserve" xmlns:serif="http://www.serif.com/" style="fill-rule:evenodd;clip-rule:evenodd;stroke-linejoin:round;stroke-miterlimit:2;">
    <g transform="matrix(-0.478786,0,0,0.478786,474.894,-173.792)">
        <path d="M889.529,375.517L989.529,375.517L989.529,444.517L889.529,444.517L889.529,375.517ZM985.529,379.517L893.529,379.517C893.529,379.517 893.529,440.517 893.529,440.517C893.529,440.517 985.529,440.517 985.529,440.517L985.529,379.517Z" style="fill:white;"/>
    </g>
    <g transform="matrix(0.478786,0,0,0.478786,29.2712,22.5477)">
        <path d="M-6.048,5.801L4,0L-6.048,-5.802C-6.048,-5.802 -16.099,-11.605 -16.099,-11.605L-16.099,11.606L-6.048,5.801ZM-4,-0L-8.048,2.337C-8.048,2.337 -12.099,4.676 -12.099,4.676L-12.099,-4.677L-4,-0Z" style="fill:white;"/>
    </g>
    <g transform="matrix(0.569152,0,0,0.5,8,43)">
        <path d="M-0,2L8.785,2L8.785,-2L0,-2L-0,2Z" style="fill:white;"/>
    </g>
    <g transform="matrix(0.485664,0,0,0.5,17.7378,43)">
        <path d="M-0,2L53.535,2L53.535,-2L0,-2L-0,2Z" style="fill:white;"/>
    </g>
    <g transform="matrix(0.529287,0,0,0.5,46,43)">
        <path d="M-0,2L5.668,2L5.668,-2L0,-2L-0,2Z" style="fill:white;"/>
    </g>
    <g transform="matrix(-3.16719e-18,0.551724,0.5,-3.16719e-18,3.8125,43)">
        <path d="M-3.625,-5.625L3.625,-5.625L3.625,-1.625L-3.625,-1.625L-3.625,-5.625Z" style="fill:white;"/>
    </g>
    <g transform="matrix(-3.16719e-18,0.551724,0.5,-3.16719e-18,6.8125,43)">
        <path d="M-3.625,-5.625L3.625,-5.625L3.625,-1.625L-3.625,-1.625L-3.625,-5.625Z" style="fill:white;"/>
    </g>
    <g transform="matrix(0,-0.478786,-0.478786,0,15.0045,40.9451)">
        <path d="M-4.292,-6.291C-0.819,-6.291 2,-3.472 2,0.001C2,3.474 -0.819,6.293 -4.292,6.293C-7.765,6.293 -10.584,3.474 -10.584,0.001C-10.584,-3.472 -7.765,-6.291 -4.292,-6.291ZM-4.292,-2.291C-5.557,-2.291 -6.584,-1.264 -6.584,0.001C-6.584,1.266 -5.557,2.293 -4.292,2.293C-3.027,2.293 -2,1.266 -2,0.001C-2,-1.264 -3.027,-2.291 -4.292,-2.291Z" style="fill:white;"/>
    </g>
    <g transform="matrix(0,-0.478786,-0.478786,0,25.0609,12.4638)">
        <path d="M-21,-23C-8.306,-23 2,-12.694 2,0C2,12.694 -8.306,23 -21,23C-33.694,23 -44,12.694 -44,0C-44,-12.694 -33.694,-23 -21,-23ZM-21,-19C-31.486,-19 -40,-10.486 -40,0C-40,10.486 -31.486,19 -21,19C-10.514,19 -2,10.486 -2,0C-2,-10.486 -10.514,-19 -21,-19Z" style="fill:white;"/>
    </g>
</svg>
