<?xml version="1.0" encoding="utf-8"?>
<!-- Generator: Adobe Illustrator 25.4.1, SVG Export Plug-In . SVG Version: 6.00 Build 0)  -->
<svg version="1.1" id="圖層_1" xmlns="http://www.w3.org/2000/svg" xmlns:xlink="http://www.w3.org/1999/xlink" x="0px" y="0px"
	 viewBox="0 0 33.6 40.4" style="enable-background:new 0 0 33.6 40.4;" xml:space="preserve">
<style type="text/css">
	.st0{fill:#FFFFFF;}
</style>
<g>
	<path class="st0" d="M16.5,15.4c4.2,0,7.7-3.4,7.7-7.7c0-4.2-3.4-7.7-7.7-7.7c-4.2,0-7.7,3.4-7.7,7.7C8.9,11.9,12.3,15.4,16.5,15.4
		z M16.5,1.9c3.2,0,5.8,2.6,5.8,5.8c0,3.2-2.6,5.8-5.8,5.8c-3.2,0-5.8-2.6-5.8-5.8C10.8,4.5,13.4,1.9,16.5,1.9z"/>
	<path class="st0" d="M33.4,26.9C33.4,26.9,33.4,26.9,33.4,26.9c-0.1-0.8-0.3-1.6-0.6-2.4c0,0,0,0,0,0c-1.4-3.2-4.1-5.7-7.4-6.8
		c0,0,0,0,0,0c-0.6-0.2-1.2-0.3-1.8-0.3H10c-0.6,0-1.2,0.1-1.8,0.3c0,0,0,0,0,0c-3.3,1.1-6,3.6-7.4,6.8c0,0,0,0,0,0
		c-0.3,0.7-0.5,1.5-0.6,2.4c0,0,0,0,0,0c-0.3,2.7-0.3,5.3-0.1,8c0,0,0,0,0,0c0.1,1.4,0.7,2.8,1.7,3.8c1,1,2.3,1.6,3.8,1.7
		c0,0,0,0,0,0c0,0,0,0,0,0c0,0,0,0,0.1,0c0,0,0,0,0,0h25c1.2,0,2.3-0.9,2.5-2.2c0,0,0,0,0,0C33.6,34.5,33.7,30.6,33.4,26.9z
		 M31,25.2C31,25.2,31,25.2,31,25.2c0.2,0.6,0.4,1.2,0.4,1.8c0,0,0,0,0,0c0.3,3.6,0.3,7.3-0.2,10.9c0,0,0,0,0,0
		c0,0.3-0.3,0.5-0.6,0.5h-1.8V26.6v0v0c0-1.5-1.3-2.8-2.8-2.8h-7.1l-0.1-1l1.4-2.6c0,0,0,0,0,0c0.1-0.3,0.2-0.6,0.2-0.9h3.2
		c0.4,0,0.8,0.1,1.2,0.2c0,0,0,0,0,0C27.6,20.4,29.9,22.5,31,25.2z M6.6,26.6c0-0.5,0.4-0.9,0.9-0.9h7.7c0,0,0,0,0,0c0,0,0,0,0,0H18
		c0,0,0,0,0,0c0,0,0,0,0,0h8c0.5,0,0.9,0.4,0.9,0.9v11.9H6.6V26.6z M16.4,22.9C16.4,22.9,16.4,22.9,16.4,22.9c0-0.3,0-0.7-0.2-1
		c0,0,0,0,0,0l-1.4-2.6h3.8l-1.4,2.6c0,0,0,0,0,0c-0.2,0.3-0.2,0.6-0.2,1c0,0,0,0,0,0l0.1,0.9h-0.7L16.4,22.9z M2,34.8
		C2,34.8,2,34.8,2,34.8C2,34.7,2,34.7,2,34.8c-0.2-2.6-0.1-5.2,0.1-7.7c0,0,0,0,0,0c0.1-0.7,0.2-1.3,0.4-1.8c0,0,0,0,0,0
		c1.2-2.7,3.4-4.8,6.2-5.7c0,0,0,0,0,0c0.4-0.1,0.8-0.2,1.2-0.2h2.9c0,0.3,0.1,0.6,0.2,0.9c0,0,0,0,0,0l1.4,2.6l-0.1,1H7.5
		c-1.5,0-2.8,1.3-2.8,2.8v11.7C3.2,37.8,2.1,36.4,2,34.8z"/>
	<path class="st0" d="M16.8,29.7c-0.9,0-1.6,0.7-1.6,1.6c0,0.9,0.7,1.6,1.6,1.6c0.9,0,1.6-0.7,1.6-1.6
		C18.4,30.4,17.7,29.7,16.8,29.7z M16.8,31.4c-0.1,0-0.2-0.1-0.2-0.2c0-0.1,0.1-0.2,0.2-0.2s0.2,0.1,0.2,0.2
		C17,31.3,16.9,31.4,16.8,31.4z"/>
</g>
</svg>
