<?xml version="1.0" encoding="utf-8"?>
<!-- Generator: Adobe Illustrator 24.0.2, SVG Export Plug-In . SVG Version: 6.00 Build 0)  -->
<svg version="1.1" id="圖層_1" xmlns="http://www.w3.org/2000/svg" xmlns:xlink="http://www.w3.org/1999/xlink" x="0px" y="0px"
	 viewBox="0 0 50 50" style="enable-background:new 0 0 50 50;" xml:space="preserve">
<style type="text/css">
	.st0{fill:#FFFFFF;}
</style>
<g>
	<g>
		<path class="st0" d="M47.1,41.9H3c-1.3,0-2.5-1.3-2.5-2.6v-4c0-0.5,0.4-1,1-1h46.9c0.5,0,1,0.4,1,1v4
			C49.3,40.6,48.5,41.9,47.1,41.9z M2.4,36.3v3C2.4,39.6,2.8,40,3,40h44.2c0.1,0,0.3-0.2,0.3-0.6v-3.1H2.4z"/>
		<path class="st0" d="M17.9,48l-0.8-1.8c0.5-0.2,0.9-0.4,1.1-0.5l0.1,0c0.1,0,0.1-0.1,0.2-0.1c0,0,0-0.1,0.1-0.5
			c0.1-0.6,0.1-1.6,0.1-2.5c0-0.6,0-1.2,0-1.7l1.9,0.2c0,0.3,0,0.9,0,1.5c0,1,0,2.1-0.1,2.9c-0.2,1.2-0.5,1.5-1.3,1.9l-0.1,0
			C18.8,47.6,18.2,47.9,17.9,48z"/>
		<path class="st0" d="M31.9,48c-0.6-0.3-1-0.5-1.3-0.6c-0.8-0.5-1.1-0.8-1.3-2c-0.1-0.8-0.1-1.8-0.1-2.8c0-0.6,0-1.1,0-1.5L31,41
			c0,0.4,0,1,0,1.6c0,0.8,0,1.9,0.1,2.5c0.1,0.3,0.1,0.5,0.1,0.5c0,0,0.1,0.1,0.2,0.1c0.2,0.1,0.5,0.3,1.2,0.6L31.9,48z"/>
		<rect x="16.2" y="46.1" class="st0" width="17.4" height="1.9"/>
		<path class="st0" d="M48.3,36.3H1.4c-0.5,0-1-0.4-1-1V7.8c0-1.2,1-2.3,2.2-2.3h0.6v1.9H2.7c-0.2,0-0.3,0.1-0.3,0.3v26.6h45V7.8
			c0-0.2-0.1-0.3-0.3-0.3h-0.6V5.6h0.6c1.2,0,2.2,1,2.2,2.3v27.6C49.3,35.9,48.9,36.3,48.3,36.3z"/>
	</g>
	<g>
		<g>
			<path class="st0" d="M25,34.2c-0.5,0-1-0.4-1-1c0-1-0.8-1.9-1.9-1.9H6.2c-0.5,0-1-0.4-1-1V3.5c0-0.5,0.4-1,1-1h15.9
				c2.1,0,3.8,1.7,3.8,3.8v26.9C25.9,33.8,25.5,34.2,25,34.2z M7.2,29.4h15c0.7,0,1.3,0.2,1.9,0.5V6.3c0-1-0.8-1.9-1.9-1.9h-15V29.4
				z"/>
			<path class="st0" d="M25,34.2c-0.5,0-1-0.4-1-1V6.3c0-2.1,1.7-3.8,3.8-3.8h15.9c0.5,0,1,0.4,1,1v26.9c0,0.5-0.4,1-1,1H27.9
				c-1,0-1.9,0.8-1.9,1.9C26,33.8,25.6,34.2,25,34.2z M27.9,4.4c-1,0-1.9,0.8-1.9,1.9v23.6c0.6-0.3,1.2-0.5,1.9-0.5h15v-25H27.9z"/>
		</g>
		<g>
			<rect x="9.1" y="6.7" class="st0" width="8.2" height="1.9"/>
			<rect x="9.1" y="10.4" class="st0" width="12.8" height="1.9"/>
			<rect x="9.1" y="14" class="st0" width="12.8" height="1.9"/>
			<rect x="9.1" y="17.6" class="st0" width="12.8" height="1.9"/>
			<rect x="9.1" y="21.2" class="st0" width="12.8" height="1.9"/>
			<rect x="9.1" y="24.8" class="st0" width="12.8" height="1.9"/>
			<rect x="27.7" y="10.4" class="st0" width="12.8" height="1.9"/>
			<rect x="27.7" y="14" class="st0" width="12.8" height="1.9"/>
			<rect x="27.7" y="17.6" class="st0" width="12.8" height="1.9"/>
			<rect x="27.7" y="21.2" class="st0" width="12.8" height="1.9"/>
			<rect x="27.7" y="24.8" class="st0" width="12.8" height="1.9"/>
		</g>
	</g>
</g>
</svg>
