<?xml version="1.0" encoding="utf-8"?>
<!-- Generator: Adobe Illustrator 24.0.2, SVG Export Plug-In . SVG Version: 6.00 Build 0)  -->
<svg version="1.1" id="圖層_1" xmlns="http://www.w3.org/2000/svg" xmlns:xlink="http://www.w3.org/1999/xlink" x="0px" y="0px"
	 viewBox="0 0 50 50" style="enable-background:new 0 0 50 50;" xml:space="preserve">
<style type="text/css">
	.st0{fill:#FFFFFF;}
</style>
<g>
	<path class="st0" d="M47,30.7h-2.3v-8.1c0-3.5-2.7-3.9-3.9-3.9h-8.1c-1.2,0-3.9,0.4-3.9,3.9v8.1h-2.3v-8.1c0-4.6,3.3-6.2,6.2-6.2
		h8.1c2.9,0,6.2,1.6,6.2,6.2V30.7z"/>
	<rect x="40.7" y="22.6" class="st0" width="2.3" height="7.1"/>
	<rect x="30.6" y="22.6" class="st0" width="2.3" height="7.1"/>
	<rect x="0.4" y="29.6" class="st0" width="5.1" height="2.3"/>
	<rect x="23.7" y="29.6" class="st0" width="25.3" height="2.3"/>
	<path class="st0" d="M36.8,14.7c-3,0-5.2-2.2-5.2-5.2v-2c0-3,2.2-5.2,5.2-5.2c3,0,5.2,2.2,5.2,5.2v2C42,12.5,39.8,14.7,36.8,14.7z
		 M36.8,4.6c-1.7,0-2.9,1.2-2.9,2.9v2c0,1.7,1.2,2.9,2.9,2.9c1.7,0,2.9-1.2,2.9-2.9v-2C39.7,5.7,38.6,4.6,36.8,4.6z"/>
	<path class="st0" d="M9.4,35.9c-1.7-0.3-5-0.8-5-5.2v-9.1c0-4.6,3.3-6.2,6.2-6.2h8.1c2.9,0,6.2,1.6,6.2,6.2v9.1
		c0,4.4-3.2,4.9-5,5.2l-0.4-2.2c2.3-0.4,3.1-0.9,3.1-2.9v-9.1c0-3.5-2.7-3.9-3.9-3.9h-8.1c-1.2,0-3.9,0.4-3.9,3.9v9.1
		c0,2.1,0.8,2.6,3.1,2.9L9.4,35.9z"/>
	<path class="st0" d="M19.6,39.9H9.5c-0.6,0-1.1-0.5-1.1-1.1V21.6c0-0.6,0.5-1.1,1.1-1.1h10.1c0.6,0,1.1,0.5,1.1,1.1v17.2
		C20.8,39.4,20.3,39.9,19.6,39.9z M10.7,37.7h7.8V22.7h-7.8V37.7z"/>
	<path class="st0" d="M14.6,13.7c-3,0-5.2-2.2-5.2-5.2v-2c0-3,2.2-5.2,5.2-5.2c3,0,5.2,2.2,5.2,5.2v2C19.8,11.5,17.6,13.7,14.6,13.7
		z M14.6,3.5c-1.7,0-2.9,1.2-2.9,2.9v2c0,1.7,1.2,2.9,2.9,2.9c1.7,0,2.9-1.2,2.9-2.9v-2C17.5,4.7,16.3,3.5,14.6,3.5z"/>
	<rect x="45.8" y="32.7" class="st0" width="2.3" height="14.1"/>
	<rect x="1.3" y="32.7" class="st0" width="2.3" height="14.1"/>
	<rect x="13.5" y="38.8" class="st0" width="2.3" height="7.1"/>
	<rect x="8.5" y="44.7" class="st0" width="12.1" height="2.3"/>
</g>
</svg>
