<?xml version="1.0" encoding="utf-8"?>
<!-- Generator: Adobe Illustrator 24.0.2, SVG Export Plug-In . SVG Version: 6.00 Build 0)  -->
<svg version="1.1" id="圖層_1" xmlns="http://www.w3.org/2000/svg" xmlns:xlink="http://www.w3.org/1999/xlink" x="0px" y="0px"
	 viewBox="0 0 50 50" style="enable-background:new 0 0 50 50;" xml:space="preserve">
<style type="text/css">
	.st0{fill:#FFFFFF;}
	.st1{fill:#FFFFFF;stroke:#282D33;stroke-width:3;stroke-linejoin:bevel;}
</style>
<g>
	<path class="st0" d="M18.5,34.3c-4.4,0-8.5-1.7-11.6-4.9c-3.1-3.1-4.8-7.3-4.8-11.7c0-4.4,1.7-8.6,4.8-11.7C10,2.7,14.1,1,18.5,1
		c0,0,0,0,0,0c4.4,0,8.5,1.7,11.6,4.9C33.3,9,35,13.2,35,17.6c0,4.4-1.7,8.6-4.8,11.7C27.1,32.5,22.9,34.3,18.5,34.3
		C18.5,34.3,18.5,34.3,18.5,34.3z M18.5,2.9c-3.9,0-7.6,1.5-10.3,4.3C5.4,10,3.9,13.7,3.9,17.6c0,3.9,1.5,7.6,4.3,10.4
		c2.8,2.8,6.4,4.3,10.3,4.3c0,0,0,0,0,0c3.9,0,7.6-1.5,10.3-4.3c2.7-2.8,4.3-6.5,4.3-10.4c0-3.9-1.5-7.7-4.3-10.4l0,0
		C26.1,4.4,22.4,2.9,18.5,2.9C18.5,2.9,18.5,2.9,18.5,2.9z"/>
	<path class="st0" d="M30,17.6c0-3.1-1.2-6-3.4-8.2c-2.2-2.2-5-3.4-8.1-3.4c0,0,0,0,0,0c-2.2,0-4.3,0.6-6.1,1.8l-0.6-0.7l0.5,0.8
		l-0.5-0.8l-0.5-0.8l0.6,0.7l-0.5-0.8c2.2-1.4,4.6-2.1,7.2-2.1c0,0,0,0,0,0c3.6,0,6.9,1.4,9.4,3.9c2.5,2.5,3.9,5.9,3.9,9.5L30,17.6z
		"/>
	<path class="st0" d="M43.3,48l-0.7-0.3l-1-1.1l0-1.3L46,41l1.3,0l1,1.1l0.3,0.7c0,1.4-0.5,2.8-1.5,3.8C46,47.4,44.7,48,43.3,48z
		 M43.6,46l0.1,0.1c0.8-0.1,1.5-0.4,2-1c0.6-0.6,0.9-1.3,1-2.1l-0.1-0.1L43.6,46z"/>
	<g>
		<path class="st1" d="M27.9,27.1"/>
	</g>
	<path class="st0" d="M26.7,17.6c0-2.2-0.9-4.3-2.4-5.8c-1.5-1.6-3.6-2.4-5.8-2.4c0,0,0,0,0,0c-1.6,0-3,0.4-4.5,1.4l-1-1.6
		c1.8-1.1,3.6-1.7,5.5-1.7c0,0,0,0,0,0c2.7,0,5.2,1.1,7.1,3c1.9,1.9,2.9,4.4,2.9,7.1L26.7,17.6z"/>
	<path class="st0" d="M42.3,47.3H41L28.7,34.9v-1.3l5.6-5.7h1.3l12.3,12.4v1.3L42.3,47.3z M30.6,34.2l11,11.1L46,41L35,29.9
		L30.6,34.2z"/>
	<rect x="38.9" y="33.1" transform="matrix(0.7109 -0.7033 0.7033 0.7109 -15.1821 39.028)" class="st0" width="1.9" height="9.7"/>
	<path class="st0" d="M31.4,36.4l-2.1-2.2v-1.3l4.4-4.4H35l2.1,2.2V32l-4.4,4.4H31.4z M31.3,33.6l0.8,0.8l3-3.1l-0.8-0.8L31.3,33.6z
		"/>
	<g>
		
			<rect x="29.5" y="30.9" transform="matrix(0.7107 -0.7035 0.7035 0.7107 -13.6471 30.6043)" class="st0" width="1.9" height="2.1"/>
		
			<rect x="30.6" y="26.8" transform="matrix(0.7109 -0.7033 0.7033 0.7109 -10.9355 30.4312)" class="st0" width="1.9" height="3.4"/>
	</g>
	<g>
		<rect x="17.8" y="5.9" class="st0" width="1.9" height="2.1"/>
		<rect x="12.6" y="7.1" transform="matrix(0.8683 -0.496 0.496 0.8683 -2.2931 7.7902)" class="st0" width="1.9" height="2.1"/>
		<rect x="8.7" y="10.9" transform="matrix(0.5037 -0.8639 0.8639 0.5037 -5.5488 14.2413)" class="st0" width="1.9" height="2.1"/>
		<rect x="7" y="16.2" class="st0" width="2.1" height="1.9"/>
		<rect x="8.3" y="21.5" transform="matrix(0.8638 -0.5038 0.5038 0.8638 -10.0352 7.7617)" class="st0" width="2.1" height="1.9"/>
		<rect x="12" y="25.5" transform="matrix(0.4958 -0.8685 0.8685 0.4958 -16.3428 24.6265)" class="st0" width="2.1" height="1.9"/>
		<rect x="17.3" y="26.9" class="st0" width="1.9" height="2.1"/>
		
			<rect x="22.5" y="25.6" transform="matrix(0.8682 -0.4963 0.4963 0.8682 -10.1491 15.138)" class="st0" width="1.9" height="2.1"/>
		
			<rect x="26.4" y="21.9" transform="matrix(0.5038 -0.8638 0.8638 0.5038 -6.2559 34.9821)" class="st0" width="1.9" height="2.1"/>
		<rect x="27.8" y="16.8" class="st0" width="2.1" height="1.9"/>
		<rect x="26.5" y="11.5" transform="matrix(0.8637 -0.504 0.504 0.8637 -2.5093 15.6083)" class="st0" width="2.1" height="1.9"/>
		<rect x="19.8" y="14.4" transform="matrix(0.8637 -0.504 0.504 0.8637 -4.7045 13.2668)" class="st0" width="4.9" height="1.9"/>
		<rect x="22.8" y="7.6" transform="matrix(0.496 -0.8683 0.8683 0.496 4.6698 25.0437)" class="st0" width="2.1" height="1.9"/>
	</g>
	<path class="st0" d="M18.5,20.3c-0.7,0-1.4-0.3-1.9-0.8c-0.5-0.5-0.8-1.2-0.8-1.9c0-0.7,0.3-1.4,0.8-1.9c0.5-0.5,1.2-0.8,1.9-0.8
		s1.4,0.3,1.9,0.8c0.5,0.5,0.8,1.2,0.8,1.9c0,0.7-0.3,1.4-0.8,1.9l0,0C19.9,20,19.2,20.3,18.5,20.3C18.5,20.3,18.5,20.3,18.5,20.3z
		 M18.5,16.8c-0.2,0-0.4,0.1-0.5,0.2c-0.2,0.2-0.2,0.3-0.2,0.6c0,0.2,0.1,0.4,0.2,0.6c0.1,0.1,0.3,0.2,0.5,0.2h0
		c0.2,0,0.4-0.1,0.5-0.2l0,0c0.2-0.2,0.2-0.3,0.2-0.6c0-0.2-0.1-0.4-0.2-0.6C18.9,16.9,18.7,16.8,18.5,16.8z"/>
	<rect x="27.6" y="15.7" class="st0" width="3.6" height="1.9"/>
</g>
</svg>
