<?xml version="1.0" encoding="utf-8"?>
<!-- Generator: Adobe Illustrator 24.0.2, SVG Export Plug-In . SVG Version: 6.00 Build 0)  -->
<svg version="1.1" id="圖層_1" xmlns="http://www.w3.org/2000/svg" xmlns:xlink="http://www.w3.org/1999/xlink" x="0px" y="0px"
	 viewBox="0 0 50 50" style="enable-background:new 0 0 50 50;" xml:space="preserve">
<style type="text/css">
	.st0{fill:#FFFFFF;}
</style>
<g>
	<g>
		<rect x="13.4" y="4.4" class="st0" width="23.5" height="1.8"/>
		<path class="st0" d="M47.1,15.7H3.4c-0.5,0-0.9-0.4-0.9-0.9V5.3c0-0.5,0.4-0.9,0.9-0.9h6.1v1.8H4.3v7.8h42V6.2h-5.7V4.4h6.6
			c0.5,0,0.9,0.4,0.9,0.9v9.6C48,15.3,47.6,15.7,47.1,15.7z"/>
		<g>
			<rect x="9.3" y="19.6" class="st0" width="2.5" height="1.8"/>
			<rect x="14.2" y="19.6" class="st0" width="2.5" height="1.8"/>
			<rect x="19.1" y="19.6" class="st0" width="2.5" height="1.8"/>
			<rect x="24" y="19.6" class="st0" width="2.5" height="1.8"/>
			<rect x="28.9" y="19.6" class="st0" width="2.5" height="1.8"/>
			<rect x="33.8" y="19.6" class="st0" width="2.5" height="1.8"/>
			<rect x="38.7" y="19.6" class="st0" width="2.5" height="1.8"/>
		</g>
		<g>
			<rect x="9.3" y="24.3" class="st0" width="2.5" height="1.8"/>
			<rect x="14.2" y="24.3" class="st0" width="2.5" height="1.8"/>
			<rect x="19.1" y="24.3" class="st0" width="2.5" height="1.8"/>
			<rect x="24" y="24.3" class="st0" width="2.5" height="1.8"/>
			<rect x="28.9" y="24.3" class="st0" width="2.5" height="1.8"/>
			<rect x="33.8" y="24.3" class="st0" width="2.5" height="1.8"/>
			<rect x="38.7" y="24.3" class="st0" width="2.5" height="1.8"/>
		</g>
		<g>
			<rect x="9.3" y="29.1" class="st0" width="2.5" height="1.8"/>
			<rect x="14.2" y="29.1" class="st0" width="2.5" height="1.8"/>
			<rect x="19.1" y="29.1" class="st0" width="2.5" height="1.8"/>
			<rect x="24" y="29.1" class="st0" width="2.5" height="1.8"/>
		</g>
		<g>
			<rect x="9.3" y="33.8" class="st0" width="2.5" height="1.8"/>
			<rect x="14.2" y="33.8" class="st0" width="2.5" height="1.8"/>
			<rect x="19.1" y="33.8" class="st0" width="2.5" height="1.8"/>
		</g>
		<rect x="45.3" y="14.9" class="st0" width="1.8" height="13.3"/>
		<path class="st0" d="M24,42.9H4.3c-0.5,0-0.9-0.4-0.9-0.9V14.9h1.8v26.2H24V42.9z"/>
		<g>
			<path class="st0" d="M40.8,10.7h-3.7V8.9h2.8V2.4h-2.8V0.6h3.7c0.5,0,0.9,0.4,0.9,0.9v8.3C41.7,10.3,41.3,10.7,40.8,10.7z"/>
			<path class="st0" d="M13.3,10.7H9.6V8.9h2.8V2.4H9.6V0.6h3.7c0.5,0,0.9,0.4,0.9,0.9v8.3C14.2,10.3,13.8,10.7,13.3,10.7z"/>
		</g>
		<rect x="20" y="8.9" class="st0" width="10.6" height="1.8"/>
	</g>
	<path class="st0" d="M36.5,49c-5.9,0-10.7-4.8-10.7-10.8s4.8-10.8,10.7-10.8s10.7,4.8,10.7,10.8S42.4,49,36.5,49z M36.5,29.2
		c-4.9,0-8.9,4-8.9,9c0,5,4,9,8.9,9s8.9-4,8.9-9C45.4,33.2,41.4,29.2,36.5,29.2z"/>
	<path class="st0" d="M34.3,41.8L34.3,41.8c-0.2,0-0.5-0.1-0.6-0.3l-2.6-2.6l1.3-1.3l1.9,2l6.2-6.3l1.3,1.3l-6.9,7
		C34.8,41.7,34.6,41.8,34.3,41.8z"/>
</g>
</svg>
