<?xml version="1.0" encoding="utf-8"?>
<!-- Generator: Adobe Illustrator 28.0.0, SVG Export Plug-In . SVG Version: 6.00 Build 0)  -->
<svg version="1.1" id="圖層_1" xmlns="http://www.w3.org/2000/svg" xmlns:xlink="http://www.w3.org/1999/xlink" x="0px" y="0px"
	 viewBox="0 0 16 14.2" style="enable-background:new 0 0 16 14.2;" xml:space="preserve">
<style type="text/css">
	.st0{fill:#FFFFFF;}
</style>
<g>
	<path class="st0" d="M7.4,0.4L5.6,1.9c-0.4,0.3-0.8,0.8-1,1.3C4.4,3.1,4.2,3.1,4,3.1H2c-1.1,0-2,0.9-2,2v4c0,1.1,0.9,2,2,2h2
		c0.2,0,0.4,0,0.5-0.1c0.3,0.5,0.6,1,1,1.3l1.9,1.5C8.3,14.5,9,14.2,9,13.1v-12C9,0,8.3-0.3,7.4,0.4z"/>
	<path class="st0" d="M11.2,9.9c-0.2,0-0.4-0.1-0.6-0.3c-0.3-0.3-0.2-0.8,0.1-1.1c0.5-0.4,0.7-0.8,0.7-1.3c0-0.8-0.7-1.6-0.8-1.6
		c-0.3-0.3-0.3-0.8,0-1.1c0.3-0.3,0.8-0.3,1.1,0c0.1,0,1.3,1.2,1.2,2.7c0,0.9-0.4,1.7-1.3,2.4C11.5,9.8,11.3,9.9,11.2,9.9z"/>
	<path class="st0" d="M13,12.5c-0.3,0-0.5-0.1-0.7-0.4c-0.2-0.4-0.1-0.8,0.3-1c1.1-0.6,1.9-2.3,1.9-3.9c0-1.7-0.9-3.5-1.9-4.1
		c-0.4-0.2-0.5-0.7-0.3-1c0.2-0.4,0.7-0.5,1-0.3c1.8,1,2.7,3.5,2.7,5.4c0,1.8-0.9,4.2-2.7,5.2C13.2,12.5,13.1,12.5,13,12.5z"/>
</g>
</svg>
