<?xml version="1.0" encoding="utf-8"?>
<!-- Generator: Adobe Illustrator 24.0.2, SVG Export Plug-In . SVG Version: 6.00 Build 0)  -->
<svg version="1.1" id="圖層_1" xmlns="http://www.w3.org/2000/svg" xmlns:xlink="http://www.w3.org/1999/xlink" x="0px" y="0px"
	 viewBox="0 0 108 20" style="enable-background:new 0 0 108 20;" xml:space="preserve">
<style type="text/css">
	.st0{fill-rule:evenodd;clip-rule:evenodd;fill:#070001;}
	.st1{fill:#219962;}
	.st2{fill:#2C95C8;}
	.st3{fill:#040000;}
	.st4{font-family:'LiGothicMed';}
	.st5{font-size:6.6058px;}
</style>
<g>
	<g>
		<path class="st0" d="M48.9,5.1c0-0.2-0.3-0.2-0.4-0.2c-0.3,0-0.5-0.1-0.8-0.1c-0.1,0-0.3-0.1-0.4,0c-0.2-0.1-0.5-0.1-0.8-0.1
			c-0.1,0-0.1,0-0.2,0c-0.2,0-0.4-0.1-0.6-0.1c-0.2-0.1-0.5,0-0.6-0.1c0-0.1,0.1-0.2,0.2-0.3l0,0c0.3-0.2,0.4-0.5,0.7-0.7
			c0.8-0.6,1.5-1.5,2.6-1.4l0,0c0.1-0.1,0.1-0.2,0.1-0.3c-0.1-0.2-0.4-0.4-0.6-0.5c-0.2,0-0.4,0-0.6,0c-0.2,0,0,0.2,0,0.3
			c-0.1,0.3-0.5,0.5-0.7,0.7c-0.2,0.2-0.5,0.4-0.7,0.7c-0.2,0.2-0.4,0.4-0.6,0.6c-0.2,0.2-0.3,0.3-0.5,0.5c-0.1,0.1-0.1,0-0.1,0
			c0-0.2,0-0.5,0-0.7c0,0,0-0.1,0-0.2c0.1-0.1,0.1-0.2,0-0.4c0.1,0,0-0.1,0-0.2c0-0.3,0.1-0.6,0.1-0.9c0.1-0.3,0.2-0.7,0-0.9
			l-0.1-0.1C45,0.2,44.9,0.1,44.7,0c0,0-0.1-0.1-0.1,0c0.2,0.5,0.3,1.1,0.3,1.7l0,0.1c0.1,0.3,0,0.7,0,1.1s0,0.7,0,1.1
			c-0.2,0.3-0.6,0.4-0.9,0.7c-0.1,0-0.2,0.2-0.3,0.2c0,0,0,0.1,0,0.1c0,0,0,0.1-0.1,0.1c0,0.1-0.2,0.1-0.1,0.2c0.2,0.1,0.4,0,0.7,0
			L44.4,5c0.1,0,0.1-0.2,0.2-0.2c0.4,0,0.1,0.4,0.2,0.6c0,0.2,0,0.5,0,0.7c-0.2-0.1-0.3-0.4-0.4-0.5c0,0,0,0.1,0,0.2
			c0.2,0.3,0.3,0.7,0.4,1c0.1,0.1,0.2-0.1,0.3,0c0.1-0.1,0.1-0.2,0.1-0.3c-0.1-0.2-0.1-0.4-0.1-0.6c-0.1-0.3,0-0.6,0-0.9
			c0-0.1,0-0.2,0.1-0.2c0.1,0,0.3,0,0.4,0.1c0.2,0,0.4,0.1,0.7,0.1c0.1,0,0.2,0,0.4,0c0.2,0,0.4,0,0.5,0.2c0.1,0,0.3,0.1,0.4,0
			c0.2-0.1,0.3,0.2,0.5,0.1c0.4,0.3,1,0.2,1.4,0C49.2,5.2,49,5.1,48.9,5.1z"/>
		<path class="st0" d="M43.3,3.3c-0.5-0.4-1.1,0-1.6-0.2c-0.1,0-0.1-0.1-0.2-0.1c-0.1,0.1,0,0.2,0,0.3c0.2,0.2,0.4,0.4,0.6,0.5
			c0.2,0.1,0.4-0.1,0.7,0c0,0.4-0.1,0.8-0.3,1.1c0,0.1-0.1,0,0,0.1c-0.1,0.1-0.1,0.3-0.3,0.4c0,0.1-0.1,0.1-0.1,0.2
			c-0.2,0.1-0.2,0.4-0.4,0.4c-0.1,0-0.2,0-0.4,0c0,0.1,0,0.2,0,0.2c0,0.1,0.2,0.1,0.3,0.1c0.6-0.3,0.9-0.8,1.3-1.3
			C43,5.1,43,4.9,43.1,4.8c0-0.1,0.1-0.2,0-0.3c0,0,0.1,0,0.1,0v0c0.2-0.3,0.2-0.7,0.2-1C43.4,3.4,43.3,3.4,43.3,3.3z"/>
	</g>
	<g>
		<path class="st0" d="M57.2,1.9c-0.1-0.1,0-0.3-0.1-0.4c-0.1,0-0.2-0.1-0.3-0.1c-0.1,0-0.2-0.1-0.4-0.1c0,0-0.1,0-0.1,0.1
			c0,0,0.1,0,0.1,0c0.1,0,0.2,0.1,0.2,0.2c0,0.2,0,0.4,0,0.7c0,0.1,0.1,0.1,0,0.1c0,0.1,0,0.1,0,0.2c-0.1,0.3,0,0.6,0,0.9
			c0.1,0.3,0,0.6,0,0.9c-0.1,0.1,0.1,0.2,0,0.2c0,0.3-0.1,0.5-0.1,0.8c-0.1,0.2-0.2,0.4-0.4,0.4C55.9,6,55.6,6,55.3,6.1
			c0,0-0.1,0-0.2,0c0,0,0,0.1,0.1,0.1c0.1,0.1,0.3,0.2,0.5,0.2c0.1,0.1,0.4,0.2,0.6,0.1c0.1,0.1,0.2,0,0.4,0
			c0.1,0.1,0.2-0.1,0.3-0.1C56.9,6.2,57,6,57.1,5.8c0.1-0.2,0-0.5,0.1-0.7c0-0.6,0-1.1,0-1.7c0-0.1,0-0.2,0-0.3
			c-0.1-0.1,0-0.1,0-0.3C57.3,2.6,57,2.2,57.2,1.9z"/>
		<path class="st0" d="M51.9,2.5c0.2,0.1,0.3,0.2,0.5,0.1c0.2,0,0.3-0.1,0.4-0.1c0.1-0.1,0.3-0.1,0.4-0.2c0.2-0.1,0.6-0.1,0.7-0.3
			c0-0.1,0-0.2-0.1-0.3c-0.2-0.1-0.3-0.4-0.5-0.3c-0.3,0.3-0.7,0.5-1,0.7c-0.2,0-0.3,0.2-0.4,0.2C51.9,2.4,51.9,2.5,51.9,2.5z"/>
		<path class="st0" d="M55.2,4.5c0.1-0.1,0.1-0.1,0.2-0.2c0-0.2,0.1-0.5,0.1-0.8c0-0.2,0.1-0.4,0-0.6h-0.1c0,0.1-0.1,0-0.2,0
			c-0.1-0.1-0.3,0-0.4,0c0,0.1-0.2,0.2-0.2,0.4c0,0.1-0.2,0.3-0.2,0.4C54.2,3.7,54.2,3.9,54,4c-0.2,0.1-0.3,0-0.4,0
			c-0.2,0-0.3-0.1-0.4-0.2c0-0.2,0-0.4,0.1-0.6C53.5,3,53.7,3,53.8,2.9c0-0.1,0-0.1,0-0.2c-0.1,0-0.3,0-0.4,0
			c-0.1,0-0.1,0.1-0.2,0.1c-0.1-0.1-0.3-0.2-0.4-0.1c-0.1,0.1,0,0.2,0.1,0.3c-0.2,0.2-0.5,0.2-0.7,0.4c-0.2,0-0.3,0.1-0.4,0.1
			c-0.3,0.2-0.6,0.3-0.9,0.3c-0.1,0-0.1-0.1-0.1-0.2c-0.2-0.1-0.1,0.2-0.3,0.2c-0.1,0.1,0,0.2,0,0.3c0,0.1,0.2,0.1,0.3,0.2
			c0.2-0.2,0.5,0.1,0.7-0.1c0.1,0,0.2,0,0.2-0.1c0.2,0,0.3-0.2,0.4-0.2c0.2-0.1,0.3-0.2,0.5-0.3c0.1,0,0.2-0.1,0.3-0.1
			c0,0,0.1,0,0.1,0.1c-0.1,0.3-0.4,0.4-0.5,0.6c-0.1,0.2-0.4,0.3-0.5,0.6c-0.2,0-0.2,0.2-0.4,0.3c-0.2,0-0.2,0.3-0.2,0.4
			c-0.1,0.1,0,0.2,0.1,0.3c0.1,0,0.1,0,0.2,0c0,0,0,0,0.1,0l0.3-0.2c0.2-0.3,0.5-0.5,0.7-0.8c0.1-0.1,0.2-0.4,0.4-0.4
			c0.1,0,0,0.1,0.1,0.2c-0.1,0.4,0,0.8-0.2,1.3c0,0.2-0.2,0.5,0,0.7c0,0,0.1,0,0.2,0c0-0.3,0.1-0.6,0-0.9c0.1-0.2,0.1-0.4,0-0.7
			c0.1-0.2-0.1-0.4,0-0.6c0.1,0,0.1,0.1,0.2,0.1c0.2,0.1,0.3,0.3,0.4,0.4l0.2,0c0.2-0.1,0.2-0.2,0.3-0.4c0.1-0.4,0.3-1,0.6-1.3L55,3
			c0.1,0.3-0.1,0.6-0.2,0.9c0.1,0.1,0,0.2,0.1,0.3C55,4.3,55,4.5,55.2,4.5z"/>
	</g>
	<g>
		<path class="st0" d="M61.4,1.1c0.1,0.3,0.1,0.7,0.3,1c0.1,0.1,0.2,0.1,0.2,0.1C62,2,62.1,1.9,62.1,1.8C62,1.8,62,1.7,62,1.7
			c-0.1-0.1-0.1-0.2-0.2-0.2c-0.1-0.1-0.2-0.3-0.3-0.4c0-0.1,0-0.1,0.1-0.1c0.3-0.1,0.6-0.3,1-0.4c0.4,0,0.8-0.3,1.2-0.2
			C64,0.4,64,0.6,64,0.7c-0.1,0.2-0.3,0.4-0.5,0.5c0,0.1-0.2,0.1-0.2,0c-0.1-0.1,0-0.3-0.1-0.4c-0.1,0-0.4-0.1-0.5,0
			c0,0.1,0,0.2,0,0.4c-0.1,0.2-0.2,0.4-0.2,0.6c0.3,0,0.4-0.2,0.6-0.3c0.1-0.3,0.4,0,0.7-0.1c0.2-0.2,0.4,0.1,0.6,0
			c0.2,0,0.4,0,0.5-0.2C65,1,65,0.8,65,0.6c-0.1-0.1-0.2-0.2-0.3-0.3c-0.1,0-0.2-0.1-0.3-0.1c-0.1-0.1-0.2,0-0.3,0
			c-0.3-0.1-0.6,0-0.9,0c-0.1,0-0.1,0.1-0.1,0.2c-0.1,0-0.2,0-0.3,0c-0.1,0-0.1,0.1-0.1,0.1c0,0-0.1-0.1-0.1-0.1
			c-0.1,0.1-0.2,0-0.3,0.1c-0.2,0.1-0.4,0.1-0.6,0.2c-0.2-0.1-0.2,0.2-0.4,0.2c0,0.1-0.1,0-0.1,0c0,0.1-0.2,0-0.2,0.1
			c0.1,0.1,0.2,0,0.2,0.1C61.2,1.2,61.3,1,61.4,1.1z"/>
		<path class="st0" d="M59.9,1.4c0.1,0.1,0,0.3,0,0.5c0,0.2,0.1,0.4,0.3,0.6c0.1,0.1,0.2,0,0.2-0.1c0.1-0.1,0-0.2,0-0.3
			c0-0.2-0.1-0.4-0.1-0.6C60.2,1.3,60.1,1.1,60,1C59.7,1,60,1.2,59.9,1.4z"/>
		<path class="st0" d="M65.5,3.4c-0.1-0.1-0.2-0.2-0.4-0.2c-0.1,0.1-0.2,0-0.4,0c-0.1,0.1-0.2,0-0.4,0c-0.2-0.1,0,0.2-0.1,0.2
			c-0.1,0-0.2,0.1-0.3,0.1c-0.1,0-0.1,0-0.2,0.1c-0.1,0-0.2,0-0.2,0c0.1-0.3,0.4-0.4,0.6-0.6c0.2-0.2,0.4-0.3,0.4-0.6
			c0-0.1-0.1-0.1-0.2-0.1c0-0.2-0.2,0-0.3,0c-0.1,0.1,0,0.2-0.1,0.3c0,0.3-0.3,0.4-0.4,0.7C63.2,3.5,63,4.1,62.6,4
			c-0.1,0-0.2,0.2-0.3,0c0-0.2,0.1-0.4,0.2-0.6c0.2-0.1,0.4-0.1,0.5-0.3C63,3.1,63,3,63,3c0,0,0,0.1-0.1,0c-0.1-0.1-0.3,0.1-0.4,0
			c0-0.1,0-0.2,0.1-0.3c0.3-0.1,0.6,0,0.8-0.4c0-0.2-0.3-0.1-0.4,0c-0.1,0-0.2,0.1-0.3,0.2c-0.2,0.1-0.3-0.2-0.5-0.1
			c-0.1,0.1-0.2,0.1-0.3,0.2c-0.1,0.1-0.3,0.2-0.4,0.1c0,0.1-0.1,0-0.2,0.1c0,0,0,0,0,0c0.2,0,0.4,0.1,0.7,0.1L62,3
			c0,0.1,0,0.3-0.1,0.4c-0.1,0-0.1,0.1-0.2,0c-0.1,0.2-0.3,0-0.4,0.2c0.2,0,0.4,0.1,0.5,0.1C62,3.6,62,3.7,62,3.8c0,0.1,0,0.2,0,0.4
			c-0.1,0.3-0.4,0.2-0.6,0.3c0,0.1-0.1,0-0.2,0.1c-0.1,0-0.2,0.1-0.3,0c0,0.1-0.1,0-0.2,0.1c-0.2,0-0.4,0.1-0.5,0.2l0,0l-0.1,0
			c-0.1,0-0.1,0-0.2,0c0,0.1-0.1,0-0.2,0.1c-0.1,0-0.2,0-0.3,0.1c-0.1,0-0.2,0.1-0.2,0C59.1,5,59,5,59,5c0,0.1,0.1,0.1,0.2,0.2
			c0.2,0.1,0.4,0.2,0.6,0.2c0.1,0,0.3,0,0.3-0.2c0-0.1,0.1-0.1,0.1-0.1c0-0.2,0.2-0.1,0.3-0.1c0.1,0,0.2,0,0.2,0
			c0.1-0.2,0.4-0.1,0.5-0.2c0.3,0,0.6-0.3,0.9-0.4c0.1,0,0.2,0,0.3-0.1c0,0,0.1,0,0.1,0.1c-0.1,0.1-0.2,0.2-0.2,0.3
			C62.2,4.8,62.1,5,62,5.1c-0.1,0.1-0.2-0.1-0.4-0.1c0,0.1,0,0.3,0,0.4c-0.2,0.3-0.4,0.5-0.7,0.7c0,0,0,0,0,0c0,0,0.1,0,0.1,0.1
			c0,0,0,0.1-0.1,0.1c0,0,0-0.1,0-0.1c-0.1,0-0.1,0.1-0.2,0.2c0,0.1-0.1,0-0.2,0.1c-0.1,0.2-0.4,0.2-0.6,0.4c0,0-0.1,0-0.1,0
			c-0.1,0-0.2,0.1-0.4,0.1c-0.1-0.1-0.1,0-0.2,0c0,0,0,0,0,0.1l0.1,0.1c0.1,0.1,0.3,0.1,0.4,0.1c0-0.1,0-0.1,0-0.2
			c0.1-0.2,0.4-0.1,0.5-0.2c0.1,0,0.1,0.1,0.1,0.1c0.1-0.1,0.3-0.1,0.3-0.3c0.4-0.2,0.6-0.5,0.9-0.8c0.1,0,0.1,0.1,0.1,0.2
			c0,0.2,0.2,0.3,0.2,0.4c0.1,0.2,0.2,0.2,0.4,0.2c0.4-0.2,0.3-0.7,0.6-1c0.1,0,0.4-0.1,0.4,0.1c0,0.1,0,0.2-0.1,0.2
			c-0.2,0.2-0.3,0.4-0.5,0.6c0,0,0,0.1-0.1,0.1c0,0.1,0.2,0,0.2,0c0,0,0.1,0,0.1-0.1c0.3-0.1,0.7,0,1.1-0.1c0.1,0,0.3,0,0.4-0.1
			c0.1-0.1,0.1-0.2,0.2-0.3c0-0.4-0.4-0.6-0.7-0.7c-0.1,0-0.2-0.1-0.3,0c-0.2-0.1-0.4-0.1-0.7-0.1c0,0.1-0.2,0.1-0.3,0.2
			c-0.2,0.1-0.3,0.3-0.5,0.4c-0.1,0.1-0.1-0.1-0.2-0.1c0-0.2-0.2-0.3-0.2-0.5c0.3-0.4,0.6-0.7,1-1.1C63.2,4.1,63.4,4,63.5,4
			c0.4,0,0.9-0.1,1.3-0.2c0.2-0.1,0.5,0.1,0.7-0.1C65.5,3.6,65.5,3.5,65.5,3.4z"/>
	</g>
	<g>
		<path class="st0" d="M30.1,2.8C30.1,2.8,30.1,2.8,30.1,2.8L30.1,2.8L30.1,2.8c0.1,0,0.1,0,0.1,0c0.1,0,0.1,0,0.2-0.1
			c0.1,0,0.2-0.1,0.2-0.1c0,0,0.1,0.1,0.1,0.1l0,0c0,0,0,0.1,0,0c0,0,0.1,0,0.2,0c0.2,0,0.3-0.1,0.4-0.2c0-0.1,0.1,0,0.2-0.1
			c0.1,0,0.1-0.1,0.2,0c0,0,0.1,0,0.2,0c0,0,0,0,0,0.1c0,0,0,0.1-0.1,0.1c0,0,0.1,0,0.2,0c0.1,0,0.2,0,0.3,0c0.1,0,0.1,0,0.1-0.1
			c0,0,0,0,0,0c-0.1,0-0.2-0.1-0.3-0.1c-0.1,0-0.1,0-0.1,0c-0.1,0-0.2,0-0.2,0c-0.1-0.1-0.2,0-0.2,0c0,0-0.1,0-0.1-0.1
			c0,0,0-0.1,0-0.1c-0.1-0.1-0.2,0-0.2-0.1c-0.1,0-0.1,0-0.2,0c0,0,0,0-0.1,0c0-0.1-0.1,0-0.1,0c0,0-0.1,0-0.1,0c0,0,0,0,0,0
			c0.1,0,0.1,0.1,0.2,0.2l0,0.3c-0.1,0.1-0.2,0.1-0.3,0.1c-0.2,0-0.3,0.1-0.4,0.1c0,0,0,0-0.1,0c0,0-0.1,0-0.2,0
			C29.9,2.8,30,2.9,30.1,2.8z"/>
		<path class="st0" d="M29.3,2.6C29.3,2.6,29.3,2.6,29.3,2.6L29.3,2.6c0,0.1,0,0.2,0,0.2c0.1,0,0.2-0.1,0.4-0.1c0,0,0.1,0,0-0.1
			c0,0,0,0,0,0c0,0,0,0,0,0c0,0,0,0,0,0v0c0-0.1,0-0.1,0-0.1c0,0,0,0-0.1,0C29.5,2.4,29.4,2.5,29.3,2.6C29.2,2.6,29.3,2.5,29.3,2.6z
			"/>
		<path class="st0" d="M31.1,3.5c0,0.2,0,0.4,0,0.6c0,0.1,0,0.2,0,0.3c0,0,0,0.1,0.1,0.1c0.1,0,0.1,0,0.2-0.1c0.1-0.1,0-0.2,0-0.3
			c0-0.1,0-0.2,0-0.2c0,0,0-0.1,0-0.2h0c0-0.1-0.1-0.2-0.1-0.2c0-0.1,0.1,0,0.1-0.1c0.1-0.2,0.4-0.2,0.4-0.4c-0.1-0.1-0.3-0.1-0.4,0
			c-0.1,0-0.2,0.1-0.3,0.1c-0.2,0.1-0.3,0.3-0.4,0.3c-0.1,0-0.1-0.1-0.1-0.1c0,0.1-0.1,0.2-0.1,0.2c0,0.1,0.1,0.1,0.1,0.2
			c0.1,0,0,0,0.1-0.1c0.1,0,0-0.1,0.1-0.1c0-0.1,0.2-0.1,0.2-0.3C31,3,31.1,2.9,31.2,2.9c0,0,0,0,0,0c0,0.1-0.1,0.2-0.1,0.3
			c0,0.1-0.2,0.1-0.2,0.2C30.9,3.5,31.1,3.4,31.1,3.5z"/>
		<path class="st0" d="M33.3,4c-0.1,0-0.1-0.1-0.2-0.1c-0.1,0-0.2-0.1-0.4-0.1c-0.1-0.1-0.2-0.1-0.3-0.2c-0.1,0-0.2-0.1-0.3-0.1
			c-0.1,0-0.1-0.1-0.2-0.2c-0.1-0.1,0.1-0.1,0.1-0.2c0-0.1,0.2-0.1,0.2-0.2c0,0-0.1-0.1-0.1-0.1c0,0-0.1,0-0.1-0.1c0,0,0,0.1,0,0.1
			c0,0.2-0.2,0.3-0.3,0.4c-0.1,0-0.2,0-0.2,0h0c0.1,0,0,0.2,0.1,0.2c0,0.2,0,0.3-0.1,0.5c0,0.1,0.1,0.1,0.1,0.2c0,0,0.1,0,0.1,0
			C31.8,4,32,3.8,32,3.7c0.1,0,0.1,0.1,0.2,0.2c0,0,0,0,0,0c0,0,0,0,0,0c0,0,0,0,0,0l0,0c0,0,0.1,0,0.1,0.1c0.1,0.1,0.2,0.2,0.4,0.3
			c0,0,0,0,0,0l0,0c0.1,0,0.3,0,0.4,0c0.1,0,0.2,0,0.2-0.1C33.5,4.1,33.4,4.1,33.3,4L33.3,4z M31.8,3.9C31.8,3.9,31.8,3.8,31.8,3.9
			c0-0.1-0.1-0.2,0-0.3c0-0.1,0-0.2,0-0.2c0,0,0,0,0.1,0c0,0,0,0.1,0.1,0.1c0,0,0,0.1,0.1,0.1C32,3.7,31.9,3.8,31.8,3.9z"/>
		<path class="st0" d="M29.7,3.8C29.7,3.7,29.7,3.7,29.7,3.8c0.1-0.2,0.1-0.3,0.1-0.4c0,0,0,0-0.1,0.1c0,0.1-0.1,0.3-0.2,0.4
			c0,0,0,0.1,0,0.1c-0.1,0.3-0.2,0.6-0.4,0.8c0,0-0.1,0,0,0.1c0,0-0.1,0.1-0.1,0.2c-0.1,0,0,0.1-0.1,0.1c-0.1,0-0.1,0-0.2,0
			c0,0,0,0.1,0.1,0.1c0,0.1,0.1,0.1,0.2,0.2c0.1,0,0.1,0,0.2,0c0.1,0,0.1-0.1,0.1-0.2c0-0.1,0.1-0.2,0.1-0.3c0-0.1,0-0.2,0-0.3
			c0,0,0-0.1,0-0.2c0-0.1,0-0.2,0.1-0.3c0-0.1,0.1-0.2,0.1-0.4C29.7,3.9,29.6,3.8,29.7,3.8z"/>
		<path class="st0" d="M30.6,3.7c-0.1,0.1-0.3,0.1-0.4,0.1c0,0-0.1,0.1-0.2,0.1l0.1,0c0-0.1,0.1,0,0.1,0c0,0.1-0.1,0.2-0.1,0.3
			c0,0.1-0.1,0.2-0.1,0.3c-0.1,0.1-0.1,0.2-0.2,0.3c0,0-0.1,0-0.1,0c0,0.1,0,0.1,0,0.2c0,0,0.1,0,0.1,0c0.1,0,0.1-0.1,0.1-0.1
			c0.1,0,0.1-0.2,0.2-0.2c0.1-0.1,0.2-0.2,0.2-0.3c0-0.1,0.1-0.2,0.1-0.3c0-0.1,0-0.1-0.1-0.2c0,0,0.1,0,0.1,0
			C30.5,3.8,30.6,3.7,30.6,3.7c0.1,0.1,0.1,0.1,0.1,0.2c0,0.1-0.1,0.2-0.1,0.3l0,0c0.1,0,0.2-0.2,0.2-0.3
			C30.8,3.7,30.7,3.7,30.6,3.7z"/>
		<path class="st0" d="M29.2,4c0-0.1,0.1-0.1,0.1-0.2c0,0,0,0-0.1,0c0,0,0,0-0.1,0c0,0,0,0,0,0c0-0.1-0.2,0-0.2,0
			c-0.1,0-0.1,0.1-0.2,0.1c0,0-0.1,0-0.1,0c0.1,0,0.1,0.1,0.2,0C28.9,4,29,4,29.2,4z"/>
		<path class="st0" d="M32.3,5.9C32.3,5.9,32.3,5.9,32.3,5.9C32.3,5.9,32.3,5.9,32.3,5.9c0-0.1,0-0.1,0-0.2c0,0,0-0.1,0-0.1
			c0-0.2-0.1-0.4,0-0.7c0-0.1,0-0.1,0-0.2c0-0.2,0-0.2-0.1-0.4c0,0,0-0.1,0-0.1c0-0.1-0.1,0-0.2-0.1v0c0.1,0,0,0.1,0.1,0.2
			c0,0.1,0,0.2,0,0.3l0,0c0,0.1,0,0.1,0,0.2c0.1,0.2,0,0.5,0,0.8c0,0.1,0,0.3,0,0.4c0,0.1,0,0.2,0,0.3c-0.1,0.1,0.1,0.2,0.1,0.2
			c0.1,0,0.1-0.1,0.2-0.1c0-0.1,0-0.1,0-0.2c0-0.1,0-0.2,0-0.3C32.3,6,32.3,5.9,32.3,5.9z"/>
		<path class="st0" d="M31.2,4.7c0,0.1,0.1,0,0.1,0.1c0.1,0,0.1,0,0.2,0c0-0.1,0-0.1-0.1-0.1C31.4,4.6,31.3,4.6,31.2,4.7
			c-0.1-0.1-0.2-0.1-0.2-0.1c0,0,0,0.1,0.1,0.1C31.1,4.7,31.2,4.7,31.2,4.7z"/>
		<path class="st0" d="M30.4,4.8L30.4,4.8c0,0.1,0,0.2,0,0.2c0,0.1,0,0.2,0,0.3c0,0,0,0.1,0,0.1c0,0.1-0.1,0.3-0.1,0.4
			c0,0,0,0,0.1,0.1c0.1,0,0.1-0.1,0.1-0.1c0,0,0.1-0.1,0-0.1l0,0l0,0c0.1,0,0.1-0.1,0.1-0.2c0-0.1,0-0.1,0-0.2c0,0,0,0,0,0
			c0-0.1,0-0.2,0-0.3C30.5,4.9,30.5,4.8,30.4,4.8z"/>
		<path class="st0" d="M31.6,5C31.6,5,31.5,5.1,31.6,5c-0.2,0-0.4,0.1-0.5,0.1c0.1,0.1,0.2,0,0.3,0.1l0,0c0,0,0,0,0,0
			c0.1,0,0.1-0.1,0.2,0c0,0,0.1,0,0.1-0.1C31.7,5,31.7,5.1,31.6,5z"/>
	</g>
	<g>
		<path class="st0" d="M35.3,2.9c0.1,0,0.2,0.1,0.3,0.1c0.3,0,0.5,0,0.7-0.1c0.1,0.1,0,0.2,0,0.2c0,0.1-0.1,0.2-0.1,0.3
			c0.1,0,0.1-0.1,0.2-0.2C36.4,3,36.7,3,36.9,2.9c0.2,0,0.4-0.1,0.4-0.2c0,0,0-0.1,0-0.1c-0.2,0-0.3-0.1-0.5-0.1c0,0,0-0.2,0-0.2
			c0-0.1-0.1-0.1-0.1-0.2C36.7,2,36.5,2,36.4,2l-0.1,0c-0.2,0-0.4,0-0.5,0.1c0.1,0,0.1,0.1,0.2,0.1c0.1,0,0.1,0.1,0.1,0.1
			c0,0.1,0.2,0.2,0.1,0.3C36,2.7,35.6,2.7,35.3,2.9c0,0-0.1-0.1-0.1,0C35.2,2.9,35.2,2.9,35.3,2.9z"/>
		<path class="st0" d="M39.4,4.6c0-0.1,0-0.3-0.2-0.3c0-0.1-0.2-0.2-0.3-0.3c0-0.1-0.1-0.1-0.2-0.2c0-0.1-0.2-0.1-0.3-0.2
			c0-0.1,0-0.2,0.2-0.2C38.8,3.2,39,3.1,39.2,3c0-0.1,0.2-0.2,0.2-0.3c0-0.1-0.2-0.1-0.2-0.2c0,0,0,0-0.1,0c0,0-0.1,0-0.1,0
			c-0.2,0-0.3,0-0.4,0.1c-0.1,0-0.3,0.1-0.4,0c0,0,0,0,0-0.1c0,0,0,0,0,0c-0.1,0.1-0.2,0-0.3,0l0,0c0,0.1,0,0.1,0,0.2
			c-0.1,0.1-0.2,0-0.2,0c0.1,0.1,0.2,0.1,0.2,0.3c0,0.1,0,0.2,0,0.2c0,0,0,0.1,0,0.1c0,0.2,0,0.4,0,0.6c0,0.2,0,0.4,0,0.7
			c-0.1,0.1,0,0.2,0,0.3c0,0.3,0,0.5,0,0.8c0,0.1-0.1,0.1-0.1,0.2c0.1,0.1,0,0.1,0,0.2c0.1,0.2,0,0.4,0.1,0.6c0,0,0,0.1,0,0.1
			c0,0.1,0,0.1,0,0.2c0,0,0.1,0,0.2,0c0,0,0-0.1,0-0.1c0.1-0.1,0-0.2,0.1-0.3c0,0,0-0.1,0-0.1c0-0.2,0-0.4,0-0.6c0,0,0,0,0-0.1
			c-0.1-0.1,0-0.3,0-0.4c-0.1-0.2,0-0.4-0.1-0.6c0,0,0.1,0,0-0.1c0,0,0,0,0,0l0.2,0.2c0.1,0.1,0.1,0.2,0.3,0.3c0,0.1,0.1,0,0.1,0.1
			c0.1-0.1,0.2,0,0.2-0.1c0-0.1,0.2-0.1,0.2-0.2c0-0.1,0.1-0.1,0.2-0.2C39.4,4.8,39.4,4.7,39.4,4.6L39.4,4.6z M38.1,2.7
			c0.2,0,0.4,0,0.5,0c0.1,0,0.1-0.1,0.2,0c0,0.2-0.2,0.4-0.3,0.6c-0.1,0.1-0.2,0.2-0.3,0.3c-0.1,0,0-0.1,0-0.2c0-0.1,0.1-0.2,0-0.3
			C38.2,3,38,2.8,38.1,2.7L38.1,2.7z M38.9,4.7c0,0.1,0,0.1-0.1,0.2c-0.1,0-0.1,0-0.2,0c0,0,0,0-0.1-0.1c-0.1-0.1-0.2-0.2-0.3-0.3
			c-0.1,0-0.1-0.1-0.1-0.1c0-0.1,0-0.2,0-0.2c0-0.1,0.1-0.2,0-0.4c0-0.1,0.2-0.1,0.3-0.1l0.1,0c0.2,0.1,0.2,0.3,0.4,0.5
			c0,0.1,0,0.1,0,0.2c0,0,0,0.1,0,0.1C38.9,4.5,38.9,4.6,38.9,4.7z"/>
		<path class="st0" d="M37.5,3.8c-0.1,0-0.2,0-0.3,0c0,0-0.1,0-0.2,0c0-0.1,0.1-0.1,0.2-0.2c0.1,0,0.1-0.2,0.2-0.2
			c0-0.1-0.1-0.2-0.2-0.2c-0.1-0.1-0.2,0-0.3,0c0,0,0.1,0.1,0.1,0.1c0,0.1,0,0.2,0,0.2c0,0,0,0,0,0c-0.1,0-0.1,0.1-0.1,0.2
			c-0.1,0.1-0.1,0.2-0.2,0.2c-0.1,0-0.2,0-0.2,0c-0.1-0.1,0-0.2,0-0.2c0.1,0,0-0.1,0.1-0.2c-0.1,0-0.2,0-0.2,0c0,0,0,0.1-0.1,0.2
			c-0.1,0.1,0.1,0.3-0.1,0.4c-0.2,0-0.4,0.1-0.6,0.1c-0.2,0-0.4,0-0.6,0.1c-0.1,0-0.3,0-0.4,0c0,0.1,0.1,0.1,0.1,0.1
			c0,0,0.2,0.1,0.3,0.1c0.1,0,0.1,0,0.2,0c0.1,0,0.3-0.1,0.3-0.1c0.1,0,0.2,0,0.2,0c0.1-0.1,0.3-0.1,0.5-0.2c0.1,0,0.2,0,0.3,0
			c0.1,0.1,0.3,0,0.5,0c0.1,0,0.2,0,0.2,0c0.2,0.1,0.2-0.1,0.4,0C37.4,3.9,37.5,3.9,37.5,3.8C37.5,3.8,37.5,3.9,37.5,3.8z"/>
		<path class="st0" d="M37.2,4.6L37.2,4.6C37,4.5,37,4.4,36.9,4.5c-0.1,0.1-0.3,0-0.4,0.1c-0.1,0-0.2,0.1-0.4,0c0,0-0.1,0-0.2,0.1
			c-0.2,0-0.3,0-0.4,0c0,0-0.1,0-0.1,0.1c0.1,0,0.1,0,0.1,0.1c0.2,0,0.2,0.2,0.3,0.4c0,0.1,0,0.1,0,0.2l-0.1,0.1l0.1,0
			c0,0,0,0.1,0,0.2c0,0,0.1,0,0.1,0c0,0,0,0,0,0c0.1,0,0.2-0.1,0.3,0c0.1,0,0.2,0,0.3,0c0.1,0,0.3,0,0.4,0c0.2-0.1-0.1-0.1,0.1-0.2
			c0-0.1,0-0.1,0.1-0.2c0.1-0.1,0.2-0.2,0.2-0.4C37.4,4.6,37.3,4.6,37.2,4.6L37.2,4.6z M36.8,4.9c0,0.1-0.1,0.2,0,0.3c0,0,0,0,0,0.1
			c-0.2,0-0.5,0.1-0.7,0.1c-0.1,0,0-0.1,0-0.1c0-0.2-0.1-0.3,0-0.4c0.2,0,0.3-0.1,0.5-0.1c0.1,0,0.3-0.1,0.4,0
			C36.8,4.8,36.9,4.9,36.8,4.9z"/>
	</g>
	<g>
		<path class="st0" d="M24.7,2.8L24.7,2.8L24.7,2.8L24.7,2.8L24.7,2.8l-0.1-0.1l0,0l0,0l0,0l0,0l0,0v0l0,0l0,0h0l0,0l0,0v0l0,0l0,0
			v0l0,0v0v0.1v0l0,0v0v0v0l0,0v0l0,0l0,0v0l0,0v0l0,0l0,0v0l0,0l0,0l0,0v0l0,0v0v0v0v0l0,0h0v0h0l0,0h0h0l0,0h0v0v0l0,0V3.1l0,0
			l0,0v0l0,0l0,0l0,0h0v0l0,0v0l0,0v0v0l0,0l0,0v0l0,0l0,0l0,0l0,0h0v0l0,0l0,0l0,0h0l0,0l0,0v0l0,0h0v0h0v0v0h0h0v0l0,0l0,0l0,0
			l0,0l0,0l0,0l0,0v0l0,0h0v0l0,0h0l0,0v0l0,0h0.2l0,0h0l0,0l0,0l0,0h0h0h0h0l0,0h0v0h0l0,0v0l0,0l0,0h0l0,0l0,0h0l0,0h0l0,0l0,0
			l0,0l0,0l0,0l0,0l0,0l0,0l0,0v0l0,0v0h0v0h0v0l0,0l0,0l0,0l0,0l0,0l0,0v0h0v0h0l0,0l0,0v0h0v0h0l0,0h0l0,0v0l0,0l0,0h0l0,0l0,0
			l0,0l0,0l0,0h0l0,0l0,0l0,0v0l0,0l0,0v0v0l0,0l0,0l0,0h0v0h0v0l0,0l0,0l0,0l0,0l0,0l0,0l0,0v0l0,0v0h0l0,0v0l0,0v0l0,0l0,0l0,0h0
			l0.1-0.2v0l0,0v0v0v0l0,0l0,0v0l0,0l0,0l0,0h0l0,0v0l0,0v0l0,0v0h0h0l0,0l0,0l0,0l0,0l0,0l0,0l0,0l0,0h0h0h0h0l0,0l0,0l0,0h0v0v0
			l0,0l0,0l0,0l0,0h0l0,0h0l0,0v0l0,0h0l0,0h0l0,0l0,0v0v0v0v0v0v0v0.1l0,0v0v0l0,0v0l0,0l0,0l0,0.1l0-0.1l-0.1,0.2v0v0l0,0v0l0,0v0
			v0v0h0l0,0l0,0l0,0h0.1v0l0,0v0v0l0,0v0l0,0v0v0l0,0v0V2.9l0,0v0v0v0l0,0l0,0l0,0l0,0l0,0l0,0l0,0v0v0l0,0v0l0,0l0,0l0,0l0,0v0v0
			l0,0v0v0v0l0,0v0l0,0v0h0l0,0h0l0,0h0l0,0l0,0l0,0l0,0l0,0l0,0h0l0,0h0l0,0h0l0,0h0v0l0,0h0h0l0,0h0l0,0h0h0h0v0l0,0h0h0h0h0l0,0
			h0h0l0,0l0,0h0.1l0,0h0v0v0l0,0v0v0v0v0l0,0l0,0v0v0l0,0l0,0l0,0v0h0l0,0l0,0l0,0l0,0l0,0l0,0h0h0h0v0l0,0h0l0,0l0,0l0,0h0v0h0h0
			h0c0,0,0,0,0,0v0h0h0l0,0h0h0l0,0h0h0h0h0l0,0h0l0,0h0h0h0l0,0l0,0h0h0l0,0h0h0h0l0,0h0h0l0,0h0l0,0l0,0v0l0,0v0v0V3.9l0,0v0l0,0
			v0l0,0l0,0l0,0l0,0l0,0l0,0v0l-0.2,0h0l0,0l0,0v0l0,0l0,0v0h0l0,0h0l0,0l0,0l0,0l0,0l0,0h0l0,0l0,0l0,0l0,0l0,0v0l0,0l0,0l0,0v0h0
			l0,0l0,0h0l0,0l0,0h0h0l0,0l0,0l0,0l0,0l0,0l0,0l0,0l0,0l0,0l0,0l0,0l0,0V4.5h0h0l0,0h0l0,0h0l0,0h0l0,0l0,0h0l0,0h0l0,0l0,0l0,0
			h0h0l0,0l0,0v0v0l0,0v0v0h0v0v0v0l0,0v0v0l0,0l0,0v0v0l0,0v0v0l0,0v0v0l0,0v0h0l0,0l0,0v0l0,0l0,0l0,0l0,0l0,0l0,0h0h0h0l0,0h0h0
			h0h0h0h0l0,0h0h0l0,0h0h0l0,0h0l0,0h0l0,0h0l0,0v0h0l0,0l0,0h0h0h0l0,0l0,0h0l0,0l0,0l0,0l0,0l0,0l0,0h0l0,0h0l0,0l0,0h0l0,0h0h0
			l0,0h0l0,0h0l0,0l0,0l0,0l0,0h0h0l0,0h0h0l0,0l0,0l0,0l0,0l0,0l0,0h0l0,0h0l0,0l0,0l0,0l0,0l0,0l0.1,0l0,0l0,0l0,0l0,0l0,0l0,0
			l0,0l0,0l0,0l0,0h0l0,0h0l0,0l0,0v0h0l0,0l0,0h0l0,0h0l0,0l0,0l0,0l0,0v0h0v0v0l0,0l0,0v0v0l0,0v0l0,0l0,0l0,0v0v0v0l0,0v0l0,0v0
			l0,0v0l0,0l0,0l0,0l0,0v0l0,0l0,0l0,0v0l0,0l0,0h0l0,0h0v0h0l0,0h0l-0.1,0l0,0l0,0l0,0l0,0l0,0v0v0v0v0v0v0v0l0,0v0v0v0l0,0v0l0,0
			v0l0,0v0l0,0v0l0,0v0l0,0v0l0,0l0,0v0v0v0l0,0v0l0,0v0l0,0v0h0h0l0,0h0h0l0,0l0,0l0,0l0,0v0h0v0l0,0l0,0h0h0l0,0v0l0,0l0,0l0,0
			l0,0h0h0l0,0l0,0h0h0l0,0l0,0h0h0l0,0H24l0,0l0,0h0h0h0l0,0h0v0h0l0,0v0l0,0v0v0l0,0v0v0l0,0v0h0v0v0l0,0v0v0v0v0l0,0v0l0,0v0h0v0
			h0v0l0,0l0,0h0h0h0l0,0l0,0h0h0l0,0h0h0h0h0h0l0,0l0,0h0l0,0v0h0l0,0h0l0,0l0,0v0h0h0h0l0,0l0,0l0,0h0l0,0l0,0l0,0l0,0l0,0h0l0,0
			l0,0l0,0l0,0h0v0h0v0l0,0h0l0,0l0,0h0l0,0h0l0,0l0,0h0l0,0h0l0,0v0l0,0h0h0v0h0.1l0,0l0,0h0h0l0,0h0h0l0,0h0v0l0,0h0v0l0,0l0,0h0
			v0l0,0v0v0h0v0h0v0l0,0l0,0l0,0l0,0l0,0l0,0l0,0l0,0l0,0l0,0l0,0l0,0h0v0h0h0h0h0l0,0l0,0l0,0l0,0l0,0l0,0l0,0l0,0l0,0h0l0,0l0,0
			h0v0h0l0,0l0,0l0,0v0h0v0h0h0l0,0l0,0l0,0v0l-0.1,0.1l0,0h0l0,0l0,0l0,0l0,0l0,0l0,0l0,0l0,0l0,0v0l0,0l0,0l0,0l0,0v0l0,0l0,0l0,0
			l0,0l0,0l0,0l0,0l0,0l0,0l0,0l0,0l0,0l0,0l0,0l0,0l0,0v0l0,0v0l0,0l0,0v0l0,0l0,0l0,0h0l0,0h0h0l0,0h0v0l0,0l0,0l0,0l0,0l0,0l0,0
			l0,0l0,0v0.1l0,0v0h0L24.8,3l0,0l0,0l0,0l0,0l0,0l0,0v0L24.7,2.8z"/>
		<polygon class="st0" points="25.2,2.8 25.2,2.8 25.2,2.8 25.3,2.8 25.3,2.9 25.3,2.9 25.3,2.9 25.3,2.9 25.3,2.9 25.3,2.9 
			25.3,2.9 25.3,2.9 25.4,2.9 25.4,2.9 25.4,2.9 25.4,2.9 25.4,2.9 25.4,2.9 25.4,2.9 25.4,2.9 25.4,2.9 25.4,2.9 25.4,2.9 
			25.5,2.9 25.5,2.9 25.5,2.9 25.5,2.9 25.5,2.9 25.5,2.9 25.5,2.9 25.5,2.9 25.6,2.9 25.6,2.8 25.6,2.8 25.6,2.8 25.6,2.8 
			25.6,2.8 25.7,2.8 25.7,2.8 25.7,2.8 25.7,2.8 25.7,2.8 25.7,2.8 25.7,2.8 25.7,2.8 25.8,2.8 25.8,2.8 25.8,2.8 25.8,2.8 
			25.8,2.8 25.8,2.8 25.8,2.8 25.9,2.8 25.9,2.7 25.9,2.7 25.9,2.7 26,2.7 26,2.7 26,2.7 26,2.7 26.1,2.7 26.1,2.7 26.1,2.7 
			26.1,2.6 26.2,2.6 26.2,2.6 26.2,2.6 26.2,2.6 26.2,2.6 26.3,2.6 26.3,2.6 26.3,2.6 26.3,2.6 26.4,2.6 26.4,2.5 26.4,2.5 
			26.4,2.5 26.4,2.5 26.4,2.6 26.4,2.6 26.5,2.6 26.5,2.5 26.5,2.5 26.5,2.5 26.5,2.5 26.5,2.5 26.5,2.5 26.5,2.5 26.5,2.5 
			26.5,2.5 26.5,2.5 26.5,2.5 26.5,2.5 26.5,2.5 26.5,2.5 26.5,2.5 26.5,2.5 26.6,2.5 26.6,2.5 26.6,2.5 26.6,2.5 26.6,2.4 
			26.6,2.4 26.6,2.4 26.6,2.4 26.5,2.4 26.5,2.4 26.5,2.4 26.5,2.4 26.5,2.4 26.5,2.4 26.5,2.4 26.5,2.3 26.5,2.3 26.5,2.3 
			26.5,2.3 26.5,2.3 26.5,2.3 26.5,2.3 26.5,2.3 26.5,2.3 26.5,2.3 26.5,2.3 26.4,2.3 26.4,2.3 26.4,2.3 26.4,2.3 26.3,2.3 
			26.3,2.3 26.3,2.3 26.3,2.3 26.2,2.3 26.2,2.3 26.2,2.3 26.2,2.3 26.2,2.3 26.2,2.3 26.2,2.3 26.1,2.3 26.1,2.3 26.1,2.4 
			26.1,2.4 26.1,2.4 26.1,2.4 26.1,2.4 26.1,2.4 26.1,2.4 26.1,2.4 26,2.4 26,2.4 26,2.4 26,2.4 26,2.4 26,2.4 25.9,2.5 25.9,2.5 
			25.9,2.5 25.9,2.5 25.8,2.5 25.8,2.5 25.8,2.5 25.8,2.5 25.8,2.5 25.8,2.5 25.8,2.6 25.7,2.6 25.7,2.6 25.7,2.6 25.7,2.6 
			25.7,2.6 25.7,2.6 25.7,2.6 25.7,2.6 25.7,2.6 25.7,2.6 25.6,2.6 25.6,2.6 25.6,2.6 25.6,2.6 25.6,2.6 25.6,2.6 25.6,2.6 
			25.6,2.6 25.6,2.7 25.6,2.7 25.6,2.7 25.6,2.7 25.6,2.7 25.6,2.7 25.6,2.7 25.5,2.7 25.5,2.7 25.5,2.7 25.5,2.7 25.5,2.6 
			25.5,2.6 25.5,2.6 25.4,2.6 25.4,2.7 25.4,2.7 25.4,2.7 25.3,2.7 25.3,2.7 25.3,2.7 25.2,2.7 25.2,2.7 25.2,2.7 25.2,2.8 
			25.2,2.8 25.2,2.8 25.2,2.8 25.2,2.8 25.2,2.8 		"/>
		<polygon class="st0" points="26.6,3 26.6,3 26.5,3 26.5,3 26.5,3 26.5,3 26.5,3 26.5,3 26.5,3 26.5,2.9 26.5,2.9 26.5,2.9 
			26.5,2.9 26.5,2.9 26.5,2.9 26.5,2.9 26.5,2.9 26.5,2.9 26.5,2.9 26.4,2.9 26.4,2.9 26.4,2.9 26.4,3 26.4,3 26.4,3 26.4,3 26.4,3 
			26.4,3 26.5,3 26.5,3 26.5,3 26.5,3 26.5,3 26.5,3.1 26.5,3.1 26.5,3.1 26.5,3.1 26.5,3.1 26.5,3.2 26.6,3.2 26.6,3.2 26.6,3.2 
			26.6,3.2 26.6,3.2 26.6,3.2 26.6,3.2 26.6,3.2 26.6,3.3 26.6,3.3 26.6,3.3 26.6,3.3 26.6,3.3 26.6,3.3 26.6,3.3 26.6,3.4 
			26.6,3.4 26.6,3.4 26.6,3.4 26.6,3.4 26.6,3.5 26.6,3.5 26.6,3.5 26.6,3.5 26.6,3.5 26.6,3.5 26.6,3.6 26.6,3.6 26.6,3.6 
			26.6,3.6 26.6,3.6 26.6,3.7 26.6,3.7 26.6,3.7 26.6,3.7 26.6,3.8 26.6,3.8 26.6,3.8 26.6,3.8 26.6,3.8 26.6,3.8 26.6,3.8 
			26.6,3.8 26.6,3.8 26.6,3.8 26.6,3.8 26.6,3.9 26.6,3.9 26.6,3.9 26.7,3.9 26.7,3.9 26.7,4 26.7,4 26.7,4 26.7,4 26.7,4.1 
			26.8,4.1 26.8,4.1 26.8,4.1 26.9,4.1 26.9,4.1 26.9,4.1 26.9,4.1 26.9,4.1 26.9,4.1 27,4.1 27,4.1 27,4.1 27,4.1 27,4.1 27.1,4.1 
			27.1,4.1 27.1,4.1 27.1,4.1 27.1,4.1 27.1,4.1 27.1,4.1 27.1,4.1 27.1,4.1 27.1,4 27.1,4 27.1,4 27.1,3.9 27.1,3.9 27.1,3.9 
			27,3.8 27,3.8 27,3.8 27,3.8 27,3.8 27,3.8 27,3.8 27,3.8 27,3.8 27,3.8 27,3.8 26.9,3.8 26.9,3.8 26.9,3.8 26.9,3.8 26.9,3.8 
			26.9,3.8 26.9,3.8 26.9,3.8 26.9,3.8 26.8,3.8 26.8,3.8 26.8,3.8 26.8,3.8 26.8,3.8 26.8,3.8 26.8,3.8 26.8,3.8 26.8,3.8 
			26.8,3.7 26.7,3.7 26.7,3.7 26.7,3.7 26.7,3.7 26.7,3.7 26.7,3.6 26.7,3.6 26.7,3.6 26.7,3.6 26.7,3.6 26.7,3.5 26.7,3.5 
			26.7,3.5 26.8,3.5 26.8,3.4 26.8,3.4 26.8,3.4 26.9,3.4 26.9,3.3 26.9,3.3 26.9,3.3 26.9,3.3 26.9,3.3 26.9,3.3 27,3.3 27,3.3 
			27,3.3 27,3.2 27,3.2 27,3.2 27,3.2 27,3.2 27,3.2 27,3.2 27,3.2 27,3.2 27,3.2 27,3.2 27,3.1 27,3.1 27,3.1 27,3.1 26.9,3 
			26.9,3 26.9,3 26.9,3 26.9,3 26.8,2.9 26.8,2.9 26.8,3 26.8,3 26.7,3 26.7,3 26.7,3 26.7,3 26.7,3 26.7,3 26.6,3 26.6,3 26.6,3 
			26.6,3 26.6,3 26.6,3 26.6,3 26.6,3 26.6,3 26.6,3 26.6,3 26.6,3 26.6,3 		"/>
		<polygon class="st0" points="26,4.4 26,4.4 26,4.4 26,4.4 26.1,4.4 26.1,4.4 26.1,4.4 26.1,4.5 26.1,4.5 26.1,4.5 26.1,4.5 
			26.1,4.5 26.1,4.5 26.1,4.5 26.1,4.5 26.2,4.5 26.2,4.5 26.2,4.5 26.2,4.5 26.2,4.5 26.2,4.5 26.2,4.5 26.2,4.5 26.3,4.5 
			26.3,4.5 26.3,4.5 26.3,4.5 26.3,4.4 26.4,4.4 26.4,4.4 26.4,4.3 26.4,4.3 26.4,4.3 26.4,4.3 26.3,4.2 26.3,4.2 26.3,4.2 
			26.3,4.2 26.3,4.1 26.3,4.1 26.2,4.1 26.2,4.1 26.2,4.1 26.2,4.1 26.2,4.1 26.2,4.1 26.2,4.1 26.2,4 26.2,4 26.1,4 26.1,4 26.1,4 
			26.1,4 26.1,4 26.1,3.9 26.1,3.9 26.1,3.9 26.1,3.9 26.1,3.8 26.1,3.8 26.1,3.8 26.1,3.8 26.2,3.7 26.2,3.7 26.2,3.7 26.2,3.7 
			26.2,3.6 26.2,3.6 26.2,3.6 26.2,3.6 26.2,3.6 26.2,3.5 26.2,3.5 26.3,3.5 26.3,3.5 26.3,3.5 26.3,3.4 26.3,3.4 26.3,3.4 
			26.3,3.4 26.3,3.4 26.3,3.3 26.3,3.3 26.3,3.3 26.3,3.3 26.3,3.3 26.3,3.3 26.3,3.3 26.2,3.3 26.2,3.2 26.2,3.2 26.2,3.2 
			26.2,3.2 26.2,3.2 26.2,3.2 26.2,3.2 26.2,3.2 26.1,3.2 26.1,3.2 26.1,3.2 26.1,3.2 26.1,3.2 26,3.2 26,3.2 26,3.2 26,3.2 26,3.2 
			26,3.2 26,3.2 25.9,3.2 25.9,3.2 25.9,3.2 25.9,3.2 25.9,3.2 25.9,3.2 25.9,3.2 25.9,3.2 25.9,3.2 25.9,3.2 25.9,3.2 25.9,3.2 
			25.9,3.2 25.8,3.2 25.8,3.2 25.8,3.2 25.8,3.2 25.8,3.2 25.8,3.2 25.8,3.2 25.8,3.2 25.8,3.3 25.8,3.3 25.8,3.3 25.8,3.3 
			25.8,3.3 25.8,3.3 25.8,3.4 25.9,3.4 25.9,3.4 25.9,3.4 25.9,3.4 25.9,3.4 25.9,3.4 25.9,3.5 25.9,3.5 25.9,3.5 25.9,3.5 
			25.9,3.5 25.9,3.5 25.9,3.6 25.9,3.6 25.9,3.6 25.9,3.6 25.9,3.6 25.9,3.6 25.9,3.6 25.9,3.6 25.9,3.6 25.9,3.7 25.9,3.7 
			25.9,3.7 25.9,3.7 25.9,3.7 25.9,3.7 25.9,3.8 25.9,3.8 25.9,3.8 25.9,3.8 25.9,3.8 25.9,3.8 25.9,3.8 25.9,3.8 25.9,3.8 
			25.9,3.9 25.9,3.9 25.9,3.9 25.9,3.9 25.9,3.9 25.9,4 25.9,4 25.9,4 25.9,4 25.9,4 25.9,4 25.8,4 25.8,4.1 25.8,4.1 25.8,4.1 
			25.8,4.1 25.8,4.1 25.9,4.1 25.9,4.1 25.9,4.1 25.9,4.1 25.9,4.1 25.9,4.1 25.9,4.1 25.9,4.1 25.9,4.1 25.9,4.2 25.9,4.2 
			25.9,4.2 25.9,4.2 25.9,4.2 25.9,4.2 26,4.3 26,4.3 26,4.3 26,4.3 		"/>
		<polygon class="st0" points="25.1,4.1 25.1,4.1 25.1,4.1 25.1,4.1 25.1,4.1 25.1,4.1 25.1,4.2 25.1,4.2 25.1,4.2 25.1,4.2 
			25.1,4.2 25.1,4.2 25.1,4.3 25.1,4.3 25.1,4.3 25.1,4.3 25.1,4.3 25.1,4.3 25.1,4.4 25.1,4.4 25.2,4.4 25.2,4.5 25.2,4.5 
			25.2,4.5 25.2,4.5 25.3,4.5 25.3,4.6 25.3,4.6 25.3,4.6 25.3,4.6 25.3,4.6 25.3,4.6 25.4,4.6 25.4,4.6 25.4,4.6 25.4,4.6 
			25.4,4.6 25.4,4.6 25.4,4.6 25.4,4.6 25.4,4.6 25.4,4.6 25.4,4.6 25.4,4.6 25.4,4.6 25.5,4.6 25.5,4.6 25.5,4.6 25.5,4.5 
			25.5,4.5 25.5,4.5 25.5,4.5 25.5,4.5 25.5,4.4 25.5,4.4 25.5,4.4 25.5,4.4 25.4,4.4 25.4,4.4 25.4,4.4 25.4,4.3 25.4,4.3 
			25.4,4.3 25.4,4.3 25.4,4.3 25.4,4.3 25.4,4.3 25.3,4.3 25.3,4.3 25.3,4.2 25.3,4.2 25.3,4.2 25.3,4.2 25.3,4.2 25.3,4.2 
			25.3,4.1 25.3,4.1 25.2,4.1 25.2,4.1 25.2,4.1 25.2,4.1 25.2,4.1 25.2,4.1 25.2,4 25.2,4 25.2,4 25.2,4 25.2,4 25.2,4 25.2,4 
			25.2,4 25.2,3.9 25.2,3.9 25.3,3.9 25.3,3.9 25.3,3.9 25.3,3.9 25.3,3.9 25.3,3.9 25.3,3.9 25.3,3.8 25.3,3.8 25.4,3.8 25.4,3.8 
			25.4,3.8 25.4,3.8 25.4,3.8 25.4,3.8 25.4,3.8 25.5,3.7 25.5,3.7 25.5,3.7 25.5,3.7 25.5,3.6 25.5,3.6 25.5,3.6 25.5,3.6 
			25.4,3.5 25.4,3.5 25.4,3.5 25.4,3.5 25.4,3.5 25.4,3.4 25.4,3.4 25.4,3.4 25.4,3.4 25.4,3.4 25.3,3.4 25.3,3.4 25.3,3.4 
			25.2,3.4 25.2,3.3 25.2,3.3 25.2,3.3 25.1,3.3 25.1,3.4 25.1,3.4 25.1,3.4 25.1,3.4 25.1,3.4 25.1,3.4 25.1,3.4 25.1,3.4 
			25.1,3.4 25.1,3.4 25.1,3.4 25.1,3.4 25.1,3.4 25.1,3.4 25.1,3.4 25.1,3.5 25.1,3.5 25.1,3.5 25.1,3.5 25.1,3.5 25.1,3.5 
			25.1,3.5 25.1,3.5 25.1,3.5 25.1,3.6 25.1,3.6 25.1,3.6 25.1,3.6 25.1,3.6 25.1,3.6 25.1,3.7 25.1,3.7 25.1,3.7 25.1,3.7 
			25.1,3.7 25.1,3.8 25.1,3.8 25.1,3.8 25.1,3.8 25.1,3.8 25.1,3.8 25.1,3.8 25.1,3.9 25.1,3.9 25.1,3.9 25.1,3.9 25.1,3.9 
			25.1,3.9 25.1,4 25.1,4 25.1,4 25.1,4 25.1,4 25.1,4 		"/>
		<polygon class="st0" points="27.4,5.8 27.4,5.8 27.4,5.8 27.4,5.8 27.4,5.8 27.3,5.8 27.3,5.8 27.3,5.8 27.3,5.8 27.3,5.8 
			27.3,5.8 27.3,5.8 27.3,5.8 27.3,5.8 27.2,5.8 27.2,5.8 27.2,5.8 27.2,5.8 27.2,5.8 27.2,5.8 27.2,5.8 27.2,5.8 27.2,5.8 
			27.2,5.8 27.1,5.8 27.1,5.8 27.1,5.8 27.1,5.8 27.1,5.8 27.1,5.8 27.1,5.8 27.1,5.8 27.1,5.8 27.1,5.8 27.1,5.8 27.1,5.8 27,5.8 
			27,5.8 27,5.8 27,5.8 27,5.8 27,5.8 27,5.8 27,5.8 27,5.8 27,5.8 26.9,5.8 26.9,5.8 26.9,5.8 26.9,5.8 26.9,5.8 26.9,5.8 
			26.9,5.8 26.9,5.8 26.8,5.8 26.8,5.8 26.8,5.8 26.8,5.8 26.8,5.8 26.8,5.8 26.8,5.8 26.7,5.8 26.7,5.8 26.7,5.8 26.7,5.8 
			26.7,5.8 26.7,5.8 26.7,5.8 26.7,5.8 26.6,5.8 26.6,5.8 26.6,5.8 26.6,5.8 26.6,5.8 26.6,5.9 26.6,5.9 26.6,5.8 26.6,5.8 
			26.6,5.8 26.5,5.8 26.5,5.8 26.5,5.8 26.5,5.8 26.5,5.8 26.5,5.8 26.5,5.8 26.5,5.8 26.5,5.8 26.5,5.8 26.4,5.8 26.4,5.9 
			26.4,5.9 26.4,5.9 26.4,5.9 26.4,5.9 26.3,5.8 26.3,5.8 26.3,5.8 26.3,5.9 26.3,5.9 26.2,5.9 26.2,5.9 26.2,5.9 26.2,5.9 
			26.2,5.9 26.2,5.9 26.2,5.9 26.2,5.9 26.2,5.9 26.2,5.9 26.2,5.9 26.2,5.9 26.1,5.9 26.1,5.9 26.1,5.9 26.1,5.9 26.1,5.9 
			26.1,5.9 26.1,5.8 26.1,5.8 26,5.8 26,5.8 26,5.8 26,5.8 26,5.8 26,5.8 26,5.8 26.1,5.7 26.1,5.7 26.1,5.7 26.1,5.7 26.1,5.7 
			26.1,5.7 26.1,5.6 26.1,5.6 26.1,5.6 26.1,5.6 26.1,5.6 26.1,5.6 26.1,5.6 26.1,5.5 26.1,5.5 26.1,5.5 26.1,5.5 26.1,5.5 
			26.1,5.5 26.1,5.5 26.2,5.5 26.2,5.5 26.2,5.4 26.1,5.4 26.1,5.4 26.2,5.4 26.2,5.4 26.2,5.4 26.2,5.4 26.2,5.4 26.2,5.4 
			26.2,5.3 26.2,5.3 26.2,5.3 26.2,5.3 26.2,5.3 26.2,5.3 26.2,5.3 26.2,5.3 26.2,5.3 26.2,5.2 26.2,5.2 26.2,5.2 26.2,5.2 
			26.2,5.2 26.2,5.2 26.2,5.2 26.2,5.2 26.1,5.2 26.1,5.2 26.1,5.2 26.1,5.2 26.1,5.2 26.1,5.1 26.1,5.1 26.1,5.1 26,5.1 26,5.1 
			26,5.1 26,5 26.1,5 26.1,5 26.1,5 26.1,5 26.1,5 26.2,5 26.2,5 26.2,5 26.2,5 26.2,5 26.2,5 26.2,5 26.2,5 26.3,5 26.3,5 26.3,5 
			26.3,5 26.3,5 26.3,5 26.3,5 26.3,5 26.3,5 26.3,5 26.4,5 26.4,5 26.4,5 26.4,5 26.4,4.9 26.4,4.9 26.4,4.9 26.5,4.9 26.5,4.9 
			26.5,4.9 26.5,4.9 26.5,4.9 26.5,4.9 26.5,4.9 26.5,4.9 26.5,4.9 26.5,4.9 26.5,4.9 26.5,4.9 26.5,4.9 26.5,4.9 26.6,4.9 
			26.6,4.9 26.6,4.9 26.6,4.9 26.7,4.9 26.7,4.9 26.7,4.9 26.7,4.9 26.8,4.9 26.8,4.9 26.8,4.9 26.8,4.9 26.9,4.9 26.9,4.9 
			26.9,4.9 26.9,4.8 26.9,4.8 26.9,4.7 26.9,4.7 26.9,4.7 26.9,4.7 26.8,4.7 26.8,4.7 26.8,4.7 26.8,4.7 26.8,4.7 26.8,4.7 
			26.8,4.7 26.7,4.7 26.7,4.7 26.7,4.7 26.7,4.6 26.7,4.7 26.7,4.7 26.6,4.7 26.6,4.7 26.6,4.7 26.6,4.7 26.6,4.7 26.6,4.7 
			26.6,4.7 26.5,4.7 26.5,4.7 26.5,4.7 26.5,4.7 26.5,4.7 26.5,4.8 26.5,4.8 26.5,4.8 26.5,4.8 26.5,4.8 26.4,4.8 26.4,4.8 
			26.4,4.8 26.4,4.8 26.4,4.8 26.4,4.8 26.4,4.8 26.4,4.8 26.4,4.8 26.4,4.8 26.4,4.8 26.3,4.8 26.3,4.8 26.3,4.8 26.3,4.8 
			26.2,4.8 26.2,4.8 26.2,4.8 26.2,4.8 26.2,4.8 26.1,4.8 26.1,4.8 26.1,4.8 26.1,4.8 26.1,4.8 26.1,4.8 26.1,4.8 26.1,4.8 
			26.1,4.8 26.1,4.8 26.1,4.8 26,4.8 26,4.8 26,4.8 26,4.8 26,4.8 26,4.8 26,4.8 26,4.8 26,4.8 26,4.8 25.9,4.8 25.9,4.8 25.9,4.8 
			25.9,4.8 25.9,4.9 25.9,4.9 25.9,4.9 25.8,4.9 25.8,4.9 25.8,4.9 25.8,4.9 25.8,4.9 25.8,4.9 25.8,4.9 25.8,4.9 25.7,4.9 
			25.7,4.9 25.7,4.9 25.7,4.9 25.7,4.9 25.7,4.9 25.7,4.9 25.6,4.9 25.6,4.9 25.6,4.9 25.6,4.9 25.6,4.9 25.6,4.9 25.6,4.9 
			25.5,4.9 25.5,4.9 25.5,4.9 25.5,4.9 25.5,4.9 25.5,4.9 25.5,4.9 25.5,4.9 25.5,4.9 25.5,4.9 25.4,4.9 25.4,4.9 25.4,4.9 
			25.4,4.9 25.4,4.9 25.4,4.9 25.3,4.9 25.3,4.9 25.3,4.9 25.3,4.9 25.3,4.9 25.3,4.9 25.3,4.9 25.3,5 25.2,5 25.2,5 25.2,5 25.2,5 
			25.1,5 25.1,5 25.1,5 25.1,5 25.1,5 25,5 25,5 25,5 25,5.1 25,5.1 25,5.1 25,5.1 25,5.1 25,5.1 25.1,5.1 25.1,5.2 25.1,5.2 
			25.1,5.2 25.1,5.2 25.1,5.2 25.1,5.2 25.1,5.2 25.1,5.2 25.1,5.2 25.1,5.3 25.2,5.3 25.2,5.3 25.2,5.3 25.2,5.3 25.2,5.3 
			25.2,5.3 25.3,5.3 25.3,5.3 25.3,5.3 25.3,5.3 25.3,5.2 25.3,5.2 25.3,5.2 25.3,5.2 25.3,5.2 25.3,5.2 25.4,5.2 25.4,5.3 
			25.4,5.3 25.4,5.3 25.4,5.3 25.4,5.2 25.4,5.2 25.4,5.2 25.4,5.2 25.4,5.2 25.4,5.2 25.5,5.2 25.5,5.2 25.5,5.2 25.5,5.2 
			25.5,5.2 25.5,5.2 25.6,5.2 25.6,5.2 25.6,5.2 25.6,5.2 25.6,5.2 25.6,5.2 25.7,5.2 25.7,5.2 25.7,5.1 25.7,5.1 25.7,5.1 
			25.7,5.2 25.7,5.2 25.8,5.2 25.8,5.2 25.8,5.2 25.8,5.2 25.8,5.2 25.8,5.2 25.8,5.2 25.8,5.2 25.8,5.3 25.8,5.3 25.8,5.3 
			25.8,5.3 25.7,5.4 25.7,5.4 25.7,5.4 25.7,5.4 25.7,5.4 25.7,5.4 25.7,5.4 25.7,5.4 25.7,5.4 25.7,5.4 25.8,5.4 25.8,5.4 
			25.7,5.4 25.7,5.5 25.7,5.5 25.7,5.5 25.7,5.5 25.7,5.5 25.7,5.5 25.7,5.5 25.7,5.5 25.7,5.5 25.7,5.6 25.7,5.6 25.7,5.6 
			25.7,5.6 25.7,5.6 25.7,5.6 25.7,5.6 25.7,5.6 25.7,5.6 25.7,5.7 25.7,5.7 25.7,5.7 25.6,5.8 25.6,5.8 25.6,5.8 25.6,5.8 
			25.5,5.9 25.5,5.9 25.5,5.9 25.5,5.9 25.5,5.9 25.5,6 25.5,6 25.5,6 25.5,6 25.4,6 25.4,6 25.4,6 25.4,6 25.4,6 25.4,6 25.4,6 
			25.3,5.9 25.3,5.9 25.3,6 25.3,6 25.3,6 25.3,6 25.2,6 25.2,6 25.2,6 25.2,6 25.1,6 25.1,6 25.1,6 25.1,6 25.1,6 25.1,6 25.1,6 
			25,6 25,6 25,6 25,6 25,6 25,6 25,6 24.9,6 24.9,6 24.9,6 24.9,6 24.9,6 24.9,6 24.9,6 24.9,6 24.9,6 24.9,6 24.9,6 24.8,6 
			24.8,6 24.8,6 24.8,6 24.8,6 24.8,6 24.8,6 24.8,6 24.7,6 24.7,6 24.7,6 24.7,6 24.7,6 24.7,6 24.7,6 24.7,6 24.7,6 24.7,6 
			24.6,6 24.6,6 24.7,6.1 24.7,6.1 24.7,6.1 24.7,6.1 24.7,6.1 24.7,6.1 24.7,6.1 24.7,6.1 24.7,6.2 24.7,6.2 24.8,6.2 24.8,6.2 
			24.8,6.2 24.8,6.2 24.8,6.2 24.8,6.2 24.8,6.2 24.8,6.3 24.9,6.3 24.9,6.3 24.9,6.3 24.9,6.3 24.9,6.3 25,6.3 25,6.2 25,6.2 
			25,6.2 25.1,6.3 25.1,6.3 25.1,6.3 25.1,6.3 25.1,6.2 25.1,6.2 25.2,6.2 25.2,6.2 25.2,6.2 25.3,6.2 25.3,6.2 25.3,6.2 25.3,6.2 
			25.3,6.2 25.4,6.2 25.4,6.2 25.4,6.2 25.4,6.2 25.4,6.2 25.4,6.2 25.4,6.2 25.5,6.2 25.5,6.2 25.5,6.2 25.5,6.2 25.5,6.2 
			25.5,6.2 25.5,6.2 25.5,6.2 25.6,6.2 25.6,6.2 25.6,6.2 25.6,6.2 25.6,6.2 25.6,6.2 25.6,6.2 25.7,6.2 25.7,6.2 25.7,6.2 
			25.7,6.1 25.7,6.1 25.8,6.1 25.8,6.1 25.8,6.1 25.8,6.1 25.8,6.1 25.8,6.1 25.9,6.1 25.9,6.1 25.9,6.1 26,6.1 26,6.1 26,6.1 
			26,6.1 26,6.1 26,6.1 26,6.1 26.1,6.1 26.1,6.1 26.1,6.1 26.1,6.1 26.1,6.1 26.1,6.1 26.1,6.1 26.1,6.1 26.2,6.1 26.2,6.1 
			26.2,6.1 26.2,6.1 26.2,6.1 26.2,6.1 26.2,6.1 26.3,6.1 26.3,6.1 26.3,6.1 26.3,6.1 26.3,6.1 26.3,6.1 26.3,6.1 26.3,6.1 
			26.3,6.1 26.4,6.1 26.4,6.1 26.4,6.1 26.4,6.1 26.4,6.1 26.4,6.1 26.4,6.1 26.5,6.1 26.5,6.1 26.5,6.1 26.5,6.1 26.5,6.1 
			26.5,6.1 26.5,6.1 26.5,6.1 26.5,6.1 26.5,6.1 26.5,6.1 26.6,6.1 26.6,6.1 26.6,6.1 26.6,6.1 26.6,6.1 26.6,6.1 26.6,6.1 
			26.6,6.1 26.7,6.1 26.7,6.1 26.7,6.1 26.7,6.1 26.8,6.1 26.8,6.1 26.8,6.1 26.8,6.1 26.8,6.1 26.8,6.1 26.9,6.1 26.9,6.1 
			26.9,6.1 26.9,6.1 26.9,6 26.9,6 26.9,6 27,6.1 27,6.1 27,6.1 27,6.1 27.1,6.1 27.1,6.1 27.1,6.1 27.1,6.1 27.1,6.1 27.1,6.1 
			27.2,6.1 27.2,6.1 27.2,6.1 27.2,6.1 27.2,6.1 27.2,6.1 27.3,6.1 27.3,6.1 27.3,6.1 27.3,6 27.3,6 27.3,6 27.3,6 27.3,6 27.4,6 
			27.4,6 27.4,6 27.4,6 27.4,6 27.4,6 27.4,5.9 27.4,5.9 27.4,5.9 27.4,5.9 27.4,5.9 27.4,5.8 27.4,5.8 		"/>
		<polygon class="st0" points="24.2,5.6 24.2,5.6 24.2,5.6 24.2,5.6 24.2,5.6 24.1,5.6 24.1,5.5 24.1,5.5 24.1,5.5 24.1,5.5 
			24.1,5.5 24.1,5.5 24.1,5.5 24.1,5.5 24.1,5.5 24.1,5.5 24.1,5.5 24.1,5.5 24.1,5.5 24.1,5.4 24.1,5.4 24.1,5.4 24.1,5.4 
			24.1,5.4 24.1,5.4 24,5.4 24,5.3 24,5.3 24,5.3 24,5.3 24,5.3 24,5.2 23.9,5.2 23.9,5.2 23.9,5.2 23.9,5.2 23.9,5.2 23.9,5.2 
			23.9,5.2 23.9,5.2 23.9,5.2 23.9,5.2 23.9,5.2 23.8,5.2 23.8,5.2 23.8,5.2 23.8,5.2 23.8,5.2 23.8,5.2 23.8,5.2 23.8,5.2 
			23.8,5.2 23.8,5.2 23.8,5.2 23.8,5.2 23.8,5.2 23.8,5.2 23.8,5.2 23.8,5.2 23.8,5.2 23.8,5.3 23.8,5.3 23.8,5.3 23.8,5.3 
			23.8,5.3 23.8,5.3 23.8,5.3 23.8,5.3 23.8,5.3 23.8,5.4 23.8,5.4 23.8,5.4 23.8,5.4 23.8,5.4 23.8,5.5 23.8,5.5 23.8,5.5 
			23.8,5.5 23.8,5.5 23.9,5.6 23.9,5.6 23.9,5.6 23.9,5.6 23.9,5.6 23.9,5.6 23.9,5.6 23.9,5.7 23.9,5.7 23.9,5.7 23.9,5.7 
			23.9,5.7 24,5.7 24,5.7 24,5.8 24,5.8 24,5.8 24,5.8 24,5.8 24,5.8 24,5.9 24,5.9 24,5.9 24,5.9 24,5.9 24,5.9 24,6 24,6 24,6 
			24,6 24,6 24,6 24,6 24,6 24,6 24,6 24,6 24.1,6 24.1,6.1 24.1,6.1 24.1,6.1 24.2,6.1 24.2,6.1 24.2,6.2 24.2,6.2 24.3,6.2 
			24.3,6.2 24.3,6.2 24.3,6.2 24.3,6.2 24.3,6.2 24.3,6.2 24.3,6.2 24.3,6.1 24.3,6.1 24.3,6.1 24.3,6.1 24.3,6.1 24.3,6.1 
			24.3,6.1 24.3,6 24.4,6 24.4,6 24.4,6 24.4,6 24.3,6 24.3,6 24.3,6 24.3,5.9 24.3,5.9 24.3,5.9 24.3,5.9 24.3,5.8 24.3,5.8 
			24.3,5.8 24.3,5.8 24.3,5.7 24.3,5.7 24.3,5.7 24.2,5.7 24.2,5.7 24.2,5.6 24.2,5.6 24.2,5.6 24.2,5.6 		"/>
		<polygon class="st0" points="22.4,5.4 22.4,5.5 22.4,5.5 22.3,5.5 22.3,5.5 22.3,5.5 22.3,5.5 22.3,5.6 22.3,5.6 22.3,5.6 
			22.3,5.6 22.3,5.6 22.3,5.6 22.3,5.6 22.3,5.7 22.3,5.7 22.3,5.7 22.2,5.7 22.2,5.7 22.2,5.7 22.2,5.7 22.2,5.8 22.2,5.8 
			22.2,5.8 22.2,5.8 22.2,5.8 22.2,5.8 22.1,5.8 22.1,5.8 22.1,5.9 22.1,5.9 22.1,5.9 22.1,5.9 22.1,5.9 22.1,5.9 22.1,6 22.1,6 
			22.1,6 22.1,6 22.1,6 22.1,6 22.1,6 22.1,6 22.1,6 22.1,6 22.1,6 22.1,6 22.1,6 22.1,6.1 22.1,6.1 22.1,6.1 22.1,6.1 22.1,6.2 
			22.1,6.2 22.1,6.2 22.1,6.2 22.1,6.3 22.1,6.3 22.2,6.3 22.2,6.3 22.2,6.3 22.2,6.3 22.2,6.3 22.2,6.3 22.2,6.4 22.3,6.4 
			22.3,6.4 22.3,6.4 22.3,6.3 22.3,6.3 22.3,6.3 22.3,6.3 22.3,6.3 22.3,6.3 22.3,6.3 22.3,6.3 22.4,6.3 22.4,6.3 22.4,6.3 
			22.4,6.3 22.4,6.3 22.4,6.3 22.4,6.3 22.4,6.3 22.4,6.3 22.4,6.3 22.4,6.2 22.4,6.2 22.4,6.2 22.4,6.2 22.4,6.2 22.4,6.2 
			22.4,6.2 22.4,6.1 22.4,6.1 22.4,6.1 22.4,6.1 22.4,6.1 22.4,6.1 22.4,6.1 22.4,6.1 22.4,6 22.4,6 22.4,6 22.4,6 22.4,6 22.4,6 
			22.4,6 22.4,6 22.4,5.9 22.4,5.9 22.4,5.9 22.4,5.9 22.4,5.9 22.4,5.8 22.4,5.8 22.4,5.8 22.4,5.8 22.4,5.8 22.4,5.8 22.4,5.7 
			22.4,5.7 22.4,5.7 22.4,5.7 22.4,5.6 22.4,5.6 22.4,5.6 22.4,5.6 22.4,5.6 22.4,5.6 22.4,5.6 22.4,5.6 22.4,5.6 22.4,5.6 
			22.4,5.5 22.4,5.5 22.4,5.5 22.4,5.5 22.4,5.5 22.4,5.5 22.4,5.5 22.4,5.5 22.4,5.5 22.4,5.5 22.4,5.5 22.4,5.5 22.4,5.5 
			22.4,5.4 22.4,5.4 22.4,5.4 22.4,5.4 22.4,5.4 		"/>
		<polygon class="st0" points="23.4,5.9 23.4,5.9 23.4,5.9 23.4,5.9 23.4,5.9 23.4,5.8 23.4,5.8 23.4,5.8 23.4,5.8 23.4,5.8 
			23.4,5.8 23.4,5.7 23.4,5.7 23.4,5.7 23.4,5.6 23.4,5.6 23.4,5.6 23.3,5.6 23.3,5.6 23.3,5.6 23.3,5.6 23.3,5.6 23.3,5.5 
			23.3,5.5 23.3,5.5 23.3,5.5 23.3,5.5 23.3,5.5 23.3,5.5 23.3,5.5 23.3,5.5 23.2,5.4 23.2,5.4 23.2,5.4 23.2,5.4 23.2,5.4 
			23.2,5.4 23.2,5.4 23.2,5.4 23.2,5.4 23.2,5.4 23.2,5.4 23.2,5.4 23.1,5.4 23.1,5.4 23.1,5.4 23.1,5.5 23.1,5.5 23.1,5.5 
			23.1,5.5 23.1,5.5 23.1,5.6 23.1,5.6 23.1,5.6 23.1,5.6 23.1,5.6 23.1,5.6 23.1,5.6 23.1,5.6 23.1,5.6 23.1,5.6 23.1,5.6 
			23.1,5.7 23.1,5.7 23.1,5.7 23.1,5.7 23.1,5.7 23.1,5.8 23.1,5.8 23.1,5.8 23.1,5.8 23.1,5.8 23.1,5.8 23.1,5.8 23.1,5.8 
			23.1,5.8 23.1,5.8 23.1,5.8 23.1,5.8 23.1,5.9 23.1,5.9 23.1,5.9 23.1,5.9 23.1,5.9 23.1,5.9 23.1,5.9 23.1,6 23.1,6 23.1,6 
			23.1,6 23.1,6 23.1,6 23.1,6 23.1,6 23.1,6 23.1,6 23.1,6 23.1,6 23.1,6.1 23.1,6.1 23.1,6.1 23.2,6.1 23.2,6.2 23.2,6.2 
			23.2,6.2 23.2,6.2 23.2,6.2 23.2,6.2 23.2,6.2 23.3,6.2 23.3,6.2 23.3,6.2 23.3,6.2 23.3,6.2 23.3,6.2 23.3,6.2 23.3,6.2 
			23.3,6.2 23.4,6.2 23.4,6.2 23.4,6.2 23.4,6.2 23.4,6.2 23.4,6.2 23.4,6.2 23.4,6.2 23.4,6.2 23.4,6.2 23.4,6.2 23.4,6.1 
			23.4,6.1 23.4,6.1 23.4,6.1 23.4,6.1 23.4,6.1 23.4,6 23.4,6 23.4,6 23.4,6 23.4,6 23.4,6 23.4,6 23.4,6 23.4,5.9 		"/>
	</g>
</g>
<g>
	<g>
		<path class="st1" d="M8.2,12.5c-3.1-1.3-7,0-8,0.3c0.1,0.4,0.2,0.8,0.3,1.2c1.5-0.4,4.7-1.1,7.3-0.1c5.1,2.1,8.4,1.1,9.8,0.5
			c0.2-0.5,0.4-1,0.5-1.4C16.7,13.6,13.4,14.7,8.2,12.5z"/>
		<path class="st1" d="M8.2,15.1c-2.5-1-5.5-0.4-7.1,0c0.2,0.4,0.4,0.8,0.7,1.1c1.7-0.4,4-0.6,6,0.2c3.2,1.3,5.7,1.4,7.5,1.1
			c0.5-0.5,1-1,1.4-1.6C15,16.5,12.1,16.7,8.2,15.1z"/>
		<path class="st1" d="M2.7,17.3C4.3,19,6.6,20,9.1,20c1.6,0,3.1-0.4,4.3-1.1c-1.5-0.1-3.2-0.4-5.3-1.2C6.4,16.9,4.3,17.1,2.7,17.3z
			"/>
	</g>
	<g>
		<path class="st2" d="M9.8,9.3c0.8,0,1.5-0.7,1.5-1.5c0-0.5-0.2-0.9-0.5-1.1c0,0.1,0,0.3,0,0.4c0,0.4-0.1,0.8-0.3,1.1
			C10.2,8.6,9.7,9,9.2,9.2C9.4,9.3,9.6,9.3,9.8,9.3z M9.2,1.8C4.1,1.8,0,5.9,0,10.9c0,0.3,0,0.6,0,0.8c1.2-0.6,4.6-1.9,10,0.3
			c3.5,1.4,8.2-0.4,8.2-0.4c0-0.3,0-0.5,0-0.8C18.3,5.9,14.2,1.8,9.2,1.8z M9.3,10.2c-1.3,0-2.4-1.1-2.4-2.4s2.6-4.1,2.5-4.2
			c-0.1-0.1,2.4,3,2.4,4.2C11.8,9.1,10.7,10.2,9.3,10.2z"/>
	</g>
</g>
<g>
	<path class="st3" d="M22.9,9.6l-0.4-1.4h0.2l0.2,1c0,0.1,0,0.2,0.1,0.3C23,9.2,23,9.1,23,9.1l0.3-1h0.2l0.2,0.7
		c0,0.2,0.1,0.4,0.1,0.5c0-0.1,0-0.2,0.1-0.3l0.2-0.9h0.2l-0.4,1.4h-0.2l-0.3-1.1c0-0.1,0-0.1,0-0.2c0,0.1,0,0.1,0,0.2L23,9.6
		L22.9,9.6L22.9,9.6z"/>
	<path class="st3" d="M25.2,9.5c-0.1,0.1-0.1,0.1-0.2,0.1c-0.1,0-0.1,0-0.2,0c-0.1,0-0.2,0-0.3-0.1c-0.1-0.1-0.1-0.1-0.1-0.2
		c0,0,0-0.1,0-0.1c0,0,0-0.1,0.1-0.1c0,0,0.1,0,0.1-0.1c0,0,0.1,0,0.2,0c0.1,0,0.3,0,0.3-0.1c0,0,0,0,0,0c0-0.1,0-0.1,0-0.2
		c0,0-0.1-0.1-0.2-0.1c-0.1,0-0.1,0-0.2,0c0,0-0.1,0.1-0.1,0.2l-0.2,0c0-0.1,0-0.1,0.1-0.2c0,0,0.1-0.1,0.2-0.1c0.1,0,0.1,0,0.2,0
		c0.1,0,0.2,0,0.2,0c0.1,0,0.1,0,0.1,0.1c0,0,0,0.1,0,0.1c0,0,0,0.1,0,0.2v0.2c0,0.2,0,0.3,0,0.3c0,0,0,0.1,0,0.1h-0.2
		C25.2,9.5,25.2,9.5,25.2,9.5z M25.2,9.1c-0.1,0-0.2,0-0.3,0.1c-0.1,0-0.1,0-0.2,0c0,0,0,0-0.1,0.1c0,0,0,0,0,0.1c0,0,0,0.1,0,0.1
		c0,0,0.1,0,0.2,0s0.1,0,0.2,0c0,0,0.1-0.1,0.1-0.1C25.1,9.2,25.2,9.2,25.2,9.1L25.2,9.1z"/>
	<path class="st3" d="M26,9.4l0,0.2c0,0-0.1,0-0.1,0c-0.1,0-0.1,0-0.1,0c0,0-0.1,0-0.1-0.1c0,0,0-0.1,0-0.2V8.7h-0.1V8.5h0.1V8.3
		l0.2-0.1v0.4H26v0.1h-0.2v0.6c0,0,0,0.1,0,0.1c0,0,0,0,0,0C25.9,9.4,25.9,9.4,26,9.4C26,9.4,26,9.4,26,9.4z"/>
	<path class="st3" d="M26.9,9.2l0.2,0c0,0.1-0.1,0.2-0.2,0.3c-0.1,0.1-0.2,0.1-0.3,0.1c-0.2,0-0.3,0-0.4-0.1
		c-0.1-0.1-0.1-0.2-0.1-0.4c0-0.2,0-0.3,0.1-0.4c0.1-0.1,0.2-0.1,0.4-0.1s0.3,0,0.4,0.1s0.1,0.2,0.1,0.4c0,0,0,0,0,0h-0.8
		c0,0.1,0,0.2,0.1,0.3c0.1,0.1,0.1,0.1,0.2,0.1c0.1,0,0.1,0,0.2,0C26.8,9.4,26.9,9.3,26.9,9.2z M26.3,8.9h0.6c0-0.1,0-0.2-0.1-0.2
		c-0.1-0.1-0.1-0.1-0.2-0.1c-0.1,0-0.1,0-0.2,0.1C26.4,8.8,26.3,8.9,26.3,8.9z"/>
	<path class="st3" d="M27.3,9.6V8.5h0.2v0.2c0-0.1,0.1-0.1,0.1-0.1s0.1,0,0.1,0c0.1,0,0.1,0,0.2,0.1l-0.1,0.2c0,0-0.1,0-0.1,0
		c0,0-0.1,0-0.1,0s0,0.1-0.1,0.1c0,0.1,0,0.1,0,0.2v0.6L27.3,9.6L27.3,9.6z"/>
	<path class="st3" d="M28.6,9.6V8.1h0.7c0.1,0,0.2,0,0.3,0c0.1,0,0.1,0.1,0.2,0.1c0,0.1,0.1,0.1,0.1,0.2c0,0.1,0,0.2-0.1,0.3
		c-0.1,0.1-0.2,0.1-0.3,0.1c0,0,0.1,0,0.1,0.1c0.1,0,0.1,0.1,0.2,0.2l0.3,0.4h-0.2l-0.2-0.3c-0.1-0.1-0.1-0.2-0.1-0.2
		c0,0-0.1-0.1-0.1-0.1c0,0-0.1,0-0.1,0c0,0-0.1,0-0.1,0h-0.2v0.7L28.6,9.6L28.6,9.6z M28.8,8.8h0.4c0.1,0,0.2,0,0.2,0
		c0,0,0.1,0,0.1-0.1c0,0,0-0.1,0-0.1c0-0.1,0-0.1-0.1-0.2c0,0-0.1-0.1-0.2-0.1h-0.5L28.8,8.8L28.8,8.8z"/>
	<path class="st3" d="M30.8,9.2l0.2,0c0,0.1-0.1,0.2-0.2,0.3c-0.1,0.1-0.2,0.1-0.3,0.1c-0.2,0-0.3,0-0.4-0.1C30,9.4,30,9.2,30,9.1
		c0-0.2,0-0.3,0.1-0.4c0.1-0.1,0.2-0.1,0.4-0.1c0.1,0,0.3,0,0.4,0.1s0.1,0.2,0.1,0.4c0,0,0,0,0,0h-0.8c0,0.1,0,0.2,0.1,0.3
		c0.1,0.1,0.1,0.1,0.2,0.1c0.1,0,0.1,0,0.2,0C30.7,9.4,30.7,9.3,30.8,9.2z M30.2,8.9h0.6c0-0.1,0-0.2-0.1-0.2
		c-0.1-0.1-0.1-0.1-0.2-0.1c-0.1,0-0.1,0-0.2,0.1C30.2,8.8,30.2,8.9,30.2,8.9z"/>
	<path class="st3" d="M31.1,9.3l0.2,0c0,0.1,0,0.1,0.1,0.2c0,0,0.1,0.1,0.2,0.1s0.1,0,0.2,0c0,0,0.1-0.1,0.1-0.1c0,0,0-0.1,0-0.1
		c0,0-0.1,0-0.2-0.1c-0.1,0-0.2-0.1-0.3-0.1c0,0-0.1-0.1-0.1-0.1c0,0,0-0.1,0-0.1s0-0.1,0-0.1c0,0,0-0.1,0.1-0.1c0,0,0.1,0,0.1,0
		c0,0,0.1,0,0.2,0c0.1,0,0.2,0,0.2,0c0.1,0,0.1,0.1,0.1,0.1c0,0,0,0.1,0.1,0.2l-0.2,0c0,0,0-0.1-0.1-0.1c0,0-0.1,0-0.2,0
		c-0.1,0-0.1,0-0.2,0c0,0,0,0.1,0,0.1c0,0,0,0,0,0.1c0,0,0,0,0.1,0c0,0,0.1,0,0.2,0C31.7,9,31.8,9,31.8,9c0,0,0.1,0,0.1,0.1
		c0,0,0,0.1,0,0.2s0,0.1,0,0.2c0,0-0.1,0.1-0.1,0.1c-0.1,0-0.1,0-0.2,0c-0.1,0-0.2,0-0.3-0.1C31.1,9.5,31.1,9.4,31.1,9.3z"/>
	<path class="st3" d="M32.1,9.1c0-0.2,0-0.3,0.2-0.4c0.1-0.1,0.2-0.1,0.3-0.1c0.1,0,0.3,0,0.4,0.1c0.1,0.1,0.1,0.2,0.1,0.4
		c0,0.1,0,0.2-0.1,0.3c0,0.1-0.1,0.1-0.2,0.2c-0.1,0-0.2,0.1-0.3,0.1c-0.1,0-0.3,0-0.4-0.1C32.2,9.4,32.1,9.2,32.1,9.1z M32.3,9.1
		c0,0.1,0,0.2,0.1,0.3s0.1,0.1,0.2,0.1c0.1,0,0.2,0,0.2-0.1c0.1-0.1,0.1-0.2,0.1-0.3c0-0.1,0-0.2-0.1-0.3c-0.1-0.1-0.1-0.1-0.2-0.1
		c-0.1,0-0.2,0-0.2,0.1S32.3,8.9,32.3,9.1z"/>
	<path class="st3" d="M34,9.6V9.4c-0.1,0.1-0.2,0.2-0.3,0.2c-0.1,0-0.1,0-0.2,0c0,0-0.1,0-0.1-0.1c0,0,0-0.1,0-0.1c0,0,0-0.1,0-0.2
		V8.5h0.2v0.6c0,0.1,0,0.2,0,0.2c0,0,0,0.1,0.1,0.1s0.1,0,0.1,0c0,0,0.1,0,0.1,0c0,0,0.1-0.1,0.1-0.1c0,0,0-0.1,0-0.2V8.5h0.2v1.1
		L34,9.6L34,9.6L34,9.6z"/>
	<path class="st3" d="M34.4,9.6V8.5h0.2v0.2c0-0.1,0.1-0.1,0.1-0.1c0,0,0.1,0,0.1,0c0.1,0,0.1,0,0.2,0.1l-0.1,0.2c0,0-0.1,0-0.1,0
		c0,0-0.1,0-0.1,0c0,0,0,0.1-0.1,0.1c0,0.1,0,0.1,0,0.2v0.6L34.4,9.6L34.4,9.6z"/>
	<path class="st3" d="M35.8,9.2l0.2,0c0,0.1-0.1,0.2-0.1,0.3s-0.2,0.1-0.3,0.1c-0.1,0-0.3,0-0.4-0.1c-0.1-0.1-0.1-0.2-0.1-0.4
		c0-0.1,0-0.2,0.1-0.3c0-0.1,0.1-0.1,0.2-0.2s0.2-0.1,0.3-0.1c0.1,0,0.2,0,0.3,0.1C35.9,8.6,36,8.7,36,8.8l-0.2,0
		c0-0.1,0-0.1-0.1-0.2c0,0-0.1,0-0.2,0c-0.1,0-0.2,0-0.2,0.1c-0.1,0.1-0.1,0.2-0.1,0.3c0,0.1,0,0.2,0.1,0.3s0.1,0.1,0.2,0.1
		c0.1,0,0.1,0,0.2-0.1C35.7,9.3,35.8,9.3,35.8,9.2z"/>
	<path class="st3" d="M36.8,9.2l0.2,0c0,0.1-0.1,0.2-0.2,0.3c-0.1,0.1-0.2,0.1-0.3,0.1c-0.2,0-0.3,0-0.4-0.1
		c-0.1-0.1-0.1-0.2-0.1-0.4c0-0.2,0-0.3,0.1-0.4c0.1-0.1,0.2-0.1,0.4-0.1c0.1,0,0.3,0,0.4,0.1C37,8.7,37,8.9,37,9c0,0,0,0,0,0h-0.8
		c0,0.1,0,0.2,0.1,0.3s0.1,0.1,0.2,0.1c0.1,0,0.1,0,0.2,0C36.8,9.4,36.8,9.3,36.8,9.2z M36.3,8.9h0.6c0-0.1,0-0.2-0.1-0.2
		c-0.1-0.1-0.1-0.1-0.2-0.1c-0.1,0-0.1,0-0.2,0.1C36.3,8.8,36.3,8.9,36.3,8.9z"/>
	<path class="st3" d="M37.2,9.3l0.2,0c0,0.1,0,0.1,0.1,0.2c0,0,0.1,0.1,0.2,0.1s0.1,0,0.2,0s0.1-0.1,0.1-0.1c0,0,0-0.1,0-0.1
		c0,0-0.1,0-0.2-0.1c-0.1,0-0.2-0.1-0.3-0.1c0,0-0.1-0.1-0.1-0.1c0,0,0-0.1,0-0.1s0-0.1,0-0.1c0,0,0-0.1,0.1-0.1c0,0,0.1,0,0.1,0
		c0,0,0.1,0,0.2,0c0.1,0,0.2,0,0.2,0c0.1,0,0.1,0.1,0.1,0.1c0,0,0,0.1,0.1,0.2l-0.2,0c0,0,0-0.1-0.1-0.1c0,0-0.1,0-0.2,0
		c-0.1,0-0.1,0-0.2,0c0,0,0,0.1,0,0.1c0,0,0,0,0,0.1c0,0,0,0,0.1,0c0,0,0.1,0,0.2,0C37.8,9,37.9,9,37.9,9c0,0,0.1,0,0.1,0.1
		c0,0,0,0.1,0,0.2s0,0.1,0,0.2c0,0-0.1,0.1-0.1,0.1c-0.1,0-0.1,0-0.2,0c-0.1,0-0.2,0-0.3-0.1C37.2,9.5,37.2,9.4,37.2,9.3z"/>
	<path class="st3" d="M38.7,9.6l0.6-1.4h0.2L40,9.6h-0.2l-0.2-0.4H39l-0.2,0.4H38.7z M39.1,9h0.5l-0.2-0.4c0-0.1-0.1-0.2-0.1-0.3
		c0,0.1,0,0.2-0.1,0.3L39.1,9z"/>
	<path class="st3" d="M40.2,9.7l0.2,0c0,0,0,0.1,0.1,0.1c0,0,0.1,0,0.2,0c0.1,0,0.1,0,0.2,0c0,0,0.1-0.1,0.1-0.1c0,0,0-0.1,0-0.2
		c-0.1,0.1-0.2,0.1-0.3,0.1c-0.1,0-0.3,0-0.3-0.2c-0.1-0.1-0.1-0.2-0.1-0.4c0-0.1,0-0.2,0-0.3c0-0.1,0.1-0.1,0.2-0.2
		c0.1,0,0.1-0.1,0.2-0.1c0.1,0,0.2,0,0.3,0.1V8.5H41v0.9c0,0.2,0,0.3,0,0.4c0,0.1-0.1,0.1-0.2,0.2c-0.1,0-0.2,0.1-0.3,0.1
		c-0.1,0-0.2,0-0.3-0.1C40.2,9.9,40.2,9.8,40.2,9.7z M40.3,9c0,0.1,0,0.2,0.1,0.3s0.1,0.1,0.2,0.1s0.1,0,0.2-0.1
		c0-0.1,0.1-0.2,0.1-0.3c0-0.1,0-0.2-0.1-0.3c-0.1-0.1-0.1-0.1-0.2-0.1s-0.1,0-0.2,0.1C40.3,8.8,40.3,8.9,40.3,9z"/>
	<path class="st3" d="M42,9.2l0.2,0c0,0.1-0.1,0.2-0.2,0.3c-0.1,0.1-0.2,0.1-0.3,0.1c-0.2,0-0.3,0-0.4-0.1c-0.1-0.1-0.1-0.2-0.1-0.4
		c0-0.2,0-0.3,0.1-0.4s0.2-0.1,0.4-0.1c0.1,0,0.3,0,0.4,0.1c0.1,0.1,0.1,0.2,0.1,0.4c0,0,0,0,0,0h-0.8c0,0.1,0,0.2,0.1,0.3
		c0.1,0.1,0.1,0.1,0.2,0.1c0.1,0,0.1,0,0.2,0C42,9.4,42,9.3,42,9.2z M41.4,8.9H42c0-0.1,0-0.2-0.1-0.2c-0.1-0.1-0.1-0.1-0.2-0.1
		c-0.1,0-0.1,0-0.2,0.1C41.5,8.8,41.5,8.9,41.4,8.9z"/>
	<path class="st3" d="M42.4,9.6V8.5h0.2v0.1c0.1-0.1,0.2-0.2,0.3-0.2c0.1,0,0.1,0,0.2,0c0,0,0.1,0,0.1,0.1c0,0,0,0.1,0,0.1
		c0,0,0,0.1,0,0.2v0.7h-0.2V8.9c0-0.1,0-0.1,0-0.2c0,0,0-0.1-0.1-0.1c0,0-0.1,0-0.1,0c-0.1,0-0.1,0-0.2,0.1c0,0-0.1,0.1-0.1,0.3v0.6
		L42.4,9.6L42.4,9.6z"/>
	<path class="st3" d="M44.3,9.2l0.2,0c0,0.1-0.1,0.2-0.1,0.3c-0.1,0.1-0.2,0.1-0.3,0.1c-0.1,0-0.3,0-0.4-0.1
		c-0.1-0.1-0.1-0.2-0.1-0.4c0-0.1,0-0.2,0.1-0.3c0-0.1,0.1-0.1,0.2-0.2s0.2-0.1,0.3-0.1c0.1,0,0.2,0,0.3,0.1
		c0.1,0.1,0.1,0.1,0.1,0.2l-0.2,0c0-0.1,0-0.1-0.1-0.2c0,0-0.1,0-0.2,0c-0.1,0-0.2,0-0.2,0.1c-0.1,0.1-0.1,0.2-0.1,0.3
		c0,0.1,0,0.2,0.1,0.3s0.1,0.1,0.2,0.1c0.1,0,0.1,0,0.2-0.1C44.2,9.3,44.2,9.3,44.3,9.2z"/>
	<path class="st3" d="M44.6,10l0-0.2c0,0,0.1,0,0.1,0c0,0,0.1,0,0.1,0c0,0,0,0,0.1,0c0,0,0-0.1,0-0.1c0,0,0,0,0,0l-0.4-1.1h0.2
		l0.2,0.6c0,0.1,0,0.2,0.1,0.2c0-0.1,0-0.2,0.1-0.2l0.2-0.6h0.2l-0.4,1.1C45,9.7,45,9.8,45,9.8c0,0.1-0.1,0.1-0.1,0.1
		c0,0-0.1,0-0.1,0C44.7,10,44.6,10,44.6,10z"/>
	<path class="st3" d="M45.6,9.6V9.4h0.2v0.2c0,0.1,0,0.1,0,0.2c0,0-0.1,0.1-0.1,0.1l0-0.1c0,0,0.1,0,0.1-0.1c0,0,0-0.1,0-0.1
		L45.6,9.6L45.6,9.6z"/>
	<path class="st3" d="M47.3,9.6V8.1h0.3l0.4,1c0,0.1,0,0.2,0.1,0.2c0,0,0-0.1,0.1-0.2l0.4-1h0.3v1.4h-0.2V8.4l-0.4,1.2h-0.2
		l-0.4-1.2v1.2H47.3z"/>
	<path class="st3" d="M49,8.9c0-0.2,0.1-0.4,0.2-0.6c0.1-0.1,0.3-0.2,0.5-0.2c0.1,0,0.3,0,0.4,0.1c0.1,0.1,0.2,0.2,0.2,0.3
		c0.1,0.1,0.1,0.2,0.1,0.4c0,0.1,0,0.3-0.1,0.4c-0.1,0.1-0.1,0.2-0.3,0.3c-0.1,0.1-0.2,0.1-0.4,0.1c-0.1,0-0.3,0-0.4-0.1
		c-0.1-0.1-0.2-0.2-0.2-0.3C49,9.1,49,9,49,8.9z M49.2,8.9c0,0.2,0,0.3,0.1,0.4s0.2,0.2,0.4,0.2c0.1,0,0.3,0,0.4-0.2
		c0.1-0.1,0.1-0.2,0.1-0.4c0-0.1,0-0.2-0.1-0.3c0-0.1-0.1-0.2-0.2-0.2s-0.2-0.1-0.3-0.1c-0.1,0-0.3,0-0.4,0.1
		C49.2,8.5,49.2,8.7,49.2,8.9z"/>
	<path class="st3" d="M50.6,9.6V8.1h1.1v0.2h-0.9v0.4h0.8v0.2h-0.8v0.5h0.9v0.2L50.6,9.6L50.6,9.6z"/>
	<path class="st3" d="M51.8,9.6l0.6-1.4h0.2l0.6,1.4h-0.2l-0.2-0.4h-0.6L52,9.6H51.8z M52.2,9h0.5l-0.2-0.4c0-0.1-0.1-0.2-0.1-0.3
		c0,0.1,0,0.2-0.1,0.3L52.2,9z"/>
</g>
<text transform="matrix(1 0 0 1 22.0854 17.865)" class="st4 st5">圖書典藏及影音數位平台建置</text>
</svg>
