<?xml version="1.0" encoding="utf-8"?>
<!-- Generator: Adobe Illustrator 24.0.2, SVG Export Plug-In . SVG Version: 6.00 Build 0)  -->
<svg version="1.1" id="圖層_1" xmlns="http://www.w3.org/2000/svg" xmlns:xlink="http://www.w3.org/1999/xlink" x="0px" y="0px"
	 viewBox="0 0 445.5 120.4" style="enable-background:new 0 0 445.5 120.4;" xml:space="preserve">
<style type="text/css">
	.st0{fill-rule:evenodd;clip-rule:evenodd;fill:#040000;stroke:#000000;stroke-width:0.5;}
	.st1{fill:#189F65;}
	.st2{fill:#209FD7;}
</style>
<g>
	<g>
		<path class="st0" d="M330.9,35.3c-0.3-1.2-1.9-1.1-2.6-1.6c-2,0-3.7-0.7-5.7-0.7c-0.8-0.2-2.1-0.7-2.9-0.3c-1.6-0.5-3.5-0.8-5.4-1
			c-0.5,0.2-1-0.1-1.5-0.1c-1.3,0-2.5-0.4-3.8-0.4c-1.3-0.5-3.2,0.2-4.2-0.9c0.2-0.8,1-1.3,1.5-2.1l0.3-0.2c1.8-1.6,3.1-3.5,4.9-5.1
			c5.4-4.1,10.2-10.2,17.8-9.7l0.3-0.3c0.5-0.4,0.5-1.2,0.4-1.9c-0.8-1.5-2.4-2.6-4-3.2c-1.4-0.2-2.7-0.2-4.3-0.2
			c-1.4,0.2,0.2,1.2-0.2,1.9c-0.8,2-3.3,3.2-4.5,4.9c-1.3,1.6-3.3,3.1-4.7,4.8c-1.6,1.2-2.6,2.6-3.8,4.1c-1.3,1.1-2.3,2.3-3.5,3.2
			c-0.4,0.4-0.4-0.2-0.7-0.3c0-1.6,0-3.4-0.1-4.9c-0.2-0.3,0.2-0.7-0.2-1.1c0.4-0.8,0.4-1.4,0.2-2.4c0.4-0.3,0-0.9,0.2-1.3
			c0.1-2.1,0.7-4.4,0.7-6.5c0.4-2.1,1.1-4.5-0.1-6.4L304.7,3c-0.5-1.2-1.9-1.9-3-2.4c-0.2-0.2-0.7-0.4-0.9-0.2
			c1.6,3.6,1.9,7.9,2.1,12l-0.2,0.8c0.5,2.2,0.2,5.1,0.2,7.5s0.1,5.1-0.2,7.6c-1.6,2.3-4.2,3.1-6.5,4.7c-0.8,0.2-1.1,1.2-1.9,1.3
			c-0.3,0-0.3,0.4-0.2,0.8c0,0.2-0.2,0.4-0.5,0.4c-0.1,0.5-1.3,0.8-0.7,1.4c1.6,0.5,3-0.2,4.5-0.3l2.1-1.8c0.7-0.3,0.8-1.1,1.6-1.1
			c3-0.3,0.8,2.6,1.6,4c-0.1,1.6,0.2,3.2-0.3,4.7c-1.5-0.7-1.8-2.4-3-3.2c0.1,0.3,0.3,0.8,0.3,1.3c1.6,2,2.3,4.5,2.6,6.9
			c0.4,0.8,1.1-0.4,1.9,0c0.5-0.4,0.7-1.2,0.7-2.1c-0.5-1.3-0.7-2.6-0.5-4.1c-0.8-1.9-0.2-4.1-0.2-6.3c0-0.7-0.2-1.4,0.7-1.6
			c0.8,0,1.8,0.2,2.4,0.8c1.5,0.3,2.9,0.7,4.5,0.7c0.7-0.2,1.6,0.2,2.4,0.2c1.2,0.2,2.4,0.2,3.5,1.1c1,0,1.8,0.5,2.6,0.2
			c1.5-0.8,2.1,1.6,3.5,0.5c2.9,1.8,6.7,1.5,9.3-0.2C332.7,35.8,331.7,35.7,330.9,35.3z"/>
		<path class="st0" d="M292.3,23c-3.2-2.5-7.7,0.2-11-1.1c-0.4-0.2-0.5-0.9-1.1-0.8c-0.5,0.7,0.1,1.2-0.2,1.9
			c1.2,1.6,2.6,2.6,4.3,3.7c1.6,0.5,3.1-0.5,4.5,0.2c-0.1,2.7-0.8,5.5-1.9,7.9c0,0.4-0.7,0.2-0.3,0.8c-0.5,1-1,2.1-1.8,2.9
			c0.2,0.7-0.8,1-0.8,1.6c-1.2,1-1.6,2.4-3,3.1c-0.9,0-1.6-0.2-2.4-0.2c-0.3,0.5-0.1,1.2,0.2,1.6c0.2,0.8,1.2,0.7,1.9,0.7
			c3.8-1.8,6.3-5.8,8.9-9.2c0.7-0.7,0.4-1.9,1.3-2.4c0-0.7,0.7-1.3,0-1.9c0.2-0.3,0.4-0.2,0.7-0.2v-0.3c1.1-2.1,1.6-4.6,1.4-7.1
			C292.8,23.7,292.3,23.4,292.3,23z"/>
	</g>
	<g>
		<path class="st0" d="M388.2,13.6c-0.5-1,0-1.9-0.7-3c-0.7-0.2-1.3-0.5-2-1c-1,0.2-1.4-0.9-2.4-0.5c-0.2,0.3-0.9,0.2-0.8,0.7
			c0.3-0.1,0.5,0,0.8-0.1c0.4,0.2,1.2,0.4,1.2,1.1c0,1.5,0,3.1-0.2,4.5c-0.1,0.5,1,0.7,0.2,0.8c0,0.7-0.2,1,0,1.6
			c-0.4,2.2,0.3,4.2,0,6.5c0.5,2-0.2,4.3,0,6.4c-0.7,0.7,0.8,1.2,0,1.6c0,1.9-0.7,3.3-0.4,5.3c-0.5,1.3-1.5,2.6-2.9,3.1
			c-2,1.3-4.1,1.2-6.5,1.5c-0.3-0.3-1-0.3-1.6-0.3c0.2,0.2,0,0.8,0.5,0.7c1,0.9,2.1,1.3,3.3,1.3c1,1,2.7,1.3,4,0.8
			c0.7,0.7,1.6,0.3,2.5,0.3c0.8,0.5,1.1-0.8,1.8-0.7c0.8-1.2,1.8-2.5,2-4c1-1.5-0.2-3.3,0.4-4.8c0-4-0.1-7.6,0-11.5
			c-0.1-0.9,0-1.3,0.2-2.1c-0.7-0.7,0.3-1-0.2-1.9C388.4,17.9,386.9,15.6,388.2,13.6z"/>
		<path class="st0" d="M351.6,17.4c1.2,0.5,2.3,1.5,3.6,0.7c1.2,0.3,2-0.8,2.7-1c0.7-1,1.8-0.4,2.7-1.2c1.5-0.7,3.8-0.4,4.6-2.2
			c-0.2-0.7-0.2-1.3-0.5-1.9c-1.2-0.8-1.8-2.4-3.5-2.1c-2,2.2-4.5,3.7-7,5.2c-1.2,0.3-1.9,1.6-3,1.6
			C351.1,16.8,351.3,17.2,351.6,17.4z"/>
		<path class="st0" d="M374.4,31c0.5-0.5,1-1,1.3-1.6c0.2-1.6,0.8-3.6,1-5.8c-0.3-1.5,0.4-2.5,0-4h-0.8c-0.3,1-0.7-0.2-1.3,0.3
			c-0.8-1-2.1,0-3.1-0.2c-0.3,1-1.6,1.4-1.6,2.6c-0.3,1-1.5,1.8-1.5,2.6c-0.8,0.8-1.3,2.1-2.3,2.7c-1.2,0.4-2.1,0-3.1-0.3
			c-1.2,0.2-1.8-1-2.7-1.2c0.3-1.2-0.2-3.1,0.7-4.4c1.3-0.7,2.6-0.9,3.8-1.6c0.2-0.4,0-1,0-1.2c-1-0.3-1.9,0-2.6,0.2
			c-0.4,0.2-0.8,0.8-1.6,0.5c-0.8-0.8-2-1.5-3.1-1c-0.7,0.8,0.3,1.2,0.7,2c-1.4,1.2-3.4,1.4-4.9,2.4c-1.2,0-2.1,1-3.1,1
			c-1.8,1.3-4.1,1.9-6.3,2.3c-0.4-0.2-0.8-0.8-0.8-1.4c-1.5-0.5-1,1.2-2,1.2c-0.7,0.5,0,1.2,0,1.9c0.2,1,1.3,1,2.1,1.2
			c1.4-1.1,3.4,0.7,4.5-0.9c0.5,0.2,1.2,0,1.3-0.4c1.2,0,2.1-1.2,3.1-1.6c1.2-0.7,2.1-1.4,3.3-2.2c1,0.2,1.2-0.7,2.1-0.7
			c0.2,0,0.7,0.3,0.4,0.7c-0.8,1.8-2.6,2.4-3.5,4.1c-0.7,1.5-2.6,2.3-3.5,3.8c-1.2,0.2-1.4,1.2-2.5,2c-1.1,0.2-1.1,2-1.4,2.7
			c-0.5,0.8,0.2,1.5,0.4,2c0.5,0.3,0.9,0.2,1.3-0.2c0.2,0.2,0.3,0.2,0.5,0.2l2.2-1.6c1.2-2,3.3-3.3,4.5-5.3c0.8-1,1.3-2.5,2.6-3.1
			c0.4,0.1,0.1,0.7,0.4,1.1c-0.8,3.1-0.3,5.7-1.2,8.7c0.2,1.5-1.2,3.5,0.3,4.8c0.3,0.2,1,0.2,1.2-0.3c0-2,0.8-4,0.2-6
			c0.5-1.5,0.5-3.1,0.3-4.6c0.5-1.4-0.4-3,0.3-4.3c0.4-0.2,0.8,0.4,1.2,0.7c1.2,0.7,2.1,2.1,3.1,2.9l1.6,0.2c1.2-0.4,1.3-1.6,2-2.5
			c0.7-3.1,1.8-6.6,4.1-8.8l0.8,0.8c1,2.3-0.4,4.1-1.4,6c0.7,0.8,0,1.3,0.8,1.9C372.9,30,372.9,31.4,374.4,31z"/>
	</g>
	<g>
		<path class="st0" d="M416.9,7.9c0.4,2.3,0.7,4.9,2,6.6c0.4,0.4,1.2,0.9,1.6,0.4c0.7-0.7,1.2-1.4,1.3-2.3c-0.4-0.2-0.7-0.4-0.7-0.7
			c-0.4-0.4-0.7-1.4-1.2-1.4c-0.7-0.7-1.2-1.8-2-2.6c-0.2-0.4,0.2-0.4,0.5-0.8c2.3-0.7,4.4-2.1,6.7-2.9c2.7-0.3,5.5-1.9,8.6-1.2
			c0.9,0.2,1.2,1.2,1.3,2c-0.9,1.4-1.9,2.7-3.4,3.2c-0.3,0.4-1.1,0.4-1.6,0.2c-0.8-0.7,0-2-1-2.6c-1-0.2-2.4-0.4-3.2,0.2
			c0.3,0.8,0.2,1.5,0.1,2.4c-0.7,1.2-1.4,2.6-1.6,4.1c1.9,0,3.1-1.1,4.4-2c1-2.1,3.1,0,4.7-0.8c1.3-1.3,2.6,0.4,4.2-0.2
			c1.2-0.3,2.9-0.2,3.6-1.5c0.7-1,0.7-2.5,0.2-3.5c-0.5-1-1.5-1.5-2.3-2.2c-0.8,0.2-1.4-0.8-2.1-0.4c-0.4-0.4-1.2-0.3-1.9-0.2
			c-2.1-0.9-4.1,0-6.4-0.2c-0.4,0.3-0.4,0.8-0.9,1.1c-0.5,0.3-1.2,0.3-1.8-0.1c-0.4,0.1-0.4,0.5-0.7,0.9c-0.3-0.2-0.5-0.4-1-0.4
			c-0.5,0.4-1.2,0.2-1.8,0.7c-1.4,0.4-3.1,0.7-4.3,1.5c-1.2-0.4-1.6,1.6-3.1,1.1c0,0.7-0.5,0.3-0.8,0.3c-0.2,0.9-1.4,0.1-1.6,0.9
			c0.4,0.4,1.2,0.2,1.5,0.7C415.5,8.4,416.3,6.8,416.9,7.9z"/>
		<path class="st0" d="M406.6,9.8c0.5,0.9-0.2,2.1,0,3.2c-0.3,1.6,1,3.1,2.2,4.1c0.7,0.4,1.2-0.3,1.6-0.7c0.4-0.7,0.1-1.5-0.2-2.1
			c0-1.3-0.4-2.6-0.7-3.8c-0.7-1.2-1.2-2.6-2.4-3.6C405.5,6.8,407.1,8.8,406.6,9.8z"/>
		<path class="st0" d="M445.1,23.9c-0.8-0.7-1.6-1.6-3-1.3c-0.9,0.7-1.6-0.2-2.6,0.2c-0.7,0.7-1.5-0.1-2.4,0.2
			c-1.3-0.7,0.2,1.2-0.8,1.6c-0.9-0.2-1.2,0.7-2,0.7c-0.4,0.2-1-0.2-1.2,0.4c-0.5,0.2-1.4,0.2-1.5-0.3c0.8-1.8,2.7-2.6,4-4.4
			c1.2-1.2,3-2.3,2.5-4.1c-0.2-0.8-1-0.9-1.6-0.8c-0.3-1.1-1.3-0.2-2-0.2c-1,0.4-0.2,1.1-0.5,1.8c-0.2,2.1-2.2,3-3,4.7
			c-1.6,1.9-2.6,5.8-5.7,5.6c-0.7-0.1-1.6,1.3-2.2,0c0-1.5,0.7-2.9,1.4-4.2c1.1-0.8,2.6-0.8,3.6-1.9c0.2-0.4,0.2-0.9,0-1.3
			c-0.2,0.2-0.2,0.4-0.4,0.2c-0.8-0.9-2.1,0.4-3-0.2c0.2-0.7-0.2-1.5,0.5-2c1.9-0.7,4.4-0.3,5.3-2.5c-0.2-1.3-2-0.9-2.6-0.2
			c-0.9-0.2-1.4,0.9-2.3,1.1c-1.2,0.7-2.2-1.3-3.6-0.7c-0.5,0.7-1.4,0.9-1.8,1.6c-0.9,0.7-2.1,1.1-2.6,0.7c-0.3,0.7-0.9,0.2-1.2,0.4
			c-0.2,0.2,0.1,0.2,0.1,0.3c1.6,0.2,3.1,0.7,4.5,0.7l0.2,0.7c0.3,1-0.2,2-0.7,2.6c-0.7,0-0.9,0.4-1.2,0.1c-0.7,1.1-1.9,0.3-2.4,1.1
			c1.2,0.3,2.5,0.7,3.7,0.4c0.7,0.2,0.4,0.7,0.7,1.1c0,0.8-0.2,1.5-0.2,2.4c-0.7,1.8-2.6,1.6-4.1,2.1c-0.2,0.7-0.8,0.2-1.4,0.8
			c-0.8-0.3-1.2,0.7-2,0.2c-0.2,0.7-1-0.1-1.1,0.7c-1.3,0-2.7,0.4-3.5,1.2l-0.2-0.3l-0.8,0.3c-0.4-0.2-1,0.2-1.6,0.1
			c-0.3,0.5-1,0.2-1.3,0.7c-0.7,0.2-1.6-0.2-2.1,0.4c-0.7-0.2-1.2,0.4-1.6-0.2c-0.2,0.2-0.8,0.2-1,0.4c0.2,0.7,1,0.7,1.3,1.1
			c1.3,0.4,2.7,1.3,4.4,1.3c0.8-0.2,2-0.1,2.2-1.1c0.2-0.4,0.7-0.5,1-0.8c0.2-1.2,1.4-0.8,2.2-0.9c0.4,0.2,1.2,0.2,1.6,0
			c0.8-1.4,2.4-0.8,3.4-1.6c2.1-0.3,3.8-2.1,5.9-2.6c0.7,0,1.4-0.2,2.1-0.4c0.2,0,0.7,0.2,0.7,0.7c-0.4,0.7-1.2,1.2-1.4,2
			c-1,0.7-1.6,2.2-2.9,2.6c-1,0.8-1.5-1-2.4-1c-0.2,1,0.2,1.8,0.2,2.9c-1.4,2-3,3.6-4.9,4.8c0.1,0.2,0.1,0.2,0.1,0.2
			c0.3,0,0.4,0.3,0.4,0.4c0,0.2-0.2,0.4-0.4,0.4c-0.3-0.1-0.2-0.4-0.2-0.7c-0.5,0.2-1,0.9-1.5,1.3c-0.2,0.8-1,0.3-1.4,0.8
			c-0.9,1.6-3,1.2-3.8,2.6c-0.1,0-0.4,0-0.5,0.3c-1-0.2-1.6,0.7-2.6,0.7c-0.4-0.4-0.8,0.3-1.3-0.1c0,0.2-0.2,0.2-0.3,0.4l0.8,0.9
			c0.7,0.8,2,0.9,3,0.7c0.3-0.4,0-0.9,0.3-1.4c0.7-1.6,2.4-0.7,3.6-1.3c0.4,0.2,0.7,0.4,0.8,0.9c0.7-0.7,2.3-0.9,2.3-2.2
			c2.5-1.1,4.4-3.6,6.4-5.6c0.5,0.1,0.5,0.7,0.8,1.2c0.2,1.2,1.1,2.1,1.4,3.1c0.7,1.2,1.6,1.5,2.9,1.4c2.9-1.2,2.1-5.2,4.4-7.1
			c1,0,2.6-0.8,3.1,0.8c0.2,0.7,0,1.2-0.4,1.6c-1.1,1.3-2.2,2.6-3.4,4.1c-0.1,0.2-0.1,0.9-0.5,0.7c0.1,1,1.2,0,1.5,0.3
			c0.2-0.3,0.7,0,1-0.4c2.3-0.4,5.1-0.3,7.7-0.4c0.8,0,2.1,0.2,3-0.4c0.9-0.5,1-1.4,1.2-2.3c-0.2-2.9-2.9-3.8-5.1-4.9
			c-0.7,0.2-1.4-0.4-2.1-0.2c-1.2-0.7-3-0.7-4.5-0.4c-0.3,0.7-1.3,0.7-2,1.3c-1.4,0.4-2.2,2.1-3.4,3.1c-0.5,0.4-1-0.4-1.4-0.8
			c-0.1-1.2-1.2-2.1-1.2-3.5c2-2.6,4-5.1,6.8-7.4c0.5-1.2,1.9-1.9,3-2.3c3.1-0.3,6.1-0.8,8.8-1.4c1.6-0.7,3.5,0.9,4.7-0.7
			C445.1,24.9,445.2,24.4,445.1,23.9z"/>
	</g>
	<g>
		<path class="st0" d="M200.9,19.8c0.2-0.2,0.3,0,0.5,0v-0.2h0.1c0.1,0,0.1,0,0.1,0.1c0.7,0.1,1-0.3,1.4-0.7c0.7,0,1.2-0.5,1.6-0.7
			c0.3,0.2,0.7,0.4,0.8,0.7l0.2-0.2c0.2,0.1,0.1,0.4,0.3,0.2c0.3,0,0.9,0,1.1-0.2c1.2,0.2,1.8-1,2.6-1.5c-0.2-1,0.9-0.2,1.2-0.8
			c0.5,0.2,1-0.4,1.5-0.1c0.3-0.1,0.7-0.1,1.1-0.1c0.2,0.1,0.2,0.2,0.2,0.4c0,0.3-0.3,0.5-0.7,0.5c0.2,0,0.8,0.2,1.1-0.1
			c0.5,0,1.2-0.1,1.8,0c0.4,0.1,0.9,0,1-0.5c0.2,0,0.3,0,0.3-0.2c-0.5-0.3-1.2-0.7-1.9-1c-0.4-0.2-0.7,0.2-1,0.2
			c-0.5-0.1-1.2,0-1.6,0.2c-0.5-0.4-1.1,0.2-1.6,0c-0.2-0.2-0.7-0.3-0.7-0.8c0-0.2-0.1-0.7-0.3-0.7c-0.4-0.8-1.2-0.1-1.6-0.8
			c-0.5,0.3-0.8-0.2-1.3,0c-0.1-0.3-0.2,0-0.5,0c-0.2-0.4-0.5,0.1-0.9,0.1c-0.3-0.2-0.7,0.3-1,0.1c-0.2,0.1-0.2,0.2-0.2,0.3
			c0.4,0.2,0.9,0.7,1.3,1.1l-0.3,2c-0.5,0.4-1.2,0.4-1.9,0.7c-1.1,0.2-2,0.7-3,1c-0.2,0-0.3-0.1-0.4,0c-0.2,0.3-0.8,0.2-1.1,0.3
			C199.9,19.4,200.3,20.1,200.9,19.8z"/>
		<path class="st0" d="M195.3,18.3c0.1,0,0.2,0,0.3-0.1l0.2,0.5c-0.3,0.3-0.4,0.8-0.7,1.2c0.9-0.1,1.6-0.4,2.6-0.4
			c0-0.2,0.8-0.2,0.3-0.7c0.1,0,0.2,0,0.2-0.1c0.2,0.1,0.1,0.2,0.1,0.3c0.1,0.1,0.2,0,0.3,0v-0.2c0.2-0.4-0.1-0.7-0.3-1
			c-0.2-0.3-0.3-0.2-0.7-0.3c-1-0.4-1.9,0.2-3.1,0.2C194.7,18.2,195.3,17.8,195.3,18.3z"/>
		<path class="st0" d="M207.7,24.3c0.3,1.1,0.1,2.6-0.1,3.8c0.3,0.7,0,1.3-0.1,2c0.1,0.2,0.2,0.4,0.4,0.5c0.7,0.3,0.9-0.3,1.2-0.7
			c0.4-0.8-0.3-1.3,0.2-2.1c0.2-0.7-0.2-1.2,0.2-1.6c0-0.3,0-1-0.2-1.1h0.2c0.2-0.7-0.7-1.2-0.9-1.6c0-0.4,0.5-0.3,0.7-0.7
			c0.7-1.1,2.6-1.3,2.6-3c-0.9-0.5-2.1-0.7-3-0.2c-0.7,0.1-1.3,0.4-1.8,0.9c-1.1,0.4-1.8,1.9-3.1,2c-0.5,0-0.4-0.4-0.7-0.8
			c-0.2,0.4-0.7,1.2-0.5,1.6c0.1,0.5,0.7,0.7,0.9,1.2c0.4,0.3,0.3-0.3,0.7-0.4c0.5,0.1,0.1-0.7,0.7-0.9c0.1-0.9,1.4-1,1.4-2.1
			c0.7-0.4,1.3-1,2.1-1.1c0.2,0,0.2,0.2,0.2,0.3c-0.2,0.7-0.5,1.2-0.9,1.9c-0.3,0.7-1.2,0.7-1.6,1.2
			C206.7,24.2,207.6,23.7,207.7,24.3z"/>
		<path class="st0" d="M223.2,27.9c-0.5,0-0.9-0.4-1.4-0.7c-1-0.1-1.6-0.7-2.6-0.9c-0.5-0.4-1.3-0.5-1.8-1.2c-0.7,0-1.1-0.7-1.8-0.9
			c-0.7,0-1-0.7-1.3-1.1c-0.7-0.7,0.7-0.7,0.9-1.2c0.3-0.5,1.4-0.8,1.2-1.6c-0.2-0.2-0.4-0.7-0.8-0.7c0-0.2-0.4-0.2-0.5-0.4
			c-0.2,0.2,0,0.4,0,0.7c-0.2,1.2-1.2,2.1-2.1,3c-0.5-0.1-1.1,0.3-1.6,0.1h-0.1c0.7,0.2,0.2,1.1,0.7,1.5c-0.3,1.2,0.1,2.3-0.7,3.3
			c-0.2,0.7,0.4,0.8,0.7,1.2c0.3,0.1,0.7-0.1,1-0.2c0.2-1.1,1.1-2.1,1.4-3.2c0.7-0.2,0.8,1,1.6,1.1c0.1-0.1-0.1-0.2,0.2-0.3
			c0,0.1,0.2,0.1,0.2,0.2c0,0.2-0.1,0.2-0.2,0.2l0.2,0.1c-0.2,0.3,0.4,0.3,0.4,0.7c0.7,0.8,1.6,1.2,2.4,1.9c0.2,0,0.2-0.1,0.3-0.2
			l0.2,0.2c1,0.1,2.1-0.2,3.1,0c0.4-0.2,1.5,0.1,1.5-0.7C224.2,28.6,223.6,28.3,223.2,27.9L223.2,27.9z M212.8,27
			c-0.2,0-0.3-0.2-0.4-0.4c0.2-0.5-0.2-1,0.1-1.5c0-0.5,0.2-1.1,0.2-1.6c0.1-0.2,0.3-0.2,0.7-0.2c0.2,0.2,0.3,0.7,0.7,0.8
			c0.1,0.2,0.3,0.4,0.4,0.7C214.3,25.8,213.2,26.3,212.8,27z"/>
		<path class="st0" d="M198.3,26.3c0-0.2,0.2-0.4,0.1-0.7c0.3-0.5,0.5-1.2,0.4-1.9c-0.1,0.2-0.2,0.3-0.4,0.5c-0.2,1-0.8,2-1.2,3
			c-0.1,0.2-0.1,0.7-0.2,0.8c-0.8,1.9-1.3,4.1-2.5,5.8c0.1,0.3-0.4,0.3-0.2,0.8c-0.3,0.3-0.5,1-0.5,1.6c-0.5,0-0.2,0.5-0.7,0.7
			c-0.4,0-1-0.3-1.3-0.3c0.2,0.1,0.2,0.5,0.4,0.8c0.1,0.8,0.9,0.9,1.5,1.2c0.4-0.1,1,0.2,1.5-0.1c0.5,0,0.7-0.7,0.8-1.1
			c0.2-0.7,0.5-1.2,0.4-2c0.1-0.8,0-1.4,0.1-2.1c0.2-0.2,0.2-0.8,0.2-1.1c0.3-0.4,0.1-1.3,0.4-1.9c0.1-0.9,0.4-1.6,0.7-2.4
			C198.1,27.4,197.7,26.7,198.3,26.3z"/>
		<path class="st0" d="M204.4,25.6c-0.8,0.7-2.1,0.5-2.9,0.9c-0.3,0.2-0.8,0.4-1.2,0.7l1,0.1c0.3-0.5,0.5,0.2,0.8,0.2
			c-0.2,0.7-0.5,1.4-0.7,2.2c0.2,0.9-1,1.2-1,2c-0.7,0.7-0.8,1.6-1.6,2.1c-0.2,0.2-0.5-0.2-0.8,0c-0.1,0.4-0.1,0.9,0,1.3
			c0.2,0.2,0.5,0.2,0.7-0.1c0.4-0.2,0.8-0.7,1-1c0.7-0.2,0.7-1.1,1.1-1.6c0.7-0.5,1.1-1.4,1.5-2.1c0.2-0.8,0.8-1.4,0.9-2
			c0-0.4-0.3-0.9-0.4-1.4c0.2-0.2,0.5-0.2,0.9-0.3c0.4-0.2,0.7-0.5,1.1-0.2c0.2,0.1,0.4,0.2,0.3,0.4c0.2,0.9-0.7,1.2-0.4,2l0.2-0.2
			c0.9-0.3,1.2-1.2,1.3-2.1C206,25.7,205.2,25.5,204.4,25.6z"/>
		<path class="st0" d="M194.5,27.7c0.2-0.4,1-0.7,0.7-1.5c-0.2,0-0.3,0.1-0.5-0.2c-0.2,0.1-0.3-0.1-0.5-0.2c-0.1,0-0.2,0.1-0.2,0.2
			c-0.3-0.4-1.1-0.3-1.4,0c-0.7,0.1-1,0.7-1.5,0.9c-0.2,0.1-0.5,0.1-0.5,0.3c0.4,0.2,0.9,0.5,1.4,0.3
			C192.7,27.9,193.8,27.7,194.5,27.7z"/>
		<path class="st0" d="M216.2,40.9c0.1-0.2,0.2,0,0.2,0c0-0.1,0-0.1,0-0.2c-0.2-0.2-0.1-0.7-0.1-1c-0.3-0.2,0.2-0.7-0.2-1
			c0-1.6-0.4-3.1-0.2-4.5c0.2-0.4-0.2-1,0.1-1.4c0.3-1.1-0.2-1.6-0.7-2.4c-0.2-0.2,0-0.5-0.3-0.4c-0.2-0.5-0.8-0.2-1.2-0.7v0.2
			c0.7,0.2,0.3,0.7,0.5,1.2c0,0.7,0,1.3,0.3,1.9l-0.2,0.2c-0.1,0.4,0.1,0.9-0.2,1.4c0.4,1.6,0.1,3.6,0.3,5.5c0,0.9,0.1,2,0,3
			c0.2,0.7-0.2,1.3-0.2,2.1c-0.7,0.8,0.7,1.2,0.8,1.6c0.4,0.2,0.9-0.4,1.2-0.8c0.3-0.4-0.3-1,0.2-1.5c-0.1-0.7,0-1.4,0-2.1
			C216.4,41.4,216.5,41,216.2,40.9z"/>
		<path class="st0" d="M208.9,32.7c0.2,0.5,0.8,0.2,1,0.4c0.4,0,1,0.1,1.3-0.3c0.2-0.5-0.2-0.5-0.4-0.9c-0.8-0.2-1.4,0.1-2.1,0.2
			c-0.4-0.2-1.1-0.1-1.4-0.2c-0.2,0.3,0.2,0.4,0.4,0.8C208.1,32.6,208.4,32.9,208.9,32.7z"/>
		<path class="st0" d="M203.1,33.2l-0.1,0.5c0,0.2,0.2,0.5,0.2,0.8c0.2,0.8-0.3,1.3-0.2,2.1c-0.2,0.2,0.1,0.8-0.2,0.9
			c-0.2,1-0.7,1.8-0.7,2.7c0.1,0.3,0.3,0.2,0.7,0.4c0.7-0.2,0.4-0.4,0.9-0.9c-0.1-0.2,0.5-0.7,0.1-0.8l0.2-0.2l-0.2-0.2
			c0.4-0.2,0.5-0.7,0.7-1.1c-0.3-0.5,0.3-0.9,0-1.3c0.1-0.1,0.2-0.1,0.2-0.1c0.2-0.7-0.2-1.2,0.2-1.9
			C204.1,34.2,203.8,33.5,203.1,33.2z"/>
		<path class="st0" d="M211.5,35c-0.2-0.3-0.5,0.1-0.7-0.2c-0.9,0.4-2.1,0.7-3.1,1c0.5,0.7,1.6,0.3,2.3,0.7l0.2-0.2
			c0.2-0.1,0.2,0.2,0.2,0.2c0.4-0.1,0.8-0.5,1.2-0.3c0.3-0.2,0.8-0.3,0.7-0.9C212.2,34.8,211.8,35.1,211.5,35z"/>
	</g>
	<g>
		<path class="st0" d="M236.8,20.1c0.7,0.3,1.2,0.7,2,0.5c1.8,0.1,3.2-0.3,4.8-0.7c0.7,0.4-0.2,1.1-0.3,1.6c-0.2,0.7-1,1.2-0.9,2.1
			c0.4-0.3,0.7-1,1.3-1.2c0.8-1.6,2.9-1.9,4.5-2.4c1.1-0.3,2.4-0.4,2.9-1.4c0-0.2-0.1-0.5-0.2-0.7c-1.1-0.2-2.2-0.4-3.3-0.4
			c-0.2-0.3,0-1.1-0.1-1.4c0.2-0.5-0.4-0.9-0.4-1.4c-0.5-0.7-1.6-0.7-2.4-0.5l-0.4-0.2c-1.2-0.2-2.5,0.1-3.2,1
			c0.4,0.3,1,0.5,1.5,0.9c0.7-0.3,0.4,0.5,0.9,0.7c0.1,0.7,1.2,1.4,0.4,2c-2.1,0.7-4.6,0.7-6.9,1.2c-0.2,0.2-0.7-0.1-0.9,0.2
			C236.1,20,236.5,20.2,236.8,20.1z"/>
		<path class="st0" d="M265.4,32c-0.2-0.8-0.1-1.9-1.2-2.3c-0.2-0.8-1.2-1.3-2-1.8c-0.3-0.5-0.9-0.9-1.4-1.3
			c-0.2-0.8-1.4-0.8-1.8-1.5c0.2-0.4,0.3-1.1,1.1-1.2c1-1.2,2.1-2.2,3.4-3.1c0.2-0.9,1.5-1.2,1.3-2.1c0-0.9-1.2-0.7-1.1-1.6
			c-0.2,0-0.3,0-0.5-0.1c-0.2-0.2-0.7,0-1-0.1c-1.1,0.2-2.1,0.2-3,0.7c-0.8,0.1-1.8,0.4-2.6,0.2c-0.1-0.2,0-0.3,0-0.5
			c0-0.1-0.1-0.2-0.3-0.2c-0.4,0.5-1.2,0.2-1.9,0l0.2,0.3c0.2,0.4-0.1,0.9-0.2,1.2c-0.5,0.5-1.2-0.1-1.5-0.1c0.8,0.5,1.6,1,1.6,2
			c-0.2,0.5,0.2,1.1-0.1,1.6c-0.1,0.3,0.2,0.5,0.1,0.9c0.1,1.2-0.2,2.6-0.1,3.8c-0.2,1.5,0,3.1-0.1,4.7c-0.4,0.7,0.3,1.2,0,1.9
			c0.2,2-0.2,3.7-0.1,5.7c0.1,0.5-0.7,0.8-0.4,1.2c0.4,0.4,0.3,0.9,0.3,1.3c0.4,1.2,0.2,2.4,0.4,3.8c-0.1,0.2-0.2,0.7-0.1,0.9
			c-0.2,0.4,0.3,0.7,0.1,1.2c0.3,0.2,0.7,0.3,1.1,0.3c-0.2-0.3,0.2-0.7,0.3-1c0.7-0.4,0.1-1.2,0.5-2c0.2-0.3-0.2-0.8,0.1-1
			c0.2-1.3-0.2-2.6-0.1-3.8c0.1-0.2,0-0.3,0.1-0.5c-0.4-0.8,0-1.8,0-2.6c-0.7-1.2,0.2-2.6-0.4-3.8c0-0.2,0.5-0.2,0.3-0.5
			c0.1-0.1,0.2-0.2,0.3-0.2l1.2,1.5c0.7,0.7,1,1.6,1.9,2.2c0,0.7,0.7,0.2,0.9,0.7c0.5-0.4,1.1,0.1,1.4-0.4c0.2-0.4,1.1-0.8,1.3-1.2
			c0.3-0.4,0.7-0.9,1.1-1.4C265.5,33.4,265,32.5,265.4,32L265.4,32z M256.3,19c1.2,0,2.5,0,3.6-0.2c0.4,0,1-0.4,1.2,0.2
			c-0.2,1.6-1.3,2.7-2.1,4.3c-1,0.5-1.3,1.3-2.2,1.8c-0.5-0.2-0.2-0.8-0.3-1.2c-0.3-0.7,0.7-1.2-0.1-1.8
			C256.7,21.1,255.5,19.9,256.3,19L256.3,19z M262,32.4c0,0.7-0.2,0.9-0.8,1.3c-0.4,0.1-0.9-0.2-1.2,0c0.2-0.3-0.3-0.2-0.5-0.4
			c-0.8-0.4-1.6-1.2-2.1-2.1c-0.4-0.2-0.7-0.4-1-0.8c0.2-0.7-0.1-1.1-0.1-1.6c-0.2-0.8,0.7-1.6,0.3-2.6c0.3-0.5,1.3-0.5,2.1-0.5
			l0.5,0.2c1.5,0.7,1.6,2.1,2.4,3.3c-0.1,0.5,0.1,1,0.2,1.4c-0.2,0.2,0.1,0.4,0.2,0.7C261.7,31.5,261.9,32,262,32.4z"/>
		<path class="st0" d="M252.1,26.8c-0.7-0.3-1.5,0.1-2.2-0.1c-0.3-0.3-1,0.1-1.4-0.2c0.2-0.5,0.7-0.7,1.1-1.2
			c0.5-0.2,0.8-1.1,1.1-1.5c-0.2-0.7-0.8-1.4-1.6-1.6c-0.7-0.4-1.5-0.2-2.2,0c0.2,0.2,0.5,0.5,0.7,0.7c-0.2,0.5,0.2,1.1-0.3,1.3
			c0.1,0.1,0.2,0.2,0.2,0.3c-0.4,0.2-0.5,0.7-0.8,1.1c-0.7,0.4-0.7,1.4-1.6,1.5c-0.7,0.2-1.2,0-1.6,0.2c-0.7-0.5,0.2-1.2,0-1.6
			c0.5-0.3,0.1-0.9,0.4-1.3c-0.7-0.1-1.2,0.2-1.6-0.2c-0.3,0.3-0.2,0.7-0.4,1.2c-0.8,0.8,0.8,2.2-0.8,2.6c-1.4,0.1-2.6,0.7-4,0.7
			c-1.4,0-3,0.2-4.2,0.7c-0.4-0.2-1.9,0.1-2.5,0.2c0.2,0.4,0.4,0.7,1,0.7c0.2-0.2,1.2,0.9,1.8,0.5c0.4-0.2,0.9,0,1.5-0.1
			c0.7-0.2,1.8-0.7,2.2-0.4c0.5,0.2,1.1-0.3,1.6-0.3c1-0.7,2.3-0.4,3.3-1.1c0.8,0.1,1.2-0.3,2-0.3c1,0.7,2.2,0.2,3.2-0.2
			c0.7-0.2,1.2-0.1,1.6,0c1.1,0.4,1.6-0.4,2.6-0.2c0.5-0.5,1.2-0.8,1.6-1.3C252.3,26.4,252.3,26.9,252.1,26.8z"/>
		<path class="st0" d="M249.9,31.7l-0.2-0.2c-0.8-0.2-1.2-0.8-2-0.5c-0.9,0.5-2,0.1-2.6,0.7c-0.9-0.1-1.6,0.5-2.6,0.3
			c-0.3,0.2-0.9-0.1-1.2,0.4c-1.1-0.3-2.1-0.2-3.1,0.1c-0.2,0.2-0.7,0.1-0.5,0.4c0.4,0,0.5,0.2,0.9,0.4c1.4,0.1,1.5,1.5,1.8,2.4
			c0,0.8,0.1,0.9,0,1.6l-0.8,0.4l0.8,0.2c0.3,0.2,0.2,0.8,0.3,1.2c0.3,0,0.7,0.2,0.9,0c0.1-0.1,0.1-0.2,0.1-0.3
			c0.7-0.2,1.4-0.4,2.1-0.3c0.7-0.1,1.2-0.2,1.9-0.3c0.9-0.1,1.9-0.2,2.7-0.3c1.2-0.4-0.5-1,0.4-1.6c0.1-0.5,0.2-0.7,0.5-1.1
			c0.5-0.9,1.4-1.6,1.6-2.6C251.1,32.2,250.5,31.7,249.9,31.7L249.9,31.7z M247.4,34.4c0,0.7-0.5,1.3-0.3,1.9
			c0.2,0.3,0.2,0.1,0.1,0.7c-1.4,0.2-3.4,0.7-4.8,0.4c-0.7-0.3,0.1-0.4-0.3-0.8c0.1-1.1-0.4-1.9-0.2-3c1.1-0.2,2-1,3.2-0.5
			c0.7-0.1,2.1-0.5,2.7-0.2C247.4,33.4,248,33.9,247.4,34.4z"/>
	</g>
	<g>
		<path class="st0" d="M163.5,19.6h-0.2l-0.1-0.2l-0.1-0.2l-0.2-0.2l-0.1-0.1l-0.2-0.2l-0.2-0.1l-0.2-0.1l-0.1-0.2l-0.1-0.1v-0.2
			l-0.1-0.1l-0.1-0.1h-0.1l-0.1-0.1l-0.2-0.1v-0.1l-0.2-0.1l-0.2,0.1v0.1l-0.1,0.2v0.2v0.4v0.2l-0.1,0.1v0.2v0.1v0.2l-0.1,0.1v0.2
			l-0.1,0.1l-0.1,0.2v0.1l-0.1,0.1v0.2l-0.1,0.1l-0.1,0.1v0.1l-0.1,0.1l-0.1,0.1l-0.1,0.1V21l0,0v0.1v0.1v0.1v0.1l-0.1,0.1h-0.1v0.1
			h-0.1l-0.1,0.1H159h-0.1l-0.1,0.1h-0.1V22v0.1l-0.1,0.1v-0.7l0,0l-0.1,0.1v0.1l-0.1,0.1l0,0l-0.1,0.1h-0.1v0.1l-0.1,0.1v0.1l0,0
			v0.1v0.1l-0.1,0.1l-0.1,0.1v-0.1l-0.1,0.1l-0.1,0.1l-0.1,0.1l-0.1,0.1h-0.1v0.1l-0.1,0.1l-0.1,0.1l-0.1,0.1h-0.1l-0.1,0.1
			l-0.1,0.1v0.1l-0.1,0.1h-0.1v0.1h-0.1v0.1v0.1h-0.1H156v0.2l-0.1,0.1l-0.1,0.2l-0.1,0.1l-0.1,0.1l-0.2,0.1l-0.1,0.2l-0.1,0.1v0.1
			l-0.1,0.1h-0.1v0.1l-0.1,0.1h-0.1l-0.1,0.1v0.1l-0.2,0.1h1.5l-0.1-0.1h-0.1l-0.1-0.1l-0.1-0.1l-0.1-0.1h-0.1h-0.1H155h-0.1
			l-0.1-0.1h-0.1v-0.1h-0.1l-0.1-0.1v-0.1l-0.1-0.1l-0.1-0.1h-0.1L154,25l0,0h-0.1l-0.1-0.1h-0.2l-0.2-0.1l-0.2-0.1l-0.2-0.1
			l-0.2-0.2l-0.2-0.1l-0.1-0.2l-0.2-0.2l0.1-0.1l0,0v-0.1l0,0v-0.1h0.1v-0.1h0.1v-0.2l0.1-0.1l0.1-0.2l0.1-0.1l0.1-0.1l0.1-0.2
			l0.1-0.1v-0.2h0.1V22h0.1l0.1-0.1l0,0v-0.1h0.1v-0.1h0.1l0.1-0.1h0.1l0.1-0.1v0.1l0.1-0.1l0.1-0.1h0.1l0.1-0.2l0,0l0.1-0.1
			l0.1-0.1l0.1-0.1h0.1l0.1-0.1l0.1-0.2l0.1,0.1v-0.1l0,0l0.1-0.1v-0.1v0.2l0,0l0.1-0.1l0.1-0.1h0.1v-0.1h0.1v-0.2l0.1-0.2l0.1-0.1
			l0.1-0.1l0.2-0.1l0.1-0.1l0.1-0.1l0.1-0.2v-0.1l0,0v-0.1h0.1l0,0v-0.1l0,0v-0.1l0.1-0.1l0.1-0.2l0.1-0.1h0.1l0.7-1.3v-0.1l0.1-0.1
			v-0.2v-0.1V16l0,0l-0.1-0.1v-0.1l-0.1-0.1l-0.1-0.1l-0.1-0.1h-0.1l-0.1-0.1v-0.1l-0.1-0.1v-0.1l-0.1-0.1v-0.1h-0.2h-0.1l0,0
			l-0.1,0.1l0,0l-0.1,0.1l0,0l-0.1,0.1l0,0l-0.1-0.1h-0.1h-0.1H156h-0.1l-0.1-0.1l0,0l-0.1-0.1h-0.1v-0.1v-0.1l-0.1-0.1l0,0
			l-0.1-0.1l0,0h-0.1l0,0h-0.1l-0.1,0.1v-0.1l0,0h-0.1l0,0h-0.1l0,0l-0.1,0.2v0.1v0.1v0.1v0.1v0.1v0.1V16l-0.1,0.2v0.2v0.1l-0.1,0.2
			v0.1l-0.1,0.2l-0.1,0.1l-0.1,0.7l0.1-0.4l-0.5,1.2v0.1v0.1l-0.1,0.1v0.1l0,0v0.2v0.1v0.1h-0.1l-0.1,0.1l0,0l-0.1,0.1h0.4v0.1
			l-0.1,0.1v0.1v0.1l-0.1,0.1v0.1l-0.1,0.1v0.1v0.1l-0.1,0.1V21v-0.5l-0.1,0.1v0.1v0.1v0.1l-0.2,0.1l-0.1,0.2l-0.1,0.1l-0.1,0.2
			l-0.1,0.1l0.1-0.1l-0.1,0.1v0.2V22l-0.1,0.1v0.1l-0.1,0.1l-0.1,0.1l-0.1,0.1l-0.1,0.1v0.1v-0.1l-0.1,0.1v0.1V23v0.1l-0.1,0.1v0.1
			l-0.1,0.1v0.1h-0.1l0,0h-0.1l0,0h0.1l0,0l-0.1-0.1l0,0l-0.1,0.1l0,0l0,0h-0.1l0,0h-0.1l0,0H151l0,0h-0.1v-0.1l-0.1,0.1h-0.1h-0.1
			l-0.1-0.1h-0.1l-0.1-0.1h-0.1h-0.2h-0.1v-0.1l-0.1,0.1h-0.1h-0.1h-0.1h-0.1l0,0h-0.1H149l0,0l-0.1-0.1h0.4l0,0h-0.1v0.1v0.1
			l-0.1,0.2v0.2v0.2v0.2v0.1l0.1,0.2l0.1,0.2v0.1V25l0,0l0.1,0.1l0.1,0.1v0.1h0.1l0.1,0.1l0.1,0.1l0.1,0.1l0.1,0.1l0.1,0.1l0.1,0.1
			h0.1h0.1h0.2v0.1l0,0h0.1l0,0L151,26l0,0h0.1v0.1h0.2h0.1h0.1c0.2-0.1,0.1-0.1,0.2-0.1v0.1h0.2h0.1l0.1,0.1h0.1h0.1l0.1,0.1h0.1
			h0.1h0.1h0.2l0.1,0.1h0.1l0.1,0.1h0.2h0.1h0.1l0.1,0.1l0.1,0.1h0.1h0.2l0.1,0.1h0.1h0.1h0.1l0.1,0.1h0.2h0.1l0.1,0.1h0.1l0.1,0.1
			l0.1,0.1v0.1l0.1,0.1v0.2v0.1V27l-0.1,0.1v0.1l-0.1,0.1v0.1l-0.1,0.1l-0.1,0.1l-0.1,0.1l-0.1,0.1L155,28l-0.1,0.1v0.1l-1.2-0.1
			h-0.1l-0.1,0.1l-0.1,0.1v0.1l-0.1,0.1l-0.1,0.1v0.1H153l-0.1,0.1h-0.1l-0.1,0.1l-0.1,0.1l-0.1,0.1l-0.1,0.1l-0.1,0.1h-0.1
			l-0.1,0.1l-0.1,0.1l-0.1,0.1l-0.1,0.1l-0.1,0.1v0.1l-0.1,0.1l-0.1,0.1l-0.1,0.1v0.1h-0.1l-0.1,0.1l-0.1,0.1h-0.1l-0.1,0.1
			l-0.1,0.1h-0.2h-0.1l-0.1,0.2l-0.1,0.1l-0.1,0.1l-0.1,0.1l-0.1,0.1l-0.2,0.1l-0.1-0.1l-0.1,0.1l0,0l-0.1,0.1l-0.1,0.1l-0.1,0.1
			v-0.7h-0.1h-0.1l0,0h-0.1l0,0h-0.1l0,0h-0.1l0,0l-0.2,0.1h-0.1l-0.1-0.1h-0.2l-0.1-0.1l-0.1-0.1l-0.1-0.1h-0.1h-0.1l-0.1,0.1
			l-0.1,0.2v0.1v0.1l-0.1,0.2V32v0.2h0.1v0.1v0.1v0.1l0.1,0.1v0.1v-0.2l0.1,0.1l0,0v0.1v0.1l0,0v0.1v0.1l0.1,0.1v0.1v0.1l0.1,0.1
			v0.1h0.1l0,0l0.1,0.1v0.1l0.1,0.1l0.1,0.1l0.1,0.1l0.1,0.1l0.1,0.1l0,0h0.1h0.1h0.1l0,0h0.1h0.1h0.1h0.1h0.1h0.1l0.1-0.1h0.1h0.1
			l0.2-0.1h0.1h0.1l0.1-0.1h0.1l0.1-0.1h0.2l0.1-0.1h0.1l0.1-0.1v-0.1h0.1l0.1-0.1l0,0h0.1h0.1h0.1l0.1-0.1l0.1-0.1h0.1l0.1-0.1
			l0.1-0.1l0.1-0.1l0.1-0.1l0.1-0.1l0.1-0.1h0.1l0.2-0.1h0.1l0.1-0.1l0.1-0.1h0.1l0.1-0.1h0.1h0.2l0.2-0.1h0.1l0.2-0.1h0.1l0.2-0.1
			l0.1-0.1l0.2-0.1l0,0h0.1h0.1l0,0h0.2h0.2l0.2-0.1l0.2-0.1l0.1-0.2l0.2-0.1l-0.3,0.3l0.2-0.1h0.1l0.1-0.1h0.1l0.1-0.1l0.1-0.1
			l0.1-0.1l0.1-0.1l0.1-0.1l0.7-0.1l0,0l0.1-0.1l0.1-0.1l0,0l0.1-0.1l0.1-0.1l0,0l0.1-0.1l0.1-0.1l0.1-0.1h0.1l0.1-0.1h0.2l0.1-0.1
			l0.1-0.1v-0.2h0.1l0,0l0,0h0.1l0,0h0.1l0,0l0.1-0.1l0.1,0.1l0,0v0.1h0.1v0.1v0.1l0,0l0.1,0.1v0.1v0.1l0.1,0.2v0.1l0.1,0.1l0.1,0.1
			l0.1,0.1v0.1v0.1v0.1l0.1,0.1v0.1l0.1,0.1v0.1l0,0v0.1l0.1,0.1l0.1,0.1l0.1,0.1l0.1,0.1v0.2l0.1,0.1l0.1,0.1l0.1,0.1v0.1l0.1,0.1
			l0,0h0.1l0.1,0.1h0.1v-0.2h0.1l0.2,0.1h0.2l-0.9-0.1l0.1-0.1l0.1-0.2l0.2-0.1l0.1-0.2l0.2-0.1v-0.1v-0.1v-0.1v-0.1v-0.1v0.2v-0.1
			l0,0v-0.1v-0.1V31l-0.1-0.1v-0.1l-0.1-0.1v-0.1l0.1-0.1v-0.2l0.1-0.1V30l-0.1-0.2v-0.1l-0.1-0.1v-0.1l-0.1-0.2l0.1-0.1V29v-0.1
			v0.3l-0.1-0.1V29l-0.1-0.1v-0.1l-0.1-0.1v-0.1h-0.1h-0.1l-0.1-0.1h-0.1h-0.1l-0.1-0.1l0,0l-0.1-0.1l0,0v-0.1h-0.1V28l0,0l-0.1-0.1
			h-0.1h-0.1l-0.2-0.1v-0.1l-0.1-0.1l-0.1-0.1l-0.1-0.1l-0.1-0.1h-0.1h-0.1l-0.1-0.1l0,0h-0.1h-0.1l0,0l-0.1-0.1H159h-0.1l-0.1-0.1
			h0.4l-0.2-0.1l-0.1-0.1h-0.1h-0.1h-0.1l0,0h-0.1v0.1h-0.1l0,0v0.1l0,0V27v0.1l0.1,0.1v0.1v0.1l0.1,0.1v0.1h0.1v0.2V28l0.1,0.2v0.2
			v0.1v0.1v0.1l-0.1,0.2v0.1l0,0v0.1h-0.1v0.1h-0.1v0.1l0,0l-0.2,0.1h-0.1H158h0.1l-0.1-0.1l-0.1,0.1h-0.1h-0.1l-0.1,0.1h-0.1h-0.1
			h-0.1h-0.1H157l-0.1,0.1l-0.1,0.1h-0.1l0,0V30h-0.1l0,0h-0.1l0,0l-0.1-0.1V30h-0.1h-0.1H156l-0.1-0.1l0,0l-0.1-0.1h-0.1l-0.2,0.1
			l-0.2,0.1l-0.1,0.1l-0.2,0.1l-0.2,0.1h-0.2l-0.1,0.1l-0.2,0.1l0,0l-0.1,0.1h-0.1v0.1h-0.1v0.1l-0.1,0.1h-0.1l0,0l0,0h-0.1l0,0
			h-0.1l0,0l0,0h-0.1l0,0h-0.1l0,0v0.1L153,31h-0.1h-0.1v0.1h0.9l-0.1,0.1l0,0h-0.1h-0.1l0,0h-0.1h-0.1l0,0H153v-0.1l0,0h-0.1V31
			l0,0l-0.1-0.1h0.1v-0.1l0,0v-0.1v-0.3h0.1v-0.1h0.1V30l0.1-0.2l0.2-0.2l0.1-0.2l0.2-0.1L154,29l0.1-0.2l0.2-0.1l0,0l0.1-0.1l0,0
			l0.1-0.1l0,0h0.1v-0.1h0.1h0.1h0.2h0.1l0.2-0.1l0.1-0.1l0.1-0.1l0.1-0.1l0.1-0.1l0.1-0.1l0.1-0.1l0.1-0.1l0.1-0.1h0.1l0.1-0.1
			l0.1-0.1h0.2V27h0.1l0,0l0.1-0.1l0,0v-0.1h0.1v-0.1h0.1h0.1l0.1-0.1l0,0l0.1-0.1v-0.1L157,27l0.1-0.1h0.2l0.1-0.1l0.2-0.2l0.1-0.1
			l0.2-0.1l0.1-0.1l0.2-0.2l0.1-0.1l0,0l0.1-0.1v-0.1l0.1-0.1l0.1-0.1l0.1-0.1l0.1-0.1v-0.1l0.2-0.2l0.2-0.1l0.2-0.2l0.1-0.1
			l0.2-0.2l0.1-0.2l0.2-0.2l0.2-0.1l0.1-0.2l0.1-0.1l0.1-0.2l0.2-0.1l0.1-0.1l0.2-0.1l0.1-0.2l0.2-0.1v-0.1l0,0v-0.1l-0.1-0.1l0,0
			v-0.1l0.1-0.1l0,0l0.1-0.1h0.1l0,0h0.1h0.1l0,0h0.1v-0.1l0.1-0.1l0.2-0.1l0.1-0.2l0.1-0.2l0.1-0.1l0.2-0.2l0.1-0.1l0.2-0.1v1
			l0.1-0.1v-0.1h0.1l0.7-0.4l0.1-0.2l0.1-0.2l0.1-0.1l0.1-0.2l0.1-0.2l0.1-0.2v-0.2L163.5,19.6z"/>
		<polygon class="st0" points="167.3,19.9 167.4,19.9 167.5,19.9 167.6,19.9 167.8,20 167.8,20.1 167.8,20.1 167.9,20.1 168,20.2 
			168.1,20.1 168.2,20.1 168.2,20.1 168.3,20.1 168.3,20.1 168.4,20.1 168.4,20.1 168.5,20.2 168.6,20.2 168.6,20.1 168.7,20.1 
			168.7,20.1 168.9,20.1 168.9,20.1 169,20.1 169.1,20.1 169.2,20.1 169.2,20.1 169.3,20.1 169.5,20.1 169.6,20.1 169.6,20 
			169.7,20 169.8,19.9 170,19.9 170.1,19.8 170.2,19.7 170.3,19.7 170.4,19.7 170.5,19.7 170.6,19.7 170.6,19.7 170.7,19.7 
			170.8,19.7 170.9,19.7 170.9,19.7 171.1,19.7 171.1,19.7 171.2,19.6 171.2,19.6 171.4,19.4 171.6,19.3 171.7,19.2 171.8,19.2 
			172,19.1 172.2,19 172.4,19 172.5,19 172.7,18.9 172.8,18.8 173,18.7 173.1,18.7 173.4,18.6 173.5,18.6 173.6,18.5 173.8,18.3 
			173.9,18.3 174.1,18.2 174.3,18.2 174.5,18.2 174.7,18.1 174.8,18.1 174.9,18 175.1,18 175.2,17.9 175.3,17.8 175.3,17.8 
			175.4,17.8 175.6,17.8 175.7,17.9 175.8,17.9 175.9,17.9 175.9,17.8 175.9,17.7 176,17.6 176,17.5 176.1,17.4 176.2,17.4 
			176.2,17.2 176.3,17.2 176.3,17.2 176.3,17.2 176.3,17.2 176.3,17.4 176.4,17.4 176.4,17.4 176.5,17.4 176.5,17.4 176.7,17.4 
			176.7,17.4 176.8,17.4 176.8,17.2 176.8,17.1 176.8,17.1 176.8,17 176.7,17 176.5,16.9 176.5,16.8 176.5,16.8 176.4,16.8 
			176.4,16.7 176.3,16.6 176.3,16.5 176.3,16.4 176.3,16.4 176.3,16.4 176.3,16.4 176.2,16.4 176.2,16.4 176.1,16.4 176,16.4 
			176,16.3 175.9,16.3 175.9,16.3 175.8,16.2 175.7,16 175.4,16 175.3,16 175.1,16 174.9,16 174.9,16 174.7,15.9 174.5,15.9 
			174.3,15.9 174.1,15.9 174,15.9 173.9,15.9 173.8,16 173.8,16.2 173.7,16.3 173.6,16.4 173.6,16.5 173.6,16.7 173.5,16.7 
			173.5,16.7 173.5,16.7 173.4,16.7 173.2,16.7 173.1,16.7 173,16.7 173,16.7 172.9,16.8 172.7,16.8 172.5,16.9 172.5,17.1 
			172.3,17.2 172,17.4 172,17.4 171.8,17.6 171.7,17.6 171.6,17.6 171.5,17.6 171.4,17.7 171.3,17.8 171.2,17.8 171.1,18 
			170.9,18.1 170.9,18.1 170.8,18.1 170.7,18.1 170.7,18.1 170.6,18.1 170.6,18 170.5,18 170.5,18 170.4,18 170.3,18 170.3,18.1 
			170.2,18.2 170.2,18.2 170.2,18.2 170.2,18.3 170.2,18.5 170.2,18.5 170.2,18.6 170.1,18.7 170.1,18.7 170,18.7 170,18.7 
			169.8,18.7 169.7,18.6 169.6,18.6 169.6,18.6 169.4,18.6 169.3,18.6 169.2,18.5 169.1,18.5 169,18.5 168.7,18.5 168.7,18.7 
			168.5,18.7 168.3,18.8 168.1,18.7 167.9,18.7 167.8,18.8 167.5,18.8 167.3,19 167.3,19.1 167.3,19.2 167.3,19.3 167.3,19.4 
			167.3,19.6 167.2,19.7 167.3,19.7 		"/>
		<polygon class="st0" points="176.7,20.9 176.7,20.9 176.5,20.9 176.5,20.8 176.4,20.8 176.4,20.7 176.3,20.7 176.3,20.7 
			176.3,20.7 176.3,20.5 176.3,20.4 176.3,20.4 176.2,20.4 176.2,20.4 176.1,20.4 176,20.4 176,20.3 175.9,20.4 175.9,20.4 
			175.8,20.5 175.7,20.5 175.7,20.5 175.6,20.7 175.6,20.7 175.6,20.8 175.7,20.9 175.7,21 175.8,21 175.9,21.1 175.9,21.1 
			175.9,21.1 176,21.1 176.1,21.2 176.2,21.4 176.3,21.5 176.3,21.6 176.3,21.8 176.4,22 176.5,22.1 176.7,22.2 176.8,22.4 
			176.8,22.4 176.8,22.5 176.8,22.5 176.9,22.5 176.9,22.6 177,22.6 177,22.7 177.1,22.7 177.1,22.8 177.1,22.8 177.1,23 177.2,23 
			177.2,23.2 177.2,23.4 177.2,23.5 177.2,23.6 177.2,23.8 177.2,23.9 177.1,24.1 177,24.3 177,24.4 177,24.5 176.9,24.6 
			176.9,24.7 176.9,24.9 176.9,24.9 176.9,25 176.9,25.3 176.8,25.4 176.8,25.5 176.8,25.7 176.8,25.8 176.8,25.9 176.8,26.1 
			176.8,26.3 176.8,26.4 176.8,26.4 176.9,26.5 176.9,26.5 177,26.6 177,26.6 177,26.7 177,26.8 177,26.8 177.1,26.9 177.2,27.1 
			177.2,27.2 177.3,27.2 177.4,27.5 177.5,27.6 177.6,27.7 177.6,27.9 177.7,28 177.9,28.2 178.1,28.2 178.2,28.3 178.4,28.6 
			178.6,28.6 178.7,28.7 179,28.7 179.1,28.7 179.2,28.7 179.3,28.7 179.4,28.7 179.6,28.7 179.6,28.7 179.7,28.7 179.9,28.7 
			180.1,28.7 180.1,28.7 180.1,28.7 180.2,28.7 180.2,28.6 180.3,28.4 180.4,28.4 180.4,28.3 180.4,28.2 180.4,27.9 180.4,27.7 
			180.3,27.6 180.3,27.4 180.2,27.2 180.1,27 179.9,26.8 179.8,26.8 179.8,26.8 179.7,26.8 179.7,26.8 179.7,26.8 179.6,26.8 
			179.6,26.8 179.6,26.8 179.5,26.7 179.4,26.7 179.3,26.7 179.2,26.7 179.1,26.8 179,26.7 178.8,26.7 178.7,26.5 178.7,26.5 
			178.6,26.4 178.6,26.4 178.5,26.3 178.4,26.3 178.3,26.3 178.2,26.3 178.2,26.3 178.2,26.3 178.1,26.3 178,26.1 178,26.1 178,26 
			177.9,25.9 177.9,25.8 177.9,25.8 177.7,25.7 177.7,25.6 177.7,25.4 177.7,25.3 177.7,25.2 177.7,24.9 177.7,24.9 177.7,24.7 
			177.7,24.5 177.9,24.3 178.1,24.1 178.2,23.9 178.3,23.7 178.5,23.5 178.6,23.4 178.7,23.2 178.8,23.1 179,23.1 179.1,23 
			179.2,23 179.3,23 179.4,23 179.5,22.8 179.6,22.7 179.6,22.6 179.6,22.6 179.6,22.5 179.6,22.5 179.8,22.5 179.8,22.5 
			179.8,22.4 179.8,22.3 179.8,22.2 179.8,22.1 179.8,22.1 179.9,22 179.7,21.8 179.6,21.5 179.5,21.4 179.3,21.2 179.2,21.1 
			179.1,20.9 178.8,20.7 178.6,20.7 178.5,20.5 178.3,20.5 178.2,20.7 178.1,20.7 177.9,20.7 177.7,20.8 177.6,20.9 177.4,21 
			177.3,21 177.3,21 177.2,21 177.2,20.9 177.2,20.9 177.2,20.8 177.1,20.8 177,20.7 176.9,20.7 176.9,20.7 176.8,20.7 176.8,20.8 
			176.8,20.8 176.8,20.9 176.8,20.9 		"/>
		<polygon class="st0" points="172.7,30.3 172.9,30.3 173,30.3 173,30.4 173.1,30.5 173.1,30.6 173.2,30.8 173.4,31 173.5,31.1 
			173.5,31.1 173.5,31.1 173.5,31.1 173.6,31.1 173.7,31.1 173.7,31.1 173.8,31 173.8,31 173.9,31.1 174,31.1 174.1,31.2 
			174.2,31.2 174.5,31.2 174.5,31.2 174.6,31.2 174.8,31.2 174.9,31.1 175,31 175.1,30.8 175.2,30.5 175.3,30.4 175.3,30.2 
			175.3,30.1 175.3,29.8 175.2,29.7 175.1,29.5 175.1,29.3 175,29.1 174.9,28.9 174.9,28.7 174.7,28.7 174.5,28.7 174.5,28.7 
			174.3,28.6 174.2,28.4 174.1,28.3 174,28.2 173.9,28.2 173.9,28.1 173.8,27.9 173.7,27.9 173.7,27.8 173.6,27.7 173.6,27.7 
			173.6,27.6 173.6,27.5 173.5,27.4 173.5,27.2 173.6,27 173.6,26.8 173.6,26.7 173.7,26.4 173.7,26.3 173.8,25.9 173.9,25.8 
			174,25.7 174.1,25.5 174.1,25.4 174.2,25.3 174.2,25 174.3,24.9 174.5,24.9 174.5,24.7 174.5,24.6 174.6,24.4 174.7,24.4 
			174.7,24.2 174.7,23.9 174.7,23.9 174.7,23.7 174.7,23.5 174.8,23.4 174.8,23.3 174.7,23.3 174.7,23.2 174.7,23.1 174.7,23 
			174.6,23 174.6,22.8 174.5,22.7 174.5,22.6 174.3,22.6 174.2,22.6 174.1,22.5 174,22.5 173.9,22.5 173.9,22.4 173.8,22.3 
			173.7,22.3 173.5,22.2 173.5,22.2 173.2,22.3 173.1,22.3 173,22.3 172.9,22.2 172.7,22.1 172.7,22.1 172.6,22.1 172.5,22.1 
			172.5,22.1 172.4,22.1 172.4,22.1 172.3,22.2 172.2,22.2 172.2,22.3 172,22.3 172,22.2 172,22.2 172,22.2 172,22.1 171.9,22.1 
			171.8,22.1 171.8,22.1 171.7,22.2 171.6,22.2 171.6,22.3 171.6,22.4 171.6,22.5 171.6,22.5 171.6,22.5 171.6,22.6 171.6,22.7 
			171.6,22.8 171.6,23 171.6,23 171.6,23.1 171.7,23.2 171.7,23.4 171.8,23.5 171.8,23.5 171.9,23.6 171.9,23.8 172,23.9 172,23.9 
			172,24.2 172,24.3 172,24.4 172,24.5 172,24.6 172.2,24.7 172,24.8 172,24.9 172,24.9 172.2,24.9 172.2,25 172.2,25.2 172.3,25.3 
			172.3,25.3 172.3,25.4 172.3,25.5 172.3,25.6 172.3,25.7 172.3,25.8 172.2,25.9 172.2,26 172,26.1 172.2,26.1 172.2,26.3 
			172,26.3 172,26.5 172,26.6 172,26.7 172,26.8 172,26.8 172,27 171.9,27.1 171.9,27.2 171.9,27.2 171.9,27.5 171.9,27.6 
			171.9,27.7 171.9,27.7 171.9,27.8 171.8,27.9 171.8,28 171.7,28.1 171.7,28.2 171.7,28.2 171.7,28.3 171.7,28.6 171.7,28.7 
			171.8,28.6 171.9,28.6 171.9,28.6 172,28.6 172,28.7 172,28.7 172,28.7 172.2,28.8 172.2,28.8 172.2,28.9 172.2,29 172,29.1 
			172.3,29.2 172.4,29.3 172.4,29.5 172.5,29.7 172.5,29.9 172.6,30 172.6,30.1 		"/>
		<polygon class="st0" points="166.3,28.2 166.2,28.3 166.3,28.4 166.3,28.7 166.3,28.7 166.3,28.8 166.3,28.9 166.3,29.1 
			166.3,29.1 166.3,29.2 166.3,29.4 166.3,29.5 166.4,29.7 166.4,29.8 166.6,29.9 166.6,30.1 166.6,30.1 166.7,30.2 166.7,30.4 
			166.9,30.5 167,30.8 167.1,31 167.3,31.1 167.3,31.3 167.5,31.5 167.8,31.5 167.8,31.7 167.9,31.9 168,31.9 168,31.9 168.1,31.9 
			168.2,31.9 168.3,31.9 168.3,31.9 168.4,31.9 168.5,31.9 168.5,31.9 168.6,32 168.6,32 168.6,32 168.7,32 168.7,32 168.7,32 
			168.9,32 168.9,32 169,32 169.1,32 169.2,31.9 169.2,31.6 169.2,31.5 169.2,31.3 169.2,31.2 169.1,31.1 169.1,30.9 169.1,30.6 
			169.1,30.5 169,30.5 168.9,30.4 168.9,30.3 168.7,30.3 168.7,30.2 168.7,30.2 168.6,30.1 168.5,30.1 168.4,30.1 168.3,30 
			168.3,29.9 168.2,29.8 168.1,29.7 168,29.5 167.9,29.4 167.8,29.3 167.8,29.2 167.8,29.1 167.6,29 167.6,28.8 167.6,28.7 
			167.5,28.7 167.4,28.7 167.4,28.6 167.3,28.3 167.3,28.2 167.3,28.2 167.3,28.1 167.2,28.1 167.3,28 167.3,27.9 167.3,27.8 
			167.3,27.7 167.3,27.7 167.4,27.6 167.4,27.5 167.5,27.4 167.6,27.2 167.6,27.2 167.8,27.1 167.8,27.1 167.9,27 168,27 
			168.1,26.9 168.1,26.8 168.2,26.8 168.3,26.7 168.3,26.7 168.4,26.5 168.5,26.4 168.6,26.3 168.7,26.3 168.9,26.1 169,26 
			169.1,25.9 169.2,25.8 169.3,25.6 169.2,25.4 169.2,25.3 169.1,25 169,24.8 168.9,24.6 168.9,24.4 168.7,24.3 168.7,24.2 
			168.7,24.1 168.6,23.9 168.6,23.9 168.5,23.9 168.4,23.8 168.3,23.8 168.1,23.8 167.9,23.7 167.8,23.6 167.5,23.5 167.3,23.3 
			167.3,23.2 167,23.2 166.9,23.3 166.9,23.4 166.8,23.5 166.7,23.5 166.6,23.5 166.4,23.5 166.3,23.5 166.3,23.5 166.3,23.6 
			166.3,23.7 166.3,23.7 166.3,23.8 166.2,23.9 166.2,23.9 166.2,23.9 166.2,23.9 166.3,24.1 166.3,24.2 166.3,24.3 166.3,24.3 
			166.4,24.4 166.6,24.4 166.7,24.5 166.7,24.5 166.7,24.7 166.7,24.8 166.8,24.9 166.8,25 166.8,25.2 166.8,25.3 166.8,25.4 
			166.8,25.5 166.8,25.6 166.8,25.8 166.8,25.8 166.8,25.9 166.8,26.1 166.8,26.3 166.8,26.4 166.8,26.5 166.8,26.6 166.7,26.8 
			166.7,26.8 166.7,26.9 166.6,27.1 166.6,27.2 166.6,27.2 166.6,27.4 166.4,27.5 166.4,27.6 166.3,27.7 166.3,27.7 166.3,27.8 
			166.3,27.9 166.3,28.1 		"/>
		<polygon class="st0" points="182.5,40.3 182.5,40.4 182.4,40.3 182.3,40.2 182.1,40.2 182,40.1 182,40.1 181.9,40.1 181.8,40.1 
			181.6,40.1 181.6,40.1 181.5,40.1 181.5,40.1 181.5,40.2 181.4,40.3 181.4,40.3 181.3,40.3 181.2,40.3 181.2,40.2 181,40.1 
			181,40.1 180.9,40.1 180.8,40.1 180.7,40.1 180.6,40 180.6,40 180.5,40 180.4,40.1 180.4,40.1 180.3,40.1 180.2,40.1 180.1,40 
			180.1,40.1 180.1,40.1 180.1,40.1 180.1,40.1 179.9,40.1 179.8,40.1 179.8,40.1 179.7,40.1 179.7,40.1 179.6,40.1 179.6,40.1 
			179.6,40.1 179.5,40.1 179.4,40.1 179.3,40.1 179.2,40.1 179.2,40.1 179.2,40.1 179,40.1 178.8,40.1 178.7,40.1 178.6,40.1 
			178.5,40.1 178.4,40.1 178.3,40.1 178.2,40.1 178.2,40.1 178.1,40.1 178,40.1 177.9,40.1 177.7,40.1 177.7,40.2 177.7,40.2 
			177.6,40.3 177.5,40.3 177.3,40.3 177.3,40.3 177.2,40.4 177.2,40.5 177.1,40.5 177,40.5 177,40.5 176.9,40.6 176.8,40.6 
			176.8,40.5 176.7,40.5 176.7,40.5 176.5,40.5 176.4,40.5 176.3,40.5 176.3,40.5 176.3,40.5 176.2,40.5 176.1,40.5 176,40.5 
			175.9,40.5 175.9,40.5 175.8,40.5 175.7,40.6 175.4,40.6 175.3,40.6 175.3,40.6 175.2,40.6 175,40.5 174.9,40.5 174.8,40.5 
			174.7,40.6 174.6,40.6 174.5,40.6 174.5,40.6 174.3,40.6 174.2,40.6 174.1,40.7 174,40.9 173.9,40.7 173.9,40.7 173.9,40.7 
			173.9,40.7 173.8,40.7 173.8,40.7 173.7,40.7 173.6,40.7 173.5,40.7 173.5,40.7 173.4,40.6 173.2,40.6 173.1,40.5 173.1,40.5 
			173,40.4 173,40.3 173,40.2 173,40.1 173,40.1 173,40 173,40 173.1,39.9 173.1,39.8 173.1,39.8 173.2,39.6 173.4,39.5 173.4,39.4 
			173.4,39.2 173.4,39.1 173.4,39 173.4,38.9 173.5,38.7 173.5,38.7 173.5,38.5 173.5,38.4 173.5,38.3 173.5,38.2 173.6,38.2 
			173.6,38.1 173.6,38.1 173.7,38 173.8,38 173.8,37.9 173.8,37.8 173.7,37.7 173.7,37.7 173.8,37.7 173.8,37.6 173.8,37.5 
			173.9,37.3 173.9,37.2 173.9,37.2 173.9,37.1 173.9,37 173.9,36.9 174,36.8 173.9,36.7 173.9,36.7 173.9,36.7 173.9,36.6 
			173.9,36.6 173.9,36.5 173.9,36.5 174,36.4 173.9,36.2 173.9,36.2 173.9,36.2 173.8,36.1 173.8,36.1 173.7,36 173.6,36 
			173.5,35.9 173.5,35.8 173.5,35.8 173.4,35.7 173.2,35.6 173.1,35.5 173,35.4 173,35.3 172.9,35.3 173,35 173.1,35 173.2,34.9 
			173.5,34.8 173.6,34.8 173.7,34.8 173.9,34.8 174,34.8 174,34.8 174.1,34.8 174.2,34.8 174.3,34.7 174.5,34.7 174.5,34.7 
			174.6,34.7 174.7,34.7 174.7,34.7 174.8,34.7 174.9,34.7 174.9,34.6 174.9,34.6 175,34.6 175,34.6 175.1,34.6 175.2,34.6 
			175.3,34.6 175.3,34.5 175.4,34.5 175.6,34.4 175.7,34.4 175.8,34.4 175.9,34.4 175.9,34.4 175.9,34.3 175.9,34.2 175.9,34 
			175.9,33.9 176,33.9 176,33.8 176.2,33.8 176.2,33.8 176.3,33.9 176.3,34 176.3,34 176.5,34 176.8,34 176.9,34 177,34 177.2,34 
			177.3,34 177.5,34 177.6,33.9 177.9,34.2 178,34.2 178.2,34 178.3,34 178.5,33.9 178.6,33.8 178.7,33.8 179,33.7 179.1,33.2 
			179,33.1 179,32.9 178.7,32.9 178.6,32.8 178.6,32.8 178.5,32.7 178.4,32.6 178.3,32.5 178.2,32.5 178.2,32.4 178.1,32.4 
			178,32.4 177.9,32.4 177.7,32.4 177.7,32.4 177.6,32.3 177.4,32.4 177.3,32.4 177.2,32.4 177.2,32.4 177.1,32.4 177,32.4 
			176.9,32.4 176.8,32.5 176.7,32.5 176.4,32.6 176.3,32.6 176.3,32.7 176.2,32.9 176.1,32.9 176,33.1 175.9,33.2 175.9,33.3 
			175.9,33.3 175.9,33.2 175.8,33.2 175.8,33.2 175.7,33.1 175.7,33.2 175.6,33.2 175.6,33.2 175.4,33.2 175.3,33.2 175.3,33.2 
			175.2,33.2 175.2,33.2 175.1,33.2 175,33.2 174.9,33.2 174.7,33.2 174.5,33.2 174.3,33.2 174.1,33.2 173.9,33.3 173.9,33.4 
			173.7,33.4 173.6,33.4 173.6,33.4 173.5,33.4 173.5,33.4 173.5,33.4 173.5,33.4 173.4,33.4 173.4,33.4 173.2,33.4 173.1,33.4 
			173,33.4 173,33.4 173,33.4 172.9,33.4 172.8,33.5 172.8,33.5 172.7,33.5 172.6,33.5 172.5,33.5 172.5,33.5 172.4,33.5 
			172.4,33.6 172.3,33.6 172.2,33.5 172,33.7 172,33.8 171.8,33.8 171.7,33.8 171.6,33.8 171.6,33.8 171.4,33.8 171.3,33.9 
			171.2,33.9 171.1,33.9 171.1,34 170.9,34 170.7,34.2 170.7,34.3 170.6,34.4 170.5,34.4 170.4,34.4 170.4,34.4 170.3,34.4 
			170.3,34.3 170.2,34.4 170.1,34.4 170,34.3 169.8,34.3 169.7,34.2 169.6,34.2 169.6,34 169.5,34 169.4,34.2 169.4,34.2 
			169.3,34.3 169.3,34.4 169.2,34.3 169.2,34.4 169,34.4 168.9,34.4 168.7,34.4 168.6,34.4 168.4,34.4 168.3,34.4 168.3,34.4 
			168.2,34.4 168.1,34.4 168.1,34.4 168,34.4 167.9,34.4 167.8,34.4 167.8,34.4 167.8,34.5 167.5,34.5 167.3,34.5 167.2,34.6 
			167,34.6 166.9,34.6 166.7,34.7 166.4,34.7 166.3,34.8 166.2,34.8 166.1,34.8 166.1,34.9 166.1,35 166.1,35.1 166,35.3 166,35.3 
			166,35.4 166,35.5 166.1,35.6 166.2,35.7 166.3,35.8 166.3,35.8 166.3,35.9 166.4,36 166.6,36.1 166.7,36.1 166.8,36.2 
			166.9,36.2 166.9,36.5 166.9,36.6 167,36.7 167.1,36.7 167.3,36.7 167.3,36.7 167.4,36.7 167.5,36.7 167.6,36.7 167.8,36.7 
			167.8,36.7 167.9,36.6 167.9,36.5 168,36.5 168,36.5 168.1,36.5 168.1,36.5 168.2,36.5 168.3,36.5 168.3,36.6 168.3,36.6 
			168.3,36.6 168.4,36.6 168.5,36.5 168.5,36.5 168.6,36.5 168.7,36.5 168.7,36.4 168.7,36.4 169,36.4 169.1,36.2 169.2,36.2 
			169.3,36.2 169.5,36.2 169.6,36.1 169.7,36 169.8,35.9 170,35.9 170.2,35.9 170.2,35.9 170.3,35.8 170.4,35.8 170.6,35.8 
			170.6,35.7 170.7,35.7 170.8,35.7 170.9,35.8 170.9,35.8 171.1,35.8 171.1,35.9 171.1,35.9 171.1,36 171.1,36.1 171.1,36.2 
			171.1,36.4 171.1,36.5 171.1,36.7 171.1,36.8 171.1,36.9 171.1,37.1 170.9,37.2 170.9,37.2 170.9,37.2 170.9,37.3 170.9,37.3 
			170.9,37.5 170.9,37.6 170.9,37.6 170.9,37.6 170.9,37.7 171.1,37.7 171.1,37.7 170.9,37.8 170.9,37.9 170.9,38 170.9,38 
			170.9,38.1 170.9,38.1 170.9,38.2 170.9,38.2 170.8,38.3 170.8,38.4 170.7,38.5 170.7,38.5 170.7,38.7 170.7,38.7 170.7,38.9 
			170.7,39 170.6,39.1 170.6,39.1 170.5,39.2 170.5,39.3 170.4,39.5 170.4,39.8 170.3,40.1 170.2,40.2 170,40.3 169.7,40.5 
			169.6,40.6 169.4,40.9 169.3,41 169.2,41.1 169.2,41.2 169.2,41.3 169.1,41.3 169,41.4 169,41.4 168.9,41.4 168.7,41.4 
			168.6,41.4 168.5,41.4 168.4,41.4 168.3,41.3 168.3,41.3 168.2,41.2 168.1,41.2 167.9,41.3 167.8,41.4 167.8,41.4 167.6,41.4 
			167.4,41.5 167.3,41.5 167.2,41.4 167.1,41.4 166.9,41.4 166.9,41.6 166.8,41.6 166.6,41.6 166.4,41.6 166.3,41.6 166.2,41.5 
			166,41.5 165.9,41.6 165.9,41.6 165.8,41.6 165.7,41.6 165.7,41.6 165.6,41.6 165.5,41.6 165.5,41.6 165.5,41.6 165.3,41.5 
			165.2,41.5 165.2,41.5 165.1,41.5 165,41.5 164.9,41.5 164.9,41.5 164.9,41.4 164.8,41.4 164.7,41.4 164.6,41.4 164.5,41.5 
			164.5,41.6 164.4,41.7 164.2,41.8 164.1,41.8 164,41.8 164,41.8 163.9,41.8 163.9,41.8 163.8,41.8 163.7,41.7 163.6,41.7 
			163.5,41.7 163.5,41.7 163.5,41.8 163.4,42 163.4,42 163.5,42.1 163.5,42.2 163.6,42.3 163.7,42.3 163.8,42.4 163.9,42.4 
			164,42.5 164,42.6 164,42.7 164,42.8 164.1,42.8 164.1,42.9 164.1,43.1 164.2,43.2 164.4,43.2 164.5,43.2 164.6,43.3 164.7,43.4 
			164.9,43.4 165,43.4 165.2,43.4 165.3,43.4 165.5,43.4 165.7,43.4 165.9,43.3 165.9,43.3 166.1,43.3 166.2,43.4 166.3,43.4 
			166.4,43.4 166.6,43.4 166.7,43.2 166.9,43.2 167,43.1 167.2,43.1 167.3,43.1 167.6,43.1 167.8,43.1 167.9,43.2 168.1,43.3 
			168.2,43.3 168.3,43.2 168.3,43.2 168.4,43.1 168.6,43.1 168.7,43.1 168.7,42.9 168.9,42.9 169,42.8 169.1,42.8 169.2,42.8 
			169.3,42.8 169.4,42.8 169.5,42.8 169.6,42.8 169.6,42.8 169.7,42.8 169.8,42.8 170,42.8 170.1,42.8 170.2,42.8 170.2,42.8 
			170.3,42.7 170.4,42.7 170.6,42.7 170.6,42.7 170.8,42.6 170.9,42.6 171.1,42.5 171.1,42.5 171.3,42.5 171.4,42.5 171.6,42.6 
			171.7,42.6 171.9,42.6 172,42.5 172.3,42.4 172.5,42.4 172.6,42.4 172.8,42.6 172.8,42.5 172.9,42.4 173,42.4 173,42.4 
			173.1,42.4 173.2,42.4 173.2,42.4 173.4,42.4 173.5,42.4 173.5,42.4 173.6,42.4 173.6,42.4 173.8,42.4 173.9,42.4 173.9,42.3 
			174.1,42.3 174.2,42.3 174.3,42.2 174.5,42.2 174.6,42.2 174.7,42.3 174.7,42.3 174.8,42.3 174.9,42.3 174.9,42.3 175,42.3 
			175,42.3 175.1,42.4 175.2,42.3 175.3,42.2 175.3,42.3 175.4,42.3 175.6,42.4 175.7,42.4 175.8,42.4 175.9,42.4 175.9,42.3 
			175.9,42.2 175.9,42.1 176,42.1 176.1,42.1 176.2,42.1 176.3,42.2 176.3,42.2 176.4,42.1 176.5,42.1 176.7,42.1 176.8,42.2 
			176.8,42.2 176.9,42.3 177,42.3 177.1,42.3 177.2,42.2 177.2,42.2 177.4,42.2 177.5,42.2 177.7,42.2 177.7,42.2 178,42.2 
			178.1,42.2 178.2,42.2 178.3,42.1 178.4,42.1 178.5,42.1 178.6,42.1 178.6,42.1 178.7,42.1 178.8,42.1 179,42 179.1,42 179.2,42 
			179.4,42.1 179.6,42.1 179.7,42.1 179.8,42.1 180.1,42.1 180.2,42.1 180.3,42.1 180.4,42.1 180.5,42.1 180.6,42.1 180.7,42.1 
			180.8,42.1 180.9,42.1 181,42.2 181.2,42.2 181.3,42.1 181.5,42.1 181.5,42.1 181.7,42.1 181.8,42 182,42 182,41.8 182,41.8 
			182,41.7 182.1,41.6 182.1,41.5 182.3,41.5 182.3,41.4 182.3,41.4 182.3,41.3 182.4,41.2 182.5,41 182.5,41 182.6,40.9 
			182.6,40.7 182.6,40.5 182.6,40.5 		"/>
		<polygon class="st0" points="160.2,38.7 160.2,38.7 160.2,38.7 160.2,38.7 160.1,38.7 160,38.5 160,38.4 159.9,38.4 159.9,38.3 
			159.9,38.3 159.9,38.2 159.9,38.2 159.9,38.1 159.9,38.1 159.9,38.1 159.9,38.1 159.7,38.1 159.7,38 159.7,37.9 159.7,37.8 
			159.6,37.7 159.6,37.7 159.5,37.6 159.5,37.6 159.4,37.5 159.3,37.2 159.3,37.1 159.2,37 159,36.8 158.9,36.7 158.8,36.6 
			158.8,36.4 158.5,36.2 158.5,36.1 158.5,36.1 158.4,36.1 158.3,36 158.3,36.1 158.3,36.1 158.2,36 158.1,36 158,36 158,35.9 
			157.9,35.9 157.9,35.8 157.9,35.8 157.8,35.8 157.8,35.8 157.7,35.8 157.5,35.9 157.5,35.9 157.4,35.9 157.3,35.8 157.3,35.9 
			157.4,36 157.4,36.1 157.5,36.2 157.5,36.2 157.5,36.4 157.5,36.5 157.5,36.6 157.5,36.7 157.5,36.7 157.5,36.7 157.5,36.8 
			157.5,36.9 157.5,36.9 157.7,37 157.7,37 157.7,37.2 157.8,37.2 157.8,37.5 157.8,37.7 157.9,37.7 157.9,37.9 157.9,38 
			157.9,38.1 157.9,38.3 157.9,38.4 158,38.5 158.1,38.7 158.2,38.8 158.3,38.9 158.3,39 158.3,39.1 158.3,39.2 158.3,39.3 
			158.4,39.4 158.4,39.5 158.5,39.5 158.5,39.6 158.6,39.8 158.6,39.9 158.8,40.1 158.8,40.1 158.8,40.2 158.8,40.4 158.9,40.5 
			158.9,40.5 159,40.6 159,40.9 158.9,41 158.9,41 158.9,41.1 158.9,41.2 159,41.3 159,41.4 159,41.4 159.1,41.5 159.2,41.6 
			159.3,41.6 159.3,41.7 159.3,41.8 159.3,42 159.3,42 159.3,42 159.4,42 159.6,42.1 159.7,42.2 160,42.3 160.2,42.4 160.3,42.5 
			160.5,42.7 160.6,42.8 160.8,42.8 160.8,42.8 161,42.8 161,42.8 161.1,42.8 161.2,42.8 161.2,42.8 161.2,42.7 161.2,42.6 
			161.2,42.5 161.2,42.4 161.3,42.4 161.3,42.3 161.3,42.2 161.3,42.1 161.3,42 161.4,42 161.4,41.7 161.4,41.6 161.4,41.5 
			161.3,41.4 161.3,41.4 161.3,41.3 161.3,41.1 161.3,41 161.2,40.9 161.2,40.7 161.2,40.5 161.2,40.4 161.1,40.2 161,40.1 
			160.8,39.9 160.7,39.6 160.7,39.5 160.6,39.4 160.6,39.3 160.6,39.1 160.5,39.1 160.4,39 160.3,38.8 		"/>
		<polygon class="st0" points="147.8,37.8 147.7,37.9 147.7,38 147.6,38.1 147.4,38.2 147.4,38.3 147.4,38.4 147.4,38.5 147.4,38.7 
			147.2,38.8 147.1,38.9 147.1,39 147,39.1 147,39.2 146.9,39.3 146.9,39.5 146.9,39.5 146.8,39.5 146.7,39.6 146.6,39.8 
			146.6,39.9 146.5,40 146.5,40.1 146.5,40.1 146.5,40.2 146.3,40.3 146.2,40.4 146.1,40.5 146,40.5 146,40.6 146,40.9 145.9,41 
			145.9,41 145.9,41.1 145.8,41.2 145.8,41.3 145.8,41.4 145.8,41.4 145.8,41.5 145.8,41.6 145.8,41.7 145.8,41.8 145.8,41.8 
			145.8,42 145.8,42 145.8,42 145.8,42 145.8,42 145.9,42.1 145.9,42.3 146,42.4 146,42.6 146,42.7 146,42.8 146,43.1 146,43.3 
			146,43.4 146.1,43.5 146.2,43.6 146.3,43.7 146.5,43.8 146.5,43.8 146.6,43.9 146.7,44 146.8,44.1 146.9,44.1 146.9,44.1 
			146.9,44.1 147,44 147.1,44 147.2,43.9 147.3,43.9 147.4,43.8 147.4,43.8 147.4,43.8 147.6,43.8 147.7,43.8 147.8,43.7 
			147.8,43.7 147.9,43.6 147.9,43.6 147.9,43.5 147.9,43.4 147.9,43.4 148,43.4 148,43.4 148,43.3 148,43.2 147.9,43.2 148,43.1 
			148,42.9 148,42.8 148,42.7 148,42.6 148,42.5 148,42.4 148,42.4 148,42.3 148,42.2 148,42.1 148,42.1 148.1,42 148.1,42 
			148.1,42 148,41.8 148.1,41.6 148.1,41.5 148.1,41.4 148.1,41.3 148.1,41.2 148.1,41 148.1,41 148.1,40.9 148.1,40.6 148,40.5 
			148,40.5 148,40.3 148,40.2 148,40.1 148,40 148,39.8 148.1,39.6 148.1,39.5 148.1,39.4 148.1,39.2 148.1,39.1 148.1,39 
			148.1,38.9 148.1,38.7 148.1,38.7 148.1,38.7 148.1,38.7 148.1,38.5 148.2,38.5 148.2,38.4 148.2,38.4 148.2,38.3 148.2,38.2 
			148.2,38.2 148.2,38.1 148.2,38.1 148.2,38.1 148.2,38 148.1,37.9 148.1,37.9 148,37.9 148,37.9 147.9,37.8 147.9,37.8 
			147.9,37.8 147.9,37.8 147.9,37.8 		"/>
		<polygon class="st0" points="155,41.1 155,41 155,41 155,40.9 155,40.6 154.9,40.5 154.9,40.5 154.9,40.4 154.9,40.2 154.9,40.1 
			154.9,40 154.8,39.8 154.8,39.5 154.7,39.4 154.7,39.2 154.6,39.1 154.6,39 154.5,38.9 154.5,38.8 154.4,38.7 154.4,38.7 
			154.3,38.5 154.1,38.4 154,38.3 154,38.2 154,38.1 153.9,38.1 153.9,38.1 153.8,38.1 153.9,38 153.8,37.9 153.7,37.8 153.7,37.8 
			153.7,37.7 153.7,37.7 153.6,37.7 153.6,37.6 153.5,37.6 153.4,37.5 153.4,37.5 153.3,37.5 153.2,37.5 153.2,37.5 153,37.6 
			152.9,37.7 152.8,37.7 152.8,37.9 152.8,38 152.8,38.1 152.8,38.2 152.8,38.4 152.8,38.5 152.8,38.7 152.8,38.8 152.8,38.8 
			152.8,38.9 152.8,38.9 152.9,39 152.9,39.1 152.9,39.1 152.9,39.1 152.9,39.2 152.8,39.3 152.8,39.5 152.8,39.5 152.9,39.6 
			152.9,39.9 152.9,40 152.8,40.1 152.9,40.1 152.9,40.2 152.9,40.2 152.9,40.3 152.9,40.3 152.9,40.4 152.9,40.4 152.9,40.5 
			152.9,40.5 152.8,40.5 152.8,40.6 152.8,40.7 152.9,40.9 152.9,41 152.9,41 152.9,41.1 152.8,41.2 152.8,41.3 152.8,41.3 
			152.8,41.4 152.8,41.4 152.8,41.4 152.8,41.5 152.8,41.6 152.8,41.6 152.8,41.7 152.8,41.8 152.8,41.8 152.9,42 152.9,42.2 
			153,42.3 153,42.4 153.2,42.6 153.2,42.8 153.3,42.8 153.4,42.9 153.5,43.1 153.6,43.2 153.6,43.2 153.7,43.2 153.8,43.2 
			153.8,43.2 153.9,43.2 154,43.3 154,43.3 154.1,43.3 154.3,43.3 154.5,43.3 154.5,43.3 154.6,43.3 154.7,43.2 154.8,43.2 
			154.8,43.1 154.8,42.9 154.8,42.9 154.8,42.8 154.9,42.8 154.9,42.8 155,42.7 155,42.7 155,42.6 155,42.5 155.1,42.4 155.1,42.4 
			155.1,42.3 155.1,42.1 155.1,42 155.1,42 155.1,41.8 155.1,41.7 155,41.6 155,41.5 155,41.4 155,41.3 155,41.2 		"/>
	</g>
</g>
<g>
	<g>
		<path class="st1" d="M49.7,74.9c-18.6-7.6-42.4-0.3-48.4,1.7c0.6,2.5,1.2,4.9,2.1,7.2c9.4-2.7,28.6-6.8,44.2-0.4
			c30.9,12.6,51,6.8,59.5,2.8c1.2-2.8,2.2-5.8,2.8-8.9C101.8,81.3,81.6,87.9,49.7,74.9z"/>
		<path class="st1" d="M49.7,90.5C34.5,84.4,16.1,88,6.4,90.7c1.2,2.4,2.7,4.7,4.3,6.9C20.9,95.4,35.3,94,47.5,99
			c19.6,7.9,34.8,8.5,45.5,6.9c3.2-2.9,6.1-6.2,8.5-9.9C91.1,99,73.6,100.3,49.7,90.5z"/>
		<path class="st1" d="M16.3,104.1c10.1,10.1,24,16.3,39.3,16.3c9.5,0,18.5-2.4,26.3-6.6c-8.9-0.4-19.7-2.4-32.3-7.5
			C38.8,101.7,26.1,102.4,16.3,104.1z"/>
	</g>
	<g>
		<path class="st2" d="M59.4,55.4c5.1,0,9.1-4.1,9.1-9.1c0-2.8-1.2-5.2-3.2-6.9c0.2,0.7,0.2,1.6,0.2,2.4c0,2.4-0.7,4.6-2,6.5
			c-1.4,2.5-4.6,5-7.4,6.6C57.2,55.1,58.2,55.4,59.4,55.4z M55.6,9.3C24.9,9.3,0,34.2,0,65c0,1.7,0.1,3.5,0.2,5.1
			c7.3-3.8,28-11.4,61,2c21.5,8.8,49.8-2.2,49.8-2.2c0.2-1.6,0.2-3.2,0.2-4.9C111.4,34.2,86.4,9.3,55.6,9.3z M56.9,60.6
			c-8.1,0-14.7-6.6-14.7-14.7s15.8-25,15.1-25.7c-0.3-0.3,14.4,18.5,14.4,25.7C71.6,54,65,60.6,56.9,60.6z"/>
	</g>
</g>
<g>
	<path d="M152.1,70.3l-3.6-13.8h1.9l2.1,9.1c0.1,0.9,0.4,2,0.7,2.9c0.3-1.5,0.7-2.3,0.7-2.6l2.6-9.4h2.3l2,7
		c0.4,1.6,0.9,3.4,1.1,4.8c0.1-0.9,0.4-1.9,0.8-3.1l2.1-9h1.9l-4,14.1h-1.9l-2.9-10.6c-0.3-0.9-0.4-1.3-0.4-1.6
		c-0.1,0.7-0.3,1.2-0.4,1.6L154,70.2h-1.9v0.1H152.1z"/>
	<path d="M174.3,69.1c-0.7,0.7-1.2,0.9-1.9,1.1c-0.7,0.1-1.2,0.3-1.9,0.3c-1.1,0-2-0.3-2.6-0.8c-0.7-0.7-0.9-1.2-0.9-2.1
		c0-0.4,0.1-0.9,0.3-1.3c0.1-0.4,0.4-0.8,0.9-0.9c0.3-0.3,0.8-0.4,1.2-0.7c0.3-0.1,0.9-0.1,1.5-0.3c1.3-0.1,2.4-0.3,3.1-0.7
		c0-0.3,0-0.4,0-0.4c0-0.8-0.1-1.2-0.4-1.5c-0.4-0.4-1.1-0.7-2-0.7c-0.8,0-1.3,0.1-1.9,0.4c-0.5,0.3-0.7,0.8-0.9,1.5l-1.6-0.1
		c0.1-0.8,0.4-1.2,0.8-1.6c0.3-0.4,0.9-0.8,1.5-1.1s1.3-0.3,2.3-0.3c1,0,1.5,0.1,2.1,0.3c0.7,0.1,0.9,0.4,1.2,0.8
		c0.3,0.3,0.4,0.8,0.4,1.2c0,0.3,0.1,0.8,0.1,1.5v2.3c0,1.5,0,2.6,0.1,3.1c0,0.4,0.1,0.8,0.4,1.2h-1.8
		C174.5,69.8,174.3,69.5,174.3,69.1z M174.1,65.3c-0.7,0.3-1.5,0.4-2.7,0.7c-0.8,0.1-1.2,0.1-1.5,0.3c-0.3,0.1-0.4,0.3-0.7,0.7
		c-0.1,0.3-0.3,0.4-0.3,0.8c0,0.4,0.1,0.8,0.4,1.1c0.3,0.3,0.9,0.4,1.5,0.4c0.7,0,1.2-0.1,1.9-0.4c0.4-0.3,0.9-0.7,1.1-1.2
		c0.1-0.4,0.3-0.9,0.3-1.6L174.1,65.3L174.1,65.3z"/>
	<path d="M182.3,68.7l0.3,1.5c-0.4,0.1-0.9,0.1-1.2,0.1c-0.7,0-1.1-0.1-1.3-0.3c-0.3-0.1-0.7-0.4-0.8-0.8c-0.1-0.3-0.1-1.1-0.1-2
		v-5.9h-1.3v-1.3h1.2v-2.4l1.6-1.1v3.5h1.6v1.3h-1.6v5.9c0,0.4,0,0.8,0.1,0.9c0,0.1,0.1,0.3,0.3,0.3c0.1,0.1,0.3,0.1,0.7,0.1
		C181.8,68.7,181.9,68.7,182.3,68.7z"/>
	<path d="M190.7,67l1.9,0.1c-0.3,1.1-0.8,1.9-1.5,2.4c-0.8,0.7-1.6,0.9-2.9,0.9c-1.5,0-2.6-0.4-3.5-1.3c-0.9-0.9-1.3-2.1-1.3-3.8
		c0-1.8,0.4-3.1,1.3-4s2-1.3,3.4-1.3s2.4,0.4,3.4,1.3c0.9,0.9,1.2,2.3,1.2,3.8c0,0.1,0,0.3,0,0.4h-7.5c0,1.1,0.3,2,0.9,2.6
		c0.7,0.7,1.2,0.9,2.1,0.9c0.7,0,1.2-0.1,1.6-0.4C190.2,68.3,190.6,67.8,190.7,67z M185.3,64.2h5.6c0-0.9-0.3-1.5-0.7-2
		c-0.7-0.7-1.2-0.9-2.1-0.9c-0.8,0-1.3,0.3-2,0.8C185.5,62.7,185.3,63.5,185.3,64.2z"/>
	<path d="M194.7,70.3V60.2h1.5v1.5c0.4-0.8,0.8-1.2,1.1-1.3c0.3-0.1,0.8-0.3,1.1-0.3c0.7,0,1.2,0.1,1.9,0.7l-0.7,1.5
		c-0.4-0.3-0.8-0.3-1.2-0.3c-0.3,0-0.8,0.1-1.1,0.3c-0.3,0.1-0.4,0.7-0.7,0.9c-0.1,0.7-0.3,1.2-0.3,2v5.4h-1.6L194.7,70.3
		L194.7,70.3z"/>
	<path d="M206.8,70.3V56.4h6.3c1.2,0,2.1,0.1,2.9,0.3c0.7,0.3,1.2,0.8,1.5,1.3c0.4,0.7,0.7,1.3,0.7,2.1c0,0.9-0.3,1.9-0.9,2.4
		c-0.7,0.7-1.6,1.1-2.9,1.2c0.4,0.3,0.9,0.4,1.1,0.8c0.7,0.4,1.1,1.1,1.5,1.9l2.4,3.8h-2.3l-1.9-2.9c-0.7-0.8-0.9-1.5-1.3-2
		c-0.3-0.4-0.7-0.8-0.9-0.9c-0.3-0.1-0.7-0.3-0.9-0.3c-0.1,0-0.7,0-1.1,0H209v6.3h-2v-0.2H206.8z M208.7,62.6h4c0.9,0,1.5-0.1,2-0.3
		c0.4-0.1,0.8-0.4,1.1-0.8c0.3-0.4,0.3-0.8,0.3-1.2c0-0.7-0.3-1.2-0.8-1.6c-0.4-0.4-1.2-0.7-2.3-0.7h-4.4v4.6
		C208.6,62.6,208.7,62.6,208.7,62.6z"/>
	<path d="M227.6,67l1.9,0.1c-0.3,1.1-0.8,1.9-1.5,2.4c-0.8,0.7-1.6,0.9-2.9,0.9c-1.5,0-2.6-0.4-3.5-1.3c-0.9-0.9-1.3-2.1-1.3-3.8
		c0-1.8,0.4-3.1,1.3-4c0.9-0.9,2-1.3,3.4-1.3c1.3,0,2.4,0.4,3.4,1.3c0.9,0.9,1.2,2.3,1.2,3.8c0,0.1,0,0.3,0,0.4h-7.5
		c0,1.1,0.3,2,0.9,2.6c0.7,0.7,1.2,0.9,2.1,0.9c0.7,0,1.2-0.1,1.6-0.4C226.9,68.3,227.3,67.8,227.6,67z M222,64.2h5.6
		c0-0.9-0.3-1.5-0.7-2c-0.7-0.7-1.2-0.9-2.1-0.9c-0.8,0-1.3,0.3-2,0.8C222.2,62.7,222,63.5,222,64.2z"/>
	<path d="M230.8,67.3l1.6-0.3c0.1,0.7,0.3,1.2,0.8,1.5c0.4,0.3,1.1,0.7,1.9,0.7s1.3-0.1,1.6-0.4c0.3-0.3,0.7-0.8,0.7-1.1
		c0-0.4-0.1-0.8-0.4-0.9c-0.3-0.1-0.8-0.3-1.6-0.7c-1.2-0.3-2.1-0.7-2.6-0.8c-0.4-0.3-0.9-0.7-1.1-0.9c-0.3-0.4-0.3-0.9-0.3-1.3
		c0-0.4,0.1-0.9,0.3-1.2c0.1-0.4,0.4-0.8,0.9-0.9c0.3-0.1,0.7-0.3,1.1-0.4c0.4-0.1,0.9-0.1,1.5-0.1c0.8,0,1.5,0.1,2.1,0.3
		c0.7,0.1,1.1,0.7,1.3,0.9c0.3,0.4,0.4,0.9,0.7,1.5l-1.6,0.1c-0.1-0.4-0.3-0.9-0.7-1.2c-0.3-0.3-0.9-0.4-1.5-0.4
		c-0.8,0-1.3,0.1-1.6,0.4c-0.3,0.3-0.4,0.7-0.4,0.9c0,0.1,0,0.4,0.1,0.7c0.1,0.1,0.3,0.3,0.7,0.4c0.1,0,0.7,0.1,1.5,0.4
		c1.2,0.3,2,0.7,2.6,0.8c0.4,0.1,0.9,0.4,1.1,0.9c0.3,0.4,0.4,0.9,0.4,1.5c0,0.7-0.1,1.1-0.4,1.6c-0.3,0.4-0.8,0.9-1.3,1.2
		c-0.7,0.3-1.3,0.4-2.1,0.4c-1.3,0-2.3-0.3-3.1-0.8C231.4,69.1,230.9,68.3,230.8,67.3z"/>
	<path d="M240.6,65.3c0-1.9,0.4-3.2,1.5-4.1c0.9-0.8,2-1.1,3.2-1.1c1.3,0,2.6,0.4,3.4,1.3c0.9,0.9,1.3,2.1,1.3,3.8
		c0,1.3-0.1,2.3-0.7,3.1c-0.4,0.8-0.9,1.3-1.6,1.6c-0.8,0.4-1.5,0.7-2.4,0.7c-1.3,0-2.6-0.4-3.4-1.3C241,68.2,240.6,67,240.6,65.3z
		 M242.2,65.3c0,1.2,0.3,2.3,0.9,2.9c0.7,0.7,1.2,0.9,2.1,0.9c0.9,0,1.5-0.3,2.1-0.9c0.7-0.7,0.9-1.6,0.9-2.9s-0.3-2.1-0.9-2.9
		c-0.7-0.7-1.2-0.9-2.1-0.9c-0.9,0-1.5,0.3-2.1,0.9C242.5,63,242.2,63.9,242.2,65.3z"/>
	<path d="M258.4,70.3v-1.5c-0.8,1.1-1.9,1.6-3.2,1.6c-0.7,0-1.2-0.1-1.6-0.3c-0.4-0.1-0.9-0.4-1.2-0.9c-0.3-0.3-0.4-0.8-0.4-1.2
		c0-0.3-0.1-0.9-0.1-1.5v-6.3h1.6v5.6c0,0.9,0,1.5,0.1,1.9c0.1,0.4,0.3,0.8,0.7,1.1c0.3,0.3,0.8,0.4,1.2,0.4c0.4,0,1.1-0.1,1.3-0.4
		c0.4-0.3,0.8-0.7,0.9-1.1s0.3-1.1,0.3-2v-5.4h1.6v10.1h-1.2V70.3L258.4,70.3z"/>
	<path d="M262.7,70.3V60.2h1.5v1.5c0.4-0.8,0.8-1.2,1.1-1.3c0.3-0.1,0.8-0.3,1.1-0.3c0.7,0,1.2,0.1,1.9,0.7l-0.7,1.5
		c-0.4-0.3-0.8-0.3-1.2-0.3c-0.3,0-0.8,0.1-1.1,0.3c-0.3,0.2-0.4,0.7-0.7,0.9c-0.1,0.7-0.3,1.2-0.3,2v5.4h-1.6L262.7,70.3
		L262.7,70.3z"/>
	<path d="M275.9,66.7l1.6,0.1c-0.1,1.2-0.7,2.1-1.3,2.7c-0.8,0.7-1.6,0.9-2.7,0.9c-1.3,0-2.4-0.4-3.4-1.3c-0.9-0.9-1.2-2.1-1.2-3.8
		c0-1.1,0.1-2,0.7-2.9c0.3-0.8,0.9-1.3,1.6-1.9c0.8-0.4,1.5-0.7,2.4-0.7c1.1,0,2,0.3,2.7,0.8c0.8,0.7,1.1,1.3,1.3,2.3l-1.6,0.3
		c-0.1-0.7-0.4-1.2-0.9-1.5c-0.4-0.3-0.9-0.4-1.5-0.4c-0.9,0-1.5,0.3-2.1,0.9c-0.7,0.7-0.8,1.5-0.8,2.9c0,1.3,0.3,2.3,0.8,2.9
		c0.4,0.7,1.2,0.9,2,0.9c0.7,0,1.2-0.1,1.6-0.7C275.4,68.1,275.7,67.4,275.9,66.7z"/>
	<path d="M285.9,67l1.9,0.1c-0.3,1.1-0.8,1.9-1.5,2.4c-0.8,0.7-1.6,0.9-2.9,0.9c-1.5,0-2.6-0.4-3.5-1.3c-0.9-0.9-1.3-2.1-1.3-3.8
		c0-1.8,0.4-3.1,1.3-4c0.9-0.9,2-1.3,3.4-1.3c1.3,0,2.4,0.4,3.4,1.3c0.9,0.9,1.2,2.3,1.2,3.8c0,0.1,0,0.3,0,0.4h-7.5
		c0,1.1,0.3,2,0.9,2.6c0.7,0.7,1.2,0.9,2.1,0.9c0.7,0,1.2-0.1,1.6-0.4C285.2,68.3,285.6,67.8,285.9,67z M280.3,64.2h5.6
		c0-0.9-0.3-1.5-0.7-2c-0.7-0.7-1.2-0.9-2.1-0.9c-0.8,0-1.3,0.3-2,0.8C280.5,62.7,280.3,63.5,280.3,64.2z"/>
	<path d="M289.1,67.3l1.6-0.3c0.1,0.7,0.3,1.2,0.8,1.5c0.4,0.3,1.1,0.7,1.9,0.7c0.8,0,1.3-0.1,1.6-0.4s0.7-0.8,0.7-1.1
		c0-0.4-0.1-0.8-0.4-0.9s-0.8-0.3-1.6-0.7c-1.2-0.3-2.1-0.7-2.6-0.8c-0.4-0.3-0.9-0.7-1.1-0.9c-0.3-0.4-0.3-0.9-0.3-1.3
		c0-0.4,0.1-0.9,0.3-1.2c0.1-0.4,0.4-0.8,0.9-0.9c0.3-0.1,0.7-0.3,1.1-0.4c0.4-0.1,0.9-0.1,1.5-0.1c0.8,0,1.5,0.1,2.1,0.3
		c0.7,0.1,1.1,0.7,1.3,0.9c0.3,0.4,0.4,0.9,0.7,1.5l-1.6,0.1c-0.1-0.4-0.3-0.9-0.7-1.2s-0.9-0.4-1.5-0.4c-0.8,0-1.3,0.1-1.6,0.4
		s-0.4,0.7-0.4,0.9c0,0.1,0,0.4,0.1,0.7c0.1,0.1,0.3,0.3,0.7,0.4c0.1,0,0.7,0.1,1.5,0.4c1.2,0.3,2,0.7,2.6,0.8
		c0.4,0.1,0.9,0.4,1.1,0.9c0.3,0.4,0.4,0.9,0.4,1.5c0,0.7-0.1,1.1-0.4,1.6c-0.3,0.4-0.8,0.9-1.3,1.2c-0.7,0.3-1.3,0.4-2.1,0.4
		c-1.3,0-2.3-0.3-3.1-0.8C289.7,69.1,289.3,68.3,289.1,67.3z"/>
	<path d="M303.6,70.3l5.4-13.8h2l5.6,13.8h-2.1l-1.6-4.3H307l-1.5,4.3H303.6z M307.5,64.6h4.7l-1.5-3.8c-0.4-1.2-0.8-2.1-0.9-2.9
		c-0.1,0.9-0.4,1.9-0.8,2.6L307.5,64.6z"/>
	<path d="M317.5,71l1.6,0.3c0,0.4,0.3,0.9,0.7,1.1c0.4,0.3,1.1,0.4,1.6,0.4c0.8,0,1.3-0.1,1.9-0.4c0.4-0.3,0.8-0.8,0.9-1.3
		c0.1-0.3,0.1-1.1,0.1-2.1c-0.8,0.9-1.6,1.3-2.7,1.3c-1.3,0-2.4-0.4-3.2-1.5c-0.8-1.1-1.1-2.1-1.1-3.6c0-0.9,0.1-1.9,0.4-2.6
		c0.3-0.8,0.9-1.3,1.5-1.9c0.7-0.5,1.3-0.7,2.3-0.7c1.2,0,2.1,0.4,2.9,1.3v-1.2h1.5v8.7c0,1.5-0.1,2.7-0.4,3.4
		c-0.3,0.7-0.8,1.2-1.5,1.5c-0.8,0.3-1.5,0.7-2.6,0.7c-1.2,0-2.1-0.3-2.9-0.8C317.8,73,317.5,72.1,317.5,71z M318.9,65
		c0,1.3,0.3,2.3,0.8,2.9c0.4,0.5,1.2,0.9,2,0.9c0.8,0,1.3-0.3,2-0.9c0.4-0.7,0.8-1.5,0.8-2.9c0-1.2-0.3-2.1-0.8-2.7
		c-0.7-0.7-1.2-0.9-2-0.9s-1.3,0.3-2,0.9C319.3,62.8,318.9,63.9,318.9,65z"/>
	<path d="M335.5,67l1.9,0.1c-0.3,1.1-0.8,1.9-1.5,2.4c-0.8,0.7-1.6,0.9-2.9,0.9c-1.5,0-2.6-0.4-3.5-1.3c-0.9-0.9-1.3-2.1-1.3-3.8
		c0-1.8,0.4-3.1,1.3-4c0.9-0.9,2-1.3,3.4-1.3c1.3,0,2.4,0.4,3.4,1.3c0.9,0.9,1.2,2.3,1.2,3.8c0,0.1,0,0.3,0,0.4H330
		c0,1.1,0.3,2,0.9,2.6c0.7,0.7,1.2,0.9,2.1,0.9c0.7,0,1.2-0.1,1.6-0.4C334.9,68.3,335.2,67.8,335.5,67z M329.9,64.2h5.6
		c0-0.9-0.3-1.5-0.7-2c-0.7-0.7-1.2-0.9-2.1-0.9c-0.8,0-1.3,0.3-2,0.8C330.4,62.7,330,63.5,329.9,64.2z"/>
	<path d="M339.5,70.3V60.2h1.5v1.3c0.8-1.1,1.9-1.6,3.2-1.6c0.7,0,1.2,0.1,1.6,0.3c0.4,0.1,0.9,0.4,1.2,0.9c0.3,0.3,0.4,0.8,0.4,1.2
		c0,0.3,0.1,0.9,0.1,1.6v6.3H346v-6c0-0.8,0-1.2-0.1-1.5c-0.1-0.3-0.3-0.7-0.8-0.8c-0.3-0.1-0.8-0.3-1.2-0.3c-0.8,0-1.3,0.3-1.9,0.8
		c-0.4,0.4-0.8,1.3-0.8,2.6v5.5h-1.9v-0.1H339.5z"/>
	<path d="M356.8,66.7l1.6,0.1c-0.1,1.2-0.7,2.1-1.3,2.7c-0.8,0.7-1.6,0.9-2.7,0.9c-1.3,0-2.4-0.4-3.4-1.3c-0.9-0.9-1.2-2.1-1.2-3.8
		c0-1.1,0.1-2,0.7-2.9c0.3-0.8,0.9-1.3,1.6-1.9c0.8-0.4,1.5-0.7,2.4-0.7c1.1,0,2,0.3,2.7,0.8c0.8,0.7,1.1,1.3,1.3,2.3l-1.6,0.3
		c-0.1-0.7-0.4-1.2-0.9-1.5c-0.4-0.3-0.9-0.4-1.5-0.4c-0.9,0-1.5,0.3-2.1,0.9c-0.7,0.7-0.8,1.5-0.8,2.9c0,1.3,0.3,2.3,0.8,2.9
		c0.4,0.7,1.2,0.9,2,0.9c0.7,0,1.2-0.1,1.6-0.7C356.4,68.1,356.7,67.4,356.8,66.7z"/>
	<path d="M359.9,74.1l-0.1-1.6c0.3,0.1,0.8,0.1,0.9,0.1c0.3,0,0.7,0,0.9-0.1c0.1-0.1,0.4-0.3,0.7-0.4c0.1-0.1,0.3-0.7,0.4-1.2
		c0-0.1,0.1-0.3,0.1-0.4l-3.8-10.1h1.9l2.1,5.8c0.3,0.8,0.4,1.5,0.8,2.3c0.1-0.8,0.4-1.5,0.8-2.3l2.1-5.9h1.6l-3.8,10.2
		c-0.4,1.1-0.8,1.9-0.9,2.3c-0.3,0.7-0.7,0.9-1.1,1.2c-0.4,0.3-0.9,0.4-1.3,0.4C360.7,74.5,360.3,74.2,359.9,74.1z"/>
	<path d="M370.1,70.3v-2h2v2c0,0.8-0.1,1.2-0.3,1.6c-0.3,0.4-0.7,0.8-1.2,1.1l-0.4-0.8c0.3-0.1,0.7-0.4,0.8-0.8
		c0.1-0.3,0.3-0.8,0.3-1.3h-1.1V70.3z"/>
	<path d="M386,70.3V56.4h2.7l3.4,9.9c0.3,0.9,0.4,1.6,0.7,2.1c0.1-0.4,0.4-1.2,0.8-2.3l3.4-9.8h2.4v13.8h-2V58.8l-4.1,11.5h-1.6
		l-4-11.9v11.9H386z"/>
	<path d="M401.7,63.5c0-2.3,0.7-4.1,1.9-5.5c1.2-1.3,2.9-2,4.8-2c1.2,0,2.4,0.3,3.5,0.9c1.1,0.7,1.9,1.5,2.3,2.6
		c0.7,1.1,0.8,2.3,0.8,3.8c0,1.3-0.3,2.7-0.9,3.8c-0.7,1.1-1.3,2-2.4,2.6s-2.1,0.9-3.4,0.9s-2.4-0.3-3.5-0.9
		c-1.1-0.7-1.9-1.5-2.3-2.6C402.1,65.9,401.7,64.7,401.7,63.5z M403.6,63.5c0,1.6,0.4,3.1,1.3,4c0.9,0.9,2,1.5,3.4,1.5
		c1.3,0,2.6-0.4,3.4-1.5c0.9-0.9,1.3-2.3,1.3-4.1c0-1.1-0.1-2.1-0.7-2.9c-0.4-0.9-0.9-1.5-1.6-2c-0.8-0.4-1.5-0.8-2.4-0.8
		c-1.3,0-2.4,0.4-3.4,1.3C404,60,403.6,61.5,403.6,63.5z"/>
	<path d="M417.4,70.3V56.4h10.1v1.6h-8.2v4.3h7.8V64h-7.8v4.7h8.6v1.6h-10.3v-0.1H417.4z"/>
	<path d="M428.8,70.3l5.4-13.8h2l5.6,13.8h-2.1l-1.6-4.3h-5.8l-1.5,4.3H428.8z M432.8,64.6h4.7l-1.5-3.8c-0.4-1.2-0.8-2.1-0.9-2.9
		c-0.1,0.9-0.4,1.9-0.8,2.6L432.8,64.6z"/>
</g>
</svg>
