<?xml version="1.0" encoding="utf-8"?>
<!-- Generator: Adobe Illustrator 24.0.2, SVG Export Plug-In . SVG Version: 6.00 Build 0)  -->
<svg version="1.1" id="圖層_1" xmlns="http://www.w3.org/2000/svg" xmlns:xlink="http://www.w3.org/1999/xlink" x="0px" y="0px"
	 viewBox="0 0 418.7 134.2" style="enable-background:new 0 0 418.7 134.2;" xml:space="preserve">
<style type="text/css">
	.st0{fill-rule:evenodd;clip-rule:evenodd;fill:#040000;stroke:#000000;stroke-width:0.5;}
	.st1{fill:#189F65;}
	.st2{fill:#209FD7;}
</style>
<g>
	<g>
		<path class="st0" d="M314.4,36.5c-0.3-1.1-1.7-1-2.4-1.5c-1.8,0-3.4-0.6-5.2-0.6c-0.7-0.2-1.9-0.6-2.6-0.3
			c-1.5-0.5-3.2-0.7-4.9-0.9c-0.5,0.2-0.9-0.1-1.4-0.1c-1.2,0-2.3-0.4-3.5-0.4c-1.2-0.5-2.9,0.2-3.8-0.8c0.2-0.7,0.9-1.2,1.4-1.9
			l0.3-0.2c1.6-1.5,2.8-3.2,4.5-4.6c4.9-3.7,9.3-9.3,16.2-8.8l0.3-0.3c0.5-0.4,0.5-1.1,0.4-1.7c-0.7-1.4-2.2-2.4-3.6-2.9
			c-1.3-0.2-2.5-0.2-3.9-0.2c-1.3,0.2,0.2,1.1-0.2,1.7c-0.7,1.8-3,2.9-4.1,4.5c-1.2,1.5-3,2.8-4.3,4.4c-1.5,1.1-2.4,2.4-3.5,3.7
			c-1.2,1-2.1,2.1-3.2,2.9c-0.4,0.4-0.4-0.2-0.6-0.3c0-1.5,0-3.1-0.1-4.5c-0.2-0.3,0.2-0.6-0.2-1c0.4-0.7,0.4-1.3,0.2-2.2
			c0.4-0.3,0-0.8,0.2-1.2c0.1-1.9,0.6-4,0.6-5.9c0.4-1.9,1-4.1-0.1-5.8l-0.4-0.5c-0.5-1.1-1.7-1.7-2.7-2.2c-0.2-0.2-0.6-0.4-0.8-0.2
			c1.5,3.3,1.7,7.2,1.9,10.9l-0.2,0.7c0.5,2,0.2,4.6,0.2,6.8s0.1,4.6-0.2,6.9c-1.5,2.1-3.8,2.8-5.9,4.3c-0.7,0.2-1,1.1-1.7,1.2
			c-0.3,0-0.3,0.4-0.2,0.7c0,0.2-0.2,0.4-0.5,0.4c-0.1,0.5-1.2,0.7-0.6,1.3c1.5,0.5,2.7-0.2,4.1-0.3l1.9-1.6c0.6-0.3,0.7-1,1.5-1
			c2.7-0.3,0.7,2.4,1.5,3.6c-0.1,1.5,0.2,2.9-0.3,4.3c-1.4-0.6-1.6-2.2-2.7-2.9c0.1,0.3,0.3,0.7,0.3,1.2c1.5,1.8,2.1,4.1,2.4,6.3
			c0.4,0.7,1-0.4,1.7,0c0.5-0.4,0.6-1.1,0.6-1.9c-0.5-1.2-0.6-2.4-0.5-3.7c-0.7-1.7-0.2-3.7-0.2-5.7c0-0.6-0.2-1.3,0.6-1.5
			c0.7,0,1.6,0.2,2.2,0.7c1.4,0.3,2.6,0.6,4.1,0.6c0.6-0.2,1.5,0.2,2.2,0.2c1.1,0.2,2.2,0.2,3.2,1c0.9,0,1.6,0.5,2.4,0.2
			c1.4-0.7,1.9,1.5,3.2,0.5c2.6,1.6,6.1,1.4,8.5-0.2C316,37,315.1,36.9,314.4,36.5z"/>
		<path class="st0" d="M279.2,25.3c-2.9-2.3-7,0.2-10-1c-0.4-0.2-0.5-0.8-1-0.7c-0.5,0.6,0.1,1.1-0.2,1.7c1.1,1.5,2.4,2.4,3.9,3.4
			c1.5,0.5,2.8-0.5,4.1,0.2c-0.1,2.5-0.7,5-1.7,7.2c0,0.4-0.6,0.2-0.3,0.7c-0.5,0.9-0.9,1.9-1.6,2.6c0.2,0.6-0.7,0.9-0.7,1.5
			c-1.1,0.9-1.5,2.2-2.7,2.8c-0.8,0-1.5-0.2-2.2-0.2c-0.3,0.5-0.1,1.1,0.2,1.5c0.2,0.7,1.1,0.6,1.7,0.6c3.5-1.6,5.7-5.3,8.1-8.4
			c0.6-0.6,0.4-1.7,1.2-2.2c0-0.6,0.6-1.2,0-1.7c0.2-0.3,0.4-0.2,0.6-0.2v-0.3c1-1.9,1.5-4.2,1.3-6.5
			C279.7,26,279.2,25.7,279.2,25.3z"/>
	</g>
	<g>
		<path class="st0" d="M366.6,16.8c-0.5-0.9,0-1.7-0.6-2.7c-0.6-0.2-1.2-0.5-1.8-0.9c-0.9,0.2-1.3-0.8-2.2-0.5
			c-0.2,0.3-0.8,0.2-0.7,0.6c0.3-0.1,0.5,0,0.7-0.1c0.4,0.2,1.1,0.4,1.1,1c0,1.4,0,2.8-0.2,4.1c-0.1,0.5,0.9,0.6,0.2,0.7
			c0,0.6-0.2,0.9,0,1.5c-0.4,2,0.3,3.8,0,5.9c0.5,1.8-0.2,3.9,0,5.8c-0.6,0.6,0.7,1.1,0,1.5c0,1.7-0.6,3-0.4,4.8
			c-0.5,1.2-1.4,2.4-2.6,2.8c-1.8,1.2-3.7,1.1-5.9,1.4c-0.3-0.3-0.9-0.3-1.5-0.3c0.2,0.2,0,0.7,0.5,0.6c0.9,0.8,1.9,1.2,3,1.2
			c0.9,0.9,2.5,1.2,3.6,0.7c0.6,0.6,1.5,0.3,2.3,0.3c0.7,0.5,1-0.7,1.6-0.6c0.7-1.1,1.6-2.3,1.8-3.6c0.9-1.4-0.2-3,0.4-4.4
			c0-3.6-0.1-6.9,0-10.5c-0.1-0.8,0-1.2,0.2-1.9c-0.6-0.6,0.3-0.9-0.2-1.7C366.8,20.7,365.4,18.6,366.6,16.8z"/>
		<path class="st0" d="M333.2,20.2c1.1,0.5,2.1,1.4,3.3,0.6c1.1,0.3,1.8-0.7,2.5-0.9c0.6-0.9,1.6-0.4,2.5-1.1c1.4-0.6,3.5-0.4,4.2-2
			c-0.2-0.6-0.2-1.2-0.5-1.7c-1.1-0.7-1.6-2.2-3.2-1.9c-1.8,2-4.1,3.4-6.4,4.7c-1.1,0.3-1.7,1.5-2.7,1.5
			C332.8,19.7,333,20.1,333.2,20.2z"/>
		<path class="st0" d="M354,32.6c0.5-0.5,0.9-0.9,1.2-1.5c0.2-1.5,0.7-3.3,0.9-5.3c-0.3-1.4,0.4-2.3,0-3.6h-0.7
			c-0.3,0.9-0.6-0.2-1.2,0.3c-0.7-0.9-1.9,0-2.8-0.2c-0.3,0.9-1.5,1.3-1.5,2.4c-0.3,0.9-1.4,1.6-1.4,2.4c-0.7,0.7-1.2,1.9-2.1,2.5
			c-1.1,0.4-1.9,0-2.8-0.3c-1.1,0.2-1.6-0.9-2.5-1.1c0.3-1.1-0.2-2.8,0.6-4c1.2-0.6,2.4-0.8,3.5-1.5c0.2-0.4,0-0.9,0-1.1
			c-0.9-0.3-1.7,0-2.4,0.2c-0.4,0.2-0.7,0.7-1.5,0.5c-0.7-0.7-1.8-1.4-2.8-0.9c-0.6,0.7,0.3,1.1,0.6,1.8c-1.3,1.1-3.1,1.3-4.5,2.2
			c-1.1,0-1.9,0.9-2.8,0.9c-1.6,1.2-3.7,1.7-5.7,2.1c-0.4-0.2-0.7-0.7-0.7-1.3c-1.4-0.5-0.9,1.1-1.8,1.1c-0.6,0.5,0,1.1,0,1.7
			c0.2,0.9,1.2,0.9,1.9,1.1c1.3-1,3.1,0.6,4.1-0.8c0.5,0.2,1.1,0,1.2-0.4c1.1,0,1.9-1.1,2.8-1.5c1.1-0.6,1.9-1.3,3-2
			c0.9,0.2,1.1-0.6,1.9-0.6c0.2,0,0.6,0.3,0.4,0.6c-0.7,1.6-2.4,2.2-3.2,3.7c-0.6,1.4-2.4,2.1-3.2,3.5c-1.1,0.2-1.3,1.1-2.3,1.8
			c-1,0.2-1,1.8-1.3,2.5c-0.5,0.7,0.2,1.4,0.4,1.8c0.5,0.3,0.8,0.2,1.2-0.2c0.2,0.2,0.3,0.2,0.5,0.2l2-1.5c1.1-1.8,3-3,4.1-4.8
			c0.7-0.9,1.2-2.3,2.4-2.8c0.4,0.1,0.1,0.6,0.4,1c-0.7,2.8-0.3,5.2-1.1,7.9c0.2,1.4-1.1,3.2,0.3,4.4c0.3,0.2,0.9,0.2,1.1-0.3
			c0-1.8,0.7-3.6,0.2-5.5c0.5-1.4,0.5-2.8,0.3-4.2c0.5-1.3-0.4-2.7,0.3-3.9c0.4-0.2,0.7,0.4,1.1,0.6c1.1,0.6,1.9,1.9,2.8,2.6
			l1.5,0.2c1.1-0.4,1.2-1.5,1.8-2.3c0.6-2.8,1.6-6,3.7-8l0.7,0.7c0.9,2.1-0.4,3.7-1.3,5.5c0.6,0.7,0,1.2,0.7,1.7
			C352.6,31.7,352.6,33,354,32.6z"/>
	</g>
	<g>
		<path class="st0" d="M392.7,11.6c0.4,2.1,0.6,4.5,1.8,6c0.4,0.4,1.1,0.8,1.5,0.4c0.6-0.6,1.1-1.3,1.2-2.1
			c-0.4-0.2-0.6-0.4-0.6-0.6c-0.4-0.4-0.6-1.3-1.1-1.3c-0.6-0.6-1.1-1.6-1.8-2.4c-0.2-0.4,0.2-0.4,0.5-0.7c2.1-0.6,4-1.9,6.1-2.6
			c2.5-0.3,5-1.7,7.8-1.1c0.8,0.2,1.1,1.1,1.2,1.8c-0.8,1.3-1.7,2.5-3.1,2.9c-0.3,0.4-1,0.4-1.5,0.2c-0.7-0.6,0-1.8-0.9-2.4
			c-0.9-0.2-2.2-0.4-2.9,0.2c0.3,0.7,0.2,1.4,0.1,2.2c-0.6,1.1-1.3,2.4-1.5,3.7c1.7,0,2.8-1,4-1.8c0.9-1.9,2.8,0,4.3-0.7
			c1.2-1.2,2.4,0.4,3.8-0.2c1.1-0.3,2.6-0.2,3.3-1.4c0.6-0.9,0.6-2.3,0.2-3.2c-0.5-0.9-1.4-1.4-2.1-2c-0.7,0.2-1.3-0.7-1.9-0.4
			c-0.4-0.4-1.1-0.3-1.7-0.2c-1.9-0.8-3.7,0-5.8-0.2c-0.4,0.3-0.4,0.7-0.8,1c-0.5,0.3-1.1,0.3-1.6-0.1c-0.4,0.1-0.4,0.5-0.6,0.8
			c-0.3-0.2-0.5-0.4-0.9-0.4c-0.5,0.4-1.1,0.2-1.6,0.6c-1.3,0.4-2.8,0.6-3.9,1.4c-1.1-0.4-1.5,1.5-2.8,1c0,0.6-0.5,0.3-0.7,0.3
			c-0.2,0.8-1.3,0.1-1.5,0.8c0.4,0.4,1.1,0.2,1.4,0.6C391.4,12,392.2,10.6,392.7,11.6z"/>
		<path class="st0" d="M383.3,13.3c0.5,0.8-0.2,1.9,0,2.9c-0.3,1.5,0.9,2.8,2,3.7c0.6,0.4,1.1-0.3,1.5-0.6c0.4-0.6,0.1-1.4-0.2-1.9
			c0-1.2-0.4-2.4-0.6-3.5c-0.6-1.1-1.1-2.4-2.2-3.3C382.3,10.6,383.8,12.4,383.3,13.3z"/>
		<path class="st0" d="M418.4,26.2c-0.7-0.6-1.5-1.5-2.7-1.2c-0.8,0.6-1.5-0.2-2.4,0.2c-0.6,0.6-1.4-0.1-2.2,0.2
			c-1.2-0.6,0.2,1.1-0.7,1.5c-0.8-0.2-1.1,0.6-1.8,0.6c-0.4,0.2-0.9-0.2-1.1,0.4c-0.5,0.2-1.3,0.2-1.4-0.3c0.7-1.6,2.5-2.4,3.6-4
			c1.1-1.1,2.7-2.1,2.3-3.7c-0.2-0.7-0.9-0.8-1.5-0.7c-0.3-1-1.2-0.2-1.8-0.2c-0.9,0.4-0.2,1-0.5,1.6c-0.2,1.9-2,2.7-2.7,4.3
			c-1.5,1.7-2.4,5.3-5.2,5.1c-0.6-0.1-1.5,1.2-2,0c0-1.4,0.6-2.6,1.3-3.8c1-0.7,2.4-0.7,3.3-1.7c0.2-0.4,0.2-0.8,0-1.2
			c-0.2,0.2-0.2,0.4-0.4,0.2c-0.7-0.8-1.9,0.4-2.7-0.2c0.2-0.6-0.2-1.4,0.5-1.8c1.7-0.6,4-0.3,4.8-2.3c-0.2-1.2-1.8-0.8-2.4-0.2
			c-0.8-0.2-1.3,0.8-2.1,1c-1.1,0.6-2-1.2-3.3-0.6c-0.5,0.6-1.3,0.8-1.6,1.5c-0.8,0.6-1.9,1-2.4,0.6c-0.3,0.6-0.8,0.2-1.1,0.4
			c-0.2,0.2,0.1,0.2,0.1,0.3c1.5,0.2,2.8,0.6,4.1,0.6l0.2,0.6c0.3,0.9-0.2,1.8-0.6,2.4c-0.6,0-0.8,0.4-1.1,0.1c-0.6,1-1.7,0.3-2.2,1
			c1.1,0.3,2.3,0.6,3.4,0.4c0.6,0.2,0.4,0.6,0.6,1c0,0.7-0.2,1.4-0.2,2.2c-0.6,1.6-2.4,1.5-3.7,1.9c-0.2,0.6-0.7,0.2-1.3,0.7
			c-0.7-0.3-1.1,0.6-1.8,0.2c-0.2,0.6-0.9-0.1-1,0.6c-1.2,0-2.5,0.4-3.2,1.1l-0.2-0.3l-0.7,0.3c-0.4-0.2-0.9,0.2-1.5,0.1
			c-0.3,0.5-0.9,0.2-1.2,0.6c-0.6,0.2-1.5-0.2-1.9,0.4c-0.6-0.2-1.1,0.4-1.5-0.2c-0.2,0.2-0.7,0.2-0.9,0.4c0.2,0.6,0.9,0.6,1.2,1
			c1.2,0.4,2.5,1.2,4,1.2c0.7-0.2,1.8-0.1,2-1c0.2-0.4,0.6-0.5,0.9-0.7c0.2-1.1,1.3-0.7,2-0.8c0.4,0.2,1.1,0.2,1.5,0
			c0.7-1.3,2.2-0.7,3.1-1.5c1.9-0.3,3.5-1.9,5.4-2.4c0.6,0,1.3-0.2,1.9-0.4c0.2,0,0.6,0.2,0.6,0.6c-0.4,0.6-1.1,1.1-1.3,1.8
			c-0.9,0.6-1.5,2-2.6,2.4c-0.9,0.7-1.4-0.9-2.2-0.9c-0.2,0.9,0.2,1.6,0.2,2.6c-1.3,1.8-2.7,3.3-4.5,4.4c0.1,0.2,0.1,0.2,0.1,0.2
			c0.3,0,0.4,0.3,0.4,0.4c0,0.2-0.2,0.4-0.4,0.4c-0.3-0.1-0.2-0.4-0.2-0.6c-0.5,0.2-0.9,0.8-1.4,1.2c-0.2,0.7-0.9,0.3-1.3,0.7
			c-0.8,1.5-2.7,1.1-3.5,2.4c-0.1,0-0.4,0-0.5,0.3c-0.9-0.2-1.5,0.6-2.4,0.6c-0.4-0.4-0.7,0.3-1.2-0.1c0,0.2-0.2,0.2-0.3,0.4
			l0.7,0.8c0.6,0.7,1.8,0.8,2.7,0.6c0.3-0.4,0-0.8,0.3-1.3c0.6-1.5,2.2-0.6,3.3-1.2c0.4,0.2,0.6,0.4,0.7,0.8c0.6-0.6,2.1-0.8,2.1-2
			c2.3-1,4-3.3,5.8-5.1c0.5,0.1,0.5,0.6,0.7,1.1c0.2,1.1,1,1.9,1.3,2.8c0.6,1.1,1.5,1.4,2.6,1.3c2.6-1.1,1.9-4.7,4-6.5
			c0.9,0,2.4-0.7,2.8,0.7c0.2,0.6,0,1.1-0.4,1.5c-1,1.2-2,2.4-3.1,3.7c-0.1,0.2-0.1,0.8-0.5,0.6c0.1,0.9,1.1,0,1.4,0.3
			c0.2-0.3,0.6,0,0.9-0.4c2.1-0.4,4.6-0.3,7-0.4c0.7,0,1.9,0.2,2.7-0.4c0.8-0.5,0.9-1.3,1.1-2.1c-0.2-2.6-2.6-3.5-4.6-4.5
			c-0.6,0.2-1.3-0.4-1.9-0.2c-1.1-0.6-2.7-0.6-4.1-0.4c-0.3,0.6-1.2,0.6-1.8,1.2c-1.3,0.4-2,1.9-3.1,2.8c-0.5,0.4-0.9-0.4-1.3-0.7
			c-0.1-1.1-1.1-1.9-1.1-3.2c1.8-2.4,3.6-4.6,6.2-6.7c0.5-1.1,1.7-1.7,2.7-2.1c2.8-0.3,5.6-0.7,8-1.3c1.5-0.6,3.2,0.8,4.3-0.6
			C418.4,27.1,418.5,26.6,418.4,26.2z"/>
	</g>
	<g>
		<path class="st0" d="M196,22.4c0.2-0.2,0.3,0,0.5,0v-0.2h0.1c0.1,0,0.1,0,0.1,0.1c0.6,0.1,0.9-0.3,1.3-0.6c0.6,0,1.1-0.5,1.5-0.6
			c0.3,0.2,0.6,0.4,0.7,0.6l0.2-0.2c0.2,0.1,0.1,0.4,0.3,0.2c0.3,0,0.8,0,1-0.2c1.1,0.2,1.6-0.9,2.4-1.4c-0.2-0.9,0.8-0.2,1.1-0.7
			c0.5,0.2,0.9-0.4,1.4-0.1c0.3-0.1,0.6-0.1,1-0.1c0.2,0.1,0.2,0.2,0.2,0.4c0,0.3-0.3,0.5-0.6,0.5c0.2,0,0.7,0.2,1-0.1
			c0.5,0,1.1-0.1,1.6,0c0.4,0.1,0.8,0,0.9-0.5c0.2,0,0.3,0,0.3-0.2c-0.5-0.3-1.1-0.6-1.7-0.9c-0.4-0.2-0.6,0.2-0.9,0.2
			c-0.5-0.1-1.1,0-1.5,0.2c-0.5-0.4-1,0.2-1.5,0c-0.2-0.2-0.6-0.3-0.6-0.7c0-0.2-0.1-0.6-0.3-0.6c-0.4-0.7-1.1-0.1-1.5-0.7
			c-0.5,0.3-0.7-0.2-1.2,0c-0.1-0.3-0.2,0-0.5,0c-0.2-0.4-0.5,0.1-0.8,0.1c-0.3-0.2-0.6,0.3-0.9,0.1c-0.2,0.1-0.2,0.2-0.2,0.3
			c0.4,0.2,0.8,0.6,1.2,1l-0.3,1.8c-0.5,0.4-1.1,0.4-1.7,0.6c-1,0.2-1.8,0.6-2.7,0.9c-0.2,0-0.3-0.1-0.4,0c-0.2,0.3-0.7,0.2-1,0.3
			C195.1,22.1,195.4,22.7,196,22.4z"/>
		<path class="st0" d="M190.9,21.1c0.1,0,0.2,0,0.3-0.1l0.2,0.5c-0.3,0.3-0.4,0.7-0.6,1.1c0.8-0.1,1.5-0.4,2.4-0.4
			c0-0.2,0.7-0.2,0.3-0.6c0.1,0,0.2,0,0.2-0.1c0.2,0.1,0.1,0.2,0.1,0.3c0.1,0.1,0.2,0,0.3,0v-0.2c0.2-0.4-0.1-0.6-0.3-0.9
			s-0.3-0.2-0.6-0.3c-0.9-0.4-1.7,0.2-2.8,0.2C190.3,21,190.9,20.6,190.9,21.1z"/>
		<path class="st0" d="M202.2,26.5c0.3,1,0.1,2.4-0.1,3.5c0.3,0.6,0,1.2-0.1,1.8c0.1,0.2,0.2,0.4,0.4,0.5c0.6,0.3,0.8-0.3,1.1-0.6
			c0.4-0.7-0.3-1.2,0.2-1.9c0.2-0.6-0.2-1.1,0.2-1.5c0-0.3,0-0.9-0.2-1h0.2c0.2-0.6-0.6-1.1-0.8-1.5c0-0.4,0.5-0.3,0.6-0.6
			c0.6-1,2.4-1.2,2.4-2.7c-0.8-0.5-1.9-0.6-2.7-0.2c-0.6,0.1-1.2,0.4-1.6,0.8c-1,0.4-1.6,1.7-2.8,1.8c-0.5,0-0.4-0.4-0.6-0.7
			c-0.2,0.4-0.6,1.1-0.5,1.5c0.1,0.5,0.6,0.6,0.8,1.1c0.4,0.3,0.3-0.3,0.6-0.4c0.5,0.1,0.1-0.6,0.6-0.8c0.1-0.8,1.3-0.9,1.3-1.9
			c0.6-0.4,1.2-0.9,1.9-1c0.2,0,0.2,0.2,0.2,0.3c-0.2,0.6-0.5,1.1-0.8,1.7s-1.1,0.6-1.5,1.1C201.3,26.4,202.1,26,202.2,26.5z"/>
		<path class="st0" d="M216.3,29.8c-0.5,0-0.8-0.4-1.3-0.6c-0.9-0.1-1.5-0.6-2.4-0.8c-0.5-0.4-1.2-0.5-1.6-1.1c-0.6,0-1-0.6-1.6-0.8
			c-0.6,0-0.9-0.6-1.2-1c-0.6-0.6,0.6-0.6,0.8-1.1c0.3-0.5,1.3-0.7,1.1-1.5c-0.2-0.2-0.4-0.6-0.7-0.6c0-0.2-0.4-0.2-0.5-0.4
			c-0.2,0.2,0,0.4,0,0.6c-0.2,1.1-1.1,1.9-1.9,2.7c-0.5-0.1-1,0.3-1.5,0.1h-0.1c0.6,0.2,0.2,1,0.6,1.4c-0.3,1.1,0.1,2.1-0.6,3
			c-0.2,0.6,0.4,0.7,0.6,1.1c0.3,0.1,0.6-0.1,0.9-0.2c0.2-1,1-1.9,1.3-2.9c0.6-0.2,0.7,0.9,1.5,1c0.1-0.1-0.1-0.2,0.2-0.3
			c0,0.1,0.2,0.1,0.2,0.2c0,0.2-0.1,0.2-0.2,0.2l0.2,0.1c-0.2,0.3,0.4,0.3,0.4,0.6c0.6,0.7,1.5,1.1,2.2,1.7c0.2,0,0.2-0.1,0.3-0.2
			l0.2,0.2c0.9,0.1,1.9-0.2,2.8,0c0.4-0.2,1.4,0.1,1.4-0.6C217.2,30.4,216.7,30.2,216.3,29.8L216.3,29.8z M206.8,29
			c-0.2,0-0.3-0.2-0.4-0.4c0.2-0.5-0.2-0.9,0.1-1.4c0-0.5,0.2-1,0.2-1.5c0.1-0.2,0.3-0.2,0.6-0.2c0.2,0.2,0.3,0.6,0.6,0.7
			c0.1,0.2,0.3,0.4,0.4,0.6C208.2,27.9,207.2,28.3,206.8,29z"/>
		<path class="st0" d="M193.6,28.3c0-0.2,0.2-0.4,0.1-0.6c0.3-0.5,0.5-1.1,0.4-1.7c-0.1,0.2-0.2,0.3-0.4,0.5
			c-0.2,0.9-0.7,1.8-1.1,2.7c-0.1,0.2-0.1,0.6-0.2,0.7c-0.7,1.7-1.2,3.7-2.3,5.3c0.1,0.3-0.4,0.3-0.2,0.7c-0.3,0.3-0.5,0.9-0.5,1.5
			c-0.5,0-0.2,0.5-0.6,0.6c-0.4,0-0.9-0.3-1.2-0.3c0.2,0.1,0.2,0.5,0.4,0.7c0.1,0.7,0.8,0.8,1.4,1.1c0.4-0.1,0.9,0.2,1.4-0.1
			c0.5,0,0.6-0.6,0.7-1c0.2-0.6,0.5-1.1,0.4-1.8c0.1-0.7,0-1.3,0.1-1.9c0.2-0.2,0.2-0.7,0.2-1c0.3-0.4,0.1-1.2,0.4-1.7
			c0.1-0.8,0.4-1.5,0.6-2.2C193.4,29.3,193.1,28.7,193.6,28.3z"/>
		<path class="st0" d="M199.2,27.7c-0.7,0.6-1.9,0.5-2.6,0.8c-0.3,0.2-0.7,0.4-1.1,0.6l0.9,0.1c0.3-0.5,0.5,0.2,0.7,0.2
			c-0.2,0.6-0.5,1.3-0.6,2c0.2,0.8-0.9,1.1-0.9,1.8c-0.6,0.6-0.7,1.5-1.5,1.9c-0.2,0.2-0.5-0.2-0.7,0c-0.1,0.4-0.1,0.8,0,1.2
			c0.2,0.2,0.5,0.2,0.6-0.1c0.4-0.2,0.7-0.6,0.9-0.9c0.6-0.2,0.6-1,1-1.5c0.6-0.5,1-1.3,1.4-1.9c0.2-0.7,0.7-1.3,0.8-1.8
			c0-0.4-0.3-0.8-0.4-1.3c0.2-0.2,0.5-0.2,0.8-0.3c0.4-0.2,0.6-0.5,1-0.2c0.2,0.1,0.4,0.2,0.3,0.4c0.2,0.8-0.6,1.1-0.4,1.8l0.2-0.2
			c0.8-0.3,1.1-1.1,1.2-1.9C200.6,27.8,199.9,27.6,199.2,27.7z"/>
		<path class="st0" d="M190.2,29.6c0.2-0.4,0.9-0.6,0.6-1.4c-0.2,0-0.3,0.1-0.5-0.2c-0.2,0.1-0.3-0.1-0.5-0.2
			c-0.1,0-0.2,0.1-0.2,0.2c-0.3-0.4-1-0.3-1.3,0c-0.6,0.1-0.9,0.6-1.4,0.8c-0.2,0.1-0.5,0.1-0.5,0.3c0.4,0.2,0.8,0.5,1.3,0.3
			C188.5,29.8,189.5,29.6,190.2,29.6z"/>
		<path class="st0" d="M209.9,41.6c0.1-0.2,0.2,0,0.2,0c0-0.1,0-0.1,0-0.2c-0.2-0.2-0.1-0.6-0.1-0.9c-0.3-0.2,0.2-0.6-0.2-0.9
			c0-1.5-0.4-2.8-0.2-4.1c0.2-0.4-0.2-0.9,0.1-1.3c0.3-1-0.2-1.5-0.6-2.2c-0.2-0.2,0-0.5-0.3-0.4c-0.2-0.5-0.7-0.2-1.1-0.6v0.2
			c0.6,0.2,0.3,0.6,0.5,1.1c0,0.6,0,1.2,0.3,1.7l-0.2,0.2c-0.1,0.4,0.1,0.8-0.2,1.3c0.4,1.5,0.1,3.3,0.3,5c0,0.8,0.1,1.8,0,2.7
			c0.2,0.6-0.2,1.2-0.2,1.9c-0.6,0.7,0.6,1.1,0.7,1.5c0.4,0.2,0.8-0.4,1.1-0.7c0.3-0.4-0.3-0.9,0.2-1.4c-0.1-0.6,0-1.3,0-1.9
			C210.1,42.1,210.2,41.7,209.9,41.6z"/>
		<path class="st0" d="M203.3,34.2c0.2,0.5,0.7,0.2,0.9,0.4c0.4,0,0.9,0.1,1.2-0.3c0.2-0.5-0.2-0.5-0.4-0.8
			c-0.7-0.2-1.3,0.1-1.9,0.2c-0.4-0.2-1-0.1-1.3-0.2c-0.2,0.3,0.2,0.4,0.4,0.7C202.5,34.1,202.8,34.4,203.3,34.2z"/>
		<path class="st0" d="M198,34.6l-0.1,0.5c0,0.2,0.2,0.5,0.2,0.7c0.2,0.7-0.3,1.2-0.2,1.9c-0.2,0.2,0.1,0.7-0.2,0.8
			c-0.2,0.9-0.6,1.6-0.6,2.5c0.1,0.3,0.3,0.2,0.6,0.4c0.6-0.2,0.4-0.4,0.8-0.8c-0.1-0.2,0.5-0.6,0.1-0.7l0.2-0.2l-0.2-0.2
			c0.4-0.2,0.5-0.6,0.6-1c-0.3-0.5,0.3-0.8,0-1.2c0.1-0.1,0.2-0.1,0.2-0.1c0.2-0.6-0.2-1.1,0.2-1.7C198.9,35.5,198.6,34.9,198,34.6z
			"/>
		<path class="st0" d="M205.6,36.3c-0.2-0.3-0.5,0.1-0.6-0.2c-0.8,0.4-1.9,0.6-2.8,0.9c0.5,0.6,1.5,0.3,2.1,0.6l0.2-0.2
			c0.2-0.1,0.2,0.2,0.2,0.2c0.4-0.1,0.7-0.5,1.1-0.3c0.3-0.2,0.7-0.3,0.6-0.8C206.3,36.1,205.9,36.4,205.6,36.3z"/>
	</g>
	<g>
		<path class="st0" d="M228.7,22.7c0.6,0.3,1.1,0.6,1.8,0.5c1.6,0.1,2.9-0.3,4.4-0.6c0.6,0.4-0.2,1-0.3,1.5
			c-0.2,0.6-0.9,1.1-0.8,1.9c0.4-0.3,0.6-0.9,1.2-1.1c0.7-1.5,2.6-1.7,4.1-2.2c1-0.3,2.2-0.4,2.6-1.3c0-0.2-0.1-0.5-0.2-0.6
			c-1-0.2-2-0.4-3-0.4c-0.2-0.3,0-1-0.1-1.3c0.2-0.5-0.4-0.8-0.4-1.3c-0.5-0.6-1.5-0.6-2.2-0.5l-0.4-0.2c-1.1-0.2-2.3,0.1-2.9,0.9
			c0.4,0.3,0.9,0.5,1.4,0.8c0.6-0.3,0.4,0.5,0.8,0.6c0.1,0.6,1.1,1.3,0.4,1.8c-1.9,0.6-4.2,0.6-6.3,1.1c-0.2,0.2-0.6-0.1-0.8,0.2
			C228,22.6,228.4,22.8,228.7,22.7z"/>
		<path class="st0" d="M254.7,33.5c-0.2-0.7-0.1-1.7-1.1-2.1c-0.2-0.7-1.1-1.2-1.8-1.6c-0.3-0.5-0.8-0.8-1.3-1.2
			c-0.2-0.7-1.3-0.7-1.6-1.4c0.2-0.4,0.3-1,1-1.1c0.9-1.1,1.9-2,3.1-2.8c0.2-0.8,1.4-1.1,1.2-1.9c0-0.8-1.1-0.6-1-1.5
			c-0.2,0-0.3,0-0.5-0.1c-0.2-0.2-0.6,0-0.9-0.1c-1,0.2-1.9,0.2-2.7,0.6c-0.7,0.1-1.6,0.4-2.4,0.2c-0.1-0.2,0-0.3,0-0.5
			c0-0.1-0.1-0.2-0.3-0.2c-0.4,0.5-1.1,0.2-1.7,0l0.2,0.3c0.2,0.4-0.1,0.8-0.2,1.1c-0.5,0.5-1.1-0.1-1.4-0.1
			c0.7,0.5,1.5,0.9,1.5,1.8c-0.2,0.5,0.2,1-0.1,1.5c-0.1,0.3,0.2,0.5,0.1,0.8c0.1,1.1-0.2,2.4-0.1,3.5c-0.2,1.4,0,2.8-0.1,4.3
			c-0.4,0.6,0.3,1.1,0,1.7c0.2,1.8-0.2,3.4-0.1,5.2c0.1,0.5-0.6,0.7-0.4,1.1c0.4,0.4,0.3,0.8,0.3,1.2c0.4,1.1,0.2,2.2,0.4,3.5
			c-0.1,0.2-0.2,0.6-0.1,0.8c-0.2,0.4,0.3,0.6,0.1,1.1c0.3,0.2,0.6,0.3,1,0.3c-0.2-0.3,0.2-0.6,0.3-0.9c0.6-0.4,0.1-1.1,0.5-1.8
			c0.2-0.3-0.2-0.7,0.1-0.9c0.2-1.2-0.2-2.4-0.1-3.5c0.1-0.2,0-0.3,0.1-0.5c-0.4-0.7,0-1.6,0-2.4c-0.6-1.1,0.2-2.4-0.4-3.5
			c0-0.2,0.5-0.2,0.3-0.5c0.1-0.1,0.2-0.2,0.3-0.2l1.1,1.4c0.6,0.6,0.9,1.5,1.7,2c0,0.6,0.6,0.2,0.8,0.6c0.5-0.4,1,0.1,1.3-0.4
			c0.2-0.4,1-0.7,1.2-1.1c0.3-0.4,0.6-0.8,1-1.3C254.8,34.8,254.4,34,254.7,33.5L254.7,33.5z M246.4,21.7c1.1,0,2.3,0,3.3-0.2
			c0.4,0,0.9-0.4,1.1,0.2c-0.2,1.5-1.2,2.5-1.9,3.9c-0.9,0.5-1.2,1.2-2,1.6c-0.5-0.2-0.2-0.7-0.3-1.1c-0.3-0.6,0.6-1.1-0.1-1.6
			C246.8,23.6,245.7,22.5,246.4,21.7L246.4,21.7z M251.6,33.9c0,0.6-0.2,0.8-0.7,1.2c-0.4,0.1-0.8-0.2-1.1,0
			c0.2-0.3-0.3-0.2-0.5-0.4c-0.7-0.4-1.5-1.1-1.9-1.9c-0.4-0.2-0.6-0.4-0.9-0.7c0.2-0.6-0.1-1-0.1-1.5c-0.2-0.7,0.6-1.5,0.3-2.4
			c0.3-0.5,1.2-0.5,1.9-0.5l0.5,0.2c1.4,0.6,1.5,1.9,2.2,3c-0.1,0.5,0.1,0.9,0.2,1.3c-0.2,0.2,0.1,0.4,0.2,0.6
			C251.4,33.1,251.5,33.5,251.6,33.9z"/>
		<path class="st0" d="M242.6,28.8c-0.6-0.3-1.4,0.1-2-0.1c-0.3-0.3-0.9,0.1-1.3-0.2c0.2-0.5,0.6-0.6,1-1.1c0.5-0.2,0.7-1,1-1.4
			c-0.2-0.6-0.7-1.3-1.5-1.5c-0.6-0.4-1.4-0.2-2,0c0.2,0.2,0.5,0.5,0.6,0.6c-0.2,0.5,0.2,1-0.3,1.2c0.1,0.1,0.2,0.2,0.2,0.3
			c-0.4,0.2-0.5,0.6-0.7,1c-0.6,0.4-0.6,1.3-1.5,1.4c-0.6,0.2-1.1,0-1.5,0.2c-0.6-0.5,0.2-1.1,0-1.5c0.5-0.3,0.1-0.8,0.4-1.2
			c-0.6-0.1-1.1,0.2-1.5-0.2c-0.3,0.3-0.2,0.6-0.4,1.1c-0.7,0.7,0.7,2-0.7,2.4c-1.3,0.1-2.4,0.6-3.6,0.6c-1.3,0-2.7,0.2-3.8,0.6
			c-0.4-0.2-1.7,0.1-2.3,0.2c0.2,0.4,0.4,0.6,0.9,0.6c0.2-0.2,1.1,0.8,1.6,0.5c0.4-0.2,0.8,0,1.4-0.1c0.6-0.2,1.6-0.6,2-0.4
			c0.5,0.2,1-0.3,1.5-0.3c0.9-0.6,2.1-0.4,3-1c0.7,0.1,1.1-0.3,1.8-0.3c0.9,0.6,2,0.2,2.9-0.2c0.6-0.2,1.1-0.1,1.5,0
			c1,0.4,1.5-0.4,2.4-0.2c0.5-0.5,1.1-0.7,1.5-1.2C242.8,28.4,242.8,28.9,242.6,28.8z"/>
		<path class="st0" d="M240.6,33.3l-0.2-0.2c-0.7-0.2-1.1-0.7-1.8-0.5c-0.8,0.5-1.8,0.1-2.4,0.6c-0.8-0.1-1.5,0.5-2.4,0.3
			c-0.3,0.2-0.8-0.1-1.1,0.4c-1-0.3-1.9-0.2-2.8,0.1c-0.2,0.2-0.6,0.1-0.5,0.4c0.4,0,0.5,0.2,0.8,0.4c1.3,0.1,1.4,1.4,1.6,2.2
			c0,0.7,0.1,0.8,0,1.5l-0.7,0.4l0.7,0.2c0.3,0.2,0.2,0.7,0.3,1.1c0.3,0,0.6,0.2,0.8,0c0.1-0.1,0.1-0.2,0.1-0.3
			c0.6-0.2,1.3-0.4,1.9-0.3c0.6-0.1,1.1-0.2,1.7-0.3c0.8-0.1,1.7-0.2,2.5-0.3c1.1-0.4-0.5-0.9,0.4-1.5c0.1-0.5,0.2-0.6,0.5-1
			c0.5-0.8,1.3-1.5,1.5-2.4C241.7,33.7,241.2,33.3,240.6,33.3L240.6,33.3z M238.3,35.7c0,0.6-0.5,1.2-0.3,1.7
			c0.2,0.3,0.2,0.1,0.1,0.6c-1.3,0.2-3.1,0.6-4.4,0.4c-0.6-0.3,0.1-0.4-0.3-0.7c0.1-1-0.4-1.7-0.2-2.7c1-0.2,1.8-0.9,2.9-0.5
			c0.6-0.1,1.9-0.5,2.5-0.2C238.3,34.8,238.9,35.3,238.3,35.7z"/>
	</g>
	<g>
		<path class="st0" d="M161.9,22.2h-0.2l-0.1-0.2l-0.1-0.2l-0.2-0.2l-0.1-0.1l-0.2-0.2l-0.2-0.1l-0.2-0.1l-0.1-0.2l-0.1-0.1v-0.2
			l-0.1-0.1l-0.1-0.1h-0.1l-0.1-0.1l-0.2-0.1v-0.1l-0.2-0.1l-0.2,0.1v0.1l-0.1,0.2v0.2V21v0.2l-0.1,0.1v0.2v0.1v0.2l-0.1,0.1v0.2
			l-0.1,0.1l-0.1,0.2v0.1l-0.1,0.1v0.2l-0.1,0.1l-0.1,0.1v0.1l-0.1,0.1l-0.1,0.1l-0.1,0.1v0.1l0,0v0.1v0.1v0.1v0.1l-0.1,0.1h-0.1
			v0.1H158l-0.1,0.1h-0.1h-0.1l-0.1,0.1h-0.1v0.1v0.1l-0.1,0.1V24l0,0l-0.1,0.1v0.1l-0.1,0.1l0,0l-0.1,0.1H157v0.1l-0.1,0.1v0.1l0,0
			v0.1v0.1l-0.1,0.1l-0.1,0.1V25l-0.1,0.1l-0.1,0.1l-0.1,0.1l-0.1,0.1h-0.1v0.1l-0.1,0.1l-0.1,0.1l-0.1,0.1h-0.1l-0.1,0.1l-0.1,0.1
			v0.1l-0.1,0.1h-0.1v0.1h-0.1v0.1v0.1h-0.1h-0.1v0.2l-0.1,0.1l-0.1,0.2l-0.1,0.1l-0.1,0.1l-0.2,0.1l-0.1,0.2l-0.1,0.1v0.1l-0.1,0.1
			h-0.1v0.1L154,28h-0.1l-0.1,0.1v0.1l-0.2,0.1h1.4l-0.1-0.1h-0.1l-0.1-0.1l-0.1-0.1l-0.1-0.1h-0.1h-0.1h-0.1h-0.1l-0.1-0.1h-0.1
			v-0.1h-0.1l-0.1-0.1v-0.1l-0.1-0.1l-0.1-0.1h-0.1l-0.1-0.1l0,0h-0.1l-0.1-0.1h-0.2l-0.2-0.1l-0.2-0.1l-0.2-0.1l-0.2-0.2l-0.2-0.1
			l-0.1-0.2l-0.2-0.2l0.1-0.1l0,0v-0.1l0,0v-0.1h0.1v-0.1h0.1v-0.2l0.1-0.1l0.1-0.2l0.1-0.1l0.1-0.1l0.1-0.2l0.1-0.1v-0.2h0.1v-0.1
			h0.1l0.1-0.1l0,0v-0.1h0.1v-0.1h0.1l0.1-0.1h0.1l0.1-0.1V24l0.1-0.1l0.1-0.1h0.1l0.1-0.2l0,0l0.1-0.1l0.1-0.1l0.1-0.1h0.1l0.1-0.1
			l0.1-0.2l0.1,0.1V23l0,0l0.1-0.1v-0.1V23l0,0l0.1-0.1l0.1-0.1h0.1v-0.1h0.1v-0.2l0.1-0.2l0.1-0.1l0.1-0.1l0.2-0.1l0.1-0.1l0.1-0.1
			l0.1-0.2v-0.1l0,0v-0.1h0.1l0,0v-0.1l0,0v-0.1l0.1-0.1l0.1-0.2l0.1-0.1h0.1l0.6-1.2v-0.1l0.1-0.1v-0.2v-0.1V19l0,0l-0.1-0.1v-0.1
			l-0.1-0.1l-0.1-0.1l-0.1-0.1h-0.1l-0.1-0.1v-0.1l-0.1-0.1v-0.1l-0.1-0.1v-0.1h-0.2h-0.1l0,0l-0.1,0.1l0,0l-0.1,0.1l0,0l-0.1,0.1
			l0,0l-0.1-0.1h-0.1h-0.1h-0.1H155l-0.1-0.1l0,0l-0.1-0.1h-0.1v-0.1v-0.1l-0.1-0.1l0,0l-0.1-0.1l0,0h-0.1l0,0h-0.1l-0.1,0.1v-0.1
			l0,0h-0.1l0,0H154l0,0l-0.1,0.2v0.1v0.1V18v0.1v0.1v0.1V19l-0.1,0.2v0.2v0.1l-0.1,0.2v0.1l-0.1,0.2l-0.1,0.1l-0.1,0.6l0.1-0.4
			l-0.5,1.1v0.1v0.1l-0.1,0.1v0.1l0,0V22v0.1v0.1h-0.1l-0.1,0.1l0,0l-0.1,0.1h0.4v0.1l-0.1,0.1v0.1v0.1l-0.1,0.1V23l-0.1,0.1v0.1
			v0.1l-0.1,0.1v0.1V23l-0.1,0.1v0.1v0.1v0.1l-0.2,0.1l-0.1,0.2l-0.1,0.1L152,24l-0.1,0.1L152,24l-0.1,0.1v0.2v0.1l-0.1,0.1v0.1
			l-0.1,0.1l-0.1,0.1l-0.1,0.1l-0.1,0.1v0.1V25l-0.1,0.1v0.1v0.1v0.1l-0.1,0.1v0.1l-0.1,0.1v0.1H151l0,0h-0.1l0,0h0.1l0,0l-0.1-0.1
			l0,0l-0.1,0.1l0,0l0,0h-0.1l0,0h-0.1l0,0h-0.1l0,0h-0.1v-0.1l-0.1,0.1h-0.1h-0.1l-0.1-0.1h-0.1l-0.1-0.1h-0.1h-0.2h-0.1v-0.1
			l-0.1,0.1h-0.1h-0.1H149h-0.1l0,0h-0.1h-0.1l0,0l-0.1-0.1h0.4l0,0h-0.1v0.1v0.1l-0.1,0.2v0.2v0.2v0.2v0.1l0.1,0.2L149,27v0.1v0.1
			l0,0l0.1,0.1l0.1,0.1v0.1h0.1l0.1,0.1l0.1,0.1l0.1,0.1l0.1,0.1l0.1,0.1l0.1,0.1h0.1h0.1h0.2v0.1l0,0h0.1l0,0l0.1-0.1l0,0h0.1v0.1
			h0.2h0.1h0.1c0.2-0.1,0.1-0.1,0.2-0.1v0.1h0.2h0.1l0.1,0.1h0.1h0.1l0.1,0.1h0.1h0.1h0.1h0.2l0.1,0.1h0.1l0.1,0.1h0.2h0.1h0.1
			l0.1,0.1l0.1,0.1h0.1h0.2l0.1,0.1h0.1h0.1h0.1l0.1,0.1h0.2h0.1l0.1,0.1h0.1l0.1,0.1l0.1,0.1v0.1l0.1,0.1v0.2v0.1V29l-0.1,0.1v0.1
			l-0.1,0.1v0.1l-0.1,0.1l-0.1,0.1l-0.1,0.1l-0.1,0.1l-0.1,0.1l-0.1,0.1v0.1L153,30h-0.1l-0.1,0.1l-0.1,0.1v0.1l-0.1,0.1l-0.1,0.1
			v0.1h-0.1l-0.1,0.1h-0.1l-0.1,0.1l-0.1,0.1l-0.1,0.1l-0.1,0.1l-0.1,0.1h-0.1l-0.1,0.1l-0.1,0.1l-0.1,0.1l-0.1,0.1l-0.1,0.1v0.1
			l-0.1,0.1l-0.1,0.1l-0.1,0.1v0.1h-0.1l-0.1,0.1l-0.1,0.1h-0.1l-0.1,0.1l-0.1,0.1H150h-0.1l-0.1,0.2l-0.1,0.1l-0.1,0.1l-0.1,0.1
			l-0.1,0.1l-0.2,0.1l-0.1-0.1l-0.1,0.1l0,0l-0.1,0.1l-0.1,0.1l-0.1,0.1V33h-0.1h-0.1l0,0h-0.1l0,0h-0.1l0,0h-0.1l0,0l-0.2,0.1h-0.1
			l-0.1-0.1h-0.2l-0.1-0.1l-0.1-0.1l-0.1-0.1h-0.1h-0.1l-0.1,0.1l-0.1,0.2v0.1v0.1l-0.1,0.2v0.1v0.2h0.1v0.1v0.1V34l0.1,0.1v0.1V34
			l0.1,0.1l0,0v0.1v0.1l0,0v0.1v0.1l0.1,0.1v0.1v0.1l0.1,0.1V35h0.1v0l0.1,0.1v0.1l0.1,0.1l0.1,0.1l0.1,0.1l0.1,0.1l0.1,0.1l0,0h0.1
			h0.1h0.1l0,0h0.1h0.1h0.1h0.1h0.1h0.1l0.1-0.1h0.1h0.1l0.2-0.1h0.1h0.1l0.1-0.1h0.1l0.1-0.1h0.2l0.1-0.1h0.1l0.1-0.1V35h0.1
			l0.1-0.1l0,0h0.1h0.1h0.1l0.1-0.1l0.1-0.1h0.1l0.1-0.1l0.1-0.1l0.1-0.1l0.1-0.1l0.1-0.1l0.1-0.1h0.1l0.2-0.1h0.1l0.1-0.1l0.1-0.1
			h0.1l0.1-0.1h0.1h0.2l0.2-0.1h0.1l0.2-0.1h0.1l0.2-0.1l0.1-0.1l0.2-0.1l0,0h0.1h0.1l0,0h0.2h0.2l0.2-0.1L155,33l0.1-0.2l0.2-0.1
			L155,33l0.2-0.1h0.1l0.1-0.1h0.1l0.1-0.1l0.1-0.1l0.1-0.1l0.1-0.1l0.1-0.1l0.6-0.1l0,0l0.1-0.1l0.1-0.1l0,0l0.1-0.1l0.1-0.1l0,0
			l0.1-0.1l0.1-0.1l0.1-0.1h0.1l0.1-0.1h0.2l0.1-0.1l0.1-0.1V31h0.1l0,0l0,0h0.1l0,0h0.1l0,0l0.1-0.1l0.1,0.1l0,0v0.1h0.1v0.1v0.1
			l0,0l0.1,0.1v0.1v0.1l0.1,0.2v0.1l0.1,0.1l0.1,0.1l0.1,0.1v0.1v0.1v0.1l0.1,0.1v0.1l0.1,0.1v0.1l0,0V33l0.1,0.1l0.1,0.1l0.1,0.1
			l0.1,0.1v0.2l0.1,0.1l0.1,0.1l0.1,0.1V34l0.1,0.1l0,0h0.1l0.1,0.1h0.1V34h0.1l0.2,0.1h0.2L160,34l0.1-0.1l0.1-0.2l0.2-0.1l0.1-0.2
			l0.2-0.1v-0.1v-0.1V33v-0.1v-0.1V33v-0.1l0,0v-0.1v-0.1v-0.1l-0.1-0.1v-0.1l-0.1-0.1v-0.1l0.1-0.1v-0.2l0.1-0.1v-0.1l-0.1-0.2
			v-0.1l-0.1-0.1v-0.1l-0.1-0.2l0.1-0.1v-0.1v-0.1V31l-0.1-0.1v-0.1l-0.1-0.1v-0.1l-0.1-0.1v-0.1h-0.1H160l-0.1-0.1h-0.1h-0.1
			l-0.1-0.1l0,0l-0.1-0.1l0,0V30h-0.1v-0.1l0,0l-0.1-0.1h-0.1h-0.1l-0.2-0.1v-0.1l-0.1-0.1l-0.1-0.1l-0.1-0.1l-0.1-0.1h-0.1h-0.1
			l-0.1-0.1l0,0h-0.1H158l0,0l-0.1-0.1h-0.1h-0.1l-0.1-0.1h0.4l-0.2-0.1l-0.1-0.1h-0.1h-0.1h-0.1l0,0h-0.1v0.1h-0.1l0,0v0.1l0,0V29
			v0.1l0.1,0.1v0.1v0.1l0.1,0.1v0.1h0.1v0.2v0.1l0.1,0.2v0.2v0.1v0.1v0.1l-0.1,0.2v0.1l0,0V31h-0.1v0.1h-0.1v0.1l0,0l-0.2,0.1H157
			h-0.1h0.1l-0.1-0.1l-0.1,0.1h-0.1h-0.1l-0.1,0.1h-0.1h-0.1h-0.1h-0.1H156l-0.1,0.1l-0.1,0.1h-0.1l0,0v0.1h-0.1l0,0h-0.1l0,0
			l-0.1-0.1v0.1h-0.1h-0.1h-0.1l-0.1-0.1l0,0l-0.1-0.1h-0.1l-0.2,0.1l-0.2,0.1l-0.1,0.1l-0.2,0.1l-0.2,0.1h-0.2l-0.1,0.1l-0.2,0.1
			l0,0l-0.1,0.1h-0.1v0.1h-0.1v0.1l-0.1,0.1h-0.1l0,0l0,0h-0.1l0,0h-0.1l0,0l0,0h-0.1l0,0h-0.1l0,0v0.1l-0.1-0.1h-0.1h-0.1v0.1h0.8
			l-0.1,0.1l0,0h-0.1h-0.1l0,0h-0.1h-0.1l0,0h-0.1v-0.1l0,0h-0.1v-0.1l0,0l-0.1-0.1h0.1v-0.1l0,0v-0.1V32h0.1v-0.1h0.1v-0.2l0.1-0.2
			l0.2-0.2l0.1-0.2l0.2-0.1l0.2-0.2l0.1-0.2l0.2-0.1l0,0l0.1-0.1l0,0l0.1-0.1l0,0h0.1v-0.1h0.1h0.1h0.2h0.1l0.2-0.1l0.1-0.1l0.1-0.1
			l0.1-0.1l0.1-0.1l0.1-0.1l0.1-0.1l0.1-0.1l0.1-0.1h0.1l0.1-0.1l0.1-0.1h0.2V29h0.1l0,0l0.1-0.1l0,0v-0.1h0.1v-0.1h0.1h0.1l0.1-0.1
			l0,0l0.1-0.1v-0.1L156,29l0.1-0.1h0.2l0.1-0.1l0.2-0.2l0.1-0.1l0.2-0.1l0.1-0.1l0.2-0.2l0.1-0.1v0l0.1-0.1v-0.1l0.1-0.1l0.1-0.1
			l0.1-0.1l0.1-0.1v-0.1l0.2-0.2l0.2-0.1l0.2-0.2l0.1-0.1l0.2-0.2l0.1-0.2l0.2-0.2l0.2-0.1l0.1-0.2l0.1-0.1l0.1-0.2l0.2-0.1l0.1-0.1
			l0.2-0.1l0.1-0.2l0.2-0.1v-0.1l0,0v-0.1l-0.1-0.1l0,0v-0.1l0.1-0.1l0,0l0.1-0.1h0.1l0,0h0.1h0.1l0,0h0.1v-0.1l0.1-0.1l0.2-0.1
			l0.1-0.2l0.1-0.2l0.1-0.1l0.2-0.2l0.1-0.1l0.2-0.1V24l0.1-0.1v-0.1h0.1l0.6-0.4l0.1-0.2l0.1-0.2l0.1-0.1l0.1-0.2l0.1-0.2l0.1-0.2
			v-0.2L161.9,22.2z"/>
		<polygon class="st0" points="165.4,22.5 165.5,22.5 165.6,22.5 165.7,22.5 165.8,22.6 165.8,22.7 165.8,22.7 165.9,22.7 166,22.8 
			166.1,22.7 166.2,22.7 166.2,22.7 166.3,22.7 166.3,22.7 166.4,22.7 166.4,22.7 166.5,22.8 166.6,22.8 166.6,22.7 166.7,22.7 
			166.7,22.7 166.8,22.7 166.8,22.7 166.9,22.7 167,22.7 167.1,22.7 167.1,22.7 167.2,22.7 167.4,22.7 167.5,22.7 167.5,22.6 
			167.6,22.6 167.7,22.5 167.8,22.5 167.9,22.4 168,22.3 168.1,22.3 168.2,22.3 168.3,22.3 168.4,22.3 168.4,22.3 168.5,22.3 
			168.6,22.3 168.7,22.3 168.7,22.3 168.8,22.3 168.8,22.3 168.9,22.2 168.9,22.2 169.1,22.1 169.3,22 169.4,21.9 169.5,21.9 
			169.7,21.8 169.8,21.7 170,21.7 170.1,21.7 170.3,21.6 170.4,21.5 170.6,21.4 170.7,21.4 170.9,21.3 171,21.3 171.1,21.2 
			171.3,21.1 171.4,21.1 171.6,21 171.8,21 171.9,21 172.1,20.9 172.2,20.9 172.3,20.8 172.5,20.8 172.6,20.7 172.7,20.6 
			172.7,20.6 172.8,20.6 172.9,20.6 173,20.7 173.1,20.7 173.2,20.7 173.2,20.6 173.2,20.5 173.3,20.4 173.3,20.3 173.4,20.2 
			173.5,20.2 173.5,20.1 173.6,20.1 173.6,20.1 173.6,20.1 173.6,20.1 173.6,20.2 173.7,20.2 173.7,20.2 173.8,20.2 173.8,20.2 
			173.9,20.2 173.9,20.2 174,20.2 174,20.1 174,20 174,20 174,19.9 173.9,19.9 173.8,19.8 173.8,19.7 173.8,19.7 173.7,19.7 
			173.7,19.6 173.6,19.5 173.6,19.4 173.6,19.3 173.6,19.3 173.6,19.3 173.6,19.3 173.5,19.3 173.5,19.3 173.4,19.3 173.3,19.3 
			173.3,19.2 173.2,19.2 173.2,19.2 173.1,19.1 173,19 172.8,19 172.7,19 172.5,19 172.3,19 172.3,19 172.1,18.9 171.9,18.9 
			171.8,18.9 171.6,18.9 171.5,18.9 171.4,18.9 171.3,19 171.3,19.1 171.2,19.2 171.1,19.3 171.1,19.4 171.1,19.6 171,19.6 
			171,19.6 171,19.6 170.9,19.6 170.8,19.6 170.7,19.6 170.6,19.6 170.6,19.6 170.5,19.7 170.3,19.7 170.1,19.8 170.1,20 
			169.9,20.1 169.7,20.2 169.7,20.2 169.5,20.4 169.4,20.4 169.3,20.4 169.2,20.4 169.1,20.5 169,20.6 168.9,20.6 168.8,20.8 
			168.7,20.9 168.7,20.9 168.6,20.9 168.5,20.9 168.5,20.9 168.4,20.9 168.4,20.8 168.3,20.8 168.3,20.8 168.2,20.8 168.1,20.8 
			168.1,20.9 168,21 168,21 168,21 168,21.1 168,21.2 168,21.2 168,21.3 167.9,21.4 167.9,21.4 167.8,21.4 167.8,21.4 167.7,21.4 
			167.6,21.3 167.5,21.3 167.5,21.3 167.3,21.3 167.2,21.3 167.1,21.2 167,21.2 166.9,21.2 166.7,21.2 166.7,21.4 166.5,21.4 
			166.3,21.5 166.1,21.4 165.9,21.4 165.8,21.5 165.6,21.5 165.4,21.7 165.4,21.8 165.4,21.9 165.4,22 165.4,22.1 165.4,22.2 
			165.3,22.3 165.4,22.3 		"/>
		<polygon class="st0" points="173.9,23.4 173.9,23.4 173.8,23.4 173.8,23.3 173.7,23.3 173.7,23.2 173.6,23.2 173.6,23.2 
			173.6,23.2 173.6,23.1 173.6,23 173.6,23 173.5,23 173.5,23 173.4,23 173.3,23 173.3,22.9 173.2,23 173.2,23 173.1,23.1 173,23.1 
			173,23.1 172.9,23.2 172.9,23.2 172.9,23.3 173,23.4 173,23.5 173.1,23.5 173.2,23.6 173.2,23.6 173.2,23.6 173.3,23.6 
			173.4,23.7 173.5,23.9 173.6,24 173.6,24.1 173.6,24.2 173.7,24.4 173.8,24.5 173.9,24.6 174,24.8 174,24.8 174,24.9 174,24.9 
			174.1,24.9 174.1,25 174.2,25 174.2,25.1 174.3,25.1 174.3,25.2 174.3,25.2 174.3,25.3 174.4,25.3 174.4,25.5 174.4,25.7 
			174.4,25.8 174.4,25.9 174.4,26.1 174.4,26.2 174.3,26.3 174.2,26.5 174.2,26.6 174.2,26.7 174.1,26.8 174.1,26.9 174.1,27.1 
			174.1,27.1 174.1,27.2 174.1,27.4 174,27.5 174,27.6 174,27.8 174,27.9 174,28 174,28.2 174,28.3 174,28.4 174,28.4 174.1,28.5 
			174.1,28.5 174.2,28.6 174.2,28.6 174.2,28.7 174.2,28.8 174.2,28.8 174.3,28.9 174.4,29.1 174.4,29.2 174.5,29.2 174.6,29.4 
			174.7,29.5 174.8,29.6 174.8,29.8 174.9,29.9 175,30.1 175.2,30.1 175.3,30.2 175.5,30.4 175.7,30.4 175.8,30.5 176,30.5 
			176.1,30.5 176.2,30.5 176.3,30.5 176.4,30.5 176.6,30.5 176.6,30.5 176.7,30.5 176.9,30.5 177,30.5 177,30.5 177,30.5 
			177.1,30.5 177.1,30.4 177.2,30.3 177.3,30.3 177.3,30.2 177.3,30.1 177.3,29.8 177.3,29.6 177.2,29.5 177.2,29.3 177.1,29.2 
			177,29 176.9,28.8 176.8,28.8 176.8,28.8 176.7,28.8 176.7,28.8 176.7,28.8 176.6,28.8 176.6,28.8 176.6,28.8 176.5,28.7 
			176.4,28.7 176.3,28.7 176.2,28.7 176.1,28.8 176,28.7 175.9,28.7 175.8,28.5 175.8,28.5 175.7,28.4 175.7,28.4 175.6,28.3 
			175.5,28.3 175.4,28.3 175.3,28.3 175.3,28.3 175.3,28.3 175.2,28.3 175.1,28.2 175.1,28.2 175.1,28.1 175,28 175,27.9 175,27.9 
			174.9,27.8 174.9,27.7 174.9,27.5 174.9,27.4 174.9,27.3 174.9,27.1 174.9,27.1 174.9,26.9 174.9,26.7 175,26.5 175.2,26.3 
			175.3,26.2 175.4,26 175.6,25.8 175.7,25.7 175.8,25.5 175.9,25.4 176,25.4 176.1,25.3 176.2,25.3 176.3,25.3 176.4,25.3 
			176.5,25.2 176.6,25.1 176.6,25 176.6,25 176.6,24.9 176.6,24.9 176.8,24.9 176.8,24.9 176.8,24.8 176.8,24.7 176.8,24.6 
			176.8,24.5 176.8,24.5 176.9,24.4 176.7,24.2 176.6,24 176.5,23.9 176.3,23.7 176.2,23.6 176.1,23.4 175.9,23.2 175.7,23.2 
			175.6,23.1 175.4,23.1 175.3,23.2 175.2,23.2 175,23.2 174.9,23.3 174.8,23.4 174.6,23.5 174.5,23.5 174.5,23.5 174.4,23.5 
			174.4,23.4 174.4,23.4 174.4,23.3 174.3,23.3 174.2,23.2 174.1,23.2 174.1,23.2 174,23.2 174,23.3 174,23.3 174,23.4 174,23.4 		
			"/>
		<polygon class="st0" points="170.3,32 170.5,32 170.6,32 170.6,32.1 170.7,32.2 170.7,32.3 170.8,32.4 170.9,32.6 171,32.7 
			171,32.7 171,32.7 171,32.7 171.1,32.7 171.2,32.7 171.2,32.7 171.3,32.6 171.3,32.6 171.4,32.7 171.5,32.7 171.6,32.8 
			171.7,32.8 171.9,32.8 171.9,32.8 172,32.8 172.2,32.8 172.3,32.7 172.4,32.6 172.5,32.4 172.6,32.2 172.7,32.1 172.7,31.9 
			172.7,31.8 172.7,31.5 172.6,31.4 172.5,31.3 172.5,31.1 172.4,30.9 172.3,30.7 172.3,30.5 172.1,30.5 171.9,30.5 171.9,30.5 
			171.8,30.4 171.7,30.3 171.6,30.2 171.5,30.1 171.4,30.1 171.4,30 171.3,29.8 171.2,29.8 171.2,29.7 171.1,29.6 171.1,29.6 
			171.1,29.5 171.1,29.4 171,29.3 171,29.2 171.1,29 171.1,28.8 171.1,28.7 171.2,28.4 171.2,28.3 171.3,28 171.4,27.9 171.5,27.8 
			171.6,27.6 171.6,27.5 171.7,27.4 171.7,27.2 171.8,27.1 171.9,27.1 171.9,26.9 171.9,26.8 172,26.6 172.1,26.6 172.1,26.4 
			172.1,26.2 172.1,26.2 172.1,26 172.1,25.8 172.2,25.7 172.2,25.6 172.1,25.6 172.1,25.5 172.1,25.4 172.1,25.3 172,25.3 
			172,25.2 171.9,25.1 171.9,25 171.8,25 171.7,25 171.6,24.9 171.5,24.9 171.4,24.9 171.4,24.8 171.3,24.7 171.2,24.7 171,24.6 
			171,24.6 170.8,24.7 170.7,24.7 170.6,24.7 170.5,24.6 170.3,24.5 170.3,24.5 170.2,24.5 170.1,24.5 170.1,24.5 170,24.5 
			170,24.5 169.9,24.6 169.8,24.6 169.8,24.7 169.7,24.7 169.7,24.6 169.7,24.6 169.7,24.6 169.7,24.5 169.6,24.5 169.5,24.5 
			169.5,24.5 169.4,24.6 169.3,24.6 169.3,24.7 169.3,24.8 169.3,24.9 169.3,24.9 169.3,24.9 169.3,25 169.3,25.1 169.3,25.2 
			169.3,25.3 169.3,25.3 169.3,25.4 169.4,25.5 169.4,25.7 169.5,25.8 169.5,25.8 169.6,25.9 169.6,26.1 169.7,26.2 169.7,26.2 
			169.7,26.4 169.7,26.5 169.7,26.6 169.7,26.7 169.7,26.8 169.8,26.9 169.7,27 169.7,27.1 169.7,27.1 169.8,27.1 169.8,27.2 
			169.8,27.3 169.9,27.4 169.9,27.4 169.9,27.5 169.9,27.6 169.9,27.7 169.9,27.8 169.9,27.9 169.8,28 169.8,28.1 169.7,28.2 
			169.8,28.2 169.8,28.3 169.7,28.3 169.7,28.5 169.7,28.6 169.7,28.7 169.7,28.8 169.7,28.8 169.7,29 169.6,29.1 169.6,29.2 
			169.6,29.2 169.6,29.4 169.6,29.5 169.6,29.6 169.6,29.6 169.6,29.7 169.5,29.8 169.5,29.9 169.4,30 169.4,30.1 169.4,30.1 
			169.4,30.2 169.4,30.4 169.4,30.5 169.5,30.4 169.6,30.4 169.6,30.4 169.7,30.4 169.7,30.5 169.7,30.5 169.7,30.5 169.8,30.6 
			169.8,30.6 169.8,30.7 169.8,30.8 169.7,30.9 169.9,31 170,31.1 170,31.3 170.1,31.4 170.1,31.6 170.2,31.7 170.2,31.8 		"/>
		<polygon class="st0" points="164.5,30.1 164.4,30.2 164.5,30.3 164.5,30.5 164.5,30.5 164.5,30.6 164.5,30.7 164.5,30.9 
			164.5,30.9 164.5,31 164.5,31.2 164.5,31.3 164.6,31.4 164.6,31.5 164.7,31.6 164.7,31.8 164.7,31.8 164.8,31.9 164.8,32.1 
			165,32.2 165.1,32.4 165.2,32.6 165.4,32.7 165.4,32.9 165.6,33.1 165.8,33.1 165.8,33.3 165.9,33.4 166,33.4 166,33.4 
			166.1,33.4 166.2,33.4 166.3,33.4 166.3,33.4 166.4,33.4 166.5,33.4 166.5,33.4 166.6,33.5 166.6,33.5 166.6,33.5 166.7,33.5 
			166.7,33.5 166.7,33.5 166.8,33.5 166.8,33.5 166.9,33.5 167,33.5 167.1,33.4 167.1,33.2 167.1,33.1 167.1,32.9 167.1,32.8 
			167,32.7 167,32.5 167,32.3 167,32.2 166.9,32.2 166.8,32.1 166.8,32 166.7,32 166.7,31.9 166.7,31.9 166.6,31.8 166.5,31.8 
			166.4,31.8 166.3,31.7 166.3,31.6 166.2,31.5 166.1,31.4 166,31.3 165.9,31.2 165.8,31.1 165.8,31 165.8,30.9 165.7,30.8 
			165.7,30.6 165.7,30.5 165.6,30.5 165.5,30.5 165.5,30.4 165.4,30.2 165.4,30.1 165.4,30.1 165.4,30 165.3,30 165.4,29.9 
			165.4,29.8 165.4,29.7 165.4,29.6 165.4,29.6 165.5,29.5 165.5,29.4 165.6,29.3 165.7,29.2 165.7,29.2 165.8,29.1 165.8,29.1 
			165.9,29 166,29 166.1,28.9 166.1,28.8 166.2,28.8 166.3,28.7 166.3,28.7 166.4,28.5 166.5,28.4 166.6,28.3 166.7,28.3 
			166.8,28.2 166.9,28.1 167,28 167.1,27.9 167.2,27.7 167.1,27.5 167.1,27.4 167,27.2 166.9,27 166.8,26.8 166.8,26.6 166.7,26.5 
			166.7,26.4 166.7,26.3 166.6,26.2 166.6,26.2 166.5,26.2 166.4,26.1 166.3,26.1 166.1,26.1 165.9,26 165.8,25.9 165.6,25.8 
			165.4,25.6 165.4,25.5 165.1,25.5 165,25.6 165,25.7 164.9,25.8 164.8,25.8 164.7,25.8 164.6,25.8 164.5,25.8 164.5,25.8 
			164.5,25.9 164.5,26 164.5,26 164.5,26.1 164.4,26.2 164.4,26.2 164.4,26.2 164.4,26.2 164.5,26.3 164.5,26.4 164.5,26.5 
			164.5,26.5 164.6,26.6 164.7,26.6 164.8,26.7 164.8,26.7 164.8,26.9 164.8,27 164.9,27.1 164.9,27.2 164.9,27.3 164.9,27.4 
			164.9,27.5 164.9,27.6 164.9,27.7 164.9,27.9 164.9,27.9 164.9,28 164.9,28.2 164.9,28.3 164.9,28.4 164.9,28.5 164.9,28.6 
			164.8,28.8 164.8,28.8 164.8,28.9 164.7,29.1 164.7,29.2 164.7,29.2 164.7,29.3 164.6,29.4 164.6,29.5 164.5,29.6 164.5,29.6 
			164.5,29.7 164.5,29.8 164.5,30 		"/>
		<polygon class="st0" points="179.2,41.1 179.2,41.2 179.1,41.1 179,41 178.9,41 178.8,40.9 178.8,40.9 178.7,40.9 178.6,40.9 
			178.4,40.9 178.4,40.9 178.3,40.9 178.3,40.9 178.3,41 178.2,41.1 178.2,41.1 178.1,41.1 178,41.1 178,41 177.9,40.9 177.9,40.9 
			177.8,40.9 177.7,40.9 177.6,40.9 177.5,40.8 177.5,40.8 177.4,40.8 177.3,40.9 177.3,40.9 177.2,40.9 177.1,40.9 177,40.8 
			177,40.9 177,40.9 177,40.9 177,40.9 176.9,40.9 176.8,40.9 176.8,40.9 176.7,40.9 176.7,40.9 176.6,40.9 176.6,40.9 176.6,40.9 
			176.5,40.9 176.4,40.9 176.3,40.9 176.2,40.9 176.2,40.9 176.2,40.9 176,40.9 175.9,40.9 175.8,40.9 175.7,40.9 175.6,40.9 
			175.5,40.9 175.4,40.9 175.3,40.9 175.3,40.9 175.2,40.9 175.1,40.9 175,40.9 174.9,40.9 174.9,41 174.9,41 174.8,41.1 
			174.7,41.1 174.5,41.1 174.5,41.1 174.4,41.2 174.4,41.3 174.3,41.3 174.2,41.3 174.2,41.3 174.1,41.4 174,41.4 174,41.3 
			173.9,41.3 173.9,41.3 173.8,41.3 173.7,41.3 173.6,41.3 173.6,41.3 173.6,41.3 173.5,41.3 173.4,41.3 173.3,41.3 173.2,41.3 
			173.2,41.3 173.1,41.3 173,41.4 172.8,41.4 172.7,41.4 172.7,41.4 172.6,41.4 172.4,41.3 172.3,41.3 172.2,41.3 172.1,41.4 
			172,41.4 171.9,41.4 171.9,41.4 171.8,41.4 171.7,41.4 171.6,41.5 171.5,41.6 171.4,41.5 171.4,41.5 171.4,41.5 171.4,41.5 
			171.3,41.5 171.3,41.5 171.2,41.5 171.1,41.5 171,41.5 171,41.5 170.9,41.4 170.8,41.4 170.7,41.3 170.7,41.3 170.6,41.2 
			170.6,41.1 170.6,41 170.6,40.9 170.6,40.9 170.6,40.8 170.6,40.8 170.7,40.7 170.7,40.6 170.7,40.6 170.8,40.5 170.9,40.4 
			170.9,40.3 170.9,40.1 170.9,40 170.9,39.9 170.9,39.8 171,39.6 171,39.6 171,39.5 171,39.4 171,39.3 171,39.2 171.1,39.2 
			171.1,39.1 171.1,39.1 171.2,39 171.3,39 171.3,38.9 171.3,38.8 171.2,38.7 171.2,38.7 171.3,38.7 171.3,38.6 171.3,38.5 
			171.4,38.4 171.4,38.3 171.4,38.3 171.4,38.2 171.4,38.1 171.4,38 171.5,37.9 171.4,37.8 171.4,37.8 171.4,37.8 171.4,37.7 
			171.4,37.7 171.4,37.6 171.4,37.6 171.5,37.5 171.4,37.4 171.4,37.4 171.4,37.4 171.3,37.3 171.3,37.3 171.2,37.2 171.1,37.2 
			171,37.1 171,37 171,37 170.9,36.9 170.8,36.8 170.7,36.7 170.6,36.6 170.6,36.5 170.5,36.5 170.6,36.3 170.7,36.3 170.8,36.2 
			171,36.1 171.1,36.1 171.2,36.1 171.4,36.1 171.5,36.1 171.5,36.1 171.6,36.1 171.7,36.1 171.8,36 171.9,36 171.9,36 172,36 
			172.1,36 172.1,36 172.2,36 172.3,36 172.3,35.9 172.3,35.9 172.4,35.9 172.4,35.9 172.5,35.9 172.6,35.9 172.7,35.9 172.7,35.8 
			172.8,35.8 172.9,35.7 173,35.7 173.1,35.7 173.2,35.7 173.2,35.7 173.2,35.6 173.2,35.5 173.2,35.4 173.2,35.3 173.3,35.3 
			173.3,35.2 173.5,35.2 173.5,35.2 173.6,35.3 173.6,35.4 173.6,35.4 173.8,35.4 174,35.4 174.1,35.4 174.2,35.4 174.4,35.4 
			174.5,35.4 174.7,35.4 174.8,35.3 175,35.5 175.1,35.5 175.3,35.4 175.4,35.4 175.6,35.3 175.7,35.2 175.8,35.2 176,35.1 
			176.1,34.6 176,34.5 176,34.4 175.8,34.4 175.7,34.3 175.7,34.3 175.6,34.2 175.5,34.1 175.4,34 175.3,34 175.3,33.9 175.2,33.9 
			175.1,33.9 175,33.9 174.9,33.9 174.9,33.9 174.8,33.8 174.6,33.9 174.5,33.9 174.4,33.9 174.4,33.9 174.3,33.9 174.2,33.9 
			174.1,33.9 174,34 173.9,34 173.7,34.1 173.6,34.1 173.6,34.2 173.5,34.4 173.4,34.4 173.3,34.5 173.2,34.6 173.2,34.7 
			173.2,34.7 173.2,34.6 173.1,34.6 173.1,34.6 173,34.5 173,34.6 172.9,34.6 172.9,34.6 172.8,34.6 172.7,34.6 172.7,34.6 
			172.6,34.6 172.6,34.6 172.5,34.6 172.4,34.6 172.3,34.6 172.1,34.6 171.9,34.6 171.8,34.6 171.6,34.6 171.4,34.7 171.4,34.8 
			171.2,34.8 171.1,34.8 171.1,34.8 171,34.8 171,34.8 171,34.8 171,34.8 170.9,34.8 170.9,34.8 170.8,34.8 170.7,34.8 170.6,34.8 
			170.6,34.8 170.6,34.8 170.5,34.8 170.4,34.9 170.4,34.9 170.3,34.9 170.2,34.9 170.1,34.9 170.1,34.9 170,34.9 170,35 169.9,35 
			169.8,34.9 169.7,35.1 169.7,35.2 169.5,35.2 169.4,35.2 169.3,35.2 169.3,35.2 169.1,35.2 169,35.3 168.9,35.3 168.8,35.3 
			168.8,35.4 168.7,35.4 168.5,35.5 168.5,35.6 168.4,35.7 168.3,35.7 168.2,35.7 168.2,35.7 168.1,35.7 168.1,35.6 168,35.7 
			167.9,35.7 167.8,35.6 167.7,35.6 167.6,35.5 167.5,35.5 167.5,35.4 167.4,35.4 167.3,35.5 167.3,35.5 167.2,35.6 167.2,35.7 
			167.1,35.6 167.1,35.7 166.9,35.7 166.8,35.7 166.7,35.7 166.6,35.7 166.4,35.7 166.3,35.7 166.3,35.7 166.2,35.7 166.1,35.7 
			166.1,35.7 166,35.7 165.9,35.7 165.8,35.7 165.8,35.7 165.8,35.8 165.6,35.8 165.4,35.8 165.3,35.9 165.1,35.9 165,35.9 
			164.8,36 164.6,36 164.5,36.1 164.4,36.1 164.3,36.1 164.3,36.2 164.3,36.3 164.3,36.4 164.2,36.5 164.2,36.5 164.2,36.6 
			164.2,36.7 164.3,36.8 164.4,36.9 164.5,37 164.5,37 164.5,37.1 164.6,37.2 164.7,37.3 164.8,37.3 164.9,37.4 165,37.4 165,37.6 
			165,37.7 165.1,37.8 165.2,37.8 165.4,37.8 165.4,37.8 165.5,37.8 165.6,37.8 165.7,37.8 165.8,37.8 165.8,37.8 165.9,37.7 
			165.9,37.6 166,37.6 166,37.6 166.1,37.6 166.1,37.6 166.2,37.6 166.3,37.6 166.3,37.7 166.3,37.7 166.3,37.7 166.4,37.7 
			166.5,37.6 166.5,37.6 166.6,37.6 166.7,37.6 166.7,37.5 166.7,37.5 166.9,37.5 167,37.4 167.1,37.4 167.2,37.4 167.4,37.4 
			167.5,37.3 167.6,37.2 167.7,37.1 167.8,37.1 168,37.1 168,37.1 168.1,37 168.2,37 168.4,37 168.4,36.9 168.5,36.9 168.6,36.9 
			168.7,37 168.7,37 168.8,37 168.8,37.1 168.8,37.1 168.8,37.2 168.8,37.3 168.8,37.4 168.8,37.5 168.8,37.6 168.8,37.8 
			168.8,37.9 168.8,38 168.8,38.2 168.7,38.3 168.7,38.3 168.7,38.3 168.7,38.4 168.7,38.4 168.7,38.5 168.7,38.6 168.7,38.6 
			168.7,38.6 168.7,38.7 168.8,38.7 168.8,38.7 168.7,38.8 168.7,38.9 168.7,39 168.7,39 168.7,39.1 168.7,39.1 168.7,39.2 
			168.7,39.2 168.6,39.3 168.6,39.4 168.5,39.5 168.5,39.5 168.5,39.6 168.5,39.6 168.5,39.8 168.5,39.9 168.4,40 168.4,40 
			168.3,40.1 168.3,40.2 168.2,40.4 168.2,40.6 168.1,40.9 168,41 167.8,41.1 167.6,41.3 167.5,41.4 167.3,41.6 167.2,41.7 
			167.1,41.8 167.1,41.9 167.1,42 167,42 166.9,42.1 166.9,42.1 166.8,42.1 166.7,42.1 166.6,42.1 166.5,42.1 166.4,42.1 166.3,42 
			166.3,42 166.2,41.9 166.1,41.9 165.9,42 165.8,42.1 165.8,42.1 165.7,42.1 165.5,42.2 165.4,42.2 165.3,42.1 165.2,42.1 
			165,42.1 165,42.3 164.9,42.3 164.7,42.3 164.6,42.3 164.5,42.3 164.4,42.2 164.2,42.2 164.1,42.3 164.1,42.3 164,42.3 
			163.9,42.3 163.9,42.3 163.8,42.3 163.7,42.3 163.7,42.3 163.7,42.3 163.6,42.2 163.5,42.2 163.5,42.2 163.4,42.2 163.3,42.2 
			163.2,42.2 163.2,42.2 163.2,42.1 163.1,42.1 163,42.1 162.9,42.1 162.8,42.2 162.8,42.3 162.7,42.4 162.6,42.5 162.5,42.5 
			162.4,42.5 162.4,42.5 162.3,42.5 162.3,42.5 162.2,42.5 162.1,42.4 162,42.4 161.9,42.4 161.9,42.4 161.9,42.5 161.8,42.6 
			161.8,42.6 161.9,42.7 161.9,42.8 162,42.9 162.1,42.9 162.2,43 162.3,43 162.4,43.1 162.4,43.2 162.4,43.3 162.4,43.4 
			162.5,43.4 162.5,43.5 162.5,43.6 162.6,43.7 162.7,43.7 162.8,43.7 162.9,43.8 163,43.9 163.2,43.9 163.3,43.9 163.5,43.9 
			163.6,43.9 163.7,43.9 163.9,43.9 164.1,43.8 164.1,43.8 164.3,43.8 164.4,43.9 164.5,43.9 164.6,43.9 164.7,43.9 164.8,43.7 
			165,43.7 165.1,43.6 165.3,43.6 165.4,43.6 165.7,43.6 165.8,43.6 165.9,43.7 166.1,43.8 166.2,43.8 166.3,43.7 166.3,43.7 
			166.4,43.6 166.6,43.6 166.7,43.6 166.7,43.5 166.8,43.5 166.9,43.4 167,43.4 167.1,43.4 167.2,43.4 167.3,43.4 167.4,43.4 
			167.5,43.4 167.5,43.4 167.6,43.4 167.7,43.4 167.8,43.4 167.9,43.4 168,43.4 168,43.4 168.1,43.3 168.2,43.3 168.4,43.3 
			168.4,43.3 168.6,43.2 168.7,43.2 168.8,43.1 168.8,43.1 169,43.1 169.1,43.1 169.3,43.2 169.4,43.2 169.6,43.2 169.7,43.1 
			169.9,43 170.1,43 170.2,43 170.4,43.2 170.4,43.1 170.5,43 170.6,43 170.6,43 170.7,43 170.8,43 170.8,43 170.9,43 171,43 
			171,43 171.1,43 171.1,43 171.3,43 171.4,43 171.4,42.9 171.6,42.9 171.7,42.9 171.8,42.8 171.9,42.8 172,42.8 172.1,42.9 
			172.1,42.9 172.2,42.9 172.3,42.9 172.3,42.9 172.4,42.9 172.4,42.9 172.5,43 172.6,42.9 172.7,42.8 172.7,42.9 172.8,42.9 
			172.9,43 173,43 173.1,43 173.2,43 173.2,42.9 173.2,42.8 173.2,42.7 173.3,42.7 173.4,42.7 173.5,42.7 173.6,42.8 173.6,42.8 
			173.7,42.7 173.8,42.7 173.9,42.7 174,42.8 174,42.8 174.1,42.9 174.2,42.9 174.3,42.9 174.4,42.8 174.4,42.8 174.6,42.8 
			174.7,42.8 174.9,42.8 174.9,42.8 175.1,42.8 175.2,42.8 175.3,42.8 175.4,42.7 175.5,42.7 175.6,42.7 175.7,42.7 175.7,42.7 
			175.8,42.7 175.9,42.7 176,42.6 176.1,42.6 176.2,42.6 176.4,42.7 176.6,42.7 176.7,42.7 176.8,42.7 177,42.7 177.1,42.7 
			177.2,42.7 177.3,42.7 177.4,42.7 177.5,42.7 177.6,42.7 177.7,42.7 177.8,42.7 177.9,42.8 178,42.8 178.1,42.7 178.3,42.7 
			178.3,42.7 178.5,42.7 178.6,42.6 178.8,42.6 178.8,42.5 178.8,42.5 178.8,42.4 178.9,42.3 178.9,42.2 179,42.2 179,42.1 
			179,42.1 179,42 179.1,41.9 179.2,41.7 179.2,41.7 179.3,41.6 179.3,41.5 179.3,41.3 179.3,41.3 		"/>
		<polygon class="st0" points="158.9,39.6 158.9,39.6 158.9,39.6 158.9,39.6 158.8,39.6 158.7,39.5 158.7,39.4 158.6,39.4 
			158.6,39.3 158.6,39.3 158.6,39.2 158.6,39.2 158.6,39.1 158.6,39.1 158.6,39.1 158.6,39.1 158.5,39.1 158.5,39 158.5,38.9 
			158.5,38.8 158.4,38.7 158.4,38.7 158.3,38.6 158.3,38.6 158.2,38.5 158.1,38.3 158.1,38.2 158,38.1 157.8,37.9 157.7,37.8 
			157.6,37.7 157.6,37.5 157.4,37.4 157.4,37.3 157.4,37.3 157.3,37.3 157.2,37.2 157.2,37.3 157.2,37.3 157.1,37.2 157,37.2 
			156.9,37.2 156.9,37.1 156.8,37.1 156.8,37 156.8,37 156.7,37 156.7,37 156.6,37 156.5,37.1 156.5,37.1 156.4,37.1 156.3,37 
			156.3,37.1 156.4,37.2 156.4,37.3 156.5,37.4 156.5,37.4 156.5,37.5 156.5,37.6 156.5,37.7 156.5,37.8 156.5,37.8 156.5,37.8 
			156.5,37.9 156.5,38 156.5,38 156.6,38.1 156.6,38.1 156.6,38.3 156.7,38.3 156.7,38.5 156.7,38.7 156.8,38.7 156.8,38.9 
			156.8,39 156.8,39.1 156.8,39.3 156.8,39.4 156.9,39.5 157,39.6 157.1,39.7 157.2,39.8 157.2,39.9 157.2,40 157.2,40.1 
			157.2,40.2 157.3,40.3 157.3,40.4 157.4,40.4 157.4,40.5 157.5,40.6 157.5,40.7 157.6,40.9 157.6,40.9 157.6,41 157.6,41.2 
			157.7,41.3 157.7,41.3 157.8,41.4 157.8,41.6 157.7,41.7 157.7,41.7 157.7,41.8 157.7,41.9 157.8,42 157.8,42.1 157.8,42.1 
			157.9,42.2 158,42.3 158.1,42.3 158.1,42.4 158.1,42.5 158.1,42.6 158.1,42.6 158.1,42.6 158.2,42.6 158.4,42.7 158.5,42.8 
			158.7,42.9 158.9,43 159,43.1 159.2,43.3 159.3,43.4 159.5,43.4 159.5,43.4 159.6,43.4 159.6,43.4 159.7,43.4 159.8,43.4 
			159.8,43.4 159.8,43.3 159.8,43.2 159.8,43.1 159.8,43 159.9,43 159.9,42.9 159.9,42.8 159.9,42.7 159.9,42.6 160,42.6 160,42.4 
			160,42.3 160,42.2 159.9,42.1 159.9,42.1 159.9,42 159.9,41.8 159.9,41.7 159.8,41.6 159.8,41.5 159.8,41.3 159.8,41.2 159.7,41 
			159.6,40.9 159.5,40.7 159.4,40.5 159.4,40.4 159.3,40.3 159.3,40.2 159.3,40 159.2,40 159.1,39.9 159,39.7 		"/>
		<polygon class="st0" points="147.6,38.8 147.5,38.9 147.5,39 147.4,39.1 147.3,39.2 147.3,39.3 147.3,39.4 147.3,39.5 147.3,39.6 
			147.1,39.7 147,39.8 147,39.9 146.9,40 146.9,40.1 146.8,40.2 146.8,40.4 146.8,40.4 146.7,40.4 146.6,40.5 146.5,40.6 
			146.5,40.7 146.4,40.8 146.4,40.9 146.4,40.9 146.4,41 146.3,41.1 146.2,41.2 146.1,41.3 146,41.3 146,41.4 146,41.6 145.9,41.7 
			145.9,41.7 145.9,41.8 145.8,41.9 145.8,42 145.8,42.1 145.8,42.1 145.8,42.2 145.8,42.3 145.8,42.4 145.8,42.5 145.8,42.5 
			145.8,42.6 145.8,42.6 145.8,42.6 145.8,42.6 145.8,42.6 145.9,42.7 145.9,42.9 146,43 146,43.2 146,43.3 146,43.4 146,43.6 
			146,43.8 146,43.9 146.1,44 146.2,44.1 146.3,44.2 146.4,44.3 146.4,44.3 146.5,44.4 146.6,44.5 146.7,44.6 146.8,44.6 
			146.8,44.6 146.8,44.6 146.9,44.5 147,44.5 147.1,44.4 147.2,44.4 147.3,44.3 147.3,44.3 147.3,44.3 147.4,44.3 147.5,44.3 
			147.6,44.2 147.6,44.2 147.7,44.1 147.7,44.1 147.7,44 147.7,43.9 147.7,43.9 147.8,43.9 147.8,43.9 147.8,43.8 147.8,43.7 
			147.7,43.7 147.8,43.6 147.8,43.5 147.8,43.4 147.8,43.3 147.8,43.2 147.8,43.1 147.8,43 147.8,43 147.8,42.9 147.8,42.8 
			147.8,42.7 147.8,42.7 147.9,42.6 147.9,42.6 147.9,42.6 147.8,42.5 147.9,42.3 147.9,42.2 147.9,42.1 147.9,42 147.9,41.9 
			147.9,41.7 147.9,41.7 147.9,41.6 147.9,41.4 147.8,41.3 147.8,41.3 147.8,41.1 147.8,41 147.8,40.9 147.8,40.8 147.8,40.6 
			147.9,40.5 147.9,40.4 147.9,40.3 147.9,40.1 147.9,40 147.9,39.9 147.9,39.8 147.9,39.6 147.9,39.6 147.9,39.6 147.9,39.6 
			147.9,39.5 148,39.5 148,39.4 148,39.4 148,39.3 148,39.2 148,39.2 148,39.1 148,39.1 148,39.1 148,39 147.9,38.9 147.9,38.9 
			147.8,38.9 147.8,38.9 147.7,38.8 147.7,38.8 147.7,38.8 147.7,38.8 147.7,38.8 		"/>
		<polygon class="st0" points="154.2,41.8 154.2,41.7 154.2,41.7 154.2,41.6 154.2,41.4 154.1,41.3 154.1,41.3 154.1,41.2 154.1,41 
			154.1,40.9 154.1,40.8 154,40.6 154,40.4 153.9,40.3 153.9,40.1 153.8,40 153.8,39.9 153.7,39.8 153.7,39.7 153.6,39.6 
			153.6,39.6 153.5,39.5 153.4,39.4 153.3,39.3 153.3,39.2 153.3,39.1 153.2,39.1 153.2,39.1 153.1,39.1 153.2,39 153.1,38.9 
			153,38.8 153,38.8 153,38.7 153,38.7 152.9,38.7 152.9,38.6 152.8,38.6 152.7,38.5 152.7,38.5 152.6,38.5 152.5,38.5 152.5,38.5 
			152.4,38.6 152.3,38.7 152.2,38.7 152.2,38.9 152.2,39 152.2,39.1 152.2,39.2 152.2,39.4 152.2,39.5 152.2,39.6 152.2,39.7 
			152.2,39.7 152.2,39.8 152.2,39.8 152.3,39.9 152.3,40 152.3,40 152.3,40 152.3,40.1 152.2,40.2 152.2,40.4 152.2,40.4 
			152.3,40.5 152.3,40.7 152.3,40.8 152.2,40.9 152.3,40.9 152.3,41 152.3,41 152.3,41.1 152.3,41.1 152.3,41.2 152.3,41.2 
			152.3,41.3 152.3,41.3 152.2,41.3 152.2,41.4 152.2,41.5 152.3,41.6 152.3,41.7 152.3,41.7 152.3,41.8 152.2,41.9 152.2,42 
			152.2,42 152.2,42.1 152.2,42.1 152.2,42.1 152.2,42.2 152.2,42.3 152.2,42.3 152.2,42.4 152.2,42.5 152.2,42.5 152.3,42.6 
			152.3,42.8 152.4,42.9 152.4,43 152.5,43.2 152.5,43.4 152.6,43.4 152.7,43.5 152.8,43.6 152.9,43.7 152.9,43.7 153,43.7 
			153.1,43.7 153.1,43.7 153.2,43.7 153.3,43.8 153.3,43.8 153.4,43.8 153.5,43.8 153.7,43.8 153.7,43.8 153.8,43.8 153.9,43.7 
			154,43.7 154,43.6 154,43.5 154,43.5 154,43.4 154.1,43.4 154.1,43.4 154.2,43.3 154.2,43.3 154.2,43.2 154.2,43.1 154.3,43 
			154.3,43 154.3,42.9 154.3,42.7 154.3,42.6 154.3,42.6 154.3,42.5 154.3,42.4 154.2,42.3 154.2,42.2 154.2,42.1 154.2,42 
			154.2,41.9 		"/>
	</g>
</g>
<g>
	<g>
		<path class="st1" d="M58.3,83.4c-19.2-7.9-43.8-0.3-50,1.8c0.6,2.6,1.3,5,2.1,7.4c9.7-2.8,29.5-7,45.7-0.4
			c31.9,13,52.7,7,61.4,2.9c1.2-2.9,2.2-6,2.9-9.1C112.2,90,91.2,96.8,58.3,83.4z"/>
		<path class="st1" d="M58.3,99.6c-15.6-6.3-34.7-2.7-44.7,0.2c1.3,2.5,2.8,4.9,4.4,7.1c10.5-2.2,25.4-3.7,38,1.5
			c20.3,8.2,35.9,8.8,47,7.1c3.3-3,6.3-6.4,8.8-10.2C101.1,108.3,83,109.6,58.3,99.6z"/>
		<path class="st1" d="M23.8,113.6c10.4,10.4,24.8,16.8,40.6,16.8c9.8,0,19.2-2.5,27.2-6.8c-9.2-0.4-20.3-2.5-33.3-7.8
			C47,111.1,33.9,111.8,23.8,113.6z"/>
	</g>
	<g>
		<path class="st2" d="M68.3,63.2c5.2,0,9.4-4.2,9.4-9.4c0-2.9-1.3-5.4-3.3-7.1c0.2,0.8,0.3,1.6,0.3,2.5c0,2.5-0.8,4.8-2.1,6.7
			c-1.5,2.6-4.7,5.1-7.6,6.8C66.1,63,67.1,63.2,68.3,63.2z M64.5,15.7C32.7,15.7,7,41.4,7,73.1c0,1.8,0.1,3.6,0.3,5.3
			c7.5-3.9,28.9-11.8,63,2.1c22.2,9.1,51.5-2.3,51.5-2.3c0.2-1.6,0.3-3.3,0.3-5C122,41.4,96.3,15.7,64.5,15.7z M65.7,68.6
			c-8.4,0-15.2-6.8-15.2-15.2s16.3-25.8,15.6-26.5C65.7,26.5,81,46,81,53.4C81,61.8,74.1,68.6,65.7,68.6z"/>
	</g>
</g>
<g>
	<path d="M150.6,64.8l-2.4-9.1h1.2l1.4,6c0.1,0.6,0.3,1.3,0.4,1.9c0.2-1,0.4-1.5,0.4-1.7l1.7-6.2h1.5l1.3,4.6
		c0.3,1.1,0.6,2.2,0.7,3.2c0.1-0.6,0.3-1.2,0.5-2l1.4-5.9h1.2l-2.5,9.1h-1.2l-1.9-7c-0.2-0.6-0.3-0.9-0.3-1.1
		c-0.1,0.4-0.2,0.8-0.3,1.1l-1.9,7L150.6,64.8L150.6,64.8z"/>
	<path d="M165.2,64c-0.4,0.4-0.8,0.6-1.2,0.7s-0.8,0.2-1.2,0.2c-0.7,0-1.3-0.2-1.7-0.5c-0.4-0.4-0.6-0.8-0.6-1.4
		c0-0.3,0.1-0.6,0.2-0.9c0.1-0.3,0.3-0.5,0.6-0.6c0.2-0.2,0.5-0.3,0.8-0.4c0.2-0.1,0.6-0.1,1-0.2c0.9-0.1,1.6-0.2,2-0.4
		c0-0.2,0-0.3,0-0.3c0-0.5-0.1-0.8-0.3-1c-0.3-0.3-0.7-0.4-1.3-0.4c-0.5,0-0.9,0.1-1.2,0.3s-0.4,0.5-0.6,1l-1.1-0.1
		c0.1-0.5,0.3-0.8,0.5-1.1s0.6-0.5,1-0.7s0.9-0.2,1.5-0.2s1,0.1,1.4,0.2c0.4,0.1,0.6,0.3,0.8,0.5s0.3,0.5,0.3,0.8
		c0,0.2,0.1,0.5,0.1,1V62c0,1,0,1.7,0.1,2c0,0.3,0.1,0.5,0.3,0.8h-1.2C165.3,64.5,165.2,64.3,165.2,64z M165.1,61.5
		c-0.4,0.2-1,0.3-1.8,0.4c-0.5,0.1-0.8,0.1-1,0.2c-0.2,0.1-0.3,0.2-0.4,0.4c-0.1,0.2-0.2,0.3-0.2,0.5c0,0.3,0.1,0.5,0.3,0.7
		s0.6,0.3,1,0.3s0.8-0.1,1.2-0.3c0.3-0.2,0.6-0.4,0.7-0.8c0.1-0.3,0.2-0.6,0.2-1.1V61.5z"/>
	<path d="M170.4,63.8l0.2,1c-0.3,0.1-0.6,0.1-0.8,0.1c-0.4,0-0.7-0.1-0.9-0.2s-0.4-0.3-0.5-0.5s-0.1-0.7-0.1-1.3V59h-0.8v-0.9h0.8
		v-1.6l1.1-0.7v2.3h1.1V59h-1.1v3.9c0,0.3,0,0.5,0.1,0.6c0,0.1,0.1,0.2,0.2,0.2c0.1,0.1,0.2,0.1,0.4,0.1
		C170.1,63.8,170.2,63.8,170.4,63.8z"/>
	<path d="M176,62.6l1.2,0.1c-0.2,0.7-0.5,1.2-1,1.6c-0.5,0.4-1.1,0.6-1.9,0.6c-1,0-1.7-0.3-2.3-0.9s-0.9-1.4-0.9-2.5s0.3-2,0.9-2.6
		c0.6-0.6,1.3-0.9,2.2-0.9s1.6,0.3,2.2,0.9c0.6,0.6,0.8,1.5,0.8,2.5c0,0.1,0,0.2,0,0.3h-4.9c0,0.7,0.2,1.3,0.6,1.7
		c0.4,0.4,0.8,0.6,1.4,0.6c0.4,0,0.8-0.1,1.1-0.3C175.6,63.5,175.9,63.1,176,62.6z M172.4,60.8h3.7c0-0.6-0.2-1-0.4-1.3
		c-0.4-0.4-0.8-0.6-1.4-0.6c-0.5,0-0.9,0.2-1.3,0.5C172.6,59.8,172.4,60.3,172.4,60.8z"/>
	<path d="M178.6,64.8v-6.6h1v1c0.3-0.5,0.5-0.8,0.7-0.9c0.2-0.1,0.5-0.2,0.7-0.2c0.4,0,0.8,0.1,1.2,0.4l-0.4,1
		c-0.3-0.2-0.5-0.2-0.8-0.2c-0.2,0-0.5,0.1-0.7,0.2s-0.3,0.4-0.4,0.6c-0.1,0.4-0.2,0.8-0.2,1.3v3.5L178.6,64.8L178.6,64.8z"/>
	<path d="M186.6,64.8v-9.1h4.1c0.8,0,1.4,0.1,1.9,0.2c0.4,0.2,0.8,0.5,1,0.9c0.3,0.4,0.4,0.9,0.4,1.4c0,0.6-0.2,1.2-0.6,1.6
		c-0.4,0.4-1.1,0.7-1.9,0.8c0.3,0.2,0.6,0.3,0.7,0.5c0.4,0.3,0.7,0.7,1,1.2l1.6,2.5h-1.5l-1.2-1.9c-0.4-0.5-0.6-1-0.9-1.3
		c-0.2-0.3-0.4-0.5-0.6-0.6c-0.2-0.1-0.4-0.2-0.6-0.2c-0.1,0-0.4,0-0.7,0h-1.4v4.1L186.6,64.8L186.6,64.8z M187.8,59.7h2.6
		c0.6,0,1-0.1,1.3-0.2c0.3-0.1,0.5-0.3,0.7-0.5c0.2-0.3,0.2-0.5,0.2-0.8c0-0.4-0.2-0.8-0.5-1.1s-0.8-0.4-1.5-0.4h-2.9L187.8,59.7
		L187.8,59.7z"/>
	<path d="M200.2,62.6l1.2,0.1c-0.2,0.7-0.5,1.2-1,1.6c-0.5,0.4-1.1,0.6-1.9,0.6c-1,0-1.7-0.3-2.3-0.9s-0.9-1.4-0.9-2.5
		s0.3-2,0.9-2.6c0.6-0.6,1.3-0.9,2.2-0.9s1.6,0.3,2.2,0.9c0.6,0.6,0.8,1.5,0.8,2.5c0,0.1,0,0.2,0,0.3h-4.9c0,0.7,0.2,1.3,0.6,1.7
		c0.4,0.4,0.8,0.6,1.4,0.6c0.4,0,0.8-0.1,1.1-0.3C199.8,63.5,200,63.1,200.2,62.6z M196.5,60.8h3.7c0-0.6-0.2-1-0.4-1.3
		c-0.4-0.4-0.8-0.6-1.4-0.6c-0.5,0-0.9,0.2-1.3,0.5C196.7,59.8,196.5,60.3,196.5,60.8z"/>
	<path d="M202.3,62.8l1.1-0.2c0.1,0.4,0.2,0.8,0.5,1s0.7,0.4,1.2,0.4s0.9-0.1,1.1-0.3c0.2-0.2,0.4-0.5,0.4-0.7
		c0-0.3-0.1-0.5-0.3-0.6s-0.5-0.2-1.1-0.4c-0.8-0.2-1.4-0.4-1.7-0.5c-0.3-0.2-0.6-0.4-0.7-0.6c-0.2-0.3-0.2-0.6-0.2-0.9
		c0-0.3,0.1-0.6,0.2-0.8c0.1-0.3,0.3-0.5,0.6-0.6c0.2-0.1,0.4-0.2,0.7-0.3s0.6-0.1,1-0.1c0.5,0,1,0.1,1.4,0.2
		c0.4,0.1,0.7,0.4,0.9,0.6c0.2,0.3,0.3,0.6,0.4,1l-1.1,0.1c-0.1-0.3-0.2-0.6-0.4-0.8s-0.6-0.3-1-0.3c-0.5,0-0.9,0.1-1.1,0.3
		c-0.2,0.2-0.3,0.4-0.3,0.6c0,0.1,0,0.3,0.1,0.4c0.1,0.1,0.2,0.2,0.4,0.3c0.1,0,0.4,0.1,1,0.3c0.8,0.2,1.3,0.4,1.7,0.5
		c0.3,0.1,0.6,0.3,0.7,0.6c0.2,0.3,0.3,0.6,0.3,1s-0.1,0.7-0.3,1.1c-0.2,0.3-0.5,0.6-0.9,0.8c-0.4,0.2-0.9,0.3-1.4,0.3
		c-0.9,0-1.5-0.2-2-0.5C202.7,64,202.4,63.5,202.3,62.8z"/>
	<path d="M208.7,61.5c0-1.2,0.3-2.1,1-2.7c0.6-0.5,1.3-0.7,2.1-0.7c0.9,0,1.7,0.3,2.2,0.9c0.6,0.6,0.9,1.4,0.9,2.5
		c0,0.9-0.1,1.5-0.4,2c-0.3,0.5-0.6,0.9-1.1,1.1c-0.5,0.3-1,0.4-1.6,0.4c-0.9,0-1.7-0.3-2.2-0.9C209,63.4,208.7,62.6,208.7,61.5z
		 M209.8,61.5c0,0.8,0.2,1.5,0.6,1.9c0.4,0.4,0.8,0.6,1.4,0.6c0.6,0,1-0.2,1.4-0.6c0.4-0.4,0.6-1.1,0.6-1.9c0-0.8-0.2-1.4-0.6-1.9
		c-0.4-0.4-0.8-0.6-1.4-0.6c-0.6,0-1,0.2-1.4,0.6C210,60,209.8,60.6,209.8,61.5z"/>
	<path d="M220.5,64.8v-1c-0.5,0.7-1.2,1.1-2.1,1.1c-0.4,0-0.8-0.1-1.1-0.2s-0.6-0.3-0.8-0.6c-0.2-0.2-0.3-0.5-0.3-0.8
		c0-0.2-0.1-0.6-0.1-1v-4.1h1.1v3.7c0,0.6,0,1,0.1,1.2c0.1,0.3,0.2,0.5,0.4,0.7c0.2,0.2,0.5,0.3,0.8,0.3s0.7-0.1,0.9-0.3
		c0.3-0.2,0.5-0.4,0.6-0.7s0.2-0.7,0.2-1.3v-3.5h1.1v6.6h-0.8V64.8z"/>
	<path d="M223.3,64.8v-6.6h1v1c0.3-0.5,0.5-0.8,0.7-0.9s0.5-0.2,0.7-0.2c0.4,0,0.8,0.1,1.2,0.4l-0.4,1c-0.3-0.2-0.5-0.2-0.8-0.2
		c-0.2,0-0.5,0.1-0.7,0.2s-0.3,0.4-0.4,0.6c-0.1,0.4-0.2,0.8-0.2,1.3v3.5L223.3,64.8L223.3,64.8z"/>
	<path d="M231.9,62.4l1.1,0.1c-0.1,0.8-0.4,1.4-0.9,1.8s-1.1,0.6-1.8,0.6c-0.9,0-1.6-0.3-2.2-0.9c-0.6-0.6-0.8-1.4-0.8-2.5
		c0-0.7,0.1-1.3,0.4-1.9c0.2-0.5,0.6-0.9,1.1-1.2s1-0.4,1.6-0.4c0.7,0,1.3,0.2,1.8,0.5c0.5,0.4,0.7,0.9,0.9,1.5l-1.1,0.2
		c-0.1-0.4-0.3-0.8-0.6-1s-0.6-0.3-1-0.3c-0.6,0-1,0.2-1.4,0.6c-0.4,0.4-0.5,1-0.5,1.9s0.2,1.5,0.5,1.9s0.8,0.6,1.3,0.6
		c0.4,0,0.8-0.1,1.1-0.4C231.6,63.3,231.8,62.9,231.9,62.4z"/>
	<path d="M238.5,62.6l1.2,0.1c-0.2,0.7-0.5,1.2-1,1.6c-0.5,0.4-1.1,0.6-1.9,0.6c-1,0-1.7-0.3-2.3-0.9s-0.9-1.4-0.9-2.5
		s0.3-2,0.9-2.6c0.6-0.6,1.3-0.9,2.2-0.9s1.6,0.3,2.2,0.9c0.6,0.6,0.8,1.5,0.8,2.5c0,0.1,0,0.2,0,0.3h-4.9c0,0.7,0.2,1.3,0.6,1.7
		c0.4,0.4,0.8,0.6,1.4,0.6c0.4,0,0.8-0.1,1.1-0.3C238.1,63.5,238.3,63.1,238.5,62.6z M234.8,60.8h3.7c0-0.6-0.2-1-0.4-1.3
		c-0.4-0.4-0.8-0.6-1.4-0.6c-0.5,0-0.9,0.2-1.3,0.5C235,59.8,234.8,60.3,234.8,60.8z"/>
	<path d="M240.6,62.8l1.1-0.2c0.1,0.4,0.2,0.8,0.5,1s0.7,0.4,1.2,0.4s0.9-0.1,1.1-0.3c0.2-0.2,0.4-0.5,0.4-0.7
		c0-0.3-0.1-0.5-0.3-0.6s-0.5-0.2-1.1-0.4c-0.8-0.2-1.4-0.4-1.7-0.5c-0.3-0.2-0.6-0.4-0.7-0.6c-0.2-0.3-0.2-0.6-0.2-0.9
		c0-0.3,0.1-0.6,0.2-0.8c0.1-0.3,0.3-0.5,0.6-0.6c0.2-0.1,0.4-0.2,0.7-0.3s0.6-0.1,1-0.1c0.5,0,1,0.1,1.4,0.2
		c0.4,0.1,0.7,0.4,0.9,0.6c0.2,0.3,0.3,0.6,0.4,1l-1.1,0.1c-0.1-0.3-0.2-0.6-0.4-0.8s-0.6-0.3-1-0.3c-0.5,0-0.9,0.1-1.1,0.3
		c-0.2,0.2-0.3,0.4-0.3,0.6c0,0.1,0,0.3,0.1,0.4c0.1,0.1,0.2,0.2,0.4,0.3c0.1,0,0.4,0.1,1,0.3c0.8,0.2,1.3,0.4,1.7,0.5
		c0.3,0.1,0.6,0.3,0.7,0.6c0.2,0.3,0.3,0.6,0.3,1s-0.1,0.7-0.3,1.1c-0.2,0.3-0.5,0.6-0.9,0.8c-0.4,0.2-0.9,0.3-1.4,0.3
		c-0.9,0-1.5-0.2-2-0.5C241,64,240.7,63.5,240.6,62.8z"/>
	<path d="M250.1,64.8l3.5-9.1h1.3l3.7,9.1h-1.4l-1.1-2.8h-3.8l-1,2.8H250.1z M252.7,61h3.1l-1-2.5c-0.3-0.8-0.5-1.4-0.6-1.9
		c-0.1,0.6-0.3,1.2-0.5,1.7L252.7,61z"/>
	<path d="M259.3,65.3l1.1,0.2c0,0.3,0.2,0.6,0.4,0.7c0.3,0.2,0.7,0.3,1.1,0.3c0.5,0,0.9-0.1,1.2-0.3c0.3-0.2,0.5-0.5,0.6-0.9
		c0.1-0.2,0.1-0.7,0.1-1.4c-0.5,0.6-1.1,0.9-1.8,0.9c-0.9,0-1.6-0.3-2.1-1c-0.5-0.7-0.7-1.4-0.7-2.4c0-0.6,0.1-1.2,0.3-1.7
		s0.6-0.9,1-1.2s0.9-0.4,1.5-0.4c0.8,0,1.4,0.3,1.9,0.9v-0.8h1v5.7c0,1-0.1,1.8-0.3,2.2c-0.2,0.4-0.5,0.8-1,1s-1,0.4-1.7,0.4
		c-0.8,0-1.4-0.2-1.9-0.5C259.5,66.6,259.3,66,259.3,65.3z M260.2,61.3c0,0.9,0.2,1.5,0.5,1.9s0.8,0.6,1.3,0.6s0.9-0.2,1.3-0.6
		c0.3-0.4,0.5-1,0.5-1.9c0-0.8-0.2-1.4-0.5-1.8c-0.4-0.4-0.8-0.6-1.3-0.6s-0.9,0.2-1.3,0.6C260.4,59.9,260.2,60.6,260.2,61.3z"/>
	<path d="M271.1,62.6l1.2,0.1c-0.2,0.7-0.5,1.2-1,1.6c-0.5,0.4-1.1,0.6-1.9,0.6c-1,0-1.7-0.3-2.3-0.9c-0.6-0.6-0.9-1.4-0.9-2.5
		s0.3-2,0.9-2.6s1.3-0.9,2.2-0.9c0.9,0,1.6,0.3,2.2,0.9c0.6,0.6,0.8,1.5,0.8,2.5c0,0.1,0,0.2,0,0.3h-4.9c0,0.7,0.2,1.3,0.6,1.7
		s0.8,0.6,1.4,0.6c0.4,0,0.8-0.1,1.1-0.3C270.7,63.5,270.9,63.1,271.1,62.6z M267.4,60.8h3.7c0-0.6-0.2-1-0.4-1.3
		c-0.4-0.4-0.8-0.6-1.4-0.6c-0.5,0-0.9,0.2-1.3,0.5C267.7,59.8,267.5,60.3,267.4,60.8z"/>
	<path d="M273.7,64.8v-6.6h1v0.9c0.5-0.7,1.2-1.1,2.1-1.1c0.4,0,0.8,0.1,1.1,0.2c0.3,0.1,0.6,0.3,0.8,0.6c0.2,0.2,0.3,0.5,0.3,0.8
		c0,0.2,0.1,0.6,0.1,1.1v4.1H278v-4c0-0.5,0-0.8-0.1-1s-0.2-0.4-0.5-0.5c-0.2-0.1-0.5-0.2-0.8-0.2c-0.5,0-0.9,0.2-1.2,0.5
		c-0.3,0.3-0.5,0.9-0.5,1.7v3.6L273.7,64.8L273.7,64.8z"/>
	<path d="M285.1,62.4l1.1,0.1c-0.1,0.8-0.4,1.4-0.9,1.8s-1.1,0.6-1.8,0.6c-0.9,0-1.6-0.3-2.2-0.9s-0.8-1.4-0.8-2.5
		c0-0.7,0.1-1.3,0.4-1.9c0.2-0.5,0.6-0.9,1.1-1.2s1-0.4,1.6-0.4c0.7,0,1.3,0.2,1.8,0.5c0.5,0.4,0.7,0.9,0.9,1.5l-1.1,0.2
		c-0.1-0.4-0.3-0.8-0.6-1c-0.3-0.2-0.6-0.3-1-0.3c-0.6,0-1,0.2-1.4,0.6c-0.4,0.4-0.5,1-0.5,1.9s0.2,1.5,0.5,1.9s0.8,0.6,1.3,0.6
		c0.4,0,0.8-0.1,1.1-0.4C284.8,63.3,285,62.9,285.1,62.4z"/>
	<path d="M287.1,67.3l-0.1-1.1c0.2,0.1,0.5,0.1,0.6,0.1c0.2,0,0.4,0,0.6-0.1c0.1-0.1,0.3-0.2,0.4-0.3c0.1-0.1,0.2-0.4,0.3-0.8
		c0-0.1,0.1-0.2,0.1-0.3l-2.5-6.6h1.2l1.4,3.8c0.2,0.5,0.3,1,0.5,1.5c0.1-0.5,0.3-1,0.5-1.5l1.4-3.9h1.1l-2.5,6.7
		c-0.3,0.7-0.5,1.2-0.6,1.5c-0.2,0.4-0.4,0.6-0.7,0.8c-0.3,0.2-0.6,0.3-0.9,0.3C287.6,67.5,287.4,67.4,287.1,67.3z"/>
	<path d="M293.8,64.8v-1.3h1.3v1.3c0,0.5-0.1,0.8-0.2,1.1c-0.2,0.3-0.4,0.5-0.8,0.7l-0.3-0.5c0.2-0.1,0.4-0.3,0.5-0.5
		s0.2-0.5,0.2-0.9h-0.7V64.8z"/>
	<path d="M304.3,64.8v-9.1h1.8l2.2,6.5c0.2,0.6,0.3,1.1,0.4,1.4c0.1-0.3,0.3-0.8,0.5-1.5l2.2-6.4h1.6v9.1h-1.2v-7.6l-2.7,7.6H308
		l-2.6-7.8v7.8H304.3z"/>
	<path d="M314.6,60.3c0-1.5,0.4-2.7,1.2-3.6c0.8-0.9,1.9-1.3,3.2-1.3c0.8,0,1.6,0.2,2.3,0.6c0.7,0.4,1.2,1,1.5,1.7
		c0.4,0.7,0.5,1.5,0.5,2.5c0,0.9-0.2,1.8-0.6,2.5s-0.9,1.3-1.6,1.7s-1.4,0.6-2.2,0.6c-0.9,0-1.6-0.2-2.3-0.6c-0.7-0.4-1.2-1-1.5-1.7
		C314.8,61.9,314.6,61.1,314.6,60.3z M315.8,60.3c0,1.1,0.3,2,0.9,2.6s1.3,1,2.2,1c0.9,0,1.7-0.3,2.2-1c0.6-0.6,0.9-1.5,0.9-2.7
		c0-0.7-0.1-1.4-0.4-1.9c-0.3-0.6-0.6-1-1.1-1.3s-1-0.5-1.6-0.5c-0.9,0-1.6,0.3-2.2,0.9C316.1,58,315.8,59,315.8,60.3z"/>
	<path d="M324.9,64.8v-9.1h6.6v1.1h-5.4v2.8h5.1v1.1h-5.1v3.1h5.6v1.1L324.9,64.8L324.9,64.8z"/>
	<path d="M332.4,64.8l3.5-9.1h1.3l3.7,9.1h-1.4l-1.1-2.8h-3.8l-1,2.8H332.4z M335,61h3.1l-1-2.5c-0.3-0.8-0.5-1.4-0.6-1.9
		c-0.1,0.6-0.3,1.2-0.5,1.7L335,61z"/>
</g>
</svg>
