<?xml version="1.0" encoding="utf-8"?>
<!-- Generator: Adobe Illustrator 24.0.2, SVG Export Plug-In . SVG Version: 6.00 Build 0)  -->
<svg version="1.1" id="圖層_1" xmlns="http://www.w3.org/2000/svg" xmlns:xlink="http://www.w3.org/1999/xlink" x="0px" y="0px"
	 viewBox="0 0 32.8 35" style="enable-background:new 0 0 32.8 35;" xml:space="preserve">
<style type="text/css">
	.st0{fill:#FFFFFF;}
</style>
<path class="st0" d="M16.4,4c3.6,0,6.5,2.9,6.5,6.5S20,17,16.4,17s-6.5-2.9-6.5-6.5S12.8,4,16.4,4 M16.4,0C10.6,0,5.9,4.7,5.9,10.5
	S10.6,21,16.4,21s10.5-4.7,10.5-10.5S22.2,0,16.4,0L16.4,0z"/>
<path class="st0" d="M16.4,24C10,24,4.8,28.8,4,35h24.8C28.1,28.8,22.8,24,16.4,24z"/>
<path class="st0" d="M16.4,24c6.4,0,11.7,4.8,12.4,11h4c-0.8-8.4-7.8-15-16.4-15C7.8,20,0.8,26.6,0,35h4C4.8,28.8,10,24,16.4,24z"/>
</svg>
