<?xml version="1.0" encoding="utf-8"?>
<!-- Generator: Adobe Illustrator 24.0.2, SVG Export Plug-In . SVG Version: 6.00 Build 0)  -->
<svg version="1.1" id="圖層_1" xmlns="http://www.w3.org/2000/svg" xmlns:xlink="http://www.w3.org/1999/xlink" x="0px" y="0px"
	 viewBox="0 0 50 50" style="enable-background:new 0 0 50 50;" xml:space="preserve">
<style type="text/css">
	.st0{opacity:0.3;}
	.st1{fill:#6BB931;}
	.st2{fill:#323333;}
</style>
<g class="st0">
	<path class="st1" d="M35.2,41.7c-8.5,3.4-15.9,1.6-22.4,0c-5.7-1.4-8.1-3.1-9.6-5.2c-0.6-0.9-2.3-3.1-2.2-6.4
		c0-0.2,0.2-4.5,3.5-7.3c4.4-3.7,8.7-0.3,12.9-3.8c2.2-1.9,3.3-4.8,4.5-7.5C24.2,7,28.6,4.3,33.4,5c6.8,0.9,14.5,7.8,15.4,16.9
		c0.1,1.4,0.5,6.7-2.8,11.8C42.9,38.6,38.2,40.5,35.2,41.7z"/>
</g>
<path class="st2" d="M26.7,22.1c-0.4-0.4-1.2-0.4-1.6,0c-0.4,0.4-0.4,1.2,0,1.6l3.1,3.1c0.4,0.4,1.2,0.4,1.6,0
	c0.4-0.4,0.4-1.2,0-1.6L26.7,22.1z M23.5,25.3c-0.4-0.4-1.2-0.4-1.6,0c-0.4,0.4-0.4,1.2,0,1.6L25,30c0.4,0.4,1.2,0.4,1.6,0
	c0.4-0.4,0.4-1.2,0-1.6L23.5,25.3z M29.8,12.7c-0.4-0.4-1.2-0.4-1.6,0L15.6,25.3c-0.4,0.4-0.4,1.2,0,1.6l9.5,9.5
	c0.4,0.4,1.2,0.4,1.6,0l12.6-12.6c0.4-0.4,0.4-1.2,0-1.6L29.8,12.7z M25.8,33.9L18,26.1l11-11l7.9,7.9L25.8,33.9z M28.2,19
	c-0.4,0.4-0.4,1.2,0,1.6l3.1,3.1c0.4,0.4,1.2,0.4,1.6,0c0.4-0.4,0.4-1.2,0-1.6L29.8,19C29.3,18.6,28.7,18.6,28.2,19L28.2,19z
	 M44.2,9.3l2.5-2.5c0.4-0.4,0.4-1.2,0-1.6c-0.4-0.4-1.2-0.4-1.6,0l-2.5,2.5l-2.4-2.4C40,5.1,39.7,5,39.4,5H30
	c-0.3,0-0.6,0.1-0.7,0.3L9.3,25.3c-0.4,0.4-0.4,1.2,0,1.6l15.8,15.8c0.4,0.4,1.2,0.4,1.6,0l19.9-19.9c0.2-0.2,0.3-0.5,0.3-0.8v-9.3
	c0-0.3-0.1-0.6-0.3-0.8L44.2,9.3z M44.6,21.5L25.8,40.2L11.7,26.1L30.5,7.3H39l2.1,2.1l-5,5c-0.4,0.4-0.4,1.2,0,1.6
	c0.4,0.4,1.2,0.4,1.6,0l5-5l2.1,2.1L44.6,21.5L44.6,21.5z"/>
</svg>
