<?xml version="1.0" encoding="utf-8"?>
<!-- Generator: Adobe Illustrator 24.0.2, SVG Export Plug-In . SVG Version: 6.00 Build 0)  -->
<svg version="1.1" id="圖層_1" xmlns="http://www.w3.org/2000/svg" xmlns:xlink="http://www.w3.org/1999/xlink" x="0px" y="0px"
	 viewBox="0 0 50 50" style="enable-background:new 0 0 50 50;" xml:space="preserve">
<style type="text/css">
	.st0{opacity:0.3;}
	.st1{fill:#36A5DE;}
	.st2{fill:#323333;}
</style>
<g class="st0">
	<path class="st1" d="M20.4,19c-0.7,0.4-1.5,0.8-2.4,1.2c-6.8,2.9-19.5,7.4-16.4,17c0.9,2.8,3.6,4.7,6.5,5.6c4.1,1.2,8.2,1,12.4,1.5
		c8.5,0.9,23,3.9,25.6-7.7c1.2-5.3-1.5-10.5-5.2-14.1c-3.3-3.3-7.4-7.1-12.2-7.9c-2-0.3-3.7,1.1-5.2,2.2
		C22.4,17.6,21.5,18.4,20.4,19z"/>
</g>
<path class="st2" d="M24.1,44.9c-0.3,0-0.5-0.1-0.8-0.3C22.6,44.2,5.5,32.2,1.8,24.4C0.2,21,0,16.9,1.3,13.2c1.1-3.1,3.3-5.5,6-6.8
	c6-2.9,13.6-1,16.9,3.9c3.3-5,10.8-6.8,16.9-4c2.8,1.3,4.9,3.8,6,6.8c1.3,3.5,1.1,7.8-0.5,11.2C43,32,26.3,43.6,25.1,44.4
	C24.7,44.8,24.5,44.9,24.1,44.9z M13.4,7.9c-1.6,0-3.4,0.4-4.9,1c-2,1-3.6,2.9-4.5,5.3c-1,2.9-0.9,6.3,0.4,9.1
	c2.9,6.2,16.2,16,19.8,18.5c3.4-2.4,16.9-12.3,19.9-18.6c1.3-2.8,1.5-6.2,0.4-9.1c-0.9-2.4-2.5-4.3-4.5-5.3l0,0
	C35,6.6,28.6,8.1,26.3,12.1l-1,1.8c0,0,0,0,0,0.1v0.1c-0.3,0.4-0.8,0.6-1.3,0.6c-0.5,0-0.9-0.3-1.1-0.8l-0.9-1.5
	C20.4,9.6,16.9,7.9,13.4,7.9z"/>
</svg>
