<?xml version="1.0" encoding="utf-8"?>
<!-- Generator: Adobe Illustrator 24.0.2, SVG Export Plug-In . SVG Version: 6.00 Build 0)  -->
<svg version="1.1" id="圖層_1" xmlns="http://www.w3.org/2000/svg" xmlns:xlink="http://www.w3.org/1999/xlink" x="0px" y="0px"
	 viewBox="0 0 50 50" style="enable-background:new 0 0 50 50;" xml:space="preserve">
<style type="text/css">
	.st0{opacity:0.7;}
	.st1{fill:#EEC831;}
	.st2{fill:#323333;}
</style>
<g class="st0">
	<path class="st1" d="M38.6,29c4-5,7.1-8.7,6.6-12.4c-0.3-2.1-2.1-3.5-2.8-4c-4.2-3.2-8.8-0.9-16.5-1C13.9,11.6,9.3,6,5.4,9.1
		c-2.8,2.2-2.4,6.7-2.2,9.7c0.4,5.5,3.4,9.4,5.6,12.3c3.5,4.6,7.4,7.2,9.5,8.5c4.7,2.8,9.9,5.2,12.7,4.6
		C37.1,42.7,32.3,36.9,38.6,29z"/>
</g>
<g>
	<path class="st2" d="M43.1,34.5H6.3c-0.6,0-1-0.5-1-1V10.3C5.3,9,6.3,8,7.6,8h34.1c0.9,0,1.5,0.4,1.8,0.7c0.7,0.7,0.7,1.6,0.7,1.8
		l0,23C44.1,34,43.7,34.5,43.1,34.5z M7.4,32.5h34.7v-22c0-0.4-0.2-0.4-0.4-0.4H7.6c-0.1,0-0.2,0.1-0.2,0.2V32.5z"/>
	<path class="st2" d="M44.8,38H4.6c-1.5,0-3.3-1.3-3.5-1.4c-0.3-0.2-0.4-0.5-0.4-0.8v-2.3c0-0.6,0.5-1,1-1h45.9c0.6,0,1,0.5,1,1v2.3
		c0,0.3-0.2,0.6-0.4,0.8C48.1,36.7,46.3,38,44.8,38z M2.8,35.2C3.4,35.6,4.1,36,4.6,36h40.2c0.5,0,1.3-0.4,1.8-0.7v-0.7H2.8V35.2z
		 M47.7,35.7L47.7,35.7L47.7,35.7z"/>
	<rect x="10.8" y="21.7" class="st2" width="27.1" height="2"/>
	<rect x="24.9" y="12.4" class="st2" width="12.2" height="2"/>
	<rect x="24.9" y="16.5" class="st2" width="12.2" height="2"/>
	<rect x="10.8" y="26.9" class="st2" width="27.1" height="2"/>
	<path class="st2" d="M20.8,18.5h-10v-6.6h10V18.5z M12.8,16.5h6V14h-6V16.5z"/>
</g>
</svg>
