<?xml version="1.0" encoding="utf-8"?>
<!-- Generator: Adobe Illustrator 24.0.2, SVG Export Plug-In . SVG Version: 6.00 Build 0)  -->
<svg version="1.1" id="圖層_1" xmlns="http://www.w3.org/2000/svg" xmlns:xlink="http://www.w3.org/1999/xlink" x="0px" y="0px"
	 viewBox="0 0 50 50" style="enable-background:new 0 0 50 50;" xml:space="preserve">
<style type="text/css">
	.st0{opacity:0.29;}
	.st1{fill:#DF1E42;}
	.st2{fill:#323333;}
</style>
<g class="st0">
	<path class="st1" d="M13,11.8c-2.7,2.2-2.6,5.2-3.8,9.4C6.4,30,1.2,30.7,1.8,34.4c0.9,6.2,16.1,12.4,27.9,7.5
		c1.8-0.7,8.3-3.5,10-9.3C42.5,22.5,28.8,9.8,19,10C18,10,15.2,10,13,11.8z"/>
</g>
<g>
	<g>
		<path class="st2" d="M25.1,45.7c-0.2,0-0.4-0.1-0.5-0.2c-0.3-0.2-0.5-0.5-0.5-0.9V28c0-0.4,0.2-0.7,0.6-0.9l14.8-7.4
			c0.5-0.3,1.1,0,1.4,0.5c0.3,0.5,0,1.1-0.5,1.4l-14.3,7.1V43l12.8-6.4v-7.4c0-0.6,0.5-1,1-1s1,0.5,1,1v8c0,0.4-0.2,0.7-0.6,0.9
			l-14.8,7.4C25.4,45.6,25.3,45.7,25.1,45.7z"/>
		<path class="st2" d="M25.1,45.7c-0.2,0-0.3,0-0.5-0.1L9.8,38.1c-0.4-0.2-0.6-0.5-0.6-0.9v-8h2.1v7.4L24.1,43V28.6L9.8,21.5
			l0.9-1.9l14.8,7.4c0.4,0.2,0.6,0.5,0.6,0.9v16.6c0,0.4-0.2,0.7-0.5,0.9C25.5,45.6,25.3,45.7,25.1,45.7z"/>
		<path class="st2" d="M17.1,33.6c-0.2,0-0.3,0-0.5-0.1L1.8,26.1c-0.3-0.2-0.6-0.5-0.6-0.9c0-0.4,0.2-0.7,0.5-0.9l8-4.6
			c0.3-0.2,0.7-0.2,1,0l14.8,7.4c0.3,0.2,0.6,0.5,0.6,0.9c0,0.4-0.2,0.7-0.5,0.9l-8,4.6C17.4,33.6,17.3,33.6,17.1,33.6z M4.4,25.1
			L17,31.4l5.9-3.4l-12.6-6.3L4.4,25.1z"/>
		<path class="st2" d="M33.1,33.6c-0.2,0-0.4,0-0.5-0.1l-8-4.6c-0.3-0.2-0.5-0.5-0.5-0.9c0-0.4,0.2-0.7,0.6-0.9l14.8-7.4
			c0.3-0.2,0.7-0.1,1,0l8,4.6c0.3,0.2,0.5,0.5,0.5,0.9c0,0.4-0.2,0.7-0.6,0.9l-14.8,7.4C33.5,33.6,33.3,33.6,33.1,33.6z M27.3,28.1
			l5.9,3.4l12.6-6.3l-5.9-3.4L27.3,28.1z"/>
		<path class="st2" d="M10.3,21.6c-0.2,0-0.4,0-0.5-0.1l-8-4.6c-0.3-0.2-0.5-0.5-0.5-0.9c0-0.4,0.2-0.7,0.6-0.9L14,8.9
			c0.5-0.3,1.1,0,1.4,0.5c0.3,0.5,0,1.1-0.5,1.4L4.4,16l5.9,3.4l4.3-2.1c0.5-0.3,1.1,0,1.4,0.5c0.3,0.5,0,1.1-0.5,1.4l-4.8,2.4
			C10.6,21.6,10.4,21.6,10.3,21.6z"/>
		<path class="st2" d="M39.9,21.6c-0.2,0-0.3,0-0.5-0.1l-4.8-2.4c-0.5-0.3-0.7-0.9-0.5-1.4c0.3-0.5,0.9-0.7,1.4-0.5l4.3,2.2l5.9-3.4
			L35,10.8c-0.5-0.3-0.7-0.9-0.5-1.4c0.3-0.5,0.9-0.7,1.4-0.5L48.4,15c0.3,0.2,0.6,0.5,0.6,0.9c0,0.4-0.2,0.7-0.5,0.9l-8,4.6
			C40.3,21.6,40.1,21.6,39.9,21.6z"/>
	</g>
	<g>
		<path class="st2" d="M25.1,45.7c-0.2,0-0.4-0.1-0.5-0.2c-0.3-0.2-0.5-0.5-0.5-0.9V28c0-0.4,0.2-0.7,0.6-0.9l14.8-7.4
			c0.5-0.3,1.1,0,1.4,0.5c0.3,0.5,0,1.1-0.5,1.4l-14.3,7.1V43l12.8-6.4v-7.4c0-0.6,0.5-1,1-1s1,0.5,1,1v8c0,0.4-0.2,0.7-0.6,0.9
			l-14.8,7.4C25.4,45.6,25.3,45.7,25.1,45.7z"/>
		<path class="st2" d="M25.1,45.7c-0.2,0-0.3,0-0.5-0.1L9.8,38.1c-0.4-0.2-0.6-0.5-0.6-0.9v-8h2.1v7.4L24.1,43V28.6L9.8,21.5
			l0.9-1.9l14.8,7.4c0.4,0.2,0.6,0.5,0.6,0.9v16.6c0,0.4-0.2,0.7-0.5,0.9C25.5,45.6,25.3,45.7,25.1,45.7z"/>
		<path class="st2" d="M17.1,33.6c-0.2,0-0.3,0-0.5-0.1L1.8,26.1c-0.3-0.2-0.6-0.5-0.6-0.9c0-0.4,0.2-0.7,0.5-0.9l8-4.6
			c0.3-0.2,0.7-0.2,1,0l14.8,7.4c0.3,0.2,0.6,0.5,0.6,0.9c0,0.4-0.2,0.7-0.5,0.9l-8,4.6C17.4,33.6,17.3,33.6,17.1,33.6z M4.4,25.1
			L17,31.4l5.9-3.4l-12.6-6.3L4.4,25.1z"/>
		<path class="st2" d="M33.1,33.6c-0.2,0-0.4,0-0.5-0.1l-8-4.6c-0.3-0.2-0.5-0.5-0.5-0.9c0-0.4,0.2-0.7,0.6-0.9l14.8-7.4
			c0.3-0.2,0.7-0.1,1,0l8,4.6c0.3,0.2,0.5,0.5,0.5,0.9c0,0.4-0.2,0.7-0.6,0.9l-14.8,7.4C33.5,33.6,33.3,33.6,33.1,33.6z M27.3,28.1
			l5.9,3.4l12.6-6.3l-5.9-3.4L27.3,28.1z"/>
		<path class="st2" d="M10.3,21.6c-0.2,0-0.4,0-0.5-0.1l-8-4.6c-0.3-0.2-0.5-0.5-0.5-0.9c0-0.4,0.2-0.7,0.6-0.9L14,8.9
			c0.5-0.3,1.1,0,1.4,0.5c0.3,0.5,0,1.1-0.5,1.4L4.4,16l5.9,3.4l4.3-2.1c0.5-0.3,1.1,0,1.4,0.5c0.3,0.5,0,1.1-0.5,1.4l-4.8,2.4
			C10.6,21.6,10.4,21.6,10.3,21.6z"/>
		<path class="st2" d="M39.9,21.6c-0.2,0-0.3,0-0.5-0.1l-4.8-2.4c-0.5-0.3-0.7-0.9-0.5-1.4c0.3-0.5,0.9-0.7,1.4-0.5l4.3,2.2l5.9-3.4
			L35,10.8c-0.5-0.3-0.7-0.9-0.5-1.4c0.3-0.5,0.9-0.7,1.4-0.5L48.4,15c0.3,0.2,0.6,0.5,0.6,0.9c0,0.4-0.2,0.7-0.5,0.9l-8,4.6
			C40.3,21.6,40.1,21.6,39.9,21.6z"/>
	</g>
	<g>
		<path class="st2" d="M25.1,19.6c-4.6,0-8.3-3.7-8.3-8.3c0-4.6,3.7-8.3,8.3-8.3c4.6,0,8.3,3.7,8.3,8.3
			C33.4,15.9,29.7,19.6,25.1,19.6z M25.1,5.1c-3.4,0-6.2,2.8-6.2,6.2c0,3.4,2.8,6.2,6.2,6.2c3.4,0,6.2-2.8,6.2-6.2
			C31.3,7.9,28.5,5.1,25.1,5.1z"/>
		<path class="st2" d="M24.5,14.5c-0.3,0-0.5-0.1-0.7-0.3l-1.9-1.9c-0.4-0.4-0.4-1.1,0-1.5c0.4-0.4,1.1-0.4,1.5,0l1.2,1.1l3.1-3.5
			C27.9,8,28.6,8,29,8.3c0.4,0.4,0.5,1,0.1,1.5l-3.8,4.4C25.1,14.4,24.8,14.5,24.5,14.5C24.5,14.5,24.5,14.5,24.5,14.5z"/>
	</g>
	<g>
		<path class="st2" d="M25.1,19.6c-4.6,0-8.3-3.7-8.3-8.3c0-4.6,3.7-8.3,8.3-8.3c4.6,0,8.3,3.7,8.3,8.3
			C33.4,15.9,29.7,19.6,25.1,19.6z M25.1,5.1c-3.4,0-6.2,2.8-6.2,6.2c0,3.4,2.8,6.2,6.2,6.2c3.4,0,6.2-2.8,6.2-6.2
			C31.3,7.9,28.5,5.1,25.1,5.1z"/>
		<path class="st2" d="M24.5,14.5c-0.3,0-0.5-0.1-0.7-0.3l-1.9-1.9c-0.4-0.4-0.4-1.1,0-1.5c0.4-0.4,1.1-0.4,1.5,0l1.2,1.1l3.1-3.5
			C27.9,8,28.6,8,29,8.3c0.4,0.4,0.5,1,0.1,1.5l-3.8,4.4C25.1,14.4,24.8,14.5,24.5,14.5C24.5,14.5,24.5,14.5,24.5,14.5z"/>
	</g>
</g>
</svg>
