<?xml version="1.0" encoding="utf-8"?>
<!-- Generator: Adobe Illustrator 24.0.2, SVG Export Plug-In . SVG Version: 6.00 Build 0)  -->
<svg version="1.1" id="圖層_1" xmlns="http://www.w3.org/2000/svg" xmlns:xlink="http://www.w3.org/1999/xlink" x="0px" y="0px"
	 viewBox="0 0 47.5 31.5" style="enable-background:new 0 0 47.5 31.5;" xml:space="preserve">
<style type="text/css">
	.st0{fill-rule:evenodd;clip-rule:evenodd;fill:#FCD078;}
	.st1{clip-path:url(#SVGID_2_);}
	.st2{fill-rule:evenodd;clip-rule:evenodd;fill:#F39816;}
	.st3{clip-path:url(#SVGID_4_);}
	.st4{fill-rule:evenodd;clip-rule:evenodd;fill:#005CA2;}
	.st5{fill-rule:evenodd;clip-rule:evenodd;fill:#013D6C;}
	.st6{fill:#F39816;}
	.st7{fill:#AEB9C9;}
	.st8{fill-rule:evenodd;clip-rule:evenodd;fill:#FFFFFF;}
	.st9{fill-rule:evenodd;clip-rule:evenodd;fill:#AEB9C9;}
	.st10{fill:#005CA2;}
	.st11{fill-rule:evenodd;clip-rule:evenodd;fill:#F2A1A8;}
	.st12{clip-path:url(#SVGID_6_);}
	.st13{clip-path:url(#SVGID_8_);}
	.st14{fill-rule:evenodd;clip-rule:evenodd;fill:#4E87BF;}
	.st15{clip-path:url(#SVGID_10_);}
	.st16{clip-path:url(#SVGID_12_);}
	.st17{fill-rule:evenodd;clip-rule:evenodd;fill:#4E87C0;}
	.st18{fill-rule:evenodd;clip-rule:evenodd;fill:#4C87BF;}
	.st19{fill-rule:evenodd;clip-rule:evenodd;fill:#4B86BE;}
	.st20{fill-rule:evenodd;clip-rule:evenodd;fill:#040000;}
	.st21{clip-path:url(#SVGID_14_);}
	.st22{fill:#ECEEEE;}
	.st23{clip-path:url(#SVGID_16_);}
	.st24{clip-path:url(#SVGID_18_);}
	.st25{fill-rule:evenodd;clip-rule:evenodd;fill:#FDF1F5;}
	.st26{fill:#FFFFFF;}
	.st27{fill-rule:evenodd;clip-rule:evenodd;fill:#F6BBB4;}
	.st28{fill:#F6BBB4;}
	.st29{clip-path:url(#SVGID_20_);}
	.st30{fill-rule:evenodd;clip-rule:evenodd;fill:#EEE9E9;}
	.st31{clip-path:url(#SVGID_22_);}
	.st32{fill:#016DB4;}
	.st33{fill-rule:evenodd;clip-rule:evenodd;fill:#458ECD;}
	.st34{fill-rule:evenodd;clip-rule:evenodd;fill:#016DB4;}
	.st35{fill:#013D6C;}
	.st36{fill:#0F1E3C;}
	.st37{fill-rule:evenodd;clip-rule:evenodd;fill:#F39A16;}
	.st38{fill:#F39A16;}
</style>
<g id="BACKGROUND_1_">
	<g transform="matrix(-4.55704,-6.87306,-5.18455,3.43751,2696.47,440.659)">
		<path class="st0" d="M221.2,319.3c0.5,0.4,0.1,1.4-0.6,1.3c-0.4-0.1-0.9-0.9-0.4-1.3c0.5-0.4-0.4-0.6,0-1c0.4-0.5,0.2-0.3,0.2-0.8
			c0-0.2,0.1-0.4,0.2-0.4c0.2-0.1,0.4,0.2,0.3,0.4c0,0.5-0.2,0.3,0.2,0.8C221.6,318.8,220.7,318.9,221.2,319.3z"/>
		<g>
			<defs>
				<path id="SVGID_1_" d="M221.2,319.3c0.5,0.4,0.1,1.4-0.6,1.3c-0.4-0.1-0.9-0.9-0.4-1.3c0.5-0.4-0.4-0.6,0-1
					c0.4-0.5,0.2-0.3,0.2-0.8c0-0.2,0.1-0.4,0.2-0.4c0.2-0.1,0.4,0.2,0.3,0.4c0,0.5-0.2,0.3,0.2,0.8
					C221.6,318.8,220.7,318.9,221.2,319.3z"/>
			</defs>
			<clipPath id="SVGID_2_">
				<use xlink:href="#SVGID_1_"  style="overflow:visible;"/>
			</clipPath>
			<g class="st1">
				<g transform="matrix(0.165869,0.0853633,-0.07045,0.200981,168.545,258.543)">
					<path class="st2" d="M374,141.8c0-0.1-0.1-0.2-0.1-0.3c-0.4-1-0.8-1.9-1.2-2.9l0-0.1c-0.1-0.4-0.3-0.8-0.3-0.8l-0.1-0.3
						c-0.3-0.8-0.5-1.5-0.8-2.3l0-0.1c0,0,0.1,0,0.1,0c0.4,0.7,0.7,1.5,1,2.2l0.1,0.3c0.1,0.2,0.2,0.5,0.3,0.7l0.1,0.1
						c0.1,0.1,0.1,0.3,0.2,0.4c0.3,0.8,0.6,1.6,1,2.3c0.1-0.2,0.2-0.5,0.3-0.7c0.1-0.4,0.3-0.7,0.4-1.1c0,0,0.2-0.5,0.4-0.9
						c0,0,0,0,0,0c-0.3,0.9-0.6,1.7-0.9,2.5c0,0.1-0.1,0.2-0.1,0.3c0.7,1.6,1.4,3.1,2.1,4.8c0,0,0,0.1,0,0.1c0-0.1,0.1-0.2,0.1-0.2
						l0,0c0.4-0.8,0.9-1.5,1.2-2.3l0.1-0.1c0,0,0,0.1,0,0.1c-0.3,0.8-0.8,1.5-1.2,2.4c0,0-0.1,0.2-0.2,0.4c0.6,1.4,1.2,2.8,1.9,4.1
						l0.2,0.5c0,0.1,0,0.1,0,0.2l0,0.2c0,0-0.1-0.1-0.2-0.1c0,0-0.1-0.1-0.2-0.2c-0.1-0.2-0.2-0.4-0.2-0.4c-0.7-1.6-1.5-3.2-2.2-4.9
						c-0.4,0-0.7-0.1-1.1-0.1l-0.4-0.1c-0.1,0-0.2-0.1-0.2-0.1c0,0-0.1,0-0.1,0c-0.1,0-0.2,0-0.3-0.1c-0.1,0-0.2,0-0.2,0l0-0.1
						c0,0,0,0,0.1,0c0.2,0,0.6,0.1,0.6,0.1c0.1,0,0.3,0,0.3,0c0.5,0.1,0.9,0.2,1.4,0.3c-0.5-1.2-1.1-2.5-1.6-3.7
						c-0.6-0.5-1.3-0.9-2-1.3c0,0-0.3-0.2-0.6-0.3c0,0,0-0.1,0.1,0c0.2,0.1,0.6,0.3,0.6,0.3C372.8,140.9,373.4,141.3,374,141.8z"/>
				</g>
			</g>
		</g>
	</g>
	<g transform="matrix(-7.45491,3.5992,2.84225,5.88706,606.528,-2175.14)">
		<path class="st0" d="M179.6,262.3c0.5,0.4,0.1,1.4-0.6,1.3c-0.4-0.1-0.9-0.9-0.4-1.3c0.5-0.4-0.4-0.6,0-1c0.4-0.5,0.2-0.3,0.2-0.8
			c0-0.2,0.1-0.4,0.2-0.4c0.2-0.1,0.4,0.2,0.3,0.4c0,0.5-0.2,0.3,0.2,0.8C180,261.8,179.1,261.9,179.6,262.3z"/>
		<g>
			<defs>
				<path id="SVGID_3_" d="M179.6,262.3c0.5,0.4,0.1,1.4-0.6,1.3c-0.4-0.1-0.9-0.9-0.4-1.3c0.5-0.4-0.4-0.6,0-1
					c0.4-0.5,0.2-0.3,0.2-0.8c0-0.2,0.1-0.4,0.2-0.4c0.2-0.1,0.4,0.2,0.3,0.4c0,0.5-0.2,0.3,0.2,0.8
					C180,261.8,179.1,261.9,179.6,262.3z"/>
			</defs>
			<clipPath id="SVGID_4_">
				<use xlink:href="#SVGID_3_"  style="overflow:visible;"/>
			</clipPath>
			<g class="st3">
				<g transform="matrix(0.165869,0.0853633,-0.07045,0.200981,168.545,258.543)">
					<path class="st2" d="M59.5-8.4c0-0.1-0.1-0.2-0.1-0.3c-0.4-1-0.8-1.9-1.2-2.9l0-0.1c-0.1-0.4-0.3-0.8-0.3-0.8l-0.1-0.3
						c-0.3-0.8-0.5-1.5-0.8-2.3l0-0.1c0,0,0.1,0,0.1,0c0.4,0.7,0.7,1.5,1,2.2l0.1,0.3c0.1,0.2,0.2,0.5,0.3,0.7l0.1,0.1
						c0.1,0.1,0.1,0.3,0.2,0.4c0.3,0.8,0.6,1.6,1,2.3c0.1-0.2,0.2-0.5,0.3-0.7c0.1-0.4,0.3-0.7,0.4-1.1c0,0,0.2-0.5,0.4-0.9
						c0,0,0,0,0,0c-0.3,0.9-0.6,1.7-0.9,2.5c0,0.1-0.1,0.2-0.1,0.3c0.7,1.6,1.4,3.1,2.1,4.8c0,0,0,0.1,0,0.1c0-0.1,0.1-0.2,0.1-0.2
						l0,0c0.4-0.8,0.9-1.5,1.2-2.3l0.1-0.1c0,0,0,0.1,0,0.1c-0.3,0.8-0.8,1.5-1.2,2.4c0,0-0.1,0.2-0.2,0.4c0.6,1.4,1.2,2.8,1.9,4.1
						L64,0.9C64,1,64,1,64,1.1l0,0.2c0,0-0.1-0.1-0.2-0.1c0,0-0.1-0.1-0.2-0.2c-0.1-0.2-0.2-0.4-0.2-0.4C62.7-1,62-2.6,61.3-4.2
						c-0.4,0-0.7-0.1-1.1-0.1l-0.4-0.1c-0.1,0-0.2-0.1-0.2-0.1c0,0-0.1,0-0.1,0c-0.1,0-0.2,0-0.3-0.1c-0.1,0-0.2,0-0.2,0l0-0.1
						c0,0,0,0,0.1,0c0.2,0,0.6,0.1,0.6,0.1c0.1,0,0.3,0,0.3,0c0.5,0.1,0.9,0.2,1.4,0.3c-0.5-1.2-1.1-2.5-1.6-3.7
						c-0.6-0.5-1.3-0.9-2-1.3c0,0-0.3-0.2-0.6-0.3c0,0,0-0.1,0.1,0c0.2,0.1,0.6,0.3,0.6,0.3C58.3-9.2,58.9-8.8,59.5-8.4z"/>
				</g>
			</g>
		</g>
	</g>
	<g transform="matrix(-0.729878,-0.258985,-0.238304,0.605294,1309.06,310.675)">
		<path class="st4" d="M1672.6,239.1c-3.3-3.8-0.6-8.6-1.1-13c-0.3-3-2.6-5.1-3.4-7.9c-0.6-1.9-0.1-3.8,0.3-5.7
			c0.5-2.2,1.2-4.2,1.8-6.4c0.1-0.4,0.3-0.9,0.3-1.3c0,0,0.1-0.7,0.1-0.7c0.8,0.1,1.7,1.7,2,2.3c1.9,3,1.5,6.4,1.3,9.7
			c-0.2,3.3,3.6,4.9,3.8,8.2c0.1,1.8-0.9,3.3-1.4,4.9c-0.3,1.1-0.2,2.3-0.5,3.4c-0.3,1-1.1,1.8-1.5,2.8c-0.6,1.3-0.9,2.7-1.3,4"/>
		<path class="st5" d="M1672.8,239.3c-0.1,0-0.1,0-0.2,0.1c0,0,0,0,0-0.1c0-0.1-0.1-0.2-0.1-0.2s-0.1,0-0.1-0.1
			c-0.3-0.9-0.6-1.8-0.6-2.8l0,0c0-1.3,0.3-2.6,0.7-3.8c0,0,0.1-0.3,0.2-0.6c0-0.1,0.1-0.2,0.1-0.4c0.5-1.9,0.9-4,0.4-6
			c-0.3-1.2-0.9-2.4-1.5-3.5c0,0-0.2-0.5-0.4-0.9c-0.2-0.6-0.5-1.2-0.6-1.8c-0.2-0.9-0.3-1.8-0.2-2.6c0,0,0,0,0,0
			c0-0.2,0-0.6,0.3-0.5c0.1,0.1,0.2,0.3,0.3,0.5c0.7,1.5,1,3.2,1.7,4.7c0.5,1.1,1.1,2.2,1.6,3.3c0.9,1.9,1.3,4.1,0.6,6.2
			c-0.5,1.7-1.5,3.3-2.1,5.1c-0.2,0.5-0.3,1-0.3,1.6l0,0c0,0.6,0.2,1.3,0.5,1.9L1672.8,239.3
			C1672.9,239.2,1672.9,239.3,1672.8,239.3L1672.8,239.3L1672.8,239.3z"/>
	</g>
	<g transform="matrix(0.0230167,0.743493,0.624796,0.00196279,-115.434,-563.993)">
		<path class="st4" d="M793,190.8c-3.3-3.8-0.6-8.6-1.1-13c-0.3-3-2.6-5.1-3.4-7.9c-0.6-1.9-0.1-3.8,0.3-5.7
			c0.5-2.2,1.2-4.2,1.8-6.4c0.1-0.4,0.3-0.9,0.3-1.3c0,0,0.1-0.7,0.1-0.7c0.8,0.1,1.7,1.7,2,2.3c1.9,3,1.5,6.4,1.3,9.7
			c-0.2,3.3,3.6,4.9,3.8,8.2c0.1,1.8-0.9,3.3-1.4,4.9c-0.3,1.1-0.2,2.3-0.5,3.4c-0.3,1-1.1,1.8-1.5,2.8c-0.6,1.3-0.9,2.7-1.3,4"/>
		<path class="st5" d="M793.3,191c-0.1,0-0.1,0-0.2,0.1c0,0,0,0,0-0.1c0-0.1-0.1-0.2-0.1-0.2s-0.1,0-0.1-0.1
			c-0.3-0.9-0.6-1.8-0.6-2.8l0,0c0-1.3,0.3-2.6,0.7-3.8c0,0,0.1-0.3,0.2-0.6c0-0.1,0.1-0.2,0.1-0.4c0.5-1.9,0.9-4,0.4-6
			c-0.3-1.2-0.9-2.4-1.5-3.5c0,0-0.2-0.5-0.4-0.9c-0.2-0.6-0.5-1.2-0.6-1.8c-0.2-0.9-0.3-1.8-0.2-2.6c0,0,0,0,0,0
			c0-0.2,0-0.6,0.3-0.5c0.1,0.1,0.2,0.3,0.3,0.5c0.7,1.5,1,3.2,1.7,4.7c0.5,1.1,1.1,2.2,1.6,3.3c0.9,1.9,1.3,4.1,0.6,6.2
			c-0.5,1.7-1.5,3.3-2.1,5.1c-0.2,0.5-0.3,1-0.3,1.6l0,0c0,0.6,0.2,1.3,0.5,1.9L793.3,191C793.3,191,793.3,191,793.3,191L793.3,191
			L793.3,191z"/>
	</g>
	<g transform="matrix(0.156549,0.570214,-0.464002,0.150595,-59.3771,-486.371)">
		<path class="st6" d="M853.6,134.5c1.6-1.7,2.9-3.6,3.8-5.8l0.1-0.1c0.3-0.4,0.1-0.1,0.1-0.1c0,0.1,0,0.2,0,0.2
			c-0.8,2.2-2.1,4.1-3.7,5.8l0,0l-0.1,0.1c0,0-0.1,0-0.1,0c-0.1,0.1-0.2,0.2-0.3,0.3c0.2,0.9,0.9,1.7,1.4,2.4c1.2,1.7,2.5,3.4,3,5.4
			c0.1,0.2,0.1,0.5,0.1,0.5c0,0.3-0.1,0.7-0.2,0.6c0,0-0.1-0.1-0.1-0.1c0,0,0,0,0-0.1c-0.8-1.3-1.9-2.4-2.8-3.8
			c-0.8-1.2-1.4-2.5-1.6-3.9c0-0.3-0.1-0.5-0.1-0.8c-0.8,0.8-1.7,1.6-2.6,2.3l0,0c0,0.1,0,0.1,0,0.1c-0.4,1.8,0.3,3.7,0.4,5.7
			c0.1,1.3,0.1,2.7-0.2,3.9c0,0.2-0.1,0.4-0.1,0.4c0,0,0,0,0,0.1c0,0,0,0,0,0c0,0,0,0,0,0c-0.1,0.1-0.3,0.2-0.3-0.1
			c0-0.2-0.1-0.8-0.2-1.3c-0.2-1.2-0.5-2.5-0.6-3.8c-0.1-1.5-0.2-3.1,0.4-4.4c0-0.1,0.1-0.1,0.1-0.2c-0.9,0.7-1.8,1.3-2.7,1.9
			c-0.2,0.2-0.5,0.3-0.7,0.5c0,0,0-0.1-0.1,0.3c-0.4,1.5-0.4,3.1-0.5,4.7c-0.1,1.1-0.2,2.3-0.4,3.4c-0.1,0.9-0.3,1.9-0.8,2.7
			c0,0.1-0.1,0.1-0.1,0.1c-0.1,0-0.1,0-0.2-0.1c-0.1-0.3,0-0.6,0-0.9c-0.1-2.4-0.2-4.8,0.3-7c0.1-0.7,0.3-1.3,0.6-1.9
			c0.2-0.3,0.4-0.6,0.6-0.9c-1.3,0.8-2.6,1.6-3.9,2.4c0,0,0,0.1,0,0.1c-0.1,0.2-0.1,0.2-0.1,0.2c0,0.2-0.1,0.4-0.1,0.4
			c0,0,0,0.1,0,0.1c-0.2,1.1-0.2,2.2-0.3,3.2c-0.2,1.4-0.7,2.8-1.2,4.1c-0.1,0.2-0.3,0.6-0.5,0.4c-0.1-0.1,0-0.3,0-0.3
			c0-0.2,0-0.5,0.1-0.7c0.1-1.8,0.1-3.6,0.7-5.4c0.2-0.7,0.5-1.3,1-1.9c-1,0.6-2,1.2-2.9,1.8c-0.3,0.2-0.7,0.4-1,0.7
			c-0.6,0.6-1.1,1.3-1.7,1.9c-1.2,1.4-2.5,2.9-3.9,4.1c-0.3,0.2-0.5,0.4-0.9,0.6c-0.1,0-0.2,0-0.2,0c-0.1-0.1-0.3,0.2,0.1-0.6
			c1.3-2.5,3.4-4.9,5.9-6.4c0.7-0.4,1.5-0.9,2.3-1.1c0.3-0.2,0.7-0.4,1-0.6c-2,0.4-4.2-0.1-6.3-0.7c-0.5-0.2-1.1-0.3-1.6-0.6
			c-0.3-0.1,0.1-0.3,0.1-0.3c0.6-0.2,1.2-0.3,1.8-0.3c2.4,0,4.7,1.5,7.1,1.2c0.1-0.1,0.2-0.1,0.4-0.2c0-0.1,0.1-0.1,0.1-0.1l0,0
			c0.9-0.5,1.8-1.1,2.6-1.6c-1.4,0.5-3,0.3-4.5-0.1c0,0,0,0-0.1,0c-1.3-0.4-2.4-1-3.6-1.5c-0.2-0.1-0.5-0.1-0.3-0.3
			c0.1-0.1,0.2-0.1,0.3-0.1c0.3-0.1,0.6-0.1,0.9-0.1c1.6,0,3.2,0.2,4.8,0.6c1.3,0.3,2.7,0.8,4.1,0.6c0.8-0.5,1.6-1.1,2.4-1.6
			c-0.2,0-0.8,0.2-1.2,0.2c-1.5,0-3-0.6-4.3-1.1c-0.8-0.3-1.6-0.6-2.3-0.9c-0.2-0.1-0.6-0.1-0.4-0.4l0.1-0.1
			c0.8-0.4,1.8-0.2,2.7-0.1c1.8,0.3,3.6,1.1,5.5,1.3c0.5,0.1,1,0.1,1.4,0c0.9-0.7,1.8-1.4,2.6-2.2c0,0,0,0,0,0
			c-1.1,0.5-2.5,0.4-3.7,0.2c-1.6-0.3-3.2-0.8-4.8-1.2c-0.2,0-0.3-0.1-0.3-0.1c-0.1-0.1,0-0.2,0.1-0.2c0.1,0,0.1,0,0.1,0
			c0.8-0.1,1.6-0.2,2.4-0.2c1.7,0,3.5,0.2,5.2,0.5C852.3,134.4,853,134.6,853.6,134.5z M844.1,133.9L844.1,133.9
			C844.1,133.9,844.1,133.9,844.1,133.9z"/>
	</g>
	<g transform="matrix(0.85432,0,0,0.85432,13.4295,26.4108)">
		<g transform="matrix(1.35967,0,0,1.35967,-62.824,-77.5176)">
			<g transform="matrix(1,0,0,1,332.103,218.663)">
				<path class="st7" d="M-266.8-158.9h-19.4c-0.9,0-1.7-0.7-1.7-1.7v-11.6c0-0.9,0.7-1.7,1.7-1.7h19.4c0.9,0,1.7,0.7,1.7,1.7v11.6
					C-265.2-159.7-265.9-158.9-266.8-158.9"/>
			</g>
			<g transform="matrix(-1,0,0,1,493.387,64.031)">
				
					<rect x="425.3" y="-7.2" transform="matrix(0.9956 9.398595e-02 -9.398595e-02 0.9956 0.8107 -41.2004)" class="st8" width="25.1" height="-9.6"/>
				<g transform="matrix(-0.694395,0,0,0.825239,458.915,6.37247)">
					
						<rect x="17.8" y="-25.4" transform="matrix(-0.9956 -9.398595e-02 9.398595e-02 -0.9956 45.9043 -40.202)" class="st9" width="8.3" height="8.5"/>
				</g>
				<g transform="matrix(-0.515224,0.00201388,0.00186354,0.47676,431.848,86.7019)">
					<path class="st9" d="M-26.2-216.7c0-0.4-0.3-0.8-0.7-0.8h-0.2c-0.4,0-0.7,0.4-0.7,0.8v0.3c0,0.4,0.3,0.8,0.7,0.8h0.2
						c0.4,0,0.7-0.4,0.7-0.8V-216.7z"/>
				</g>
				<g transform="matrix(-0.665425,0.00260098,0.00377017,0.964546,469.457,-3.75502)">
					
						<rect x="38.4" y="-14.3" transform="matrix(-9.411117e-02 0.9956 -0.9956 -9.411117e-02 28.7125 -53.2669)" class="st9" width="0.4" height="1.4"/>
				</g>
				<g transform="matrix(-0.389988,0.00152437,0.00181164,0.463482,402.018,92.6054)">
					
						<rect x="-109.1" y="-235.7" transform="matrix(6.182494e-02 0.9981 -0.9981 6.182494e-02 -336.5969 -111.592)" class="st9" width="0.4" height="1.8"/>
				</g>
				<g transform="matrix(-0.55621,0.00217409,0.00253501,0.648547,397.368,14.6449)">
					<g transform="matrix(-0.726099,0,0,0.735287,462.361,146.653)">
						<path class="st9" d="M744.1-261.3c0-0.2-0.1-0.4-0.3-0.6c-0.2-0.2-0.5-0.3-0.7-0.3c-4.4,0-21.7,0-26.1,0c-0.6,0-1,0.4-1,0.9
							c0,0.7,0,1.6,0,2.3c0,0.2,0.1,0.4,0.3,0.6c0.2,0.2,0.5,0.3,0.7,0.3c4.8,0,24.6,0,24.6,0s0.5,0.5,0.9,0.9
							c0.1,0.1,0.3,0.1,0.4,0.1c0.2,0,0.3-0.2,0.3-0.3c0-0.3,0-0.7,0-0.7h0c0.5,0,0.9-0.3,0.9-0.8
							C744.1-259.5,744.1-260.6,744.1-261.3z"/>
					</g>
					<g transform="matrix(3.62805,-6.6352e-18,-3.89288e-17,0.763035,-622.153,105.542)">
						
							<rect x="152.8" y="-205.9" transform="matrix(4.800510e-02 0.9988 -0.9988 4.800510e-02 -51.7885 -340.7451)" class="st8" width="0.1" height="16.7"/>
					</g>
					<g transform="matrix(3.62805,-6.6352e-18,-3.89288e-17,0.763035,-621.798,111.515)">
						
							<rect x="152.7" y="-213.1" transform="matrix(0.2361 0.9717 -0.9717 0.2361 -81.9962 -304.6541)" class="st8" width="0.1" height="17.2"/>
					</g>
					<g transform="matrix(3.62805,-6.6352e-18,-3.89288e-17,0.763035,-621.785,117.344)">
						
							<rect x="152.7" y="-224.1" transform="matrix(0.759 0.6511 -0.6511 0.759 -100.7242 -150.3727)" class="st8" width="0.1" height="25.7"/>
					</g>
				</g>
				<g transform="matrix(-0.55621,0.00217409,0.00253501,0.648547,397.368,14.6449)">
					<g transform="matrix(-0.726099,0,0,0.735287,462.361,146.653)">
						<path class="st9" d="M744.1-261.3c0-0.2-0.1-0.4-0.3-0.6c-0.2-0.2-0.5-0.3-0.7-0.3c-4.4,0-21.7,0-26.1,0c-0.6,0-1,0.4-1,0.9
							c0,0.7,0,1.6,0,2.3c0,0.2,0.1,0.4,0.3,0.6c0.2,0.2,0.5,0.3,0.7,0.3c4.8,0,24.6,0,24.6,0s0.5,0.5,0.9,0.9
							c0.1,0.1,0.3,0.1,0.4,0.1c0.2,0,0.3-0.2,0.3-0.3c0-0.3,0-0.7,0-0.7h0c0.5,0,0.9-0.3,0.9-0.8
							C744.1-259.5,744.1-260.6,744.1-261.3z"/>
					</g>
					<g transform="matrix(3.62805,-6.6352e-18,-3.89288e-17,0.763035,-622.153,105.542)">
						
							<rect x="152.9" y="-237.8" transform="matrix(0.9785 0.2064 -0.2064 0.9785 -37.4776 -35.8004)" class="st8" width="0" height="80.6"/>
					</g>
					<g transform="matrix(3.62805,-6.6352e-18,-3.89288e-17,0.763035,-621.798,111.515)">
						
							<rect x="152.8" y="-392.3" transform="matrix(0.9989 4.736340e-02 -4.736340e-02 0.9989 -9.5134 -7.4655)" class="st8" width="0" height="375.6"/>
					</g>
					<g transform="matrix(3.62805,-6.6352e-18,-3.89288e-17,0.763035,-621.785,117.344)">
						
							<rect x="152.8" y="-1103.3" transform="matrix(0.9999 1.305479e-02 -1.305479e-02 0.9999 -2.7448 -2.0124)" class="st8" width="0" height="1784.2"/>
					</g>
				</g>
				<g transform="matrix(0.55621,0.00217409,-0.00253501,0.648547,44.8086,41.6072)">
					<g transform="matrix(-0.726099,0,0,0.735287,462.361,146.653)">
						<path class="st9" d="M-314.5-314.9c0-0.2-0.1-0.4-0.3-0.6s-0.5-0.3-0.7-0.3c-4.4,0-21.7,0-26.1,0c-0.6,0-1,0.4-1,0.9
							c0,0.7,0,1.6,0,2.3c0,0.2,0.1,0.4,0.3,0.6c0.2,0.2,0.5,0.3,0.7,0.3c4.8,0,24.6,0,24.6,0s0.5,0.5,0.9,0.9
							c0.1,0.1,0.3,0.1,0.4,0.1c0.2,0,0.3-0.2,0.3-0.3c0-0.3,0-0.7,0-0.7h0c0.5,0,0.9-0.3,0.9-0.8
							C-314.5-313.2-314.5-314.2-314.5-314.9z"/>
					</g>
					<g transform="matrix(3.62805,-6.6352e-18,-3.89288e-17,0.763035,-622.153,105.542)">
						
							<rect x="364.7" y="-195.4" transform="matrix(-6.254491e-03 -1 1 -6.254491e-03 616.2122 113.9351)" class="st8" width="0" height="-107.7"/>
					</g>
					<g transform="matrix(3.62805,-6.6352e-18,-3.89288e-17,0.763035,-621.798,111.515)">
						
							<rect x="364.6" y="-256.2" transform="matrix(-4.404083e-03 -1 1 -4.404083e-03 622.3919 107.3431)" class="st8" width="0" height="0.2"/>
					</g>
					<g transform="matrix(3.62805,-6.6352e-18,-3.89288e-17,0.763035,-621.785,117.344)">
						
							<rect x="364.6" y="-263" transform="matrix(-4.014911e-03 -1 1 -4.014911e-03 629.0193 100.641)" class="st8" width="0" height="0.2"/>
					</g>
				</g>
				<g transform="matrix(-0.55621,0.00217409,0.00253501,0.648547,397.257,68.2544)">
					<g transform="matrix(-0.726099,0,0,0.735287,462.361,146.653)">
						<path class="st9" d="M744.8-360.9c0-0.2-0.1-0.4-0.3-0.6c-0.2-0.2-0.5-0.3-0.7-0.3c-4.4,0-21.7,0-26.1,0c-0.6,0-1,0.4-1,0.9
							c0,0.7,0,1.6,0,2.3c0,0.2,0.1,0.4,0.3,0.6c0.2,0.2,0.5,0.3,0.7,0.3c4.8,0,24.6,0,24.6,0s0.5,0.5,0.9,0.9
							c0.1,0.1,0.3,0.1,0.4,0.1c0.2,0,0.3-0.2,0.3-0.3c0-0.3,0-0.7,0-0.7h0c0.5,0,0.9-0.3,0.9-0.8
							C744.8-359.2,744.8-360.2,744.8-360.9z"/>
					</g>
					<g transform="matrix(3.62805,-6.6352e-18,-3.89288e-17,0.763035,-622.153,105.542)">
						
							<rect x="152.7" y="-299.6" transform="matrix(-1 6.833286e-04 -6.833286e-04 -1 305.244 -587.2519)" class="st8" width="0" height="12"/>
					</g>
					<g transform="matrix(3.62805,-6.6352e-18,-3.89288e-17,0.763035,-621.798,111.515)">
						
							<rect x="152.6" y="-306.5" transform="matrix(-1 -2.940942e-03 2.940942e-03 -1 306.1542 -600.5762)" class="st8" width="0" height="12"/>
					</g>
					<g transform="matrix(3.62805,-6.6352e-18,-3.89288e-17,0.763035,-621.785,117.344)">
						
							<rect x="152.6" y="-313.3" transform="matrix(-1 -3.703186e-03 3.703186e-03 -1 306.4016 -614.0032)" class="st8" width="0" height="12"/>
					</g>
				</g>
			</g>
			<g transform="matrix(0.395753,-0.330269,0.330269,0.395753,139.435,267.784)">
				<g transform="matrix(0.380714,0.380714,0.380714,-0.380714,58.09,112.591)">
					
						<rect x="-611.7" y="813.2" transform="matrix(-0.9964 -8.523872e-02 8.523872e-02 -0.9964 -1290.4117 1571.7841)" class="st2" width="0" height="0.5"/>
				</g>
				<g transform="matrix(0.380714,0.380714,0.380714,-0.380714,-3.33093,141.158)">
					
						<rect x="-568.5" y="921.2" transform="matrix(0.7707 -0.6372 0.6372 0.7707 -717.6487 -150.9046)" class="st4" width="0" height="1.1"/>
				</g>
				<g transform="matrix(0.380714,0.380714,0.380714,-0.380714,57.6316,115.906)">
					
						<rect x="-615.4" y="815.5" transform="matrix(-0.9964 -8.523872e-02 8.523872e-02 -0.9964 -1298.1204 1576.5858)" class="st0" width="0" height="1.1"/>
				</g>
				<g transform="matrix(0.538412,0,0,0.538412,113.77,19.3604)">
					<path class="st10" d="M48.9-833.7c-5.8,0-10.6-4.7-10.6-10.6c0-5.8,4.7-10.6,10.6-10.6c5.8,0,10.6,4.7,10.6,10.6
						C59.4-838.5,54.7-833.7,48.9-833.7 M48.9-857.3c-7.2,0-13,5.8-13,13c0,7.2,5.8,13,13,13c7.2,0,13-5.8,13-13
						C61.8-851.5,56-857.3,48.9-857.3"/>
				</g>
			</g>
			<g transform="matrix(0.592187,-0.121586,0.121586,0.592187,62.7213,117.515)">
				<g transform="matrix(-0.794622,-0.787576,-0.703951,0.710249,483.08,190.85)">
					<path class="st11" d="M494,131.4c0,0-4.1,2.5-4.2,3.4c0,0.5,3.3,2.1,4.3,2.6c0.5,0.3,1.6,1.1,1.4,0.7c-0.1-0.3-0.2-0.2-0.4-0.4
						c0,0-0.3-0.5-0.5-0.6c-1.7-1.5-2.5-1.9-2.9-2.2c-0.2-0.1,2.6-1.5,3-1.8c0.2-0.2,0.3-1.3,0.2-2.1
						C495,131.1,494.5,131.6,494,131.4z"/>
					<g>
						<defs>
							<path id="SVGID_5_" d="M494,131.4c0,0-4.1,2.5-4.2,3.4c0,0.5,3.3,2.1,4.3,2.6c0.5,0.3,1.6,1.1,1.4,0.7
								c-0.1-0.3-0.2-0.2-0.4-0.4c0,0-0.3-0.5-0.5-0.6c-1.7-1.5-2.5-1.9-2.9-2.2c-0.2-0.1,2.6-1.5,3-1.8c0.2-0.2,0.3-1.3,0.2-2.1
								C495,131.1,494.5,131.6,494,131.4z"/>
						</defs>
						<clipPath id="SVGID_6_">
							<use xlink:href="#SVGID_5_"  style="overflow:visible;"/>
						</clipPath>
						<g class="st12">
							<g transform="matrix(1.15073,-0.0974486,-0.0424344,0.987358,1.25431,20.9852)">
								<path class="st5" d="M432,163.7l1.6-0.1l2.2-6c0,0,0.4-3.3,0.4-3.4c0-0.1-2.3-0.2-2.3-0.2l-4,3.2L432,163.7z"/>
								<g>
									<defs>
										<path id="SVGID_7_" d="M432,163.7l1.6-0.1l2.2-6c0,0,0.4-3.3,0.4-3.4c0-0.1-2.3-0.2-2.3-0.2l-4,3.2L432,163.7z"/>
									</defs>
									<clipPath id="SVGID_8_">
										<use xlink:href="#SVGID_7_"  style="overflow:visible;"/>
									</clipPath>
									<g class="st13">
										<g transform="matrix(-1.10579,0.104621,0.218085,1.4684,346.51,63.8545)">
											<path class="st4" d="M-66.5,67.4L-66.5,67.4L-66.5,67.4L-66.5,67.4L-66.5,67.4L-66.5,67.4L-66.5,67.4L-66.5,67.4
												L-66.5,67.4L-66.5,67.4L-66.5,67.4L-66.5,67.4L-66.5,67.4L-66.5,67.4L-66.5,67.4L-66.5,67.4L-66.5,67.4L-66.5,67.4l0.1,0
												l0,0l0,0l0,0l0,0l0,0l0,0l0,0l0,0l0,0l0,0l0,0l0,0l0,0l0,0l0,0l0,0l0,0l0,0l0,0l0,0l0,0l0,0l0,0l0,0l0,0l0,0l0,0l0,0l0,0
												l0,0l0,0l0,0l0,0l0.1,0l0.1,0l0.1,0l0.1,0l0.1,0l0.1,0l0.2,0.1l0.1,0l0.1,0l0,0l0,0l0,0l0,0l0,0l0,0l0,0l0,0l0,0l0,0l0,0
												l0,0l0,0l0,0l0,0l0,0l0,0l0,0l0,0l0,0l0,0l0,0l0,0l0,0l0,0l0,0l0,0l0,0l0,0l0,0l0,0l0,0l0,0l0,0l0,0l0,0l0,0l0,0l0,0l0,0
												l0,0l0,0l0,0l0,0l0,0l0,0l0,0l0,0l0,0l0,0l0,0l0,0l0,0l0,0l0,0l0,0l0,0l0,0l0,0l0,0l0,0l0,0l0,0l0,0l0,0l0,0l0,0l0,0l0,0
												l0,0l0,0l0,0l0,0l0,0l0,0l0,0l0,0l0,0l0,0l0,0l0,0l0,0l0,0l0,0l0,0l0,0l0,0l0,0l0,0l0,0l0,0l0,0v0l0,0l0,0l0,0l0,0l0,0
												l0,0l0,0l0,0l0,0l0,0l0,0l0,0l0,0l0,0l0,0l0,0l0,0l0,0l0,0l0,0l0,0l0,0l0,0l0,0l0,0l0,0l0,0l0,0l0,0l0,0l0,0l0,0.1l0,0
												l0,0l0,0l0,0l0,0l0,0l0,0l0,0l0,0l0,0l0,0l0,0l0,0l0,0l0,0l0,0l0,0l0,0l0,0l0,0l0,0l0,0l0,0l0,0l0,0l0,0l0,0l0,0l0,0l0,0
												l0,0l0,0l0,0l0,0l0,0l0,0l0,0l0,0l0,0l0,0l0,0l0,0l0,0l0,0l0,0l0,0l0,0l0,0l0,0l0,0l0,0l0,0l0,0l0,0l0,0l0,0l0,0l0,0l0,0
												l0,0l0,0l0,0.1l0,0.1l0,0.1l0,0.1l0,0.1l0,0l0,0l0,0l0,0l0,0l0,0l0,0l0,0l0,0l0,0l0,0l0,0l0,0l0,0l0,0l0,0l0,0l0,0l0,0
												l0,0l0,0l0,0l0,0l0,0l0,0l0,0l0,0l0,0l0,0l0,0l0,0l0,0l0,0l0,0l0,0l0,0l0,0l0,0l0,0l0,0l0,0l0,0l0,0.1l0,0l0,0l0,0l0,0
												l0,0l0,0l0,0l0,0l0,0l0,0l0,0l0,0l0,0l0,0l0,0l0,0l0,0l0,0l0,0l0,0l0,0l0,0l0,0l0,0l0,0l0,0l0,0l0,0l0,0l0,0l0,0l0,0l0,0
												l0,0l0,0l0,0l0,0l0,0l0,0l0,0l0,0l0,0l0,0l0,0l0,0l0,0l0,0l0,0l0,0l0,0l0,0l0,0l0,0l0,0l0,0l0,0l0,0l0,0l0,0l0,0l0,0l0,0
												l0,0l0,0l0,0l0,0l0,0l0,0l0,0l0,0l0,0l0,0l0,0l0,0l0,0l0,0l0,0l0,0l0,0l0,0l0,0l0,0l0,0l0,0l0,0l0,0l0,0l0,0l0,0l0,0l0,0
												l0,0l0,0l0,0l0,0l0-0.1l0,0l0,0l0,0l0,0l0,0l0,0l0,0l0,0l0,0l0,0l0,0l0,0l0,0l0,0l0,0l0,0l0,0l0,0l0,0l0,0l0,0l0,0l0,0
												l0,0l0,0l0,0l0,0l0,0l0,0l0,0l0,0l0,0l0,0l0,0l0,0l0,0l0,0l0,0l0,0l0,0l0,0l0,0l0-0.1l0-0.1l0-0.1l0-0.1l0-0.1l0,0l0,0
												l0,0l0,0l0,0l0,0l0,0l0,0l0,0l0,0l0,0l0,0l0,0l0,0l0,0l0,0l0,0l0,0l0,0l0,0l0,0l0,0l0,0l0,0l0,0l0,0l0,0l0,0l0,0l0,0l0,0
												l0,0l0,0l0,0l0,0l0,0l0,0l0,0l0,0l0,0l0,0l0,0l0,0l0,0l0,0l0,0l0,0l0,0l0,0l0,0l0,0l0,0l0,0l0,0l0,0l0,0l0,0l0,0l0,0l0,0
												l0,0l0-0.1l0,0l0,0l0,0l0,0l0,0l0,0l0,0l0,0l0,0l0,0l0,0l0,0l0,0l0,0l0,0l0,0l0,0l0,0l0,0l0,0l0,0l0,0l0,0l0,0l0,0l0,0
												l0,0l0,0l0,0l0,0l0,0v0v0l0,0l0,0l0,0l0,0l0,0l0,0l0,0l0,0l0,0l0,0l0,0l0,0l0,0l0,0l0,0l0,0l0,0l0,0l0,0l0,0l0,0l0,0l0,0
												l0,0l0,0l0,0l0,0l0,0l0,0l0,0l0,0l0,0l0,0l0,0l0,0l0,0l0,0l0,0l0,0l0,0l0,0l0,0l0,0l0,0l0,0l0,0l0,0l0,0l0,0l0,0l0,0l0,0
												l0,0l0,0l0,0l0,0l0,0l0,0l0,0l0,0l0,0l0,0l0,0l0,0l0,0l0,0l0,0l0,0l0,0l0,0l0,0l0,0l0,0l0,0l0,0l0,0l0,0l0,0l0,0l0,0l0,0
												l0,0l0,0l0,0l0,0l0,0l0,0l0,0l0,0l0,0l0,0l-0.1,0l-0.1,0l-0.2-0.1l-0.1,0l-0.1,0l-0.1,0l-0.1,0l-0.1,0l-0.1,0l0,0l0,0
												l0,0l0,0l0,0l0,0l0,0l0,0l0,0l0,0l0,0l0,0l0,0l0,0l0,0l0,0l0,0l0,0l0,0l0,0l0,0l0,0l0,0l0,0l0,0l0,0l0,0l0,0l0,0l0,0l0,0
												l0,0L-66.5,67.4L-66.5,67.4L-66.5,67.4L-66.5,67.4L-66.5,67.4L-66.5,67.4L-66.5,67.4L-66.5,67.4L-66.5,67.4L-66.5,67.4
												L-66.5,67.4L-66.5,67.4L-66.5,67.4L-66.5,67.4L-66.5,67.4L-66.5,67.4L-66.5,67.4L-66.5,67.4L-66.5,67.4L-66.5,67.4
												L-66.5,67.4L-66.5,67.4L-66.5,67.4L-66.5,67.4L-66.5,67.4L-66.5,67.4L-66.5,67.4z"/>
										</g>
									</g>
								</g>
							</g>
							<g transform="matrix(-1.2769,0.211055,0.188645,1.42859,397.283,50.2655)">
								<path class="st14" d="M-56.4,60.2L-56.4,60.2L-56.4,60.2L-56.4,60.2L-56.4,60.2L-56.4,60.2L-56.4,60.2z"/>
							</g>
							<g transform="matrix(-1.2769,0.211055,0.188645,1.42859,397.283,50.2655)">
								<path class="st4" d="M-66,66.4L-66,66.4L-66,66.4L-66,66.4L-66,66.4L-66,66.4L-66,66.4L-66,66.4L-66,66.4L-66,66.4L-66,66.4
									L-66,66.4L-66,66.4L-66,66.4L-66,66.4L-66,66.4L-66,66.4L-66,66.4L-66,66.4L-66,66.4L-66,66.4L-66,66.4L-66,66.4L-66,66.4
									L-66,66.4L-66,66.4L-66,66.4L-66,66.4L-66,66.4L-66,66.4L-66,66.4L-66,66.4L-66,66.4l0,0.1l0,0l0,0l0,0l0,0l0,0l0,0l0,0l0,0
									l0,0l0,0l0,0l0,0l0,0l0,0l0,0l0,0l0,0l0,0l0,0l0,0l0,0l0,0l0,0l0,0l0,0l0,0l0,0l0,0l0,0l0,0l0,0l0,0l0,0l0,0l0,0L-66,66.4
									L-66,66.4L-66,66.4L-66,66.4L-66,66.4L-66,66.4L-66,66.4L-66,66.4L-66,66.4L-66,66.4L-66,66.4L-66,66.4L-66,66.4L-66,66.4
									L-66,66.4L-66,66.4L-66,66.4L-66,66.4L-66,66.4L-66,66.4L-66,66.4L-66,66.4L-66,66.4L-66,66.4L-66,66.4L-66,66.4L-66,66.4
									L-66,66.4L-66,66.4L-66,66.4L-66,66.4L-66,66.4L-66,66.4L-66,66.4L-66,66.4L-66,66.4L-66,66.4L-66,66.4L-66,66.4l0.1,0.1
									l0,0l0,0l0,0l0,0l0,0l0,0l0,0l0,0l0,0l0,0l0,0l0,0l0,0l0,0l0,0l0,0l0,0l0,0l0,0l0,0l0,0l0,0l0,0l0,0l0,0l0,0l0,0l0,0l0,0
									l0,0l0,0l0,0l0,0l0,0l0,0l0,0l0,0l0,0l0,0l0,0l0,0l0,0l0,0l0,0l0,0l0,0l0,0l0,0l0,0l0,0l0,0l0,0l0,0l0,0l0,0l0,0l0,0l0,0
									l0,0l0,0l0,0l0,0l0,0l0,0l0,0L-66,66.4L-66,66.4L-66,66.4L-66,66.4L-66,66.4L-66,66.4L-66,66.4L-66,66.4L-66,66.4L-66,66.4
									L-66,66.4L-66,66.4L-66,66.4L-66,66.4L-66,66.4L-66,66.4L-66,66.4L-66,66.4L-66,66.4L-66,66.4L-66,66.4L-66,66.4L-66,66.4
									L-66,66.4L-66,66.4L-66,66.4z"/>
							</g>
							<g transform="matrix(-1.2769,0.211055,0.188645,1.42859,397.283,50.2655)">
								<path class="st4" d="M-65.7,66.7L-65.7,66.7L-65.7,66.7L-65.7,66.7L-65.7,66.7L-65.7,66.7L-65.7,66.7L-65.7,66.7L-65.7,66.7
									L-65.7,66.7L-65.7,66.7L-65.7,66.7L-65.7,66.7L-65.7,66.7L-65.7,66.7L-65.7,66.7L-65.7,66.7L-65.7,66.7L-65.7,66.7
									L-65.7,66.7L-65.7,66.7L-65.7,66.7L-65.7,66.7L-65.7,66.7L-65.7,66.7L-65.7,66.7L-65.7,66.7L-65.7,66.7L-65.7,66.7
									L-65.7,66.7l0.1,0l0,0l0,0l0,0l0,0l0,0l0,0l0,0l0,0l0,0h0l0,0l0,0h0l0,0l0,0l0,0l0,0l0,0l0,0l0,0l0,0l0,0l0,0l0,0l0,0l0,0
									l0,0l0,0l0,0l0,0l0,0l0,0l0,0l0,0l0,0l0,0l0,0l0,0l0,0l0,0l0,0l0,0l0,0l0,0l0,0l0,0l0,0l0,0l0,0l0,0l0,0l0,0l0,0l0,0l0,0
									l0,0l0,0l0,0l0,0l0,0l0,0l0,0l0,0l0,0l0,0l0,0l0,0l0,0l0,0l0,0l0,0l0,0l0,0l0,0l0,0l0,0l0,0l0,0l0,0l0,0l0,0l0,0l0,0l0,0
									l0,0l0,0l0,0l0,0l0,0l0,0l0,0l0,0l0,0l0,0l0,0l0,0l0,0l0,0l0,0l0,0l0,0l0,0l0,0l0,0l0,0l0,0l0,0l0,0l0,0l0,0l0,0l0,0l0,0
									l0,0l0,0l0,0l0,0l0,0l0,0l0,0l0,0l0,0l0,0l0,0l0,0l0,0l0,0l0,0l0,0h0l0,0l0,0l0,0l0,0l0,0l0,0l0,0l0,0l0,0h0L-65.7,66.7
									L-65.7,66.7L-65.7,66.7L-65.7,66.7L-65.7,66.7L-65.7,66.7L-65.7,66.7L-65.7,66.7L-65.7,66.7L-65.7,66.7L-65.7,66.7
									L-65.7,66.7L-65.7,66.7L-65.7,66.7L-65.7,66.7L-65.7,66.7L-65.7,66.7L-65.7,66.7L-65.7,66.7L-65.7,66.7L-65.7,66.7
									L-65.7,66.7L-65.7,66.7L-65.7,66.7L-65.7,66.7L-65.7,66.7L-65.7,66.7L-65.7,66.7L-65.7,66.7L-65.7,66.7L-65.7,66.7
									L-65.7,66.7L-65.7,66.7L-65.7,66.7L-65.7,66.7L-65.7,66.7L-65.7,66.7L-65.7,66.7L-65.7,66.7L-65.7,66.7L-65.7,66.7
									L-65.7,66.7L-65.7,66.7L-65.7,66.7L-65.7,66.7L-65.7,66.7z M-65.7,66.7L-65.7,66.7L-65.7,66.7L-65.7,66.7L-65.7,66.7
									L-65.7,66.7L-65.7,66.7L-65.7,66.7L-65.7,66.7z"/>
							</g>
							<g transform="matrix(-1.2769,0.211055,0.188645,1.42859,397.283,50.2655)">
								<path class="st4" d="M-66.3,67.4L-66.3,67.4L-66.3,67.4L-66.3,67.4L-66.3,67.4L-66.3,67.4L-66.3,67.4L-66.3,67.4L-66.3,67.4
									L-66.3,67.4L-66.3,67.4L-66.3,67.4L-66.3,67.4L-66.3,67.4L-66.3,67.4l0.1-0.1l0,0l0,0l0,0l0,0l0,0l0,0l0,0l0,0l0,0l0,0l0,0
									l0,0l0,0l0,0l0,0l0,0l0,0l0,0l0,0l0,0l0,0l0,0l0,0l0,0l0,0l0,0l0,0l0,0l0,0l0,0l0,0l0,0l0,0l0,0l0,0h0l0,0l0,0l0,0l0,0l0,0
									l0,0l0,0l0,0l0,0l0,0l0,0l0,0l0,0l0,0l0,0l0,0l0,0l0,0l0,0l0,0l0,0l0,0l0,0l0,0l0,0l0,0l0,0l0,0l0,0l0,0l0,0l0,0l0,0l0,0
									l0,0l0,0l0,0l0,0l0,0l0,0l0,0l0,0l0,0l0,0l0,0l0,0L-66.3,67.4L-66.3,67.4L-66.3,67.4L-66.3,67.4L-66.3,67.4L-66.3,67.4
									L-66.3,67.4L-66.3,67.4L-66.3,67.4L-66.3,67.4L-66.3,67.4L-66.3,67.4L-66.3,67.4L-66.3,67.4L-66.3,67.4L-66.3,67.4
									L-66.3,67.4L-66.3,67.4L-66.3,67.4L-66.3,67.4L-66.3,67.4L-66.3,67.4L-66.3,67.4L-66.3,67.4L-66.3,67.4L-66.3,67.4
									L-66.3,67.4L-66.3,67.4L-66.3,67.4L-66.3,67.4L-66.3,67.4L-66.3,67.4L-66.3,67.4L-66.3,67.4L-66.3,67.4L-66.3,67.4
									L-66.3,67.4L-66.3,67.4L-66.3,67.4L-66.3,67.4L-66.3,67.4L-66.3,67.4L-66.3,67.4L-66.3,67.4L-66.3,67.4L-66.3,67.4
									L-66.3,67.4L-66.3,67.4L-66.3,67.4L-66.3,67.4L-66.3,67.4L-66.3,67.4L-66.3,67.4L-66.3,67.4L-66.3,67.4L-66.3,67.4
									L-66.3,67.4L-66.3,67.4L-66.3,67.4L-66.3,67.4L-66.3,67.4L-66.3,67.4L-66.3,67.4L-66.3,67.4L-66.3,67.4L-66.3,67.4z
									 M-66.3,67.4L-66.3,67.4L-66.3,67.4L-66.3,67.4z"/>
							</g>
						</g>
					</g>
				</g>
				<g transform="matrix(-0.844773,-0.403014,-0.437123,0.916271,381.354,77.0612)">
					<path class="st11" d="M453.7,1l-0.4,1.4c0,0-0.1,0.1-0.5,0.4c-1,0.7-2.4,2.1-2.5,2.5c-0.3,0.8,1.7,1.5,5,1.4c0.4,0,1,0.1,1,0
						c0-0.1-0.8-0.4-1-0.5c-2.4-0.7-3-0.8-3-0.8s2.2-1,2.9-1.4c0.9-0.5,0.8-1.2,0.3-2.6C455.6,1.3,453.7,1,453.7,1z"/>
					<g>
						<defs>
							<path id="SVGID_9_" d="M453.7,1l-0.4,1.4c0,0-0.1,0.1-0.5,0.4c-1,0.7-2.4,2.1-2.5,2.5c-0.3,0.8,1.7,1.5,5,1.4
								c0.4,0,1,0.1,1,0c0-0.1-0.8-0.4-1-0.5c-2.4-0.7-3-0.8-3-0.8s2.2-1,2.9-1.4c0.9-0.5,0.8-1.2,0.3-2.6
								C455.6,1.3,453.7,1,453.7,1z"/>
						</defs>
						<clipPath id="SVGID_10_">
							<use xlink:href="#SVGID_9_"  style="overflow:visible;"/>
						</clipPath>
						<g class="st15">
							<g transform="matrix(0.999971,0.00758611,-0.00758611,0.999971,5.85038,1.19674)">
								<path class="st4" d="M444.1,2.2l4.8,1.1l0.5-2.2c0,0,1.2-4.6,1.2-4.7c0-0.1-3-0.7-3-0.7l-4,5.3L444.1,2.2z"/>
								<g>
									<defs>
										<path id="SVGID_11_" d="M444.1,2.2l4.8,1.1l0.5-2.2c0,0,1.2-4.6,1.2-4.7c0-0.1-3-0.7-3-0.7l-4,5.3L444.1,2.2z"/>
									</defs>
									<clipPath id="SVGID_12_">
										<use xlink:href="#SVGID_11_"  style="overflow:visible;"/>
									</clipPath>
									<g class="st16">
										<g transform="matrix(-1.48827,-0.373352,-0.406784,1.37261,547.454,197.417)">
											<path class="st17" d="M98.7-119.6L98.7-119.6L98.7-119.6L98.7-119.6L98.7-119.6L98.7-119.6L98.7-119.6L98.7-119.6
												L98.7-119.6L98.7-119.6L98.7-119.6L98.7-119.6L98.7-119.6L98.7-119.6L98.7-119.6L98.7-119.6L98.7-119.6L98.7-119.6
												L98.7-119.6L98.7-119.6L98.7-119.6L98.7-119.6L98.7-119.6L98.7-119.6l0,0.1l0,0l0,0l0,0l0,0l0,0l0,0l0,0l0,0l0,0l0,0l0,0
												l0,0l0,0l0,0l0,0l0,0l0,0l0,0l0,0l0,0l0,0l0,0l0,0l0,0l0,0l0,0l0,0l0,0l0,0l0,0l0,0l0,0l0,0l0,0l0,0l0,0l0,0l0,0l0,0l0,0
												l0,0l0,0l0,0l0,0l0,0l0,0l0,0l0,0l0,0l0,0l0,0l0,0l0,0l0,0l0,0l0,0l0,0l0,0l0,0l0,0l0,0l0,0l0,0l0,0l0,0l0,0l0,0l0,0l0,0
												l0,0l0,0l0,0l0,0l0,0l0,0l0,0l0,0l0,0l0,0l0,0l0,0l0,0l0,0l0,0l0,0l0,0l0,0l0,0l0,0l0,0l0,0l0,0l0,0l0,0l0,0l0,0l0,0l0,0
												l0,0l0,0l0,0l0,0l0,0l0,0l0,0l0,0l0,0l0,0l0,0l0,0l0,0l0,0l0,0l0,0l0,0l0,0l0,0l0,0l0,0l0,0l0,0l0,0l0,0l0,0l0,0l0,0l0,0
												l0,0l0,0l0,0l0,0l0.1,0.1l0.1,0.1l0,0l0,0l0,0l0,0l0,0l0,0l0,0l0,0l0,0l0,0l0,0l0,0l0,0l0,0l0,0l0,0l0,0l0,0l0,0l0,0l0,0
												l0,0l0,0l0,0l0,0l0,0l0,0l0,0l0,0l0,0l0,0l0,0l0,0l0,0l0,0l0,0l0,0l0,0l0,0l0,0l0,0l0,0l0,0l0,0l0,0l0,0l0,0l0,0l0,0l0,0
												l0,0l0,0l0,0l0,0l0,0l0,0l0,0l0,0l0,0l0,0l0,0l0,0l0,0l0,0l0,0l0,0l0,0l0,0l0,0l0,0l0,0l0,0l0,0l0,0l0,0l0,0l0,0l0,0l0,0
												l0,0l0,0l0,0l0,0l0,0l0,0l0,0l0,0l0,0l0,0l0,0l0,0v0l0,0l0,0l0,0l0,0l0,0l0,0l0,0l0,0l0,0l0,0l0,0l0,0l0,0l0,0l0,0l0,0
												l0,0l0,0l0,0l0,0l0,0l0,0l0,0l0,0l0,0l0,0l0,0l0,0l0,0l0,0l0,0l0,0l0,0l0,0l0,0l0,0l0,0l0,0l0,0l0,0l0,0l0,0l0,0l0,0l0,0
												l0,0l0,0h0l0,0l0,0l0,0l0,0l0,0l0,0l0,0l0,0l0,0l0,0l0,0l0,0l0,0l0,0l0,0l0,0l0,0l0,0l0,0l0,0l0,0l0,0l0,0l0,0l0,0l0,0
												l0,0l0,0l0,0l0,0l0,0l0,0l0,0l-0.1,0l-0.1,0l-0.1,0l-0.1,0l-0.1,0l-0.1,0l-0.1,0l-0.1,0l0,0l0,0l0,0l0,0l0,0l-0.1,0
												l-0.1,0l-0.1,0l-0.1,0l0,0l0,0l0,0l0,0l0,0l0,0l0,0l0,0l0,0l0,0l0,0l0,0l0,0l0,0l0,0l0,0l0,0l0,0l0,0h0l0,0l0,0l0,0l0,0
												l0,0l0,0l0,0l0,0l0,0l0,0l0,0l0,0l0,0l0,0l0,0l0,0l0,0l0,0l0,0l0,0l0,0l0,0l0,0l0,0l0,0l0,0l0,0l0,0l0,0l0,0l0,0l0,0l0,0
												l0,0l0,0l0,0l0,0l0,0l0,0l0,0l0,0l0,0l0,0l0,0l0,0l0,0l0,0l0,0l0,0l0,0l0,0l0,0l0,0l0,0l0,0l0,0l0,0l0,0l0,0l0,0l0,0l0,0
												l0,0l0,0l0,0l0,0l0,0l0.1,0l0.1,0l0.1,0l0.1,0l0,0l0,0l0,0l0,0l0,0l0,0l0.1,0l0.1,0l0.1,0l0.1,0l0.1,0l0.1,0l0.1,0l0,0
												l0,0l0,0l0,0l0,0l0,0l0,0l0,0l0,0l0,0l0,0l0,0l0,0l0,0l0,0l0,0l0,0l0,0l0,0l0,0l0,0l0,0l0,0l0,0l0,0l0,0l0,0l0,0l0,0l0,0
												l0,0l0,0l0,0h0l0,0l0,0l0,0l0,0l0,0l0,0l0,0l0,0l0,0l0,0l0,0l0,0l0,0l0,0l0,0l0,0l0,0l0,0l0,0l0,0l0,0l0,0l0,0l0,0l0,0
												l0,0l0,0l0,0l0,0l0,0l0,0l0,0l0,0l0,0l0,0l0,0l0,0l0,0l0,0l0,0l0,0l0,0l0,0l0,0l0,0l0,0l0,0l0,0l0,0l0,0l0,0l0,0l0,0l0,0
												l0,0l0,0l0,0l0,0l0,0l0,0l0,0l0,0l0,0l0,0l0,0l0,0l0,0l0,0l0,0l0,0l0,0l0,0l0,0l0,0l0,0l0,0l0,0l0,0l0,0l0,0l0,0l0,0l0,0
												l0,0l0,0l0,0l0,0l0,0l0,0l0,0l0,0l0,0l0,0l0,0l0,0l0,0l0,0l0,0l0,0l0,0l0,0l0,0l0,0l0,0l0,0l0,0l0,0l0,0l0,0l0,0l0,0l0,0
												l0,0l0,0l0,0l0,0l0,0l0,0l0,0l0,0l0,0l0,0l0,0l0,0l0,0l0,0l0,0l0,0l0,0l0,0l0,0l0,0l0,0l0,0l0,0l0,0l0,0l0,0l0,0
												l-0.1-0.1l-0.1-0.1l0,0l0,0l0,0l0,0l0,0l0,0l0,0l0,0l0,0l0,0l0,0l0,0l0,0l0,0l0,0l0,0l0,0l0,0l0,0l0,0l0,0l0,0l0,0l0,0
												l0,0l0,0l0,0l0,0l0,0l0,0l0,0l0,0l0,0l0,0l0,0l0,0l0,0l0,0l0,0l0,0l0,0l0,0l0,0l0,0l0,0l0,0l0,0l0,0l0,0l0,0l0,0l0,0l0,0
												l0,0l0,0l0,0l0,0l0,0l0,0l0,0l0,0l0,0l0,0l0,0l0,0l0,0l0,0l0,0l0,0l0,0l0,0l0,0l0,0l0,0l0,0l0,0v0l0,0l0,0l0,0l0,0l0,0
												l0,0l0,0l0,0l0,0l0,0l0,0l0,0l0,0l0,0l0,0l0,0l0,0l0,0l0,0l0,0l0,0l0,0l0,0l0,0l0,0l0,0l0,0l0,0l0,0l0,0l0,0l0,0l0,0l0,0
												l0,0l0,0l0,0l0,0l0,0l0,0l0,0l0,0l0,0l0,0l0,0l0,0l0,0l0,0l0,0l0,0l0,0l0,0L98.7-119.6L98.7-119.6L98.7-119.6L98.7-119.6
												L98.7-119.6L98.7-119.6L98.7-119.6L98.7-119.6L98.7-119.6L98.7-119.6L98.7-119.6L98.7-119.6L98.7-119.6L98.7-119.6
												L98.7-119.6L98.7-119.6L98.7-119.6L98.7-119.6L98.7-119.6L98.7-119.6L98.7-119.6L98.7-119.6z"/>
										</g>
									</g>
								</g>
							</g>
							<g transform="matrix(-1.48539,-0.384632,-0.417185,1.36949,551.791,202.761)">
								<path class="st18" d="M98.9-119.4L98.9-119.4L98.9-119.4L98.9-119.4L98.9-119.4L98.9-119.4L98.9-119.4L98.9-119.4
									L98.9-119.4L98.9-119.4L98.9-119.4L98.9-119.4L98.9-119.4L98.9-119.4L98.9-119.4L98.9-119.4L98.9-119.4L98.9-119.4
									L98.9-119.4L98.9-119.4L98.9-119.4L98.9-119.4L98.9-119.4L98.9-119.4L98.9-119.4L98.9-119.4L98.9-119.4L98.9-119.4
									L98.9-119.4L98.9-119.4L98.9-119.4L98.9-119.4L98.9-119.4L98.9-119.4L98.9-119.4l0,0.1l0,0l0,0l0,0l0,0l0,0l0,0l0,0l0,0l0,0
									l0,0l0,0l0,0l0,0l0,0l0,0l0,0l0,0l0,0l0,0l0,0l0,0l0,0l0,0l0,0l0,0l0,0l0,0l0,0l0,0l0,0l0,0l0,0l0,0l0,0l0,0l0,0l0,0l0,0
									l0,0l0,0l0,0l0,0l0,0l0,0l0,0l0,0h0h0l0,0l0,0l0,0l0,0l0,0l0,0l0,0l0,0l0,0l0,0l0,0l0,0l0,0l0,0l0,0l0,0l0,0l0,0l0,0l0,0
									l0,0l0,0l0,0l0,0l0,0l0,0l0,0l0,0l0,0l0,0l0,0l0,0l0,0l0,0l0,0l0,0l0,0l0,0l0,0l0,0l0,0l0,0l0,0l0,0l0,0l0,0l0,0l0,0l0,0
									l0,0l0,0l0,0l0,0l0,0l0,0l0,0l0,0l0,0l0,0l0,0l0,0l0,0l0,0l0,0l0,0l0,0l0,0l0,0v0v0l0,0l0,0l0,0l0,0l0,0v0l0,0l0,0l0,0l0,0
									l0,0l0,0l0,0l0,0l0,0l0,0l0,0l0,0l0,0l0,0l0,0l0,0l0,0l0,0l0,0l0,0l0,0l0,0l0,0l0,0l0,0l0,0L98.9-119.4L98.9-119.4
									L98.9-119.4L98.9-119.4L98.9-119.4L98.9-119.4L98.9-119.4L98.9-119.4L98.9-119.4L98.9-119.4L98.9-119.4L98.9-119.4
									L98.9-119.4L98.9-119.4L98.9-119.4L98.9-119.4L98.9-119.4L98.9-119.4L98.9-119.4l-0.1,0.1l0,0l0,0l0,0l0,0l0,0l0,0l0,0l0,0
									l0,0l0,0l0,0l0,0l0,0l0,0l0,0l0,0l0,0l0,0l0,0l0,0l0,0l0,0l0,0l0,0l0,0l0,0l0,0l0,0l0,0l0,0l0,0l0,0l0,0l0,0l0,0l0,0l0,0
									l0,0l0,0L98.9-119.4L98.9-119.4L98.9-119.4L98.9-119.4L98.9-119.4L98.9-119.4L98.9-119.4L98.9-119.4L98.9-119.4L98.9-119.4
									L98.9-119.4L98.9-119.4L98.9-119.4L98.9-119.4L98.9-119.4L98.9-119.4L98.9-119.4L98.9-119.4L98.9-119.4L98.9-119.4
									L98.9-119.4L98.9-119.4L98.9-119.4L98.9-119.4L98.9-119.4L98.9-119.4L98.9-119.4L98.9-119.4L98.9-119.4L98.9-119.4
									L98.9-119.4L98.9-119.4L98.9-119.4L98.9-119.4L98.9-119.4L98.9-119.4L98.9-119.4z"/>
							</g>
							<g transform="matrix(-1.48539,-0.384632,-0.417185,1.36949,551.791,202.761)">
								<path class="st18" d="M99.1-119.4L99.1-119.4L99.1-119.4L99.1-119.4L99.1-119.4L99.1-119.4L99.1-119.4L99.1-119.4
									L99.1-119.4L99.1-119.4L99.1-119.4L99.1-119.4L99.1-119.4L99.1-119.4L99.1-119.4L99.1-119.4L99.1-119.4L99.1-119.4
									L99.1-119.4L99.1-119.4L99.1-119.4L99.1-119.4L99.1-119.4L99.1-119.4l0,0.1l0,0l0,0l0,0l0,0l0,0l0,0l0,0l0,0l0,0l0,0l0,0
									l0,0l0,0l0,0l0,0l0,0l0,0l0,0l0,0l0,0l0,0l0,0l0,0l0,0l0,0l0,0l0,0l0,0l0,0l0,0l0,0l0,0l0,0l0,0l0,0l0,0l0,0l0,0l0,0l0,0
									l0,0h0l0,0h0h0l0,0h0l0,0l0,0l0,0l0,0l0,0l0,0l0,0l0,0l0,0l0,0l0,0l0,0l0,0l0,0l0,0l0,0l0,0l0,0l0,0l0,0l0,0l0,0l0,0l0,0
									l0,0l0,0l0,0l0,0l0,0l0,0l0,0l0,0l0,0l0,0l0,0l0,0l0,0l0,0l0,0l0,0l0,0l0,0l0,0l0,0l0,0l0,0l0,0l0,0l0,0l0,0l0,0l0,0l0,0
									l0,0l0,0l0,0l0,0l0,0L99.1-119.4L99.1-119.4L99.1-119.4L99.1-119.4L99.1-119.4L99.1-119.4L99.1-119.4L99.1-119.4L99.1-119.4
									L99.1-119.4L99.1-119.4L99.1-119.4L99.1-119.4L99.1-119.4L99.1-119.4L99.1-119.4L99.1-119.4L99.1-119.4L99.1-119.4
									L99.1-119.4L99.1-119.4L99.1-119.4L99.1-119.4L99.1-119.4L99.1-119.4L99.1-119.4L99.1-119.4L99.1-119.4L99.1-119.4
									L99.1-119.4L99.1-119.4L99.1-119.4L99.1-119.4L99.1-119.4L99.1-119.4L99.1-119.4L99.1-119.4L99.1-119.4L99.1-119.4
									L99.1-119.4L99.1-119.4L99.1-119.4L99.1-119.4L99.1-119.4L99.1-119.4L99.1-119.4L99.1-119.4L99.1-119.4L99.1-119.4
									L99.1-119.4L99.1-119.4L99.1-119.4L99.1-119.4L99.1-119.4L99.1-119.4L99.1-119.4l-0.1,0.1l0,0l0,0l0,0l0,0l0,0l0,0l0,0l0,0
									l0,0l0,0l0,0l0,0l0,0l0,0l0,0l0,0l0,0l0,0l0,0l0,0l0,0l0,0l0,0l0,0l0,0l0,0l0,0l0,0l0,0l0,0l0,0l0,0l0,0l0,0l0,0L99.1-119.4
									L99.1-119.4L99.1-119.4L99.1-119.4L99.1-119.4L99.1-119.4L99.1-119.4L99.1-119.4L99.1-119.4L99.1-119.4L99.1-119.4
									L99.1-119.4L99.1-119.4L99.1-119.4L99.1-119.4L99.1-119.4L99.1-119.4L99.1-119.4L99.1-119.4L99.1-119.4L99.1-119.4z
									 M99.1-119.3L99.1-119.3L99.1-119.3L99.1-119.3z"/>
							</g>
							<g transform="matrix(-1.48539,-0.384632,-0.417185,1.36949,551.791,202.761)">
								<path class="st18" d="M98.4-119.4L98.4-119.4L98.4-119.4L98.4-119.4L98.4-119.4L98.4-119.4L98.4-119.4L98.4-119.4
									L98.4-119.4L98.4-119.4L98.4-119.4L98.4-119.4L98.4-119.4L98.4-119.4L98.4-119.4L98.4-119.4L98.4-119.4L98.4-119.4
									L98.4-119.4L98.4-119.4L98.4-119.4L98.4-119.4L98.4-119.4L98.4-119.4L98.4-119.4L98.4-119.4L98.4-119.4L98.4-119.4
									L98.4-119.4L98.4-119.4L98.4-119.4L98.4-119.4L98.4-119.4L98.4-119.4L98.4-119.4L98.4-119.4L98.4-119.4L98.4-119.4
									L98.4-119.4L98.4-119.4L98.4-119.4L98.4-119.4L98.4-119.4l0,0.1l0,0l0,0l0,0l0,0l0,0l0,0l0,0l0,0l0,0l0,0l0,0l0,0l0,0l0,0
									l0,0l0,0l0,0l0,0l0,0l0,0l0,0L98.4-119.4L98.4-119.4L98.4-119.4L98.4-119.4L98.4-119.4L98.4-119.4L98.4-119.4L98.4-119.4
									L98.4-119.4L98.4-119.4L98.4-119.4L98.4-119.4L98.4-119.4L98.4-119.4L98.4-119.4L98.4-119.4L98.4-119.4L98.4-119.4l0.1,0
									l0,0l0,0l0,0h0h0l0,0l0,0l0,0l0,0l0,0l0,0l0,0l0,0l0,0l0,0l0,0l0,0l0,0l0,0l0,0l0,0l0,0l0,0l0,0l0,0l0,0l0,0l0,0l0,0l0,0
									l0,0l0,0l0,0L98.4-119.4L98.4-119.4L98.4-119.4l0.1,0.1l0,0l0,0l0,0l0,0l0,0l0,0l0,0l0,0l0,0l0,0l0,0l0,0l0,0l0,0l0,0l0,0
									l0,0l0,0l0,0l0,0l0,0l0,0l0,0l0,0l0,0l0,0l0,0l0,0l0,0l0,0l0,0l0,0l0,0l0,0h0h0l0,0h0l0,0l0,0l0,0l0,0l0,0l0,0l0,0l0,0l0,0
									l0,0l0,0l0,0l0,0l0,0l0,0l0,0l0,0l0,0l0,0l0,0l0,0l0,0l0,0l0,0l0,0l0,0l0,0l0,0l0,0l0,0l0,0l0,0l0,0l0,0l0,0l0,0l0,0l0,0
									l0,0l0,0l0,0l0,0l0,0l0,0l0,0l0,0l0,0l0,0l0,0l0,0L98.4-119.4L98.4-119.4L98.4-119.4L98.4-119.4L98.4-119.4L98.4-119.4
									L98.4-119.4L98.4-119.4L98.4-119.4L98.4-119.4L98.4-119.4L98.4-119.4L98.4-119.4L98.4-119.4L98.4-119.4L98.4-119.4
									L98.4-119.4L98.4-119.4L98.4-119.4L98.4-119.4L98.4-119.4L98.4-119.4L98.4-119.4L98.4-119.4L98.4-119.4L98.4-119.4
									L98.4-119.4L98.4-119.4L98.4-119.4L98.4-119.4L98.4-119.4L98.4-119.4L98.4-119.4L98.4-119.4L98.4-119.4L98.4-119.4
									L98.4-119.4L98.4-119.4L98.4-119.4z M98.3-119.4L98.3-119.4L98.3-119.4L98.3-119.4z"/>
							</g>
							<g transform="matrix(-1.48539,-0.384632,-0.417185,1.36949,551.791,202.761)">
								<path class="st18" d="M99-118.9L99-118.9L99-118.9L99-118.9L99-118.9L99-118.9L99-118.9L99-118.9L99-118.9L99-118.9
									L99-118.9L99-118.9L99-118.9L99-118.9L99-118.9L99-118.9L99-118.9L99-118.9L99-118.9L99-118.9L99-118.9L99-118.9L99-118.9
									L99-118.9l0,0.1l0,0l0,0l0,0l0,0l0,0l0,0l0,0l0,0l0,0l0,0l0,0l0,0l0,0l0,0l0,0l0,0l0,0l0,0l0,0l0,0l0,0l0,0l0,0l0,0l0,0l0,0
									l0,0l0,0l0,0l0,0l0,0l0,0l0,0l0,0l0,0l0,0l0,0l0,0l0,0l0,0l0,0l0,0l0,0l0,0l0,0l0,0l0,0l0,0l0,0l0,0l0,0l0,0l0,0l0,0l0,0
									l0,0l0,0l0,0l0,0l0,0l0,0l0,0l0,0l0,0l0,0l0,0l0,0l0,0l0,0l0,0l0,0l0,0l0,0l0,0l0,0l0,0l0,0l0,0l0,0l0,0l0,0l0,0l0,0l0,0
									l0,0l0,0l0,0l0,0h0l0,0l0,0l0,0l0,0l0,0l0,0h0h0h0l0,0l0,0l0,0l0,0l0,0l0,0l0,0l0,0l0,0l0,0l0,0l0,0v0l0,0l0,0l0,0l0,0l0,0
									l0,0l0,0l0,0l0,0l0,0l0,0h0l0,0l0,0l0,0h0l0,0l0,0l0,0l0,0l0,0l0,0l0,0h0l0,0l0,0l0,0l0,0l0,0l0,0l0,0l0,0l0,0l0,0l0,0l0,0
									l0,0l0,0l0,0l0,0l0,0l0,0l0,0l0,0l0,0l0,0l0,0l0,0l0,0l0,0l0,0l0,0l0,0l0,0l0,0l0,0l0,0l0,0l0,0l0,0l0,0l0,0l0,0l0,0l0,0
									l0,0l0,0l0,0l0,0l0,0l0,0l0,0l0,0l0,0l0,0l0,0l0,0l0,0l0,0l0,0l0,0l0,0l0,0l0,0l0,0l0,0l0,0l0,0l0,0l0,0l0,0l0,0l0,0l0,0
									l0,0l0,0l0,0l0,0l0,0l0,0l0,0l0,0l0,0l0,0l0,0l0,0l0,0l0,0l0,0l0,0l0,0L99-118.9L99-118.9L99-118.9L99-118.9L99-118.9
									L99-118.9L99-118.9L99-118.9L99-118.9L99-118.9L99-118.9L99-118.9L99-118.9L99-118.9L99-118.9L99-118.9L99-118.9L99-118.9
									L99-118.9L99-118.9L99-118.9L99-118.9L99-118.9L99-118.9L99-118.9L99-118.9L99-118.9L99-118.9z M98.4-118.3L98.4-118.3
									L98.4-118.3L98.4-118.3L98.4-118.3z"/>
							</g>
							<g transform="matrix(-1.48539,-0.384632,-0.417185,1.36949,551.791,202.761)">
								<path class="st19" d="M99.3-119.3L99.3-119.3L99.3-119.3L99.3-119.3L99.3-119.3L99.3-119.3L99.3-119.3L99.3-119.3
									L99.3-119.3L99.3-119.3L99.3-119.3L99.3-119.3L99.3-119.3L99.3-119.3L99.3-119.3L99.3-119.3L99.3-119.3L99.3-119.3
									L99.3-119.3L99.3-119.3L99.3-119.3L99.3-119.3L99.3-119.3L99.3-119.3L99.3-119.3L99.3-119.3L99.3-119.3L99.3-119.3
									L99.3-119.3L99.3-119.3L99.3-119.3L99.3-119.3L99.3-119.3L99.3-119.3L99.3-119.3L99.3-119.3L99.3-119.3L99.3-119.3
									L99.3-119.3L99.3-119.3L99.3-119.3L99.3-119.3l0,0.1l0,0l0,0l0,0l0,0l0,0l0,0l0,0l0,0l0,0l0,0l0,0l0,0l0,0l0,0l0,0l0,0l0,0
									l0,0l0,0l0,0l0,0l0,0l0,0l0,0l0,0l0,0l0,0l0,0l0,0l0,0l0,0l0,0h0l0,0l0,0l0,0l0,0l0,0l0,0l0,0l0,0l0,0l0,0v0l0,0l0,0l0,0
									l0,0l0,0l0,0l0,0l0,0l0,0l0,0l0,0l0,0l0,0l0,0l0,0l0,0L99.3-119.3L99.3-119.3L99.3-119.3L99.3-119.3L99.3-119.3L99.3-119.3
									L99.3-119.3L99.3-119.3L99.3-119.3L99.3-119.3L99.3-119.3L99.3-119.3L99.3-119.3L99.3-119.3L99.3-119.3L99.3-119.3
									L99.3-119.3L99.3-119.3L99.3-119.3L99.3-119.3L99.3-119.3L99.3-119.3L99.3-119.3L99.3-119.3L99.3-119.3L99.3-119.3
									L99.3-119.3L99.3-119.3L99.3-119.3L99.3-119.3L99.3-119.3L99.3-119.3L99.3-119.3L99.3-119.3L99.3-119.3l0.1,0l0,0v0l0,0
									L99.3-119.3L99.3-119.3l0.1,0.1l0,0l0,0l0,0l0,0l0,0l0,0l0,0l0,0l0,0l0,0l0,0l0,0l0,0l0,0l0,0l0,0l0,0l0,0l0,0l0,0l0,0l0,0
									l0,0l0,0l0,0l0,0l0,0l0,0l0,0l0,0l0,0l0,0l0,0l0,0l0,0l0,0l0,0l0,0l0,0l0,0l0,0l0,0l0,0l0,0l0,0l0,0l0,0l0,0l0,0l0,0v0l0,0
									l0,0l0,0l0,0l0,0l0,0l0,0l0,0l0,0l0,0L99.3-119.3L99.3-119.3L99.3-119.3L99.3-119.3L99.3-119.3L99.3-119.3L99.3-119.3
									L99.3-119.3L99.3-119.3L99.3-119.3L99.3-119.3L99.3-119.3L99.3-119.3L99.3-119.3z M99.3-119L99.3-119L99.3-119L99.3-119z
									 M99.3-119.3L99.3-119.3L99.3-119.3L99.3-119.3z M99.3-119.3L99.3-119.3L99.3-119.3L99.3-119.3z M99.3-119.3L99.3-119.3
									L99.3-119.3L99.3-119.3z"/>
							</g>
							<g transform="matrix(-1.48539,-0.384632,-0.417185,1.36949,551.791,202.761)">
								<path class="st18" d="M98.4-118.2L98.4-118.2L98.4-118.2L98.4-118.2L98.4-118.2L98.4-118.2L98.4-118.2L98.4-118.2
									L98.4-118.2L98.4-118.2L98.4-118.2L98.4-118.2L98.4-118.2L98.4-118.2L98.4-118.2L98.4-118.2L98.4-118.2L98.4-118.2
									L98.4-118.2L98.4-118.2L98.4-118.2L98.4-118.2L98.4-118.2L98.4-118.2L98.4-118.2L98.4-118.2L98.4-118.2L98.4-118.2
									L98.4-118.2L98.4-118.2L98.4-118.2L98.4-118.2L98.4-118.2L98.4-118.2L98.4-118.2L98.4-118.2L98.4-118.2L98.4-118.2
									L98.4-118.2L98.4-118.2L98.4-118.2L98.4-118.2l0.1,0l0,0h0h0h0l0,0l0,0h0l0,0l0,0l0,0l0,0l0,0l0,0l0,0l0,0l0,0l0,0l0,0l0,0
									l0,0l0,0l0,0l0,0l0,0l0,0l0,0l0,0l0,0l0,0l0,0l0,0l0,0l0,0l0,0l0,0l0,0l0,0l0,0l0,0l0,0l0,0l0,0l0,0l0,0l0,0l0,0l0,0l0,0
									l0,0l0,0l0,0l0,0l0,0l0,0l0,0l0,0l0,0l0,0l0,0l0,0l0,0l0,0l0,0l0,0l0,0l0,0l0,0l0,0l0,0l0,0l0,0l0,0l0,0l0,0l0,0l0,0l0,0
									l0,0l0,0l0,0l0,0l0,0l0,0l0,0l0,0l0,0l0,0l0,0l0,0l0,0l0,0l0,0l0,0l0,0l0,0l0,0l0,0l0,0l0,0l0,0l0,0l0,0l0,0l0,0l0,0l0,0
									l0,0l0,0l0,0l0,0l0,0l0,0l0,0l0,0l0,0l0,0l0,0l0,0l0,0l0,0l0,0l0,0l0,0l0,0l0,0l0,0l0,0l0,0l0,0l0,0l0,0l0,0l0,0l0,0l0,0
									l0,0l0,0l0,0l0,0l0,0l0,0l0,0l0,0l0,0l0,0l0,0l0,0l0,0l0,0l0,0l0,0l0,0l0,0l0,0l0,0l0,0l0,0l0,0l0,0l0,0l0,0l0,0l0,0l0,0
									l0,0l0,0l0,0l0,0l0,0l0,0l0,0l0,0l0,0l0,0l0,0l0,0l0,0l0,0l0,0l0,0l0,0l0,0l0,0l0,0v0l0,0l0,0l0,0l0,0h0l0,0l0,0L98.4-118.2
									L98.4-118.2L98.4-118.2L98.4-118.2L98.4-118.2L98.4-118.2L98.4-118.2L98.4-118.2L98.4-118.2L98.4-118.2L98.4-118.2
									L98.4-118.2L98.4-118.2L98.4-118.2L98.4-118.2L98.4-118.2L98.4-118.2L98.4-118.2L98.4-118.2L98.4-118.2L98.4-118.2
									L98.4-118.2L98.4-118.2L98.4-118.2L98.4-118.2L98.4-118.2L98.4-118.2L98.4-118.2L98.4-118.2L98.4-118.2L98.4-118.2
									L98.4-118.2L98.4-118.2L98.4-118.2L98.4-118.2L98.4-118.2z"/>
							</g>
						</g>
					</g>
				</g>
				<g transform="matrix(0.86667,0.472176,0.513674,-0.771075,-218.564,465.779)">
					<path class="st20" d="M-141.3,648.8c0,0,0.3-0.2,0-0.2c-0.2,0-0.6-0.2-0.9-0.7c-0.1-0.2-0.2-0.3-0.3-0.3
						c-0.1,0-0.2,0.1-0.3,0.1c0.9,1.4,1.6,1.7,1.7,1.8c0.2-0.2,0.1-0.3,0.2-0.3C-140.9,649.1-141.2,648.9-141.3,648.8z"/>
					<g>
						<defs>
							<path id="SVGID_13_" d="M-141.3,648.8c0,0,0.3-0.2,0-0.2c-0.2,0-0.6-0.2-0.9-0.7c-0.1-0.2-0.2-0.3-0.3-0.3
								c-0.1,0-0.2,0.1-0.3,0.1c0.9,1.4,1.6,1.7,1.7,1.8c0.2-0.2,0.1-0.3,0.2-0.3C-140.9,649.1-141.2,648.9-141.3,648.8z"/>
						</defs>
						<clipPath id="SVGID_14_">
							<use xlink:href="#SVGID_13_"  style="overflow:visible;"/>
						</clipPath>
						<g class="st21">
							<g transform="matrix(1.00164,-0.157258,0.158597,0.973461,-35.845,38.8208)">
								<path class="st22" d="M-199.6,594.7c0,0,0.1,0.1,0.1,0.1c0.1,0.1,0.3,0.2,0.4,0.2c0.2,0.1,0.2,0.5-0.4,0.1
									c-0.8-0.5-1.2-1.4-1.4-2.3l-0.1-0.3l0-0.1l0.1,0.1c0,0.1,0.1,0.3,0.1,0.4l0-0.2c0-0.1,0-0.1,0.1-0.1
									c0.1,0.1,0.1,0.1,0.1,0.1c0,0.2,0.1,0.4,0.1,0.5c0.1,0.1,0.6,0.5,0.7,0.9c0,0,0.1,0.2,0.1,0.3
									C-199.6,594.6-199.6,594.6-199.6,594.7z M-200.4,593.5c0.1,0.4,0.4,0.7,0.7,1c0-0.2-0.1-0.3-0.1-0.4
									c-0.1-0.2-0.2-0.3-0.2-0.3c-0.1-0.1-0.1-0.1-0.2-0.1C-200.3,593.6-200.4,593.6-200.4,593.5z M-199.7,594.4l0,0.1
									C-199.7,594.5-199.7,594.3-199.7,594.4z"/>
							</g>
						</g>
					</g>
				</g>
				<g transform="matrix(0.93017,0.451836,0.494449,-0.822229,-217.797,486.224)">
					<path class="st20" d="M-117.9,649c0,0,0.3-0.2,0-0.2c-0.2,0-0.6-0.2-0.9-0.7c-0.1-0.2-0.2-0.3-0.3-0.3c-0.1,0-0.2,0.1-0.3,0.1
						c0.9,1.4,1.6,1.7,1.7,1.8c0.2-0.2,0.1-0.3,0.2-0.3C-117.6,649.3-117.8,649.1-117.9,649z"/>
					<g>
						<defs>
							<path id="SVGID_15_" d="M-117.9,649c0,0,0.3-0.2,0-0.2c-0.2,0-0.6-0.2-0.9-0.7c-0.1-0.2-0.2-0.3-0.3-0.3
								c-0.1,0-0.2,0.1-0.3,0.1c0.9,1.4,1.6,1.7,1.7,1.8c0.2-0.2,0.1-0.3,0.2-0.3C-117.6,649.3-117.8,649.1-117.9,649z"/>
						</defs>
						<clipPath id="SVGID_16_">
							<use xlink:href="#SVGID_15_"  style="overflow:visible;"/>
						</clipPath>
						<g class="st23">
							<g transform="matrix(1.00164,-0.157258,0.158597,0.973461,-35.845,38.8208)">
								<path class="st22" d="M-176.9,598.6c0,0,0.1,0.1,0.1,0.1c0.1,0.1,0.3,0.2,0.4,0.2c0.2,0.1,0.2,0.5-0.4,0.1
									c-0.8-0.5-1.2-1.4-1.4-2.3l-0.1-0.3l0-0.1l0.1,0.1c0,0.1,0.1,0.3,0.1,0.4l0-0.2c0-0.1,0-0.1,0.1-0.1
									c0.1,0.1,0.1,0.1,0.1,0.1c0,0.2,0.1,0.4,0.1,0.5c0.1,0.1,0.6,0.5,0.7,0.9c0,0,0.1,0.2,0.1,0.3
									C-176.9,598.5-176.9,598.5-176.9,598.6z M-177.7,597.4c0.1,0.4,0.4,0.7,0.7,1c0-0.2-0.1-0.3-0.1-0.4
									c-0.1-0.2-0.2-0.3-0.2-0.3c-0.1-0.1-0.1-0.1-0.2-0.1C-177.6,597.5-177.7,597.5-177.7,597.4z M-177,598.3l0,0.1
									C-177,598.4-177,598.2-177,598.3z"/>
							</g>
						</g>
					</g>
				</g>
				<g transform="matrix(0.806912,-0.26997,0.286896,0.857505,-68.3263,84.0211)">
					<path class="st5" d="M148.1-181.6c-0.3-0.5-1.4-1-2.2-1.2c0,0-1-0.2-1.2,0.8c-0.2,0.7-0.6,0.6-1,1.1c-0.5,0.6,0,1,0,1.1
						c0,0,0-0.5,0.4-0.6c0.4-0.1,0.5-0.4,0.5-0.4s0.1,0.3-0.4,0.4c-0.4,0.1-0.4,0.6-0.4,0.6s0.2,0.4,0.7,0.6s2.5,0.9,3.1,0.6
						c0,0-0.4-0.4-0.1-1c0,0-0.2,0.8,0.2,1l0.5-0.4c0,0-0.7-0.4-0.3-1C148.3-180.4,148.4-181.1,148.1-181.6z"/>
				</g>
				<g transform="matrix(-0.897132,0.438297,0.438967,0.898503,401.013,76.0352)">
					<path class="st11" d="M279.5-344.2c0.2,0.7,0.6,1,1.2,1.1l0.4-0.3l0.4,0.3c0,0,0,0.4,0.1,1.1c0.1,0.5,0.8,0.8,1.7,2.5
						c0,0,0.7-0.1,1.6-1.2c0,0-0.3-2.5-1.7-3.3c-0.5-0.3-1.8,0.4-1.5-0.1c0.4-0.6,0-1.8-0.8-1.8C279.4-345.8,279.3-345,279.5-344.2z
						"/>
					<g>
						<defs>
							<path id="SVGID_17_" d="M279.5-344.2c0.2,0.7,0.6,1,1.2,1.1l0.4-0.3l0.4,0.3c0,0,0,0.4,0.1,1.1c0.1,0.5,0.8,0.8,1.7,2.5
								c0,0,0.7-0.1,1.6-1.2c0,0-0.3-2.5-1.7-3.3c-0.5-0.3-1.8,0.4-1.5-0.1c0.4-0.6,0-1.8-0.8-1.8
								C279.4-345.8,279.3-345,279.5-344.2z"/>
						</defs>
						<clipPath id="SVGID_18_">
							<use xlink:href="#SVGID_17_"  style="overflow:visible;"/>
						</clipPath>
						<g class="st24">
							<g transform="matrix(-0.902311,0.440154,0.475052,0.970879,316.376,-267.631)">
								<path class="st25" d="M-3.3-77.4c0,0,0.5,1.1-0.1,2c-0.4,0.6-0.9,0-0.9,0l0.2,2.4h2.6c0,0,1-2.6,0-4c0,0-0.6,0.4-1.2-0.6
									C-2.9-77.7-3.2-77.2-3.3-77.4z"/>
							</g>
						</g>
					</g>
				</g>
				<g transform="matrix(-1.03957,-0.211155,-0.199053,0.979989,396.603,52.9637)">
					<path class="st11" d="M400.3-77.7c0.4-0.7,0-1.9-0.4-1.5c-0.3,0.3-1.4,1.7-1.8,2.4c-0.1,0.2-2.2-1.1-2.6-1.5
						c-0.2-0.2-0.5-0.2-0.7-0.2c0,0,2.6,3.5,3.4,2.9C398.7-76,399.8-76.8,400.3-77.7z"/>
				</g>
				<g transform="matrix(0.762042,-0.372563,0.383024,0.783439,-90.8806,119.277)">
					<path class="st5" d="M214.8-192.5c0,0-0.2,0.8-1.2,1l0.1-0.5c0,0-0.2,0.5-1.1,0.2c0,0-0.5,0.4-0.4,0.7c0,0-0.3-0.3,0.1-0.8
						c0,0,0-0.3-0.3-0.3c-0.3,0-0.4,0.5-0.1,0.8c0,0-0.4,0.7-0.1,1.1l-0.3-0.1c0,0-0.1-0.4,0.1-0.7c0,0-0.2,0.3-0.2,0.6
						c0,0-0.7-0.1-0.7-0.5c0,0,1-0.9,0.8-1.7C211.6-193.6,213.6-194.6,214.8-192.5z"/>
				</g>
				<g transform="matrix(-0.854836,0.48363,0.408456,0.710718,127.12,150.978)">
					<path class="st11" d="M-20.1-350.2L-20.1-350.2c0-0.1,0-0.2,0-0.2c0,0,0-0.1,0-0.1c0-0.1,0-0.1,0-0.1c0.1,0,0,0.2,0.1,0.4
						c0,0,0,0.1,0.1,0.1c0,0,0.5,0,0.6,0c0,0,0,0.5-0.1,0.5c-0.5-0.1-0.9-0.1-1-0.1c-0.1,0-0.3,0-0.4,0c-0.1,0-0.5,0.1-0.5,0.1
						c0,0,0-0.1,0.1-0.1c0.1-0.1,0.2-0.1,0.3-0.1c0,0,0.1,0,0.1,0c0,0,0.1,0,0.1,0s0,0-0.1,0c0,0-0.1,0-0.1,0
						c-0.1,0-0.5,0.1-0.5,0.1c0,0-0.1,0,0,0c0,0,0.3-0.1,0.3-0.1c0.1,0,0.3-0.1,0.3-0.1c0,0,0,0,0,0c0,0,0,0,0,0c0,0-0.7,0-0.7,0
						c0,0,0.1-0.1,0.2-0.1c0.1,0,0.3,0,0.4,0c0,0,0.1,0,0.1,0c0,0,0,0,0.1,0c0,0,0,0,0,0c0,0-0.1,0-0.1,0c-0.1,0-0.2,0-0.3,0
						c0,0-0.2,0-0.2,0c0-0.1,0.5-0.1,0.6-0.1C-20.5-350.3-20.3-350.3-20.1-350.2z M-20-350.6"/>
				</g>
			</g>
			<g transform="matrix(1,0,0,1,124.801,359.47)">
				<path class="st7" d="M-83.1-300.7h27.7c0,0,0,2.1-2.8,1.9h-22.1C-80.3-298.8-83.1-298.7-83.1-300.7"/>
			</g>
			<g transform="matrix(1,0,0,1,271.181,346.262)">
				<path class="st26" d="M-212.8-286.6h-5.6c-0.2,0-0.4-0.2-0.4-0.4h6.3C-212.5-286.7-212.6-286.6-212.8-286.6"/>
			</g>
		</g>
		<g transform="matrix(1.21417,0,0,1.21417,-35.6506,-11.2392)">
			<path class="st20" d="M29.6-4.5L29.6-4.5L29.6-4.5L29.6-4.5L29.6-4.5L29.6-4.5L29.6-4.5l0.1,0.1l0,0l0,0l0,0l0,0l0,0l0,0l0,0l0,0
				l0,0l0,0l0,0l0,0l0,0l0,0l0,0l0,0l0,0l0,0l0,0l0,0l0,0l0,0l0,0l0,0l0,0l0,0l0,0l0,0l0,0l0,0l0,0l0,0l0,0l0,0l0,0l0,0l0,0l0,0l0,0
				l0,0l0,0l0,0l0,0l0,0l0,0l0,0l0,0l0,0l0,0l0,0l0,0l0,0l0,0l0,0l0,0l0,0l0,0l0,0l0,0l0,0l0,0l0,0l0,0l0,0l0,0l0,0l0,0l0,0l0,0l0,0
				l0,0l0,0l0,0l0,0l0,0l0,0l0,0l0,0l0,0l0,0l0,0l0,0l0,0l0,0l0,0l0,0l0,0l0,0l0,0l0,0l0,0l0,0l0,0l0,0l0,0l0,0l0,0l0,0l0,0l0,0l0,0
				l0,0l0,0l0,0l0,0l0,0l0,0l0,0l0,0l0,0l0,0l0,0l0,0l0,0l0,0l0,0l0,0l0,0l0,0l0,0l0,0l0,0l0,0l0,0l0,0l0,0l0,0l0,0l0,0l0,0l0,0l0,0
				l0,0l0,0l0,0l0,0l0,0l0,0l0,0l0,0l0,0l0,0l0,0l0,0l0,0l0,0l0,0l0,0l0,0l0,0l0,0l0,0l0,0l0,0l0,0l0,0l0,0l0,0l0,0l0,0l0,0l0,0l0,0
				l0,0l0,0l0,0l0,0l0,0l0,0l0,0l0,0l0,0l0,0l0,0l0,0l0,0.1l0,0.1l0,0l0,0l0,0l0,0v0l0,0.1l0,0l0,0l0,0l0,0l0,0l0,0l0,0l0,0l0,0l0,0
				l0,0l0,0l0,0l0,0l0,0l0,0l0,0l0,0l0,0.1l0,0.1l0,0.1l0,0.1l0,0.1l0,0.1l0,0.1l0,0.1l0,0.1l0,0.2l0,0.2l0,0.2l0,0.2l0,0.4l0,0.4
				l0,0.4l0,0.4l0,0.4l0,0.5l0,0.5l0,0.5l0,0.5l0,0.5l0,0.5l0,0.4l0,0.4v0.4l0,0.4l0,0.4l0,0.4l0,0.3l0,0.3l0,0.3l0,0.2l0,0.2l0,0.1
				l0,0.1l0,0.1l0,0l0,0l0,0l0,0l0,0l0,0l0,0l0,0l0,0l0,0l0,0l0,0l0,0l0,0l0,0l0-0.1l0-0.1l0-0.1l0-0.2l0-0.2l0-0.3l0-0.3l0-0.3
				l0-0.4l0-0.4l0-0.4V6.1l0-0.4l0-0.4l0-0.5l0-0.5l0-0.5l0-0.5l0-0.5l0-0.5l0-0.4l0-0.4l0-0.4l0-0.4l0-0.4l0-0.2l0-0.2l0-0.2l0-0.2
				l0-0.1l0-0.1l0-0.1l0-0.1l0-0.1l0-0.1l0-0.1l0-0.1l0-0.1l0,0l0,0l0,0l0,0l0,0l0,0l0,0l0,0l0,0l0,0l0,0l0,0l0,0l0,0l0,0l0,0l0,0
				l0,0l0,0v0l0,0l0,0l0,0l0,0l0-0.1l0-0.1l0,0l0,0l0,0l0,0l0,0l0,0l0,0l0,0l0,0l0,0l0,0l0,0l0,0l0,0l0,0l0,0l0,0l0,0l0,0l0,0l0,0
				l0,0l0,0l0,0l0,0l0,0l0,0l0,0l0,0l0,0l0,0l0,0l0,0l0,0l0,0l0,0l0,0l0,0l0,0l0,0l0,0l0,0l0,0l0,0l0,0l0,0l0,0l0,0l0,0l0,0l0,0l0,0
				l0,0l0,0l0,0l0,0l0,0l0,0l0,0l0,0l0,0l0,0l0,0l0,0l0,0l0,0l0,0l0,0l0,0l0,0l0,0l0,0l0,0l0,0l0,0l0,0l0,0l0,0l0,0l0,0l0,0l0,0l0,0
				l0,0l0,0l0,0l0,0l0,0l0,0l0,0l0,0l0,0l0,0l0,0l0,0l0,0l0,0l0,0l0,0l0,0l0,0l0,0l0,0l0,0l0,0l0,0l0,0l0,0l0,0l0,0l0,0l0,0l0,0l0,0
				l0,0l0,0l0,0l0,0l0,0l0,0l0,0l0,0l0,0l0,0l0,0l0,0l0,0l0,0l0,0l0,0l0,0l0,0l0,0l0,0l0,0l0,0l0,0l0,0l0,0l0,0l0,0l0,0l0,0l0,0l0,0
				l0,0l0,0l0,0l0,0l0,0l0,0l0,0l0,0l0,0l0,0l0,0l0,0l0,0l0,0l0,0l0,0l0,0l0,0l0,0l0,0l0,0l0,0L29.6-4.5L29.6-4.5L29.6-4.5L29.6-4.5
				z"/>
		</g>
		<g transform="matrix(1.21417,0,0,1.21417,-35.6506,-11.2392)">
			<path class="st20" d="M49.5,11.2L49.5,11.2L49.5,11.2L49.5,11.2L49.5,11.2l0.1,0.1l0,0l0,0l0,0l0,0l0,0l0,0l0,0l-0.1,0l-0.1,0
				l-0.1,0l-0.1,0l-0.1,0l-0.1,0l-0.1,0l-0.1,0l-0.1,0l-0.1,0l-0.1,0l-0.1,0l-0.3,0l-0.3,0l-0.3,0l-0.3,0l-0.3,0l-0.4,0l-0.4,0
				l-0.4,0l-0.4,0l-0.4,0l-0.4,0l-0.4,0l-0.5,0l-0.5,0l-0.5,0l-1,0l-1,0l-1,0l-1.1,0l-1.1,0l-1.1,0l-1.1,0l-2.1,0l-1,0l-1,0l-1,0
				l-0.9,0l-0.9,0l-0.8,0h-0.4l-0.4,0l-0.3,0l-0.3,0l-0.3,0l-0.3,0l-0.3,0l-0.2,0l-0.2,0l-0.2,0l-0.2,0l-0.1,0l-0.1,0l0,0l0,0l0,0
				l0,0l0,0l0,0l0,0l0,0l0,0l0,0l0.1,0l0.1,0l0.2,0l0.2,0l0.2,0l0.2,0l0.3,0l0.3,0l0.3,0l0.3,0l0.3,0l0.4,0h0.4l0.8,0l0.9,0l0.9,0
				l1,0l1,0l1,0l2.1,0l1.1,0l1.1,0l1.1,0l1.1,0l1,0l1,0l1,0h0.5l0.5,0l0.5,0l0.4,0l0.4,0l0.4,0l0.4,0l0.4,0l0.4,0l0.4,0l0.3,0l0.3,0
				l0.3,0l0.3,0l0.3,0l0.1,0l0.1,0l0.1,0l0.1,0l0.1,0l0.1,0l0.1,0l0.1,0l0.1,0l0.1,0l0.1,0l0.1,0L49.5,11.2L49.5,11.2L49.5,11.2
				L49.5,11.2z"/>
		</g>
		<g transform="matrix(1.21417,0,0,1.21417,-35.6506,-11.2392)">
			<path class="st20" d="M24.4,11.2L24.4,11.2L24.4,11.2L24.4,11.2L24.4,11.2L24.4,11.2L24.4,11.2L24.4,11.2l0.1,0.1l0,0l0,0l0,0
				l0,0l0,0l0,0l0,0l0,0l0,0l0,0l0,0l0,0l0,0l0,0l0,0l0,0l0,0l0,0l0,0l0,0l0,0l0,0l0,0l0,0l0,0l0,0l0,0l0,0l0,0l0,0l0,0l0,0l0,0l0,0
				l0,0l0,0l0,0l0,0l0,0l0,0l0,0l0,0l0,0l0,0l0,0l0,0l0,0l0,0l0,0l0,0l0,0l0,0l0,0l0,0l0,0l0,0l0,0l0,0l0,0l0,0l0,0l0,0l0,0l0,0l0,0
				l0,0l0,0l0,0l0,0l0,0l0,0l0,0l0,0l0,0l0,0l0,0l0,0l0,0l0,0l0,0l0,0l0,0l0,0l0,0l0,0l0,0l0,0l0,0l0,0l0,0l0,0l0,0l0,0l0,0l0,0l0,0
				l0,0l0,0l0,0l0,0l0,0l0,0l0,0l0,0l0,0l0,0l0,0l0,0l0,0l0,0l0,0l0,0l0,0l0,0l0,0l0,0l0,0l0,0l0,0l0,0l0,0l0,0l0,0l0,0l0,0l0,0l0,0
				l0,0l0,0l0,0l0,0l0,0l0,0l0,0l0,0l0,0l0,0l0,0l0,0l0,0l0,0l0,0l0,0l0,0l0,0l0,0l0,0l0,0l0,0l0,0l0,0l0,0l0,0l0,0l0,0l0,0l0,0l0,0
				l0,0l0,0l0,0l0,0l0,0l0.1,0l0.1,0l0.1,0l0.1,0l0.1,0l0.1,0l0.1,0l0.1,0l0.1,0l0.1,0l0.1,0l0.1,0l0.1,0l0.1,0l0.1,0l0.1,0l0.1,0
				l0.1,0l0.1,0l0.1,0l0.1,0l0.1,0l0.1,0l0.1,0l0.1,0l0.1,0l0.1,0l0.1,0l0.1,0l0.1,0l0.1,0l0.1,0l0.1,0l0.1,0l0.1,0h0.1H30l0.3,0
				l0.3,0l0.1,0l0.1,0H31l0.1,0l0.1,0l0.1,0l0.1,0l0.1,0l0,0l0,0l0,0l0,0l0,0l0,0l0,0l0,0l0,0l0,0l0,0l0,0l0,0l0,0l0,0l0,0l0,0
				l-0.1,0l-0.1,0l-0.1,0l-0.1,0l-0.1,0h-0.1l-0.1,0l-0.1,0l-0.3,0l-0.3,0l-0.1,0l-0.1,0l-0.1,0l-0.1,0l-0.1,0l-0.1,0l-0.1,0l-0.1,0
				l-0.1,0l-0.1,0l-0.1,0l-0.1,0l-0.1,0l-0.1,0l-0.1,0l-0.1,0l-0.1,0l-0.1,0l-0.1,0l-0.1,0l-0.1,0l-0.1,0l-0.1,0l-0.1,0l-0.1,0
				l-0.1,0l-0.1,0l-0.1,0l-0.1,0l-0.1,0l-0.1,0l-0.1,0l-0.1,0l-0.1,0l-0.1,0l-0.1,0l-0.1,0l0,0l0,0l0,0l0,0l0,0l0,0l0,0l0,0l0,0l0,0
				l0,0l0,0l0,0l0,0l0,0l0,0l0,0l0,0l0,0l0,0l0,0l0,0l0,0l0,0l0,0l0,0l0,0l0,0l0,0l0,0l0,0l0,0l0,0l0,0l0,0l0,0l0,0l0,0l0,0l0,0l0,0
				l0,0l0,0l0,0l0,0l0,0l0,0l0,0l0,0l0,0l0,0l0,0l0,0l0,0l0,0l0,0l0,0l0,0l0,0l0,0l0,0l0,0l0,0l0,0l0,0l0,0l0,0l0,0l0,0l0,0l0,0l0,0
				l0,0l0,0l0,0l0,0l0,0l0,0l0,0l0,0l0,0l0,0l0,0l0,0l0,0l0,0l0,0l0,0l0,0l0,0l0,0l0,0l0,0l0,0l0,0l0,0l0,0l0,0l0,0l0,0l0,0l0,0l0,0
				l0,0l0,0l0,0l0,0l0,0l0,0l0,0l0,0l0,0l0,0l0,0l0,0l0,0l0,0l0,0l0,0l0,0l0,0l0,0l0,0l0,0l0,0l0,0l0,0l0,0l0,0l0,0l0,0l0,0l0,0l0,0
				l0,0l0,0l0,0l0,0l0,0l0,0l0,0l0,0l0,0l0,0l0,0l0,0l0,0l0,0l0,0l0,0l0,0l0,0l0,0l0,0l0,0l0,0l0,0l0,0l0,0l0,0l0,0l0,0l0,0l0,0l0,0
				l0,0l0,0L24.4,11.2L24.4,11.2L24.4,11.2L24.4,11.2L24.4,11.2L24.4,11.2L24.4,11.2L24.4,11.2L24.4,11.2L24.4,11.2L24.4,11.2z"/>
		</g>
		<g transform="matrix(1.21417,0,0,1.21417,-35.6506,-11.2392)">
			<path class="st20" d="M36.4,11.8L36.4,11.8L36.4,11.8L36.4,11.8L36.4,11.8L36.4,11.8L36.4,11.8L36.4,11.8L36.4,11.8L36.4,11.8
				L36.4,11.8L36.4,11.8L36.4,11.8l0.1,0.1l0,0l0,0l0,0l0,0l0,0l0,0l0,0l0,0l0,0l0,0l0,0l0,0l0,0l0,0l0,0l0,0l0,0l0,0l0,0l0,0l0,0
				l0,0l0,0l0,0l0,0l0,0l0,0l0,0l0,0l0,0l0,0l0,0l0,0l0,0l0,0l0,0l0,0l0,0l0,0l0,0l0,0l0,0l0,0l0,0l0,0l0,0l0,0l0,0l0,0l0,0l0,0l0,0
				l0,0l0,0l0,0l0,0l0,0l0,0l0,0l0,0l0,0l0,0l0,0l0,0l0,0l0,0l0,0l0,0l0,0l0,0l0,0l0,0l0,0l0,0l0,0l0,0l0,0h0h0l0,0l0,0l0,0l0,0l0,0
				l0,0h0l0,0l0.1,0l0.1,0l0.1,0l0.1,0l0.1,0l0.1,0h0.1l0.1,0l0.1,0l0.1,0l0.1,0l0.1,0l0.1,0l0.1,0l0.1,0l0.1,0l0.3,0l0.2,0l0.2,0
				l0.2,0l0.2,0l0.1,0l0.1,0l0,0l0,0l0,0l0,0l0,0l0,0l0,0l0,0l0,0l0,0l0,0l0,0l0,0l0,0l0,0l0,0l0,0l0,0l0,0l0,0l0,0l-0.1,0l-0.1,0
				l-0.2,0l-0.2,0l-0.2,0l-0.2,0l-0.3,0l-0.1,0l-0.1,0l-0.1,0l-0.1,0l-0.1,0l-0.1,0l-0.1,0l-0.1,0l-0.1,0h-0.1l-0.1,0l-0.1,0l-0.1,0
				l-0.1,0l-0.1,0l-0.1,0l0,0h0l0,0l0,0l0,0l0,0l0,0l0,0h0h0l0,0l0,0l0,0l0,0l0,0l0,0l0,0l0,0l0,0l0,0l0,0l0,0l0,0l0,0l0,0l0,0l0,0
				l0,0l0,0l0,0l0,0l0,0l0,0l0,0l0,0l0,0l0,0l0,0l0,0l0,0l0,0l0,0l0,0l0,0l0,0l0,0l0,0l0,0l0,0l0,0l0,0l0,0l0,0l0,0l0,0l0,0l0,0l0,0
				l0,0l0,0l0,0l0,0l0,0l0,0l0,0l0,0l0,0l0,0l0,0l0,0l0,0l0,0l0,0l0,0l0,0l0,0l0,0l0,0l0,0l0,0l0,0l0,0l0,0l0,0l0,0l0,0l0,0l0,0l0,0
				l0,0l0,0l0,0L36.4,11.8L36.4,11.8L36.4,11.8L36.4,11.8L36.4,11.8L36.4,11.8L36.4,11.8L36.4,11.8L36.4,11.8L36.4,11.8L36.4,11.8
				L36.4,11.8L36.4,11.8z"/>
		</g>
		<g transform="matrix(1.21417,0,0,1.21417,-35.6506,-11.2392)">
			<path class="st20" d="M32.4-3L32.4-3L32.4-3L32.4-3L32.4-3L32.4-3L32.4-3L32.4-3L32.4-3l0.1,0.1l0,0l0,0l0,0l0,0l0,0l0,0
				l-3.7-0.1l0,0.2l0,0.9l0,1.3l0,0.7l0,0.8l0,0.8l0,0.8l0,0.8l0,0.7l0,0.3l0,0.3l0,0.3l0,0.3l0,0.3l0,0.2l0,0.2l0,0.2l0,0l0,0l0,0
				l0,0l0,0l0,0l0,0l0,0l0,0l0,0l0,0l0,0l0,0l0,0l0,0l0-0.2l0-0.2l0-0.2l0-0.3l0-0.3l0-0.3l0-0.3l0-0.3l0-0.7l0-0.8l0-0.8l0-0.8
				l0-0.8l0-0.7l0-1.3l0-0.9l0-0.3l0,0l0,0l0,0l0,0l0,0l0,0l0,0l0,0L32.4-3z"/>
		</g>
	</g>
	<g transform="matrix(0.189624,-0.981857,0.981857,0.189624,37.8033,585.123)">
		<g transform="matrix(-0.390922,0.318148,-0.330446,-0.367294,577.007,203.263)">
			<path class="st27" d="M-379.9,516.5c-0.5,1.1-0.4,3-0.6,4.5c-0.2,1.5-0.5,3.6-0.4,4.5c0.1,0.6,0.4,0.5,0.8-0.4
				c0.4-0.9,0.8-2.5,0.9-3.2c0.4-1.7,1-4.6,0.5-5.3C-378.9,516.2-379.9,516.5-379.9,516.5z"/>
		</g>
		<g transform="matrix(-0.397927,0.680133,-0.59854,-0.315008,521.166,236.332)">
			<path class="st27" d="M-409.3,220.1c0.2-0.1,0.4-0.7,0.9-0.9c0,0,0.3,0,0.3,0.2c0,0.1-0.1,0.5-0.3,0.9c-0.1,0.2-0.3,0.6-0.4,0.8
				c0,0.1-0.1,0.1-0.1,0.2c0,0,0,0,0,0c0,0,0,0,0-0.1c0-0.1,0-0.1,0-0.2c0-0.1,0.1-0.2,0.1-0.4c0,0,0-0.1,0-0.1c0,0,0-0.1,0-0.1
				s0,0.1,0,0.1c0,0.1-0.1,0.1-0.1,0.2c-0.1,0.1-0.1,0.3-0.2,0.4c0,0,0,0.1-0.1,0.1c0,0,0,0,0,0c0-0.1,0-0.1,0-0.2
				c0-0.1,0.1-0.3,0.2-0.4c0,0,0-0.1,0.1-0.1c0,0,0-0.1,0-0.1s0,0,0,0c0,0,0,0,0,0.1c0,0.1-0.1,0.1-0.1,0.2
				c-0.1,0.1-0.2,0.2-0.2,0.3c0,0-0.1,0.1-0.1,0.1c0,0,0,0,0-0.1c0-0.1,0-0.1,0.1-0.2c0.1-0.1,0.3-0.5,0.3-0.6c0,0,0-0.1,0-0.1
				s0,0,0,0c0,0-0.3,0.3-0.3,0.4c0,0-0.1,0.2-0.2,0.1c0,0,0-0.1,0-0.1c0-0.1,0.1-0.1,0.1-0.2c0.1-0.2,0.3-0.5,0.4-0.7
				c-0.1,0.1-0.2,0.2-0.3,0.1C-409.4,220.2-409.4,220.1-409.3,220.1z"/>
		</g>
		<g transform="matrix(0.349617,-0.0815281,-0.0930629,-0.387236,333.168,339.382)">
			<path class="st5" d="M890.6,969.2c0,0,0.5-1.5,2-3c0.6-0.6-1.1-3.5-1.8-3c-1.2,0.7-3.5,4.6-3.5,4.6
				C887.6,968.6,890.6,969.2,890.6,969.2z"/>
		</g>
	</g>
	<g transform="matrix(0.333934,0.0421154,-0.0380802,0.342943,276.016,241.192)">
		<g transform="matrix(0.984303,0.176485,-0.176485,0.984303,329.354,81.9084)">
			<path class="st28" d="M-1193.7-422.1c0,0-1.3-4.2-1.4-4.5c-0.3-1.2-0.6-2.3-1.3-2.5c-0.4-0.2-0.9-0.4-1.5-0.4
				c-0.3,0-1.5,0.5-2,1.1c-0.4,0.4-0.2,1.8-0.1,2.7c0.2,1.1,1.1,4.1,1.1,4.1C-1198.1-420.7-1194.1-421.2-1193.7-422.1"/>
		</g>
		<g transform="matrix(-1.07473,0.101769,0.0999794,1.09397,362.822,-107.818)">
			<path class="st27" d="M1013.4-470.4c-0.1,0.3,0.1,0.8,0.2,1.1c0.1,0.2,0,0.5,0.1,0.7c0.1,0.3,0.4,0,0.5-0.2c0.1-0.3,0-0.7,0-0.9
				c0-0.3,0.1-0.8-0.1-1.1c-0.1-0.3-0.5-0.2-0.6,0.1"/>
		</g>
		<g transform="matrix(-1.07473,0.101769,0.0890757,0.974664,417.614,-62.6828)">
			<path class="st27" d="M1054.8-579.1c-0.1,0.3,0.1,0.8,0.2,1.1c0.1,0.2,0,0.5,0.1,0.7c0.1,0.3,0.4,0,0.5-0.2c0.1-0.3,0-0.7,0-0.9
				c0-0.3,0.1-0.8-0.1-1.1c-0.1-0.3-0.5-0.2-0.6,0.1"/>
		</g>
		<g transform="matrix(2.86153,-0.270965,0.218844,2.39458,104.865,-125.598)">
			<path class="st20" d="M-290.2-197c0,0-0.1,0.3-0.8,0.4c0,0-0.1,0-0.1,0c0,0.1,0,0.1-0.1,0.2c0,0.1,0.2,0.1,0.2,0.1
				c0.2,0,0.5,0,0.7,0c0.2-0.1,0.4,0,0.6,0c0-0.1,0-0.1,0-0.2c0-0.1,0-0.1,0-0.2c0-0.1-0.1-0.1-0.1,0c0,0-0.1,0.1-0.1,0.1
				c-0.1,0-0.1,0-0.2,0c0,0-0.1,0-0.1,0C-290.2-196.8-290.2-196.8-290.2-197C-290.1-196.9-290.1-196.9-290.2-197
				C-290.2-197-290.2-197-290.2-197z"/>
			<g>
				<defs>
					<path id="SVGID_19_" d="M-290.2-197c0,0-0.1,0.3-0.8,0.4c0,0-0.1,0-0.1,0c0,0.1,0,0.1-0.1,0.2c0,0.1,0.2,0.1,0.2,0.1
						c0.2,0,0.5,0,0.7,0c0.2-0.1,0.4,0,0.6,0c0-0.1,0-0.1,0-0.2c0-0.1,0-0.1,0-0.2c0-0.1-0.1-0.1-0.1,0c0,0-0.1,0.1-0.1,0.1
						c-0.1,0-0.1,0-0.2,0c0,0-0.1,0-0.1,0C-290.2-196.8-290.2-196.8-290.2-197C-290.1-196.9-290.1-196.9-290.2-197
						C-290.2-197-290.2-197-290.2-197z"/>
				</defs>
				<clipPath id="SVGID_20_">
					<use xlink:href="#SVGID_19_"  style="overflow:visible;"/>
				</clipPath>
				<g class="st29">
					<path class="st30" d="M-290.1-196.7L-290.1-196.7L-290.1-196.7L-290.1-196.7L-290.1-196.7L-290.1-196.7L-290.1-196.7
						L-290.1-196.7L-290.1-196.7L-290.1-196.7L-290.1-196.7l0.1,0l0,0l0,0l0,0l0,0l0,0l0,0l0,0l0,0l0,0l0,0l0,0l0,0l0,0l0,0l0,0l0,0
						l0,0l0,0l0,0l0,0l0,0l0,0l0,0l0,0l0,0l0,0l0,0l0,0l0,0l0,0l0,0l0,0l0,0l0,0l0,0l0,0l0,0l0,0l0,0l0,0l0,0l0,0l0,0l0,0l0,0l0,0
						l0,0l0,0l0,0l0,0l0,0l0,0l0,0l0,0l0,0l0,0l0,0l0,0l0,0l0,0l0,0l0,0l0,0l0,0l0,0l0,0l0,0l0,0l0,0l0,0l0,0l0,0l0,0l0,0l0,0l0,0
						l0,0l0,0l0,0l0,0l0,0l0,0l0,0l0,0l0,0l0,0l0,0l0,0l0,0l0,0l0,0l0,0l0,0l0,0l0,0h0l0,0l0,0l0,0h0l0,0l0,0l0,0l0,0l0,0l0,0h0l0,0
						l0,0l0,0l0,0l0,0l0,0l0,0l0,0l0,0l0,0l0,0l0,0l0,0l0,0l0,0l0,0l0,0l0,0l0,0l0,0l0,0l0,0l0,0l-0.1,0l0,0l0,0l0,0l0,0l0,0l0,0
						l0,0l0,0l0,0l0,0l0,0l0,0l0,0l0,0l0,0l0,0l0,0l0,0l0,0l0,0l0,0l0,0l0,0l0,0l0,0l0,0l0,0l0,0l0,0l0,0l0,0l0,0l0,0l0,0l0,0l0,0
						l0,0l0,0l0,0l0,0l0,0l0,0l0,0l0,0l0,0l0,0l0,0l0,0l0.1,0l0,0l0,0l0,0l0,0l0,0l0,0l0,0l0,0l0,0l0,0l0,0l0,0l0,0l0,0l0,0l0,0l0,0
						l0,0l0,0l0,0l0,0l0,0l0,0l0,0L-290.1-196.7L-290.1-196.7L-290.1-196.7L-290.1-196.7L-290.1-196.7L-290.1-196.7L-290.1-196.7
						L-290.1-196.7L-290.1-196.7L-290.1-196.7L-290.1-196.7L-290.1-196.7L-290.1-196.7L-290.1-196.7z"/>
				</g>
			</g>
		</g>
		<g transform="matrix(2.53391,-0.239942,0.218844,2.39458,77.2373,-122.982)">
			<path class="st20" d="M-319.1-197c0,0-0.1,0.3-0.8,0.4c0,0-0.1,0-0.1,0c0,0.1,0,0.1-0.1,0.2c0,0.1,0.2,0.1,0.2,0.1
				c0.2,0,0.5,0,0.7,0c0.2-0.1,0.4,0,0.6,0c0-0.1,0-0.1,0-0.2c0-0.1,0-0.1,0-0.2c0-0.1-0.1-0.1-0.1,0c0,0-0.1,0.1-0.1,0.1
				c-0.1,0-0.1,0-0.2,0c0,0-0.1,0-0.1,0C-319-196.8-319-196.8-319.1-197C-319-196.9-319-196.9-319.1-197C-319-197-319-197-319.1-197
				z"/>
			<g>
				<defs>
					<path id="SVGID_21_" d="M-319.1-197c0,0-0.1,0.3-0.8,0.4c0,0-0.1,0-0.1,0c0,0.1,0,0.1-0.1,0.2c0,0.1,0.2,0.1,0.2,0.1
						c0.2,0,0.5,0,0.7,0c0.2-0.1,0.4,0,0.6,0c0-0.1,0-0.1,0-0.2c0-0.1,0-0.1,0-0.2c0-0.1-0.1-0.1-0.1,0c0,0-0.1,0.1-0.1,0.1
						c-0.1,0-0.1,0-0.2,0c0,0-0.1,0-0.1,0C-319-196.8-319-196.8-319.1-197C-319-196.9-319-196.9-319.1-197
						C-319-197-319-197-319.1-197z"/>
				</defs>
				<clipPath id="SVGID_22_">
					<use xlink:href="#SVGID_21_"  style="overflow:visible;"/>
				</clipPath>
				<g class="st31">
					<path class="st30" d="M-319-196.7L-319-196.7L-319-196.7L-319-196.7L-319-196.7L-319-196.7L-319-196.7L-319-196.7L-319-196.7
						L-319-196.7L-319-196.7l0.1,0l0,0l0,0l0,0l0,0l0,0l0,0l0,0l0,0l0,0l0,0l0,0l0,0l0,0l0,0l0,0l0,0l0,0l0,0l0,0l0,0l0,0l0,0l0,0
						l0,0l0,0l0,0l0,0l0,0l0,0l0,0l0,0l0,0l0,0l0,0l0,0l0,0l0,0l0,0l0,0l0,0l0,0l0,0l0,0l0,0l0,0l0,0l0,0l0,0l0,0l0,0l0,0l0,0l0,0
						l0,0l0,0l0,0l0,0l0,0l0,0l0,0l0,0l0,0l0,0l0,0l0,0l0,0l0,0l0,0l0,0l0,0l0,0l0,0l0,0l0,0l0,0l0,0l0,0l0,0l0,0l0,0l0,0l0,0l0,0
						l0,0l0,0l0,0l0,0l0,0l0,0l0,0l0,0l0,0l0,0l0,0l0,0l0,0l0,0l0,0h0l0,0l0,0l0,0l0,0l0,0l0,0l0,0l0,0l0,0l0,0l0,0l0,0h0l0,0h0l0,0
						l0,0l0,0l0,0l0,0l0,0l0,0l0,0l0,0l0,0l0,0l0,0l0,0l0,0l0,0l0,0l0,0l0,0l0,0l0,0l0,0l-0.1,0l0,0l0,0l0,0l0,0l0,0l0,0l0,0l0,0
						l0,0l0,0l0,0l0,0l0,0l0,0l0,0l0,0l0,0l0,0l0,0l0,0l0,0l0,0l0,0l0,0l0,0l0,0l0,0l0,0l0,0l0,0l0,0l0,0l0,0l0,0l0,0l0,0l0,0l0,0
						l0,0l0,0l0,0l0,0l0,0l0,0l0,0l0,0l0.1,0l0,0l0,0l0,0l0,0l0,0l0,0l0,0l0,0l0,0l0,0l0,0l0,0l0,0l0,0l0,0l0,0l0,0l0,0l0,0l0,0l0,0
						l0,0l0,0l0,0l0,0L-319-196.7L-319-196.7L-319-196.7L-319-196.7L-319-196.7L-319-196.7L-319-196.7L-319-196.7L-319-196.7
						L-319-196.7L-319-196.7L-319-196.7L-319-196.7z"/>
				</g>
			</g>
		</g>
		<g transform="matrix(1.45147,-0.187151,0.187151,1.45147,-300.223,-126.226)">
			<path class="st10" d="M-286.6-314.6L-286.6-314.6c0,0-0.3-3.4-0.4-4.6c-0.1-1,0.5-5.7,1.8-4.7c1.5,1.2,2.2,2.6,1.7,4.9
				c-0.2,0.8-0.9,3.9-1.1,5.1c0.4,0.9,0.4,1.9-0.1,2.7c0,0-1.4,3.9-1.5,4c-0.2,0.2-0.7,0-0.7,0
				C-287.1-307.1-286.6-314.5-286.6-314.6z"/>
		</g>
		<g transform="matrix(1.45147,-0.187151,0.187151,1.45147,-300.223,-126.226)">
			<path class="st32" d="M-283.6-314.6L-283.6-314.6c0,0-0.9-3.3-1.3-4.4c-0.3-0.9-0.7-5.7,0.8-4.9c1.7,0.9,2.7,2.1,2.6,4.4
				c0,0.8-0.1,3.4-0.1,4.8c0.7,0.8,0.9,2.1,0.5,3c0,0-1.2,4.5-1.3,4.7c-0.2,0.5-0.8,0.1-0.9-0.2L-283.6-314.6z"/>
		</g>
		<g transform="matrix(1.45147,-0.187151,0.187151,1.45147,-300.223,-126.226)">
			<path class="st33" d="M-282.7-322L-282.7-322L-282.7-322L-282.7-322L-282.7-322L-282.7-322L-282.7-322L-282.7-322L-282.7-322
				L-282.7-322L-282.7-322L-282.7-322L-282.7-322L-282.7-322L-282.7-322L-282.7-322L-282.7-322L-282.7-322L-282.7-322L-282.7-322
				L-282.7-322L-282.7-322L-282.7-322L-282.7-322l0.1,0.1l0,0l0,0l0,0l0,0l0,0l0,0l0,0l0,0l0,0l0,0l0,0l0,0l0,0l0,0l0,0l0,0l0,0l0,0
				l0,0l0,0l0,0l0,0l0,0l0,0l0,0.1l0,0.1l0,0.1l0,0.1l0,0.1l0,0.1l0,0.1l0,0l0,0l0,0l0,0l0,0l0,0l0,0l0,0l0,0l0,0l0,0l0,0l0,0l0,0
				l0,0l0,0l0,0l0,0l0,0.1l0,0.1l0,0.1l0,0.1l0,0.1l0,0l0,0.1l0,0.1l0,0.1l0,0.1l0,0.1l0,0.1l0,0.1l0,0.2l0,0.2l0,0.2l0,0.2l0,0.1
				l0,0.1l0,0.1l0,0l0,0.1l0,0.1l0,0.1l0,0.1l0,0.1l0,0.1l0,0.1l0,0.1l0,0.1l0,0.1l0,0.1l0,0.1l0,0.1l0,0.1l0,0.1l0,0.1v0.1l0,0.1
				l0,0.1l0,0.1l0,0.1l0,0.1l0,0.1l0,0.1l0,0.1l0,0l0,0l0,0l0,0l0,0l0,0l0,0l0,0l0,0l0,0l0,0l0,0l0,0l0,0l0,0l0,0l0,0l0,0l0,0l0,0
				l0,0l0,0l0,0l0,0l0,0l0,0l0,0l0,0l0,0l0,0l0,0l0,0l0,0l0,0l0,0l0,0.1l0,0.1l0,0.1l0,0.1l0,0.1l0,0.1l0,0.1l0,0.1l0,0l0,0.1l0,0.1
				l0,0.1l0,0.1l0,0.1l0,0.1l0,0.1l0,0l0,0l0,0l0,0l0,0l0,0l0,0l0,0l0,0l0,0l0,0l0,0l0,0l0,0l0,0l0,0l0,0l0,0l0,0l0,0l0,0l0,0l0,0
				l0,0l0,0l0,0l0,0.1l0,0.1l0,0.1l0,0.1l0,0.1l0,0l0,0.1l0,0.1l0,0.1l0,0.1l0,0.1l0,0.1l0,0.1l0,0.1l0,0.1l0,0.1l0,0.1l0,0.1l0,0.1
				l0,0.1l0,0.1l0,0.1l0,0.1l0,0.1l0,0.1l0,0.1l0,0.1l0,0.1l0,0.1l0,0.1l0,0.1l0,0.1l0,0.1l0,0.1l0,0.1l0,0.1l0,0.1l0,0.1l0,0.1l0,0
				l0,0.1l0,0.1l0,0.1l0,0.1l0,0.1l0,0.1l0,0.1l0,0.1l0,0.1l0,0.1l0,0.1l0,0.1l0,0.1l0,0.1l0,0.1l0,0.1l0,0.1l0,0.1l0,0.1l0,0.1
				l0,0.1l0,0.1l0,0l0,0l0,0l0,0l0,0l0,0l0,0l0,0l0,0l0,0l0,0l0,0l0,0l0,0l0,0l0,0l0,0l0,0l0,0l0,0l0,0l0,0l0,0l0,0l0,0l0,0.2l0,0.1
				l0,0l0,0l0,0l0,0l0,0l0,0l0,0l0,0l0,0l0,0l0,0l0,0l0,0l0,0l0-0.1l0-0.2l0,0l0,0l0,0l0,0l0,0l0,0l0,0l0,0l0,0l0,0l0,0l0,0l0,0l0,0
				l0,0l0,0l0,0l0,0l0,0l0,0l0,0l0,0l0,0l0,0l0,0l0-0.1l0-0.1l0-0.1l0-0.1l0-0.1l0-0.1l0-0.1l0-0.1l0-0.1l0-0.1l0-0.1l0-0.1l0-0.1
				l0-0.1l0-0.1l0-0.1l0-0.1l0-0.1l0-0.1l0-0.1l0-0.1l0-0.1l0,0l0-0.1l0-0.1l0-0.1l0-0.1l0-0.1l0-0.1l0-0.1l0-0.1l0-0.1l0-0.1l0-0.1
				l0-0.1l0-0.1l0-0.1l0-0.1l0-0.1l0-0.1l0-0.1l0-0.1l0-0.1l0-0.1l0-0.1l0-0.1l0-0.1l0-0.1l0-0.1l0-0.1l0-0.1l0-0.1l0-0.1l0-0.1
				l0-0.1l0-0.1l0,0l0-0.1l0-0.1l0-0.1l0-0.1l0-0.1l0,0l0,0l0,0l0,0l0,0l0,0l0,0l0,0l0,0l0,0l0,0l0,0l0,0l0,0l0,0l0,0l0,0l0,0l0,0
				l0,0l0,0l0,0l0,0l0,0l0,0l0,0l0-0.1l0-0.1l0-0.1l0-0.1l0-0.1l0-0.1l0-0.1l0,0l0-0.1l0-0.1l0-0.1l0-0.1l0-0.1l0-0.1l0-0.1l0-0.1
				l0,0l0,0l0,0l0,0l0,0l0,0l0,0l0,0l0,0l0,0l0,0l0,0l0,0l0,0l0,0l0,0l0,0l0,0l0,0l0,0l0,0l0,0l0,0l0,0l0,0l0,0l0,0l0,0l0,0l0,0l0,0
				l0,0l0,0l0,0l0,0l0-0.1l0-0.1l0-0.1l0-0.1l0-0.1l0-0.1l0-0.1v-0.1l0-0.1l0-0.1l0-0.1l0-0.1l0-0.1l0-0.1l0-0.1l0-0.1l0-0.1l0-0.1
				l0-0.1l0-0.1l0-0.1l0-0.1l0-0.1l0-0.1l0-0.1l0,0l0-0.1l0-0.1l0-0.1l0-0.2l0-0.2l0-0.2l0-0.2l0-0.1l0-0.1l0-0.1l0-0.1l0-0.1l0-0.1
				l0-0.1l0,0l0-0.1l0-0.1l0-0.1l0-0.1l0-0.1l0,0l0,0l0,0l0,0l0,0l0,0l0,0l0,0l0,0l0,0l0,0l0,0l0,0l0,0l0,0l0,0l0,0l0,0l0-0.1l0-0.1
				l0-0.1l0-0.1l0-0.1l0-0.1l0-0.1l0,0l0,0l0,0l0,0l0,0l0,0l0,0l0,0l0,0l0,0l0,0l0,0l0,0l0,0l0,0l0,0l0,0l0,0l0,0l0,0l0,0l0,0l0,0
				l0,0L-282.7-322L-282.7-322L-282.7-322L-282.7-322L-282.7-322L-282.7-322L-282.7-322L-282.7-322L-282.7-322L-282.7-322
				L-282.7-322L-282.7-322L-282.7-322L-282.7-322L-282.7-322L-282.7-322L-282.7-322L-282.7-322L-282.7-322L-282.7-322L-282.7-322
				L-282.7-322L-282.7-322L-282.7-322L-282.7-322L-282.7-322L-282.7-322L-282.7-322L-282.7-322z"/>
		</g>
		<g transform="matrix(1.45147,-0.187151,0.187151,1.45147,-300.223,-126.226)">
			<path class="st34" d="M-285.4-321.3L-285.4-321.3L-285.4-321.3L-285.4-321.3L-285.4-321.3L-285.4-321.3L-285.4-321.3
				L-285.4-321.3L-285.4-321.3L-285.4-321.3L-285.4-321.3L-285.4-321.3L-285.4-321.3L-285.4-321.3L-285.4-321.3L-285.4-321.3
				L-285.4-321.3L-285.4-321.3L-285.4-321.3L-285.4-321.3L-285.4-321.3L-285.4-321.3L-285.4-321.3L-285.4-321.3l0.1,0.1l0,0l0,0l0,0
				l0,0l0,0l0,0l0,0l0,0l0,0l0,0l0,0l0,0l0,0l0,0l0,0l0,0l0,0l0,0l0,0l0,0.1l0,0.1l0,0l0,0l0,0.1l0,0.1l0,0.1l0,0.1l0,0.1v0.1v0v0
				l0,0l0,0l0,0l0,0l0,0l0,0l0,0l0,0l0,0l0,0l0,0l0,0l0,0l0,0l0,0l0,0l0,0l0,0l0,0l0,0l0,0l0,0l0,0l0,0l0,0l0,0l0,0l0,0l0,0l0,0l0,0
				l0,0l0,0l0,0l0,0l0,0l0,0l0,0l0,0v0l0,0l0,0l0,0l0,0l0,0l0,0l0,0l0,0l0,0l0,0l0,0l0,0l0,0l0,0l0,0l0,0l0,0l0,0l0,0l0,0l0,0l0,0
				l0,0l0,0l0,0l0,0l0,0l0,0l0,0l0,0l0,0l0,0l0,0l0,0l0,0l0,0l0,0l0,0l0,0l0,0l0,0l0,0l0,0l0,0h0l0.1,0l0,0l0,0l0,0l0,0l0,0l0,0l0,0
				l0,0l0,0l0,0l0,0l0,0l0,0l0,0l0,0l0,0l0.1,0l0.1,0l0,0l0,0l0,0l0,0l0,0l0,0l0,0l0,0l0,0l0,0l0,0l0,0l0,0l0,0l0,0l0,0l0,0l0,0l0,0
				l0,0l0,0l0,0l0,0l0,0l0,0l0,0l0,0l0,0l0,0l0,0l0,0l0,0l0,0l0,0l0,0l0,0l0,0l0,0l0,0l0,0l0,0l0,0l0,0l0,0l0,0l0,0l0,0l0,0l0,0l0,0
				l-0.1,0l-0.1,0l-0.1,0l0,0l0,0l0,0l0,0l0,0l0,0l0,0l0,0l0,0l0,0h0l0,0l0,0l0,0l0,0l-0.1,0l0,0l0,0l0,0l0,0h0l0,0l0,0l0,0l0,0l0,0
				l0,0l0,0l0,0l0,0l0,0l0,0l0,0l0,0l0,0l0,0l0,0l0,0l0,0l0,0l0,0l0,0l0,0l0,0l0,0l0,0l0,0l0,0l0,0l0,0l0,0l0,0l0,0l0,0l0,0l0,0l0,0
				l0,0l0,0l0,0l0,0l0,0l0,0l0,0l0,0l0,0l0,0l0,0l0,0l0,0l0,0l0,0l0,0l0,0l0,0l0,0l0,0l0,0l0,0l0,0l0,0l0,0l0,0l0,0l0,0l0,0l0,0l0,0
				v0l0,0l0,0l0,0l0,0l0-0.1l0-0.1l0-0.1l0-0.1l0-0.1l0-0.1l0,0l0,0l0-0.1l0-0.1l0,0l0,0l0,0l0,0l0,0l0,0l0,0v0l0,0l0,0l0,0l0,0l0,0
				l0,0l0,0l0,0l0,0l0,0l0,0l0,0l0,0l0,0l0,0L-285.4-321.3L-285.4-321.3L-285.4-321.3L-285.4-321.3L-285.4-321.3L-285.4-321.3
				L-285.4-321.3L-285.4-321.3L-285.4-321.3L-285.4-321.3L-285.4-321.3L-285.4-321.3L-285.4-321.3L-285.4-321.3L-285.4-321.3
				L-285.4-321.3L-285.4-321.3L-285.4-321.3L-285.4-321.3L-285.4-321.3L-285.4-321.3L-285.4-321.3L-285.4-321.3L-285.4-321.3
				L-285.4-321.3L-285.4-321.3L-285.4-321.3L-285.4-321.3L-285.4-321.3L-285.4-321.3z"/>
		</g>
		<g transform="matrix(1.45147,-0.187151,0.187151,1.45147,-300.223,-126.226)">
			<path class="st34" d="M-284.7-318.8L-284.7-318.8L-284.7-318.8L-284.7-318.8L-284.7-318.8L-284.7-318.8l0,0.1l0,0l0,0l0,0l0,0
				l0,0l0,0l0,0l0,0l0,0l0,0l0,0l0,0l0,0l0,0.1l0,0.1l0,0.1l0,0.1l0,0.1l0,0l0,0l0,0l0,0l0,0l0,0l0,0.1l0,0.1l0,0.1l0,0.1l0,0.1
				l0,0.1l0,0.1l0,0.1l0,0.1l0,0.1l0,0.1l0,0.1l0,0l0,0.1l0,0.1l0,0.1l0,0.1l0,0.1l0,0.1l0,0.1l0,0.1l0,0.1l0,0.1l0,0l0,0l0,0.1
				l0,0.1l0,0.1l0,0.1l0,0.1l0,0.1l0,0.1v0l0,0.1l0,0.1l0,0.1l0,0.1l0,0.1l0,0.1l0,0.1l0,0l0,0l0,0.1l0,0.1l0,0.1l0,0.1l0,0.1l0,0.1
				l0,0.1l0,0.1l0,0.1l0,0.1l0,0.1l0,0.1l0,0.1l0,0.1l0,0.3l0,0.1l0,0l0,0.1l0,0.1l0,0.1l0,0.1l0,0.1l0,0.1l0,0.1l0,0.1l0,0.1l0,0.1
				l0,0.1l0,0.1l0,0.1l0,0.1l0,0.1l0,0.1l0,0.1l0,0.1l0,0.1l0,0.1l0,0.1l0,0.1l0,0.1l0,0l0,0l0,0l0,0l0,0l0,0l0,0l0,0l0,0l0,0l0,0
				l0,0l0,0l0,0l0,0l0,0l0,0l0,0l0,0l0,0l0,0l0,0l0,0l0,0.1l0,0.1l0,0.1l0,0.1l0,0.1l0,0l0,0l0,0l0,0l0,0l0,0l0,0l0,0l0,0l0,0l0,0
				l0,0l0,0l0,0l0,0l0,0l0,0l0,0l0,0l0,0l0,0l0,0l0,0l0,0l0,0l0,0l0,0l0,0l0,0l0,0l0,0l0,0l0,0l0,0l0,0l0,0l0,0l0,0l0,0l0,0l0,0l0,0
				l0,0l0,0l0,0l0,0l0,0l0,0l0,0l0,0l0,0l0,0l0,0l0,0l0,0l0,0l0,0l0,0l0,0l0,0l0,0l0,0l0,0l0,0l0,0l0,0l0,0l0,0l0,0l0,0l0,0l0,0l0,0
				l0,0l0,0l0,0l0,0l0,0l0,0l0,0l0,0l0,0l0,0l0,0l0,0l0,0l0,0l0,0l0,0l0,0l0,0l0,0l0,0l0,0l0,0l0,0l0,0l0,0l0,0l0,0l0,0l0-0.1l0,0
				l0,0l0,0l0,0l0,0l0,0l0,0l0,0l0,0l0,0l0,0l0,0l0,0l0,0l0,0l0,0l0,0l0,0l0,0l0,0l0,0l0,0l0,0l0,0l0,0l0,0l0,0l0,0l0,0l0,0l0,0l0,0
				l0,0l0,0l0-0.1l0-0.1l0-0.1l0-0.1l0-0.1l0,0l0,0l0,0l0,0l0,0l0,0l0,0l0,0l0,0l0,0l0,0l0,0l0,0l0,0l0,0l0,0l0,0l0,0l0,0l0,0l0,0
				l0,0l0,0l0-0.1l0-0.1l0-0.1l0-0.1l0-0.1l0-0.1l0-0.1l0-0.1l0-0.1l0-0.1l0-0.1l0-0.1l0-0.1l0-0.1l0-0.1l0-0.1l0-0.1l0-0.1l0-0.1
				l0-0.1l0-0.1l0-0.1l0-0.1l0,0l0-0.1l0-0.3l0-0.1l0-0.1l0-0.1l0-0.1l0-0.1l0-0.1l0-0.1l0-0.1l0-0.1l0-0.1l0-0.1l0-0.1l0-0.1l0-0.1
				l0,0l0,0l0-0.1l0-0.1l0-0.1l0-0.1l0-0.1l0-0.1l0-0.1l0,0l0-0.1l0-0.1l0-0.1l0-0.1l0-0.1l0-0.1l0-0.1l0,0l0,0l0-0.1l0-0.1l0-0.1
				l0-0.1l0-0.1l0-0.1l0-0.1l0-0.1l0-0.1l0-0.1l0,0l0-0.1l0-0.1l0-0.1l0-0.1l0-0.1l0-0.1l0-0.1l0-0.1l0-0.1l0-0.1l0-0.1l0-0.1l0,0
				l0,0l0,0l0,0l0,0l0,0l0-0.1l0-0.1l0-0.1l0-0.1l0-0.1l0,0l0,0l0,0l0,0l0,0l0,0l0,0l0,0l0,0l0,0l0,0l0,0l0,0L-284.7-318.8
				L-284.7-318.8L-284.7-318.8L-284.7-318.8L-284.7-318.8L-284.7-318.8L-284.7-318.8L-284.7-318.8z"/>
		</g>
		<g transform="matrix(1.45147,-0.187151,0.187151,1.45147,-300.223,-126.226)">
			<path class="st34" d="M-285.3-319L-285.3-319L-285.3-319l0.1,0l0,0l0.1,0l0.1,0l0,0l0,0l0.1,0l0,0l0,0l0,0l0,0l0,0l0,0l0,0l0,0
				l0,0l0,0l0,0l0,0l0,0l0,0l0,0l0,0l-0.1,0l0,0l0,0l-0.1,0l-0.1,0l0,0L-285.3-319L-285.3-319L-285.3-319L-285.3-319L-285.3-319
				L-285.3-319l-0.1,0.1l0,0l0,0l0,0l0,0l0,0l0,0l0,0l0,0l0,0l0,0l0,0l0,0l0,0l0,0l0,0l0,0l0,0l0,0l0,0l0,0l0,0l0,0l0,0l0,0l0,0l0,0
				l0,0l0,0l0,0l0,0l0,0l0,0l0,0l0,0l0,0l0,0l0,0l0,0l0,0l0,0l0,0l0,0l0,0l0,0l0,0l0,0l0,0l0,0L-285.3-319L-285.3-319L-285.3-319
				L-285.3-319z"/>
		</g>
		<g transform="matrix(-2.28574,0.216442,0.212635,2.32665,479.867,-453.193)">
			<path class="st8" d="M541.5-89.1L541.5-89.1L541.5-89.1L541.5-89.1L541.5-89.1L541.5-89.1L541.5-89.1L541.5-89.1L541.5-89.1
				L541.5-89.1L541.5-89.1L541.5-89.1L541.5-89.1L541.5-89.1L541.5-89.1L541.5-89.1L541.5-89.1L541.5-89.1L541.5-89.1L541.5-89.1
				L541.5-89.1L541.5-89.1L541.5-89.1L541.5-89.1L541.5-89.1L541.5-89.1L541.5-89.1L541.5-89.1L541.5-89.1L541.5-89.1l-0.1,0.1l0,0
				l0,0l0,0l0,0l0,0l0,0l0,0l0,0l0,0l0,0l0,0l0,0l0,0l0,0l0,0l0,0l0,0v0l0,0l0,0l0,0l0,0l0,0l0,0l0,0l0,0l0,0l0,0l0,0l0,0l0,0v0l0,0
				l0,0l0,0l0,0l0,0l0,0l0,0l0,0l0,0l0,0l0,0l0,0l0,0l0,0l0,0l0,0l0,0l0,0l0,0l0,0l0,0l0,0l0,0l0,0l0,0l0,0l0,0l0,0l0,0l0,0l0,0l0,0
				l0,0l0,0l0,0l0,0l0,0l0,0l0,0l0,0l0,0l0,0l0,0l0,0l0,0l0,0l0,0l0,0l0,0l0,0l0,0l0,0l0,0l0,0l0,0l0,0l0,0l0,0l0,0l0,0l0,0l0,0l0,0
				l0,0l0,0l0,0l0,0l0,0l0,0l0,0l0,0l0,0l0,0l0,0l0,0l0,0l0,0l0,0l0,0l0,0l0,0l0,0l0,0l0,0l0,0l0,0l0,0l0,0l0,0l0,0l0,0l0,0l0,0l0,0
				l0,0l0,0l0,0l0,0l0,0l0,0l0,0l0,0l0,0l0,0l0,0l0,0h0l0,0l0,0l0,0l0,0l0,0l0,0l0,0l0,0l0,0l0,0l0,0l0,0l0,0l0,0l0,0l0,0l0,0l0,0
				l0,0l0,0l0,0l0,0l0,0l0,0l0,0l0,0l0,0l0,0l0,0l0,0l0,0l0,0l0,0l0,0l0,0l0,0l0,0l0,0l0,0l0,0l0,0l0,0l0,0l0,0l0,0l0,0l0,0l0,0l0,0
				l0,0l0,0l0,0l0,0l0,0l0,0l0,0l0,0l0,0l0,0l0,0l0,0l0,0l0,0l0,0l0,0l0,0l0,0l0,0l0,0l0,0l0,0v0v0l0,0l0,0l0,0l0,0l0,0l0,0l0,0l0,0
				l0,0l0,0l0,0l0,0l0,0l0,0v0l0,0l0,0l0,0l0,0l0,0l0,0l0,0l0,0l0,0l0,0l0,0l0,0l0,0l0,0l0,0l0,0L541.5-89.1L541.5-89.1L541.5-89.1
				L541.5-89.1L541.5-89.1L541.5-89.1L541.5-89.1L541.5-89.1L541.5-89.1L541.5-89.1L541.5-89.1L541.5-89.1L541.5-89.1L541.5-89.1
				L541.5-89.1L541.5-89.1L541.5-89.1L541.5-89.1L541.5-89.1L541.5-89.1L541.5-89.1L541.5-89.1L541.5-89.1L541.5-89.1L541.5-89.1
				L541.5-89.1L541.5-89.1L541.5-89.1L541.5-89.1z"/>
		</g>
		<g transform="matrix(0.98598,0.166862,-0.166862,0.98598,259.609,162.039)">
			<path class="st35" d="M-1140.3-530.9c0,0-0.2,1,0.6,1c2,0,1.4-2.1,1.4-2.1c0.5,0,1.3-0.1,1.6,0c0.5,0.1,1,0.4,1.3,0.9
				c0.1,0.2,0.2,0.4,0.2,0.7c0.7,3.1,1.8,6.1,3.3,9c0.1,0.1,0.1,0.3,0.1,0.4c0,0.1-0.1,0.1-0.2,0.1c-2.4,1.1-4.2,2.8-6.9,2.7
				c-0.1-0.7-0.3-1.4-0.5-2.1c-0.4-1.7-1.4-5.2-1.8-7C-1141.8-530.1-1140.3-530.9-1140.3-530.9z"/>
		</g>
		<g transform="matrix(1.00959,0.00407506,0.0981834,1.00827,287.827,0.884014)">
			<path class="st36" d="M-999.5-545c0.2,0.4,1.4-0.5,1.8-0.8c0.4-0.2,0.8-0.6,0.8-1.1c0-0.1,0-0.2,0-0.3c0-0.1,0.1-0.2,0.2-0.2
				c0.5-0.4,0.6-1.2,0.5-1.9c0-0.2,0-0.3-0.1-0.5c-0.1-0.2-0.3-0.3-0.4-0.4c-1.2-0.6-2.3-0.2-3.5-0.8c-0.3-0.2-0.6-0.4-1-0.6
				c-0.3-0.2-0.7-0.3-1.1-0.1c-0.3,0.1-0.5,0.6-0.3,1c0.1,0.2,0.4,0.3,0.6,0.4c-0.5,0.1-0.7,0.7-0.6,1.2c0.1,0.5,0.5,0.9,1,1.2
				c0.3,0.2,0.7,0.3,1,0.6C-1000.1-546.8-999.8-545.6-999.5-545z"/>
		</g>
		<g transform="matrix(1,-1.38778e-17,1.38778e-17,1,288.948,46.6296)">
			<path class="st28" d="M-1064-597.5c1.1-0.4,1.1-1.5,1.1-1.5l-0.7-1.5c-0.1-0.5-0.7-0.6-1.3-0.3c-0.5,0.3-0.6,0.9-0.4,1.3l0.4,1.7
				C-1064.7-597.3-1064.3-597.4-1064-597.5z"/>
		</g>
		<g transform="matrix(1.00959,0.00407506,0.0981834,1.00827,261.454,16.3182)">
			<path class="st28" d="M-974.6-560.6c0.3,1.2,2.1,0.4,2.7,0.2c1-0.4,3-3,2.1-4.3c-0.9-1.3-3.1-1.1-3.9-0.5
				C-974.6-564.6-974.8-561.4-974.6-560.6z"/>
		</g>
		<g transform="matrix(1.00959,0.00407506,0.0981834,1.00827,292.816,50.2537)">
			<path class="st28" d="M-999-595.8c-0.3,0.3-0.4,0.7-0.2,0.8c0.5,0.4,0.9,0.4,1.2,0c0.3-0.3,0.2-0.7,0-0.9
				C-998.3-596.2-998.7-596.2-999-595.8"/>
		</g>
		<g transform="matrix(1.44702,-0.182785,0.331457,1.46424,-321.213,-130.641)">
			<path class="st36" d="M-241.4-321.8c0.3-0.2,0.7-0.2,1.1-0.1c0.3,0.1,0.6,0.2,1,0.3c0.3,0.1,0.6,0.2,0.8,0.4
				c0.5,0.4,0.1,1-0.2,1.4c-0.2,0.2-0.1,0.4-0.4,0.5c-0.1,0-0.3-0.1-0.4-0.1c-0.1-0.1-0.3,0.7-0.6,0.6c0,0-0.2-0.3-0.1-0.8
				c0.1-0.3,0.3-0.6,0.4-0.8c0-0.1,0.1-0.3,0-0.3c-0.1-0.1-0.2-0.1-0.3,0c-0.1,0-0.2,0.1-0.3,0.1c-0.2,0-0.4,0.1-0.5,0.1
				c-0.3,0-0.7-0.1-0.9-0.4c-0.1-0.2-0.1-0.3,0-0.5c0,0,0,0,0,0c0-0.1,0.1-0.1,0.1-0.2C-241.6-321.7-241.5-321.8-241.4-321.8
				C-241.4-321.9-241.4-321.9-241.4-321.8C-241.4-321.8-241.4-321.8-241.4-321.8l-0.2,0.2c-0.1,0.1-0.1,0.1-0.2,0.2c0,0,0,0,0,0l0,0
				l0,0c0,0,0,0,0,0C-241.6-321.6-241.5-321.7-241.4-321.8c-0.1,0.1-0.2,0.1-0.2,0.2c0,0.1-0.1,0.1-0.1,0.2c0,0,0,0,0,0
				c0,0,0,0,0-0.1l0.2-0.2c0,0,0,0,0.1-0.1C-241.4-321.8-241.4-321.8-241.4-321.8C-241.4-321.8-241.4-321.8-241.4-321.8z"/>
		</g>
	</g>
	<g transform="matrix(-0.0346348,-0.654022,0.654022,-0.0346348,247.376,341.291)">
		<g transform="matrix(0.380714,0.380714,0.380714,-0.380714,58.09,112.591)">
			
				<rect x="43.8" y="1130.4" transform="matrix(-0.3478 0.9376 -0.9376 -0.3478 1119.5736 1483.4381)" class="st5" width="0" height="1.5"/>
		</g>
		<g transform="matrix(0.380714,0.380714,0.380714,-0.380714,-3.33093,141.158)">
			
				<rect x="87" y="1236.5" transform="matrix(-0.3187 0.9479 -0.9479 -0.3187 1289.4688 1551.8804)" class="st37" width="0" height="5.7"/>
		</g>
		<g transform="matrix(0.380714,0.380714,0.380714,-0.380714,57.6316,115.906)">
			
				<rect x="40.1" y="1133.5" transform="matrix(-0.3478 0.9376 -0.9376 -0.3478 1116.9221 1490.4135)" class="st4" width="0" height="0.4"/>
		</g>
		<g transform="matrix(0.538412,0,0,0.538412,113.77,19.3604)">
			<path class="st38" d="M737-594.9c-5.8,0-10.6-4.7-10.6-10.6c0-5.8,4.7-10.6,10.6-10.6c5.8,0,10.6,4.7,10.6,10.6
				C747.6-599.6,742.8-594.9,737-594.9 M737-618.4c-7.2,0-13,5.8-13,13c0,7.2,5.8,13,13,13c7.2,0,13-5.8,13-13
				S744.1-618.4,737-618.4"/>
		</g>
	</g>
	<g transform="matrix(1,0,0,1,-34.1469,-20.504)">
		<g transform="matrix(-1.20358,0.835209,0.789625,1.13789,417.974,-141.337)">
			<path class="st27" d="M264-34.4c-0.1,0.1-0.4,0.3,0,1c0.3,0.5,1.7,1.3,3.3-0.2c0,0,0.2-0.1,0.1-0.2c-0.2-0.1-1.1,0.6-1.7,0.6
				c-0.5,0-0.8-0.2-1.1-0.7C264.3-34.3,264-34.5,264-34.4z"/>
		</g>
		<g transform="matrix(-0.292727,-0.207822,-0.228353,0.326293,483.603,270.825)">
			<path class="st5" d="M1304.4,128.4c0,0,0.3-1.6,1.8-3.1c0.6-0.6,0.1-1.6-1.4-1.7c-2.7-0.1-3.7,3.4-3.7,3.4
				C1301.4,127.8,1304.4,128.4,1304.4,128.4z"/>
		</g>
		<g transform="matrix(0.696688,-0.470209,0.455997,0.665886,236.875,209.562)">
			<path class="st27" d="M-52.4-286.9L-52.4-286.9c0-0.1,0-0.2,0-0.2c0,0,0-0.1,0-0.1c0-0.1,0-0.1,0-0.1c0.1,0,0,0.2,0.1,0.4
				c0,0,0,0.1,0.1,0.1c0,0,0.3,0.3,0.3,0.3c0,0,0,0.6-0.1,0.5c-0.4-0.2-0.7-0.4-0.7-0.4c-0.1,0-0.3,0-0.4,0c-0.1,0-0.5,0.1-0.5,0.1
				c0,0,0-0.1,0.1-0.1c0.1-0.1,0.2-0.1,0.3-0.1c0,0,0.1,0,0.1,0c0,0,0.1,0,0.1,0s0,0-0.1,0c0,0-0.1,0-0.1,0c-0.1,0-0.5,0.1-0.5,0.1
				c0,0-0.1,0,0,0c0,0,0.3-0.1,0.3-0.1c0.1,0,0.3-0.1,0.3-0.1c0,0,0,0,0,0c0,0,0,0,0,0c0,0-0.7,0-0.7,0c0,0,0.1-0.1,0.2-0.1
				c0.1,0,0.3,0,0.4,0c0,0,0.1,0,0.1,0c0,0,0,0,0.1,0c0,0,0,0,0,0c0,0-0.1,0-0.1,0c-0.1,0-0.2,0-0.3,0c0,0-0.2,0-0.2,0
				c0-0.1,0.5-0.1,0.6-0.1C-52.8-286.9-52.6-286.9-52.4-286.9z M-52.3-287.2"/>
		</g>
	</g>
</g>
</svg>
