<?xml version="1.0" encoding="utf-8"?>
<!-- Generator: Adobe Illustrator 24.0.2, SVG Export Plug-In . SVG Version: 6.00 Build 0)  -->
<svg version="1.1" id="圖層_1" xmlns="http://www.w3.org/2000/svg" xmlns:xlink="http://www.w3.org/1999/xlink" x="0px" y="0px"
	 viewBox="0 0 69.7 68.2" style="enable-background:new 0 0 69.7 68.2;" xml:space="preserve">
<style type="text/css">
	.st0{fill:url(#SVGID_1_);}
	.st1{fill:url(#SVGID_2_);}
	.st2{fill:url(#SVGID_3_);}
	.st3{fill:#FFFFFF;}
	.st4{fill:url(#SVGID_4_);}
	.st5{fill:url(#SVGID_5_);}
	.st6{fill:url(#SVGID_6_);}
	.st7{fill:url(#SVGID_7_);}
	.st8{fill:#6390CB;}
	.st9{fill:url(#SVGID_8_);}
	.st10{fill:url(#SVGID_9_);}
	.st11{fill:#D7DBE7;}
	.st12{fill:url(#SVGID_10_);}
	.st13{fill:url(#SVGID_11_);}
	.st14{fill:url(#SVGID_12_);}
	.st15{fill:#19254A;}
	.st16{fill:url(#SVGID_13_);}
	.st17{fill:url(#SVGID_14_);}
	.st18{fill:url(#SVGID_15_);}
	.st19{fill:#474E80;}
	.st20{fill:#072E3C;}
	.st21{fill:url(#SVGID_16_);}
	.st22{opacity:0.5;fill:#E7A483;}
	.st23{fill:url(#SVGID_17_);}
	.st24{fill:url(#SVGID_18_);}
	.st25{fill:url(#SVGID_19_);}
	.st26{fill:url(#SVGID_20_);}
	.st27{fill:url(#SVGID_21_);}
	.st28{fill:url(#SVGID_22_);}
	.st29{fill:url(#SVGID_23_);}
	.st30{fill:url(#SVGID_24_);}
	.st31{fill:url(#SVGID_25_);}
	.st32{fill:url(#SVGID_26_);}
	.st33{fill:url(#SVGID_27_);}
	.st34{fill:url(#SVGID_28_);}
	.st35{fill:url(#SVGID_29_);}
	.st36{fill:#1C252C;}
</style>
<g>
	<linearGradient id="SVGID_1_" gradientUnits="userSpaceOnUse" x1="24.2351" y1="0.7528" x2="24.2351" y2="18.187">
		<stop  offset="0" style="stop-color:#6390CB"/>
		<stop  offset="0.6513" style="stop-color:#506295;stop-opacity:0.3487"/>
		<stop  offset="1" style="stop-color:#474E80;stop-opacity:0"/>
	</linearGradient>
	<path class="st0" d="M18.6,20.7c1.9-0.6,3.9-1.3,5.8-0.6c1.5,0.5,2.7,1.9,3.9,2.9c1.2,1.1,2.8,2.1,4.4,1.7c0.5-0.1,1.1-0.4,1.3-0.9
		c0.3-0.5,0.3-1.1-0.1-1.5c-0.5-0.6-1.3-0.5-2.1-0.4c-0.7,0.1-1.7-0.1-1.9-0.8c-0.2-0.7,0.4-1.3,1-1.7c2.7-1.8,6.7-1.4,9,1
		c0.6,0.7,1.2,1.4,1.9,2.1c0.7,0.6,1.7,1,2.5,0.7c0.9-0.3,1.4-1.5,0.8-2.2c-0.7-0.8-2.1-0.3-3-0.8c-1.1-0.7-0.7-2.5-1.1-3.7
		c-0.5-1.3-2.3-2-3.5-1.3c1.5-0.5,2.5-2.1,2.4-3.6c-0.1-1.6-1.4-3-2.9-3.2c-1.5-0.3-3.2,0.6-3.9,2c-0.1-1.1-0.6-2.1-1.5-2.7
		c-0.9-0.6-2.1-0.7-3.1-0.4c-2,0.7-3.2,3.1-5.3,3.1c-1.3,0-2.4-1.1-3-2.2c-0.7-1.1-1.1-2.4-1.8-3.5c-1.4-2-4.2-2.8-6.5-2.1
		c-2.3,0.7-4.1,3-4.1,5.4c-0.1,2.4,1.5,4.8,3.8,5.7C9.8,13.1,8,12.6,6.3,13c-1.7,0.4-3.3,1.9-3.2,3.7c0.1,1.3,1.1,2.5,2.3,3.2
		C8.6,21.8,14.6,22,18.6,20.7z"/>
</g>
<linearGradient id="SVGID_2_" gradientUnits="userSpaceOnUse" x1="4.821" y1="45.4574" x2="6.6548" y2="52.0825">
	<stop  offset="0" style="stop-color:#072E3C"/>
	<stop  offset="0.9475" style="stop-color:#072E3C;stop-opacity:5.247158e-02"/>
	<stop  offset="1" style="stop-color:#072E3C;stop-opacity:0"/>
</linearGradient>
<path class="st1" d="M8.3,52.3c-0.1-0.4-0.2-1.1-0.3-2c-0.2-0.9-0.5-2-1.1-3c-0.5-0.8-1.2-1.4-1.8-1.8c-0.6-0.4-1.1-0.7-1.3-0.9
	c0.2,0.2,0.4,0.8,0.7,1.4c0.3,0.6,0.6,1.4,1.1,2.2c0.4,0.6,0.7,1.1,1.1,1.6c0,0,0,0-0.1,0c-0.5-0.3-1-0.3-1.5-0.3
	c-0.4,0-0.8,0.1-1,0c0.2,0.1,0.4,0.4,0.6,0.7c0.2,0.3,0.5,0.7,0.9,1c0.5,0.3,1.1,0.5,1.5,0.6c0.4,0.1,0.8,0.3,1,0.4
	C8.2,52.1,8.3,52.2,8.3,52.3z M8,51.8c0,0.1,0.1,0.1,0.1,0.2C8.1,52,8.1,51.9,8,51.8z"/>
<g>
	<linearGradient id="SVGID_3_" gradientUnits="userSpaceOnUse" x1="17.3873" y1="58.9049" x2="7.3445" y2="39.9353">
		<stop  offset="0" style="stop-color:#072E3C"/>
		<stop  offset="0.6519" style="stop-color:#336042"/>
		<stop  offset="1" style="stop-color:#487A3D"/>
	</linearGradient>
	<path class="st2" d="M3.1,38.4c0.8-2,0.1-2.2-0.9-2.8c-0.9-0.7-1.3-2.4,0.5-3.2C4.5,31.6,5.5,34.1,6,35c0.6,0.9,2-0.4,3.6,0.9
		c1.6,1.3,0.7,3.3,0.8,4.6c0.1,1.3,1.2,2,2.9,2.2c1.6,0.2,1.7,1.3,1.5,2.5c-0.2,1.2-0.1,1.8,1.2,2.6c1.3,0.7,0.6,3.3-1.2,4.4
		C13,53.2,9.9,53.1,8,51.2c-2.5-2.5,0-5.8-2-7.8C4,41.4,1.9,41.4,3.1,38.4z"/>
	<path class="st3" d="M14,52.5c0,0,0.1,0,0.1-0.1c-0.4-1.3-1-2.7-1.7-4.1c-0.8-2.1-0.7-4.4-0.3-5.9c0,0-0.1,0-0.1,0
		c-0.4,1.3-0.5,3.1-0.1,4.9c-0.9-1.9-2-3.8-3.1-5.6c-1.3-2.4-0.1-5.3,0.2-6.1c0,0-0.1,0-0.1-0.1c-0.3,0.8-1.3,3.2-0.6,5.4
		c-2.1-3.3-4.4-6.2-6.4-8c0,0-0.1,0.1-0.1,0.1c1.6,1.5,3.3,3.5,4.9,5.9c-1.1-0.9-2.5-1.2-3.3-1.3c0,0,0,0.1,0,0.1
		c1,0.1,2.8,0.5,3.9,2c1.6,2.4,3.2,5.1,4.5,7.7c-0.7-0.7-1.7-1.4-3.1-2.1c-0.9-0.4-1.7-0.8-2.2-0.9c0,0.1,0.1,0.1,0.1,0.2
		c1.2,0.5,4.4,1.8,5.5,3.5c0.2,0.4,0.4,0.9,0.6,1.3c-1.7-2.3-4.8-3.6-5.9-4c0,0.1,0,0.1,0,0.2c0.5,0.2,1.4,0.6,2.4,1.1
		c1.4,0.8,3.1,2,3.9,3.8C13.5,51.1,13.8,51.8,14,52.5z"/>
</g>
<g>
	<linearGradient id="SVGID_4_" gradientUnits="userSpaceOnUse" x1="45.2072" y1="28.5458" x2="57.6534" y2="15.2412">
		<stop  offset="0" style="stop-color:#072E3C"/>
		<stop  offset="0.6519" style="stop-color:#336042"/>
		<stop  offset="1" style="stop-color:#487A3D"/>
	</linearGradient>
	<path class="st4" d="M50.7,15.5c2.1-0.4,1.9-1.1,1.9-2.3c0-1.2,1.3-2.4,2.9-1.3c1.6,1.1,0,3.2-0.4,4.2c-0.4,1,1.4,1.5,1.2,3.6
		C56.1,21.6,54,22,53,22.7c-1,0.7-1,2.1-0.3,3.6c0.7,1.5-0.2,2.2-1.3,2.7c-1.1,0.5-1.6,0.9-1.5,2.4c0.1,1.5-2.5,2.3-4.3,1.4
		c-1.9-0.9-3.5-3.6-2.9-6.2c0.8-3.5,4.9-3.2,5.4-6C48.7,17.8,47.6,16.1,50.7,15.5z"/>
	<path class="st3" d="M44.8,32.2c0,0,0.1,0.1,0.1,0.1c0.9-1.1,1.7-2.3,2.6-3.6c1.3-1.8,3.3-3,4.8-3.4c0,0,0-0.1,0-0.1
		c-1.3,0.4-2.9,1.2-4.2,2.6c1.1-1.8,2.1-3.8,3-5.7c1.3-2.4,4.4-3,5.3-3.1c0-0.1,0-0.1,0-0.1c-0.8,0.1-3.4,0.7-4.9,2.5
		c1.6-3.6,2.8-7.1,3.3-9.7c0,0-0.1,0-0.1,0c-0.4,2.1-1.2,4.7-2.2,7.3c0.2-1.4-0.3-2.8-0.7-3.5c0,0-0.1,0-0.1,0.1
		c0.4,0.9,1.1,2.6,0.5,4.4c-1.1,2.7-2.5,5.4-4,7.9c0.2-0.9,0.3-2.2,0.1-3.7c-0.1-1-0.3-1.8-0.4-2.3c0,0.1-0.1,0.1-0.1,0.2
		c0.3,1.3,0.9,4.6,0,6.5c-0.3,0.4-0.5,0.8-0.8,1.2c1-2.6,0.4-6,0.2-7.1c0,0-0.1,0.1-0.1,0.1c0.1,0.5,0.3,1.5,0.4,2.6
		c0.1,1.6,0,3.7-1,5.4C45.7,31,45.3,31.7,44.8,32.2z"/>
</g>
<g>
	<linearGradient id="SVGID_5_" gradientUnits="userSpaceOnUse" x1="62.3525" y1="35.6072" x2="58.713" y2="49.6905">
		<stop  offset="0" style="stop-color:#072E3C"/>
		<stop  offset="1" style="stop-color:#072E3C;stop-opacity:0"/>
	</linearGradient>
	<path class="st5" d="M61.9,41.7c0.4-0.9,0.8-1.9,1.1-3c0.4-1.8,0.4-3.5,0.2-4.8c-0.1-0.3-0.1-0.6-0.2-0.9c-0.1-0.3-0.1-0.5-0.2-0.8
		c-0.1-0.5-0.2-0.9-0.3-1.2c0,0.3,0,0.7,0,1.2c0,0.2-0.1,0.5-0.1,0.8c0,0.3-0.1,0.6-0.1,0.9c-0.2,1.2-0.5,2.7-0.9,4.4
		c-0.3,1-0.5,2-0.8,2.9c-0.3,0.9-0.6,1.7-0.9,2.5c-0.6,1.5-1.3,2.7-1.8,3.3c0.5-0.6,1.5-1.5,2.5-2.9C61,43.4,61.5,42.6,61.9,41.7z"
		/>
	<linearGradient id="SVGID_6_" gradientUnits="userSpaceOnUse" x1="64.8319" y1="36.2479" x2="61.1924" y2="50.3312">
		<stop  offset="0" style="stop-color:#072E3C"/>
		<stop  offset="1" style="stop-color:#072E3C;stop-opacity:0"/>
	</linearGradient>
	<path class="st6" d="M65.2,39.8c-0.8,0.3-1.7,0.9-2.5,1.7c-1,1-1.7,2.1-2.2,3.1c-0.5,1-0.8,1.8-1.1,2.2c0.3-0.4,0.9-1,1.7-1.7
		c0.8-0.7,1.8-1.5,2.7-2.5c0.8-0.8,1.4-1.5,1.9-2.2c0.5-0.7,0.9-1.2,1.2-1.4C66.6,39.2,66,39.4,65.2,39.8z"/>
</g>
<g>
	<g>
		<linearGradient id="SVGID_7_" gradientUnits="userSpaceOnUse" x1="39.5808" y1="17.3972" x2="39.5808" y2="51.5075">
			<stop  offset="0" style="stop-color:#19254A"/>
			<stop  offset="1" style="stop-color:#474E80"/>
		</linearGradient>
		<path class="st7" d="M21.3,25.5v24c0,1.9,1.4,3.5,3.3,3.6c2,0.1,3.7-1.5,3.7-3.5h29.6V25.5c0-0.6-0.5-1.1-1.1-1.1H22.4
			C21.8,24.4,21.3,24.9,21.3,25.5z"/>
		
			<rect x="30.7" y="19.7" transform="matrix(-1.836970e-16 1 -1 -1.836970e-16 77.8664 -7.2918)" class="st8" width="23.8" height="31.1"/>
		<g>
			<g>
				
					<linearGradient id="SVGID_8_" gradientUnits="userSpaceOnUse" x1="-123.3434" y1="6.9233" x2="-126.7404" y2="45.1705" gradientTransform="matrix(-1 0 0 1 -89.5017 0)">
					<stop  offset="0" style="stop-color:#FFFFFF"/>
					<stop  offset="0.3016" style="stop-color:#F3F4F8"/>
					<stop  offset="1" style="stop-color:#D7DBE7"/>
				</linearGradient>
				<polygon class="st9" points="24.4,48.9 48.2,48.9 48.2,20.6 45.4,17.8 24.4,17.8 				"/>
				
					<linearGradient id="SVGID_9_" gradientUnits="userSpaceOnUse" x1="-135.9614" y1="16.76" x2="-136.2736" y2="20.275" gradientTransform="matrix(-1 0 0 1 -89.5017 0)">
					<stop  offset="0" style="stop-color:#FFFFFF"/>
					<stop  offset="0.3016" style="stop-color:#F3F4F8"/>
					<stop  offset="1" style="stop-color:#D7DBE7"/>
				</linearGradient>
				<polygon class="st10" points="45.4,20.6 48.2,20.6 45.4,17.8 				"/>
			</g>
			<g>
				<rect x="27.1" y="22.5" class="st11" width="10.4" height="1.6"/>
				<rect x="27.1" y="26" class="st11" width="10.4" height="0.7"/>
				<rect x="27.1" y="27.2" class="st11" width="10.4" height="0.7"/>
				<rect x="27.1" y="28.4" class="st11" width="10.4" height="0.7"/>
				<rect x="27.1" y="29.7" class="st11" width="10.4" height="0.7"/>
				<rect x="27.1" y="30.9" class="st11" width="10.4" height="0.7"/>
				<rect x="27.1" y="32.2" class="st11" width="10.4" height="0.7"/>
				<rect x="27.1" y="33.4" class="st11" width="10.4" height="0.7"/>
				<rect x="27.1" y="34.6" class="st11" width="10.4" height="0.7"/>
				<rect x="27.1" y="35.9" class="st11" width="10.4" height="0.7"/>
				<rect x="27.1" y="37.1" class="st11" width="10.4" height="0.7"/>
				<rect x="27.1" y="38.3" class="st11" width="10.4" height="0.7"/>
				<rect x="27.1" y="39.6" class="st11" width="10.4" height="0.7"/>
				<rect x="27.1" y="40.8" class="st11" width="10.4" height="0.7"/>
				<rect x="27.1" y="42.1" class="st11" width="10.4" height="0.7"/>
				<rect x="27.1" y="43.3" class="st11" width="10.4" height="0.7"/>
				<rect x="27.1" y="44.5" class="st11" width="10.4" height="0.7"/>
				<linearGradient id="SVGID_10_" gradientUnits="userSpaceOnUse" x1="31.3327" y1="42.8062" x2="48.089" y2="15.6666">
					<stop  offset="0" style="stop-color:#FFFFFF"/>
					<stop  offset="8.914035e-03" style="stop-color:#D1DAEF"/>
					<stop  offset="2.304745e-02" style="stop-color:#85A4D5"/>
					<stop  offset="2.954990e-02" style="stop-color:#6390CB"/>
					<stop  offset="0.1889" style="stop-color:#6993CC"/>
					<stop  offset="0.376" style="stop-color:#789BD0"/>
					<stop  offset="0.5769" style="stop-color:#91AAD6"/>
					<stop  offset="0.7877" style="stop-color:#B2C0DE"/>
					<stop  offset="1" style="stop-color:#D7DBE7"/>
				</linearGradient>
				<circle class="st12" cx="42.6" cy="24.6" r="3.4"/>
			</g>
		</g>
		<linearGradient id="SVGID_11_" gradientUnits="userSpaceOnUse" x1="43.0827" y1="14.7069" x2="43.0827" y2="52.1326">
			<stop  offset="0" style="stop-color:#6390CB"/>
			<stop  offset="0.6513" style="stop-color:#506295"/>
			<stop  offset="1" style="stop-color:#474E80"/>
		</linearGradient>
		<path class="st13" d="M40.6,25.8l-1-1.8c-0.3-0.5-0.7-0.7-1.3-0.7H31c-0.5,0-1,0.3-1.3,0.7l-1.3,2.2c-0.1,0.2-0.2,0.5-0.2,0.7
			v22.6c0,1.9-1.6,3.5-3.5,3.5h35.5c0.6,0,1.1-0.5,1.1-1.1V27.7c0-0.6-0.5-1.1-1.1-1.1H41.9C41.4,26.6,40.9,26.3,40.6,25.8z"/>
	</g>
	<g>
		<g>
			<linearGradient id="SVGID_12_" gradientUnits="userSpaceOnUse" x1="15.0228" y1="37.0421" x2="13.4711" y2="25.6351">
				<stop  offset="0" style="stop-color:#474E80"/>
				<stop  offset="0.2973" style="stop-color:#76759C"/>
				<stop  offset="0.7786" style="stop-color:#BCBDD0"/>
				<stop  offset="1" style="stop-color:#D7DBE7"/>
			</linearGradient>
			<path class="st14" d="M12.8,30.1c1.6-0.1,2.4,0.7,2.9,2.4L12.8,30.1z"/>
			<g>
				<g>
					<path class="st15" d="M17.6,57.9c-0.4,0.5-0.5,0.7-0.5,1.1c0,0,0,0.1,0.1,0.1h3.3c0.1,0,0.1-0.1,0.1-0.1
						c-0.1-0.1-0.3-0.3-0.8-0.5c-0.7-0.2-1-0.6-1-0.6H17.6z"/>
					<linearGradient id="SVGID_13_" gradientUnits="userSpaceOnUse" x1="17.0118" y1="48.8456" x2="35.9004" y2="46.1894">
						<stop  offset="0" style="stop-color:#19254A"/>
						<stop  offset="0.5344" style="stop-color:#323A66"/>
						<stop  offset="1" style="stop-color:#474E80"/>
					</linearGradient>
					<path class="st16" d="M18.9,39.2c1.2,3.3,3.4,8.2,3.4,10.5c0,2.3-3.4,8-3.5,8.3c0,0-1,0.3-1.3,0c0,0,0.8-2.9,1-4.2
						c0.2-1.3,0.1-1.8,1.2-3c0.4-0.4-2.5-3.8-2.5-3.8l-1.1-6.7L18.9,39.2z"/>
					<path class="st15" d="M20.4,50.3c0-0.8-2.2-4.5-3.8-7.1l0.6,3.8c0,0,2.9,3.4,2.5,3.8c-1.1,1.3-0.9,1.8-1.2,3
						c-0.2,1.3-1,4.2-1,4.2c0.1,0.1,0.2,0.1,0.3,0.1c0.2-0.7,0.5-1.8,0.9-3.3C19.8,51.1,20.5,51.5,20.4,50.3z"/>
				</g>
				<g>
					<path class="st15" d="M10,57.9c-0.4,0.5-0.5,0.7-0.5,1.1c0,0,0,0.1,0.1,0.1h3.3c0.1,0,0.1-0.1,0.1-0.1
						c-0.1-0.1-0.3-0.3-0.8-0.5c-0.7-0.2-1-0.6-1-0.6H10z"/>
					<linearGradient id="SVGID_14_" gradientUnits="userSpaceOnUse" x1="10.836" y1="43.9785" x2="22.4067" y2="61.4526">
						<stop  offset="0" style="stop-color:#19254A"/>
						<stop  offset="0.5113" style="stop-color:#323A66"/>
						<stop  offset="0.9566" style="stop-color:#474E80"/>
					</linearGradient>
					<path class="st17" d="M13.6,41.9c0.1,1.9,0.7,3.5,1.1,5c0.4,1.5-0.4,3-0.6,3.4c-0.2,0.4-1.8,1.2-2.8,4.2
						c-0.9,3-1.4,3.4-1.4,3.4s0.3,0.4,1.3,0c0,0,4.7-5.9,5.1-6.3c0.4-0.4,2.5-7.2,2.8-7.7c0.3-0.5-0.6-3.8-1-4.4L13.6,41.9z"/>
				</g>
			</g>
			<linearGradient id="SVGID_15_" gradientUnits="userSpaceOnUse" x1="11.5736" y1="38.7405" x2="19.3111" y2="28.6754">
				<stop  offset="0" style="stop-color:#474E80"/>
				<stop  offset="0.2973" style="stop-color:#76759C"/>
				<stop  offset="0.7786" style="stop-color:#BCBDD0"/>
				<stop  offset="1" style="stop-color:#D7DBE7"/>
			</linearGradient>
			<path class="st18" d="M12.3,30.1c0.8-0.1,1.5,0.1,2.8,1.7c1.3,1.6,3.2,5.3,3.8,7.4c0,0,0.1,2.2-6.6,2.9c0,0,0-1.6,0-2.8
				c0-1.2-3.9-4.6-3.7-6.5S12.3,30.1,12.3,30.1z"/>
			<path class="st19" d="M13.9,41.9c-0.1-1.2-0.3-3.1-0.7-4.1c-0.5-1.2-2.9-3.8-4.6-4.8c0.1,2,3.7,5.2,3.7,6.3c0,1.2,0,2.8,0,2.8
				C12.9,42,13.4,41.9,13.9,41.9z"/>
			<g>
				<path class="st20" d="M10.2,26.6c0.1-0.1,0.1-0.2,0-0.3c0-0.1-0.1-0.2-0.2-0.2c-0.1,0-0.2,0-0.3,0c-0.1,0-0.3-0.1-0.4-0.2
					c-0.3-0.1-0.7,0-0.8,0.2C8.2,26.7,8.3,27,8.1,27c-0.4,0-0.8,0.2-0.9,0.5c-0.1,0.2-0.2,0.6-0.1,0.8s0.4,0.5,0.6,0.5
					c0.1,0,0.2,0,0.3,0c0.1,0,0.2,0,0.3,0.1c0.1,0.1,0.1,0.2,0.1,0.4c0,0.1-0.1,0.2-0.2,0.3c-0.1,0.1-0.1,0.2-0.1,0.4
					c0,0.1,0.1,0.3,0.2,0.3c0.1,0,0.3,0,0.4-0.1c0.1,0.2,0.3,0.4,0.5,0.4c0.2,0,0.4-0.2,0.5-0.4c0.1-0.2,0-0.5-0.1-0.6
					c0.3-0.3,0.6-0.7,0.7-1.2c0.1-0.3,0.1-0.5,0.1-0.8S10.4,26.8,10.2,26.6z"/>
				<linearGradient id="SVGID_16_" gradientUnits="userSpaceOnUse" x1="20.0615" y1="22.6301" x2="-6.2961" y2="43.5388">
					<stop  offset="0" style="stop-color:#E7A483"/>
					<stop  offset="0.6731" style="stop-color:#E06554"/>
					<stop  offset="1" style="stop-color:#DE4745"/>
				</linearGradient>
				<path class="st21" d="M9.4,29.2l1,1.5c0,0,1.7-0.1,2.1-0.3l-1.1-1.8L9.4,29.2z"/>
				<path class="st22" d="M11.7,29l-0.2-0.4l-2,0.6l1,1.5c0,0,0.2,0,0.4,0C10.5,29.9,11.3,29.7,11.7,29z"/>
				<linearGradient id="SVGID_17_" gradientUnits="userSpaceOnUse" x1="11.03" y1="27.4235" x2="-2.3389" y2="37.2443">
					<stop  offset="0" style="stop-color:#E7A483"/>
					<stop  offset="0.6731" style="stop-color:#E06554"/>
					<stop  offset="1" style="stop-color:#DE4745"/>
				</linearGradient>
				<path class="st23" d="M8.9,29.5c0.1,0.1,0.3,0.2,0.5,0.2c0.2,0,0.2-0.2,0.2-0.3c0,0,0,0,0,0c0.1,0,0.4,0.1,0.6,0.1
					c0.4,0,1-0.1,1.3-0.4c0.2-0.2,0.2-0.5,0.1-0.7c-0.1-0.2-0.2-0.5-0.3-0.7c-0.2-0.3-0.5-0.6-0.7-0.8c-0.3-0.2-0.6-0.4-1-0.4
					c0.1,0.1,0.2,0.2,0.2,0.4c0,0.1-0.1,0.3-0.3,0.3c0,0.1-0.1,0.2-0.2,0.3S9,27.6,9,27.7c-0.1,0.2,0,0.3,0.1,0.5
					c0.2,0.2,0.6,0.7,0.2,0.8c-0.1,0-0.4-0.1-0.5,0C8.7,29.2,8.8,29.4,8.9,29.5z"/>
			</g>
		</g>
		<g>
			<g>
				
					<linearGradient id="SVGID_18_" gradientUnits="userSpaceOnUse" x1="-57.0152" y1="149.4265" x2="-70.7711" y2="149.4265" gradientTransform="matrix(0.7403 -0.6722 0.6722 0.7403 -8.6071 -103.9953)">
					<stop  offset="0" style="stop-color:#474E80"/>
					<stop  offset="0.5344" style="stop-color:#2C355F"/>
					<stop  offset="1" style="stop-color:#19254A"/>
				</linearGradient>
				<path class="st24" d="M54.1,56.1L54.1,56.1c-1.2,1.1-3.1,1-4.2-0.2L36.8,41.4l4.4-4l13.1,14.4C55.5,53.1,55.4,54.9,54.1,56.1z"
					/>
				
					<linearGradient id="SVGID_19_" gradientUnits="userSpaceOnUse" x1="-70.4195" y1="140.3026" x2="-50.8255" y2="140.3026" gradientTransform="matrix(0.7403 -0.6722 0.6722 0.7403 -8.6071 -103.9953)">
					<stop  offset="0" style="stop-color:#474E80"/>
					<stop  offset="0.2973" style="stop-color:#76759C"/>
					<stop  offset="0.7786" style="stop-color:#BCBDD0"/>
					<stop  offset="1" style="stop-color:#D7DBE7"/>
				</linearGradient>
				<polygon class="st25" points="44.1,40.5 39.7,44.6 36.8,41.4 41.2,37.4 				"/>
			</g>
			<g>
				
					<linearGradient id="SVGID_20_" gradientUnits="userSpaceOnUse" x1="-213.6267" y1="25.9779" x2="-213.6267" y2="-8.2945" gradientTransform="matrix(-0.954 -0.2997 0.2997 -0.954 -176.7011 -25.9121)">
					<stop  offset="0" style="stop-color:#47793E"/>
					<stop  offset="1" style="stop-color:#072E3C"/>
				</linearGradient>
				<path class="st26" d="M34.3,15.3c-7.7-2.4-15.9,1.9-18.4,9.6s1.9,15.9,9.6,18.4c7.7,2.4,15.9-1.9,18.4-9.6S42,17.8,34.3,15.3z
					 M25.8,42.3c-7.2-2.3-11.2-9.9-8.9-17.1c2.3-7.2,9.9-11.2,17.1-8.9c7.2,2.3,11.2,9.9,8.9,17.1C40.6,40.6,33,44.6,25.8,42.3z"/>
				
					<linearGradient id="SVGID_21_" gradientUnits="userSpaceOnUse" x1="-213.6267" y1="25.9779" x2="-213.6267" y2="-8.2945" gradientTransform="matrix(-0.954 -0.2997 0.2997 -0.954 -176.7011 -25.9121)">
					<stop  offset="0" style="stop-color:#6390CB"/>
					<stop  offset="0.6513" style="stop-color:#506295"/>
					<stop  offset="1" style="stop-color:#474E80"/>
				</linearGradient>
				<path class="st27" d="M33.9,16.3c-7.2-2.3-14.8,1.7-17.1,8.9c-2.3,7.2,1.7,14.8,8.9,17.1c7.2,2.3,14.8-1.7,17.1-8.9
					C45.1,26.2,41.1,18.6,33.9,16.3z M26.6,39.7c-5.7-1.8-8.9-7.9-7.1-13.6c1.8-5.7,7.9-8.9,13.6-7.1c5.7,1.8,8.9,7.9,7.1,13.6
					C38.4,38.3,32.3,41.4,26.6,39.7z"/>
				
					<linearGradient id="SVGID_22_" gradientUnits="userSpaceOnUse" x1="4.9529" y1="51.9409" x2="4.9529" y2="20.1082" gradientTransform="matrix(0.954 0.2997 -0.2997 0.954 36.0386 -6.8706)">
					<stop  offset="0" style="stop-color:#487A3D"/>
					<stop  offset="0.6519" style="stop-color:#1C4440"/>
					<stop  offset="1" style="stop-color:#072E3C"/>
				</linearGradient>
				<path class="st28" d="M33.9,16.3c-7.2-2.3-14.8,1.7-17.1,8.9c-2.3,7.2,1.7,14.8,8.9,17.1c7.2,2.3,14.8-1.7,17.1-8.9
					C45.1,26.2,41.1,18.6,33.9,16.3z M26.6,39.7c-5.7-1.8-8.9-7.9-7.1-13.6c1.8-5.7,7.9-8.9,13.6-7.1c5.7,1.8,8.9,7.9,7.1,13.6
					C38.4,38.3,32.3,41.4,26.6,39.7z"/>
				
					<linearGradient id="SVGID_23_" gradientUnits="userSpaceOnUse" x1="-0.1409" y1="54.1332" x2="8.918" y2="22.553" gradientTransform="matrix(0.954 0.2997 -0.2997 0.954 36.0386 -6.8706)">
					<stop  offset="0.1813" style="stop-color:#6390CB"/>
					<stop  offset="0.1981" style="stop-color:#6E96CE;stop-opacity:0.9561"/>
					<stop  offset="0.2749" style="stop-color:#96AED7;stop-opacity:0.7559"/>
					<stop  offset="0.351" style="stop-color:#B4C1DF;stop-opacity:0.5571"/>
					<stop  offset="0.4255" style="stop-color:#C8D0E3;stop-opacity:0.3627"/>
					<stop  offset="0.4976" style="stop-color:#D3D8E6;stop-opacity:0.1746"/>
					<stop  offset="0.5645" style="stop-color:#D7DBE7;stop-opacity:0"/>
					<stop  offset="0.9603" style="stop-color:#D7DBE7;stop-opacity:0.9089"/>
					<stop  offset="1" style="stop-color:#D7DBE7"/>
				</linearGradient>
				<circle class="st29" cx="29.9" cy="29.3" r="10.8"/>
				<path class="st20" d="M29.9,40.3c-1.1,0-2.2-0.2-3.3-0.5c-2.8-0.9-5.1-2.8-6.4-5.4c-1.4-2.6-1.6-5.6-0.7-8.4
					c0.9-2.8,2.8-5.1,5.4-6.4c2.6-1.4,5.6-1.6,8.4-0.7c2.8,0.9,5.1,2.8,6.4,5.4c1.4,2.6,1.6,5.6,0.7,8.4c-0.9,2.8-2.8,5.1-5.4,6.4
					C33.3,39.9,31.6,40.3,29.9,40.3z M29.8,18.6c-1.7,0-3.4,0.4-4.9,1.2c-2.5,1.3-4.4,3.6-5.3,6.3c-0.9,2.7-0.6,5.6,0.7,8.2
					c1.3,2.5,3.6,4.4,6.3,5.3c2.7,0.9,5.6,0.6,8.2-0.7c2.5-1.3,4.4-3.6,5.3-6.3c0.9-2.7,0.6-5.6-0.7-8.2c-1.3-2.5-3.6-4.4-6.3-5.3
					l0,0C32,18.8,30.9,18.6,29.8,18.6z"/>
				<g>
					<g>
						<path class="st3" d="M32.3,36c1.1-0.3,2.1-0.8,3-1.5c0.9-0.7,1.6-1.7,2-2.8c-0.3,1.2-0.8,2.3-1.6,3.3c-0.8,1-1.8,1.8-3,2.3
							l0,0c-0.3,0.2-0.7,0-0.9-0.3c-0.2-0.3,0-0.7,0.3-0.9C32.2,36.1,32.3,36,32.3,36z"/>
					</g>
					<g>
						<path class="st3" d="M27.3,37.4c-0.4-0.1-0.5-0.5-0.4-0.8c0.1-0.4,0.5-0.5,0.8-0.4c0.8,0.3,1.6,0.4,2.5,0.3
							c0.4,0,0.7,0.3,0.7,0.6c0,0.4-0.3,0.7-0.6,0.7C29.3,37.9,28.3,37.7,27.3,37.4z"/>
					</g>
				</g>
			</g>
		</g>
		<g>
			<linearGradient id="SVGID_24_" gradientUnits="userSpaceOnUse" x1="7.7261" y1="42.3871" x2="24.7528" y2="21.1667">
				<stop  offset="0" style="stop-color:#474E80"/>
				<stop  offset="0.2973" style="stop-color:#76759C"/>
				<stop  offset="0.7786" style="stop-color:#BCBDD0"/>
				<stop  offset="1" style="stop-color:#D7DBE7"/>
			</linearGradient>
			<path class="st30" d="M17.3,38.4c-1.4-0.6-3-1.4-3.8-1.9c-1.2-0.8-1.9-5.4-4.1-4.9c-1.4,0.3-1.7,4.1,2.1,6.5c2,1.3,3.9,1.8,5.3,2
				C16.8,39.4,17.1,38.8,17.3,38.4z"/>
			<linearGradient id="SVGID_25_" gradientUnits="userSpaceOnUse" x1="20.6166" y1="36.2459" x2="11.4295" y2="60.1957">
				<stop  offset="0" style="stop-color:#E7A483"/>
				<stop  offset="0.6731" style="stop-color:#E06554"/>
				<stop  offset="1" style="stop-color:#DE4745"/>
			</linearGradient>
			<path class="st31" d="M20.9,39.7c0.1-0.1,0.6,0.1,0.7-0.1c0.1-0.2-0.1-0.3-0.3-0.3c-0.2,0-1.4-0.6-2-0.3c-0.1,0.1-1-0.2-1.9-0.7
				c-0.2,0.4-0.5,1-0.5,1.7c1.2,0.2,2.1,0.2,2.2,0.3c0.2,0.3,0.5,0.7,0.9,0.7s1.4,0.2,1.4,0.1C21.3,41.1,20.8,39.9,20.9,39.7z"/>
		</g>
	</g>
</g>
<g>
	<linearGradient id="SVGID_26_" gradientUnits="userSpaceOnUse" x1="46.15" y1="68.5249" x2="43.7466" y2="48.3535">
		<stop  offset="0" style="stop-color:#072E3C"/>
		<stop  offset="0.6519" style="stop-color:#336042"/>
		<stop  offset="1" style="stop-color:#487A3D"/>
	</linearGradient>
	<path class="st32" d="M47.9,51.7c0.8,1.1,1.3,2.3,1.5,3.5c0.1,0.6,0.2,1.2,0.2,1.7c0,0.3,0,0.5,0,0.8c0,0.3,0,0.5-0.1,0.8
		c0,0.5-0.1,0.9-0.2,1.3c0,0.2-0.1,0.4-0.1,0.5c0,0.2-0.1,0.3-0.1,0.5c-0.2,0.5-0.3,0.8-0.3,0.8s-0.3-0.2-0.7-0.5
		c-0.1-0.1-0.2-0.2-0.4-0.3c-0.1-0.1-0.3-0.2-0.4-0.3c-0.3-0.2-0.6-0.5-1-0.7c-0.2-0.1-0.4-0.3-0.5-0.4c-0.2-0.1-0.4-0.3-0.6-0.4
		c-0.4-0.3-0.8-0.6-1.1-0.9c-0.7-0.6-1.4-1.3-2-2.1c-0.6-0.8-1-1.7-1.4-2.6c-0.2-0.4-0.4-0.9-0.5-1.3c-0.1-0.2-0.2-0.4-0.2-0.7
		c-0.1-0.2-0.2-0.4-0.2-0.6c-0.1-0.4-0.3-0.8-0.4-1.1c-0.1-0.2-0.1-0.3-0.2-0.5c0-0.2-0.1-0.3-0.1-0.4c-0.2-0.5-0.2-0.9-0.2-0.9
		s0.3,0,0.9-0.1c0.1,0,0.3,0,0.5,0c0.2,0,0.4,0,0.5,0c0.4,0,0.8,0.1,1.3,0.2c0.2,0.1,0.5,0.1,0.7,0.2c0.2,0.1,0.5,0.2,0.8,0.3
		c0.5,0.2,1,0.4,1.6,0.7C46.1,49.8,47.1,50.7,47.9,51.7z"/>
	<g>
		<path class="st3" d="M45.6,49.6l-0.2-0.1c0,0.3,0,0.7,0,1.1c0,0.4,0,0.9,0,1.4c0.1,1,0.2,2.2,0.6,3.3c-0.6-0.9-1.2-1.8-1.9-2.7
			c-0.1-0.2-0.3-0.4-0.4-0.5c-0.1-0.2-0.2-0.4-0.3-0.6c-0.2-0.4-0.3-0.8-0.5-1.2c-0.1-0.4-0.2-0.8-0.3-1.1c-0.1-0.4-0.1-0.7-0.2-1
			c-0.1,0-0.1,0-0.2,0c0.1,1,0.4,2.4,1,3.6c-1.3-1.5-2.8-2.7-4.4-3.8c-0.1,0-0.1,0-0.1,0h0c0,0,0,0,0,0.1c1.6,1.1,3.1,2.4,4.4,3.8
			c-1.2-0.7-2.5-0.8-3.4-0.7l0.1,0.1c0.3,0,0.6,0,1,0c0.4,0,0.7,0.1,1.1,0.2c0.4,0.1,0.8,0.3,1.1,0.5c0.2,0.1,0.4,0.2,0.5,0.4
			c0.2,0.1,0.3,0.3,0.5,0.5c0.7,0.8,1.3,1.7,1.9,2.6c-0.8-0.8-1.9-1.3-2.8-1.5c-0.5-0.1-0.9-0.1-1.3-0.2c-0.4,0-0.7,0-1,0l0.1,0.1
			c0.3,0,0.7-0.1,1.2,0c0.5,0,1,0.1,1.6,0.3c0.6,0.2,1.1,0.5,1.6,0.8c0.3,0.2,0.5,0.4,0.7,0.7c0.2,0.2,0.4,0.5,0.6,0.8
			c0.2,0.4,0.4,0.8,0.6,1.2c0.2,0.4,0.4,0.8,0.5,1.2c-0.9-1.2-2.1-1.8-3.2-2.1c-0.5-0.1-1-0.2-1.4-0.3c-0.4,0-0.6,0-0.7,0l0.1,0.1
			c0.2,0,0.6,0,1,0.1c0.2,0,0.5,0.1,0.8,0.2c0.3,0.1,0.6,0.2,0.9,0.3c0.3,0.1,0.6,0.3,0.9,0.5c0.1,0.1,0.3,0.2,0.4,0.3
			c0.1,0.1,0.3,0.2,0.4,0.3c0.1,0.1,0.3,0.3,0.4,0.4c0.1,0.1,0.2,0.3,0.3,0.4c0.1,0.2,0.2,0.3,0.3,0.5c0.1,0.2,0.2,0.4,0.2,0.5
			c0.2,0.5,0.3,1,0.5,1.4c0.1,0,0.1,0.1,0.1,0.1s0,0,0-0.1c-0.2-0.5-0.3-1-0.5-1.4c-0.5-1.5-0.5-3-0.4-4.4c0-0.3,0.1-0.7,0.1-1
			c0-0.3,0.1-0.6,0.1-0.9c0.1-0.5,0.2-0.9,0.2-1.1l-0.1-0.2c0,0.1-0.1,0.4-0.2,0.8c-0.1,0.4-0.2,0.9-0.3,1.5c-0.2,1.2-0.3,2.6,0,4.1
			c-0.2-0.4-0.4-0.8-0.5-1.2c-0.2-0.4-0.4-0.8-0.6-1.2c-0.7-1.2-0.9-2.5-1.1-3.8C45.6,51.4,45.6,50.3,45.6,49.6z"/>
	</g>
</g>
<g>
	<linearGradient id="SVGID_27_" gradientUnits="userSpaceOnUse" x1="60.6869" y1="66.7929" x2="58.2835" y2="46.6214">
		<stop  offset="0" style="stop-color:#072E3C"/>
		<stop  offset="0.6519" style="stop-color:#336042"/>
		<stop  offset="1" style="stop-color:#487A3D"/>
	</linearGradient>
	<path class="st33" d="M61.6,55.1c-1,1.1-2.1,2.1-3.3,2.9c-0.6,0.4-1.2,0.8-1.8,1.2c-0.3,0.2-0.6,0.4-0.9,0.5
		c-0.3,0.2-0.6,0.4-0.9,0.5c-0.6,0.3-1.1,0.6-1.6,0.9c-0.2,0.1-0.5,0.3-0.7,0.4c-0.2,0.1-0.4,0.2-0.6,0.3c-0.7,0.4-1.2,0.6-1.2,0.6
		s-0.2-0.5-0.4-1.3c0-0.2-0.1-0.4-0.1-0.7c0-0.3-0.1-0.5-0.1-0.8c-0.1-0.6-0.1-1.3-0.1-2c0-0.4,0-0.7,0-1.1c0-0.4,0.1-0.8,0.1-1.2
		c0.1-0.8,0.3-1.7,0.6-2.5c0.6-1.7,1.5-3.5,2.8-5c1.3-1.5,3-2.6,4.6-3.4c0.8-0.4,1.6-0.7,2.5-0.9c0.4-0.1,0.8-0.2,1.2-0.3
		c0.4-0.1,0.8-0.1,1.1-0.2c0.7-0.1,1.4-0.1,2-0.1c0.3,0,0.6,0,0.8,0c0.3,0,0.5,0,0.7,0.1c0.9,0.1,1.3,0.2,1.3,0.2s-0.2,0.5-0.5,1.3
		c-0.1,0.2-0.2,0.4-0.3,0.6c-0.1,0.2-0.2,0.5-0.3,0.7c-0.2,0.5-0.5,1.1-0.7,1.7c-0.1,0.3-0.3,0.6-0.4,0.9c-0.1,0.3-0.3,0.6-0.4,0.9
		c-0.3,0.6-0.6,1.3-1,1.9C63.4,52.7,62.6,53.9,61.6,55.1z"/>
	<g>
		<path class="st3" d="M63.7,52.1l0.1-0.2c-0.4-0.1-0.9-0.1-1.5-0.2c-0.6,0-1.2,0-2,0.1c-0.4,0-0.7,0.1-1.1,0.2
			c-0.4,0.1-0.8,0.2-1.1,0.3c-0.4,0.1-0.7,0.3-1.1,0.5c-0.4,0.2-0.7,0.4-1.1,0.7c0.3-0.3,0.5-0.7,0.8-1l0.8-0.9
			c0.3-0.3,0.6-0.6,0.8-0.9c0.1-0.1,0.3-0.3,0.4-0.4l0.4-0.4c0.2-0.2,0.5-0.4,0.7-0.6c0.3-0.2,0.5-0.3,0.8-0.5
			c0.6-0.3,1.2-0.4,1.7-0.6c0.6-0.1,1.1-0.1,1.7-0.1c0.5,0,1,0.1,1.4,0.2c0-0.1,0.1-0.1,0.1-0.2c-0.7-0.1-1.5-0.2-2.4-0.2
			c-0.5,0-0.9,0.1-1.4,0.2c-0.2,0.1-0.5,0.1-0.7,0.2c-0.2,0.1-0.5,0.2-0.7,0.3c2.2-2,4.6-3.7,7.1-5.1c0-0.1,0.1-0.2,0.1-0.2l0,0
			c0,0-0.1,0-0.2,0c-2.6,1.4-5,3.1-7.1,5.1c0.1-0.2,0.3-0.4,0.4-0.7c0.1-0.2,0.2-0.4,0.3-0.7c0.2-0.4,0.4-0.9,0.6-1.4
			c0.3-0.9,0.5-1.8,0.7-2.5c-0.1,0-0.2,0-0.3,0c-0.1,0.5-0.2,1-0.4,1.5c-0.2,0.5-0.4,1.1-0.6,1.7c-0.2,0.6-0.5,1.1-0.9,1.7
			c-0.2,0.3-0.4,0.5-0.6,0.8c-0.2,0.3-0.4,0.5-0.7,0.7l-0.4,0.4c-0.1,0.1-0.3,0.3-0.4,0.5c-0.3,0.3-0.6,0.6-0.8,0.9l-0.8,0.9
			c-0.3,0.3-0.5,0.6-0.8,1c0.2-0.4,0.3-0.8,0.5-1.2c0.1-0.4,0.3-0.8,0.4-1.2c0.1-0.4,0.2-0.8,0.3-1.2c0.1-0.4,0.1-0.8,0.2-1.2
			c0.1-0.8,0.2-1.5,0.3-2.1c0.1-0.6,0.1-1.2,0.1-1.6c-0.1,0-0.2,0.1-0.3,0.1c0,0.5-0.1,1.2-0.1,2c-0.1,0.8-0.2,1.7-0.4,2.6
			c-0.2,0.9-0.4,1.9-0.8,2.8c-0.2,0.5-0.4,0.9-0.6,1.4c-0.2,0.5-0.5,0.9-0.8,1.3c-0.2,0.3-0.4,0.6-0.6,0.8c-0.2,0.3-0.4,0.6-0.5,0.8
			L53,57.5L52.7,58c-0.1,0.1-0.2,0.3-0.2,0.4c0.6-2.1,0.6-4.3,0.6-6.1c0-0.9-0.1-1.7-0.2-2.3c-0.1-0.6-0.1-1-0.1-1.2l-0.2,0.3
			c0,0.3,0.1,1,0.2,1.7c0,0.4,0.1,0.8,0.1,1.3c0,0.5,0,1,0,1.5c0,0.5,0,1.1-0.1,1.6c0,0.3,0,0.5-0.1,0.8c0,0.3-0.1,0.6-0.1,0.8
			c0,0.3-0.1,0.6-0.2,0.8c-0.1,0.3-0.1,0.6-0.2,0.8c-0.1,0.3-0.2,0.5-0.3,0.8c-0.1,0.3-0.2,0.6-0.3,0.8c-0.3,0.7-0.6,1.4-0.9,2.1
			c0,0.1,0.1,0.2,0.1,0.2s0.1,0,0.2-0.1c0.3-0.7,0.6-1.4,0.9-2.1c0.1-0.3,0.3-0.5,0.4-0.8c0.2-0.2,0.3-0.5,0.5-0.7
			c0.2-0.2,0.4-0.4,0.6-0.6c0.2-0.2,0.4-0.4,0.6-0.5c0.2-0.2,0.4-0.3,0.7-0.5c0.2-0.1,0.5-0.3,0.7-0.4c0.5-0.2,0.9-0.4,1.4-0.5
			c0.5-0.1,0.9-0.2,1.3-0.3c0.4-0.1,0.8-0.1,1.2-0.1c0.7,0,1.3,0,1.6,0l0.2-0.2c-0.1,0-0.5-0.1-1.1-0.1c-0.5,0-1.3,0-2.1,0.2
			c-0.8,0.2-1.7,0.4-2.6,0.8c-0.4,0.2-0.9,0.5-1.3,0.8c-0.4,0.3-0.8,0.6-1.2,1.1c0.1-0.1,0.2-0.3,0.2-0.4l0.3-0.4l0.5-0.8
			c0.2-0.3,0.4-0.6,0.5-0.8c0.2-0.3,0.4-0.6,0.5-0.8c0.3-0.4,0.6-0.8,1-1.1c0.4-0.3,0.8-0.6,1.2-0.9c0.8-0.5,1.7-0.8,2.6-1
			c0.8-0.2,1.7-0.2,2.4-0.2C62.6,51.9,63.2,52,63.7,52.1z"/>
	</g>
</g>
<g>
	<linearGradient id="SVGID_28_" gradientUnits="userSpaceOnUse" x1="40.1993" y1="57.0256" x2="39.8171" y2="61.6673">
		<stop  offset="0" style="stop-color:#072E3C"/>
		<stop  offset="1" style="stop-color:#072E3C;stop-opacity:0"/>
	</linearGradient>
	<path class="st34" d="M42.9,56c-0.5,0.3-1.2,0.8-1.6,1.6c0,0,0,0,0,0c-0.1-0.3-0.1-0.7-0.2-1.1c-0.3-0.8-0.6-1.5-1-2.1
		c-0.4-0.6-0.8-1.2-1.2-1.6c-0.8-0.9-1.6-1.5-2-2c0.4,0.5,0.8,1.3,1.2,2.4c0.2,0.5,0.4,1.2,0.6,1.8c0.2,0.6,0.4,1.3,0.6,2
		c0.4,1.2,0.8,2.2,1.1,3c0.3,0.8,0.5,1.4,0.5,1.9c0,0,0,0,0,0c0,0,0,0,0,0c0,0,0,0.1,0,0.1c0-0.1,0-0.2,0-0.3
		c0.1-0.4,0.3-0.8,0.6-1.4c0.4-0.6,0.8-1.3,1.2-2.1c0.3-0.6,0.5-1.3,0.7-1.8c0.2-0.6,0.3-1,0.5-1.2C44,55.5,43.5,55.6,42.9,56z"/>
	<linearGradient id="SVGID_29_" gradientUnits="userSpaceOnUse" x1="38.2131" y1="56.8432" x2="37.8308" y2="61.4849">
		<stop  offset="0" style="stop-color:#072E3C"/>
		<stop  offset="1" style="stop-color:#072E3C;stop-opacity:0"/>
	</linearGradient>
	<path class="st35" d="M36.2,56.8c0.3,0.3,0.2,1.6,1,2.5c0.9,1.1,2.4,1.5,2.8,1.9c-0.4-0.4-0.5-1.9-1.4-3
		C37.7,57.3,36.4,57.2,36.2,56.8z"/>
</g>
<g>
	<g>
		<polygon class="st36" points="5.4,27.8 5.5,27.7 5.4,27.8 5.1,27.5 5.3,27.4 5.5,27.6 		"/>
		<path class="st36" d="M4.6,27c-0.2-0.2-0.3-0.3-0.5-0.5l0.2-0.2c0.2,0.2,0.3,0.4,0.5,0.5L4.6,27z M3.7,25.9
			c-0.2-0.2-0.3-0.4-0.4-0.6l0.2-0.1c0.1,0.2,0.3,0.4,0.4,0.6L3.7,25.9z M2.9,24.7c-0.1-0.2-0.2-0.4-0.3-0.6L2.8,24
			c0.1,0.2,0.2,0.4,0.3,0.6L2.9,24.7z M2.3,23.4L2.3,23.4c-0.1-0.3-0.1-0.5-0.2-0.7l0.2,0c0,0.2,0.1,0.4,0.1,0.6l0,0.1L2.3,23.4z
			 M2.3,22l-0.2,0c0-0.2,0-0.5,0.1-0.7l0.2,0C2.4,21.5,2.4,21.8,2.3,22z M2.6,20.6l-0.2-0.1c0.1-0.2,0.2-0.5,0.3-0.7L2.9,20
			C2.8,20.2,2.7,20.4,2.6,20.6z M11.3,19.8l0-0.2c0.2,0,0.5,0,0.7-0.1l0,0.2C11.8,19.8,11.5,19.8,11.3,19.8z M10.6,19.8
			c-0.2,0-0.5,0-0.7-0.1l0-0.2c0.2,0,0.5,0.1,0.7,0.1L10.6,19.8z M12.7,19.6l-0.1-0.2c0.2-0.1,0.4-0.1,0.7-0.2l0.1,0.2
			C13.2,19.5,13,19.5,12.7,19.6z M9.2,19.6c-0.2-0.1-0.4-0.1-0.7-0.2l0.1-0.2c0.3,0.1,0.5,0.1,0.7,0.2L9.2,19.6z M3.3,19.5l-0.2-0.2
			c0.2-0.2,0.4-0.3,0.6-0.5L3.8,19C3.6,19.2,3.4,19.3,3.3,19.5z M7.8,19.2c-0.2-0.1-0.4-0.1-0.7-0.2l0.1-0.2
			c0.2,0.1,0.5,0.1,0.7,0.2L7.8,19.2z M14.1,19.1L14,18.9c0.2-0.1,0.4-0.2,0.6-0.3l0.1,0.2C14.5,18.9,14.3,19,14.1,19.1z M6.5,18.8
			c-0.2-0.1-0.5-0.1-0.7-0.1l0-0.2c0.2,0,0.5,0.1,0.7,0.1L6.5,18.8z M4.4,18.8l-0.1-0.2c0.2-0.1,0.5-0.1,0.7-0.1l0,0.2
			C4.9,18.6,4.6,18.7,4.4,18.8z M15.3,18.3l-0.1-0.2c0.2-0.1,0.4-0.3,0.5-0.5l0.2,0.2C15.7,18,15.5,18.2,15.3,18.3z M16.4,17.4
			l-0.2-0.2c0,0,0.1-0.1,0.1-0.1c0.1-0.1,0.2-0.3,0.3-0.4l0.2,0.1c-0.1,0.2-0.2,0.3-0.3,0.4C16.4,17.3,16.4,17.3,16.4,17.4z
			 M17.2,16.2L17,16c0.1-0.2,0.2-0.4,0.3-0.6l0.2,0.1C17.4,15.7,17.3,15.9,17.2,16.2z M17.7,14.8l-0.2-0.1c0.1-0.2,0.1-0.4,0.2-0.7
			l0.2,0C17.8,14.4,17.8,14.6,17.7,14.8z M42.7,14.5l-0.2-0.1c0.1-0.2,0.1-0.4,0.2-0.7l0.2,0C42.8,14.1,42.7,14.3,42.7,14.5z
			 M18,13.4l-0.2,0c0-0.2,0-0.4,0-0.6l0-0.1l0.2,0l0,0.1C18,13,18,13.2,18,13.4z M42.9,13.1l-0.2,0c0-0.1,0-0.3,0-0.5
			c0-0.1,0-0.2,0-0.2l0.2,0c0,0.1,0,0.2,0,0.2C43,12.8,43,13,42.9,13.1z M14.1,12.8c-0.1,0-0.1,0-0.2,0c-0.2,0-0.3,0-0.5-0.1l0-0.2
			c0.2,0,0.3,0.1,0.5,0.1c0.1,0,0.1,0,0.2,0L14.1,12.8z M14.9,12.7l0-0.2c0.2,0,0.5-0.1,0.7-0.1l0.1,0.2
			C15.3,12.6,15.1,12.7,14.9,12.7z M12.7,12.5c-0.2-0.1-0.4-0.2-0.6-0.3l0.1-0.2c0.2,0.1,0.4,0.2,0.6,0.3L12.7,12.5z M16.3,12.4
			l-0.1-0.2c0.2-0.1,0.4-0.2,0.6-0.3l0.1,0.2C16.7,12.2,16.5,12.3,16.3,12.4z M17.7,12c0-0.1,0-0.2,0-0.3c0,0-0.1,0-0.1,0.1
			l-0.1-0.2c0.1,0,0.1-0.1,0.2-0.1c0,0,0-0.1,0-0.1l0.2-0.1c0,0,0,0,0,0.1c0.1,0,0.1-0.1,0.2-0.1l0.1,0.2c-0.1,0.1-0.2,0.1-0.3,0.2
			c0,0.1,0,0.3,0.1,0.4L17.7,12z M42.7,11.7c0-0.2-0.1-0.5-0.1-0.7l0.2-0.1c0.1,0.2,0.1,0.5,0.1,0.7L42.7,11.7z M11.5,11.7
			c-0.2-0.2-0.3-0.4-0.5-0.6l0.2-0.1c0.1,0.2,0.3,0.4,0.4,0.5L11.5,11.7z M18.8,11l-0.1-0.2l0.6-0.4l0.1,0.2L18.8,11z M17.4,10.6
			c-0.1-0.2-0.2-0.4-0.2-0.6l0,0l0.2-0.1l0,0c0.1,0.2,0.2,0.4,0.3,0.6L17.4,10.6z M10.7,10.5c-0.1-0.2-0.1-0.5-0.1-0.7l0.2,0
			c0,0.2,0.1,0.4,0.1,0.7L10.7,10.5z M42.3,10.3c-0.1-0.2-0.2-0.4-0.3-0.6l0.2-0.1c0.1,0.2,0.2,0.4,0.3,0.7L42.3,10.3z M20,10.3
			l-0.1-0.2l0.6-0.4l0.1,0.2L20,10.3z M21.2,9.5l-0.1-0.2c0.2-0.1,0.4-0.3,0.6-0.4l0.1,0.2C21.6,9.3,21.4,9.4,21.2,9.5z M16.8,9.4
			c-0.1-0.2-0.3-0.4-0.4-0.6l0.2-0.1C16.7,8.9,16.9,9,17,9.3L16.8,9.4z M41.8,9.1c-0.1-0.2-0.2-0.4-0.4-0.6l0.2-0.1
			C41.7,8.5,41.8,8.7,42,9L41.8,9.1z M10.9,9.1L10.6,9c0.1-0.2,0.2-0.5,0.3-0.7l0.2,0.1C11,8.6,10.9,8.8,10.9,9.1z M22.4,8.8
			l-0.1-0.2c0.2-0.1,0.4-0.2,0.6-0.4L23,8.4C22.8,8.5,22.6,8.6,22.4,8.8z M15.9,8.3c-0.2-0.2-0.4-0.3-0.5-0.4l0.1-0.2
			c0.2,0.1,0.4,0.3,0.6,0.5L15.9,8.3z M23.6,8l-0.1-0.2c0.2-0.1,0.4-0.2,0.6-0.4l0.1,0.2C24,7.8,23.8,7.9,23.6,8z M11.6,8l-0.2-0.2
			c0.2-0.2,0.4-0.3,0.6-0.4l0.1,0.2C12,7.7,11.8,7.8,11.6,8z M41,7.9c-0.1-0.2-0.3-0.4-0.5-0.5l0.2-0.2c0.2,0.2,0.3,0.4,0.5,0.5
			L41,7.9z M14.8,7.5c-0.2-0.1-0.4-0.2-0.6-0.2l0.1-0.2c0.2,0.1,0.5,0.1,0.7,0.2L14.8,7.5z M12.8,7.3l-0.1-0.2C13,7.1,13.2,7,13.5,7
			l0,0.2C13.3,7.3,13,7.3,12.8,7.3z M24.8,7.3l-0.1-0.2c0.2-0.1,0.4-0.2,0.6-0.3L25.4,7C25.2,7.1,25,7.2,24.8,7.3z M40,6.9
			c-0.2-0.2-0.4-0.3-0.5-0.4l0.1-0.2c0.2,0.1,0.4,0.3,0.6,0.4L40,6.9z M26.1,6.7L26,6.5c0.2-0.1,0.4-0.2,0.6-0.3l0.1,0.2
			C26.5,6.5,26.3,6.6,26.1,6.7z M27.4,6.1l-0.1-0.2c0.2-0.1,0.4-0.2,0.7-0.3L28,5.8C27.8,5.9,27.6,6,27.4,6.1z M38.9,6.1
			c-0.2-0.1-0.4-0.2-0.6-0.3l0.1-0.2c0.2,0.1,0.4,0.2,0.6,0.3L38.9,6.1z M28.7,5.6l-0.1-0.2c0.2-0.1,0.5-0.1,0.7-0.2l0.1,0.2
			C29.1,5.5,28.9,5.5,28.7,5.6z M37.6,5.5c-0.2-0.1-0.4-0.2-0.7-0.2L37,5c0.2,0.1,0.5,0.2,0.7,0.2L37.6,5.5z M30,5.2L30,5
			c0.2-0.1,0.5-0.1,0.7-0.2l0,0.2C30.5,5.1,30.3,5.2,30,5.2z M36.3,5.1C36.1,5,35.8,5,35.6,4.9l0-0.2c0.2,0,0.5,0.1,0.7,0.1
			L36.3,5.1z M31.4,4.9l0-0.2c0.2,0,0.5-0.1,0.7-0.1l0,0.2C31.9,4.9,31.6,4.9,31.4,4.9z M34.9,4.8c-0.2,0-0.5,0-0.7-0.1l0-0.2
			c0.2,0,0.5,0,0.7,0.1L34.9,4.8z M32.8,4.8l0-0.2c0.2,0,0.5,0,0.7,0l0,0.2C33.3,4.8,33,4.8,32.8,4.8z"/>
		<path class="st36" d="M42.2,15.5L42,15.4c0.1-0.1,0.1-0.2,0.2-0.3l0.2,0.1C42.3,15.3,42.3,15.4,42.2,15.5z"/>
	</g>
	<g>
		<path class="st36" d="M22.1,55.2c-0.1,0-0.2-0.1-0.3-0.1l0-0.2c0.1,0,0.2,0,0.4,0.1L22.1,55.2z"/>
		<path class="st36" d="M28.8,67c-0.1,0-0.2,0-0.2,0l0-0.2c0.2,0,0.5,0,0.7,0l0,0.1l0,0.1C29.1,67,28.9,67,28.8,67z M27.8,66.9
			c-0.2-0.1-0.5-0.1-0.7-0.2l0.1-0.2c0.2,0.1,0.4,0.2,0.7,0.2L27.8,66.9z M30,66.9l-0.1-0.2c0.2-0.1,0.4-0.2,0.7-0.3l0.1,0.2
			C30.5,66.7,30.2,66.8,30,66.9z M26.4,66.4c-0.2-0.1-0.4-0.3-0.6-0.4l0.1-0.2c0.2,0.1,0.4,0.3,0.6,0.4L26.4,66.4z M31.3,66.2
			L31.2,66c0.2-0.1,0.4-0.3,0.5-0.4l0.2,0.2C31.7,65.9,31.5,66.1,31.3,66.2z M38.2,66.2l0-0.2c0.2,0,0.5,0,0.7-0.1l0,0.2
			C38.7,66.2,38.5,66.2,38.2,66.2z M37.5,66.2c-0.2,0-0.5,0-0.7-0.1l0-0.2c0.2,0,0.5,0.1,0.7,0.1L37.5,66.2z M39.7,66l-0.1-0.2
			c0.2-0.1,0.5-0.1,0.7-0.2l0.1,0.2C40.2,65.9,39.9,66,39.7,66z M36.1,65.9c-0.2-0.1-0.5-0.1-0.7-0.2l0.1-0.2
			c0.2,0.1,0.4,0.2,0.7,0.2L36.1,65.9z M41.1,65.6L41,65.4c0.2-0.1,0.4-0.2,0.6-0.3l0.1,0.2C41.5,65.4,41.3,65.5,41.1,65.6z
			 M25.3,65.5c-0.2-0.2-0.3-0.4-0.5-0.6l0.2-0.1c0.1,0.2,0.3,0.4,0.5,0.5L25.3,65.5z M34.7,65.4c-0.2-0.1-0.4-0.2-0.6-0.3l0.1-0.2
			c0.2,0.1,0.4,0.2,0.6,0.3L34.7,65.4z M32.4,65.2l-0.2-0.2c0.1-0.2,0.3-0.4,0.4-0.6l0.2,0.1C32.7,64.8,32.6,65,32.4,65.2z
			 M42.4,64.9l-0.1-0.2c0.2-0.1,0.4-0.3,0.6-0.4l0.1,0.2C42.8,64.6,42.6,64.8,42.4,64.9z M33.5,64.7c-0.2-0.1-0.4-0.3-0.6-0.5
			l0.2-0.2c0.2,0.2,0.4,0.3,0.5,0.4L33.5,64.7z M24.4,64.3c-0.1-0.2-0.2-0.5-0.3-0.7l0.2-0.1c0.1,0.2,0.2,0.4,0.3,0.6L24.4,64.3z
			 M43.5,64l-0.2-0.2c0.2-0.2,0.3-0.3,0.5-0.5l0.2,0.2C43.8,63.6,43.7,63.8,43.5,64z M33.2,64l-0.2-0.1c0.1-0.2,0.2-0.4,0.2-0.7
			l0.2,0.1C33.3,63.5,33.2,63.7,33.2,64z M32.4,63.7c-0.2-0.2-0.3-0.4-0.5-0.6l0.2-0.1c0.1,0.2,0.3,0.4,0.5,0.5L32.4,63.7z M24,62.9
			c0-0.2-0.1-0.5-0.1-0.7l0.2,0c0,0.3,0,0.5,0.1,0.7L24,62.9z M31.5,62.5c-0.1-0.2-0.2-0.5-0.2-0.7l0.2,0c0,0.2,0.1,0.4,0.2,0.6
			L31.5,62.5z M33.5,62.5l-0.2,0c0-0.1,0-0.2,0-0.2c0-0.2,0-0.3-0.1-0.5l0.2-0.1c0,0.2,0.1,0.3,0.1,0.5
			C33.5,62.4,33.5,62.5,33.5,62.5z M24.2,61.5l-0.2,0c0-0.2,0-0.5,0-0.7l0.2,0C24.2,61,24.2,61.2,24.2,61.5z M32.9,61.2
			c-0.1-0.2-0.3-0.4-0.5-0.5l0.1-0.2c0.2,0.1,0.4,0.3,0.5,0.6L32.9,61.2z M31.5,61.1l-0.2-0.1c0.1-0.3,0.2-0.4,0.5-0.6
			c0,0,0,0,0.1,0l0.1,0.2c0,0,0,0,0,0C31.7,60.8,31.6,60.9,31.5,61.1z M24.3,60L24,60c0-0.2,0-0.5,0-0.7l0.2,0
			C24.3,59.6,24.3,59.8,24.3,60z M24.1,58.6c0-0.2,0-0.5-0.1-0.7l0.2,0c0,0.2,0.1,0.5,0.1,0.7L24.1,58.6z M23.9,57.2
			c-0.1-0.2-0.2-0.4-0.3-0.6l0.2-0.1c0.1,0.2,0.2,0.4,0.3,0.7L23.9,57.2z M23.2,56c-0.1-0.2-0.3-0.3-0.5-0.5l0.1-0.2
			c0.2,0.1,0.4,0.3,0.5,0.5L23.2,56z"/>
		<path class="st36" d="M44.4,62.8l-0.2-0.1c0.1-0.1,0.1-0.2,0.2-0.3l0.2,0.1C44.6,62.6,44.5,62.7,44.4,62.8z"/>
	</g>
</g>
<path class="st15" d="M49.2,10.8c-0.1,0-0.2-0.1-0.2-0.2c0-0.4-0.3-0.8-0.8-0.8c-0.1,0-0.2-0.1-0.2-0.2s0.1-0.2,0.2-0.2
	C48.6,9.3,49,9,49,8.5c0-0.1,0.1-0.2,0.2-0.2c0.1,0,0.2,0.1,0.2,0.2c0,0.4,0.3,0.8,0.8,0.8c0.1,0,0.2,0.1,0.2,0.2s-0.1,0.2-0.2,0.2
	c-0.4,0-0.8,0.3-0.8,0.8C49.5,10.7,49.4,10.8,49.2,10.8z M48.9,9.5c0.1,0.1,0.2,0.2,0.3,0.3c0.1-0.1,0.2-0.2,0.3-0.3
	c-0.1-0.1-0.2-0.2-0.3-0.3C49.1,9.4,49.1,9.5,48.9,9.5z"/>
<path class="st15" d="M28.9,58.7c-0.1,0-0.2-0.1-0.2-0.2c0-1-0.8-1.8-1.8-1.8c-0.1,0-0.2-0.1-0.2-0.2c0-0.1,0.1-0.2,0.2-0.2
	c1,0,1.8-0.8,1.8-1.8c0-0.1,0.1-0.2,0.2-0.2s0.2,0.1,0.2,0.2c0,1,0.8,1.8,1.8,1.8c0.1,0,0.2,0.1,0.2,0.2c0,0.1-0.1,0.2-0.2,0.2
	c-1,0-1.8,0.8-1.8,1.8C29.1,58.6,29,58.7,28.9,58.7z M27.9,56.5c0.4,0.2,0.8,0.6,1,1c0.2-0.4,0.6-0.8,1-1c-0.4-0.2-0.8-0.6-1-1
	C28.7,55.9,28.3,56.2,27.9,56.5z"/>
<path class="st15" d="M16.6,65.1c-0.1,0-0.2-0.1-0.2-0.2c0-0.5-0.4-0.9-0.9-0.9c-0.1,0-0.2-0.1-0.2-0.2c0-0.1,0.1-0.2,0.2-0.2
	c0.5,0,0.9-0.4,0.9-0.9c0-0.1,0.1-0.2,0.2-0.2s0.2,0.1,0.2,0.2c0,0.5,0.4,0.9,0.9,0.9c0.1,0,0.2,0.1,0.2,0.2c0,0.1-0.1,0.2-0.2,0.2
	c-0.5,0-0.9,0.4-0.9,0.9C16.9,65,16.7,65.1,16.6,65.1z M16.2,63.7c0.2,0.1,0.3,0.2,0.4,0.4c0.1-0.2,0.2-0.3,0.4-0.4
	c-0.2-0.1-0.3-0.2-0.4-0.4C16.5,63.4,16.4,63.6,16.2,63.7z"/>
<path class="st15" d="M62.1,20.1c-0.9,0-1.6-0.7-1.6-1.6c0-0.9,0.7-1.6,1.6-1.6s1.6,0.7,1.6,1.6C63.7,19.4,63,20.1,62.1,20.1z
	 M62.1,17.3c-0.6,0-1.2,0.5-1.2,1.2c0,0.6,0.5,1.2,1.2,1.2c0.6,0,1.2-0.5,1.2-1.2C63.2,17.8,62.7,17.3,62.1,17.3z"/>
<path class="st15" d="M5.1,57.5c-0.9,0-1.6-0.7-1.6-1.6c0-0.9,0.7-1.6,1.6-1.6s1.6,0.7,1.6,1.6C6.7,56.7,6,57.5,5.1,57.5z M5.1,54.7
	c-0.6,0-1.2,0.5-1.2,1.2c0,0.6,0.5,1.2,1.2,1.2c0.6,0,1.2-0.5,1.2-1.2C6.3,55.2,5.7,54.7,5.1,54.7z"/>
</svg>
