<?xml version="1.0" encoding="utf-8"?>
<!-- Generator: Adobe Illustrator 25.4.1, SVG Export Plug-In . SVG Version: 6.00 Build 0)  -->
<svg version="1.1" id="圖層_1" xmlns="http://www.w3.org/2000/svg" xmlns:xlink="http://www.w3.org/1999/xlink" x="0px" y="0px"
	 viewBox="0 0 50 50" style="enable-background:new 0 0 50 50;" xml:space="preserve">
<style type="text/css">
	.st0{fill:#0094E0;}
</style>
<path class="st0" d="M25,2c12.7,0,23,10.3,23,23S37.7,48,25,48S2,37.7,2,25S12.3,2,25,2 M25,0C11.2,0,0,11.2,0,25s11.2,25,25,25
	s25-11.2,25-25S38.8,0,25,0L25,0z"/>
<path class="st0" d="M33.9,11.5l4.3,4.3c0.3,0.3,0.5,0.8,0.5,1.2c0,0.4-0.2,0.9-0.5,1.2l-2.4,2.4l-6.7-6.7l2.4-2.4
	c0.3-0.3,0.8-0.5,1.2-0.5C33.1,11,33.6,11.1,33.9,11.5L33.9,11.5z M16.1,26.7l6.9,6.9l11.7-11.7l-1.1-1.1l-1.2-1.2l-2.2-2.2
	l-1.2-1.2L27.8,15L16.1,26.7L16.1,26.7z M11.2,37.4l1-2.6l2.8,2.8l-2.6,1l0,0c-0.2,0.1-0.4,0.1-0.6,0C11.3,38.3,11.1,37.8,11.2,37.4
	L11.2,37.4z M12.8,32.9l1.8-5c0-0.1,0-0.1,0.1-0.2l7.2,7.2c0,0-0.1,0-0.1,0l-5,1.8L12.8,32.9z"/>
</svg>
