<?xml version="1.0" encoding="utf-8"?>
<!-- Generator: Adobe Illustrator 24.0.2, SVG Export Plug-In . SVG Version: 6.00 Build 0)  -->
<svg version="1.1" id="圖層_1" xmlns="http://www.w3.org/2000/svg" xmlns:xlink="http://www.w3.org/1999/xlink" x="0px" y="0px"
	 viewBox="0 0 50 50" style="enable-background:new 0 0 50 50;" xml:space="preserve">
<style type="text/css">
	.st0{fill-rule:evenodd;clip-rule:evenodd;fill:#FFFFFF;}
</style>
<path class="st0" d="M49,49.8c-0.2,0-0.5-0.1-0.9-0.3c-0.8-0.7-1.5-1.4-2.2-2.1c-0.2-0.3-0.5-0.5-0.8-0.8l-1.9-1.9
	c-2.8-2.8-5.6-5.6-8.4-8.5c-0.3-0.3-0.8-0.8-1.6-0.8c-0.6,0-1.1,0.3-1.4,0.5c-3.5,2.5-7.5,3.8-11.7,3.8c-8.6,0-15.9-5.3-18.7-13.6
	C-0.4,21,0.1,15.5,2.6,10.6c2.5-4.8,7-8.4,12.2-9.9C16.6,0.3,18.4,0,20.2,0c10.2,0,18.4,7.5,19.6,17.7c0.6,4.8-0.6,9.3-3.4,13.4
	c-0.2,0.3-1.3,1.9-1.3,1.9L36,34c0.2,0.2,0.4,0.5,0.7,0.7l3.3,3.3c3.1,3.1,6.3,6.3,9.4,9.4c0.4,0.4,0.7,1.1,0.7,1.4
	C50,49.5,49.5,49.8,49,49.8z M20.1,2.3c-4.7,0-9.1,1.9-12.4,5.2c-3.3,3.3-5.1,7.7-5,12.4c0.1,9.8,7.7,17.5,17.4,17.5h0.1
	c4.7,0,9.3-2,12.6-5.4c3.3-3.3,5-7.6,4.9-12.1C37.6,10,29.9,2.3,20.2,2.3L20.1,2.3z"/>
</svg>
