<?xml version="1.0" encoding="utf-8"?>
<!-- Generator: Adobe Illustrator 27.4.0, SVG Export Plug-In . SVG Version: 6.00 Build 0)  -->
<svg version="1.1" id="圖層_1" xmlns="http://www.w3.org/2000/svg" xmlns:xlink="http://www.w3.org/1999/xlink" x="0px" y="0px"
	 viewBox="0 0 50 50" style="enable-background:new 0 0 50 50;" xml:space="preserve">
<style type="text/css">
	.st0{fill:#FFFFFF;}
</style>
<g>
	<path class="st0" d="M14.1,38.8c0-0.5-0.4-0.9-0.9-0.9H6.9c-0.5,0-0.9,0.4-0.9,0.9c0,0.5,0.4,0.9,0.9,0.9h6.3
		C13.7,39.8,14.1,39.3,14.1,38.8L14.1,38.8z M14.1,38.8"/>
	<path class="st0" d="M20.2,38.8c0-0.5-0.4-0.9-0.9-0.9H17c-0.5,0-0.9,0.4-0.9,0.9c0,0.5,0.4,0.9,0.9,0.9h2.3
		C19.8,39.8,20.2,39.3,20.2,38.8L20.2,38.8z M20.2,38.8"/>
	<path class="st0" d="M28.1,37.9h-4.4c-0.5,0-0.9,0.4-0.9,0.9c0,0.5,0.4,0.9,0.9,0.9h4.4c0.5,0,0.9-0.4,0.9-0.9
		C29,38.3,28.6,37.9,28.1,37.9L28.1,37.9z M28.1,37.9"/>
	<path class="st0" d="M23.9,42.8h-5.8c-0.5,0-0.9,0.4-0.9,0.9c0,0.5,0.4,0.9,0.9,0.9h5.8c0.5,0,0.9-0.4,0.9-0.9
		C24.9,43.2,24.5,42.8,23.9,42.8L23.9,42.8z M23.9,42.8"/>
	<path class="st0" d="M14.4,42.8h-2.1c-0.5,0-0.9,0.4-0.9,0.9c0,0.5,0.4,0.9,0.9,0.9h2.1c0.5,0,0.9-0.4,0.9-0.9
		C15.3,43.2,14.9,42.8,14.4,42.8L14.4,42.8z M14.4,42.8"/>
	<path class="st0" d="M48.8,33.8c-0.2-0.2-0.4-0.2-0.6-0.2v0h-7.4v-2.8c3-0.5,5.2-3,5.2-6.1c0-1.7-0.6-4-1.6-5.9
		c-1.3-2.4-2.9-3.8-4.5-3.8c-1.7,0-3.3,1.3-4.5,3.8c-1,1.9-1.6,4.2-1.6,5.9c0,3.1,2.3,5.6,5.2,6.1v2.8c-2.3-0.1-3.4-0.7-5.3-1.6
		c-0.2-0.1-7.6-3.6-7.6-3.6v-3.1c3-0.5,5.2-3,5.2-6.1c0-1.7-0.6-4-1.6-5.9c-1.3-2.4-2.9-3.8-4.5-3.8c-1.7,0-3.3,1.3-4.5,3.8
		c-1,1.9-1.6,4.2-1.6,5.9c0,3.1,2.3,5.6,5.2,6.1v2.2L20.9,26c-2.7-1.3-6.2-1.9-9.8-2v-2.4c3-0.5,5.2-3,5.2-6.1c0-1.7-0.6-4-1.6-5.9
		c-1.3-2.4-2.9-3.8-4.5-3.8c-1.7,0-3.3,1.3-4.5,3.8c-1,1.9-1.6,4.2-1.6,5.9c0,3.1,2.3,5.6,5.2,6.1V24c-2.7,0.1-5.4,0.6-7.7,1.5
		c-0.4,0.1-0.6,0.5-0.6,0.9v21.7c0,0.5,0.4,0.9,0.9,0.9h46.4c0.5,0,0.9-0.4,0.9-0.9V34.5C49.1,34.2,49,34,48.8,33.8L48.8,33.8z
		 M35.6,24.6c0-1.3,0.6-3.4,1.4-5c0.9-1.7,2-2.8,2.9-2.8c0.9,0,2,1,2.9,2.8c0.8,1.6,1.4,3.7,1.4,5c0,2-1.4,3.7-3.3,4.2v-1.8l1.5-1.5
		c0.4-0.4,0.4-1,0-1.3c-0.4-0.4-1-0.4-1.3,0l-0.2,0.2v-1.1c0-0.5-0.4-0.9-0.9-0.9c-0.5,0-0.9,0.4-0.9,0.9v5.5
		C37,28.4,35.6,26.7,35.6,24.6L35.6,24.6z M20.7,19.2c0-1.3,0.6-3.4,1.4-5c0.9-1.7,2-2.8,2.9-2.8c0.9,0,2,1,2.9,2.8
		c0.8,1.6,1.4,3.7,1.4,5c0,2-1.4,3.7-3.3,4.2v-1.8l1.5-1.5c0.4-0.4,0.4-1,0-1.3c-0.4-0.4-1-0.4-1.3,0L26,19v-1.1
		c0-0.5-0.4-0.9-0.9-0.9c-0.5,0-0.9,0.4-0.9,0.9v5.5C22.2,22.9,20.7,21.2,20.7,19.2L20.7,19.2z M5.9,15.5c0-1.3,0.6-3.4,1.4-5
		c0.9-1.7,2-2.8,2.9-2.8c0.9,0,2,1,2.9,2.8c0.8,1.6,1.4,3.7,1.4,5c0,2-1.4,3.7-3.3,4.2v-1.8l1.5-1.5c0.4-0.4,0.4-1,0-1.3
		c-0.4-0.4-1-0.4-1.3,0l-0.2,0.2v-1.1c0-0.5-0.4-0.9-0.9-0.9c-0.5,0-0.9,0.4-0.9,0.9v5.5C7.3,19.3,5.9,17.5,5.9,15.5L5.9,15.5z
		 M2.8,27c5.3-1.7,12.7-1.5,17.3,0.7l12.5,5.8H2.8V27z M47.2,47.1h-18c1.1-1.4,2.2-2.7,3.4-3.8c0.4-0.4,0.4-1,0-1.3
		c-0.4-0.4-1-0.4-1.3,0c-1.6,1.6-3.1,3.3-4.4,5.2H2.8V35.4h38.4c-0.9,0.4-1.9,0.8-2.8,1.3C37.9,37,37.8,37.6,38,38
		c0.2,0.5,0.8,0.6,1.3,0.4c2.5-1.4,5.2-2.3,8-2.8V47.1z M47.2,47.1"/>
	<path class="st0" d="M43.1,2.6c0.9,0,1.6,0.7,1.6,1.6c0,0.5,0.4,0.9,0.9,0.9c0.5,0,0.9-0.4,0.9-0.9c0-0.9,0.7-1.6,1.6-1.6
		c0.5,0,0.9-0.4,0.9-0.9s-0.4-0.9-0.9-0.9c-1,0-1.9,0.4-2.5,1.1c-0.6-0.7-1.5-1.1-2.5-1.1c-0.5,0-0.9,0.4-0.9,0.9S42.6,2.6,43.1,2.6
		L43.1,2.6z M43.1,2.6"/>
	<path class="st0" d="M34.5,6.5c0.9,0,1.6,0.7,1.6,1.6c0,0.5,0.4,0.9,0.9,0.9C37.6,9,38,8.6,38,8.1c0-0.9,0.7-1.6,1.6-1.6
		c0.5,0,0.9-0.4,0.9-0.9s-0.4-0.9-0.9-0.9c-1,0-1.9,0.4-2.5,1.1c-0.6-0.7-1.5-1.1-2.5-1.1c-0.5,0-0.9,0.4-0.9,0.9S34,6.5,34.5,6.5
		L34.5,6.5z M34.5,6.5"/>
	<path class="st0" d="M36.2,39.9c0,0.5-0.4,0.9-0.9,0.9c-0.5,0-0.9-0.4-0.9-0.9c0-0.5,0.4-0.9,0.9-0.9
		C35.8,38.9,36.2,39.3,36.2,39.9L36.2,39.9z M36.2,39.9"/>
</g>
</svg>
