<?xml version="1.0" encoding="utf-8"?>
<!-- Generator: Adobe Illustrator 27.4.0, SVG Export Plug-In . SVG Version: 6.00 Build 0)  -->
<svg version="1.1" id="圖層_1" xmlns="http://www.w3.org/2000/svg" xmlns:xlink="http://www.w3.org/1999/xlink" x="0px" y="0px"
	 viewBox="0 0 50 50" style="enable-background:new 0 0 50 50;" xml:space="preserve">
<style type="text/css">
	.st0{fill:#FFFFFF;}
</style>
<g id="XMLID_564_">
	<path id="XMLID_615_" class="st0" d="M30.3,9.1c-0.3-0.3-0.7-0.5-1.2-0.5c-0.4,0-0.9,0.2-1.2,0.5c-2.5,2.7-14.8,16.8-14.8,24.7
		c0,8.8,7.2,16,16,16c8.8,0,16-7.2,16-16C45.1,25.9,32.7,11.9,30.3,9.1z M29.1,47.4c-7.5,0-13.6-6.1-13.6-13.6
		c0-5.3,7.2-15.2,13.6-22.4c6.4,7.2,13.6,17.2,13.6,22.4C42.7,41.3,36.6,47.4,29.1,47.4z"/>
	<path id="XMLID_612_" class="st0" d="M20.8,28.1c-0.6-0.3-1.3-0.1-1.6,0.5c-0.8,1.5-1.7,3.3-1.7,5.5c0,2,0.7,4,1.4,5.3
		c0.2,0.4,0.6,0.7,1.1,0.7c0.2,0,0.3,0,0.5-0.1c0.6-0.3,0.8-1,0.6-1.6c-0.4-0.9-1.1-2.7-1.1-4.3c0-1.5,0.5-2.8,1.4-4.4
		C21.6,29.2,21.3,28.5,20.8,28.1z"/>
	<path id="XMLID_611_" class="st0" d="M11.7,26.7c-3.2-1.5-5.3-4.8-5.3-8.3c0-3.8,5.5-11,9.2-15.3c1.5,1.7,4.3,5,6.5,8.5
		c0.3,0.5,1.1,0.7,1.6,0.4c0.5-0.3,0.7-1.1,0.4-1.6c-2.7-4.3-6.3-8.4-7.4-9.6c-0.3-0.3-0.7-0.5-1.1-0.5s-0.8,0.2-1.1,0.5
		C12.2,3.5,4.1,12.9,4.1,18.4c0,4.4,2.6,8.5,6.6,10.5c0.2,0.1,0.3,0.1,0.5,0.1c0.4,0,0.9-0.2,1.1-0.7C12.5,27.7,12.3,27,11.7,26.7z"
		/>
	<path id="XMLID_604_" class="st0" d="M11,13.9c-0.6-0.3-1.3-0.1-1.6,0.5c-0.6,1.1-1.3,2.4-1.3,4.1c0,1.5,0.5,2.9,1,3.9
		c0.2,0.4,0.6,0.7,1.1,0.7c0.2,0,0.3,0,0.5-0.1c0.6-0.3,0.8-1,0.6-1.6c-0.5-1-0.8-2.1-0.8-2.9c0-1,0.4-1.8,1-2.9
		C11.7,14.9,11.5,14.2,11,13.9z"/>
</g>
</svg>
