<?xml version="1.0" encoding="utf-8"?>
<!-- Generator: Adobe Illustrator 24.0.2, SVG Export Plug-In . SVG Version: 6.00 Build 0)  -->
<svg version="1.1" id="圖層_1" xmlns="http://www.w3.org/2000/svg" xmlns:xlink="http://www.w3.org/1999/xlink" x="0px" y="0px"
	 viewBox="0 0 52.5 43.6" style="enable-background:new 0 0 52.5 43.6;" xml:space="preserve">
<style type="text/css">
	.st0{fill-rule:evenodd;clip-rule:evenodd;fill:#FFFFFF;}
</style>
<g>
	<path class="st0" d="M22.1,36.9c0.6-0.2,0.9-0.7,1.2-1.2c-0.3-1.7-3-3.3-3.2-0.4C20.9,35.6,21.2,36.6,22.1,36.9z M21.2,34.6
		c0.3,0.3,0.9,0.5,0.9,1.2C21.8,35.4,20.9,35,21.2,34.6z"/>
	<path class="st0" d="M24.2,32.7c-0.2,0.5-1.1,0.9-0.9,1.3C23.6,33.5,24.5,33.1,24.2,32.7z"/>
	<path class="st0" d="M17.6,36.7c0.3-0.8,0.8-5.1-0.3-5.9C17.1,32.4,16.9,36,17.6,36.7z"/>
	<path class="st0" d="M17.2,13.6c-0.2,1,0.3,1.4,0.7,1.9c0-0.7-0.2-1.3-0.3-1.9H17.2z"/>
	<path class="st0" d="M2.8,28.8c-0.4,0.1-1.2,0.5-1.3,0.9C2,32.4,5.1,29.8,2.8,28.8z M2.2,30.1c-0.4-0.4,0.1-0.7,0.4-0.6
		C3,29.9,2.5,30.2,2.2,30.1z"/>
	<path class="st0" d="M44.7,42.4c-0.2,0.1-0.3-0.1-0.3-0.3c0.1,0,0.1-0.1,0.3-0.1c2.4,0.5,5.1-0.1,7.7-0.1v-1
		c-0.6-0.3-1.3-1.3-2.1-2.1c-2.4-2.4-4.6-4.8-6.8-6.8c-3.8-3.5-7.5-7.1-11.2-10.6c0.6-0.2,1.1-0.5,1.6-0.8c0.1,0,0.1,0,0.2,0
		c0.2,0,0.4-0.2,0.4-0.3c0.9-0.6,1.8-1.2,2.6-2c-2.3-0.2-4.6,0.3-7,1.1c-3.6-3.5-7.1-7.1-10.5-10.7c0.6-0.9,1.3-1.8,1.8-2.7
		c0-0.1,0.1-0.1,0.1-0.2c0-0.1,0.1-0.1,0.1-0.2C22,5.3,22.1,5,22.3,4.6c0.1-0.1,0.1-0.3,0.2-0.4c0,0,0-0.1,0.1-0.1
		c0.1-0.3,0.3-0.5,0.4-0.8c0.1-0.1,0.2-0.2,0.3-0.3c0.1-0.2,0.1-0.3,0.1-0.5c0.4-0.9,0.8-1.7,1.1-2.6c-3.2,1.5-4.8,4.1-6.6,6.6
		c-0.6-0.6-1.2-1.2-1.7-1.8c-0.4-0.1-0.4,0.2-0.9,0.1c0,1.7,0,3.5,0,5.2c-4.1,5.2-8.4,10-12.4,15.4c0,0,0,0.1-0.1,0.1
		c-0.3,0.3-0.5,0.5-0.7,0.8c-1.5,1.7-3,2.8-1.3,5c1.4,1.8,3.8,0.2,5.9-0.5c2.9-1,5.8-2.1,8.6-3.2c0,4.4,0,8.9,0,13.4
		c-0.1,0-0.1,0-0.2,0v2.4h37.4v-1.4C50.3,42.2,47.5,42.1,44.7,42.4z M38,28.4c1.4,1.3,2.9,2.4,3.9,4c1.7,1.2,3.3,2.9,4.9,4.3
		c1.6,1.4,3.5,2.7,4.5,4.3c-6.9-6.2-13.7-12.6-20.3-19.1c0.1,0,0.2-0.1,0.3-0.1C33.4,24,35.7,26.3,38,28.4z M29.1,19.7
		c-0.1,0-0.2,0.1-0.4,0.1c-3.3-3.3-6.6-6.7-9.9-10.1C18.9,9.7,19,9.6,19,9.5C22.4,12.8,25.7,16.2,29.1,19.7z M17.2,7.6
		c-0.1,0.1-0.1,0.2-0.2,0.3c-0.2-0.2-0.4-0.4-0.6-0.6C16.7,7.1,17,7.3,17.2,7.6z M2.3,31.5c-3.1-0.7-0.8-4.5,1-3
		C4.6,29.6,4.2,31.3,2.3,31.5z M4.6,28.2c1.6-1.4,2.9-2.8,3.8-4.3c0.7,0.3,1,1.5,1.8,2.4c-1.8,0.5-3.6,1.3-5.4,2.2
		C4.8,28.4,4.7,28.3,4.6,28.2z M4.5,27.8c0.7-0.8,2.6-3.6,3.8-4.6c0.2,1-1.1,1.7-1.7,2.4C5.8,26.3,5.2,27.2,4.5,27.8z M11.6,26.4
		c-1.1-0.3-2.6-3.1-3-4.2C9.6,23.4,11,25.2,11.6,26.4z M9.5,21c1.8-2.3,3.8-4.5,5.7-6.8c0,3.5,0,7.1,0,10.7
		c-0.9,0.3-1.8,0.6-2.7,0.9C11.4,24.2,10.8,22.7,9.5,21z M5.6,29.9c-0.1,0.1-0.2,0.1-0.3,0.2c-0.1-0.1-0.2-0.2-0.2-0.4
		c7-2.8,15-5.3,22.6-8.3c-2.5-2.4-5-4.8-7.5-7.5c-0.9-1-2.5-2.5-3.3-3.6c-4.4,5.6-9.5,11.1-13.7,16.7C3,27,2.8,27.3,2.6,27.1
		c-0.1-0.1,0-0.1,0-0.2c4.6-5.7,9.3-11.3,13.9-17c0-0.1-0.1-0.1-0.1-0.2c-0.1-0.3,0.1-0.7,0-1c0-0.3,0.1-0.3,0.1-0.1
		C16.8,8.8,17,9,17.1,9.1C19,6.8,20.9,4.4,22.8,2c-1.5,2.6-3.3,5.1-5.2,7.6c3.7,3.8,7.6,7.6,11.5,11.4c0.6-0.2,1.2-0.5,1.7-0.7
		c1.1-0.4,2.3-1.5,3.4-0.7c-1.5,0.7-3,1.3-4.6,1.8c6.9,6.6,13.9,13.2,20.5,19.6c-2.2-0.1-3.4-2.2-4.8-3.5
		C39.7,32.3,33.8,27.3,28.1,22c-2.7,1-5.5,1.9-8.2,3.1C15.1,27,10.3,28.7,5.6,29.9z M25,21.3c-0.4,0.2-0.8,0.3-1.3,0.5
		c0-0.5-0.1-1-0.2-1.4c-0.2,0.5-0.3,1-0.4,1.6c0,0-0.1,0-0.1,0c-0.2,0.1-0.5,0.2-0.7,0.3c0.3-1.3,0.8-3.2-0.1-3.5
		c-1.2-0.3-1.9,2.1-2.3,4.4c-0.8,0.3-1.6,0.6-2.3,0.9c0.1-2.8,0-5.6-0.5-7.8c-0.2,2.5-0.3,5.3-0.2,8.1c-0.1,0-0.3,0.1-0.4,0.1
		c0-3.8,0-7.7-0.1-11.7c0.2-0.2,0.3-0.4,0.5-0.6c0.3,0.2,0.5,0.5,0.6,0.6c1.1,1.1,2.1,2.4,3.3,3.6c1.6,1.7,3.4,3.1,4.8,4.6
		c-0.1,0-0.1,0-0.2,0.1c-0.3-0.2-0.7-0.9-1.2-0.9C24.5,20.5,24.7,20.9,25,21.3z M22.2,19.8c-0.4,0.8-0.6,1.7-0.7,2.8
		c-0.2,0.1-0.4,0.2-0.7,0.2c0.2-1.2,0.5-2.3,1-3.2C22,19.7,22,19.8,22.2,19.8z M22.1,29.5c0.3,0.9,1,1.3,1,2
		c-1.3-0.9-2.1-3.3-2.3-5.8c0.2-0.1,0.4-0.1,0.6-0.2C21.4,26.9,21.6,28.4,22.1,29.5z M22.9,41.8c-0.2,0-0.1-0.4-0.1-0.6h0.6
		C23.3,41.5,23,41.5,22.9,41.8z M23.4,42.4c0.5-0.5,0.8-1.1,1.7-1.2C24.6,41.7,24.4,42.4,23.4,42.4z M25.5,42.2c0.6-0.4,0.9-1.1,2-1
		C27.1,41.8,26.8,42.4,25.5,42.2z M29.3,42.4c0.5-0.5,0.9-1.2,2-1.2C30.8,41.7,30.6,42.6,29.3,42.4z M27.7,42.2
		c0.4-0.4,0.6-1.1,1.6-1C28.8,41.6,28.5,42.1,27.7,42.2z M31.3,42.4c0.3-0.5,0.9-0.7,1.3-1.2C33,41.3,32.1,42.4,31.3,42.4z
		 M33.1,42.4c0.5-0.4,0.8-1.1,1.7-1.2C34.3,41.7,34.1,42.5,33.1,42.4z M35.2,42.2c0.5-0.4,0.6-1.2,1.7-1
		C36.4,41.6,36.1,42.1,35.2,42.2z M37.2,42.1c0.4-0.4,0.8-0.8,1.4-0.9C38.3,41.6,37.8,41.9,37.2,42.1z M39.4,41.9
		c0.4-0.4,0.7-0.9,1.7-0.7C40.7,41.6,40.4,42.1,39.4,41.9z M43,41.8h-1c0.2-0.3,0.4-0.7,1-0.6V41.8z M43.9,40.2
		c-7.6,0.1-15.2-0.7-22.5,0c-0.3,0.1-0.1,0.7-0.1,1c-1.3-0.1-3.1,0.2-4.2-0.1c0.4-1,2.9,0,3.8-0.6c-0.7-0.6-2.5-0.1-3.8-0.3
		c-0.3-4.2-0.4-8.5-0.4-12.9c0.2-0.1,0.3-0.1,0.5-0.2c0.1,1.1,0.2,2.2,0.4,3.3c0-1.1,0-2.3,0.1-3.4c0.8-0.3,1.5-0.6,2.3-0.9
		c0.2,3.3,1.4,5.8,3.6,6.8c0.3-0.2,0.3-0.8,1-0.7c-1-2.1-2-4.1-2.2-6.9c0.2-0.1,0.5-0.2,0.7-0.3c0.1,1.5,0.4,2.9,1,3.8
		c-0.3-1.2-0.3-2.6-0.3-4c0.9-0.3,1.8-0.7,2.7-1c0.1,0,0.3-0.1,0.4-0.1c0.7,0.6,1.5,1.2,2.2,1.8c-0.8,0.2,0.6,1.1,0.7,1.7
		c-1.5,1.4-2.9,2.9-4.3,4.3c1.6-0.8,3.2-2.7,4.6-4c1,0.5,1.4,1.5,2.7,1.7c-0.1-0.8-1.6-1.4-2-2.5c4.3,3.2,8.2,6.8,11.8,10.7
		c-1.4-0.8-2.4-2-3.5-3C38,33,37,32,35.6,31.1c-0.3,0.7,1.5,1.2,1.2,1.9c-3.3,1.5-8.2,1.3-11.5,0c-0.4,0.1-0.5,0.6-0.7,0.9
		c2.7,3.1,10.5,2.7,14,0.7c0.9,0.9,1.9,1.7,2.7,2.6c-7.8,0-15.7,0-23.1,0.4c-0.3,0.5,0,1.3,0,1.6c8.8,0.4,17.7,0.5,26.7,0
		c0.8,0.5,1.3,1.3,2.2,1.7c-0.5,0.3-1.6,0.1-2.3,0.1C44.1,41.1,44.4,40.2,43.9,40.2z M43.7,38.3c-8,0.6-17.1,0.4-24.8,0
		c4.7-0.4,8.8-0.3,14.9-0.3C37.5,38,41.7,37.8,43.7,38.3z M37.5,33.8c-2,1.4-5.5,1.8-8.4,1c0.7,0,1.6-0.1,2.2,0.1
		c2.1-0.2,4.1-0.6,5.9-1.2H37.5z M28.7,34.7c-1,0.4-2.1-0.3-2.9-0.6C26.6,33.4,27.5,34.9,28.7,34.7z"/>
</g>
</svg>
