<?xml version="1.0" encoding="utf-8"?>
<!-- Generator: Adobe Illustrator 24.0.2, SVG Export Plug-In . SVG Version: 6.00 Build 0)  -->
<svg version="1.1" id="圖層_1" xmlns="http://www.w3.org/2000/svg" xmlns:xlink="http://www.w3.org/1999/xlink" x="0px" y="0px"
	 viewBox="0 0 170.4 161.8" style="enable-background:new 0 0 170.4 161.8;" xml:space="preserve">
<style type="text/css">
	.st0{fill:#FFFFFF;}
</style>
<g>
	<path class="st0" d="M158.4,9.8c-0.2-0.1-0.2,0-0.2,0c0,0.1-0.1,0.1-0.1,0.2c-0.1,0.1-0.2,0.3-0.3,0.4l0,0c-0.5,0.7-1.2,1.7-2,2.9
		c-0.3,0.5-0.7,1.1-1,1.6c-0.2,0.4-0.4,0.7-0.6,1.1c-0.1,0.2-0.2,0.4-0.3,0.7c0,0.1-0.1,0.2-0.1,0.4c0,0.1,0.3,0.2,0.3,0.2
		c0.1-0.1,0.2-0.3,0.3-0.5c0.7-0.9,1.1-1.8,1.9-3.2c0.7-1.2,1.4-2.2,1.8-3c0-0.1,0.1-0.1,0.1-0.2C158.6,9.8,158.7,9.9,158.4,9.8z"/>
	<path class="st0" d="M51.1,55.3L51.1,55.3c0.2-0.5,0.4-1.1,0.6-1.8c0.1-0.3,0.1-0.6,0.2-1c0-0.2,0.1-0.4,0.1-0.7c0-0.1,0-0.3,0-0.4
		c0-0.1,0-0.1-0.1-0.2c-0.1-0.1-0.3-0.1-0.3-0.1c-0.1,0.1-0.1,0.2-0.1,0.3c-0.2,0.6-0.3,1.1-0.4,1.9c-0.2,0.7-0.4,1.3-0.4,1.8v0.1
		c0,0.4-0.1,0.3,0.2,0.4c0.2,0,0.2,0,0.2,0v-0.1C51,55.5,51,55.4,51.1,55.3z"/>
	<path class="st0" d="M59.3,88.6c-0.3,0.3-0.6,0.5-0.9,0.8c-3.8,3.3-7.6,6.8-10.1,9.3c-0.2,0.2-1.5,1.5-1.6,1.7s0.1,0.3,0.3,0.2
		c0.9-0.6,6-5.5,6.5-6c2.3-2.1,3.9-3.5,5.6-5.2c1-1,1-0.9,0.9-1.1C59.8,88.1,59.7,88.3,59.3,88.6z"/>
	<path class="st0" d="M150.2,5.7l0.5-0.4c1.7-1.1,1.7-1,1.6-1.3c-0.1-0.2-0.3-0.1-0.4,0l-0.5,0.3c-0.4,0.2-0.8,0.5-1.3,0.8l-0.2,0.1
		c-4.1,2.6-7.9,6.7-10.4,11.7c-0.8,1.5-1.6,3.5-2,5.5c-0.1,0.4-0.2,0.8-0.2,1.2c0,0.3,0.3,0.2,0.4,0c0.3-0.8,0.5-2.2,2.3-6.1
		c0.7-1.5,1.6-3.1,3-4.9C145.4,9.5,148.1,7.2,150.2,5.7z"/>
	<path class="st0" d="M149.7,8.6c1.1-0.9,1.1-0.8,1-1.1c-0.1-0.1-0.2-0.1-0.3,0L150,7.8l-0.8,0.6L149,8.5c-2.7,2.1-5.3,5-7.2,8.6
		c-0.6,1.1-1.2,2.5-1.6,3.9c-0.1,0.3-0.2,0.5-0.2,0.8c0,0.2,0.3,0.2,0.4,0.1c0.2-0.4,1.5-4.1,4.1-7.7c1.7-2.3,3.5-4,4.9-5.2
		L149.7,8.6z"/>
	<path class="st0" d="M148.8,12.2c-0.1-0.1-0.2-0.1-0.2,0s-0.1,0.1-0.1,0.2c-0.1,0.1-0.2,0.3-0.3,0.4l0,0c-1.3,1.5-2.2,2.6-3.5,4.4
		c-0.3,0.5-0.9,1.2-1.1,1.8c-0.1,0.1-0.2,0.2-0.2,0.4c0,0.1,0.2,0.2,0.3,0.2c0.2-0.1,0.3-0.3,0.4-0.5c0.8-0.9,1.4-1.8,2.3-3.1
		c0.9-1.1,1.7-2.1,2.2-2.9c0-0.1,0.1-0.1,0.1-0.2C148.9,12.3,149,12.4,148.8,12.2z"/>
	<path class="st0" d="M149.6,14.2c-0.1-0.1-0.2-0.1-0.2-0.1l-0.1,0.1c-0.1,0.1-0.1,0.1-0.2,0.2l0,0c-0.4,0.4-0.8,0.9-1.3,1.5
		c-0.2,0.3-0.4,0.6-0.6,0.9c-0.1,0.2-0.3,0.4-0.4,0.6c-0.1,0.1-0.1,0.3-0.2,0.4c0,0.1-0.1,0.1,0,0.3c0,0.1,0.3,0.2,0.3,0.2
		c0.1-0.1,0.2-0.2,0.2-0.2c0.5-0.5,0.7-1,1.2-1.7c0.5-0.6,0.9-1.2,1.2-1.6c0,0,0-0.1,0.1-0.1C149.8,14.3,149.8,14.3,149.6,14.2z"/>
	<path class="st0" d="M147.5,31l0.4,0.2l1,0.4h0.1c1.8,0.6,4.3,1.3,7.2,1.7c1.3,0.2,2.7,0.2,4,0.2c0.9,0,1.8,0,2.7-0.1
		c0.5,0,1-0.1,1.6-0.2c0.3,0,0.6-0.1,0.8-0.2c0.2-0.1,0.1-0.3-0.1-0.3c-0.4,0-0.8,0.1-1.2,0.1c-2.4,0.1-4.5,0.2-7.7-0.2
		c-2.8-0.3-5.3-1-7.1-1.5l-0.4-0.1c-1.4-0.4-1.3-0.5-1.4-0.2C147.2,30.9,147.4,31,147.5,31z"/>
	<path class="st0" d="M165.2,21.4L165.2,21.4c0.1,0,0.2,0,0.3,0l0,0c0.3,0.1,0.8,0.1,1.3,0.1c0.2,0,0.5,0,0.7,0s0.3,0,0.5-0.1
		c0.1,0,0.2,0,0.3-0.1c0,0,0.1,0,0.1-0.1s0-0.3,0-0.4c-0.1-0.1-0.1,0-0.2,0c-0.4-0.1-0.8,0-1.3,0s-0.9-0.1-1.3,0h-0.1
		c-0.2,0.1-0.2,0-0.2,0.3C165.1,21.4,165.1,21.4,165.2,21.4z"/>
	<path class="st0" d="M165.5,36.7h-0.1c2-2.4,3.4-5.3,4.2-8.2c0.3-1,0.5-2,0.6-3.1c0,0,0.1,0,0.1-0.1c0.1-0.1,0-0.3,0-0.4l0,0
		c0.5-4.7-0.4-9.5-2.9-13.5C164,5.9,158.2,2.2,152,0.7c-9.8-2.4-14.2,1.3-24,2.6c-0.2-0.2-0.3-0.1-0.4,0.1
		c-12.5,1.5-13-0.9-24.2,9.2c-2.4,2.2-4.3,4.8-5.7,7.7c-1.4,2.9-2.2,5.9-3.1,9c-0.7,2.3-1.5,4.5-2.4,6.6C92,27.5,93,20.1,99.6,14.5
		c0-0.3,0.1-0.6,0.2-0.9c-0.1,0-0.8,0-1-0.1c-0.1,0.2-0.2,0.3-0.5,0.3c-7.2,5.1-32.3,5.6-29.1,26c-0.4,2.8-0.4,5.6-0.6,8.4
		c-0.5-4.9-1.8-9.8-1.9-14.7c0-0.2-0.2-0.1-0.3,0c0,0.1-0.1,0.3-0.1,0.4c-0.1-0.1-0.2-0.1-0.3,0c-0.1,0.2-0.2,0.3-0.4,0.5
		c-0.1,0-0.2,0.1-0.2,0.2v0.1c-3.4,4.4-6.8,8.5-11.1,12.2c-2.1,1.8-4.4,3.5-6.6,5.2c-2.1,1.6-4.5,3-6.2,4.9s-1.9,4.2-1.9,6.9
		c0,2.6,0.1,6.9,0.3,9.5c0.1,2.1,0.3,4.2,0.6,6.2c-0.4-0.9-0.8-1.9-1.2-2.9c-1.2-3.4-1.6-7-2.4-10.6c0,0,0.1-0.1,0.1-0.2
		c0.1-1.8-0.1-3.6-0.2-5.4c0-0.4-0.6-0.5-0.8-0.1c-0.4,0.7-0.7,1.4-1,2.1c0,0-0.1,0-0.1,0.1c-0.3,0.7-0.6,1.3-0.9,2
		c0,0.1-0.1,0.2-0.1,0.3V65c-1.5,4.2-1.7,8.7-0.6,13c-2.3-2.2-5.3-3.4-8.7-3.4c-0.6,0-0.7,0.9-0.2,1.1c1.8,0.8,3.4,1.9,4.9,3.2
		c-0.7-0.2-1.4-0.3-2,0.1s-0.9,1-0.8,1.6c-1.3-0.3-2.6-0.6-3.9-0.8c-0.6-0.1-0.8,0.7-0.3,0.9c3.7,2.2,7.1,4.4,8.9,7.9
		c-1.4-0.9-3.3-1.5-4.6-2c-1.9-0.7-5-2.1-6.9-0.8c-0.3,0.2-0.3,0.8,0.1,1c2.5,0.8,4.8,2,6.9,3.5c-9.5-1,2.7,1.6,2.8,8.4
		c-0.8-1.6-2.8-2.6-4.4-3.4c-2.1-1-4.7-1.6-6.7,0c-0.3,0.2-0.1,0.6,0.3,0.5c2.1-0.5,4-0.4,6,0.5c1.6,0.7,4,1.7,4.7,3.5
		c0,0,0,0,0,0.1c-4.6-3.1-6.1-1.4-2.5,2.9c-2.6,0.1,0.4,1.2-0.1,6.6c-0.1,0.2-0.2,0.3-0.3,0.5c-0.5-8.7-10.7-8.8-10.2-7.4
		c-0.3,0-0.3,0.1-0.3,0.3c0,0.2,0.1,0.2,0.2,0.2s0.2,0,0.3,0c0.2,0,0.5,0,0.7,0h0.1c1.3,0.1,3,0.6,4.4,1.8c0.7,0.6,1.2,1.2,1.7,2
		c0.3,0.5,0.5,1,0.7,1.6c0.1,0.3,0.2,0.7,0.3,1c0,0.2,0,0.4,0.2,0.6c0.1,0.1,0.3,0.1,0.4-0.1c0-0.3,0-0.5,0-0.8
		c-0.1-0.9-0.3-1.7-0.8-2.5c-0.4-0.8-1-1.6-1.9-2.4c-0.5-0.5-1.1-0.8-1.7-1.1c3.3,1.1,5.5,4,5.3,7.7c-0.7,1-1.4,2-2.1,3
		c1.2-2.6-0.2-5.5-2.1-7.3c-0.9-0.8-2.2-1.9-3.5-2c-0.5,0-0.9,0.1-1.2,0.2c-1.5,0.3-2.8,1.3-3.4,2.7c-0.2,0.4,0.4,0.6,0.6,0.3
		c0.7-1.3,1.9-2,3.3-2.2c0.3,0.1,0.5,0.2,0.7,0.2c1.7,0.5,2.9,1.5,3.7,3.2c2.4,5.3-1.8,10.2-4.5,14.4c-6.3,9.7-6,7.9-13.8,22
		C2,147.7-0.3,151,0,153.7c0.3,2,7.1-3.2,7.4-3.6c3-3.3,3.7-6.1,12.5-20.4c1.9-3,2.1-3.4,4.3-6.7c0.1,0.3,0.3,0.5,0.6,0.4
		c4.3-2.1,8.9-2.8,13.6-1.5c0.4,0.1,0.7-0.4,0.5-0.7c-1-1.4-2.2-2.3-3.8-2.8c1.8-0.8,5.6-0.1,7.3,0s5.7-0.1,6.9,1.3
		c0.4,0.4,1.1,0,0.7-0.5c-0.9-1.3-2.1-2.3-3.3-3c4.4,0.5,8.5,2.3,12,5c2.8,2.2-1.1-7.3-10.7-8.9c3.7-0.7,7.3-1.6,10.9-2.9
		c0.4-0.1,0.5-0.7,0.2-1c-0.4-0.3-0.9-0.7-1.3-1c6-0.8,11.6-3.1,16.5-6.8c0.5-0.4,0.2-1.2-0.4-1.1c-4.1,0.3-8.1,0-12-0.6
		c6.2-1.9,0.6-3.2,0.5-3.7c11,0.1,22-0.6,32.8-2.6c0.5-0.1,0.6-0.9,0-0.9c-0.5-0.1-1.1-0.1-1.6-0.2c1.9,0.3,5.1-1.1,6.7-2.2
		c2.5-1.7,0.3-2.3-1.9-2.4c6,0.1,10.6-5,13.8-9.6c0.9,0,0.8-0.4,0.3-0.5c1.6-2.3-0.7-0.6-8.1-3c3.2,0.7,7.1,1.1,10.1-0.1
		c3.7-0.4,7.5-3,8.8-6.4c1.1-0.3,2.2-0.8,3.1-1.5c0.1-0.1,0.2-0.3,0.1-0.5c0-0.1,0.1-0.3,0.1-0.4c0.1-0.6-0.6-0.8-1-0.5
		c-0.9,1-5.8-1.1-6.9-1.5c-2.2-0.7-4.4-1.5-6.6-2.3c-4.2-1.6-8.2-3.6-12.3-5.2c-0.1,0-0.1,0.1-0.1,0.1c4.6,3.3,10.1,5.7,15.4,7.6
		c1.6,0.6,3.1,1.1,4.7,1.6c0.3,0.1,0.6,0.2,0.9,0.3c-1.1,0.1-2.2,0.1-3.6,0c-1.9-0.2-3.5-0.6-4.7-0.8l-0.3-0.1c-0.9-0.2-0.9-0.3-1,0
		c-0.1,0.2,0,0.2,0.1,0.2l0.3,0.1c0.2,0.1,0.4,0.1,0.7,0.2h0.1c1.2,0.4,2.9,0.8,4.8,1c0.9,0.1,1.8,0.1,2.7,0.1
		c0.6,0,1.2-0.1,1.8-0.1c0.2,0,0.5-0.1,0.7-0.1c0.3,0.1,0.6,0.2,0.9,0.2c-3.8,0.6-7.4,0.7-11.4,0c-5.8-1-10.9-3.2-16.4-5.4
		c-0.2-0.1-0.4,0.2-0.2,0.3c4.4,3.9,11,5.5,16.7,6.6c2.8,0.5,6.1,0.9,9.1,0.5c-1.2,0.4-2.3,0.8-4,1.1c-1.8,0.2-3.4,0.1-4.5,0h-0.3
		c-0.9-0.1-0.9-0.2-0.9,0.1c0,0.2,0.1,0.2,0.1,0.2l0.3,0.1c0.2,0,0.4,0.1,0.7,0.1h0.1c1.2,0.2,2.8,0.4,4.7,0.2
		c0.8-0.1,1.7-0.3,2.5-0.5c0.5-0.2,1.1-0.4,1.6-0.6c0.2-0.1,0.3-0.2,0.5-0.3c-1.5,1.7-3.2,3-5.2,3.8c-0.1-0.1-0.2-0.1-0.3-0.1
		c-1.8,0.3-3.5,1-5.4,1.1c-1.8,0.1-3.7,0-5.5-0.4c-4.4-0.8-8.4-2.8-12.6-4.3c-0.2-0.1-0.5,0.2-0.3,0.4c0.5,0.4,1.1,0.8,1.7,1.1
		c-0.1,0-0.1,0.1,0,0.2c5.3,3.2,11.1,5.9,17.3,6.5c-0.1,0.1-0.1,0.2-0.2,0.2c-2-0.2-3.8-0.3-6.4-0.8s-4.8-1.4-6.4-1.9L97.8,74
		c-1.3-0.5-1.2-0.5-1.3-0.3c-0.1,0.2,0.1,0.2,0.1,0.3l0.4,0.2c0.3,0.1,0.6,0.3,0.9,0.4l0.1,0.1c1.6,0.7,3.8,1.6,6.4,2.1
		c1.2,0.3,2.4,0.4,3.6,0.6c0.8,0.1,1.6,0.1,2.4,0.2l0,0c-0.2,0.3-0.4,0.6-0.7,0.9c-4.2,0.5-8,1-12.2-0.1c-0.4-0.1-0.5,0.5-0.1,0.6
		c3.6,0.9,7.7,1.4,11.4,0.5c-0.4,0.5-0.8,1-1.3,1.4c-6.7,0.6-13.3,2.3-24.3-2.4c-0.4-0.2-0.7,0.4-0.3,0.6c6.7,3.2,15.7,5.1,23.2,3.2
		c-0.8,0.7-1.7,1.5-2.6,2.2c-11.6,2.1-23.3-2.9-34-4.3c-0.2,0-0.4,0.3-0.1,0.4c6.2,2.9,13.7,4,20.5,5.1c1.3,0.4,2.7,0.7,4,1.1
		c1.9,0.5,4.5,1.5,6.6,1.2c-0.6,0.2-1.1,0.5-1.7,0.7c-2.4,0.1-4.3,0.2-7.4,0c-2.7-0.2-5.1-0.7-6.8-1l-0.4-0.1
		c-1.4-0.3-1.3-0.3-1.4-0.1c0,0.2,0.1,0.2,0.2,0.3l0.4,0.1c0.3,0.1,0.6,0.2,1,0.3h0.1c1.7,0.5,4.2,1,6.9,1.2
		c1.3,0.1,2.5,0.1,3.8,0.1c0.6,0,1.2-0.1,1.8-0.1c-7.9,2.8-24.1,0.5-32.3-1.1c-0.1,0-0.2,0.2,0,0.2c15.2,4.6,23.6,3.1,27.5,3.9
		c-7.5,1-8,1-16.2,0.1h-0.5c-1.5-0.2-1.5-0.3-1.5,0c0,0.2,0.1,0.2,0.2,0.2l0.5,0.1l1.1,0.2h0.1c1.3,0.2,2.9,0.5,4.7,0.6
		c-21,1.9-24.9-0.9-17.5,3.7c-1.4,0.9-2.9,1.4-4.7,1.2c-0.7-0.1-0.8,0.8-0.2,1c4.4,1.2,8.9,1.7,13.4,1.6c-4.6,3.2-9.9,5.1-15.6,5.7
		c-0.5,0-0.7,0.7-0.3,1l1.6,1.2c-11.1,3.9-13.8,2.9-14.1,3.7c0,0,0-0.1-0.1-0.1c-0.1-0.1-0.2-0.1-0.2-0.1c-0.1,0-0.1,0.1-0.2,0.1
		c-0.1,0.1-0.3,0.2-0.4,0.3c0,0,0,0-0.1,0c-0.7,0.5-1.7,1.2-2.8,2c-0.5,0.4-1,0.8-1.4,1.2c-0.3,0.3-0.6,0.5-0.9,0.8
		c-0.2,0.1-0.3,0.3-0.4,0.4c-0.3,0-0.5,0-0.7,0.1c0.8-0.8,1.7-1.6,2.8-2.7c1.5-1.3,2.8-2.5,3.7-3.4c0.1-0.1,0.1-0.2,0.2-0.2
		c0.7-0.7,0.7-0.7,0.6-0.9c-0.1-0.1-0.2-0.1-0.3,0s-0.2,0.1-0.2,0.2c-0.2,0.2-0.4,0.3-0.6,0.5c0,0,0,0-0.1,0.1c-1,0.8-2.4,2-3.8,3.3
		c-0.7,0.6-1.3,1.3-2,1.9c-0.4,0.4-0.9,0.8-1.3,1.3c-0.1,0.1-0.2,0.3-0.4,0.4c-0.4,0.2-0.7,0.4-1,0.6c-0.2,0.2,0,0.6,0.2,0.7
		c1.3,0.4,2.3,0.9,3.1,1.7c-4.3-0.9-8.8-0.3-12.7,1.9c0.7-1,1.4-2,2.1-3c0.2,0,0.5-0.1,0.8-0.1c-0.2,0.2-0.8,1-1.1,1.3
		c0.3,0,0.3,0,0.5,0v0.1c0,0,0,0,0.1-0.1c0.1,0,0.1-0.1,0.1-0.1c0.7-0.7,0.6-0.5,1.4-1.3c0.2,0,0.6-0.1,1.4-0.4
		c-1.9,1.8-1.9,1.9-2.1,2.1c0.3,0,0.3,0,0.5,0v0.1c0.6-0.5,6.1-5.3,10.4-9.1c0.2,0,0.4-0.1,0.5-0.1s0.2,0,0.4-0.1
		c0.1-0.1,0-0.3-0.1-0.4c-0.1,0-0.1,0-0.2,0c0.4-0.4,0.8-0.7,1.1-1l0.3-0.3c1.1-1,1.1-0.9,0.9-1.2c-0.1-0.1-0.2,0-0.3,0l-0.3,0.3
		l-0.8,0.7l-0.1,0.1c-0.5,0.4-1.1,0.9-1.7,1.4c-0.7,0-1.4,0.1-2.3,0.2c1.4-1.4,1.4-1.5,2-2.1c0.1,0,0.2,0,0.3,0
		c0.3,0,0.6-0.1,0.9-0.1c0.2,0,0.3-0.1,0.5-0.1c0.1,0,0.2,0,0.3-0.1s0-0.3,0-0.4c-0.1,0-0.3,0-0.4,0c-0.3,0-0.6,0-1,0
		c0,0,0-0.1-0.1-0.1c-0.1-0.1-0.2,0-0.3,0l-0.1,0.1c-0.9,0.1-1.1,0.1-2,0.1c0.3-0.3,0.6-0.7,0.9-1c7.3,0.5,17.1-1.2,22.8-3.7
		l0.6-0.3c2.1-0.9,2.1-0.9,2-1.1s-0.3-0.1-0.5,0l-0.6,0.3c-0.5,0.2-1,0.4-1.5,0.6l-0.2,0.1c-6.1,2.2-13,3.5-20,3.6
		c0.1-0.1,2.8-2.4,2.9-2.5c0.5,0,1,0,1.4-0.1c0.4,0,0.9-0.1,1.3-0.1c0.3,0,0.5-0.1,0.8-0.1c0.1,0,0.3,0,0.4-0.1c0.1-0.1,0-0.3,0-0.4
		c-0.2,0-0.4,0-0.6,0c-0.9,0-1.7,0-2.7,0.1c-0.2-0.4-0.3-0.2-0.6,0c-0.7,0-1.1,0-1.9,0.1c0.7-0.7,1.3-1.4,1.9-2.1
		c3.7-0.4,2.8-1,2.5-1c0.7-0.6,14-13.5,14.1-13.5c0.2,0,0.5,0,0.7-0.1c0.3,0,0.7,0,1-0.1c0.2,0,0.4,0,0.5-0.1s0.1-0.3,0-0.4
		c-0.1,0-0.2,0-0.2,0c0-0.3-0.1-0.2-1.2-0.1c0.1-0.1,0.2-0.2,0.3-0.3c1.3-1.3,1.3-1.3,1.1-1.5c-0.1-0.1-0.3,0-0.4,0.1
		c-0.1,0.1-0.3,0.3-0.4,0.4c-0.3,0.3-0.7,0.6-1,0.9l-0.1,0.1c-0.1,0.1-0.3,0.3-0.4,0.4c0,0-1.2,0.1-3.3,0.4c0.6-0.7,1.3-1.4,1.9-2.1
		c0.5-0.1,1.1-0.3,1.7-0.4c0.8-0.2,1.5-0.3,2.3-0.4c0.5-0.1,1-0.1,1.5-0.2c0.3,0,0.6-0.1,0.9-0.1c0.2,0,0.3,0,0.5-0.1
		c0.1-0.1,0.1-0.3,0-0.4c-0.2,0-0.4,0-0.6-0.1c0.1-0.1,0.2-0.2,0.3-0.3c1.4-1.2,2.4-2.3,4.1-4c1.5-1.5,3-2.7,3.9-3.8
		c0.1-0.1,0.1-0.2,0.2-0.2c0.7-0.8,0.8-0.7,0.6-0.9c-0.1-0.1-0.2-0.1-0.3,0c-0.1,0.1-0.2,0.1-0.2,0.2c-0.2,0.2-0.4,0.3-0.6,0.5
		c0,0,0,0-0.1,0.1c-1.1,0.9-2.5,2.2-4,3.7c-0.7,0.7-1.4,1.4-2.1,2.1c-0.5,0.5-0.9,0.9-1.4,1.4c-0.3,0.3-0.5,0.6-0.8,0.9
		c-0.1,0.1-0.2,0.3-0.3,0.4c-1.6,0-3.3,0.3-4.8,0.6c0.7-0.8,1.4-1.6,2-2.3c0.3,0,0.6-0.1,0.9-0.1c0.5-0.1,1.1-0.2,1.6-0.3
		c0.4-0.1,0.7-0.1,1.1-0.2c0.2,0,0.4-0.1,0.6-0.2c0.1,0,0.2,0,0.3-0.2c0.1-0.1,0-0.3-0.1-0.3c-0.2,0-0.3,0-0.5,0
		c-1,0-1.9,0.3-3.2,0.4h-0.1c0.6-0.6,1.6-1.8,2.1-2.4c0,0,0,0,0.1,0c0.3-0.1,0.6-0.1,0.9-0.2c0.2,0,0.4-0.1,0.6-0.2
		c0.1,0,0.2-0.1,0.3-0.1c0.1,0,0.1,0,0.2-0.1c0-0.1,0-0.3-0.1-0.3s-0.2,0-0.3,0c-0.3,0-0.6,0.1-0.9,0.1c0.5-0.6,0.9-1.1,1.2-1.4
		c0.1,0,0.2,0,0.3,0c0.3,0,0.6-0.1,0.9-0.1c0.2,0,0.4-0.1,0.6-0.1c0.1,0,0.2-0.1,0.3-0.1c0.1,0,0.1,0,0.2-0.1c0-0.1,0-0.3-0.1-0.4
		c-0.1,0-0.2,0-0.3,0c-0.5,0-0.8,0.1-1.4,0.2c0-0.1-0.1-0.4-0.5,0.1c-0.2,0-0.4,0-0.6,0.1c0.5-0.5,1-0.9,1.5-1.4l0,0l0,0
		c0.7,0,1.6-0.1,2.5-0.2c0.5-0.1,0.9-0.2,1.4-0.2c0.3-0.1,0.6-0.1,0.9-0.2c0.2,0,0.4-0.1,0.5-0.2c0.1,0,0.2,0,0.3-0.2
		c0.1-0.1,0-0.3-0.1-0.3s-0.3,0-0.4,0c-0.9,0-1.6,0.2-2.7,0.4c-0.7,0.1-1.3,0.2-1.8,0.2c1-0.9,1.9-1.7,2.9-2.6c0.5,0,1-0.1,1.6-0.1
		c-0.1,0.1-0.1,0.1-0.2,0.2c-0.2,0.2,0.1,0.3,0.3,0.2c0.3-0.2,0.5-0.3,0.7-0.5c0.1,0,0.1,0,0.2,0c0.5-0.1,1.1-0.2,1.6-0.2
		c0.3-0.1,0.7-0.1,1-0.2c0.2,0,0.4-0.1,0.6-0.2c0.1,0,0.2,0,0.3-0.2c0.1-0.1,0-0.3-0.1-0.3c-0.2,0-0.3,0-0.5,0c-0.7,0-1.3,0.1-2,0.3
		c0.9-0.7,1.8-1.3,2.7-2.1c0.2,0,0.4-0.1,0.6-0.1c0.3-0.1,0.7-0.1,1-0.2c0.2,0,0.4-0.1,0.6-0.2c0.1,0,0.2,0,0.3-0.2
		c0.1-0.1,0-0.3-0.1-0.3c-0.2,0-0.3,0-0.5,0c-0.3,0-0.5,0-0.8,0.1c0.5-0.4,0.9-0.8,1.5-1.2c0.2,0,0.4,0.1,0.6,0.1
		c0.4,0.1,0.8,0.1,1.3,0.2c0.3,0,0.6,0.1,0.8,0.1c0.2,0,0.3,0,0.5,0c0.1,0,0.2,0,0.3-0.1c0.1-0.1,0.1-0.3,0-0.4s-0.2-0.1-0.4-0.1
		c-0.8-0.2-1.4-0.2-2.5-0.4l0,0c0.3-0.2,0.6-0.5,0.9-0.7c0.2-0.1,0.4-0.3,0.6-0.4c0.3,0.1,0.7,0.2,1.1,0.2c0.3,0,0.6,0.1,0.9,0.1
		c0.2,0,0.4,0,0.6,0c0.1,0,0.2,0,0.3,0c0.1,0,0.1,0,0.2-0.1s0.1-0.3,0-0.4c0.7-0.6,0.6-0.6,0.5-0.6c-0.5-0.2-1-0.1-1.7-0.2
		c-0.2,0-0.3-0.1-0.5-0.1c0.9-0.7,1.7-1.3,2.5-1.9c0.4,0.1,0.8,0.1,1.3,0.2c0.6,0.1,1.1,0.1,1.7,0.2c0.4,0,0.7,0.1,1.1,0.1
		c0.2,0,0.4,0,0.7,0c0.1,0,0.2,0,0.4-0.1c0.1-0.1,0.1-0.3,0-0.4c-0.2-0.1-0.3-0.1-0.5-0.1c-1-0.2-1.9-0.2-3.3-0.3
		c-0.2,0-0.4,0-0.6-0.1c0.6-0.4,1.1-0.9,1.6-1.3c0.6,0.1,1.2,0.2,1.9,0.3c0.6,0.1,1.3,0.1,1.9,0.2c0.4,0,0.8,0.1,1.3,0.1
		c0.2,0,0.5,0,0.7,0c0.1,0,0.3,0,0.4-0.1s0.1-0.3,0-0.4C92.4,60,92.2,60,92,60c-1.1-0.2-2.1-0.3-3.7-0.4c-0.4-0.1-0.8-0.1-1.2-0.2
		c0.1-0.1,0.3-0.2,0.4-0.3s0.3-0.2,0.4-0.4c1.4-1.2,1.4-1.1,1.3-1.3c-0.1-0.1-0.3,0-0.4,0c-0.1,0.1-0.3,0.2-0.4,0.3
		c-0.4,0.3-0.7,0.5-1.1,0.8l-0.1,0.1c-0.3,0.2-0.5,0.4-0.8,0.6c-0.5-0.1-1-0.1-1.4-0.1c-0.1,0-0.1,0-0.2,0h-0.1
		c1-0.7,1.9-1.4,2.9-2.1c0.1,0,0.2,0,0.3-0.1c0.1,0,0.1-0.1,0.2-0.2l0.1-0.1c0.6-0.1,1.4-0.1,2.3-0.2c0.5,0,1.1,0,1.6,0
		c0.3,0,0.6,0,0.9,0c0.2,0,0.4,0,0.6,0c0.1,0,0.2,0,0.3-0.1c0.1-0.1,0.1-0.3,0-0.4c-0.1-0.1-0.3-0.1-0.5-0.1c-0.9-0.2-1.7-0.2-3-0.1
		c-0.5,0-0.9,0.1-1.3,0.1c1.1-0.8,2.3-1.6,3.5-2.4c0.7,0.1,1.4,0.2,2.2,0.3c0.6,0.1,1.2,0.1,1.8,0.1c0.4,0,0.8,0,1.2,0.1
		c0.2,0,0.5,0,0.7,0c0.1,0,0.3,0,0.4-0.1s0.1-0.3,0-0.4c-0.2-0.1-0.4-0.1-0.5-0.1c-1.1-0.2-2.1-0.2-3.6-0.3c-0.5,0-1-0.1-1.5-0.2
		c0.8-0.5,1.5-1.1,2.3-1.6c0.5,0.1,1,0.1,1.6,0.1c0.4,0,0.8,0,1.2,0c0.3,0,0.5,0,0.8-0.1c0.2,0,0.3,0,0.5-0.1c0.1,0,0.2,0,0.3-0.1
		c0.1-0.1,0-0.3,0-0.4c-0.1-0.1-0.2,0-0.4,0c-0.7-0.1-1.3,0-2.3,0c-0.3,0-0.5,0-0.7,0c0.9-0.6,1.7-1.2,2.6-1.7
		c1.2-0.8,2.3-1.5,3.5-2.2l0,0c0.1,0,0.3,0.1,0.4,0.1c0,0,0,0,0.1,0c0.4,0.1,0.9,0.3,1.5,0.4c-1,0.8-1,0.7-0.9,0.9s0.2,0.1,0.3,0
		c0.1-0.1,0.2-0.1,0.3-0.2c0.3-0.2,0.5-0.3,0.8-0.5c0,0,0.1,0,0.1-0.1l0,0c0.3,0.1,0.6,0.1,1,0.2c0.6,0.1,1.1,0.2,1.7,0.3
		c0.4,0.1,0.8,0.1,1.1,0.2c0.2,0,0.5,0,0.7,0.1c0.1,0,0.3,0,0.4,0c0.1-0.1,0.1-0.3,0-0.4c-0.2-0.1-0.3-0.1-0.5-0.1
		c-1-0.3-1.9-0.4-3.3-0.7c-0.1,0-0.2,0-0.3-0.1c0.6-0.4,1.4-0.9,2.1-1.4c0.7,0.2,1.5,0.3,2.3,0.5s1.6,0.3,2.4,0.4
		c0.5,0.1,1.1,0.2,1.6,0.3c0.3,0,0.6,0.1,1,0.1c0.2,0,0.4,0.1,0.5,0c0.2-0.1,0.1-0.3,0-0.4c-0.2-0.1-0.5-0.1-0.7-0.2
		c-1.5-0.4-2.7-0.5-4.7-0.9c-0.6-0.1-1.1-0.2-1.6-0.3c0.5-0.3,0.9-0.6,1.4-1c1.5,0.3,3.2,0.7,5.2,1c1.2,0.2,2.3,0.4,3.5,0.6
		c0.8,0.1,1.5,0.2,2.3,0.3c0.5,0.1,0.9,0.1,1.4,0.2c0.2,0,0.5,0.1,0.8,0c0.2-0.1,0.2-0.3,0-0.4c-0.3-0.1-0.7-0.2-1-0.2
		c-2.1-0.5-3.9-0.7-6.8-1.2c-1.7-0.3-3.2-0.6-4.6-0.8c0.7-0.5,1.4-1,2.1-1.5c0.8,0.2,1.8,0.4,2.9,0.6c0.7,0.1,1.4,0.2,2.2,0.3
		c0.5,0.1,1,0.1,1.4,0.2c0.3,0,0.6,0.1,0.9,0.1c0.1,0,0.3,0,0.5,0c0.1-0.1,0.1-0.3,0-0.4c-0.2-0.1-0.4-0.1-0.6-0.2
		c-1.3-0.3-2.4-0.4-4.2-0.7c-0.8-0.1-1.6-0.3-2.3-0.4c0.5-0.3,0.9-0.7,1.4-1c0.4-0.3,0.9-0.7,1.3-1c0.4,0.1,0.8,0.3,1.3,0.4
		c0.4,0.1,0.8,0.2,1.3,0.3c0.3,0.1,0.6,0.1,0.8,0.2c0.2,0,0.3,0.1,0.5,0.1c0.1,0,0.2,0.1,0.3,0c0.1-0.1,0.1-0.3,0.1-0.3
		c-0.1-0.1-0.2-0.1-0.4-0.2c-0.7-0.3-1.4-0.4-2.4-0.7c-0.8-0.2-1.4-0.5-2-0.6c8.9-4.9,15.2-8,25.3-12.3c0.5,0.3,0.1,0.1,1.6,1
		l0.2,0.1c2.4,1.4,6,3,10.3,3.8c2,0.4,4,0.6,6,0.7c1.6,0.1,3.3,0,4.9-0.2c0.5-0.1,1-0.1,1.5-0.2c0.4-0.1,0.8-0.1,1.2-0.3
		c0.1,0,0.1-0.1,0.1-0.1c-0.9,1.9-2,3.6-3.5,5.2c-0.4,0-0.9-0.1-1.5-0.1c-1.1-0.1-2.1-0.3-2.8-0.3c-0.1,0-0.1,0-0.2,0
		c-0.6,0-0.5-0.1-0.6,0.2c0,0.2,0,0.2,0.1,0.2s0.1,0,0.2,0c0.1,0,0.3,0,0.4,0.1l0,0c0.7,0.1,1.7,0.3,2.8,0.4c0.1,0,0.2,0,0.3,0
		c-4.1,0.4-7.9,0.7-12.1-0.3c-0.4-0.1-0.5,0.5-0.1,0.6c3.8,0.9,8,1.5,11.9,0.7c-0.1,0.1-0.3,0.3-0.4,0.4c-0.1-0.1-0.3-0.1-0.5,0.1
		c-0.2,0.3-0.4,0.6-0.6,0.9l-0.1,0.1c-0.1-0.2-0.2-0.3-0.4-0.2c-3.4,0.5-6.7,1.1-10.2,1c-3.7-0.1-7.3-0.8-10.8-1.8
		c-0.3-0.1-0.5,0.5-0.2,0.6c6.4,2.2,14.1,3.1,20.7,1.2c-0.2,0.2-0.5,0.4-0.7,0.6c-1.8,0.6-3.6,1.2-5.6,1.4c-2.6,0.3-5.1,0.2-7.7-0.3
		c-0.4-0.1-0.5,0.5-0.1,0.6c3.1,0.7,6.7,0.9,10,0.4c-0.9,0.4-1.8,0.7-2.7,1c-1.5,0.5-3.1,0.9-5.2,1.2c-3.6,0.5-7,0.1-9.3-0.3
		l-0.6-0.1c-1.8-0.4-1.8-0.5-1.9-0.2c-0.1,0.2,0.1,0.2,0.3,0.3l0.6,0.2c0.4,0.1,0.9,0.2,1.3,0.3h0.2c2.4,0.6,5.8,0.9,9.5,0.5
		c1.7-0.2,3.4-0.6,5.1-1.1c1.1-0.3,2.2-0.8,3.2-1.3c0.6-0.3,1.2-0.6,1.8-1c0.1-0.1,0.2-0.1,0.3-0.2c0.2-0.1,0.4-0.1,0.6-0.2
		c-0.5,0.6-1,1.1-1.6,1.6c-2.1,1.7-4.6,2.6-7.2,3.1c-2.2,0.4-4.5,0.4-6.7,0.3c-2.7-0.1-5.7,0-8.3-0.9c-0.3-0.1-0.4,0.3-0.2,0.4
		c2,1.1,4.4,1.3,6.7,1.5c3.2,0.9,6.6,1.2,9.9,1.2v0.1c-0.7,0.4-1.4,0.9-2.2,1.2c-1.3,0.5-2.7,0.7-4,0.8c-3,0.2-6.1,0.1-9.1-0.1
		c-5.9-0.4-11.8-1.5-17.6-2.9c-0.3-0.1-0.5,0.4-0.2,0.6c1,0.4,1.9,0.7,2.9,1c0,0.1,0.1,0.2,0.2,0.2c8.1,3,16.6,4.5,25.2,4.7
		c-0.1,0.1-0.2,0.2-0.3,0.3c-0.1-0.1-0.2-0.1-0.4,0c-0.1,0.1-0.2,0.1-0.2,0.2h-0.1c-0.4,0-0.9,0.1-1.3,0.2c-2.7,0.2-4.9,0.5-8.6,0.3
		c-3.2-0.2-5.9-0.9-7.9-1.4l-0.5-0.1c-1.6-0.4-1.5-0.5-1.6-0.2c-0.1,0.2,0.1,0.2,0.2,0.3l0.5,0.2l1.1,0.4h0.1c2,0.7,4.8,1.3,8,1.6
		c1.5,0.1,3,0.1,4.5,0.1c1,0,2-0.1,2.9-0.3c0.6-0.1,1.1-0.2,1.7-0.3c-3.2,1.6-7.6,0.9-11,0.7c-4.1-0.3-8.2-0.9-12.2-1.7
		c-0.3-0.1-0.4,0.4-0.1,0.5c5.1,1.3,10.4,2,15.7,2.3c1.6,0.1,3.8,0.3,5.7,0.1c-0.2,0.1-0.4,0.2-0.6,0.3c-1.3,0.3-2.6,0.5-4.4,0.7
		c-2.1,0.2-4,0-5.4,0h-0.3c-1.1,0-1.1-0.1-1.1,0.1c0,0.2,0.1,0.2,0.2,0.2l0.3,0.1c0.3,0,0.5,0.1,0.8,0.1h0.1
		c1.4,0.2,3.3,0.3,5.5,0.2c0.6,0,1.3-0.1,1.9-0.2c-1.4,0.6-3,0.9-4.6,1.1c-3.8,0.4-7.7,0.1-11.5-0.4c-4-0.4-8-1.1-12-1.9
		c-4.1-0.9-8.1-2.1-12.2-2.9c-0.1,0-0.2,0.2-0.1,0.2c8,4.1,17.8,5.5,26.7,6.3c6.2,0.6,15.1,1.2,19.4-4.4c0.9-0.8,1.8-1.6,2.8-2.4
		c0.3-0.3,0.1-0.9-0.3-0.9c-4.7-0.1-9.3-0.6-13.9-1.4c1.5,0.2,2.9,0.3,4.4,0.4c3.7,0.2,12.2,1.2,14.3-3.1c0.2-0.3-0.1-0.7-0.4-0.8
		l0,0c0.1-0.3-0.1-0.6-0.4-0.6c-1.3,0-2.6-0.1-3.9-0.2c1.1-0.1,2.2-0.2,3.3-0.4c3.9-0.9,8.9-3.5,10.4-7.6c1.3-0.8,2.4-1.8,3.4-2.9
		c0.1,0,0.1,0,0.2,0c0.1,0,0.2,0,0.3-0.1C165.6,37,165.6,36.7,165.5,36.7z M43.4,112.5c-0.3,1.8,6.9-1.7,13.5,6.1
		c-4.1-2.5-8.6-3.6-13.5-3.5c-0.5,0-0.5,0.8,0,0.9c1.7,0.3,3.2,0.9,4.4,1.9c-0.9-0.2-9.8-0.8-10-0.8C38.5,116.6,43,113,43.4,112.5z
		 M41.3,71.8c-0.2-2.6-0.2-5.3-0.2-8c0-1.9,0.1-3.5,1.1-5.2c0.6-1,1.6-1.7,2.6-2.4c-1.4,4.6-1.3,10.2-0.6,14.8
		c0.1,0.4,0.6,0.3,0.6,0c-0.3-2.9-0.3-5.7-0.1-8.6c0.2-2.4,0.9-4.7,1.3-7c0.3-0.2,0.5-0.4,0.8-0.6c-0.2,1-0.3,2.1-0.4,3.6
		c-0.1,1.8,0,3.4,0.3,4.6l0.1,0.3c0.2,0.9,0.2,0.9,0.4,0.8c0.2,0,0.2-0.1,0.2-0.2v-0.3c0-0.2-0.1-0.4-0.1-0.6v-0.1
		c-0.1-1.1-0.2-2.7-0.1-4.4c0-0.8,0.1-1.6,0.2-2.4c0.1-0.5,0.1-1.1,0.2-1.6c0-0.1,0-0.1,0-0.2c0.2-0.1,0.3-0.3,0.5-0.4
		c-1,3.2-0.4,7,0.5,10.1c0.1,0.4,0.6,0.2,0.6-0.2c-1-3.8-0.4-6.9,0-10.6c1.7-1.3,3.3-2.6,4.9-3.9c-0.1,0.5-0.2,1-0.4,1.7
		c-0.2,0.9-0.5,1.6-0.6,2.2v0.1c-0.1,0.5-0.1,0.4,0.1,0.5c0.2,0,0.2,0,0.2,0v-0.1c0-0.1,0.1-0.2,0.1-0.3l0,0
		c0.2-0.6,0.5-1.3,0.7-2.2c0.1-0.4,0.2-0.8,0.3-1.2c0.1-0.3,0.1-0.5,0.2-0.8c0-0.1,0-0.3,0-0.4c0.8-0.7,1.7-1.4,2.5-2.2
		c1.2-1.1,2.5-2.4,3.7-3.6c-0.1,0.6,0,1.2-0.1,2.1c-0.1,1-0.2,1.8-0.2,2.4c0,0.1,0,0.1,0,0.2c0,0.5,0,0.5,0.2,0.5s0.2,0,0.2-0.1V48
		c0-0.1,0-0.2,0.1-0.3l0,0c0.1-0.6,0.3-1.5,0.3-2.4c0-0.2,0-0.4,0-0.5c0.2,1.3,0.6,2.6,1.1,3.8c0.1,0.3,0.7,0.2,0.5-0.2
		c-0.8-2.4-0.8-4.7-0.6-7.1c0.8-1,1.6-2,2.3-3.1c-1.2,5.7-1.1,12-0.7,17.6c0,0.4,0.6,0.4,0.6-0.1c-0.1-3.5,0-7.1,0.4-10.6
		c0.1-0.8,0.2-1.5,0.3-2.3c0.1,2,0.1,3.9,0.3,5.2c0,0.1,0,0.2,0,0.3c0.1,1,0,1,0.3,1c0.2,0,0.2-0.1,0.2-0.2c0-0.1,0-0.2,0-0.3
		c0-0.3,0-0.5,0-0.8v-0.1c0-1.4,0-3.2-0.1-5.3c-0.1-1-0.1-1.9-0.2-2.9c0-0.1,0-0.2,0-0.2c0.1-0.6,0.2-1.2,0.3-1.7
		c0,4.3,1.4,8.8,1.6,13c0.3,6.8-2,12.4-5.1,18.3c-0.1,0.2-0.1,0.4,0.1,0.6c-0.4,0.4-0.8,0.8-1.3,1.1c0.2-0.8,0.4-1.6,0.6-2.5
		c1.1-1.2,1.1-1.2,1-1.3c-0.1-0.1-0.3,0-0.4,0.1c-0.1,0.1-0.3,0.2-0.4,0.4c0-0.2,0.1-0.4,0.1-0.6c0.3-1.5,0.7-2.8,0.9-3.8
		c0-0.1,0-0.2,0-0.2c0.1-0.8,0.2-0.8-0.1-0.8c-0.2,0-0.2,0-0.2,0.1s0,0.2-0.1,0.2c-0.1,0.2-0.1,0.4-0.2,0.5c0,0,0,0,0,0.1
		c-0.3,1-0.7,2.3-1,3.8c-0.1,0.5-0.2,1.1-0.3,1.6c-0.1,0.1-0.2,0.2-0.3,0.3l-0.1,0.1c-0.4,0.4-0.7,0.7-1.1,1.1
		c0.1-0.8,0.3-1.5,0.3-2v-0.1c0-0.5,0.1-0.5-0.2-0.5c-0.2,0-0.2,0-0.2,0.1v0.1c0,0.1-0.1,0.2-0.1,0.3l0,0c-0.2,0.6-0.4,1.4-0.5,2.3
		c0,0.2-0.1,0.4-0.1,0.6c-0.5,0.5-1,1-1.5,1.5c0.1-0.7,0.2-1.3,0.3-2.1c0.9-0.7,0.9-0.7,0.7-0.9c-0.1-0.1-0.3,0-0.4,0l-0.3,0.2
		c0.1-0.7,0.2-1.4,0.3-2.1c0.4-3.4,0.5-6.4,0.3-8.6v-0.5c-0.2-1.7-0.1-1.7-0.3-1.7s-0.2,0.2-0.2,0.3v0.5c0,0.4,0,0.8,0,1.2v0.2
		c0,2.2-0.1,5.2-0.5,8.5c-0.1,0.9-0.2,1.9-0.4,2.8l-0.3,0l-0.1,0.1c-0.4,0.3-0.8,0.6-1.3,1c0-0.4,0.1-0.9,0.1-1.2c0-0.1,0-0.1,0-0.2
		c0-0.7,0.1-0.7-0.2-0.7C55,69,55,69,55,69.1s0,0.1,0,0.2c0,0.2,0,0.3-0.1,0.5c0,0,0,0,0,0.1c-0.1,0.5-0.2,1.2-0.3,1.9
		c-1.3,1.1-2.7,2.3-4.2,3.7v-0.1c-0.1-0.5,0-0.5-0.3-0.5c-0.2,0-0.2,0.1-0.2,0.1v0.1c0,0.1,0,0.2,0,0.3l0,0c0,0.1,0,0.3,0,0.5
		c-0.4,0.4-0.9,0.9-1.3,1.3c-0.1-1-0.2-1.9-0.4-2.6l-0.1-0.2c-0.2-0.7-0.1-0.7-0.4-0.7c-0.2,0-0.2,0.1-0.2,0.2v0.2
		c0,0.2,0,0.3,0.1,0.5v0.1c0.1,0.8,0.2,2,0.3,3.2c-1.4,1.4-0.7,0.8-1.7,1.9c-0.1-1.2-0.2-2.2-0.4-3c0-0.1,0-0.2-0.1-0.2
		c-0.2-0.8-0.1-0.8-0.4-0.7c-0.2,0-0.2,0.1-0.2,0.2s0,0.2,0,0.2c0,0.2,0,0.4,0,0.6c0,0,0,0,0,0.1c0.1,1,0.1,2.2,0.3,3.7
		c-0.2,0.2-0.3,0.3-0.5,0.5c-0.4,0.5-0.7,0.9-1.1,1.4c-0.2,0.2-0.4,0.5-0.5,0.8c-0.1,0.2,0.2,0.3,0.3,0.2c0.3-0.3,0.6-0.7,0.9-1
		c0.3-0.4,0.7-0.7,1-1.1c0.2,1.3,0.2,1.4,0.4,2.4c-1.4,1.5-1.6,1.8-1.7,2c-0.5-0.6-1-1.2-1.4-1.8C42.4,79.9,41.6,75.9,41.3,71.8z
		 M59.5,70.7c0.6-0.6,1.1-1.1,1.5-1.6c-0.1,0.3-0.1,0.6-0.2,1c0,0.3-0.1,0.6-0.1,0.8c0,0.1,0,0.2,0,0.3c-0.5,0.5-1,1-1.6,1.4
		C59.3,72,59.3,72.5,59.5,70.7z M58.9,72.8c-0.7,0.7-1.5,1.4-2.2,2.1c0.2-0.6,0.3-1.2,0.4-1.8c0.5-0.6,1.1-1.1,1.6-1.6
		c0,0.2,0,0.3,0,0.5C58.6,72.5,58.6,72.8,58.9,72.8z M54.3,75c-0.4,0.4-0.7,0.8-1.1,1.1c0-1,0-1.4-0.1-2c0-0.2,0-0.2,0-0.3
		c0.5-0.4,0.9-0.8,1.4-1.2c0,0.2,0,0.4-0.1,0.6C54.4,73.8,54.4,74.4,54.3,75z M55.2,72c0.6-0.5,1.2-1,1.6-1.4
		c-0.1,0.4-0.1,0.7-0.2,1.1c-0.1,0.4-0.2,0.8-0.2,1.2c-0.5,0.5-0.9,1-1.4,1.5c0-0.3,0-0.6,0.1-1C55.2,72.8,55.2,72.4,55.2,72z
		 M52.6,76.9c-0.6,0.7-1.3,1.3-1.9,2c-0.1-1.4-0.1-1.5-0.1-2.6c0.5-0.5,1.1-1.1,2.2-2.1l0,0l0,0C52.6,75.2,52.5,76.1,52.6,76.9z
		 M50,79.6c-0.4,0.4,0.2-0.2-1.1,1.1c-0.1-0.7-0.1-1.4-0.3-2.5c0.4-0.4,0.8-0.8,1.2-1.2C49.8,77.7,49.9,78.4,50,79.6z M48.3,81.4
		c-0.5,0.6-1.2,1.3-1.6,1.7c-0.1-0.7-0.2-1.4-0.4-2.4c0.5-0.6,1.1-1.2,1.7-1.9C48.2,79.8,48.2,80.2,48.3,81.4z M46.3,84.4
		c0,0.1,0.1,0.7,0.2,0.9c-0.4,0.5-0.9,0.9-1.3,1.4c-0.2-0.2-0.4-0.5-0.6-0.7C44.9,85.9,45.1,85.6,46.3,84.4z M49,81.7
		c0.4-0.4,0.8-0.8,1.2-1.2c0,0.1,0,0.1,0,0.2s0,0.2,0.1,0.3c0.1,0.1,0.3,0,0.4,0c0-0.1,0-0.3,0-0.4c0-0.2,0-0.4,0-0.6
		c0.6-0.6,1.2-1.3,1.9-2c0,0.4,0,0.3,0.1,1c-1.2,1.2-2.5,2.5-3.7,3.8C49,82.5,49,82,49,81.7z M53.2,77.2c0.2-0.2,0.9-0.9,1-1.1
		c0,1,0,0.8,0,1.2c-0.3,0.3-0.7,0.7-1,1C53.3,77.9,53.3,77.5,53.2,77.2z M55,75.3c0.4-0.4,0.8-0.9,1.3-1.3c0,0.2-0.3,1.3-0.3,1.6
		c-0.4,0.3-0.7,0.7-1.1,1C54.9,76.2,55,75.8,55,75.3z M34.8,97.5c0.8-0.9,1.6-1.8,3.1-3.4c-0.1,1.6,0.7,0-3.7,5.5
		c-0.1-0.3-0.1-0.7-0.2-1c0.2-0.2,0.4-0.5,0.6-0.7c0.1,0,0.2,0,0.3-0.1C34.8,97.7,34.8,97.6,34.8,97.5z M38.7,91.7
		c0.9-1.1,0.9-1.3,1.2-1.7c0,0.4,0,0,0.1,1c-0.4,0.4-0.8,0.8-1.3,1.3C38.7,92.1,38.7,91.9,38.7,91.7z M38.6,93.3
		c0.5-0.5,1-1,1.4-1.5c0.1,0.8,0.1,0.7,0.2,0.8c-0.6,0.6-1.2,1.2-1.7,1.7C38.5,94,38.6,93.7,38.6,93.3z M40.7,91.2
		c1.3-1.3,2.2-2.3,2.3-2.4c-0.2,1.2-1.3,2.4-2.2,3.3C40.7,91.8,40.7,91.5,40.7,91.2z M27.1,104c0.3,0,0.6-0.1,0.9-0.2
		s0.5-0.5,0.3-0.8c-0.2-0.2-2.4-3.2-2.3-3.3c0.4-0.6,3,1.2,3.4,1.5c0.3,0.2,0.6-0.1,0.7-0.4c1.2-4.1-1.6-7.2-4.6-9.5
		c1,0.1,1.9,0.2,2.9,0.3c0.5,0.1,0.9-0.6,0.4-0.9c-2.1-1.8-4.4-3.1-6.9-4.2c2,0.1,8.5,2.6,10.2,4.5c0.1,0.4,0.2,0.9,0.3,1.3
		s0.8,0.5,0.8,0c0.2-5.1-3.9-8.5-8-11c0.7,0.1,1.3,0.3,2,0.5c0.4,0.1,0.8-0.5,0.5-0.8c0.8-1,1.6-1.2,2.5-0.6
		c0.4,0.3,0.9,0.5,1.3,0.6c0.5,0.2,1.1-0.4,0.7-0.8c-1.4-1.6-2.9-3-4.6-4.1c2.7,0.7,5,2.3,6.7,4.7c0.4,0.5,1.2,0.1,1-0.5
		c-1.9-5-2.1-10.4-0.6-15.5c0.3-0.5,0.6-0.9,0.8-1.4c-0.5,1.8-0.6,3.7-1,5.4c-0.1,0.4,0.5,0.5,0.6,0.1c0.3-1.1,0.6-2.2,1-3.4
		c0.1,0.5,0.2,0.9,0.2,1.4c0.2,1.5,0.5,3,0.7,4.6c0.4,2.2,0.8,4.3,1.5,6.4c0.8,2.2,1.9,4.2,3,6.3c0.6,1.1,1.5,2.5,1.6,3.9
		c-1.1,1-1.3,1.2-2.4,2.2c-0.1-1-0.1-2.1-0.3-2.8c0-0.1,0-0.1,0-0.1c-0.1-0.5,0-0.5-0.3-0.5c-0.2,0-0.2,0.1-0.2,0.1
		c0,0.1,0,0.1,0,0.2s0,0.2,0,0.4l0,0c0,0.4,0,1,0,1.6c-1.3,1.6-1.1,1.3-1.2,1.4c0-0.4-0.1-0.9-0.1-1.4c-0.2-2-0.7-3.9-1.3-5.1
		L37.1,84c-0.5-0.9-0.4-0.9-0.6-0.8c-0.2,0.1-0.1,0.2-0.1,0.3l0.1,0.3c0.1,0.2,0.2,0.5,0.3,0.7v0.1c0.4,1.2,0.9,3,1.1,5
		C38,90.3,38,91,38,91.7c-0.8,1-1.7,2.2-3,4.1c0-1.1-0.2-2.3-0.5-3.8c-0.4-1.8-0.9-3.5-1.5-4.6L32.7,87c-0.5-0.8-0.4-0.9-0.7-0.7
		c-0.2,0.1-0.1,0.2-0.1,0.2l0.1,0.3c0.1,0.2,0.2,0.4,0.3,0.6v0.1c0.5,1.1,1,2.7,1.4,4.5c0.2,0.8,0.3,1.7,0.4,2.5
		c0.1,0.6,0.1,1.1,0.1,1.7c0,0.1,0,0.2,0,0.3c-0.5,0.8-0.5,0.8-0.6,1c0-0.1,0-0.2-0.1-0.3c-0.2-1-0.4-2-0.6-2.7c0-0.1,0-0.1-0.1-0.2
		c-0.2-0.5-0.1-0.5-0.4-0.5c-0.2,0-0.2,0.1-0.2,0.1c0,0.1,0,0.1,0,0.2s0,0.3,0.1,0.4c0,0,0,0,0,0.1c0.1,0.7,0.2,1.7,0.5,2.7
		c0.1,0.3,0.2,0.7,0.2,1c-0.4,0.5-0.8,1-1.3,1.5c-0.7,0.9-1.4,1.8-2.1,2.7c-0.4,0.5-0.8,1.1-1.2,1.6c-0.2,0.3-0.4,0.6-0.6,0.9
		c-0.1,0.3,0.2,0.3,0.3,0.1c0.3-0.4,0.6-0.8,1-1.2c1.3-1.6,2.5-3.2,4-4.9c0.2,0.6,0.2,0.5,0.3,1c-2,2.5-3.9,5-5.8,7.6
		C27.8,106.4,27.5,105.2,27.1,104z M28.2,118.6c-0.4,0.1-0.8,0.2-1.1,0.2c0.4-0.6,0.8-1.2,1.2-1.8c0.1,0,0.5,0,1.3,0
		C29.7,117,28.7,118.1,28.2,118.6z M28.9,116.4c0.4-0.4,0.8-0.9,1.2-1.3c0.4,0,0.9,0,1.4-0.1l-1.2,1.2
		C29.7,116.4,29.6,116.4,28.9,116.4z M36.4,107.7c-0.3,0.3-0.7,0.7-1.1,1.1c-0.6,0-0.7,0.1-1,0.1c0.3-0.4,0.6-0.8,1-1.3
		C35.7,107.6,36.1,107.7,36.4,107.7z M34.8,109.3c-0.7,0.7-1.5,1.5-2.3,2.3c-0.1,0,0,0-0.3,0c0.6-0.8,1.2-1.6,1.8-2.4
		C34.1,109.3,34.1,109.3,34.8,109.3z M33,112.1c0.4,0,1,0,1.5,0c-0.7,0.7-1.4,1.4-2.1,2.1c-0.7,0.1-1,0.1-1.6,0.2
		c0.3-0.3,0.5-0.6,0.8-0.9C32.1,113.1,32.5,112.6,33,112.1z M37.6,112c-2.1,1.7-4.5,3.9-6.7,5.9c-0.2,0-0.2,0-1.5,0.4
		c0.4-0.4,0.8-0.9,1.3-1.3h0.1c0.2,0,0.4-0.1,0.6-0.1c0.1,0,0.2-0.1,0.3-0.1c0.1,0,0.1,0,0.2-0.1c0-0.1,0-0.3-0.1-0.3s-0.2,0-0.3,0
		h-0.1c0.4-0.4,0.8-0.8,1.2-1.2c0.2,0,0.5-0.1,0.7-0.1c0.3,0,0.5-0.1,0.7-0.2c0.1,0,0.3-0.1,0.4-0.1c0.1,0,0.2,0,0.2-0.1
		c0.1-0.1,0-0.3-0.1-0.4c-0.1,0-0.2,0-0.3,0c-0.3,0-0.6,0-0.9,0.1c0.7-0.7,1.3-1.3,2-1.9C36.1,112.1,36.7,112.1,37.6,112z
		 M37.4,109.4c-0.2,0.2-1,0.9-2.2,2.1c-0.6,0-1.2,0-1.6,0.1c0.7-0.8,1.4-1.5,2.1-2.2C36.6,109.4,37,109.4,37.4,109.4z M41.6,104.7
		c-0.8,0.6-2.2,1.8-2.7,2.5c-0.5,0,0,0-1.2,0l0.2-0.2c0.3-0.1,0.9-0.8,2.2-2.2C40.5,104.7,41,104.7,41.6,104.7z M39.9,104
		c-1.3,0-1.4,0.1-1.9,0.1c0.7-0.9,1.4-1.7,2.1-2.6c0,0,0,0.1,0,0.2c0,0.2,0.1,0.2,0.1,0.2c1.1,0,1.3,0,1.5,0
		C40.5,103.3,41.4,102.3,39.9,104z M42.3,101.2c-0.1,0-1.6,0.1-2.2,0.3c0.6-0.8,1.3-1.5,1.9-2.3c0,0.1-0.2,0.3,2.1-0.2
		C43.5,99.8,42.9,100.5,42.3,101.2z M54,88c-0.7,0.8-1.5,1.6-2.2,2.5c-1.1,0.1-1.3,0.1-2,0.1c0.7-0.7,1.4-1.5,2.1-2.2
		C52.5,88.2,53.2,88.1,54,88z M52.6,87.5c0.5-0.5,1-1.1,1.5-1.6c0.1,0.1,0,0,2.3-0.7c-0.6,0.6-1.1,1.3-1.7,1.9
		c-0.6,0.1-1.1,0.2-1.6,0.3C53,87.5,52.8,87.5,52.6,87.5L52.6,87.5z M51.1,91.2c-1.2,1.3-2.3,2.6-3.5,3.9c-0.8,0.2-1.7,0.3-2.4,0.4
		c1.3-1.5,2.6-2.9,3.9-4.3C49.5,91.2,50.4,91.2,51.1,91.2z M46.9,95.9c-1.2,1.3-0.6,0.7-2,2.3c-1.7,0.4-1.2,0.2-2.6,0.7
		c0.8-0.9,1.6-1.9,2.4-2.8C45,96.1,45.9,96.1,46.9,95.9z M44.7,100.9c-0.5,0-0.9,0.1-1.4,0.2c0.7-0.7,1.3-1.5,2-2.3
		c0.4-0.1,0.5-0.1,1.7-0.5C46.9,98.4,44.7,100.7,44.7,100.9z M47.9,97.5c-0.5,0.1-0.5,0.1-1.7,0.4c0.6-0.7,1.2-1.4,1.9-2.1
		c0.7-0.1,1.3-0.3,2-0.4C49.7,95.6,48.3,97,47.9,97.5z M58.2,87.5c-3.7,3.4-5.6,5.2-7.5,7.1c-0.1,0-0.9,0.1-2,0.3
		c0.9-1,2.5-2.9,3.4-3.8c0.2,0,0.4,0,0.6-0.1c0.3,0,0.5-0.1,0.8-0.1c0.2,0,0.3-0.1,0.5-0.1c0.1,0,0.2,0,0.3-0.1s0-0.3,0-0.4
		c-0.1,0-0.3,0-0.4,0c-0.4,0-0.7,0-1.1,0c0.7-0.8,1.5-1.6,2.2-2.4C55.9,87.8,56.6,87.8,58.2,87.5z M57.3,84.4
		c-1.8,0.5-2.3,0.8-2.4,0.9c1.1-1.1,2.2-2.2,3.3-3.3c0.2,0,0.6,0,1.5-0.1C58.8,82.7,58,83.5,57.3,84.4z M60.2,81.2
		c-0.5,0.1-1,0.1-1.5,0.2c0.9-0.9,1.8-1.8,2.7-2.6c0.4,0,0.6,0,1,0C61.7,79.5,61,80.3,60.2,81.2z M64.6,76.4
		c-0.1,0.1-0.7,0.8-1.4,1.6c-0.4,0.1-0.7,0.1-1.1,0.1c0.6-0.6,1.2-1.1,1.8-1.7C64.1,76.4,64.3,76.4,64.6,76.4z M73.5,69.2
		c-0.4,0.3-0.8,0.7-1.2,1c-0.6,0.1-1.2,0.1-1.7,0.2c0.8-0.7,1.6-1.4,2.4-2.1c0.5,0,1.1-0.1,1.7-0.2C74.3,68.5,73.9,68.8,73.5,69.2z
		 M76,67.1c-0.1,0.1-0.1,0.1-0.2,0.2c-0.2,0-0.5,0.1-0.8,0.1c-0.4,0.1-0.8,0.1-1.1,0.1c0.9-0.7,1.8-1.5,2.7-2.2h0.1
		c0.1,0,0.2,0.1,0.3,0.1l0,0c0.2,0.1,0.5,0.1,0.8,0.2C77.2,66.2,76.6,66.7,76,67.1z M80.6,63.5c-0.1,0-0.1,0-0.2,0h-0.1
		c-0.3,0-0.3-0.1-0.3,0.2c0,0.2,0,0.2,0,0.2l0,0c0,0.1,0,0.1-0.1,0.2c-0.5,0.4-0.9,0.7-1.4,1.1c-0.5-0.1-1-0.2-1.4-0.2
		c0,0,0,0-0.1,0c1.5-1.2,3-2.4,4.5-3.6h0.1c0.1,0,0.3,0.1,0.4,0.1c0,0,0,0,0.1,0c0.3,0.1,0.6,0.1,0.9,0.2
		C82.3,62.2,81.5,62.9,80.6,63.5z M84.7,59.6C84.8,59.6,84.8,59.6,84.7,59.6c0.3,0.1,0.5,0.1,0.8,0.2c-0.5,0.4-1.1,0.8-1.7,1.3
		C83.2,61,82.7,61,82.3,61c-0.1,0-0.1,0-0.2,0c0.6-0.5,1.3-1,1.9-1.4l0,0c0.1,0,0.1,0,0.2,0C84.4,59.6,84.6,59.6,84.7,59.6z
		 M105.2,46.8c-0.8-0.2-1.5-0.3-2-0.4c0,0,0,0-0.1,0c0.8-0.5,1.6-1,2.3-1.5c0.2,0,0.4,0.1,0.5,0.1h0.1c0.4,0.1,0.8,0.2,1.2,0.3
		C106.5,45.9,105.8,46.3,105.2,46.8z M110.1,43.4L110.1,43.4c-0.3,0-0.6-0.1-0.8-0.1c-0.1,0-0.3,0-0.4,0c-0.3,0-0.4-0.1-0.6-0.1
		c0.9-0.6,1.9-1.1,2.8-1.7c0,0.1,0.1,0.1,0.1,0.2c0.1,0,0.2,0,0.2,0.1c0.2,0,0.4,0.1,0.6,0.1c0,0,0,0,0.1,0c0,0,0.1,0,0.2,0
		C111.6,42.4,110.9,42.9,110.1,43.4z M116,39.4c-0.1,0.1-0.2,0.1-0.3,0.2c-1,0.6-1.8,1.2-2.8,1.9c-0.3,0-0.5-0.1-0.7-0.1
		c-0.1,0-0.2,0-0.2,0c-0.2,0-0.3,0-0.4,0c1.3-0.7,2.6-1.5,3.9-2.2c0,0,0.1,0,0.2,0.1l0,0C115.7,39.2,115.8,39.3,116,39.4z
		 M104.6,44.1c-4.4,2.7-8.8,5.6-13,8.6c-0.1,0-0.2,0-0.3,0c-0.1,0-0.1,0-0.2,0c-0.7,0-0.7-0.1-0.7,0.2c0,0.2,0.1,0.2,0.1,0.2
		c0.1,0,0.1,0,0.2,0s0.1,0,0.2,0c-6.6,4.6-12.9,9.6-19.1,14.8c-0.4,0.1-0.4,0.1-0.3,0.3c-7.3,6.2-14.1,12.6-21,20
		c-0.4,0.1-0.6,0.1-0.4,0.4c-14.5,15.4-26.3,32.6-25.9,32.6c-23.3,35-16,24-17.4,26.2c-1.3,2.1-2.4,3.8-4.9,4.6
		c0.3-0.7,0.6-1.3,0.9-2c0.4-0.6,0.8-1.2,1.2-1.7c2.9-4.3,5.1-7.9,8.9-13.7c3.3-5,6.3-9.5,8.4-12.9c0.2-0.3,0.3-0.5,0.5-0.8
		c1.6-2.6,1.7-2.5,1.4-2.7c-0.2-0.1-0.4,0.2-0.5,0.4c-0.2,0.3-0.3,0.5-0.5,0.8c-0.4,0.6-0.8,1.2-1.2,1.8c-0.1,0.1-0.1,0.1-0.2,0.2
		c-2.2,3.3-5.2,7.7-8.5,12.8c-1.5,2.3-3,4.7-4.5,7c-0.6,1-1.3,2-1.9,3c23.3-42,54.8-77.9,96.5-101.7c5.8-3.3,11.8-6.3,17.8-9.1
		c0.1,0.3,0.4-0.2,0.5-0.2c11.1-5.1,22.5-9.4,34.2-13.1c0,0,0.1,0,0.1,0.1c-0.3,0.2-0.7,0.3-1,0.5C136.8,26.2,120.1,34.7,104.6,44.1
		z M80.9,52.8c0.1-0.3,0.2-0.6,0.3-0.9c0.1-0.4,0.3-0.8,0.4-1.2c1.2-0.8,2.4-1.6,3.2-2.2c0.1-0.1,0.2-0.2,0.3-0.3c0,0,0,0,0.1-0.1
		c-0.2,0.3-0.3,0.7-0.5,1.1c-0.2,0.4-0.3,0.8-0.5,1.3C83.1,51.2,82,52,80.9,52.8z M83.9,51.5c0,0.1,0,0.1-0.1,0.2
		c-0.1,0.2-0.1,0.4-0.2,0.6c0,0.1-0.1,0.2,0,0.4l0.1,0.1c-1.2,0.9-2.4,1.7-3.7,2.6c0.2-0.5,0.3-1,0.5-1.5
		C81.6,53.1,82.7,52.3,83.9,51.5z M79.2,55.9L79.2,55.9c-0.9,0.8-1.8,1.5-2.8,2.2c0.1-0.3,0.1-0.5,0.2-0.9c0.1-0.3,0.2-0.5,0.2-0.7
		c0.9-0.6,1.8-1.3,2.7-2C79.5,54.9,79.4,55.4,79.2,55.9z M77.9,54.9c-0.2,0.2-0.4,0.3-0.6,0.5l0,0v-0.1c0-0.4,0.1-0.4-0.1-0.4
		c-0.2-0.1-0.2,0-0.2,0V55c0,0.1-0.1,0.2-0.1,0.3l0,0c-0.1,0.2-0.2,0.5-0.4,0.8c-0.8,0.6-1.6,1.2-2.4,1.8c0.2-0.7,0.4-1.2,0.5-1.7
		c0-0.1,0-0.1,0-0.2c0.1-0.4,0.1-0.5,0.1-0.5c1.4-0.9,2.7-1.9,4.6-3.2c0.5-0.3,1-0.6,1.4-1c0,0.1-0.1,0.2-0.1,0.4
		c-0.2,0.6-0.4,1.2-0.5,1.8C79.3,53.9,78.5,54.4,77.9,54.9z M75.6,58.7c-0.8,0.6-1.6,1.3-2.5,1.9c0.1-0.5,0.3-1,0.5-1.6
		c0.8-0.6,1.6-1.2,2.4-1.8c-0.1,0.3-0.2,0.5-0.2,0.8C75.7,58.2,75.7,58.4,75.6,58.7L75.6,58.7z M72.7,59.7c0,0.1-0.1,0.2-0.1,0.4
		c-0.1,0.3-0.2,0.6-0.2,1c0,0.1,0,0.2-0.1,0.3c-0.7,0.5-1.3,1-2,1.6c0.1-0.5,0.3-1.1,0.4-1.7c0.3-0.3,0.7-0.5,1-0.8
		C72.1,60.1,72.4,59.9,72.7,59.7z M87.7,49.1c0-0.1,0.1-0.1,0.1-0.2c2.3-1.5,4.6-2.8,6.6-4c0,0.1-0.1,0.2-0.1,0.3
		c-0.1,0.2-0.1,0.4-0.2,0.7c-3.4,2.1-6.7,4.3-10,6.5c0,0,0-0.1,0.1-0.1c0.3-0.5,0.4-0.9,0.6-1.4c0.2-0.1,0.3-0.2,0.5-0.3
		c0.6-0.4,1.2-0.8,1.9-1.2c0,0,0,0,0,0.1c0.1,0.1,0.3,0.1,0.3,0.1C87.6,49.4,87.6,49.3,87.7,49.1z M95.6,43.5c0.2-0.5,0.3-1,0.5-1.5
		c1.9-0.8,3.1-1.4,4.5-2c-0.1,0.3-0.3,1-0.4,1C100.3,41,98.1,42.1,95.6,43.5z M100.1,41.6c-0.1,0.3-0.2,0.6-0.3,0.8
		c-1.7,1-3.3,2-5,3c0.1-0.3,0.3-0.7,0.4-1c1.3-0.7,2.5-1.4,3.5-2l0.8-0.5C99.8,41.8,100,41.7,100.1,41.6z M102.2,40.2
		c-0.1-0.2-0.5,0.1-1.1,0.4c0.1-0.3,0.2-0.7,0.4-1c0.6-0.3,1.1-0.5,1.7-0.8c-0.1,0.2-0.2,0.5-0.3,0.7c-0.2,0.4-0.3,0.7-0.4,1.1
		c-0.1,0.2-0.1,0.4-0.2,0.6c-0.6,0.3-1.1,0.6-1.7,1c0.1-0.3,0.2-0.6,0.4-0.9C102.4,40.4,102.3,40.4,102.2,40.2z M105.9,38.7
		c-0.1,0.2-0.1,0.3-0.2,0.5c-0.9,0.5-1.7,1-2.6,1.4c0.3-0.7,0.6-1.4,1-2.3c0.8-0.4,1.6-0.8,2.4-1.2c-0.1,0.2-0.2,0.3-0.3,0.5
		C106.1,38,106,38.4,105.9,38.7z M166.7,30.9c-0.6,0-1.2,0.2-1.8,0.2c-1.8,0.2-3.5,0.2-5.3,0.2s-3.8-0.2-6.2-0.7
		c-4.2-0.8-7.7-2.4-10.2-3.6l-0.6-0.3c-0.4-0.2-0.7-0.4-0.9-0.5c4-1.7,8-3.3,12-4.9c0.1,0.1,0.2,0.1,0.3,0.1c1.6-0.5,3.2-1.3,4.8-2
		c0.4-0.2,0.3-0.8-0.2-0.7c-0.6,0.1-1.2,0.1-1.7,0.3h-0.1c-11.9,3.1-23.5,7.2-34.7,12.2c1.1-1.7,2-3.5,3.3-6.1
		c1.3-2.8,2.4-5.4,3-7.4l0.1-0.5c0.4-1.5,0.5-1.5,0.2-1.6c-0.2-0.1-0.2,0.1-0.3,0.2l-0.2,0.5c-0.1,0.4-0.2,0.7-0.4,1.1v0.1
		c-0.7,1.9-1.7,4.5-3.1,7.3c-0.6,1.3-1.3,2.6-2,3.8c-0.4,0.8-0.9,1.7-1.4,2.5c-0.1,0.2-0.2,0.3-0.3,0.5c-2.7,1.2-5.3,2.5-8,3.8
		c1.5-3.1,2.7-5.7,4.6-9.9c1.7-3.7,3.4-7,4.5-9.4c0.1-0.2,0.2-0.4,0.2-0.6c0.8-1.9,0.9-1.8,0.7-2c-0.2-0.1-0.3,0.1-0.3,0.3
		c-0.1,0.2-0.2,0.4-0.3,0.6c-0.2,0.4-0.4,0.9-0.7,1.3c0,0.1-0.1,0.1-0.1,0.2c-1.2,2.4-2.9,5.7-4.6,9.4c-0.8,1.7-1.6,3.4-2.4,5.2
		c-0.5,1.1-1,2.3-1.6,3.4c-0.3,0.6-0.6,1.3-0.8,1.9c-2,1-3.9,2-5.8,3c0.1-0.2,0.2-0.4,0.3-0.7c0.2-0.5,0.5-1,0.7-1.3
		c0.2-0.1,0.4-0.2,0.5-0.3c0.3-0.1,0.6-0.3,0.8-0.5c0.2-0.2,0-0.4-0.2-0.3c-0.3,0.1-0.6,0.2-0.8,0.3c0.1-0.2,0.1-0.2-0.1-0.3
		s-0.2,0-0.2,0s0,0.1-0.1,0.1c0,0.1-0.1,0.2-0.2,0.2l0,0c-0.1,0.1-0.1,0.2-0.2,0.3c-0.9,0.4-1.7,0.7-2.5,1.1c0.4-0.8,0.8-1.5,1-2.1
		c0-0.1,0-0.1,0.1-0.2c0.2-0.6,0.3-0.6,0-0.7c-0.2-0.1-0.2,0-0.2,0c0,0.1-0.1,0.1-0.1,0.2c-0.1,0.1-0.1,0.3-0.2,0.4l0,0
		c-0.4,0.7-1,1.7-1.5,2.8c-0.6,0.3-1.2,0.5-1.8,0.8c0.5-1.3,1-2.7,1.6-4.4c1.1-2.9,2.1-5.6,2.8-7.5c0-0.2,0.1-0.3,0.1-0.5
		c0.5-1.5,0.6-1.5,0.3-1.6c-0.2-0.1-0.2,0.1-0.3,0.2c-0.1,0.2-0.1,0.3-0.2,0.5c-0.1,0.4-0.3,0.7-0.4,1.1c0,0,0,0.1-0.1,0.1
		c-0.8,1.9-1.8,4.5-2.9,7.5c-0.5,1.4-1,2.7-1.5,4.1c-0.1,0.3-0.2,0.6-0.3,1c-1.7,0.8-2.6,1.2-4.5,2c0.6-1.5,1.1-2.9,1.4-3.9
		c0-0.1,0-0.2,0.1-0.3c0.3-0.9,0.3-0.8,0.1-0.9c-0.2-0.1-0.2,0-0.2,0.1s-0.1,0.2-0.1,0.3c-0.1,0.2-0.2,0.4-0.3,0.6c0,0,0,0,0,0.1
		c-0.5,1.1-1.1,2.6-1.7,4.3c0,0.1,0,0.1-0.1,0.2c-1.1,0.5-2,0.9-2.8,1.3c-0.1,0.1-0.3,0.1-0.4,0.2c-1.4,0.7-1.4,0.6-1.3,0.9
		c0.1,0.2,0.2,0.1,0.3,0.1c0.1-0.1,0.3-0.1,0.4-0.2c0.3-0.1,0.7-0.3,1-0.4c0,0,0.1,0,0.1-0.1c0.7-0.3,1.5-0.6,2.3-1
		c-0.2,0.5-0.3,0.9-0.5,1.4c0,0.1-0.1,0.2-0.1,0.3c-2,1.1-4.2,2.4-6.5,3.9c0.1-0.3,0.2-0.7,0.3-1.1c0.3-0.8,0.6-1.6,0.7-2.2v-0.1
		c0.1-0.5,0.2-0.4-0.1-0.5c-0.2-0.1-0.2,0-0.2,0s0,0.1-0.1,0.1c0,0.1-0.1,0.2-0.1,0.3l0,0c-0.3,0.5-0.6,1.3-0.9,2.1
		c-0.1,0.4-0.2,0.8-0.4,1.2c-0.1,0.2-0.1,0.4-0.2,0.6c-0.7,0.4-1.4,0.9-2.1,1.3c0-0.1,0.1-0.2,0.1-0.3c0.4-1.1,0.9-2,1.1-2.7
		c0-0.1,0-0.1,0-0.2c0.2-0.6,0.2-0.5,0-0.6s-0.2,0-0.2,0c0,0.1-0.1,0.1-0.1,0.2c-0.1,0.1-0.1,0.3-0.2,0.4l0,0
		c-0.1,0.2-0.3,0.5-0.4,0.8c-0.1,0-0.1,0.1-0.2,0.1c-0.3,0.2-0.5,0.3-0.8,0.5c0,0-0.1,0-0.1,0.1c-0.7,0.5-1.6,1-2.6,1.6
		c0.3-0.9,0.6-1.7,0.7-2.4c0-0.1,0-0.2,0.1-0.3c0.2-0.9,0.3-0.9,0-1c-0.2-0.1-0.2,0-0.2,0.1S82,46.2,82,46.3
		c-0.1,0.2-0.2,0.4-0.2,0.6V47c-0.3,0.8-0.7,1.9-1.2,3.2c-0.7,0.5-1.4,0.9-2.1,1.4c-1,0.7-2,1.4-3,2.1c-0.7,0.5-1.3,0.9-2,1.4
		c-0.4,0.3-0.8,0.6-1.1,0.9c-0.2,0.2-0.4,0.3-0.6,0.5c-0.1,0.2,0.1,0.3,0.3,0.3c0.3-0.2,0.6-0.4,0.9-0.6c0.3-0.2,0.6-0.3,0.8-0.5
		c0,0.1-0.1,0.1-0.1,0.2l0,0c-0.3,0.7-0.7,1.5-1,2.6v0.1c-0.7,0.6-1.4,1.1-2.1,1.7c0.1-0.6,0.3-1.2,0.5-2c0.5-2.1,1.1-3.9,1.3-5.3
		c0-0.1,0-0.2,0.1-0.3c0.2-1.1,0.3-1,0-1.1c-0.2,0-0.2,0.1-0.2,0.1c0,0.1-0.1,0.2-0.1,0.3c-0.1,0.3-0.1,0.5-0.2,0.8v0.1
		c-0.4,1.3-0.9,3.2-1.5,5.3c-0.2,0.9-0.5,1.9-0.7,2.9c-0.2,0.2-0.5,0.4-0.7,0.7c-0.3,0.4,0,0.4,0.3,0.2c0.1,0,0.1-0.1,0.2-0.1
		c-0.1,0.4-0.2,0.9-0.3,1.3c0,0.1,0,0.2-0.1,0.4c-0.1,0.1-0.2,0.1-0.2,0.2c-1.5,1.2-2.9,2.5-4.4,3.7c0.4-0.6,0.8-1.3,1.1-2
		c2-3.2,2.9-7.1,3.4-10.9c0.6-4.5,0.6-9,0.9-13.5c0.3-5.2,0.1-9.5,3.4-13.4c-2.3,5-2.4,11-0.8,16.2c0.1,0.4,0.7,0.2,0.6-0.2
		c-1.7-6.5-0.4-12.5,2.6-18.3c0.5-0.4,0.9-0.7,1.4-1.1c-0.2,0.5-0.3,1-0.6,1.7c-0.4,1.2-0.9,2.2-1.1,3c0,0.1,0,0.1,0,0.2
		c-0.2,0.6-0.2,0.6,0,0.7s0.2,0,0.2,0c0-0.1,0.1-0.1,0.1-0.2c0.1-0.1,0.1-0.3,0.2-0.4c0,0,0,0,0-0.1c0.4-0.7,0.8-1.8,1.3-3
		c0.2-0.5,0.4-1.1,0.6-1.7c0.1-0.3,0.2-0.6,0.3-0.9c1.8-1.1,3.8-2,5.8-2.8c-0.8,1.2-1.5,2.5-2.3,4.5s-1.5,4-1.7,5.4V31
		c-0.1,1.1-0.2,1.1,0.1,1.1c0.2,0,0.2-0.1,0.2-0.2l0.1-0.3c0-0.3,0.1-0.5,0.2-0.8v-0.1c0.3-1.4,0.9-3.3,1.8-5.3
		c0.4-0.9,0.8-1.8,1.3-2.7c0.3-0.6,0.6-1.2,1-1.8c0.1-0.2,0.2-0.4,0.3-0.6c0.1,0,0.2-0.1,0.4-0.1c-1.2,1.4-1.9,3.4-2.4,4.9
		c-1.2,3.4-1.4,6.9-1.1,10.5c0,0.4,0.6,0.3,0.6-0.1c-0.3-5.2,0.7-13.2,5.6-16.2c0.3-0.1,0.6-0.2,0.9-0.3c-1.8,2.1-2.6,5-2.4,7.7
		c0,0.4,0.6,0.3,0.6-0.1c0.1-3.4,1.6-5.8,3.7-8.2c0.5-0.2,1-0.3,1.5-0.5c-0.7,1.1-1.2,2.3-1.6,3.5c-0.1,0.4,0.5,0.7,0.7,0.3
		c0.7-1.6,1.6-3,2.5-4.4c0.4-0.2,0.9-0.3,1.3-0.5c-6.4,8.4-4.7,20.4-4.8,22.3c-0.1,0.1-0.2,0.3-0.1,0.5c-0.1,0.6-0.2,1.2-0.4,1.7
		c-0.2,0.5,0.5,0.9,0.8,0.4c0.3-0.6,0.6-1.2,0.8-1.9c0.4-0.1,0.3-0.4,0.4-0.9c0.1-0.3,0.3-0.7,0.4-1c5.3-7.6,3.3-18.7,14.1-27.5
		c-4.4,5.4-6.2,13.2-7.7,19.7c-0.1,0.5,0.6,0.6,0.7,0.1c2.1-8.3,5.4-20.7,14.1-23.8c-4.1,3.2-6,9.4-6.9,14.2
		c-0.1,0.4,0.5,0.5,0.7,0.1c0.9-3.3,1.8-6.6,3.7-9.6c1.6-2.6,3.8-4.2,6.3-5.8c0.5-0.1,1-0.2,1.5-0.3c-2.8,1.4-4.9,4.6-5.6,7.6
		c-0.1,0.4,0.5,0.6,0.6,0.2c1.1-3.3,3-5.2,5.7-6.9c-0.8,0.7-1.4,1.3-1.8,1.9L117.7,8c-0.3,0.6-0.4,0.6-0.2,0.7c0.2,0.1,0.2,0,0.2,0
		l0.1-0.2c0.1-0.1,0.2-0.3,0.3-0.4l0,0c0.6-0.7,1.4-1.5,2.4-2.3c0.5-0.4,1-0.7,1.5-1c0.2-0.1,0.5-0.3,0.7-0.4
		c1.2-0.1,2.4-0.2,3.6-0.2c-0.3,0.4-0.6,0.9-1,1.4c-0.7,0.9-1.4,1.7-1.8,2.4c0,0.1-0.1,0.1-0.1,0.2c-0.3,0.5-0.4,0.5-0.2,0.6
		c0.1,0.1,0.2,0.1,0.2,0l0.1-0.1c0.1-0.1,0.2-0.2,0.3-0.3l0,0c0.5-0.6,1.2-1.3,1.9-2.3c0.3-0.4,0.7-0.9,1-1.3
		c0.1-0.2,0.3-0.4,0.4-0.6c2-0.1,4.1-0.2,5.9-0.6c-1.2,1.1-2.2,2.5-2.9,4c0-0.1,0-0.1-0.1-0.2c-0.2-0.1-0.3,0.2-0.3,0.3l-0.3,0.7
		c-0.2,0.5-0.5,1-0.7,1.5l-0.1,0.2c-1.3,2.8-3.1,6.5-5.4,10.5c-1,1.9-2.1,3.7-3.3,5.5c-0.7,1.2-1.5,2.4-2.3,3.6
		c-0.5,0.7-0.9,1.4-1.4,2.1c-0.2,0.4-0.6,0.8-0.7,1.2c-0.1,0.3,0.2,0.3,0.3,0.1c0.4-0.5,0.8-1,1.2-1.5c2.4-3.2,4.1-6,6.7-10.6
		c2.3-4,4.1-7.8,5.3-10.6l0.1-0.3c0.1,0.2,0.3,0.2,0.5,0c1.3-2.7,3.1-4.6,5.1-6.8l0,0c1.1-0.3,2.1-0.6,3.2-0.8
		c-6.6,4.7-9.5,14.2-10.8,21.7c0,0.3,0.4,0.4,0.5,0.2c1.5-4.6,2.6-9.3,4.9-13.7c2-3.7,4.8-6.6,8.4-8.9c1.4-0.3,2.8-0.5,4.3-0.5
		c-2.6,1.7-4.8,4.5-6.2,7.1c-0.2,0.3,0.3,0.6,0.5,0.3c1.9-3.3,4.5-5.1,7.4-7.3c0.1,0,0.2,0,0.3,0c-1,0.6-1.9,1.3-3.1,2.4
		c-1.3,1.1-2.4,2.3-3,3.2L141,7.2c-0.5,0.7-0.5,0.7-0.3,0.8s0.2,0,0.3,0l0.2-0.2c0.1-0.2,0.3-0.3,0.4-0.5l0.1-0.1
		c0.7-0.8,1.8-1.9,3-3c0.6-0.5,1.2-1,1.8-1.5c0.4-0.3,0.8-0.6,1.3-0.9c0.2-0.1,0.4-0.3,0.6-0.4c3,0.3,5.9,1.2,8.6,2.6
		c6.8,3.4,11.6,10,11.9,17.7c0-0.1,0-0.1-0.1-0.1s-0.2,0-0.3,0c-0.7,0-1.2,0.1-2.1,0.2c-0.8,0.1-1.5,0.1-2,0.2h-0.1
		c-0.4,0.1-0.4,0-0.4,0.3c0,0.2,0.1,0.2,0.1,0.2h0.1c0.1,0,0.2,0,0.3,0l0,0c0.5,0,1.2,0,2,0c0.4,0,0.7-0.1,1.1-0.1
		c0.2,0,0.5-0.1,0.7-0.1c0.1,0,0.3-0.1,0.4-0.1c0.1,0,0.2,0,0.2-0.1c0,0,0,0,0-0.1c0,0.9,0,1.9-0.1,2.8c-0.9,0-1.8,0.1-3,0.1
		c-1.4,0-2.8,0-3.7,0.1c-0.1,0-0.1,0-0.2,0c-0.7,0.1-0.7,0-0.7,0.3c0,0.2,0.1,0.2,0.1,0.2c0.1,0,0.2,0,0.2,0c0.2,0,0.4,0,0.5,0
		c0,0,0,0,0.1,0c1,0.1,2.3,0.1,3.7,0.1c0.7,0,1.3,0,2-0.1c0.3,0,0.6,0,0.8-0.1c-0.1,0.6-0.2,1.3-0.3,1.9c-2.2,0.4-4.3,0.9-6.5,0.9
		c-3,0-6-0.5-8.9-1.4c-0.3-0.1-0.5,0.3-0.2,0.4c4.5,1.7,10.4,2.7,15.3,1.3c-0.3,0.9-0.6,1.7-0.9,2.5C167,31,166.9,30.9,166.7,30.9z"
		/>
</g>
<path class="st0" d="M109,161.7c-4,0-7.4-0.6-10.2-1.8c-4.8-2.1-7.8-5.9-9.1-11.4c-1.4-6.4-4.7-10.6-9.6-12.5
	c-17.1-6.8-49.5,14.8-49.8,15l-0.6-0.8c0.1-0.1,8.3-5.6,18.6-10.2c13.9-6.2,24.7-7.9,32.1-4.9c5.3,2.1,8.7,6.6,10.2,13.2
	c1.2,5.2,4,8.8,8.5,10.7c20.5,8.9,68.8-19.4,69.3-19.7l0.5,0.9c-0.1,0.1-12.4,7.3-27.1,13.3C128.4,158.9,117.4,161.7,109,161.7z"/>
</svg>
