<?xml version="1.0" encoding="utf-8"?>
<!-- Generator: Adobe Illustrator 27.4.0, SVG Export Plug-In . SVG Version: 6.00 Build 0)  -->
<svg version="1.1" id="圖層_1" xmlns="http://www.w3.org/2000/svg" xmlns:xlink="http://www.w3.org/1999/xlink" x="0px" y="0px"
	 viewBox="0 0 50 50" style="enable-background:new 0 0 50 50;" xml:space="preserve">
<style type="text/css">
	.st0{fill:#FFFFFF;}
</style>
<path class="st0" d="M15.6,12.1c0,0.1,0.1,0.2,0.1,0.3c0,0.4-0.2,0.8-0.7,1c-0.6,0.2-1.2-0.1-1.3-0.7c0-0.1-0.1-0.2-0.1-0.3
	c0-0.4,0.2-0.8,0.7-1c0.1,0,0.2-0.1,0.3-0.1C15,11.4,15.4,11.7,15.6,12.1z"/>
<path class="st0" d="M5.4,37.9c-0.6,0-1.1-0.5-1.1-1.1V8.3c0-0.3,0.2-0.6,0.4-0.8C5,7.3,5.3,7.2,5.6,7.3c2.6,0.6,4.4,0.2,6.6-0.3
	c3-0.7,6.4-1.5,13,0.3C25.8,7.5,26.2,8,26,8.5c-0.2,0.6-0.7,0.9-1.2,0.7c-6.1-1.6-9.1-1-12-0.3c-1.9,0.4-3.8,0.8-6.3,0.5v27.3
	C6.4,37.5,5.9,37.9,5.4,37.9z"/>
<path class="st0" d="M24.9,38.9c-0.1,0-0.2,0-0.2,0c-6.2-1.6-9.4-1.2-12.2-0.9c-2.2,0.3-4.3,0.6-7.3-0.1c-0.6-0.1-0.9-0.7-0.7-1.2
	c0.1-0.6,0.7-0.9,1.2-0.7c2.7,0.6,4.5,0.3,6.7,0.1c3-0.4,6.4-0.8,13,0.9c0.6,0.2,0.9,0.7,0.7,1.2C25.8,38.6,25.4,38.9,24.9,38.9z"/>
<path class="st0" d="M24.9,38.9c-0.6,0-1.1-0.5-1.1-1.1c0-0.5,0.3-0.9,0.8-1c6.6-1.7,10-1.3,12.9-0.9c2.1,0.2,4,0.5,6.7-0.1
	c0.6-0.1,1.1,0.2,1.2,0.7c0.1,0.6-0.2,1.1-0.7,1.2c-3,0.7-5.1,0.4-7.3,0.1c-2.8-0.3-6-0.8-12.2,0.9h-0.1
	C25.1,38.9,25,38.9,24.9,38.9z"/>
<path class="st0" d="M24.9,38.9c-0.6,0-1.1-0.5-1.1-1.1V8.4c0-0.5,0.3-0.9,0.7-1c6.6-1.8,10-1,13-0.3c2.1,0.5,3.9,0.9,6.6,0.3
	c0.3-0.1,0.7,0,0.9,0.2c0.2,0.2,0.4,0.5,0.4,0.8v28.5c0,0.6-0.5,1.1-1.1,1.1c-0.6,0-1.1-0.5-1.1-1.1V9.6c-2.5,0.3-4.3-0.1-6.3-0.5
	c-2.8-0.7-5.7-1.3-11.3,0.1V38C26,38.4,25.5,38.9,24.9,38.9z"/>
<path class="st0" d="M26.6,44h-3.3c-0.6,0-1.2-0.1-1.7-0.3c-0.6-0.2-1.1-0.6-1.5-1c-0.5-0.5-1.1-0.7-1.7-0.7H4.5
	c-2.4,0-4.3-1.9-4.3-4.2V11.4c0-0.6,0.5-1.1,1.1-1.1h4.1c0.6,0,1.1,0.5,1.1,1.1c0,0.6-0.5,1.1-1.1,1.1H2.3v25.4c0,1.2,1,2.2,2.2,2.2
	h13.8c1.2,0,2.4,0.5,3.2,1.3c0.2,0.2,0.5,0.4,0.8,0.6c0.3,0.2,0.7,0.2,1,0.2h3.3c0.7,0,1.3-0.2,1.7-0.7c0.4-0.4,0.9-0.7,1.5-1
	c0.6-0.2,1.2-0.3,1.7-0.3h13.8c1.2,0,2.2-1,2.2-2.2V12.4h-3.1c-0.6,0-1.1-0.5-1.1-1.1c0-0.6,0.5-1.1,1.1-1.1h4.1
	c0.6,0,1.1,0.5,1.1,1.1v26.3c0,2.4-1.9,4.2-4.3,4.2H31.5c-0.3,0-0.7,0.1-1,0.2c-0.3,0.2-0.6,0.3-0.8,0.6C28.9,43.5,27.7,44,26.6,44z
	"/>
<path class="st0" d="M14.6,22.6L14.6,22.6h-2.1c-2.8,0-5.2-2.3-5.2-5.1c0-0.6,0.5-1.1,1.1-1.1h2.1c2.8,0,5.1,2.3,5.1,5.1v0.1
	C15.7,22.1,15.2,22.6,14.6,22.6z M9.7,18.5c0.4,1.2,1.6,2,2.9,2h0.8c-0.4-1.2-1.6-2-2.9-2H9.7z"/>
<path class="st0" d="M16.7,22.6h-2.1c-0.6,0-1.1-0.5-1.1-1.1c0-1.4,0.6-2.6,1.5-3.6c1-1,2.3-1.5,3.6-1.5h2.1c0.6,0,1.1,0.5,1.1,1.1
	c0,1.4-0.6,2.6-1.5,3.6C19.3,22.1,18.1,22.6,16.7,22.6z M15.9,20.6h0.8c0.8,0,1.6-0.3,2.2-0.9c0.3-0.3,0.6-0.7,0.7-1.1h-0.8
	c-0.8,0-1.6,0.3-2.2,0.9C16.2,19.8,15.9,20.2,15.9,20.6z"/>
<path class="st0" d="M14.6,29.7L14.6,29.7h-2.1c-2.8,0-5.2-2.3-5.2-5.1c0-0.6,0.5-1.1,1.1-1.1h2.1c2.8,0,5.1,2.3,5.1,5.1v0.1
	C15.7,29.3,15.2,29.7,14.6,29.7z M9.7,25.6c0.4,1.2,1.6,2,2.9,2h0.8c-0.4-1.2-1.6-2-2.9-2H9.7z"/>
<path class="st0" d="M16.7,29.7h-2.1c-0.6,0-1.1-0.5-1.1-1.1c0-1.4,0.6-2.6,1.5-3.6c1-1,2.3-1.5,3.6-1.5h2.1c0.6,0,1.1,0.5,1.1,1.1
	c0,1.4-0.6,2.6-1.5,3.6C19.3,29.2,18.1,29.7,16.7,29.7z M15.9,27.7h0.8c0.8,0,1.6-0.3,2.2-0.9c0.3-0.3,0.6-0.7,0.7-1.1h-0.8
	c-0.8,0-1.6,0.3-2.2,0.9C16.2,26.9,15.9,27.3,15.9,27.7z"/>
<path class="st0" d="M14.6,32.8c-0.6,0-1.1-0.5-1.1-1.1V15.4c0-0.6,0.5-1.1,1.1-1.1c0.6,0,1.1,0.5,1.1,1.1v16.3
	C15.7,32.3,15.2,32.8,14.6,32.8z"/>
<path class="st0" d="M18.7,32.8h-8.2c-0.6,0-1.1-0.5-1.1-1.1c0-0.6,0.5-1.1,1.1-1.1h8.2c0.6,0,1.1,0.5,1.1,1.1
	C19.8,32.3,19.3,32.8,18.7,32.8z"/>
<path class="st0" d="M33.1,33.8c-0.6,0-1.1-0.5-1.1-1.1c0-5.1,4.1-9.2,9.3-9.2c0.6,0,1.1,0.5,1.1,1.1c0,0.6-0.5,1.1-1.1,1.1
	c-4,0-7.2,3.2-7.2,7.2C34.2,33.4,33.7,33.8,33.1,33.8z"/>
<path class="st0" d="M36.3,33.8c-0.6,0-1.1-0.5-1.1-1.1c0-3.3,2.8-6.1,6.2-6.1c0.6,0,1.1,0.5,1.1,1.1c0,0.6-0.5,1.1-1.1,1.1
	c-2.3,0-4.1,1.8-4.1,4.1C37.3,33.4,36.8,33.8,36.3,33.8z"/>
<path class="st0" d="M41.4,33.8H28c-0.6,0-1.1-0.5-1.1-1.1V21.6c0-0.6,0.5-1.1,1.1-1.1h13.3c0.6,0,1.1,0.5,1.1,1.1v11.3
	C42.5,33.4,42,33.8,41.4,33.8z M29,31.8h11.4v-9.1H29V31.8z"/>
<path class="st0" d="M33.1,18.5c-2.3,0-4.1-1.8-4.1-4.1c0-2.3,1.8-4.1,4.1-4.1c2.3,0,4.1,1.8,4.1,4.1C37.3,16.8,35.5,18.5,33.1,18.5
	z M33.1,12.4c-1.2,0-2.1,0.9-2.1,2s0.9,2,2.1,2c1.2,0,2.1-0.9,2.1-2S34.3,12.4,33.1,12.4z"/>
</svg>
