<?xml version="1.0" encoding="utf-8"?>
<!-- Generator: Adobe Illustrator 24.0.2, SVG Export Plug-In . SVG Version: 6.00 Build 0)  -->
<svg version="1.1" id="圖層_1" xmlns="http://www.w3.org/2000/svg" xmlns:xlink="http://www.w3.org/1999/xlink" x="0px" y="0px"
	 viewBox="0 0 239.9 164.2" style="enable-background:new 0 0 239.9 164.2;" xml:space="preserve">
<style type="text/css">
	.st0{fill:#FFFFFF;}
</style>
<g>
	<path class="st0" d="M182.2,96.1c-1.9,0.4-33.6,8.1-34.6,8.4c-7.6,1.9-15.2,3.7-22.8,5.6c-7.7,1.9-15.6,3.5-23.1,5.9
		c-0.1,0-0.1,0.2,0.1,0.2c7.7-1.4,15.3-3.6,22.8-5.4c7.7-1.9,15.4-3.8,23.2-5.7c0.1,0,32.8-8.1,34.1-8.5c0.1,0,14-3.5,11.7-3.1
		C189.8,94,186,95.2,182.2,96.1z"/>
	<path class="st0" d="M112.5,105.5c-0.4,0-0.8,0.2-1.2,0.2c-2.5,0.4-4.5,1-7.7,1.7c-2.8,0.6-5.4,1.1-7.3,1.6c-0.1,0-0.3,0.1-0.4,0.1
		c-1.4,0.4-1.4,0.3-1.4,0.5c0,0.1,0.2,0.1,0.3,0.1c0.1,0,0.3-0.1,0.4-0.1c0.4-0.1,0.7-0.1,1.1-0.2c0,0,0.1,0,0.1,0
		c1.9-0.3,4.5-0.8,7.3-1.5c2-0.4,4.6-1,6.6-1.5c0.2-0.1,2.1-0.5,2.4-0.7C112.9,105.6,112.7,105.5,112.5,105.5z"/>
	<path class="st0" d="M109.7,107.8c-0.3,0-0.5,0.1-0.7,0.1c-1.5,0.3-2.7,0.6-4.7,1.1c-1.7,0.4-3.3,0.7-4.5,1c-0.1,0-0.2,0.1-0.3,0.1
		c-0.9,0.3-0.9,0.2-0.8,0.4c0,0.1,0.1,0.1,0.2,0.1c0.1,0,0.2,0,0.3-0.1c0.2,0,0.4-0.1,0.6-0.1c0,0,0.1,0,0.1,0
		c1.2-0.2,2.8-0.5,4.5-0.9c0.8-0.2,1.6-0.4,2.4-0.6c0.5-0.1,1.1-0.3,1.6-0.4c0.3-0.1,0.6-0.2,0.9-0.3c0.2-0.1,0.4-0.1,0.5-0.2
		C110,108,109.9,107.8,109.7,107.8z"/>
	<path class="st0" d="M109.5,115.5c-0.2,0-0.3,0.1-0.5,0.1c-0.4,0.1-6.1,1.9-6.2,1.9c-0.1,0-0.1,0.1-0.2,0.1
		c-0.6,0.2-0.6,0.2-0.5,0.4c0,0.1,0.1,0.1,0.2,0.1c0.1,0,0.1,0,0.2,0c0.1,0,0.3-0.1,0.4-0.1c0,0,0,0,0.1,0c0.8-0.2,1.9-0.4,3.1-0.8
		c0.8-0.2,1.9-0.6,2.7-0.9c0.1,0,0.9-0.3,0.9-0.5C109.7,115.7,109.6,115.5,109.5,115.5z"/>
	<path class="st0" d="M109.3,117.5c-0.2,0-0.3,0-0.5,0.1c-0.3,0-5.9,1.1-6,1.1c-0.1,0-0.1,0-0.2,0.1c-0.6,0.2-0.6,0.1-0.5,0.3
		c0,0.1,0.1,0.1,0.1,0.1c0.1,0,0.1,0,0.2,0c0.1,0,0.3,0,0.4,0c0.5,0,1.9-0.2,3-0.4c0.8-0.1,1.8-0.4,2.6-0.6c0.1,0,0.8-0.2,0.9-0.3
		C109.4,117.7,109.3,117.5,109.3,117.5z"/>
	<path class="st0" d="M21.1,89c0,0,0.1,0.1,0.1,0.1c0.1,0.1,0.2,0.2,0.3,0.3c0,0,0,0,0,0c0.6,0.5,1.4,1.1,2.4,1.8
		c0.5,0.3,0.9,0.6,1.4,0.9c0.3,0.2,0.6,0.4,0.9,0.6c0.2,0.1,0.4,0.2,0.6,0.3c0.1,0,0.2,0.1,0.3,0.1c0.1,0,0.2-0.2,0.1-0.3
		c-0.1-0.1-0.3-0.2-0.4-0.3c-0.8-0.6-1.5-1-2.6-1.8c-1-0.7-1.8-1.3-2.5-1.7c-0.1,0-0.1-0.1-0.2-0.1c-0.5-0.3-0.5-0.3-0.6-0.2
		C21,89,21.1,89,21.1,89z"/>
	<path class="st0" d="M121.2,143c-0.2,0-0.4,0.1-0.7,0.1c-1.3,0.3-2.4,0.6-4.2,1.1c-1.5,0.4-3,0.7-4,1c-0.1,0-0.2,0.1-0.2,0.1
		c-0.8,0.3-0.8,0.2-0.7,0.4c0,0.1,0.1,0.1,0.2,0.1c0.1,0,0.2,0,0.2-0.1c0.2,0,0.4-0.1,0.6-0.1c0,0,0,0,0.1,0c1-0.2,2.4-0.5,4-0.9
		c0.7-0.2,1.4-0.4,2.1-0.6c0.5-0.1,0.9-0.3,1.4-0.4c0.3-0.1,0.6-0.2,0.8-0.3c0.1-0.1,0.3-0.1,0.4-0.2
		C121.4,143.2,121.3,143,121.2,143z"/>
	<path class="st0" d="M6.1,64.1c0.2,0.2,0.4,0.3,0.6,0.5c0.5,0.4,1,0.7,1.5,1.1c0.1,0,0.1,0.1,0.2,0.1c2.7,2,6.4,4.7,10.5,7.6
		c1.9,1.4,3.9,2.7,5.8,4.1c1.3,0.9,2.6,1.8,3.9,2.7c0.8,0.5,1.5,1,2.3,1.5c0.4,0.3,0.8,0.6,1.3,0.8c0.4,0.2,0.3-0.1,0.1-0.3
		c-0.5-0.4-1.1-0.8-1.7-1.3c-3.5-2.6-6.5-4.6-11.3-8c-4.2-2.9-7.8-5.6-10.6-7.5C8.5,65.3,8.2,65.2,8,65c-2.1-1.4-2.1-1.5-2.2-1.3
		C5.7,63.8,6,64,6.1,64.1z"/>
	<path class="st0" d="M17.8,59.5c0.1,0.1,0.2,0.1,0.3,0.2c0.2,0.2,0.4,0.3,0.6,0.5c0,0,0,0,0.1,0.1c1.1,0.9,2.5,2.1,4.2,3.3
		c0.8,0.6,1.6,1.2,2.3,1.7c0.5,0.4,1,0.8,1.6,1.1c0.3,0.2,0.6,0.4,1,0.6c0.2,0.1,0.3,0.3,0.5,0.3c0.2,0,0.2-0.2,0.1-0.3
		c-0.2-0.2-0.5-0.4-0.7-0.6c-1.4-1.2-2.6-2-4.5-3.4c-1.7-1.3-3.1-2.5-4.3-3.2c-0.1-0.1-0.2-0.1-0.3-0.2c-0.9-0.6-0.8-0.6-1-0.5
		C17.6,59.4,17.7,59.5,17.8,59.5z"/>
	<path class="st0" d="M181.9,89.4c-0.5,0-0.9,0.2-1.5,0.3c-0.6,0.1-1.1,0.2-1.5,0.3c0,0-0.1,0-0.1,0c-0.3,0.1-0.3,0-0.2,0.3
		c0,0.1,0.1,0.1,0.1,0.1c0,0,0.1,0,0.1,0c0.1,0,0.1,0,0.2,0c0,0,0,0,0,0c0.4,0,0.9-0.1,1.5-0.2c0.3-0.1,0.5-0.1,0.8-0.2
		c0.2,0,0.3-0.1,0.5-0.2c0.1,0,0.2-0.1,0.3-0.1c0,0,0.1,0,0.1-0.1c0-0.1,0-0.3-0.1-0.3C182.1,89.4,182,89.4,181.9,89.4z"/>
	<path class="st0" d="M189.5,96.1c-0.6,0.1-1.1,0.2-1.7,0.3c-0.1,0-23.4,4.7-23.4,5.1c0.1,0.5,19.7-3.8,21.9-4.3
		c0.4-0.1,2.9-0.7,3.3-0.8C189.9,96.3,189.7,96.1,189.5,96.1z"/>
	<path class="st0" d="M186.5,98.8c-0.3,0-0.6,0.1-0.8,0.1c-6.7,0.9-10.5,1.8-11.3,2.2c2.3-0.4,4.7-0.8,7-1.2
		c1.7-0.3,3.4-0.6,5.1-0.8c0,0,0.1,0,0.1,0C186.7,99,186.6,98.8,186.5,98.8z"/>
	<path class="st0" d="M177.2,102.3c0,0.1,0.1,0.1,0.2,0.1c0.2,0,0.4-0.1,0.6-0.1c0.9-0.3,1.8-0.4,2.2-0.6c1.5-0.4,3-0.9,4.4-1.4
		c-1.8,0.4-6.4,1.5-6.8,1.6C177.2,102.2,177.2,102.1,177.2,102.3z"/>
	<path class="st0" d="M178,122.4c2.2-0.7,4.4-1.3,6.6-2c1.1-0.4,2.5-0.7,3.5-1.1c0.9-0.3,0.4-0.4-0.4-0.2c-1.7,0.5-3.4,1-5.1,1.5
		c-3.6,1-62.4,18.5-63.4,18.8c-0.6,0.2-1.2,0.4-1.9,0.6c-6.1,1.9-6,1.8-6,2c0,0.1,0.7,0,1.2-0.2c0.6-0.2,1.3-0.4,1.9-0.5
		c1.5-0.4,2.9-0.9,4.4-1.3c0.2-0.1,0.4-0.1,0.5-0.2c16.2-4.7,28.6-8.3,47.5-14C170.6,124.7,174.3,123.6,178,122.4z"/>
	<path class="st0" d="M178.8,124.3c1-0.3,2.1-0.6,3.1-0.9c0.6-0.2,1.2-0.4,1.8-0.6c0.3-0.1,0.7-0.2,1-0.4c0.2-0.1,0.1-0.3-0.2-0.3
		c-0.5,0.1-1,0.2-1.4,0.4c-2.9,0.7-5.3,1.5-9.2,2.6c-3.4,1-6.4,1.8-8.7,2.5c-0.2,0.1-0.3,0.1-0.5,0.2c-1.7,0.5-1.7,0.5-1.6,0.7
		c0,0.1,0.2,0.1,0.4,0.1c0.2,0,0.4-0.1,0.5-0.1c0.4-0.1,0.8-0.2,1.3-0.3c0.1,0,0.1,0,0.2,0c2.2-0.6,5.3-1.4,8.7-2.3
		C175.7,125.2,177.2,124.7,178.8,124.3z"/>
	<path class="st0" d="M181.8,124.5c-0.3,0-0.5,0.1-0.8,0.2c-1.6,0.4-2.9,0.9-5.1,1.5c-1.9,0.6-3.6,1-4.8,1.4c-0.1,0-0.2,0.1-0.3,0.1
		c-0.9,0.3-0.9,0.3-0.9,0.5c0,0.1,0.1,0.1,0.2,0.1c0.1,0,0.2-0.1,0.3-0.1c0.2-0.1,0.5-0.1,0.7-0.2c0,0,0.1,0,0.1,0
		c1.2-0.3,3-0.7,4.8-1.3c0.9-0.3,1.7-0.5,2.6-0.8c0.6-0.2,1.1-0.4,1.7-0.6c0.3-0.1,0.7-0.2,1-0.4c0.2-0.1,0.4-0.1,0.5-0.3
		C182.1,124.7,181.9,124.5,181.8,124.5z"/>
	<path class="st0" d="M180.3,131.4c-0.8,0.4-1.8,0.8-2.7,0.9c-0.2,0.1-0.4,0.2-0.6,0.3c0,0-0.1,0-0.1,0.1c-0.3,0.2-0.3,0.1-0.2,0.3
		c0.1,0.1,0.1,0.1,0.1,0.1c0,0,0.1,0,0.1,0c0.1,0,0.2,0,0.2-0.1c0,0,0,0,0,0c0.4-0.1,1-0.3,1.6-0.5c0.3-0.1,0.6-0.2,0.8-0.4
		c0.2-0.1,0.4-0.2,0.5-0.3c0.1-0.1,0.2-0.1,0.3-0.2c0.1,0,0.1-0.1,0.1-0.2c0-0.1,0-0.1-0.1-0.2C180.5,131.3,180.4,131.4,180.3,131.4
		z"/>
	<path class="st0" d="M179.8,133.6c-0.1,0-0.2,0-0.2,0c-0.5,0.1-0.8,0.3-1.4,0.5c-0.5,0.2-1,0.3-1.4,0.5c0,0,0,0-0.1,0.1
		c-0.2,0.2-0.3,0.1-0.2,0.3c0.1,0.1,0.1,0.1,0.1,0.1c0,0,0.1,0,0.1,0c0.1,0,0.1,0,0.2,0c0,0,0,0,0,0c0.4-0.1,0.9-0.2,1.4-0.4
		c0.2-0.1,0.5-0.2,0.7-0.3c0.2-0.1,0.3-0.1,0.5-0.2c0.1-0.1,0.2-0.1,0.3-0.2c0,0,0.1,0,0.1-0.1C179.9,133.8,179.8,133.6,179.8,133.6
		z"/>
	<path class="st0" d="M60.4,128.3c0.4-0.3,0.9-0.5,1.3-0.8c-0.2,0.1-0.3,0.3-0.5,0.4c-0.1,0.1,0,0.3,0.2,0.2
		c0.6-0.5,1.1-0.9,1.7-1.4c0.6-0.3,1.1-0.7,1.5-1.1c0.1-0.1,0-0.3-0.1-0.3c-1.5,0.5-2.9,1.7-4.3,2.5C59.9,128,60.2,128.5,60.4,128.3
		z"/>
	<path class="st0" d="M44.1,78.1c2.8,2.3,12.9,10.7,16,12.6c0.1,0.4,0.1,0.9,0,1.3c-0.1,0.4-0.3,1,0.3,1.1c0.2,0,0.3-0.1,0.4-0.2
		c0.2-0.3,0.3-0.7,0.3-1c-0.2-0.3-0.4-0.7-0.7-1.1c-0.3-0.4-0.2-0.9,0.1-1.3c-0.1,0-0.2,0-0.3,0c-0.1-0.1-0.1-0.1-0.2-0.2
		c-0.3-0.3-0.7,0.1-0.5,0.4c-2.3-2.1-5-4-7.5-5.9C46.6,79.7,43.3,77.5,44.1,78.1z"/>
	<path class="st0" d="M22.1,68.5c3.2,2.4,30.4,22.7,36.6,26.3c0.3,0.2,0.6-0.2,0.4-0.5c-5.3-4.6-33.2-23.6-36.8-26
		C22.1,68.2,22,68.4,22.1,68.5z"/>
	<path class="st0" d="M166.8,81.6C166.8,81.6,166.8,81.6,166.8,81.6C166.8,81.6,166.8,81.6,166.8,81.6c-0.1,0-0.1,0-0.2,0.1
		c0,0.1,0.1,0.2,0.1,0.3c1.9-0.9,4.1-1.5,6-2c2.5-0.7,5.1-1.4,7.7-2.1l0,0c4-1.2,7.9-2.3,11.9-3.4c10.9-2.8,22.1-5.2,33.3-6.6
		c0.1,0,0.1-0.2,0-0.2c-11.2,1.4-22.2,3.2-33.1,6c-1.9,0.5-3.7,1-5.6,1.5l0.1-0.1c-0.1,0-0.1,0-0.2,0.1l0,0.1
		c-1.5,0.4-2.9,0.9-4.4,1.3c-0.2,0.1-0.4,0.1-0.5,0.2c-4.9,1.6-9.9,3.4-14.9,4.8C166.9,81.6,166.8,81.6,166.8,81.6z"/>
	<path class="st0" d="M239.8,73c-0.1-0.2-0.1-0.5-0.2-0.7c-0.1-0.6-0.3-1.3-0.5-1.9c-0.1-0.2-0.4-0.2-0.4,0.1c0,0.1,0,0.2,0,0.3
		c-0.8-0.2-17.1,3.7-20.4,4.5c-6.5,1.5-12.9,3-19.4,4.5c-12.5,2.9-25.2,5.3-37.5,8.9c-3.3-3.4-9.5-5-13.9-4.1
		c-3.4,0.7-6.1,2.5-8.3,5c0.2-0.3,0.5-0.6,0.7-0.9c1.7-2.1,3.9-3.8,6.5-4.7c5.3-1.9,11.4-0.5,15.4,3.6c0.1,0.1,0.3,0.1,0.4,0.1
		c0.3-0.2,0.6-0.3,0.9-0.5c0.1,0,0.1-0.1,0.5-0.3c1-0.2,14.4-3.6,16.3-4.1c5.7-1.3,11.5-2.6,17.2-3.9c0.1,0,33.9-7.4,34.8-8.3
		c1,0,0.2-0.9-0.7-1.8c0.1-0.1,0-0.4-0.2-0.4c-0.1,0-0.2,0-0.2,0c-0.5-0.4-0.9-0.8-1.1-1c-0.8-0.8-1.5-1.6-2.1-2.5
		c1.2,0.7,2.4,1.4,3.7,2.1c0.6,0.3,7.3,4.9,7.4,3.3c-0.3,0-0.5-0.3-0.4-0.6c-1.7-1.6-4.5-2.6-6.5-3.8c-1.6-0.9-3.2-1.8-4.8-2.6
		c0-0.2-0.1-0.3-0.3-0.3c-0.1,0-0.1,0-0.2,0c-0.6-1.1-1.2-2.4-1.7-3.6c0,0,0.1,0,0.1,0c0.2-0.1,0.2-0.5-0.1-0.4c-0.1,0-0.1,0-0.2,0
		c-0.3-0.8-0.6-1.5-0.9-2.1c-0.5-0.4-1.1-0.8-1.5-1.3c-0.1,0-0.2,0-0.3,0c-1.3-0.9-7.3-4.2-8.7-4.9c2.6-0.7,5.5-0.2,4.9-1.1
		c0-0.9-6.7-4.4-7.6-4.9c0.8-0.2,2.7-0.7,3.2-1.4c0.2-0.1,0.3-0.1,0.5-0.2c0-0.3,0-0.7,0.1-1c-2.5-1.6-5-3.4-7.7-4.7
		c1-0.4,1.9-0.7,2.9-1.1c0.1-0.3,0.1-0.4,0.3-1c-1.1-1-2.6-1.5-3.9-2.1c-1.2-0.6-2.4-1.1-3.7-1.6c0.6-0.2,1.3-0.3,1.9-0.5
		c0.3-0.1,0.4-0.4,0.3-0.7c0.1-0.1,0.1-0.3-0.1-0.4c-2.9-2.3-6.4-4.4-9.8-6.1c0.9-0.3,1.7-0.6,2.6-1c0,0,0.1,0,0.1,0
		c0.1,0,0.1,0,0.2,0c0-0.2,0-0.3,0-0.5c0-0.2-0.1-0.4-0.1-0.6c-1.3-1.1-2.9-1.8-4.4-2.6c-1.8-1-3.7-2-5.5-3
		c-3.4-1.9-6.9-3.8-10.3-5.6c-3.9-2.1-7.7-4.3-11.6-6.4c-1.8-1-3.6-1.9-5.5-2.8c-1.3-0.7-3.3-2.1-4.8-1.3c-3.4,1.9-6.3,4.1-9.1,6.7
		c-3.3,3-6.4,6.3-9.1,9.8c-6.4,8.1-11,17.5-11.9,20.2c-3.4-5.8-6.9-11.5-10.5-17.1c-0.2-0.1-0.3-0.1-0.5-0.2c-0.1,0-0.2-0.1-0.3-0.1
		c-0.1-0.1-0.2-0.1-0.3-0.1c-0.3-0.1-0.8-0.4-1.3-0.6c-3.7-0.9-7.5-1.4-11.2-2.4c-4.4-1.2-8.7-2.6-12.9-4.1c-6.6-2.5-13-5.6-19.2-9
		c0,0,0,0,0-0.1c-0.5-0.7-1.4-1.1-2.2-1.5c-0.4,0.1-0.7,0.2-1.1,0.3c0,0,0,0,0,0.1c0.7,1,1.3,2.2,2.1,3.3c-0.3-0.2-0.7-0.5-1-0.7
		c0,0,0,0,0,0c-0.2-0.1-0.4-0.2-0.5-0.4c0,0-0.1-0.1-0.1-0.1c0,0.2,0,0.4-0.1,0.6c0,0,0.1,0,0.1,0.1c6.9,15.3,23.1,30.4,36.1,41.2
		c-14.1-9.5-29.7-19.1-54.4-22.9c-0.8-0.2-1.6-0.3-2.4-0.1c0,0,0,0,0,0c-0.1-0.1-0.2,0-0.3,0.1c-0.1,0-0.1,0.2,0,0.2c0,0,0,0,0,0.1
		c2.2,1.6,5.2,3.6,7.4,5.1c-2.7-0.7-6.6-1.1-9.1-1.2c-2.2-0.1-4.7-0.3-6.9,0.1c-0.4,0.1-3.5,0.6-2.6,1.2c-0.2,0.1-0.5,0.4-0.2,0.6
		c0,0,0,0.1,0,0.1c0.4,0.2,0.7,0.4,1.1,0.6c1.9,1.3,3.9,2.6,5.9,3.9c-4.4-0.9-9-1-13.6-0.5c-0.5,0.1-0.5,0.8,0,0.8c0,0,0,0,0.1,0
		c3.9,2.5,7.8,5,11.5,7.7c-2.6-0.6-16.3-1.8-17.9-1.8C20.1,40,19.5,40,18.9,40c-0.2,0.2-0.4,0.5-0.5,0.7c0,0,0,0,0.1,0.1
		c0,0,0.1,0.1,0.1,0.1c0.1,0.1,0.2,0.2,0.3,0.2c0.1,0,0.1,0.1,0.2,0.1c3.3,2.2,6.7,4.4,10.1,6.6c-2.6-0.2-5.5,0.1-8.1,0.2
		c-3.1,0-6.2-0.1-9.3,0.2c0,0.1-0.1,0.1-0.2,0.2c-0.2,0.1-0.3,0.1-0.5,0.1c-0.2,0.1-0.4,0.2-0.6,0.3c-0.1,0-0.2,0.1-0.4,0
		c0,0-0.1,0-0.1,0c-0.1,0-0.1,0.1-0.4,0c-0.1,0-0.3,0-0.4,0.1c-0.3,0.4-0.5,0.9-0.7,1.4c-0.2,0.6-0.2,1.1-0.3,1.7
		c0,0.2,0,0.3,0.1,0.4c0,0.2,0,0.4,0,0.5c0,0,0,0.1,0,0.1c-0.5,0.1-0.9,0.5-1.1,1c-0.1,0.3-0.2,0.6-0.1,1c0,0,0,0.1,0,0.1
		c-0.3,0.1-0.6,0.4-0.8,0.7c0,0-0.1,0.1-0.1,0.1c0,0,0,0,0,0.1c-0.1,0.1-0.1,0.2-0.2,0.3c-0.1,0.1,0,0.3,0.1,0.3c0,0.3,0,0.7-0.1,1
		c0,0,0,0,0,0.1c0.1,0.1,0.1,0.3,0,0.4c-0.3,0.5-0.5,0.9-0.8,1.4c0,0,0,0.1,0,0.1c-0.2,0.3-0.4,0.6-0.5,1c0,0.1-0.1,0.1-0.1,0.1
		c0,0,0,0,0,0.1c-1.5,0.9-1.8,3.6-1.6,5.4c-0.2,0.1-0.2,0.3-0.1,0.5c0,0-0.1,0-0.1,0c-0.6,0.1-1.3,0.2-1.9,0.4
		c-0.1,0-0.1,0.1-0.2,0.2c-0.3-0.2-0.7,0-0.7,0.4c0,0.5,0,0.9,0.1,1.4c-0.1,0.1-0.2,0.2-0.1,0.3c0,0,0.1,0.1,0.1,0.1c0,0,0,0,0,0
		c0,0.2,0.2,0.3,0.3,0.3c5.4,5.3,11.2,10.2,17.2,15c-0.1,0.7-0.2,1.5-0.4,2.2c-0.2,1-0.4,2-0.6,3.1c-0.4-0.1-0.8,0-1.2,0
		c-0.2,0-0.4,0-0.6,0c-0.1,0-0.1-0.1-0.2-0.1c-0.2,0.1-0.4,0.2-0.6,0.3c0,0.6,0.1,1.2,0.3,1.8c0,0.1,0.1,0.1,0.2,0.2
		c1.5,1,3.1,1.9,4.6,2.9c-0.2,1.6,0.2,3.4,0.2,5.1c0,1.6-0.1,3.3-0.2,4.9c0,0,0,0,0,0l0,0c0,0-0.1,0-0.1,0c-0.5,0-1.1,0.1-1.5,0.3
		c-0.2,0.1-0.1,0.3,0,0.4c-0.1,0.3-0.1,0.7-0.1,1c0,0.5,0.1,0.9,0.1,1.4c-0.1,0.1-0.1,0.3,0,0.5c1.9,1.4,4,2.4,5.9,3.7
		c21.2,15,43.6,27.7,66.1,39.8c7.1,3.8,14.1,7.8,21.1,11.7c0.1,0.1,0.3,0.1,0.4,0.1c0.1,0.1,0.2,0.2,0.4,0.3
		c0.1,0.1,0.2,0.2,0.4,0.1c6.9-2.1,13.7-4.8,20.5-7.3c6.9-2.5,13.8-5,20.7-7.5c13.7-5,27.6-9.6,41.2-15.1c0.2-0.1,0.4-0.3,0.4-0.5
		c0.1-0.1,0.2-0.1,0.2-0.2c0.1,0,0.2,0,0.2-0.1c0-0.1,0-0.1,0.1-0.2c0.3-0.5,0.5-1.2,0.4-1.7c0.4-2.6,0.1-5.5-0.2-7.9
		c-0.4-2.5-0.5-5.2-1.9-7.3c0.7-0.2,1.4-0.5,2.1-0.7c0,0,0,0,0.1,0c0.3,0,0.6,0,0.9-0.1c0,0,0,0,0.1,0c0.5,0,0.9-0.2,1.2-0.5
		c4.3-2.4,3.4-12.8,2.4-17.6c-0.4-2-0.8-4.6-1.6-6.5c-1.5-3.4-6.8-4.4-9.8-5.6c3.9-0.9,7.8-1.7,11.6-2.6c12.9-2.9,25.8-5.8,38.7-8.7
		c0,0,0,0.1,0,0.1l0.6-0.9C239.9,73.2,239.9,73.1,239.8,73z M160.3,85.2c-1.2-0.9-2.5-1.5-3.8-2c-1.4-0.3-2.7-0.7-4-0.9
		c-3.2-0.2-6.5,0.6-9.3,2.5c-0.3,0.2-0.5,0.5-0.8,0.6c-0.1,0.1-0.2,0.1-0.3,0.1c-0.1,0.1-0.2,0.2-0.3,0.3c-1.6,1.3-2.8,2.9-4.2,4.5
		c-0.1,0-0.2,0-0.4,0.1c0.8-1.4,1.6-2.8,2.8-4.1c0.5-0.5,1-1,1.5-1.4c0,0,0,0,0,0c0.4-0.4,1-0.8,1.4-1.2c0.6-0.4,1.2-0.8,1.8-1
		c0.7-0.3,1.5-0.6,2.3-0.8c1.4-0.3,2.9-0.5,4.3-0.4c1.2,0.1,2.4,0.2,3.6,0.5c1,0.3,2.2,0.7,3.1,1.2c0.2,0.1,2.4,1.6,2.4,1.6
		C160.4,85,160.4,85.1,160.3,85.2z M59.4,99.2C59.4,99.2,59.4,99.2,59.4,99.2c3.3-0.5,6.6-1.1,9.8-1.6c3.5-0.6,7.1-0.9,10.5-2
		c0.1,0,0.1-0.2,0-0.2c-3.5,0-6.9,0.8-10.3,1.4c-3.3,0.5-6.5,1-9.8,1.6c0.1-0.3,0.2-0.5,0.3-0.8c12.5-2.2,25.1-3.8,37.8-4.9
		c6.1-0.5,12.2-1,18.4-1.2c3.2-0.1,6.4-0.2,9.5-0.3c0.7,0,1.5,0,2.2,0c-0.7,0.1-1.3,0.1-2,0.2c-3.2,0.3-6.3,0.6-9.5,0.9
		c-6.3,0.7-12.7,1.4-19,2.3c-6.5,0.9-13,1.9-19.5,3c-3.1,0.5-6.3,1.1-9.4,1.7c-3,0.6-6,1-9,1.8c0-0.1,0.1-0.2,0.1-0.3
		C59.4,100.2,59.3,99.7,59.4,99.2z M133.9,90.5c0.1,0,0.1,0,0.2,0c0.2,0,0.6,0.1,1,0.1c-0.1,0-0.1,0-0.2,0c-0.2,0-0.5,0-0.7,0
		c-2.6-0.2-5.3,0-7.9,0c-3.2,0-6.4,0.1-9.5,0.2c-6.5,0.2-12.9,0.5-19.4,1.1c-12.4,1.1-24.8,2.7-37.1,4.8c0.1-0.1,0.1-0.3,0.2-0.4
		c6.2-1,12.4-2.4,18.6-3.4c6.5-1,12.9-1.8,19.4-2.3c6.3-0.5,12.7-0.8,19-0.8C122.9,90,128.4,90.4,133.9,90.5z M67.8,100
		c3.1-0.6,6.2-1.2,9.4-1.7c6.5-1.1,13-2.1,19.5-3.1c6.7-0.9,13.5-1.7,20.2-2.4c3.2-0.3,6.3-0.6,9.5-0.9c0.6-0.1,1.2-0.1,1.8-0.1
		c-10.1,1.6-20.1,3.4-30.1,5.2c-6.6,1.2-13.2,2.5-19.7,3.8c-6.5,1.3-13.2,2.5-19.6,4.2c0.1-1.1,0.1-2.1,0.3-3.1c0,0,0,0-0.1,0
		c0-0.1,0.1-0.1,0.1-0.2C62.1,101.3,65,100.5,67.8,100z M58.8,105.5C58.8,105.5,58.9,105.5,58.8,105.5c0-0.1,0-0.2,0-0.3
		c0,0,0,0,0,0c6.6-1.1,13.2-2.7,19.7-4c6.6-1.3,13.2-2.6,19.8-3.8c12.3-2.2,24.6-4.2,36.9-6.1c-0.3,0.2-1,0.3-1.2,0.3
		c-0.8,0.2-1.6,0.5-2.4,0.6c-1.5,0.3-3,0.6-4.6,0.9c-1.6,0.3-3.1,0.7-4.7,1c-2.9,0.6-5.9,1.3-8.8,1.9c-6.9,1.5-13.8,3-20.8,4.5
		c-5,1.1-10,2.2-15,3.3c-3.4,0.8-6.8,1.5-10.2,2.3c-2.1,0.5-4.2,1-6.3,1.5c-1.1,0.3-2.2,0.5-3.3,0.8c-0.1,0-1.2,0.3-1.2,0.3
		c0,0-0.1,0-0.5,0c0.1-0.1,0.1-0.8,0.1-0.9C58.4,107.7,58.3,108.2,58.8,105.5z M57.2,109.1c2,0.1,77.8-16.4,79-16.6
		c0.2,0,0.3-0.2,0.4-0.3c0.7-0.3,1.2-0.8,1.7-1.4c-0.4,0.5-0.8,1.1-1.2,1.7c0,0-0.1,0-0.1,0.1c-0.1,0.1-0.2,0.2-0.2,0.3
		c-3.3,0.4-6.7,1.4-9.9,2.1c-18.6,4.1-60.9,12.5-69.9,14.8c0-0.1-0.1-0.1-0.5-0.5C56.7,109.3,56.9,109.2,57.2,109.1z M136.4,91.6
		C136.4,91.6,136.4,91.5,136.4,91.6c0.1-0.2,0.2-0.3,0.3-0.5c0.1,0,0.1,0,0.2,0C136.8,91.2,136.6,91.4,136.4,91.6z M60.1,47.9
		c4,3.9,7.6,8.2,10.6,12.9c0.8,1.2,1.6,2.5,2.9,3c0.8,0.3,1.6,0.4,2.4,0.5c11.4,0.9,22.4,3.9,33.4,7c11.1,3,22.3,6.1,32.4,11.7
		c-0.1,0-0.3,0.1-0.4,0.1c-1.7-1-3.8-1.5-5.5-2.3c0,0,0,0,0,0c1.4,0.7,2.8,1.7,4.2,2.4c-1-0.1-2.1-0.5-3.1-1
		c-19.8-8.8-41-14.6-62.6-17c-0.8-0.1-1.7-0.2-2.3-0.6c-0.5-0.3-0.9-0.9-1.3-1.4c-3.7-5-7.7-9.8-12-14.4c-2.2-2.3-4.5-4.6-6.8-6.8
		c-1.1-1.1-2.3-2.1-3.5-3.2c-1-0.9-2.9-2-3.4-3.1c1-0.1,2.8,1.3,3.8,1.9c1.3,0.8,2.6,1.6,3.8,2.5c2.5,1.8,4.9,3.9,7.2,6
		c4.6,4.4,8.7,9.2,12.6,14.2c0.4,0.5,0.8,1,1.4,1.4c0.7,0.5,1.5,0.6,2.3,0.8c7.5,1.5,14.9,3.2,22.3,5c-7.8-1.8-15.7-3.2-23.6-4.2
		c-0.6-0.1-1.2-0.1-1.7-0.5c-0.4-0.3-0.7-0.7-0.9-1.1C68.9,56.6,64.8,51.9,60.1,47.9C60,47.9,60,47.9,60.1,47.9z M155.9,72.3
		c-1,1.8-2.6,5.6-3.2,8c-0.4,0-0.9-0.1-1.3-0.1c0.5-1.5,2.8-6.5,5.5-10.8c10.5-17,26.5-28,45-32.2C201.7,37.3,168.9,47.1,155.9,72.3
		z M204.4,36.7c0.4-0.1,0.8-0.2,1.1-0.2c-22.3,6.7-44.3,27-52,43.9c-0.1,0-0.3,0-0.4,0C161.7,57.5,182.1,45,204.4,36.7z M151.3,73.8
		c0.3-0.9,0.6-1.8,0.9-2.7c5.5-14.6,15.6-27.1,29.9-34.3c7-3.6,13.3-4.8,13.5-4.9c-22.8,6.7-41.9,29.3-44.9,48.1
		c-0.1-0.2-0.1-0.2-0.5-0.8C150.2,77.7,150.1,77.3,151.3,73.8z M160.7,85.5c0-0.1,0-0.1,0.2-0.2c0.5,0.4,1,0.8,1.5,1.3
		C161.8,86.6,161.7,86.3,160.7,85.5z M227,63.6c0.1,0.3,0.2,0.5,0.3,0.8c-0.1-0.2-0.3-0.5-0.4-0.7C226.9,63.7,227,63.7,227,63.6z
		 M222.1,56.9c-3.4,0.3-6.9,1.5-10.2,2.2c-4.1,0.8-8.1,1.8-12.1,2.6c-0.1,0,0,0.1,0,0.1c3.9-0.8,7.9-1.4,11.9-2.2
		c1.9-0.4,3.8-0.8,5.7-1.1c1.8-0.3,3.7-0.5,5.4-1.1c0.2,0.6,0.4,1.3,0.7,1.9c-6.9,1-13.8,3.1-20.5,5.1c-7.4,2.2-14.5,5-21.7,7.8
		c0,0,0,0.1,0,0.1c7-2.7,14.3-4.9,21.5-7c6.9-2,13.9-3.4,20.8-5.4c0.4,0.7,0.8,1.4,1.2,2.1c0.1,0.1,0.1,0.2,0.2,0.2
		c0.1,0.2,0.4,0.5,0.7,1c-7.1,0.5-14.3,2.2-21.1,3.9c-7.4,1.9-14.7,4.2-21.8,6.9c-0.1,0,0,0.2,0,0.1c7.1-2.4,14.3-4.5,21.7-6.2
		c3.6-0.8,7.2-1.6,10.9-2.3c3.6-0.7,7.2-1.1,10.8-1.9c1.1,1.5,2.5,3.4,2.6,3.5c0.3,0.4,0.6,0.8,0.9,1.2c-6.8,0.6-13.7,2.2-20.4,3.7
		c-7.4,1.7-14.5,3.9-21.7,6.2c-0.1,0-0.1,0.2,0,0.2c7.1-2.2,14.3-4,21.5-5.6c6.9-1.5,13.9-2.6,20.9-3.9c0.2,0.3,0.4,0.5,0.7,0.8
		c-11.3,3-22.6,5.6-33.9,8.2c-4.9,1.1-9.8,2.2-14.7,3.3c-3.4,1.6-7.4,2.4-11.2,3c-0.8,0.2-1.7,0.4-2.5,0.5c-0.5,0.2-1,0.3-1.4,0.5
		c-0.8,0.3-1.9,0.7-2.8,0.6c-0.1,0-0.3,0.1-0.4,0.1c0-0.1,0.1-0.1,0.1-0.2c-0.1,0-0.1,0-0.2,0c0,0.1-0.1,0.2-0.1,0.3
		c-0.1,0-0.1,0-0.2,0.1c-0.1,0-2.2-2.1-2.5-2.4c-0.1-0.1-0.3-0.1-0.4-0.2c3-1.3,5.9-3.2,8.8-4.8c3.5-1.9,7-3.9,10.5-5.8
		c0,0,0-0.1,0-0.1c-3.5,1.8-6.9,3.5-10.4,5.3c-3.1,1.6-6.5,3.1-9.5,5c-0.1,0-0.1-0.1-0.2-0.1c-0.1,0-0.1-0.1-0.2-0.1
		c4-2.7,7.8-5.6,11.9-8.2c2.1-1.3,4.2-2.6,6.4-3.8c2.2-1.2,4.6-2.3,6.7-3.7c1.5-0.7,3.1-1.4,4.6-2c5.4-2.2,10.9-4,16.5-5.4
		c5.2-1.3,10.4-2.1,15.6-3.1C221.6,56.7,221.8,56.8,222.1,56.9z M216.2,53.6c0.7,0.4,2.9,2.4,3.8,2.3c-4.9,0.5-9.9,1.6-14.5,2.8
		c-5.8,1.5-11.5,3.5-17.1,5.8c-1.4,0.6-2.7,1.2-4.1,1.8c0,0,0,0,0,0c-0.3,0.2-0.7,0.4-1,0.7c-1.8,0.7-3.6,1.7-5.3,2.6
		c-2.4,1.3-4.7,2.6-6.9,4.1c-4.1,2.6-8.3,5.4-11.8,8.8c-0.6-0.4-1.1-1-1.8-1.1c0.7-1.6,1.9-3.1,3.1-4.4c1.3-1.4,2.6-2.6,3.9-3.9
		c9.5-9.6,22-16.3,35.1-20c3.7-1,7.4-1.7,11.2-2.1c-11.8,2.8-23.5,7.9-33.7,14.4c-0.2,0-0.3,0-0.3,0.2c-0.5,0.3-0.9,0.6-1.4,0.9
		c-0.1,0-0.2,0-0.2,0.1c-1.8,1.2-3.5,2.3-5.2,3.6c-0.1,0-3.3,2.4-6.3,4.9c0,0-0.5,0.4-1.1,1c0,0,0.1,0,0.2,0c0.8-0.5,1.6-1,2.4-1.5
		c1.4-0.9,11.6-8,11.7-8.1c0.4-0.3,15-7.5,16.1-8c5.5-2.4,10.8-5.8,16.8-6.8C212.6,51.2,213.8,52.1,216.2,53.6z M217,49.6
		c-5.7-0.2-11.6,0.9-17.1,2.3c-6,1.5-11.8,3.8-17.2,6.8c-12,6.5-21.8,16-26,22.6c-0.1-0.1-0.3-0.1-0.4-0.1
		c6.9-8.6,14.4-16.4,23.6-22.7c8.7-5.9,19.7-11.3,30-13.4C211.9,46.6,214.4,48.4,217,49.6z M212.7,42.6c-4.6,1.9-16.4,2.8-33.9,14.9
		c-7.1,4.9-9.5,7.6-13.2,10.6c-1.3,1-2.1,2.5-3.2,3.7c-1.9,2.1-3.6,4.3-5.2,6.6c-0.1,0-0.2,0.2-0.2,0.3c-0.5,0.7-1,1.4-1.4,2.2
		c-0.5-0.1-0.9-0.2-1.4-0.3c1.2-1.4,2.2-2.9,3.1-4.4c0.9-1.5,1.7-3.2,2.7-4.7c9.6-15,25.6-25.5,41.9-32.4c0.5-0.2,3.3-1.6,3.8-1.2
		C207.9,39.6,210.3,41.1,212.7,42.6z M205.6,34.2c0.9,0.5,1.7,1.1,2.6,1.6c-0.6,0.1-1.2,0.1-1.8,0.2c0.4-0.1,0.7-0.2,1.1-0.2
		c-6.2,1.4-12.4,2.3-18.3,4.7c-5.9,2.4-12,5.6-17,9.6c-8.5,6.7-14.9,15.9-19.5,26.1c6.3-19.2,20-33.2,35.8-40.1
		c3.2-1.4,6.8-3,10.2-3.7c0.9-0.2,1.8-0.2,2.6,0C202.8,32.8,204.2,33.5,205.6,34.2z M202.9,30.4c-0.2,0-0.4,0.1-0.7,0.1
		c-0.2,0-0.4,0-0.6,0c-0.6,0-1.2,0.1-1.9,0.2c-0.7,0.1-1.5,0.2-2.2,0.3c-9.8,1.5-21.6,6.3-30.3,14.6c-4.3,4.1-7.6,9.2-10.8,14.2
		c-4.2,6.7-2.5,4.4-6.1,15c0.4-1.3,0.4-2.9,0.7-4.3c2-10.1,6.8-20.3,14-28.1c2.8-3.1,6-5.9,9.3-8.4c4.2-3.1,9-5.8,14.3-8
		c0.7-0.3,4.4-2.2,4.9-1.8C196.5,26.5,199.7,28.8,202.9,30.4z M125.8,38.2c1.1-1.7,3.7-10.3,12.3-21.1c2.5-3.2,5.3-6.1,8.3-8.9
		c1.5-1.4,3.1-2.8,4.7-4.1c0.5-0.4,1.1-0.8,1.8-1.2c1.2-0.7,2.3-1.5,3.6-2.2c0.1,0.1,0.2,0.1,0.4,0.2c6.3,4.1,13,7.5,19.5,11.1
		c3.4,1.9,6.8,3.8,10.3,5.7c1.8,1,3.6,2,5.5,3c1.1,0.6,2.1,1.3,3.3,1.8c-1.8,0.4-3.5,1-5.1,1.6c-7.5,2.8-14.2,6.8-20.3,12.1
		c-3.7,3.2-7,6.8-9.9,10.7c-0.1,0-0.1,0.1-0.1,0.1c-6.5,8.9-10.8,19.5-10.5,30.5c-1-1.6-1.9-3.2-2.9-4.9c0.3,0.2,0.5,0.4,0.8,0.7
		c0.2,0.2,0.5,0.4,0.7,0.6c0.1,0.1,0.3,0.2,0.5,0.3c0.1,0,0.2,0.1,0.3,0.1c0.1,0,0.2-0.2,0.2-0.2c-0.1-0.1-0.2-0.2-0.3-0.3
		c-0.6-0.6-1.2-1-2.1-1.8c-0.3-0.3-0.6-0.5-0.9-0.8c-0.5-0.8-0.9-1.6-1.4-2.4c0,0,0.1,0.1,0.1,0.1c0.4,0.3,0.8,0.6,1.2,1
		c0.3,0.2,0.5,0.4,0.8,0.6c0.2,0.1,0.3,0.2,0.5,0.3c0.1,0.1,0.2,0.1,0.3,0.1c0.1,0,0.2-0.2,0.1-0.2c-0.1-0.1-0.2-0.2-0.3-0.3
		c-0.7-0.7-1.3-1.1-2.3-1.9c-0.4-0.4-0.9-0.7-1.2-1.1c-1.1-1.9-2.3-3.8-3.4-5.7c-4.2-6.9-8.9-13.7-12.7-20.9
		C127.1,40.7,125.6,38.5,125.8,38.2z M67.2,3.1c6.4,4.1,13.2,7.4,20.3,10.1c4.2,1.6,8.5,3,12.9,4.2c4.3,1.2,8.9,2.6,13.4,2.8
		c0.1,0,0.1,0,0.2,0c3.7,6.8,31.6,52.8,35.6,59.4c0.1,0.2,0.1,0.3,0.2,0.5c0,0.1,0.1,0.1,0.1,0.2c-0.4,0-0.7,0.1-1.1,0.1
		c-2.3-4.6-5.2-9-7.8-13.4c-2.7-4.6-5.4-9.2-8.1-13.8c-13.6-23-13.2-22.8-15.8-26.3c-0.3,0-0.5-0.1-0.8-0.3c0,0,0,0,0,0c0,0,0,0,0,0
		c-0.3-0.2-0.7-0.3-1-0.4c-0.1,0-0.1-0.1-0.2-0.1c-6.7-2-13.8-3.3-26.4-9.2C81.6,13.8,75.3,9.9,69,5.9c0,0,0,0-0.1,0
		c-0.2-0.1-0.3-0.2-0.5-0.3C68.1,4.7,67.6,3.9,67.2,3.1z M89.4,33.3c-0.3-0.2-0.5-0.5-0.8-0.8c-0.2-0.2-0.4-0.4-0.6-0.6
		c-3.8-3.8-7.5-7.7-10.9-11.8c-3.7-4.5-6.9-9.3-9.7-14.3c6.3,5,13.5,9.1,20.7,12.6c8.3,4,17.4,7.6,26.5,9.2c0.5,0.1,0.9,0.3,1.4,0.2
		c0.2,0.1,0.5,0.1,0.7,0.1c1.7,3.7,1.3,2.5,15,26c2.6,4.5,5.3,9,7.9,13.5c1.4,2.4,2.9,4.7,4.3,7.1c0.4,0.7,2.8,6.4,3.6,6.2
		c-0.1,0-0.2,0-0.3,0.1c-0.3,0.1-0.6,0.2-0.9,0.3c-5.3-6.8-12.5-11.4-36.2-30.1C102.8,45.4,95.9,39.6,89.4,33.3z M46.4,23.6
		c0.3,0,0.7,0,1,0c32.8,7.1,44.5,17.1,62.9,29c1.8,1.4,3.6,2.7,5.4,4.1c2.2,1.7,4.4,3.4,6.5,5.1c0,0.1,0.1,0.2,0.2,0.2
		c0.1,0,0.1,0.1,0.2,0.1c1.6,1.3,3.2,2.6,4.8,3.9c-2.2-1.3-4.5-2.5-6.7-3.6c-9.9-5.1-39.3-19.5-50.4-19.7c0-1.1-9.8-9.5-12-11.2
		C54.5,28.6,50.6,25.7,46.4,23.6z M43,28c2.1,0.1,4.3,0.4,6.4,0.8c0.9,0.2,1.9,0.4,2.8,0.6c0.6,0.1,1.2-0.1,1.7,0.1
		c0.6,0.2,1.1,0.9,1.7,1.3c0.8,0.6,1.6,1.2,2.4,1.9c1.7,1.4,3.4,2.9,5,4.4c0.9,0.8,1.9,1.5,2.7,2.4c0.6,0.6,1,1.3,1.7,1.8
		c0.6,0.5,1.2,1.1,1.8,1.7c0.6,0.6,1.3,0.8,2.1,0.9c1,0.1,2.1,0.3,3.1,0.5c2.2,0.5,4.3,1.1,6.5,1.7c4.3,1.3,8.4,2.9,12.5,4.8
		c2.1,0.9,4.1,1.9,6.2,2.9c8.1,4,16.7,7.4,24.4,12.1c6.4,3.9,15.5,7.8,19.8,14.2c-1.9-1.1-3.9-2.3-5.8-3.4c-2.8-1.6-5.7-3.1-8.6-4.5
		C114,64.7,94.1,58,76.7,56.4c0-0.1,0-0.2,0-0.4c-2.1-3.9-5.7-7.3-8.9-10.3c-3.3-3-6.8-5.8-10.5-8.2c-6.8-4.4-14.4-7.5-22.3-9.3
		C37.6,28.1,40.3,27.8,43,28z M34.4,29.1C34.4,29.1,34.5,29.1,34.4,29.1c0.3,0,0.6,0,0.8,0c0.1,0,0.2-0.1,0.2-0.1
		c7.4,2.1,14.5,5.2,20.9,9.4c3.7,2.4,7.3,5.2,10.5,8.2c1.8,1.7,3.4,3.5,5,5.4c0.8,0.9,1.6,1.9,2.4,2.8c0.8,0.8,1.6,1.6,2,2.7
		c-0.1-0.2,1.5,0.1,1.7,0.1c0.8,0.2,1.6,0.2,2.4,0.3c7.9,1.3,15.7,3.5,23.4,5.7c4.2,1.2,8.3,2.5,12.4,4c1.3,0.5,2.5,1,3.8,1.5
		c3,1.2,6,2.6,8.9,4c2.7,1.3,5.4,2.7,8,4.1c2.6,1.4,5,3.1,7.7,4.4c-0.3-0.1-0.8,0.3-1.2,0.6c-0.2,0.1-0.4,0.2-0.6,0.4
		c-2.9-1.8-5.9-3.4-9.1-4.6c-1.8-0.8-3.7-1.3-5.5-2.1c-6.2-2.8-12.3-4.5-18.7-6.6c-5.7-1.8-11.4-3.4-17.2-4.8
		c-5.6-1.3-11.4-2.9-17.1-3.3C70.2,53.7,63.5,47,56.5,41.5c-2.4-1.9-4.8-3.6-7.4-5.2c0-0.1-0.1-0.1-0.2-0.1c0,0,0,0-0.1,0
		c-1.1-0.7-2.3-1.4-3.4-2C42,32.2,38.3,30.2,34.4,29.1z M44.1,34.6c-0.4-0.1-0.7-0.2-1.1-0.3c-0.6-0.4-1.2-0.9-1.9-1.3
		C42.1,33.5,43.1,34,44.1,34.6z M27.8,33.9c1,0.4,3.5-0.2,4.7-0.2c1.8,0,3.6,0.2,5.4,0.4c6.9,0.9,12.4,7.2,17,11.9
		c5.9,6,11.1,12.6,16.4,19c0,0,0,0.1,0.1,0.1c0,0,0,0,0,0c0.2,0,0.3,0.5,0.5,0.6c0.2,0.1,0.5,0,0.7,0.1c0.6,0.1,1.3,0.3,1.9,0.3
		c0.5,0,0.9-0.1,1.3-0.1c1.5,0.2,3.1,0.5,4.6,0.8c3.1,0.5,6.1,1,9.2,1.6c7.6,1.6,15.1,3.4,22.6,5.6c0.9,0.3,1.9,0.6,2.8,0.9
		c4.4,1.4,8.8,3,13.1,4.7c2.1,0.9,4.3,1.7,6.4,2.7c1,0.4,1.9,0.9,2.8,1.4c0.5,0.3,1,0.5,1.5,0.7c0.3,0.2,0.6,0.4,0.9,0.5
		c-0.9,0.9-1.7,2-2.4,3c-0.7-0.5-1.7-0.9-2.5-1.3c-1-0.6-2.1-1.2-3.1-1.7c-1.7-0.8-3.4-1.6-5.2-2.2c-4.7-1.9-9.5-3.3-14.3-4.8
		c-8.3-2.5-16.7-4.7-25.3-6.3c-4.2-0.8-8.4-1.5-12.6-2c-2-0.2-4.1-0.4-6.1-0.6c-0.8-0.1-1.8,0.2-2.3-0.4c-0.5-0.5-0.7-1.3-1-2
		c-0.6-1.1-1.4-2.2-2.1-3.2c-1.5-2-3.2-3.9-4.8-5.8c-3-3.5-6.2-6.7-9.6-9.8C42.1,42.4,35.3,37.3,27.8,33.9z M18.9,40.5
		C18.9,40.5,18.9,40.5,18.9,40.5c0.1-0.1,0.3-0.2,0.4-0.2c1.3,0.3,19,2.8,20.1,2.1c0.1-0.1,2.4,1.6,2.6,1.8c1,0.8,2,1.7,2.9,2.6
		c3.7,3.6,7.5,6.6,10.8,10.6c2.5,3.1,5.5,6,7.6,9.4c1.1,1.7,1.1,2.6,3.2,3c2.2,0.3,4.3,0.6,6.5,0.9c7.3,1.1,14.6,2.2,21.8,3.8
		c9,2,17.9,4.6,26.6,7.6c2.8,1,5.6,1.9,8.3,2.9c2.5,1,4.8,2.2,7.2,3.3c0,0.1-0.1,0.1-0.1,0.2c-5.8-2.4-12.2-4-18.3-5.6
		c-10.1-2.7-30.1-6.9-38-7.9c-3.1-0.4-6.3-0.6-9.4-0.6c-1.7,0-4.5-0.1-6.4,0.6c-3-3.5-6.7-6.7-10.2-9.8c-3.6-3.1-7.3-6.2-11-9.1
		C35.7,50.3,27.6,44.6,18.9,40.5z M21,48.9c3.1,0,6.5,0.4,9.5-0.2c5,3.3,8.7,5.9,12.1,8.5c-2.9-2-5.6-3.7-7.8-4.7l-0.6-0.3
		c-2-0.9-1.9-1-2-0.8c-0.1,0.1,0.1,0.2,0.3,0.3l0.6,0.3c0.5,0.2,0.9,0.5,1.4,0.7l0.2,0.1c2.4,1.3,5.7,3.3,9.1,5.8
		c1.6,1.2,3.1,2.4,4.6,3.6c0,0,0,0,0,0c-3.1-2.1-6-3.9-8.2-5.1l-0.6-0.3c-2.1-1.1-2-1.1-2.1-0.9c-0.1,0.1,0.2,0.2,0.3,0.3l0.6,0.3
		c0.5,0.3,1,0.5,1.5,0.8l0.2,0.1c2.6,1.5,6.1,3.7,9.8,6.3c0.7,0.5,1.3,1,2,1.5l1.2,1.1c0.3,0.3,0.6,0.6,0.9,0.8
		c0.3,0.2,0.3-0.1,0.1-0.3c0,0,0,0,0,0c0.2,0.1,0.4,0.3,0.6,0.4c2.1,1.9,4.3,4,6.9,6.5c0.9,0.6,1.6,1.2,2.4,1.9
		c0.2,0.2,0.2,0.3,0.4,0.3c0.6,0.2,1.3-0.1,1.8-0.2c3.3-0.6,6.9-0.3,10.2-0.1c5,0.3,9.9,1.3,14.9,2.2c8.6,1.6,17.1,3.4,25.6,5.6
		c6.5,1.7,12.8,4,19.3,5.7c-0.1,0.1-0.1,0.3-0.2,0.4C115.5,84.8,81.8,81,61.1,84c-0.1,0-0.2,0.1-0.2,0.2c-0.1-0.1-0.3-0.2-0.4-0.3
		c-0.5-0.4-1.1-0.8-1.6-1.2c-0.1-0.1-0.2-0.1-0.2,0c-6-5.1-14.7-12-21.7-17.2c-4.3-3.2-8.6-6.2-13-9.2c-3.7-2.5-7.5-5.4-11.5-7.4
		C15.3,49.1,18.2,48.9,21,48.9z M5.7,61.7c0.4-0.1,0.5-0.6,0.4-0.9c-0.2-0.5-0.4-0.8-0.7-1.2c0.7-0.2,1.2-0.7,1.6-1.4
		c0.1-0.2,0.2-0.4,0.3-0.6c3,2.6,6.7,4.5,10,6.8c0.1,0,0.2-0.1,0.1-0.1c-3.2-2.5-6.3-5.5-9.9-7.4c0-0.3-0.1-0.6-0.3-0.8
		c0.2-0.2,0.3-0.4,0.4-0.5c0.1,0.1,0.1,0.1,0.1,0.2c0.1,0.2,0.5,0.1,0.5-0.2c-0.1-0.2,0.1-0.8,0.2-1.1c0.1-0.3,0.3-0.5,0.4-0.7
		c0.1-0.1,0.2-0.3,0.2-0.4c0.4,0.5,0.9,0.9,1.3,1.2c0.6,0.6,1.4,1,2.1,1.5c0.1,0,0.1-0.1,0.1-0.1c-0.7-0.5-1.4-1.2-2.1-1.8
		c-0.4-0.4-0.8-1-1.3-1.4c0-0.1,0-0.2,0-0.3c0,0,0.1-0.1,0.1-0.1c0.2-0.5,0.5-1,0.6-1.6c0.1-0.4,0.1-0.9,0.1-1.3
		c0.2,0,0.2,0.1,0.4,0c0.2,0,0.3-0.1,0.5-0.2c0.1-0.1,0.1-0.2,0-0.3c0.1,0,0.2,0,0.4,0c3.6,3,7.9,5.4,11.7,8c4.4,3,8.7,6.1,12.9,9.3
		c16.7,12.5,22.1,18.1,24.8,20c0.1,0.1,0.2,0.1,0.3,0.1c0.1,0.2,0.1,0.4,0.2,0.7c-0.4,0.2-0.8,0.4-1,0.8c-2.4-2.1-5.3-3.6-7.9-5.4
		c-0.1,0-0.1,0,0,0.1c2.5,1.8,5,4,7.7,5.5c-0.1,0.2-0.2,0.4-0.2,0.6c-0.1,0-0.2,0-0.3,0c-0.2,0-0.1,0.3,0,0.3c0.1,0,0.2,0,0.3,0
		c0,0.1,0,0.2,0.1,0.3c0.1,0.2,0.4,0.2,0.5,0.1c0.1-0.1,0.2-0.2,0.2-0.3c2.6,0.1,5.2-0.1,7.8-0.3c3.1-0.1,6.2-0.3,9.2-0.4
		c6.1-0.3,12.1-0.6,18.1-1.1c0.1,0,0.1-0.1,0-0.1c-6.2,0.1-12.3,0.3-18.5,0.5c-3,0.1-5.9,0.3-8.9,0.4c-2.4,0.1-4.9,0.1-7.3,0.4
		c0.1-0.1,0.3-0.2,0.5-0.3c0.3,0,0.5,0,0.8,0c0-0.3,0.1-0.6,0.3-0.8c0,0-0.1,0-0.1,0c0,0,0-0.1,0-0.1c-0.2-0.6-0.4-1.2-0.7-1.9
		c0-0.1,0-0.1,0-0.2c0,0,0,0,0,0c0-0.1,0-0.1-0.1-0.2c0-0.1-0.1-0.2-0.2-0.2c6.2,0,12.4-0.2,18.6-0.1c17.5,0.3,30.7,2.2,46.1,4.8
		c-2.9-0.1-5.9,0-8.8,0c-6.6,0.1-13.1,0.3-19.7,0.9c-6.2,0.5-12.5,1.2-18.6,2.2c-6.2,1-12.6,2-18.6,3.8c0.1-0.5,0.2-1,0-1.6
		c0-0.1,0-0.1,0-0.2c8.4-1,16.7-2.4,25.1-3.7c0.1,0,0-0.1,0-0.1c-8.3,1-16.6,1.8-24.9,3.1c0,0,0,0,0,0c0,0,0-0.1,0-0.1
		c0-0.4-0.8-0.6-0.8-0.1c0,0.1,0,0.2-0.1,0.4c-0.1,0-0.1,0-0.2,0c-0.4,0.1-0.3,0.7,0.1,0.6c0,0,0,0,0,0c0,0.4-0.1,0.7-0.1,1.1
		c0,0.5-0.1,1,0.1,1.4c-0.1,0.1-0.1,0.2-0.1,0.3c-0.1,0.1-0.2,0.4-0.5,1.1c0,0-0.1,0-0.1,0c-2.5-2.2-5.5-3.9-8.2-5.7
		C38,84.2,37.6,84.2,50,93.2c2.6,1.9,5.3,4.1,8.2,5.7c0,0.2,0.2,0.4,0.4,0.3c-0.3,0.9-1,2.8-0.2,3c0,0.1-0.1,0.2-0.1,0.3
		c-7.3-4.8-14.2-9.9-20.8-15.7c-0.1,0-0.1,0-0.1,0.1c6.5,5.9,13.4,11.5,20.7,16.4c-0.1,0.5-0.2,1.1-0.3,1.6c0,0-0.1,0-0.1,0
		c-0.2,0.1-0.1,0.4,0,0.5c0,0,0,0.1,0,0.1c0,0,0,0,0-0.1c-1.1-1.1-2.5-1.8-3.8-2.7c-1.4-0.9-2.9-1.9-4.4-2.8
		c-0.1-0.1-0.2,0.1-0.1,0.2c1.2,1,2.5,1.9,3.7,2.8c1.4,1,2.7,2.2,4.3,2.9c0.1,0,0.2,0,0.3,0c-0.1,0.3-0.1,0.6-0.2,0.9
		c-1.6,0.1-2.2-0.2-1.8,1.7c-3.8-3.6-8.2-6.9-12.3-10.2c-4.4-3.5-8.8-7-13.1-10.5C21.6,81,13.1,73.9,4.6,67c0,0,0,0,0-0.1
		c-0.2-0.1-0.3-0.1-0.5-0.2c-0.1,0-0.3-0.2-0.3-0.3c-0.1-0.1-0.2-0.2-0.3-0.3C3.8,64.6,4.6,62,5.7,61.7z M2.8,67.5
		c0.3,0,0.6-0.1,1-0.1C12,75,21,81.8,29.8,88.8c4.5,3.6,9,7.1,13.4,10.7c2.3,1.9,4.5,3.8,6.8,5.8c-0.3-0.2-0.5-0.4-0.8-0.6
		c-3.7-3-7.5-5.9-11.3-8.8c-8.6-6.6-17.2-13.2-25.7-20c-1.9-1.5-3.9-3-5.8-4.6c-1.1-0.9-2.1-1.9-3.3-2.7C2.6,68.3,2,68,1.4,67.6
		C1.9,67.6,2.3,67.6,2.8,67.5z M18.3,86.7c0-0.1,0-0.2,0-0.3c0.1,0,0.1,0.1,0.2,0.2c0,0,0,0,0,0c0.3,0.3,0.7,0.7,1.3,1
		c0.2,0.2,0.5,0.3,0.7,0.5c0.2,0.1,0.3,0.2,0.5,0.3c0.1,0.1,0.2,0.1,0.3,0.1c0.1,0,0.1,0.1,0.2,0c0.1,0,0.2-0.2,0.2-0.3
		c0-0.1-0.1-0.1-0.2-0.2c-0.4-0.4-0.8-0.6-1.4-1c-0.5-0.4-1-0.8-1.3-0.9c0,0-0.1,0-0.1,0c-0.2-0.1-0.3-0.2-0.3-0.1
		c0-0.3,0.1-0.6,0.1-0.8c2.4,1.9,4.8,3.7,7.2,5.6c0,0,0,0-0.1,0.1c-0.1,0.1,0,0.2,0,0.2c0.1,0,0.1,0.1,0.2,0.1
		c0.1,0.1,0.3,0.2,0.4,0.3c0,0,0,0,0.1,0c0.5,0.4,1.2,1,2,1.5c-0.1,0.1-0.2,0.1-0.3,0.2c-0.2,0.1-0.4,0.2-0.6,0.3
		c-1.4-0.9-1.3-0.9-1.5-0.8c-0.1,0.1,0.1,0.2,0.2,0.3c0.2,0.1,0.3,0.2,0.5,0.3c0.1,0.1,0.3,0.2,0.4,0.3c-0.1,0-0.1,0.1-0.2,0.1
		c0,0,0,0,0,0c-0.7-0.4-1.5-0.8-2.4-1.4c-1.6-0.9-3-1.9-4.1-2.4c-0.1,0-0.2-0.1-0.3-0.1c-0.8-0.4-0.8-0.5-0.9-0.3
		c-0.1,0.1,0,0.2,0.1,0.2c0.1,0.1,0.2,0.1,0.2,0.2c0.2,0.1,0.4,0.2,0.6,0.4c0,0,0,0,0.1,0c1,0.7,2.4,1.6,4,2.5
		c0.7,0.4,1.5,0.9,2.2,1.3c0.5,0.3,1,0.6,1.5,0.8c0.1,0.1,0.2,0.1,0.3,0.2c0,0,0,0,0,0c-0.2,0.2-0.2,0.1-0.1,0.3
		c0.1,0.1,0.1,0.1,0.1,0.1c0,0,0,0,0.1,0c0.1,0,0.1,0,0.2,0c0,0,0,0,0,0c0.1,0,0.2-0.1,0.3-0.1c0,0,0,0,0,0c0.2,0.1,0.3,0.2,0.5,0.2
		c0.2,0,0.2-0.2,0.1-0.3c-0.1,0-0.1-0.1-0.2-0.1c0,0,0,0,0.1,0c0.3,0.2,0.5,0.4,0.8,0.6c-0.4,0.3-0.8,0.4-1.1,0.7c0,0,0,0-0.1,0.1
		c-0.2,0.2-0.2,0.1-0.1,0.3c0.1,0.1,0.1,0.1,0.1,0.1c0,0,0,0,0.1,0c0.1,0,0.1-0.1,0.2-0.1c0,0,0,0,0,0c0.3-0.1,0.7-0.3,1.2-0.6
		c0.1,0,0.1-0.1,0.2-0.1c0.3,0.2,0.7,0.5,1.1,0.8c-0.3,0.1-0.5,0.3-0.7,0.4c0,0,0,0-0.1,0.1c-0.2,0.2-0.2,0.1-0.1,0.3
		c0.1,0.2,0.1,0.1,0.2,0.1c0.1,0,0.1,0,0.2-0.1c0,0,0,0,0,0c0.3-0.1,0.6-0.2,0.9-0.4c0.4,0.3,0.9,0.6,1.4,1c0,0,0,0-0.1,0
		c-0.8,0.3-1.1,0.4-1.7,0.8c-4.7-2.6-9.3-5.2-14-7.8C18,90,18.1,88.3,18.3,86.7z M31.3,95.3C31.3,95.3,31.3,95.3,31.3,95.3
		c0.5,0.4,1,0.7,1.4,1.1c-0.3,0.1-0.5,0.3-0.8,0.5c-0.4-0.3-0.8-0.5-1.1-0.8c0.1-0.1,0.2-0.2,0.3-0.2c0.1-0.1,0.1-0.1,0.2-0.2
		c0,0,0.1-0.1,0.1-0.2C31.4,95.4,31.4,95.3,31.3,95.3z M42.1,103.5c1.3,1,2.6,2,3.9,3c-0.4,0.1-0.7,0.3-1,0.4
		c-0.7-0.4-1.4-0.8-2.1-1.2c0,0,0,0,0,0c0.1-0.1,0.2-0.1,0.3-0.2c0.1,0,0.1-0.1,0.1-0.2c0.2,0.1,0.5,0.3,0.7,0.4
		c0.3,0.2,0.6,0.4,0.9,0.5c0.3,0.1,0.3-0.1,0.1-0.3c-0.4-0.3-0.8-0.6-1.2-0.9c-0.6-0.4-1.2-0.9-1.8-1.3c0,0,0.1-0.1,0.1-0.1
		C42.2,103.6,42.1,103.5,42.1,103.5z M60,114.1c0,0.1,0,0.2,0,0.4c0,0.1,0,0.2,0,0.3c0,0.1,0,0.1,0.1,0.2c0.1,0,0.3,0,0.3,0
		c0-0.1,0-0.2,0.1-0.2c0.1-0.3,0.1-0.5,0.1-0.7c0.2-0.1,1-0.6,1.7-1c-0.1,0.8,0,1.2,0,1.3c-0.9,0.3-1.6,0.6-2.5,1
		c-0.8-0.5-1.7-1-2.5-1.4c0.1-0.1,0.3-0.1,0.4-0.2c0.6-0.3,1.2-0.7,1.9-1c0.2-0.1,0.4-0.2,0.6-0.4c-0.1,0.5-0.1,0.9-0.1,1.6
		C59.9,114,60,114,60,114.1z M63.4,114.8c0.2,0.1,0.4,0.2,0.6,0.4c-0.2,0.1-0.3,0.2-0.4,0.3c0,0,0,0,0,0c0-0.1-0.1-0.2-0.2-0.2
		c-0.2,0-0.3,0.1-0.5,0.2c0-0.2,0-0.5,0-0.8c0.4-0.3,0.8-0.5,1.2-0.9c0,0.3,0,0.6,0,1c-0.2-0.1-0.4-0.2-0.6-0.2
		C63.4,114.6,63.4,114.7,63.4,114.8z M64,113.2c-0.4,0.3-0.7,0.5-1.1,0.8c0,0-0.1,0-0.1,0c0-0.6,0-1,0-1.5c0.2-0.2,0.8-0.6,1.3-0.9
		C64.1,112.1,64,112.6,64,113.2z M63,116.4c0.1,0,0.2-0.1,0.2-0.2c0.2-0.1,0.4-0.2,0.5-0.4c0,0,0,0,0.1,0c0.1,0,0.2-0.1,0.2-0.2
		c0,0.2,0,0.3,0,0.5c0,0.2,0,0.4,0.1,0.6c0,0.1,0,0.2,0.1,0.3c0.1,0.1,0.3,0,0.3,0c0-0.1,0-0.3,0-0.4c0-0.4,0-0.7,0-1.1
		c0.3,0.2,0.6,0.4,0.9,0.6c-0.5,0.4-0.6,0.4-0.4,0.6c0.1,0.1,0.2,0.1,0.2,0c0.1-0.1,0.2-0.1,0.3-0.2c0.1,0,0.1-0.1,0.2-0.1
		c0,0.2,0,0.5,0,0.7c0,0.2,0,0.5,0,0.7c0,0.1,0,0.3,0.1,0.4c0.1,0.1,0.3,0.1,0.3,0c0.1-0.2,0-0.4,0.1-0.6c0-0.4,0.1-0.7,0.1-1
		c1,0.6,2,1.2,3,1.8c-0.6,0.4-0.6,0.4-0.5,0.6c0.1,0.1,0.2,0.1,0.2,0.1c0.1,0,0.1-0.1,0.2-0.1c0.2-0.1,0.3-0.2,0.5-0.3c0,0,0,0,0,0
		c0.2,0.1,0.4,0.2,0.6,0.3c0,0-0.1,0.1-0.1,0.1c0,0-0.1,0.1-0.1,0.1c-0.4,0.3-0.4,0.2-0.3,0.4c0.1,0.1,0.1,0.1,0.2,0.1
		c0,0,0.1,0,0.1-0.1c0.1-0.1,0.2-0.1,0.3-0.2c0,0,0,0,0,0c0.1-0.1,0.3-0.1,0.4-0.2c0.4,0.2,0.8,0.4,1.2,0.6c0,0,0.1,0,0.1,0
		c3.9,2.1,5.9,3,10.4,5.5c-0.4,0.3-0.9,0.6-1.3,1c-0.2,0.1,0,0.5,0.2,0.3c0.5-0.4,1-0.7,1.5-1.1c0.4,0.2,0.7,0.4,1.1,0.6
		c-0.3,0.2-0.6,0.4-0.8,0.6c-0.2,0.1,0,0.5,0.2,0.3c0.3-0.3,0.7-0.5,1-0.8c0.8,0.5,1.7,0.9,2.5,1.4c-0.1,0.1,0,0.5,0.4,0.2
		c0.8,0.4,1.5,0.8,2.3,1.2c-0.1,0.1-0.2,0.2-0.4,0.3c-0.2,0.1,0.1,0.4,0.2,0.3c0.2-0.1,0.3-0.3,0.5-0.4c0.4,0.2,0.8,0.4,1.2,0.7
		c-0.5,0.5-1,1.1-1.4,1.6c-0.2,0.2,0.1,0.5,0.3,0.3c0.5-0.6,1-1.2,1.5-1.7c0.4,0.2,0.8,0.4,1.2,0.6c-0.8,0.6-1.6,1.2-2.4,1.7
		c-4.7-2.5-2.1-1.1-22.7-12.9c-1.9-1.1-3.9-2.2-5.8-3.3c0.1-0.1,0.2-0.1,0.3-0.2c0,0,0,0,0,0c0,0,0,0.1,0,0.1c0,0.1,0,0.2,0.1,0.3
		c0.1,0.1,0.3,0,0.3,0c0-0.1,0-0.2,0-0.3C62.9,116.5,62.9,116.4,63,116.4z M64.6,111.3c0.5-0.1,1-0.2,1.5-0.3c0,0.2,0,0.4-0.1,0.6
		c-0.5,0.3-0.9,0.7-1.4,1.1C64.6,112.2,64.6,111.7,64.6,111.3z M66,112.4c0,0.4-0.1,0.9-0.1,1.4c-0.5,0.3-0.9,0.6-1.3,0.9
		c0-0.9,0-1.1,0-1.2C65.8,112.6,65.7,112.6,66,112.4z M65.8,114.5c0,0.4,0,0.8,0,1.2c-0.3-0.2-0.7-0.3-1-0.4
		C65.1,115,65.5,114.8,65.8,114.5z M67.1,110.9c-0.2,0.1-0.3,0.2-0.4,0.3c0,0,0,0,0,0c0-0.1,0-0.2,0-0.3c1.1-0.2,2.3-0.5,3.4-0.7
		c0,0.2,0,0.4,0,0.6c-0.5,0.3-0.9,0.7-1.4,1.1c0-0.1,0-0.4,0-0.4c0-0.5,0-0.5-0.2-0.5c-0.2,0-0.2,0-0.2,0.1c0,0.1,0,0.3-0.1,0.5
		c0,0.1-0.1,0.6-0.1,0.8c-0.8,0.6-1,0.7-1.5,1.1c0-0.5,0.1-1,0.1-1.5c0.2-0.1,0.3-0.3,0.5-0.5c0.1-0.1,0.2-0.2,0.2-0.3
		C67.3,111,67.1,110.9,67.1,110.9z M81.3,108.5c1.4-0.2,1.7-0.3,1.7-0.3c-0.1,0.6-0.1,1.1-0.1,1.2c0,0-1.1,0.6-1.7,1
		C81.2,109.7,81.3,109,81.3,108.5z M81.3,108c0.6-0.1,1.2-0.2,1.8-0.3c0,0,0,0.1,0,0.1c-0.8,0.2-0.4,0.1-1.8,0.4
		C81.3,108.1,81.3,108,81.3,108z M82.9,109.9C82.9,109.9,82.9,109.9,82.9,109.9c0,0.1,0,0.2,0,0.3c0,0.1,0,0.1,0.1,0.2
		c0.1,0,0.3,0,0.3,0c0-0.1,0-0.2,0.1-0.2c0.1-0.6,0-1,0.1-2.1c0.1,0,0.2,0,0.4-0.1c0.4,0.2,0.7,0.5,1.1,0.7c0,0.1,0,0.1,0,0.2
		c-0.2,0.2-0.2,0.2-0.2,0.3c0.1,0.1,0.1,0.1,0.2,0.1c0,0.1,0,0.2,0,0.3c0,0.1,0,0.2,0,0.3c0,0,0,0.1,0.1,0.1c0.1,0,0.3,0,0.3,0
		c0-0.1,0-0.1,0.1-0.2c0.1-0.2,0.1-0.5,0.1-0.7c0.4,0.3,0.8,0.5,1.3,0.8c-0.4,0.3-0.5,0.3-0.4,0.5c0.1,0.1,0.2,0.1,0.2,0.1
		c0.1,0,0.1-0.1,0.2-0.1c0.1-0.1,0.2-0.1,0.3-0.2c0.2,0.1,0.5,0.3,0.7,0.4c-0.1,0-1.9,0.8-2.9,1.3c-0.7-0.3-1.3-0.6-1.8-0.8
		c-0.1,0-0.2-0.1-0.2-0.1c-0.8-0.3-0.7-0.4-0.8-0.2c-0.1,0.1,0,0.2,0.1,0.2c0.1,0,0.1,0.1,0.2,0.1c0.2,0.1,0.4,0.2,0.5,0.3
		c0,0,0,0,0.1,0c0.4,0.2,0.8,0.5,1.3,0.7c-0.4,0.2-0.7,0.4-1.1,0.5c-0.8-0.4-1.5-0.8-2.2-1.2c0-0.5,0-0.4,0-0.5
		C81.2,111,82.4,110.3,82.9,109.9z M94.3,105.6c0-0.1,0.1,0,0-0.1c0.5-0.1,2.7-0.5,3.2-0.6c-3.6,2.1-0.5,0.3-6.3,3.8
		c-0.3-0.1-0.5-0.3-0.8-0.4c1-0.6,2.2-1.4,3.1-2.1c0.2-0.1,0.4-0.1,0.6-0.2c0.2-0.1,0.4-0.1,0.6-0.2C94.9,105.7,95,105.4,94.3,105.6
		z M93.3,105.7c-0.9,0.1-1.8,0.3-2.7,0.5c0.1,0,0.1-0.1,0.2-0.1c0.9-0.2,1.8-0.4,2.8-0.5C93.5,105.6,93.4,105.7,93.3,105.7z
		 M92.1,106.5c-0.8,0.5-1.2,0.8-2.2,1.4c-0.4-0.2-0.7-0.4-1.1-0.6c0.1-0.1,0.3-0.2,0.4-0.3C91.5,106.6,91,106.8,92.1,106.5z
		 M89,106.6c-0.7,0.1-1,0.2-1.2,0.2c0,0-0.1-0.1-0.1-0.1c0.5-0.1,1.1-0.2,1.6-0.3C89.2,106.5,89.1,106.5,89,106.6z M87.7,108
		c0.4,0.2,0.7,0.4,1.1,0.6c-0.4,0.2-0.7,0.4-1,0.6c-0.4-0.2-0.8-0.4-1.2-0.6C87,108.4,87.3,108.2,87.7,108z M92.2,113.1
		c-0.6,0.4-1.2,0.8-1.7,1.3c-0.2-0.1-0.3-0.2-0.5-0.2c0.1-0.1,0.2-0.1,0.3-0.2c0.2-0.1,0.4-0.2,0.5-0.4c0.1-0.2-0.1-0.3-0.2-0.2
		c-0.3,0.1-0.5,0.3-0.8,0.4c-0.1,0.1-0.2,0.1-0.3,0.2c-0.4-0.2-0.8-0.4-1.2-0.6c1.7-1.1,0.7-0.8,0.7-0.9c0.7-0.6,0.6-1.1-1.5,0.5
		c-0.6-0.3-0.5-0.3-0.7-0.3c0.5-0.2,0.9-0.5,1.4-0.8c0.2-0.1,0.5-0.3,0.7-0.5c0.2-0.2,0-0.3-0.2-0.2c-0.4,0.1-0.8,0.4-1.1,0.5
		c-0.5,0.2-0.9,0.4-1.4,0.7c-0.2-0.1-0.4-0.2-0.5-0.3c0.4-0.2,2.2-1.1,2.6-1.4C93.7,113.8,87.1,110,92.2,113.1z M99.5,116.7
		c-0.5-0.3-0.9-0.6-1.4-0.9c0.1-0.1,0.1-0.1,0.1-0.2c0.2,0,0.3-0.1,0.5-0.1c0.3-0.1,0.6-0.1,1-0.2c0.1,1.4,0.2,2.8,0.3,4.2
		c0,0.3,0,0.5,0,0.8c-0.5-0.3-1.1-0.5-1.6-0.8c0.2-0.2,0.4-0.4,0.6-0.6c0.1-0.1,0-0.3-0.2-0.2c-0.3,0.2-0.6,0.4-0.9,0.6
		c-0.4-0.1-0.7-0.3-1.1-0.4c0,0,0,0,0,0c0.1-0.1,0-0.2-0.1-0.2c-0.1,0-0.1,0.1-0.2,0.1c-0.2-0.1-0.4-0.1-0.6-0.2
		c1,0.1,2.1-0.1,3-0.7c0.1-0.1,0-0.2-0.1-0.2c-1.1,0.5-2.3,0.7-3.5,0.5c0.4-0.3,0.8-0.7,1.3-1.1c0.1-0.1,0-0.3-0.1-0.2
		c-0.6,0.4-1.1,0.7-1.7,1.1c-0.3-0.1-0.6-0.2-0.9-0.4c0.1-0.1,0.3-0.2,0.4-0.3c0.9-0.4,1.8-0.9,2.6-1.4c0.7,0.4,1.5,0.9,2.3,1.3
		C99.6,117.5,99.9,116.9,99.5,116.7z M196.6,110.5c0.6-4.3,0-13.6-1.6-17.9c0.4,0.2,0.8,0.6,1.1,1.1c0.5,1,0.4,2.6,0.6,3.7
		c0.3,1.9,0.6,3.8,0.7,5.8c0.1,1.7,0.1,3.5,0,5.2c0,0.7-0.1,1.3-0.2,2C197,110.3,196.8,110.4,196.6,110.5z M197.1,111
		c0,0.3-0.1,0.6-0.1,0.9c-0.2,0-0.5,0.1-0.7,0.2c0,0,0.1-0.1,0.1-0.1c0.1-0.2,0.1-0.5,0.1-0.8C196.7,111.1,196.9,111,197.1,111z
		 M102.4,139.9c0-0.1,0-0.2,0-0.2c29.9-8.2,38.2-12.3,93.4-28.3c0,0.2,0,0.3,0,0.5c0,0.1,0.1,0.2,0.2,0.3c-3.2,0.7-73.2,22-73.3,22
		c-6.8,2.1-13.6,4.1-20.3,6.4c0,0,0,0,0,0c0,0,0,0,0,0c0.1,0,0.2-0.1,0.2-0.2C102.6,140.1,102.5,140,102.4,139.9z M195.8,110.7
		c-24.1,7.5-48.3,14.6-72.4,21.8c-7,2.1-14.1,4.2-21,6.5c-0.1-1.4-0.1-2.7-0.2-4.1c2.9-0.7,45-13.6,45.1-13.7c0.1,0,0.1-0.2,0-0.2
		c-0.1,0-42.4,12.5-45,13.5c0-1.4-0.1-2.8-0.2-4.2c11.4-2.6,22.6-5.9,33.9-8.9c11.3-3.1,22.9-5.7,34.1-9.2c0.2-0.1,0.1-0.3-0.1-0.3
		c-11.5,2.5-22.8,6-34.1,9c-11.3,3-22.6,5.7-33.7,9.1c0-0.8-0.1-1.7-0.2-2.5c2.5-0.4,28.5-6.6,28.6-6.6c26.2-6.2,30.5-7.6,29.1-7.3
		c-9.7,2.2-19.5,4.3-29.3,6.6c-0.1,0-26.3,6.1-28.5,6.8c0-0.3-0.1-1.9-0.2-2.3c3.5-0.6,7-1.3,10.5-2.1c-3.2,1.7,66.1-16.9,78.4-20.3
		c0,0,0-0.1,0-0.1c-23.9,5.9-47.7,12-71.5,18.4c-0.1-0.9-15.8,3-17.5,3.4c-0.2-3-0.4-6-0.9-9c1.4-0.3,2.9-0.6,4.3-1
		c10.1-2.2,20-4.9,30-7.4c38.7-9.6,56.7-15,59.4-14.4C194.8,95.5,196,94.8,195.8,110.7z M93.3,133.4c0.6-0.4,1.2-0.8,1.8-1.2
		c0.6,0.3,1.1,0.6,1.7,0.9c-0.7,0.5-1.4,1-2.1,1.5c-0.3,0.2,0,0.6,0.2,0.4c0.8-0.6,1.6-1.1,2.4-1.7c0.6,0.3,1.2,0.6,1.7,0.9
		c-4.4,1.4-4,2.2,0.1,0.1c0.5,0.3,1.1,0.6,1.6,0.8c0.1,0.1,0.2,0.1,0.3,0c0.1,1.4,0.3,2.8,0.4,4.1c-3.3-2.3-7-4.4-10.6-6.3
		c0.8-0.6,1.6-1.1,2.5-1.7c0.4,0.2,0.9,0.5,1.3,0.7c-0.5,0.4-1,0.7-1.6,1.1C92.8,133.2,93,133.6,93.3,133.4z M101,134.4
		c-1-0.5-1.9-1.1-2.9-1.6c0.4-0.3,0.8-0.6,1.2-1c-0.1,0-0.3,0-0.4,0c-0.4,0.2-0.8,0.5-1.2,0.8c-0.5-0.3-1.1-0.6-1.6-0.9
		c0.2-0.1,0.3-0.2,0.5-0.3c-0.2-0.1-0.4-0.1-0.5-0.2c-0.1,0.1-0.3,0.2-0.4,0.3c-0.4-0.2-0.9-0.5-1.3-0.7c0.1-0.1,0.2-0.1,0.3-0.2
		c-0.2-0.1-0.3-0.2-0.5-0.2c-0.1,0.1-0.2,0.1-0.3,0.2c-0.4-0.2-0.9-0.5-1.3-0.7c0.1-0.1,0.2-0.1,0.2-0.2c-0.2-0.1-0.3-0.2-0.5-0.3
		c-0.1,0.1-0.2,0.2-0.3,0.2c-0.4-0.2-0.7-0.4-1.1-0.6c0.1-0.1,0.3-0.2,0.4-0.3c-0.1-0.1-0.2-0.2-0.4-0.3c-0.1,0.1-0.3,0.2-0.4,0.3
		c-0.2-0.1-0.4-0.2-0.6-0.3c0.2-0.1,0.3-0.3,0.5-0.4c-0.1-0.1-0.3-0.2-0.4-0.3c-0.2,0.2-0.3,0.3-0.5,0.5c-0.4-0.2-0.8-0.4-1.2-0.7
		c0.2-0.1,0.4-0.3,0.6-0.4c-0.1-0.1-0.3-0.2-0.4-0.2c-0.2,0.2-0.4,0.3-0.6,0.5c-0.8-0.4-1.7-0.9-2.5-1.3c0.2-0.1,0.4-0.3,0.6-0.4
		c0.3,0.1,0.5,0.3,0.8,0.4c0,0.1,0.1,0.3,0.3,0.2l0,0c0.1,0.1,0.2,0.1,0.4,0.2c-0.3-0.2-0.7-0.4-1-0.6c-1.8-1-3.6-2-5.2-3.2
		c-1.5-0.8-2.5-1.3-4.7-2.4c0.4-0.2,0.8-0.4,1.2-0.6c0.5,0.2,1,0.5,1.5,0.7c-0.3,0.2-0.3,0.2-0.3,0.3c0,0,0.1,0.1,0.1,0.1
		c0.1,0,0.1,0,0.1,0c0.1-0.1,0.2-0.1,0.3-0.2c0,0,0,0,0.1,0c1.5,0.7,2.7,1.3,4.7,2.2c-0.3,0.2-0.5,0.4-0.7,0.6
		c0.2,0.1,0.3,0.1,0.5,0.2c0.3-0.2,0.6-0.3,0.8-0.5c0.4,0.2,0.3,0.1,0.8,0.4c-0.2,0.2-0.5,0.3-0.7,0.5c0.2,0.1,0.4,0.2,0.6,0.2
		c0.2-0.2,0.5-0.3,0.7-0.5c0.3,0.2,0.6,0.3,1,0.4c-0.2,0.2-0.4,0.3-0.6,0.5c0.2,0.1,0.4,0.2,0.5,0.2c0.2-0.2,0.4-0.3,0.6-0.5
		c0.2,0.1,0.5,0.2,0.7,0.3c-0.2,0.2-0.4,0.3-0.6,0.5c0.2,0.1,0.3,0.1,0.5,0.2c0.2-0.2,0.4-0.3,0.7-0.5c0.4,0.2,0.9,0.4,1.3,0.6
		c-0.2,0.2-0.4,0.3-0.6,0.5c0.2,0.1,0.4,0.2,0.5,0.3c0.2-0.2,0.5-0.3,0.7-0.5c0.2,0.1,0.8,0.4,0.9,0.3c0.1,0,0.1,0.1,0.2,0.1
		c-0.2,0.2-0.5,0.4-0.7,0.6c0.2,0.1,0.4,0.2,0.5,0.3c0.2-0.2,0.5-0.4,0.7-0.6c0.2,0.1,0.4,0.2,0.6,0.4c-0.2,0.2-0.5,0.4-0.7,0.5
		c0.2,0.1,0.3,0.2,0.5,0.2c0.2-0.2,0.5-0.3,0.7-0.5c0.4,0.2,0.6,0.4,0.8,0.5c-0.2,0.2-0.4,0.3-0.6,0.5c0.2,0.1,0.4,0.2,0.6,0.3
		c0.2-0.1,0.4-0.3,0.6-0.4c0.5,0.3,1,0.6,1.6,0.9c-0.2,0.1-0.3,0.2-0.4,0.3c0.1,0.1,0.3,0.1,0.4,0.2c0.1-0.1,0.3-0.2,0.4-0.3
		c0.4,0.3,0.9,0.5,1.3,0.7c-0.1,0.1-0.2,0.1-0.3,0.2c0.2,0.1,0.2,0.2,0.3,0.3c0.1-0.1,0.3-0.2,0.4-0.3c0.7,0.4,1.4,0.7,2,1
		C100.7,131.9,100.8,133.2,101,134.4z M72.3,118.5c0.3,0.2,0.6,0.3,0.9,0.5c-0.1,0.1-0.2,0.1-0.4,0.2c-0.3-0.2-0.6-0.3-1-0.5
		C71.9,118.6,71.7,118.7,72.3,118.5z M72.9,118.2c0.4-0.2,0.8-0.4,1.3-0.6c0.3,0.1,0.5,0.3,0.8,0.4c-0.4,0.2-0.8,0.4-1.2,0.6
		C73.5,118.5,73.2,118.4,72.9,118.2z M75.7,115.3c0.1-0.2,0.1-0.3,0.1-0.5c0,0,0.1,0,0.1-0.1c0.4,0.2,0.8,0.5,1.2,0.7
		c0,0,0,0.1,0,0.1c-0.1,0-0.1,0.1-0.1,0.1c-0.4,0.2-0.7,0.3-1.1,0.5c-0.4-0.2-0.8-0.4-1.2-0.6c0.2-0.1,0.4-0.3,0.6-0.4
		C75.4,115.5,75.7,115.4,75.7,115.3z M75.4,113.9c-0.3-0.2-0.6-0.3-0.9-0.5c0.1-0.1,0.3-0.3,0.4-0.3c0.2,0.1,0.4,0.2,0.6,0.3
		C75.4,113.6,75.4,113.7,75.4,113.9z M76.7,114c0.2,0.1,0.4,0.2,0.5,0.3c0,0.2,0,0.4,0,0.6c-0.3-0.1-0.5-0.3-0.8-0.4
		C76.5,114.3,76.7,114.2,76.7,114z M78,115.9c0.2,0.1,0.4,0.2,0.6,0.4c-0.4,0.2-0.8,0.4-1.2,0.6c0-0.1,0.1-0.8,0.1-0.7
		C77.7,116,77.8,116,78,115.9z M77.7,115.1c0-0.2,0-0.4,0.1-0.6c0.3,0.1,0.6,0.3,0.9,0.4c-0.2,0.1-0.4,0.2-0.6,0.3
		C77.9,115.2,77.8,115.2,77.7,115.1z M94.4,121.8c-0.8-0.4-0.6-0.3-0.8-0.4c0.7-0.5,1.4-1,2-1.5c0.3,0.1,0.6,0.2,0.9,0.4
		C95.8,120.8,95.1,121.3,94.4,121.8z M97.2,120.5c0.2,0.1,0.5,0.2,0.7,0.2c-0.7,0.5-1.4,1.1-2.1,1.7c-0.2-0.1-0.4-0.2-0.6-0.3
		C95.9,121.6,96.6,121.1,97.2,120.5z M93,121.1c-0.2-0.1-0.5-0.2-0.7-0.3c0.6-0.5,1.3-1,1.9-1.5c0.3,0.1,0.6,0.3,1,0.4
		C94.4,120.2,93.7,120.6,93,121.1z M91.5,120.5c-0.2-0.1-0.5-0.2-0.7-0.3c1.5-1.1,0.5-0.3,2.3-1.3c0.1,0.1,0.3,0.1,0.4,0.2
		C92.9,119.5,92.2,120,91.5,120.5z M90.8,119.2c-0.4,0.1-0.7,0.3-1,0.4c-0.1,0-0.1-0.1-0.2-0.1c0.7-0.5,1.4-0.9,2.1-1.4
		c0.1,0.1,0.3,0.1,0.4,0.2C91.7,118.7,91.3,118.9,90.8,119.2z M88.7,119.2c-0.4-0.2-0.7-0.3-1.1-0.5c0.1,0,0.6-0.3,0.7-0.4
		c0.2,0.1,0.3,0.2,0.5,0.2c0.1,0,0.3-0.2-0.1-0.4c0.8-0.4,0.5-0.3,1.1-0.7c0.3,0.1,0.5,0.3,0.8,0.4
		C89.9,118.2,88.5,118.8,88.7,119.2z M83.2,120.7c0.1,0.1,0.2,0.1,0.2,0.1c0.1,0,0.1-0.1,0.2-0.1c0.6,0.3,1.3,0.6,1.9,0.9
		c-0.3,0.2-0.6,0.4-0.9,0.6c-1.8-0.8-2.9-1.4-4.6-2.2c0.1,0,0,0,1-0.5c0.7,0.4,1.5,0.7,2.2,1.1C83.2,120.6,83.2,120.6,83.2,120.7z
		 M79.6,119.7c-0.5-0.2-0.9-0.5-1.4-0.7c0.3-0.2,0.7-0.4,1-0.6c1.1,0.5,0.6,0.3,1.3,0.6C79.9,119.5,79.9,119.5,79.6,119.7z
		 M79.9,118.2c0.4-0.2,0.8-0.4,1.2-0.6c0.4,0.2,0.8,0.4,1.2,0.6c-0.4,0.2-0.8,0.4-1.1,0.6C80.8,118.6,80.1,118.3,79.9,118.2z
		 M81.6,117.2c0.8-0.4,0.5-0.3,0.7-0.4c0.4,0.2,0.8,0.4,1.2,0.6c-0.2,0.1-0.5,0.3-0.7,0.4C82.4,117.6,82.1,117.4,81.6,117.2z
		 M85.1,116.5c-0.3,0.2-0.3,0.2-0.9,0.5c-0.4-0.2-0.8-0.4-1.2-0.6c0.3-0.2,0.7-0.4,1-0.6C84.7,116.3,84.4,116.2,85.1,116.5z
		 M84.5,115.6c0.2-0.1,0.3-0.2,0.5-0.3c0.1,0,0.1-0.1,0.6-0.3c0.4,0.2,0.7,0.4,1.1,0.6c-0.3,0.2-0.6,0.4-1,0.6
		C85.3,116,84.9,115.8,84.5,115.6z M84.2,117.7c0.7,0.3,1.4,0.7,2.1,1c-0.3,0.2-0.6,0.3-0.8,0.4c-0.7-0.4-1.3-0.7-2-1.1
		C83.7,118,83.9,117.9,84.2,117.7z M84.8,117.3c0.1,0,0.6-0.4,0.8-0.5c0.6,0.3,1,0.5,2.1,1.1c-0.3,0.2-0.2,0.1-0.7,0.4
		C86.3,118,85.5,117.7,84.8,117.3z M88.2,117.7c-0.7-0.4-1.3-0.8-2-1.1c0.3-0.2,0.7-0.4,1-0.6c0.3,0.2,0.6,0.3,0.9,0.5c0,0,0,0,0,0
		c-0.2,0.1,0,0.5,0.4,0.2c0.3,0.1,0.6,0.3,0.9,0.4C89,117.2,88.6,117.4,88.2,117.7z M89,115.6c-0.2-0.1-0.5-0.3-0.7-0.4
		c0.9-0.5,0.6-0.4,1.2-0.7c0.2,0.1,0.4,0.2,0.5,0.2C89.6,115.1,89.3,115.3,89,115.6z M87.7,114.9c-0.4-0.2-0.7-0.4-1.1-0.6
		c0.3-0.2,1-0.6,1.1-0.7c0.5,0.2,0.7,0.3,1.2,0.5C88.5,114.5,88.1,114.7,87.7,114.9z M86,114.1c-0.3-0.1-0.6-0.3-0.9-0.5
		c0.4-0.2,0.7-0.4,1.1-0.6c0.9,0.4,0.5,0.2,0.8,0.4C87,113.4,86.8,113.6,86,114.1z M84.5,113.3C83.9,113,84,113,84,113
		c0.4-0.2,0.7-0.4,1.1-0.6c0.2,0.1,0.3,0.2,0.5,0.3C85.2,112.9,84.8,113.1,84.5,113.3z M84.1,114.1c0.3,0.2,0.6,0.4,0.9,0.5
		c-0.3,0.2-0.7,0.4-1.1,0.6c-0.3-0.2-0.7-0.4-1-0.6C83.3,114.5,83.7,114.3,84.1,114.1z M82.4,114.4c-0.2-0.1-0.4-0.2-0.6-0.3
		c0.4-0.2,0.8-0.4,1.2-0.6c0.2,0.1,0.3,0.2,0.5,0.3C83.1,114,82.8,114.2,82.4,114.4z M82.4,115c0.3,0.2,0.7,0.4,1,0.6
		c-0.3,0.2-0.7,0.4-1,0.6c-0.4-0.2-0.8-0.4-1.2-0.6C81.5,115.4,81.9,115.2,82.4,115z M81.7,116.5c-0.2,0.1-0.5,0.3-0.7,0.4
		c-0.7-0.4-0.6-0.3-1.2-0.6c0.2-0.1,0.5-0.2,0.7-0.3C80.9,116.1,81.3,116.3,81.7,116.5z M80.4,117.2c-0.4,0.2-0.8,0.4-1.2,0.6
		c-0.5-0.2-0.9-0.5-1.3-0.7c0.4-0.2,0.8-0.4,1.3-0.6C80.1,117,80.3,117.2,80.4,117.2z M78.7,118.2c-0.4,0.2-0.7,0.4-1,0.6
		c-0.5-0.2-1-0.5-1.5-0.7c0.3-0.2,0.7-0.3,1-0.5l0.1,0.8l0.1-0.9C77.8,117.8,78.2,118,78.7,118.2z M77,119.1
		c-0.3,0.2-0.8,0.5-1.1,0.7c-0.6-0.3-1.1-0.6-1.6-0.8c0.4-0.2,0.8-0.4,1.2-0.6C76,118.6,76.5,118.9,77,119.1z M75.9,114.2
		L75.9,114.2c0-0.2,0-0.3,0.1-0.5c0.2,0.1,0.3,0.2,0.5,0.2C76.3,113.9,76,114.1,75.9,114.2z M76.7,117.2c-0.4,0.2-0.8,0.4-1.1,0.6
		c-0.3-0.1-0.5-0.3-0.8-0.4c0.4-0.2,0.8-0.4,1.2-0.5C76.2,117,76.4,117.1,76.7,117.2z M73.7,119.2c0.5,0.3,1.1,0.6,1.7,0.9
		c-0.2,0.1-0.3,0.2-0.4,0.2c-0.6-0.3-1.2-0.6-1.7-0.9C73.4,119.3,73.6,119.3,73.7,119.2z M75.8,120.3c3.6,1.9,5.6,2.9,6.7,3.4
		c0,0,0,0-0.1,0.1c-0.1,0.1,0,0.3,0.2,0.2c0.1,0,0.1-0.1,0.2-0.1c0.3,0.2,0.7,0.4,1,0.5c-0.2,0.1-0.4,0.3-0.5,0.4
		c-3.9-2.1-4-2.2-7.9-4.3C75.5,120.5,75.7,120.4,75.8,120.3z M84.3,124.7c0.5,0.2,0.5,0.2,1.1,0.5c-0.2,0.1-0.4,0.3-0.6,0.4
		c-0.4-0.2-0.7-0.4-1.1-0.6C83.9,125,84.1,124.8,84.3,124.7z M85.6,122.3c0.2-0.1,0.4-0.3,0.6-0.4c0.2,0.1,0.5,0.2,0.7,0.3
		c-0.2,0.1-0.4,0.3-0.6,0.4C86,122.5,85.8,122.4,85.6,122.3z M99.2,129.2c0.3-0.2,0.6-0.4,0.8-0.6c0.1-0.1,0-0.2-0.1-0.1
		c-0.3,0.2-0.7,0.4-1,0.6c-0.5-0.3-1-0.5-1.5-0.8c0.3-0.3,0.7-0.5,1-0.8c0.1-0.1,0-0.2-0.1-0.2c-0.4,0.2-0.8,0.5-1.2,0.8
		c-0.6-0.3-1.2-0.6-1.7-0.8c0.6-0.4,1.2-0.8,1.8-1.2c-0.2-0.1-0.4-0.2-0.6-0.3c-0.6,0.4-1.2,0.8-1.8,1.2c-0.6-0.3-0.7-0.4-0.8-0.4
		c0.6-0.4,1.1-0.8,1.7-1.3c-0.2-0.1-0.4-0.2-0.6-0.3c-0.5,0.4-1.1,0.8-1.6,1.3c-0.2-0.1-0.5-0.2-0.7-0.4c0.5-0.4,1-0.9,1.5-1.3
		c-0.2-0.1-0.4-0.2-0.6-0.3c-0.5,0.4-1,0.9-1.5,1.3c-0.3-0.2-0.6-0.3-0.9-0.5c0.6-0.4,1.1-0.8,1.7-1.3c-0.2-0.1-0.4-0.2-0.7-0.4
		c-0.5,0.4-1.1,0.9-1.6,1.3c-0.4-0.2-0.8-0.4-1.2-0.6c0.6-0.4,1.2-0.8,1.8-1.2c-0.2-0.1-0.3-0.2-0.5-0.2c0,0-0.1,0-0.1,0
		c-0.6,0.4-1.1,0.8-1.7,1.2c-0.2-0.1-0.5-0.2-0.7-0.4c0.6-0.4,1.1-0.8,1.7-1.2c-0.2-0.1-0.4-0.2-0.6-0.3c-0.5,0.4-1.1,0.8-1.6,1.2
		c-0.3-0.1-0.6-0.3-0.9-0.4c0.2-0.2,0.4-0.3,0.7-0.5c0.3,0.1,0.5,0.3,0.8,0.3c0.2,0,0.2-0.2,0.1-0.3c-0.2-0.1-0.3-0.2-0.5-0.3
		c0.2-0.1,0.4-0.3,0.6-0.4c-0.2-0.1-0.5-0.2-0.7-0.3c-0.2,0.1-0.3,0.3-0.5,0.4c-0.2-0.1-0.4-0.2-0.6-0.3c0.2-0.1,0.3-0.2,0.5-0.3
		c-0.2-0.1-0.4-0.2-0.6-0.3c-0.1,0.1-0.3,0.2-0.4,0.3c-0.6-0.3-1.2-0.6-1.7-0.9c0.1,0,0.2-0.1,0.3-0.1c-0.2-0.1-0.4-0.1-0.6-0.2
		c-0.1,0.1-0.1,0.1-0.2,0.1c-0.6-0.3-1.1-0.6-1.8-0.9c-0.3-0.1-0.5-0.2-0.8-0.3c-0.1,0-0.1-0.1,0-0.1c0.2,0,0.4,0.1,0.7,0.1
		c0.3-0.2,0.6-0.3,0.8-0.5c0.7,0.3,0.2,0.1,1.9,0.9c0.7,0.2,1.4,0.3,2.1,0.5c-0.4-0.2-0.4-0.2-0.8-0.5c0.3-0.1,0.6-0.3,0.9-0.5
		c0.1,0.1,1.1,0.5,1.4,0.7c-0.1,0.1-0.5,0.3-0.7,0.5c0.2,0.1,0.5,0.1,0.7,0.2c0.1-0.1,0.3-0.2,0.4-0.3c0.1,0,0.1-0.1,0.2-0.1
		c0.1,0.1,0.2,0.1,0.3,0.2c0.1,0.1,0.1,0.1,0.2,0.1c-0.2,0.1-0.3,0.2-0.5,0.4c0.3,0.1,0.5,0.2,0.8,0.3c0.1-0.1,0.3-0.2,0.4-0.3
		c0.2,0.1,0.5,0.2,0.7,0.3c-0.1,0.1-0.2,0.2-0.3,0.3c0.2,0.1,0.5,0.2,0.7,0.3c0.1-0.1,0.2-0.1,0.3-0.2c0.2,0.1,0.5,0.2,0.7,0.3
		c-0.1,0.1-0.2,0.1-0.3,0.2c0.2,0.1,0.4,0.2,0.7,0.3c0.1-0.1,0.2-0.1,0.3-0.2c0.3,0.1,0.6,0.3,0.9,0.4c-0.1,0.1-0.2,0.1-0.2,0.2
		c0.2,0.1,0.5,0.2,0.7,0.4c0.1-0.1,0.2-0.1,0.3-0.2c0.2,0.1,0.4,0.2,0.6,0.3c-0.1,0.1-0.2,0.1-0.2,0.2c0.2,0.1,0.4,0.2,0.6,0.3
		c0.1-0.1,0.2-0.2,0.3-0.2c0.3,0.2,0.6,0.3,0.9,0.5c-0.1,0.1-0.2,0.2-0.3,0.3c0.2,0.1,0.3,0.2,0.5,0.3c0.1-0.1,0.2-0.2,0.4-0.3
		c0.5,0.2,1,0.5,1.5,0.7c-0.2,0.1-0.5,0.2-0.7,0.3c0.1,0.1,0.3,0.2,0.4,0.3c0.2-0.1,0.5-0.3,0.7-0.4c0.4,0.1,0.7,0.3,1.1,0.4
		c0,0.4,0,0.7,0.1,1.1c0.1,1.2,0.2,2.4,0.3,3.6C100.1,129.8,99.6,129.5,99.2,129.2z M97.9,123.4c0.6-0.5,1.2-1,1.7-1.5
		c0.1-0.1,0-0.3-0.1-0.2c-0.7,0.5-1.4,0.9-2,1.4c-0.4-0.2-0.7-0.3-1.1-0.5c0.6-0.6,1.3-1.2,1.9-1.8c0.6,0.2,1.2,0.3,1.7,0.4
		c0,1.1,0.1,2.1,0.1,3.2C99.4,124.1,98.7,123.7,97.9,123.4z M95,116.6c0,0-0.1,0-0.1,0c-0.2,0.1-0.5,0.3-0.7,0.4
		c-0.2,0.1-0.5,0.3-0.7,0.4c0,0-0.1,0-0.1,0.1c0,0-0.1,0.1-0.1,0.1c0,0,0,0,0,0c-0.2-0.1-0.3-0.1-0.4-0.2c0.4-0.3,0.9-0.7,1.3-1
		c0.2-0.1,0-0.3-0.2-0.3c-0.3,0.2-0.7,0.4-1,0.6c0-0.1-0.1-0.1-0.1-0.1c-0.1,0-0.7,0.3-0.9,0.4c-0.3-0.1-0.6-0.3-0.8-0.4
		c0.1-0.1,1-0.6,1.1-0.8c0,0,0-0.1,0-0.1c0.7-0.4,1.5-0.9,2.2-1.4c0.8,0.5,1.6,1,2.4,1.5C96.1,116.1,95.6,116.3,95,116.6z
		 M90.5,116.4c-0.4-0.2-0.7-0.3-1.1-0.5c0.4-0.3,0.8-0.6,1.1-0.9c0.7,0.3,0.8,0.3,1,0.3c0.1,0,0.2-0.2,0.1-0.3
		c-0.2-0.1-0.4-0.2-0.6-0.3c0,0,0,0-0.1,0c0.5-0.4,1-0.9,1.5-1.4c0.5,0.3,1.1,0.6,1.6,0.9c0,0,0,0,0,0
		C92.4,115.1,92,115.6,90.5,116.4z M86,108.3c-0.1-0.1-0.3-0.1-0.4-0.2c0-0.1,0-0.2,0-0.3c0.4-0.1,0.9-0.2,1.3-0.2
		c0.1,0,0.1,0.1,0.2,0.1C86.8,107.9,86.4,108.1,86,108.3z M82.7,113c0,0-0.1,0-0.1,0c-0.3-0.2-0.7-0.4-1-0.6
		c-0.1-0.1-0.2,0.1-0.1,0.1c0.3,0.2,0.6,0.4,0.9,0.6c-0.4,0.2-0.8,0.4-1.2,0.6c0,0,0,0,0,0c0-0.5,0-1,0-1.6
		C81.6,112.4,82.2,112.7,82.7,113z M81.2,114.3c0.2,0.1,0.4,0.2,0.5,0.3c-0.4,0.2-0.9,0.4-1.3,0.7c-0.2-0.1-0.4-0.2-0.7-0.3
		c0.3-0.1,0.5-0.2,0.8-0.4c0,0.1,0,0.2,0,0.3l0.5,0c0-0.4,0-0.5,0-0.5C81.2,114.4,81.2,114.3,81.2,114.3z M79.5,111.9
		c0.1,0,0.6-0.2,0.7-0.3c0.1,0.1,0.3,0.2,0.4,0.2c0,0.9,0,0.6,0,1.6c0,0-0.1,0-0.1-0.1c-0.8-0.4-0.7-0.4-0.8-0.2
		c-0.1,0.1,0,0.2,0.1,0.2c0.1,0,0.1,0.1,0.2,0.1c0.2,0.1,0.4,0.2,0.5,0.3c0,0,0,0,0.1,0c0,0,0.1,0.1,0.1,0.1c0,0,0,0.1,0,0.1
		c-0.4,0.2-0.7,0.4-1.1,0.6C79.5,113.7,79.5,112.9,79.5,111.9z M79.6,110.7c0.4-0.3,0.8-0.6,1.1-0.9c0,0.3,0,0.6,0,0.9
		c-0.2,0.1-0.3,0.2-0.5,0.3c-0.1,0-0.2-0.1-0.2-0.1C79.8,110.8,79.7,110.8,79.6,110.7C79.6,110.7,79.6,110.7,79.6,110.7z
		 M80.7,109.3c-0.1,0-0.7,0.4-1.2,0.8c0-0.2,0-0.4,0-0.6c0.6-0.5,0.4-0.7,0-0.5c0-0.5,0-0.5,0-0.7c0.4-0.1,0.9-0.2,1.3-0.3
		C80.8,108.4,80.7,108.8,80.7,109.3z M79.9,115.6c-0.2,0.1-0.4,0.2-0.7,0.3c-0.2-0.1-0.4-0.2-0.6-0.3c0.2-0.1,0.4-0.2,0.7-0.3
		C79.5,115.4,79.7,115.5,79.9,115.6z M78.9,110c0,0.1,0,0.3,0,0.4c-0.4-0.2-0.4,0.1-0.2,0.3c-0.3,0.2-0.4,0.3-0.6,0.5
		c0-0.2,0-0.3,0.1-0.5C78.2,110.5,78.8,110.1,78.9,110z M78.2,109.9c0.1-1.1,0.1-1.3,0.1-1.4c0.3,0,0.5-0.1,0.8-0.1
		c0,0.2-0.1,0.7-0.1,1C78.8,109.5,78.7,109.6,78.2,109.9z M78.9,111.2c0,0.1,0,0.5,0,0.6c0,0,0,0.1,0,0.1c0,0.8,0,2,0.1,2.8
		c-0.4-0.2-0.8-0.4-1.2-0.6c0.1-0.9,0.1-1.3,0.2-2.3C78.5,111.5,78.5,111.5,78.9,111.2z M77.8,108.8c-0.1,0-1.3,0.9-1.4,0.9
		c0-0.3,0.1-0.6,0.1-0.8c0.4-0.1,0.9-0.2,1.3-0.2C77.8,108.7,77.8,108.8,77.8,108.8z M77.7,109.3c-0.1,0.3-0.1,0.7-0.2,1.1
		c-0.4,0.3-0.9,0.7-1.3,1c0-0.3,0.1-0.6,0.1-1C77.4,109.6,77,109.9,77.7,109.3z M77.5,111.1c0,0.1,0,0.3,0,0.4
		c-0.5,0.3-1,0.6-1.3,0.9c0-0.1,0-0.2,0-0.3C76.4,112,77.3,111.3,77.5,111.1z M77.4,112.2l-0.1,1.6c-0.4-0.2-0.8-0.4-1.2-0.5
		c0-0.1,0-0.2,0-0.3C76.3,112.9,76.7,112.7,77.4,112.2z M75.8,110.2c-0.6,0.4-1.2,0.9-1.8,1.4c0-0.4,0.1-0.8,0.1-1.2
		c0.2-0.1,1.3-1,1.3-1.2c0.2,0,0.4-0.1,0.6-0.1C76,109.3,75.9,109.7,75.8,110.2z M75.7,110.9c0,0.2-0.1,0.5-0.1,0.9
		c-0.3,0.3-0.7,0.5-1.1,0.8c-0.2-0.1-0.4-0.2-0.6-0.3c0,0,0-0.1,0-0.1C75.8,110.9,75,111.5,75.7,110.9z M74.1,113.7
		c0.1,0.1,0.9,0.5,1.3,0.7c0,0,0,0,0,0c-0.4,0.2-0.8,0.5-1.2,0.8c-0.1,0-0.2-0.1-0.3-0.1c0-0.4,0.1-0.9,0.1-1.3
		C74,113.8,74,113.8,74.1,113.7z M74.2,115.9c0.2,0.1,0.4,0.2,0.6,0.3c-0.1,0-0.6,0.3-1.2,0.6c-0.2-0.1-0.4-0.2-0.5-0.3
		C73.5,116.4,73.9,116.2,74.2,115.9z M73.6,110c-0.4,0.3-0.8,0.6-1.2,0.9c0-0.7,0-0.6,0-1.2c0.4-0.1,0.8-0.2,1.3-0.3
		C73.7,109.5,73.7,109.6,73.6,110z M73.5,110.8c0,0.4-0.1,0.8-0.1,1.2c-0.1,0-0.1,0.1-0.2,0.1c-0.1,0-0.2-0.1-0.2-0.1
		c-0.1,0-0.2,0.1-0.1,0.1c0.1,0,0.1,0.1,0.2,0.1c-0.6,0.4-0.6,0.5-0.8,0.6c0-0.4,0.1-0.8,0.1-1.2C72.8,111.3,72.3,111.7,73.5,110.8z
		 M72.9,113.1c0.3,0.2,0.4,0.2,0.4,0.3c0,0.1,0,0.1,0,0.2c-0.4,0.3-0.8,0.6-1.1,0.8c0-0.2,0-0.5,0-0.8
		C72.5,113.4,72.7,113.3,72.9,113.1z M73.4,114.3c0,0.2,0,0.4,0,0.7c-0.3-0.1-0.3-0.2-0.6-0.3C73,114.5,73.2,114.4,73.4,114.3z
		 M72.4,114.9c0.5,0.3,0.7,0.4,1,0.5c0,0.1,0,0.2,0,0.3c0,0,0,0,0,0c-0.2,0.2-0.5,0.3-0.7,0.5c0,0-0.1,0-0.1,0.1
		c-0.1,0-0.2-0.1-0.2-0.1c-0.1,0-0.1-0.1-0.2-0.1c0-0.4,0.1-0.7,0.1-1.1C72.3,115,72.3,115,72.4,114.9z M72.7,116.9
		c0.2,0.1,0.3,0.2,0.5,0.3c-0.5,0.3-0.7,0.4-1.1,0.7c0,0-0.1,0-0.1-0.1c-0.1-0.1-0.3-0.1-0.4-0.2C71.9,117.4,72.3,117.2,72.7,116.9z
		 M71.7,118.1c-0.1,0.1-0.3,0.2-0.4,0.2c-0.2-0.1-0.4-0.2-0.5-0.3c0.1-0.1,0.3-0.2,0.4-0.2C71.3,117.9,71.5,118,71.7,118.1
		C71.7,118.1,71.7,118.1,71.7,118.1z M71.8,112.1c0,0.3-0.1,1-0.1,1.2c-0.4,0.3-0.8,0.6-1.2,0.9c0-0.3,0-0.7,0-1.1
		C70.8,112.9,71.4,112.4,71.8,112.1z M70.5,112.4c0-0.5,0-0.9,0-1.4c0.1-0.1,1.3-1,1.3-1.2c0.1,0,0.2,0,0.3-0.1
		c0,0.4-0.1,0.6-0.2,1.6C71.4,111.7,71,112,70.5,112.4z M71.7,114.5c0,0,0-0.1,0,0.3c-0.3,0.2-0.6,0.5-0.9,0.7
		c-0.1,0-0.2-0.1-0.2-0.1c0-0.2,0-0.3,0-0.5c0.2-0.2,0.5-0.4,0.8-0.6C71.4,114.4,71.5,114.5,71.7,114.5z M70.9,116
		c0.3,0.1,0.5,0.3,0.8,0.4c0,0.1,0,0.2,0.1,0.3c0,0,0.1,0.1,0.2,0.1c-0.3,0.2-0.6,0.4-0.9,0.6c-0.4-0.2-0.6-0.3-0.8-0.4
		c0.1,0,0.2,0,0.2-0.1c0-0.2,0-0.4,0-0.5c0,0,0,0,0,0C70.6,116.2,70.7,116.1,70.9,116z M70.4,117.4c0.1,0,0.1,0.1,0.2,0.1
		c-0.1,0.1-0.3,0.2-0.4,0.3c-0.4-0.2-0.7-0.4-1.1-0.6c0,0,0.1,0,0.1-0.1c0.1-0.1,0.3-0.2,0.4-0.3c0,0.1,0.1,0.2,0.2,0.3
		C70.1,117.2,70.2,117.3,70.4,117.4z M69.9,113.5c0,0.4,0,0.7,0,1.1c-0.6,0.4-1.1,0.8-1.6,1.2c0,0,0,0-0.1,0c0-0.4,0-0.8,0.1-1.2
		C68.8,114.3,69.4,113.9,69.9,113.5z M68.4,113.9c0-0.5,0.1-0.9,0.1-1.4c0.3-0.2,1.3-1,1.4-1.1c0,0.4,0,0.9,0,1.3
		C69.4,113.2,68.9,113.6,68.4,113.9z M68.5,116.2C68.6,116.2,68.6,116.2,68.5,116.2c0.5-0.3,0.9-0.6,1.4-1c0,0.2,0,0.7,0,0.8
		c-0.1,0.1-0.2,0.2-0.3,0.3c-0.1,0.1-0.2,0.1-0.3,0.2c-0.3,0.3-0.5,0.4-0.7,0.5c-0.2-0.1-0.4-0.2-0.6-0.3c0-0.1,0-0.2,0-0.4
		C68.3,116.4,68.4,116.3,68.5,116.2z M67.9,113c0,0.4-0.1,1-0.1,1.3c-0.5,0.4-1,0.7-1.4,1c0-0.4,0-0.8,0-1.3
		C67.4,113.4,67.7,113.2,67.9,113z M67.8,115.1c0,0.2,0,0.4,0,0.6c0,0.2,0,0.5,0,0.7c-0.1,0-0.1,0.1-0.2,0.1
		c-0.4-0.2-0.7-0.4-1.1-0.5C66.8,115.7,67.3,115.4,67.8,115.1z M101.8,143.6c-0.1,0-0.1-0.1-0.2-0.1c0.1,0,0.3-0.1,0.4-0.1
		c0,0,0,0,0,0c-0.1,0.1,0,0.2,0.1,0.2c0.1,0,0.2,0.1,0.2,0.1c0.1,0.1,0.3,0.1,0.4,0.2c-0.5,0.3-0.9,0.5-1.3,0.8
		c-0.5-0.2-1-0.4-1.5-0.7c0.3-0.2,0.6-0.4,0.9-0.6c0.1,0,0.2,0.1,0.3,0.1c0.2,0.1,0.4,0.2,0.6,0.2
		C101.9,143.9,101.9,143.7,101.8,143.6z M109.6,142.7c0,0.1,0,0.2,0,0.3c0,0,0,0,0,0c-0.5-0.2-1-0.5-1.3-0.6c0,0-0.1,0-0.1,0
		c-0.3-0.1-0.3-0.1-0.4,0.1c-0.1,0.1,0,0.2,0,0.2c0,0,0.1,0,0.1,0c0.1,0,0.1,0.1,0.2,0.1c0,0,0,0,0,0c0.3,0.2,0.8,0.5,1.3,0.7
		c0.1,0,0.2,0.1,0.3,0.1c0,0,0,0,0,0c-0.5,0.2-0.8,0.2-0.9,0.3c-0.6-0.3-1.2-0.6-2.1-1c-0.3-0.2-0.6-0.3-0.9-0.5
		c1.2-0.3,2.5-0.7,3.7-1c0,0.2,0,0.3,0,0.5C109.5,142.2,109.6,142.4,109.6,142.7z M106.5,143.4c0.4,0.2,0.8,0.4,1.2,0.5
		c0.3,0.1,0.5,0.2,0.8,0.3c0.2,0.1,0.3,0.1,0.5,0.2c0.1,0,0.2,0.1,0.3,0c0.1,0,0.2-0.2,0.1-0.3c-0.1-0.1-0.1-0.1-0.2-0.1
		c0.2,0,0.3-0.1,0.5-0.1c0.1,0.5,0.1,1.1,0.2,1.6c-1-0.5-1.8-0.8-3.2-1.4c0,0,0,0,0,0c0,0,0,0,0,0c0.1-0.1,0-0.3-0.2-0.2
		c0,0-0.1,0.1-0.1,0.1c-0.2-0.1-0.5-0.2-0.7-0.3c0,0,0,0,0,0c0.1-0.1,0-0.3-0.2-0.2c0,0-0.1,0.1-0.1,0.1c-0.2-0.1-0.4-0.2-0.7-0.3
		c0.2-0.1,0.4-0.3,0.6-0.4C105.7,143,106.1,143.2,106.5,143.4z M35.9,100.3C35.9,100.3,35.9,100.3,35.9,100.3c0.5,0.3,1,0.7,1.5,1
		c-0.1,0-0.1,0.1-0.2,0.1c-0.4,0.2-0.7,0.3-1,0.5c-0.6-0.3-1.1-0.6-1.7-1C34.9,100.8,35.5,100.5,35.9,100.3z M33.8,100.6
		c-0.6-0.3-1.2-0.7-1.7-1c0.4-0.1,0.9-0.3,1.4-0.5c0.1-0.1,0.3-0.1,0.4-0.2c0.5,0.3,1,0.7,1.5,1c0,0,0,0,0.1,0
		C34.7,100.2,34.8,100.2,33.8,100.6z M37.4,101.9c0.2-0.1,0.3-0.2,0.5-0.3c0.5,0.4,1.1,0.7,1.6,1.1c-0.1,0-0.2,0.1-0.3,0.1
		c-0.3,0.1-0.6,0.2-0.8,0.3c-0.6-0.3-1.1-0.6-1.7-0.9C37,102.1,37.2,102,37.4,101.9z M38.9,105.3c0.1,0,0.2-0.1,0.4-0.1
		c0.5,0.3,1,0.6,1.6,0.9c-0.2,0.1-0.3,0.1-0.5,0.2c-0.5-0.3-1.1-0.6-1.6-0.9C38.8,105.3,38.8,105.3,38.9,105.3
		C38.9,105.3,38.9,105.3,38.9,105.3z M41.4,108.5C41.4,108.5,41.4,108.5,41.4,108.5C41.4,108.5,41.3,108.5,41.4,108.5
		c-0.5,0.3-0.5,0.2-0.4,0.4c0.1,0.1,0.1,0.1,0.1,0.1c0,0,0.1,0,0.1,0c0.1,0,0.2-0.1,0.3-0.1c0,0,0,0,0,0c0.1,0,0.2-0.1,0.3-0.1
		c0.6,0.3,1.2,0.7,1.7,1c0,0,0,0-0.1,0c-0.3,0.2-0.3,0.1-0.2,0.3c0.1,0.1,0.1,0.1,0.1,0.1c0,0,0.1,0,0.1,0c0.1,0,0.2-0.1,0.2-0.1
		c0,0,0,0,0,0c0.1,0,0.2-0.1,0.3-0.1c0.4,0.2,0.8,0.5,1.2,0.7c-0.2,0.1-0.5,0.2-0.7,0.3c0,0-0.1,0-0.1,0.1c0,0-0.1,0-0.1,0
		c-0.8,0.2-1.3,0.4-2.3,0.8c-0.3,0.1-0.7,0.2-1,0.3c-0.3-0.2-0.7-0.4-1-0.6c0.3-0.1,0.6-0.3,0.9-0.4c0.3-0.2,0.6-0.3,1-0.5
		c0.2-0.1,0.4-0.2,0.6-0.4c0.1-0.1,0.2-0.2,0.3-0.3c0.1,0,0.1-0.1,0.2-0.2c0-0.1-0.1-0.3-0.2-0.3c-0.1,0-0.2,0.1-0.3,0.1
		c-0.6,0.2-1.1,0.6-1.9,1c-0.4,0.2-0.8,0.4-1.2,0.6c-0.6-0.4-1.2-0.7-1.8-1.1c0.5-0.2,1-0.4,1.6-0.7c0.1-0.1,0.3-0.1,0.4-0.2
		c0.1,0.1,0.3,0.1,0.4,0.2c0.1,0,0.2-0.1,0.1-0.1c-0.1-0.1-0.2-0.1-0.3-0.2c0.3-0.1,0.6-0.3,0.9-0.4C41,108.7,41.2,108.6,41.4,108.5
		z M41,106.7c0.2-0.1,0.3-0.1,0.5-0.2c0.7,0.4,1.3,0.8,2,1.2c-0.2,0.1-0.3,0.1-0.5,0.2C42.3,107.4,41.6,107,41,106.7z M45.9,111.2
		c0.5,0.3,1.1,0.6,1.6,1c0,0-0.1,0-0.1,0.1c-1,0.5-2,0.8-2.7,1.2c-0.1,0-0.1,0.1-0.2,0.1c-0.5,0.3-0.5,0.2-0.4,0.4
		c0.1,0.1,0.1,0.1,0.2,0.1c0.1,0,0.1,0,0.2-0.1c0.1-0.1,0.3-0.1,0.4-0.1c0,0,0,0,0,0c0.6-0.2,1.3-0.5,2.1-0.9c0,0,0.1,0,0.1,0
		c0.2,0.1,0.3,0.2,0.5,0.3c0.3,0.2,0.6,0.4,0.9,0.5c-1.3,0.6-2.4,1.1-3.2,1.5c-0.1,0-0.1,0.1-0.2,0.1c0,0,0,0-0.1,0
		c-0.4-0.2-0.4-0.2-0.5-0.1c-0.1,0.1,0,0.2,0.1,0.3c0,0,0,0,0,0c-0.3,0.2-0.3,0.2-0.2,0.3c0.1,0.1,0.1,0.1,0.2,0.1
		c0.1,0,0.2-0.1,0.2-0.1c0.1,0,0.1,0,0.2-0.1c0,0,0,0,0,0c0.3,0.2,0.6,0.4,0.9,0.6c0,0,0.1,0,0.1,0.1c0.6,0.4,1.4,0.9,2.2,1.4
		c0,0,0,0.1,0,0.1c0.1,0.1,0.1,0.1,0.2,0.1c1.1,0.7,2.4,1.5,3.7,2.4c1.1,0.7,2.3,1.4,3.4,2.1c0.8,0.5,1.5,0.9,2.3,1.4
		c0.1,0.1,0.2,0.1,0.4,0.2c-0.3,0.1-0.6,0.3-0.9,0.4c-5.7-3.7-11.6-7-17.4-10.5c-3.1-1.9-6.2-3.8-9.4-5.7c0.4-0.1,1.3-0.4,2-0.6
		c0.6,0.4,1.3,0.8,1.9,1.2c-0.1,0-0.2,0.1-0.2,0.1c0,0-0.1,0.1-0.1,0.1c-0.5,0.2-0.5,0.2-0.4,0.4c0.1,0.1,0.1,0.1,0.1,0.1
		c0.1,0,0.1,0,0.2,0c0.1,0,0.2-0.1,0.4-0.1c0,0,0,0,0,0c0.2-0.1,0.4-0.1,0.6-0.2c0.5,0.3,1,0.6,1.5,0.9c-0.1,0-0.1,0.1-0.2,0.1
		c-0.1,0-0.1,0.1-0.2,0.1c-0.5,0.3-0.5,0.2-0.4,0.4c0.1,0.1,0.1,0.1,0.2,0.1c0.1,0,0.1,0,0.2-0.1c0.1-0.1,0.3-0.1,0.4-0.1
		c0,0,0,0,0.1,0c0.2-0.1,0.3-0.1,0.5-0.2c1.6,0.9,0.6,0.4,1.9,1.2c0,0,0,0,0,0c0,0-0.1,0.1-0.1,0.1c-0.3,0.2-0.4,0.2-0.3,0.4
		c0.1,0.1,0.1,0.1,0.1,0.1c0,0,0.1,0,0.1,0c0.1,0,0.2-0.1,0.3-0.1c0,0,0,0,0,0c0.1,0,0.2-0.1,0.3-0.1c0.3,0.2,0.7,0.4,1,0.6
		c-0.2,0.1-0.4,0.1-0.6,0.2c0,0-0.1,0-0.1,0.1c-0.4,0.2-0.4,0.1-0.4,0.3c0,0.1,0.1,0.1,0.1,0.1c0,0,0.1,0,0.1,0
		c0.1,0,0.2-0.1,0.3-0.1c0,0,0,0,0,0c0.3-0.1,0.7-0.2,1.1-0.3c0.5,0.3,1,0.6,1.5,0.8c0.3,0.2,0.7,0.4,1.1,0.5
		c0.3,0.1,0.3-0.2,0.1-0.3c-0.5-0.3-1-0.6-1.4-0.9c-0.2-0.1-0.4-0.2-0.5-0.3c0.2-0.1,0.3-0.1,0.5-0.2c0.4-0.1,0.8-0.3,1.2-0.4
		c0.3-0.1,0.5-0.2,0.8-0.3c0.2-0.1,0.3-0.1,0.4-0.2c0,0,0,0,0.1,0c0,0,0,0,0.1,0c0,0,0,0,0,0C45.1,111.4,45.5,111.3,45.9,111.2z
		 M45.8,109.5c0.2-0.1,0.3-0.1,0.5-0.2c0.4,0.2,0.8,0.4,1.2,0.7c-0.1,0.1-0.3,0.1-0.4,0.2c0,0,0,0,0,0
		C46.6,109.9,46.2,109.7,45.8,109.5z M54.1,117.3c0.1,0.1,0.3,0.2,0.4,0.3c-0.1,0-0.2,0.1-0.3,0.1c-0.1,0-0.2,0.1-0.2,0.1
		c-0.8,0.4-0.8,0.3-0.7,0.5c0.1,0.1,0.1,0.1,0.2,0.1c0.1,0,0.2-0.1,0.2-0.1c0.2-0.1,0.4-0.1,0.6-0.2c0,0,0,0,0.1,0
		c0.2-0.1,0.4-0.1,0.6-0.2c0.4,0.2,0.7,0.4,1.1,0.7c0.1,0.1,0.2,0.1,0.4,0.2c-0.5,0.3-1,0.5-1.4,0.7c0,0,0,0,0,0c0,0-0.1,0-0.1-0.1
		c-0.7-0.4-1.5-0.8-2.1-1.2c0.2-0.1,0.3-0.1,0.5-0.2c0.1-0.1,0.3-0.1,0.4-0.2c0.1,0,0.2-0.1,0.2-0.2c0,0,0.1,0,0.1-0.1
		C54.1,117.4,54.1,117.3,54.1,117.3z M60,124.8c-0.3-0.2-0.5-0.4-0.8-0.5c0.5-0.3,1-0.5,1.4-0.8c0.1-0.1,0-0.3-0.1-0.3
		c-0.6,0.2-1.2,0.5-1.8,0.7c-1.9-1.3-3.6-2.2-6.3-3.9c-1.2-0.8-2.4-1.5-3.4-2.2c0.2-0.1,0.4-0.2,0.5-0.2c0,0,0.1,0,0.1,0
		c0.2-0.1,0.5-0.2,0.7-0.3c0.4,0.2,0.8,0.5,1.2,0.7c-0.1,0-0.2,0.1-0.3,0.1c0,0,0,0-0.1,0c-0.2,0.1-0.3,0.1-0.2,0.3
		c0.1,0.1,0.1,0.1,0.1,0.1c0,0,0.1,0,0.1,0c0.1,0,0.1,0,0.2,0c0,0,0,0,0,0c0.2,0,0.5-0.1,0.8-0.2c0.7,0.4,1.5,0.9,2.4,1.4
		c-0.3,0.2-0.3,0.2-0.3,0.3c0.1,0.1,0.1,0.1,0.2,0.1c0.1,0,0.2-0.1,0.2-0.1c0.1,0,0.2-0.1,0.2-0.1c0.9,0.5,1.8,1,2.7,1.5
		c-0.2,0.1-0.3,0.1-0.2,0.3c0.1,0.1,0.1,0.1,0.1,0.1c0,0,0.1,0,0.1,0c0.1,0,0.2-0.1,0.3-0.1c0,0,0,0,0,0c0,0,0,0,0,0c0,0,0,0,0,0
		c0.8,0.4,1.5,0.8,2.3,1.2c0.5,0.2,0.9,0.5,1.4,0.7c0.2,0.1,0.5,0.3,0.8,0.3c0.2,0,0.2-0.2,0.1-0.3c-0.3-0.2-0.7-0.4-1-0.6
		c-0.9-0.6-1.8-1.1-2.7-1.6c0.1,0,0.2-0.1,0.4-0.1c1.4,0.8,2.8,1.7,4.2,2.5c-1.4,0.6-2.7,1.4-4,2.1c-0.5-0.4-1.1-0.7-1.6-1.1
		c0.3-0.2,0.6-0.3,1-0.5c0.1,0.1,0.3,0.2,0.4,0.2c0.2,0.1,0.5,0.3,0.8,0.4C60.1,125.1,60.1,124.9,60,124.8z M57,120
		c-0.2-0.1-0.4-0.2-0.6-0.3c0,0-0.1,0,0,0.1c0.2,0.1,0.3,0.2,0.5,0.3c-0.1,0-0.1,0.1-0.2,0.1c-0.1,0-0.1,0.1-0.2,0.1
		c-0.3-0.2-0.6-0.4-1-0.5c0.5-0.2,1-0.4,1.5-0.7c0.3,0.2,0.6,0.3,0.9,0.5C57.6,119.7,57.3,119.8,57,120z M57.4,120.3
		c0.4,0.2,0.8,0.5,1.2,0.7c-0.1,0-0.2,0.1-0.3,0.1c-0.4-0.2-0.8-0.5-1.3-0.7c0,0,0,0,0.1,0c0,0,0,0,0.1,0
		C57.2,120.4,57.3,120.4,57.4,120.3z M58.8,121c-0.4-0.2-0.9-0.5-1.3-0.7c0.3-0.1,0.7-0.3,1.1-0.4c0.4,0.2,0.9,0.5,1.3,0.7
		C59.5,120.7,59.1,120.9,58.8,121z M59.3,119.6c0.2-0.1,0.4-0.2,0.6-0.3c0.4,0.3,0.9,0.5,1.3,0.7c-0.2,0.1-0.4,0.2-0.6,0.2
		C60.1,120.1,59.7,119.8,59.3,119.6z M59.3,117.3c-0.4-0.2-0.8-0.5-1.2-0.7c0.1,0,0.2-0.1,0.3-0.1c0.1-0.1,0.2-0.1,0.4-0.2
		c0.4,0.2,0.8,0.4,1.2,0.7C59.7,117.1,59.5,117.2,59.3,117.3z M58.3,118.4c0.3,0.2,0.6,0.4,0.9,0.5c-0.2,0.1-0.4,0.2-0.6,0.3
		c-0.3-0.2-0.6-0.3-0.9-0.5C57.9,118.6,58.1,118.5,58.3,118.4z M57.1,118.4c-0.2-0.1-0.4-0.3-0.7-0.4c-0.2-0.1-0.5-0.3-0.7-0.4
		c0.2-0.1,0.4-0.2,0.7-0.2c0.4,0.3,0.9,0.5,1.3,0.8C57.5,118.2,57.3,118.3,57.1,118.4z M53.8,117.2c-0.5,0.1-0.8,0.3-1.3,0.5
		c-0.1,0-0.2,0.1-0.3,0.1c-0.5-0.3-0.9-0.5-1.3-0.8c0.5-0.2,1-0.5,1.6-0.7c0.5,0.3,1,0.6,1.5,0.9C53.9,117.2,53.8,117.2,53.8,117.2z
		 M50.3,116.7c-0.5-0.3-1-0.6-1.5-0.8c0.3-0.1,0.5-0.3,0.8-0.4c0.2-0.1,0.5-0.3,0.7-0.4c0.5,0.3,1,0.6,1.5,0.9
		C51.3,116.2,50.8,116.4,50.3,116.7z M49.4,115c-0.4,0.2-0.8,0.4-1.1,0.6c-1.2-0.6-1.2-0.7-1.3-0.5c-0.1,0.1,0.1,0.2,0.1,0.3
		c0.1,0.1,0.2,0.2,0.4,0.2c0.1,0.1,0.3,0.2,0.4,0.3c-0.2,0.2-0.2,0.1-0.1,0.3c0.1,0.1,0.1,0.1,0.1,0.1c0,0,0.1,0,0.1,0
		c0.1,0,0.1-0.1,0.2-0.1c0,0,0,0,0,0c0,0,0,0,0.1,0c0,0,0,0,0.1,0c0,0,0.1,0,0.1,0.1c0.4,0.2,0.8,0.5,1.3,0.8
		c-0.1,0.1-0.3,0.2-0.4,0.2c-0.1,0.1-0.2,0.1-0.3,0.2c-0.2,0.1-0.4,0.2-0.5,0.3c-0.9-0.6-1.7-1.1-2.4-1.5c-0.1-0.1-0.3-0.1-0.4-0.2
		c-0.2-0.1-0.3-0.2-0.4-0.2c0,0,0,0,0,0c0.9-0.4,2.2-0.9,3.6-1.5c0.3,0.2,0.6,0.3,0.9,0.5C49.7,114.8,49.6,114.9,49.4,115z
		 M48.9,113.6c-0.1-0.1-0.3-0.1-0.4-0.2c-0.5-0.3-0.9-0.5-1.1-0.6c0.1,0,0.1-0.1,0.2-0.1c0.2-0.1,0.3-0.2,0.5-0.2
		c0.5,0.3,0.9,0.6,1.4,0.8C49.3,113.4,49.1,113.5,48.9,113.6z M39,109C39,109,39,109,39,109c-0.7,0.3-1.4,0.6-1.9,0.8
		c-0.5-0.3-0.9-0.6-1.4-0.9c1-0.3,1.4-0.5,1.9-0.7C38.1,108.5,38.6,108.8,39,109z M38,108.1c0.1,0,0.6-0.2,1.1-0.5
		c0.2-0.1,0.3-0.2,0.5-0.2c0.4,0.2,0.8,0.5,1.2,0.7c-0.5,0.2-0.9,0.5-1.5,0.7C38.9,108.6,38.4,108.4,38,108.1z M35.1,108.6
		c-0.6-0.4-1.2-0.7-1.9-1.2c0.6-0.2,0.5-0.2,1.6-0.6c0.7,0.4,1.4,0.7,2.1,1.1C36.2,108.3,35.8,108.4,35.1,108.6z M32.6,107.1
		c-0.6-0.4-1.2-0.8-1.8-1.1c0.5-0.2,0.4-0.2,1.3-0.6c0.7,0.4,1.4,0.8,2.1,1.1C33.6,106.7,33.2,106.9,32.6,107.1z M30.2,105.6
		c-0.8-0.5-1.6-1-2.3-1.4c0.2-0.1,0.4-0.1,0.5-0.2c0.2-0.1,0.4-0.2,0.6-0.3c0.1,0,2.4,1.3,2.4,1.3C30.8,105.4,30.6,105.4,30.2,105.6
		z M27.3,103.8c-0.2-0.1-5.4-3.3-5.5-3.1c-0.1,0.1,0.1,0.2,0.2,0.3c0,0,3.8,2.4,4.7,3c-0.2,0.1-0.3,0.1-0.4,0.2c0,0-0.1,0-0.1,0.1
		c-0.4,0.2-0.4,0.1-0.3,0.4c0.1,0.1,0.1,0.1,0.1,0.1c0,0,0.1,0,0.1,0c0.1,0,0.2-0.1,0.3-0.1c0,0,0,0,0,0c0.2-0.1,0.5-0.2,0.8-0.3
		c0.7,0.5,1.5,1,2.4,1.5c-0.6,0.3-1.2,0.6-1.7,0.9c-2.5-1.5-4.9-3.1-7.5-4.4c0.1-0.8,0.2-1.5,0.2-2.3c0-0.4,0-0.8,0-1.2
		c2.4,1.7,5.2,3.1,7.8,4.5C28,103.6,27.9,103.6,27.3,103.8z M30.1,106.3c0.6,0.4,1.2,0.7,1.7,1.1c-1.4,0.5-1.4,0.5-1.9,0.8
		c-0.6-0.4-1.1-0.7-1.7-1.1C28.8,106.9,29.4,106.6,30.1,106.3z M43.6,108.2c0.1-0.1,0.3-0.1,0.4-0.2c0,0,0.1,0,0.1-0.1
		c0.5,0.3,1.1,0.6,1.6,0.9c-0.1,0.1-0.3,0.1-0.5,0.2c0,0,0,0,0,0C44.7,108.8,44.1,108.5,43.6,108.2z M39.1,107.1
		c-0.6,0.2-1.1,0.4-1.7,0.6c-0.7-0.4-1.3-0.8-2-1.2c1.1-0.5,1.2-0.5,1.6-0.7C37.7,106.3,38.4,106.7,39.1,107.1z M34.8,106.2
		c-0.7-0.4-1.4-0.8-2.2-1.2c1.2-0.6,1.3-0.7,1.5-0.9c0.8,0.5,1.6,1,2.4,1.4C35.9,105.8,35.4,106,34.8,106.2z M32.1,104.7
		c-0.8-0.5-1.4-0.8-2.3-1.3c0.1-0.1,0.3-0.1,0.4-0.2c0.1-0.1,0.3-0.1,0.4-0.2c0.1,0,0.2-0.1,0.2-0.2c0-0.1-0.1-0.3-0.1-0.3
		c-0.1,0-0.2,0.1-0.3,0.1c-0.4,0.1-0.8,0.3-1.2,0.5c-2.8-1.6-5.6-3.3-8.6-4.6c0-1-0.1-1.9-0.4-2.8c4.5,2.8,9,5.5,13.5,8.3
		C33.6,104,33.3,104.1,32.1,104.7z M20.2,103c2.3,1.6,19.2,11.6,19.3,11.6c5.7,3.4,11.4,7,17.2,10.2c-0.2,0.1-0.4,0.2-0.6,0.3
		c-5-3.2-10.5-5.9-15.6-8.8c-22.6-12.8-24.5-13.4-0.2,0.4c5,2.9,10,6.1,15.2,8.7c-0.6,0.4-1.3,0.7-1.9,1.1c-0.1,0,0,0.2,0.1,0.1
		c0.8-0.3,1.6-0.6,2.4-0.9c0.6,0.3,1.2,0.6,1.7,0.9c0.2,0.1,0.3-0.1,0.2-0.3c-0.4-0.3-0.9-0.6-1.3-0.9c0.2-0.1,0.4-0.2,0.7-0.3
		c0.6,0.3,1.2,0.6,1.8,1c-0.7,0.4-1.4,0.8-2.1,1.2c-0.3,0.1,0,0.5,0.2,0.4c2.2-1.2,4.5-2.2,6.6-3.6c0.6,0.4,1.3,0.8,1.9,1.1
		c-0.5,0.4-1.1,0.7-1.6,1.1c-0.2,0.1,0,0.4,0.2,0.3c0.6-0.4,1.3-0.7,1.9-1.1c1.2,0.7,2.4,1.5,3.6,2.2c-0.6,0.3-1.2,0.7-1.8,1.1
		c-1-0.5-0.9-0.5-1-0.3c-0.1,0.1,0.1,0.2,0.2,0.3c0.1,0.1,0.3,0.2,0.4,0.2c0,0,0,0,0.1,0c-0.4,0.3-0.8,0.5-1.2,0.7
		c-0.1,0-0.1,0.1-0.1,0.2c-0.5-0.3-1-0.5-1.5-0.8c0.5-0.3,1-0.5,1.5-0.8c0.2-0.1,0.1-0.4-0.1-0.3c-1.9,0.7-3.7,1.7-5.6,2.5
		c-0.1,0.1-0.2,0.2-0.1,0.3c-7.5-4.4-14.9-8.9-22.3-13.4c-6.2-3.8-12.5-7.7-18.8-11.4C19.8,105.1,20.1,104,20.2,103z M85,140.2
		c-0.3-0.2-0.5-0.3-0.8-0.5c1.1-0.7,2.1-1.4,3.1-2.2c0.3,0.1,0.5,0.3,0.8,0.4C87,138.6,86,139.4,85,140.2z M89.3,137.6
		c0.1,0,1.4,0.8,1.7,0.9c-1.4,0.9-2.7,1.8-4,2.8c-0.5-0.3-1-0.6-1.5-0.9C86.7,139.5,88.1,138.6,89.3,137.6z M83.6,139.3
		c-0.5-0.3-0.9-0.5-1.4-0.8c0.5-0.3,1.1-0.7,1.6-1c1,0.5,1,0.1,0.4-0.2c0.4-0.2,0.7-0.5,1.1-0.8c0.5,0.2,0.9,0.5,1.4,0.7
		C85.6,137.9,84.6,138.6,83.6,139.3z M72.3,133.1c-1.1-0.6-2.1-1.1-3.2-1.7c0.4-0.3,0.8-0.5,1.2-0.8c0.9,0.5,1.8,1,2.8,1.5
		c-0.3,0.2-0.5,0.5-0.8,0.7C72.3,132.9,72.3,133,72.3,133.1z M68.7,131.2c-0.6-0.3-1.2-0.6-1.9-0.9c0.5-0.3,1-0.5,1.4-0.8
		c0.1,0.1,0.3,0.1,0.4,0.2c0,0,0.1,0,0.1,0.1c0.3,0.2,0.7,0.4,1.1,0.6C69.4,130.6,69.1,130.9,68.7,131.2z M72.7,133.2
		c0.3-0.3,0.6-0.5,1-0.8c0.4,0.2,0.7,0.4,1.1,0.6c-0.4,0.3-0.8,0.5-1.1,0.8c-0.4-0.2-0.7-0.4-1.1-0.6
		C72.6,133.2,72.7,133.2,72.7,133.2z M75.4,133.3c0.9,0.4,1.1,0.5,1.8,0.9c-0.4,0.3-0.7,0.6-1.1,0.9c-0.6-0.4-1.3-0.7-1.9-1
		C74.6,133.8,75,133.6,75.4,133.3z M77.8,134.5c0.4,0.2,0.9,0.5,1.3,0.7c-0.4,0.3-0.9,0.6-1.3,0.9c-0.4-0.2-0.8-0.5-1.2-0.7
		C77,135.1,77.4,134.8,77.8,134.5z M79.8,135.5c0.5,0.3,1,0.5,1.5,0.7c-0.5,0.3-0.9,0.6-1.4,1c-0.5-0.3-1-0.6-1.6-0.9
		C78.9,136.1,79.3,135.8,79.8,135.5z M82,136.7c0.3,0.2,0.7,0.3,1,0.5c-0.5,0.3-1,0.7-1.5,1.1c-0.3-0.2-0.7-0.4-1-0.6
		C81,137.3,81.5,137,82,136.7z M83.4,136.8c-0.4-0.2-0.4-0.2-0.9-0.5c0.4-0.2,0.7-0.5,1.1-0.7c0.3,0.2,0.6,0.3,0.9,0.5
		C84.2,136.3,83.8,136.6,83.4,136.8z M81.8,135.9c-0.5-0.2-0.9-0.5-1.4-0.7c0.4-0.2,0.8-0.5,1.1-0.7c0.4,0.2,0.9,0.5,1.3,0.7
		C82.5,135.5,82.2,135.7,81.8,135.9z M79.7,134.8c-0.4-0.2-0.9-0.5-1.4-0.7c0.4-0.3,0.7-0.6,1.1-0.8c0.5,0.3,1,0.5,1.5,0.8
		C80.4,134.3,80,134.6,79.7,134.8z M77.7,133.8c-0.5-0.3-1.1-0.6-1.7-0.9c0.4-0.3,0.9-0.6,1.3-0.8c0.5,0.3,1.1,0.6,1.6,0.9
		C78.4,133.3,78.1,133.6,77.7,133.8z M75.3,132.6c-0.4-0.2-0.8-0.4-1.2-0.6c0.4-0.3,0.8-0.6,1.2-1c0.4,0.2,0.8,0.5,1.2,0.7
		C76.2,132,75.7,132.3,75.3,132.6z M73.7,131.7c-1-0.5-1.9-1-2.8-1.5c0.5-0.3,1-0.7,1.4-1.1c0.9,0.5,1.7,1,2.6,1.5
		C74.4,131,74,131.4,73.7,131.7z M70.3,129.9c-0.5-0.2-0.9-0.5-1.3-0.6c-0.1,0-0.2-0.1-0.3-0.1c0.6-0.3,1.2-0.7,1.8-1.1
		c0.4,0.3,0.9,0.5,1.3,0.8C71.2,129.2,70.7,129.6,70.3,129.9z M60.9,131.2c1.2-0.6,2.5-1.2,3.8-1.8c1.2,0.7,2.5,1.4,3.7,2
		c0,0-0.1,0.1-0.1,0.1c-0.2,0.2,0,0.5,0.2,0.4c0.1-0.1,0.2-0.2,0.3-0.2c1.5,0.8,2.9,1.6,4.4,2.5c-0.2,0.2,0,0.6,0.3,0.4
		c0.1,0,0.1-0.1,0.2-0.1c0.6,0.4,1.3,0.7,2,1.1c-0.1,0.1-0.2,0.1-0.3,0.2c-0.2,0.2,0,0.6,0.2,0.4c0.2-0.1,0.3-0.2,0.5-0.4
		c0.4,0.2,0.8,0.4,1.1,0.7c-0.2,0.1-0.4,0.2-0.6,0.3c-0.3,0.2,0,0.6,0.3,0.5c0.3-0.2,0.5-0.3,0.8-0.5c0.5,0.3,1.1,0.6,1.6,0.9
		c-0.4,0.2-0.7,0.5-1,0.7c0.2,0.1,0.3,0.2,0.5,0.3c0.4-0.2,0.7-0.5,1.1-0.7c0.4,0.2,0.7,0.4,1.1,0.6c-0.3,0.2-0.6,0.5-1,0.7
		c0,0-0.1,0.1-0.1,0.1c0.2,0.1,0.3,0.2,0.5,0.3c0.4-0.2,0.7-0.5,1.1-0.7c0.5,0.3,1,0.6,1.4,0.9c-0.3,0.2-0.7,0.5-1,0.7
		c0.2,0.1,0.4,0.2,0.5,0.3c0.3-0.2,0.7-0.4,1-0.7c0.3,0.2,0.6,0.3,0.8,0.5c-0.3,0.2-0.6,0.5-0.9,0.7c0.1,0.1,0.3,0.1,0.4,0.2
		c0.3-0.2,0.6-0.4,0.9-0.6c0.5,0.3,1,0.6,1.5,0.9c-0.2,0.1-0.3,0.2-0.5,0.4c-0.2,0.1,0,0.5,0.2,0.4c0.2-0.2,0.5-0.3,0.7-0.5
		c0.4,0.2,0.8,0.5,1.2,0.7c-0.3,0.2-0.5,0.3-0.8,0.5c0.1,0.1,0.3,0.2,0.4,0.2c0.2-0.1,0.5-0.3,0.7-0.4c0.6,0.3,1.1,0.7,1.7,1
		c-0.2,0.1-0.4,0.3-0.5,0.4c0.1,0.1,0.3,0.1,0.4,0.2c0.2-0.1,0.3-0.2,0.5-0.4c0.4,0.2,0.7,0.5,1.1,0.7c-0.2,0.1-0.3,0.2-0.5,0.3
		c0.1,0.1,0.3,0.2,0.4,0.2c0.2-0.1,0.3-0.2,0.5-0.3c0.4,0.2,0.8,0.5,1.2,0.7c-0.1,0.1,0,0.4,0.3,0.2c0.3,0.2,0.7,0.4,1,0.6
		c-0.1,0-0.2,0.1-0.2,0.1c0,0-0.1,0-0.1,0.1c0.1,0.1,0.2,0.1,0.3,0.2c0.1-0.1,0.2-0.1,0.3-0.2c0.5,0.3,1,0.6,1.5,1
		c-0.1,0.1-0.2,0.1-0.3,0.2c0.1,0.1,0.3,0.2,0.4,0.3c0.1-0.1,0.2-0.1,0.3-0.2c0.2,0.1,0.5,0.3,0.7,0.4c-0.1,0.1-0.2,0.1-0.3,0.2
		c0.2,0.1,0.3,0.2,0.5,0.3c0.1-0.1,0.2-0.2,0.4-0.2c0.2,0.1,0.4,0.3,0.6,0.4c-0.1,0.1-0.3,0.2-0.4,0.3c0.1,0.1,0.3,0.2,0.4,0.3
		c0.1-0.1,0.3-0.2,0.4-0.3c0.2,0.1,0.5,0.3,0.7,0.4c-0.2,0.2-0.5,0.3-0.7,0.5c-0.1,0.2-0.3,0.3-0.5,0.3c-0.1,0.1-0.2,0.2-0.3,0.2
		c-0.3,0.2,0,0.6,0.2,0.4c0.6-0.4,1.1-0.8,1.7-1.2c0.4,0.2,0.7,0.4,1.1,0.7c-0.6,0.4-1.1,0.9-1.7,1.3c-0.2,0.2,0.1,0.5,0.3,0.3
		c0.6-0.5,1.2-0.9,1.8-1.4c1.2,0.7,2.4,1.5,3.6,2.2c-0.1,0.1-0.2,0.1-0.2,0.2c-0.2,0.2,0.1,0.5,0.3,0.3c0.1-0.1,0.2-0.2,0.3-0.3
		c0.6,0.4,1.3,0.8,1.9,1.1c-0.4,0.3-0.8,0.5-1.1,0.8c-0.3,0.2,0,0.8,0.3,0.5c0.5-0.3,1-0.6,1.5-0.9c0.7,0.4,1.3,0.8,2,1.1
		c0.1,0.7,0.1,1.3,0.2,1.9c0,0.3,0.1,0.6,0.2,0.8c0,0.1,0,0.2,0,0.3C94,150.3,77.4,140.9,60.9,131.2
		C60.9,131.2,60.9,131.2,60.9,131.2z M108.9,154.9c0.4-0.3,0.9-0.6,1.3-0.9c0,0.6,0,1.2,0.1,1.8
		C109.8,155.5,109.3,155.2,108.9,154.9z M108.3,154.5c-0.6-0.4-1.3-0.9-1.9-1.3c0.5-0.4,1-0.9,1.5-1.4c-0.1-0.1-0.3-0.1-0.4-0.2
		c-0.5,0.4-1,0.8-1.5,1.3c-0.8-0.5-1.7-1.1-2.5-1.6c0.5-0.4,1-0.8,1.5-1.2c-0.2-0.1-0.3-0.2-0.5-0.3c-0.5,0.4-1,0.8-1.5,1.2
		c-0.2-0.1-0.4-0.2-0.6-0.3c0.5-0.4,1-0.8,1.5-1.2c-0.2-0.1-0.3-0.2-0.5-0.3c-0.5,0.4-1,0.8-1.5,1.2c-0.3-0.2-0.7-0.4-1-0.6
		c0.5-0.3,1-0.7,1.5-1c-0.2-0.1-0.4-0.2-0.6-0.3c-0.5,0.3-0.9,0.7-1.4,1c-0.2-0.1-0.4-0.3-0.7-0.4c0.5-0.3,0.9-0.6,1.4-0.9
		c-0.2-0.1-0.4-0.2-0.6-0.3c-0.4,0.3-0.8,0.6-1.2,0.9c-0.2-0.1-0.4-0.2-0.6-0.4c0.4-0.3,0.8-0.5,1.2-0.8c-0.2-0.1-0.5-0.2-0.7-0.3
		c-0.4,0.2-0.7,0.5-1.1,0.7c-0.2-0.1-0.4-0.3-0.6-0.4c0.3-0.2,0.7-0.4,1-0.6c-0.2-0.1-0.3-0.1-0.5-0.2c-0.3,0.2-0.6,0.4-0.9,0.6
		c-0.5-0.3-1-0.6-1.5-0.9c1.3-0.7,2.6-1.4,3.9-2.2c0.5,0.2,0.9,0.5,1.4,0.7c-0.7,0.4-1.4,0.8-2.1,1.3c0.2,0,0.4,0.1,0.7,0.1
		c0.6-0.4,1.3-0.8,1.9-1.1c0.2,0.1,0.3,0.2,0.5,0.2c-0.6,0.4-1.1,0.7-1.7,1.1c0.3,0.1,0.5,0.2,0.8,0.3c0.5-0.3,1.1-0.7,1.6-1
		c0.1,0.1,0.3,0.1,0.4,0.2c-0.5,0.3-1,0.7-1.5,1c0.2,0.1,0.4,0.2,0.6,0.3c0.5-0.3,1-0.7,1.5-1c0.2,0.1,0.4,0.2,0.6,0.3
		c-0.5,0.3-0.9,0.7-1.4,1c0.1,0,0.2,0.1,0.3,0.1c0.1,0,0.2,0.1,0.3,0.1c0.5-0.3,0.9-0.6,1.4-1c0.3,0.2,0.6,0.3,1,0.5
		c-0.4,0.3-0.8,0.6-1.3,0.9c0.2,0.1,0.3,0.2,0.5,0.2c0.4-0.3,0.8-0.6,1.2-1c0.2,0.1,0.4,0.2,0.6,0.3c-0.4,0.3-0.8,0.6-1.2,0.9
		c0.2,0.1,0.3,0.2,0.5,0.3c0.4-0.3,0.8-0.6,1.2-0.9c0.9,0.5,1.8,0.9,2.7,1.2c0,0.4,0,0.9,0,1.3c0,0.8,0,1.6,0,2.5
		C109.5,153.6,108.9,154.1,108.3,154.5z M104.9,146.4c-0.2-0.1-0.4-0.2-0.7-0.3c0.4-0.3,0.7-0.6,1.1-0.8c0.2,0.1,0.5,0.2,0.8,0.4
		C105.7,145.8,105.3,146.1,104.9,146.4z M106.5,145.8c0.1,0,0.2,0.1,0.3,0.1c0.3,0.1,0.6,0.2,0.9,0.4c-0.4,0.3-0.8,0.5-1.2,0.8
		c-0.4-0.2-0.7-0.3-1.1-0.5C105.8,146.3,106.1,146,106.5,145.8z M104.8,144.4c0.1-0.1,0.3-0.2,0.4-0.3c0.2,0.1,0.4,0.2,0.6,0.3
		c-0.2,0.1-0.3,0.2-0.5,0.3C105.2,144.6,105,144.5,104.8,144.4z M104.8,145c-0.4,0.3-0.8,0.5-1.2,0.8c-0.2-0.1-0.3-0.1-0.5-0.2
		c0.4-0.3,0.8-0.5,1.2-0.8C104.5,144.8,104.6,144.9,104.8,145z M102.5,145.3c-0.2-0.1-0.3-0.2-0.5-0.2c0.4-0.3,0.9-0.5,1.3-0.8
		c0.2,0.1,0.3,0.2,0.5,0.2C103.3,144.7,102.9,145,102.5,145.3z M108,147.8c0.2-0.2,0.4-0.4,0.7-0.6c0.1-0.1,0-0.3-0.1-0.2
		c-0.3,0.2-0.6,0.4-0.9,0.6c-0.3-0.1-0.5-0.2-0.8-0.3c0.3-0.3,0.7-0.6,1-0.9c0,0,0,0,0,0c0.3,0.1,0.6,0.3,1,0.4
		c0.4,0.2,0.8,0.3,1.2,0.5c0,0.5,0,1.1,0,1.6C109.4,148.5,108.7,148.1,108,147.8z M107,145.4C107,145.4,107,145.4,107,145.4
		C107,145.3,107,145.3,107,145.4c0.2-0.2,0-0.4-0.1-0.3c-0.1,0-0.2,0.1-0.2,0.2c-0.3-0.1-0.6-0.3-0.8-0.4c0.1-0.1,0.3-0.2,0.4-0.3
		c0.1,0,0.2,0.1,0.3,0.1c0.5,0.2,1.1,0.5,1.7,0.7c0.4,0.2,0.7,0.3,1.1,0.4c0.2,0.1,0.4,0.2,0.7,0.2c0,0,0,0,0.1,0
		c0,0.2,0.1,0.4,0.1,0.5c0,0,0,0,0,0.1C109.2,146.3,108.2,145.9,107,145.4z M104.4,143.1c-0.1-0.1-0.3-0.1-0.4-0.2
		c0.3-0.1,0.7-0.2,1-0.3c0,0,0,0,0.1,0C104.9,142.8,104.6,142.9,104.4,143.1z M104.3,143.6c0.2,0.1,0.4,0.2,0.6,0.3
		c-0.2,0.1-0.4,0.2-0.5,0.3c-0.2-0.1-0.4-0.2-0.6-0.2C103.9,143.8,104.1,143.7,104.3,143.6z M103.2,143.7c0,0-0.1,0-0.1,0
		c-0.1,0-0.2-0.1-0.2-0.1c-0.3-0.1-0.5-0.2-0.6-0.2c0.4-0.1,0.7-0.2,1.1-0.3c0,0,0.1,0,0.1,0.1c0,0,0,0,0.1,0
		c0.1,0.1,0.2,0.1,0.3,0.2C103.7,143.5,103.4,143.6,103.2,143.7z M99.5,144c-2.1-0.9-2.4-1-0.3,0.2c-1.3,0.7-2.6,1.4-3.9,2.2
		c-0.4-0.2-0.7-0.4-1.1-0.7c1.5-1,3.1-2,4.5-3.1c0.4,0.2,0.8,0.4,1.3,0.6c0.2,0.1,0.4,0.2,0.5,0.2C100.2,143.6,99.8,143.8,99.5,144z
		 M93.8,145.4c-0.4-0.2-0.7-0.4-1.1-0.7c1.5-0.9,3.1-1.9,4.5-2.9c0.7,0.3,0.2,0.1,1.2,0.6C96.8,143.4,95.3,144.4,93.8,145.4z
		 M92.2,144.5c-0.4-0.2-0.8-0.5-1.2-0.7c1.4-1,2.7-1.9,4-3c0.7,0.3,1,0.5,1.7,0.9C95.2,142.5,93.7,143.5,92.2,144.5z M95.2,140.2
		c-0.4-0.2-0.9-0.4-1.3-0.7c0.1,0,0.1-0.1,0.2-0.1C94.5,139.7,94.9,139.9,95.2,140.2C95.3,140.2,95.3,140.2,95.2,140.2z M94.7,140.6
		c-1.4,0.9-2.7,2-4,3c-0.5-0.3-1.1-0.6-1.6-1c1.5-0.8,3-1.7,4.4-2.7C93.9,140.1,94.3,140.4,94.7,140.6z M93.5,139.3
		c-0.6-0.3-1.2-0.6-1.7-0.9c0.1-0.1,0.2-0.1,0.3-0.2c0.5,0.3,1.1,0.7,1.6,1C93.7,139.3,93.6,139.3,93.5,139.3z M92.9,139.7
		c-1.5,0.8-2.9,1.7-4.3,2.7c-0.8-0.5-0.7-0.4-1.3-0.7c1.4-0.9,2.7-1.8,4-2.8C91.9,139.1,92.4,139.4,92.9,139.7z M91.4,138.3
		c-1.2-0.6-0.8-0.4-1.9-0.9c0.1-0.1,0.3-0.2,0.4-0.4c0.1,0.1,1,0.6,1.8,1C91.7,138.1,91.5,138.2,91.4,138.3z M89.2,137.2
		c-0.1,0-0.1,0-0.1,0.1c-0.2,0.2-0.5,0.3-0.7,0.5c-0.1-0.1-0.3-0.2-0.7-0.5c0.3-0.3,0.7-0.5,1-0.8c0.1-0.1,0-0.3-0.2-0.3
		c-0.4,0.2-0.9,0.5-1.3,0.7c-0.5-0.3-0.9-0.6-1.4-0.9c1.3-1.1,1-1.2-0.6-0.3c-0.3-0.2-0.6-0.4-0.9-0.6c0.4-0.3,0.8-0.6,1.1-0.9
		c1.5,0.9,2.9,1.7,4.4,2.6C89.6,137,89.4,137.1,89.2,137.2z M83.6,134.8c-0.4-0.3-0.9-0.5-1.3-0.8c0.4-0.3,0.8-0.6,1.2-0.9
		c0.5,0.3,1,0.6,1.5,0.9C84.5,134.3,84.1,134.5,83.6,134.8z M81.7,133.6c-0.5-0.3-1.1-0.6-1.6-0.9c0.2-0.2,1-0.8,1-0.9
		c0.6,0.4-0.1-0.1,2,1.2C82.6,133.1,82.1,133.4,81.7,133.6z M79.6,132.4c-0.5-0.3-1.1-0.6-1.6-0.9c1.6-1.2,1.1-1.3-0.6-0.3
		c-0.5-0.3-0.9-0.5-1.4-0.8c0.2-0.2,0.9-0.8,1-1c1.3,0.7,2.5,1.5,3.8,2.2C80.4,131.9,80,132.1,79.6,132.4z M75.6,130.1
		c-0.9-0.5-1.8-1-2.7-1.5c0.1-0.1,0.2-0.2,0.3-0.3c0.1-0.1,0-0.3-0.2-0.3c-0.2,0.1-0.3,0.2-0.5,0.3c-0.5-0.3-0.9-0.5-1.4-0.8
		c0.2-0.1,0.4-0.3,0.6-0.4c0.1-0.1,0-0.3-0.2-0.3c-0.3,0.1-0.6,0.3-0.9,0.5c-1.3-0.7-2.6-1.4-3.9-2.1c0.5-0.3,1-0.7,1.5-1
		c0,0,0,0,0,0c2.9,1.7,5.7,3.3,8.6,5C76.4,129.5,76,129.8,75.6,130.1z M66.2,125c-0.7-0.4-1.3-0.7-2-1.1c0.1-0.1,0.2-0.1,0.3-0.2
		c0.1-0.1,0.1-0.3-0.1-0.3c-0.2,0.1-0.4,0.2-0.6,0.3c-1.5-0.8-2.9-1.6-4.4-2.4c0.3-0.1,0.6-0.2,0.9-0.3c0.1,0,0.1,0,0.2-0.1
		c0.8,0.5,1.7,0.9,2.5,1.4c0.5,0.3,1.1,0.6,1.6,0.9c0.3,0.1,0.6,0.3,0.9,0.4c0.3,0.1,0.2-0.2,0.1-0.3c-0.4-0.3-0.8-0.5-1.2-0.7
		c-1.1-0.7-2.1-1.3-3.3-1.9c0.1,0,0.2-0.1,0.3-0.1c0.1,0,0.2-0.1,0.2-0.1c2.1,1.2,4.2,2.4,6.2,3.6C67.4,124.3,66.8,124.7,66.2,125z
		 M60.8,118.2c-0.3-0.2-0.6-0.4-1-0.6c0.2-0.1,0.4-0.2,0.6-0.3c0.3,0.2,0.7,0.4,1,0.6C61.3,118,61.1,118.1,60.8,118.2z M61.4,116.2
		c-0.3-0.2-0.7-0.4-1-0.6c0,0,0.1,0,0.1,0c0.3-0.2,0.7-0.3,1-0.5c0,0-0.1,0-0.1,0.1c0,0-0.1,0.1-0.1,0.1c-0.5,0.4-0.5,0.4-0.4,0.5
		c0.1,0.1,0.1,0.1,0.2,0.1c0.1,0,0.1-0.1,0.2-0.1c0.1-0.1,0.3-0.2,0.4-0.3c0,0,0,0,0,0c0.2-0.1,0.4-0.2,0.6-0.4c0,0,0,0,0,0
		c0,0.2,0,0.4,0,0.6C62,116,61.7,116.1,61.4,116.2z M62.3,112.2c-0.7,0.5-1.3,0.8-1.8,1.2c0-0.6,0.1-1,0.1-1.4
		c0.6-0.1,1.1-0.2,1.7-0.3C62.4,111.9,62.4,112.1,62.3,112.2z M56.7,113.5c-0.2-0.1-0.4-0.3-0.7-0.4c0.3-0.1,0.6-0.2,0.8-0.5
		c0.7-0.1,1.5-0.2,2.2-0.4C58.2,112.7,57.5,113.1,56.7,113.5z M58.1,116c-0.2,0.1-0.4,0.2-0.6,0.3c-0.8-0.5-1.6-0.9-2.3-1.4
		c0.2-0.1,0.4-0.2,0.5-0.3C56.5,115.1,57.3,115.6,58.1,116z M55.8,117c-0.2,0.1-0.4,0.2-0.6,0.3c-0.7-0.4-1.4-0.9-2.1-1.3
		c0.2-0.1,0.4-0.2,0.6-0.3C54.3,116.1,55.1,116.5,55.8,117z M54.6,114.6C54.6,114.6,54.6,114.6,54.6,114.6c-1-0.6-2-1.1-3-1.7
		c0.2-0.1,0.3-0.2,0.5-0.3c1,0.6,2,1.1,3,1.7C54.9,114.4,54.8,114.5,54.6,114.6z M53,115.4c-0.2,0.1-0.4,0.2-0.6,0.3
		c-0.6-0.3-1.1-0.6-1.6-0.9c0,0,0,0,0,0c0.1-0.1,0.2-0.1,0.2-0.2c0,0,0.1-0.1,0.1-0.2C51.8,114.6,52.4,115,53,115.4z M51.1,112.5
		c-0.5-0.3-1-0.6-1.4-0.8c0.1-0.1,0.2-0.1,0.4-0.2c0,0,0.1,0,0.1-0.1c0.5,0.3,1,0.6,1.5,0.8C51.4,112.4,51.2,112.4,51.1,112.5z
		 M50.1,113.6c0.3,0.2,0.5,0.3,0.8,0.5c0,0,0,0-0.1,0c-0.2,0.1-0.3,0.2-0.5,0.2c-0.3-0.2-0.6-0.3-0.8-0.5
		C49.7,113.8,49.9,113.7,50.1,113.6z M49,111.4c-0.5-0.3-1-0.6-1.5-0.9c0.2-0.1,0.3-0.1,0.5-0.2c0.5,0.3,1,0.6,1.5,0.9
		C49.4,111.2,49.2,111.3,49,111.4z M49,109.2c-1.1-0.7-2.3-1.3-3.4-1.9c0.1-0.1,0.3-0.1,0.4-0.2c0.2-0.1,0.3-0.2,0.5-0.3
		c0,0,0,0,0,0c0.1,0.1,0.3,0.2,0.4,0.3c0.8,0.6,1.6,1.3,2.5,2C49.2,109.1,49.1,109.2,49,109.2z M42.4,104.6c0.2,0.1,0.4,0.3,0.7,0.4
		c0,0-0.1,0-0.1,0c-0.2,0.1-0.4,0.2-0.6,0.3c-0.5-0.3-1-0.6-1.5-0.8c0.1-0.1,0.3-0.1,0.4-0.2c0.1-0.1,0.2-0.1,0.3-0.2
		C41.9,104.3,42.1,104.5,42.4,104.6z M41.8,103.5c0,0-0.1,0-0.1,0c-0.3-0.2-0.7-0.5-1-0.7c0.1-0.1,0.2-0.1,0.2-0.2c0,0,0,0,0.1-0.1
		c0.4,0.3,0.7,0.5,1.1,0.8C41.9,103.4,41.9,103.5,41.8,103.5z M41.1,103.8c-0.2,0.1-0.5,0.3-0.8,0.4c-0.4-0.2-0.8-0.4-1.2-0.7
		c0.1,0,0.3-0.1,0.4-0.2c0.2-0.1,0.4-0.2,0.6-0.3C40.4,103.3,40.7,103.6,41.1,103.8z M40.1,102.5c-0.5-0.4-1.1-0.7-1.6-1.1
		c0.1-0.1,0.2-0.1,0.3-0.2c0,0,0.1-0.1,0.1-0.1c0.4,0.3,0.7,0.6,1.1,0.8c0.2,0.1,0.4,0.3,0.5,0.4C40.4,102.3,40.3,102.4,40.1,102.5z
		 M38,101c-0.5-0.4-1.1-0.7-1.7-1.1c0-0.1-0.1-0.2-0.1-0.2c0,0-0.1,0-0.1,0c-0.1-0.1-0.3-0.2-0.4-0.3c-0.4-0.3-0.8-0.6-1.2-0.8
		c0.1-0.1,0.3-0.1,0.4-0.2c0.1-0.1,0.2-0.1,0.3-0.2c1.1,0.9,2.2,1.7,3.4,2.5C38.3,100.8,38.1,100.9,38,101z M33.9,98.2
		c-0.5-0.3-1-0.7-1.5-1c0.1,0,0.1-0.1,0.2-0.1c0.1-0.1,0.2-0.2,0.3-0.3c0.1-0.1,0.1-0.1,0.2-0.2c0.5,0.4,1.1,0.8,1.6,1.2
		C34.5,98,34.2,98.1,33.9,98.2z M31.1,95.3c-0.3,0.1-0.5,0.2-0.7,0.4c-0.2-0.2-0.5-0.3-0.7-0.5c0.1-0.1,0.2-0.1,0.4-0.2
		c0.1-0.1,0.3-0.2,0.4-0.2c0,0,0.1-0.1,0.1-0.1c0.1,0.1,0.3,0.2,0.4,0.2c0.1,0.1,0.3,0.2,0.4,0.3C31.2,95.2,31.1,95.3,31.1,95.3z
		 M29.1,94.9C29.1,94.9,29.1,94.9,29.1,94.9c-0.5-0.3-0.8-0.5-1.2-0.8c0,0-0.1,0-0.1-0.1c0.1,0,0.2-0.1,0.3-0.1
		c0.2-0.1,0.4-0.2,0.6-0.3c0.1,0.1,0.3,0.2,0.4,0.3c0.3,0.2,0.6,0.4,0.8,0.6C29.7,94.5,29.5,94.7,29.1,94.9z M28.6,95.1
		C28.5,95.1,28.5,95.1,28.6,95.1c-0.5-0.3-1-0.5-1.4-0.8c0.1,0,0.1,0,0.2-0.1c0.1,0,0.1,0.1,0.2,0.1c0,0,0.1,0.1,0.1,0.1
		C28,94.7,28.3,94.9,28.6,95.1z M14.9,91.7c0-0.3,0-0.7-0.1-1c0,0,0.1,0,0.1,0c7.9,4.9,15.8,9.6,23.8,14.2c0,0,0,0,0,0
		c0,0-0.1,0-0.1,0.1c-0.2,0.1-0.3,0.1-0.2,0.2C29.4,100,21.9,95.6,14.9,91.7z M194.5,124.1c0.4,2.9,0,5.7,0.1,8.5
		c-0.1,0.2-0.3,0.4-0.5,0.6c0,0,0,0-0.1,0c-14,4.6-27.7,10-41.6,15c-6.8,2.5-13.6,4.9-20.4,7.4c-6.6,2.4-13.2,4.6-19.6,7.4
		c-0.2-0.2-0.5-0.3-0.7-0.4c0,0-0.1,0-0.1-0.1c0-0.1-0.1-0.1-0.2-0.1c-24.9-13.6-49.1-27-73.3-41.9c-7.1-4.4-14.7-9.5-17.8-11.3
		c-0.8-0.5-1.5-0.9-2.3-1.4c0.1-0.4,0.2-0.8,0.2-1.2c0.1-0.3,0.1-0.6,0.1-0.8c0.1,0,0.1,0,0.2,0c0.2,0.2,0.4,0.3,0.7,0.5
		c0,0,0,0,0,0c22.7,15.9,46.9,29.3,71,43.4c6.8,4,13.8,7.7,20.8,11.5c0.4,0,0.9-0.1,1.3-0.3c0-0.1,0-0.2,0-0.3
		c6.5-2,12.9-4.5,19.4-6.8c6.9-2.4,13.9-4.9,20.8-7.3c13.6-4.7,27.5-9.2,40.9-14.6c0-0.1,0.1-0.1,0.1-0.2c0.1-0.3,0.2-0.7,0.4-1
		c-0.1,0-0.1,0-0.2,0c0.8-2.3,0.5-5.2,0.3-7.4c-0.2-2.1-0.4-4.9-2-6.5c0.2-0.1,0.5-0.2,0.7-0.2C194,118.9,194.2,121.5,194.5,124.1z
		 M155.7,141.4c-7.5,2.5-15.1,4.9-22.6,7.4c-3.7,1.2-7.4,2.4-11.1,3.7c-3.5,1.2-7.2,2.1-10.6,3.6c0-1,0-2,0-3c0,0,0.1,0,0.1-0.1
		c0.1-0.1,0-0.3-0.1-0.3c0-0.4,0-0.8,0-1.1c9.6-2.8,19.2-5.9,28.8-8.8c9.6-3,19.3-5.6,28.8-9c0.2-0.1,0.1-0.3-0.1-0.3
		c-9.7,2.5-19.2,5.9-28.8,8.9c-9.6,3-19.1,5.9-28.7,9c0-0.3,0-0.6,0-0.9c0-0.5,0-1,0-1.5c0.1,0,0.1,0,0.2,0
		c4.2-0.8,8.4-2.4,12.6-3.7c4.2-1.3,8.4-2.5,12.5-3.9c0.1,0,0.1-0.2-0.1-0.2c-4.2,1.1-8.4,2.3-12.6,3.5c-4.1,1.2-8.6,2.1-12.6,3.7
		c0,0,0,0-0.1,0c0-0.3,0-0.6,0-0.8c0.1,0,0.3,0.1,0.5,0.1c0.1,0,0.2-0.2,0.1-0.3c-0.2-0.1-0.4-0.2-0.6-0.3c0-1.1-0.1-2.1-0.2-3.2
		c0,0,0,0,0,0c0.1,0,0.1,0,0.2,0c0.1-0.1,0.1-0.2,0.1-0.3c0-0.1-0.1-0.1-0.1-0.1c0.1,0,0.1,0,0.2,0c0.1,0,0.1,0,0.2,0
		c2.6-0.6,6.1-1.5,10-2.6c1.8-0.5,3.6-1,5.4-1.5c1.2-0.3,2.4-0.7,3.6-1c0.7-0.2,1.4-0.4,2.1-0.6c0.4-0.1,0.8-0.2,1.1-0.4
		c0.3-0.2,0.1-0.3-0.2-0.3c-0.6,0.1-1.1,0.3-1.6,0.4c-3.4,0.8-6.1,1.7-10.6,2.9c-3.9,1.1-7.5,1.9-10,2.7c-0.1,0-0.3,0.1-0.4,0.1
		c0-0.7,0.1-1.5-0.1-2.2c6.7-1.9,70.1-21,76.8-23c1.1-0.3,2.2-0.7,3.4-1c0.2,1.1,0.9,2.1,1.2,3.2c0.4,1.3,0.7,2.7,0.8,4.1
		c0.2,2.3-0.2,4.4-0.4,6.7c-13.7,4.6-27.2,9.6-40.8,14.4c-6.8,2.4-13.7,4.8-20.5,7.2c-6.6,2.3-13.3,4.5-19.8,7.3
		c0-0.3-0.1-0.6-0.2-0.8c-0.1-0.3-0.1-0.5-0.2-0.8c0.1-0.5,0.1-1,0.1-1.5c0,0,0-0.1,0-0.2c3.8-0.8,7.5-2.4,11.1-3.7
		c3.7-1.3,7.4-2.5,11.1-3.8C140.9,146.6,148.3,144,155.7,141.4C155.7,141.5,155.7,141.4,155.7,141.4z M194.8,90
		c1.9,0.4,2.9,2.3,3.3,4.6c0.2-2.2,1.5,8.4,1.7,12.7c0.1,3.1-0.4,6.1-3.7,7.3c-0.2,0.1-0.3,0-0.3-0.2c-3.2,0.7-73.3,22-73.4,22.1
		c-5.8,1.8-11.7,3.6-17.5,5.5c-0.1,0-0.2-0.1-0.2-0.1c0,0-0.1,0-0.1,0c-0.5-0.2-0.4-0.2-0.5,0c-0.1,0.1,0,0.2,0,0.2
		c0,0,0.1,0,0.1,0.1c0.1,0,0.1,0.1,0.2,0.1c-0.4,0.1-0.8,0.3-1.2,0.4c-0.1-0.1-0.2,0-0.2,0.1c-0.3,0.1-0.6,0.2-0.8,0.3
		c0-0.1-0.1-0.3-0.2-0.4c-4.7-3.5-5.1-3.3-35.1-20.9c-1.8-1-3.5-2-5.3-3.1h0c0.2-0.1,0.4-0.2,0.6-0.3c37.7,21.4,35.9,20.8,39.6,22.4
		c0,0,0,0.1,0.1,0.1c-0.1,0-0.2,0.1-0.3,0.1c-0.1,0-0.1,0.1-0.1,0.2c0.1,0,0.2,0.1,0.3,0.1c0,0,0.1,0,0.1,0
		c10.8-2.7,14-3.7,86.2-25.5c2.3-0.7,4.6-1.6,7-2.1c1.9-0.4,2.3-0.6,3.1-2.6c0.1-0.1,0.1-0.3,0.1-0.4c0.1,0,0.1,0,0.2,0
		c0.3-0.1,0.3-0.5,0.1-0.6c1.5-5.1,0-11-1-15.9c-0.3-1.6-1.1-2.5-2.1-3.7c-1.4-0.2-77.3,19.1-77.3,19.1c-4.1,1-8.2,2.1-12.2,3.1
		c0,0,0,0,0,0.1c-2.9,0.4-5.7,1-8.5,1.8c-1.9-1.4-3.4-2-8.8-5.1c0.3-0.2,0.7-0.4,1-0.6c5.1,2.9,6.7,5,10.3,4.2
		c3.9-0.8,7.7-1.7,11.6-2.6c7.7-1.8,15.3-3.9,23-5.8c15.2-3.8,32.2-8,52.1-13c2.2-0.6,4.4-1.1,6.6-1.7
		C193.6,89.9,194.2,89.9,194.8,90z M193.1,88.6c-25.3,6.3-50.6,12.6-75.9,19c-6.4,1.6-12.8,3.2-19.1,5.1c0,0,0,0-0.1-0.1
		c-1.5-1.2-4.1-2.6-6.4-3.7c0.5-0.3,6.8-3.7,6.4-4.2c1.2-0.2,2.4-0.5,3.5-0.7c-0.1,0-5.1,3.1-5.2,3.2c-0.1,0-0.1,0.1-0.2,0.1
		c-0.6,0.4-0.6,0.3-0.5,0.5c0.1,0.1,0.1,0.1,0.2,0.1c0.1,0,0.1-0.1,0.2-0.1c0.1-0.1,0.3-0.2,0.4-0.2c0,0,0,0,0.1,0
		c0.1-0.1,0.2-0.1,0.4-0.2c0.1,0,0.2,0,0.3,0c0.2,0,0.3-0.1,0.5-0.1c0.4-0.1,0.8-0.2,1.1-0.2c0,0,0.1,0,0.1,0
		c0.3-0.1,0.6-0.1,0.9-0.2c0.1,0,0.1,0,0.1,0c0,0,0,0,0.1,0c4.6-0.9,6.9-1.5,9.4-2c0.1,0.1,0.1,0.1,0.5-0.1c0.5-0.1,2.4-0.6,2.9-0.7
		c-0.4,0.2-0.4,0.2-0.3,0.4c0.1,0.1,0.1,0.1,0.2,0.1c0.1,0,0.1-0.1,0.2-0.1c0.2-0.1,0.3-0.2,0.5-0.2c0,0,0,0,0.1,0
		c0.3-0.1,0.6-0.3,0.9-0.5c0.4-0.1,0.9-0.2,1.3-0.4c0.3-0.1,0.6-0.1,0.9-0.3c0.2-0.1,0.1-0.3-0.1-0.3c-0.2,0-0.4,0.1-0.6,0.1
		c1.1-0.6,2.8-1.6,3.9-2.4c1-0.2,2-0.4,3-0.6c-0.4,0.2-0.7,0.4-1.2,0.7c-1.1,0.6-2.2,1.1-2.9,1.6c-0.1,0-0.1,0.1-0.2,0.1
		c-0.5,0.4-0.6,0.3-0.5,0.5c0.1,0.1,0.1,0.1,0.2,0.1c0.1,0,0.1-0.1,0.2-0.1c0.1-0.1,0.3-0.1,0.4-0.2c0,0,0,0,0.1,0
		c0.8-0.4,1.8-0.9,3-1.5c0.5-0.3,1.1-0.6,1.6-0.9c0.3-0.2,0.7-0.4,1-0.6c0,0,0,0,0,0c0.5-0.1,1-0.2,1.5-0.3
		c-0.1,0.1-0.3,0.2-0.4,0.3c-0.8,0.5-1.5,0.9-2,1.2c0,0-0.1,0.1-0.1,0.1c-0.4,0.3-0.4,0.2-0.3,0.4c0.1,0.1,0.1,0.1,0.2,0.1
		c0,0,0.1,0,0.1-0.1c0.1-0.1,0.2-0.1,0.3-0.2c0,0,0,0,0,0c0.5-0.2,1.2-0.6,1.9-1c0.1,0.1,0.3,0,0.4,0c0.2,0,0.4-0.1,0.6-0.1
		c-0.3,0.2-0.5,0.4-0.7,0.5c0,0-0.1,0.1-0.1,0.1c-0.5,0.4-0.5,0.3-0.4,0.5c0.1,0.1,0.1,0.1,0.2,0.1c0.1,0,0.1-0.1,0.2-0.1
		c0.1-0.1,0.3-0.2,0.4-0.2c0,0,0,0,0,0c0.5-0.3,1.1-0.6,1.7-1.1c0.2,0,0.4-0.1,0.6-0.1c0.1,0,0.1,0,0.2,0c0.4-0.1,0.9-0.1,1.3-0.2
		c-0.8,0.4-1.6,0.7-2.1,1c0,0-0.1,0.1-0.1,0.1c-0.4,0.3-0.4,0.2-0.3,0.4c0.1,0.1,0.1,0.1,0.2,0.1c0,0,0.1,0,0.1-0.1
		c0.1,0,0.2-0.1,0.3-0.1c0,0,0,0,0,0c0.6-0.2,1.4-0.5,2.2-1c0.4-0.2,0.8-0.4,1.2-0.6c0.1,0,0.1-0.1,0.2-0.1c2.7-0.4,5.9-0.9,9.3-1.5
		c2.3-0.4,4.5-0.8,6.7-1.2c1.5-0.3,3-0.5,4.5-0.8c0.9-0.2,1.8-0.3,2.6-0.5c0.4-0.1,1-0.2,1.4-0.3c0.4-0.1,0.1-0.3-0.2-0.3
		c-0.7,0.1-1.4,0.2-2,0.3c-4.2,0.6-7.6,1.3-13.1,2.2c-2.9,0.5-5.7,0.9-8.1,1.3c0,0,0.1-0.1,0.1-0.1c0-0.1-0.1-0.3-0.2-0.3
		c-0.1,0-0.3,0.1-0.4,0.1c-0.4,0.1-0.7,0.3-1,0.5c-1,0.2-1.9,0.3-2.8,0.5c0,0,0,0,0.1,0c0.4-0.3,0.8-0.6,1.2-0.9
		c1.7-0.4,3.4-0.8,5.1-1.2c1-0.1,1.7-0.4,2.4-1c0,0,0.1,0,0.1,0c-0.2,0.2-0.5,0.4-0.7,0.6c-0.1,0.1-0.1,0.1-0.2,0.2
		c-0.6,0.6-0.7,0.6-0.5,0.7c0.1,0.1,0.2,0.1,0.2,0c0.1-0.1,0.1-0.1,0.2-0.2c0.2-0.1,0.3-0.3,0.5-0.4c0,0,0,0,0.1,0
		c0.4-0.3,0.9-0.7,1.4-1.1c1.6-0.2,3.8-0.5,6.2-0.9c1.2-0.2,2.3-0.4,3.5-0.6c0.8-0.1,1.5-0.3,2.3-0.4c0.3-0.1,0.7-0.1,1-0.2
		c0.2,0,0.3-0.1,0.5-0.1c0.9-0.2,1.8-0.4,2.7-0.6c0.6-0.1,1.2-0.3,1.8-0.4c0.3-0.1,0.5-0.1,0.8-0.2c-0.2,0.1-0.4,0.2-0.5,0.3
		c0,0-0.1,0-0.1,0.1c-0.3,0.2-0.3,0.2-0.3,0.3c-0.2,0.1-0.2,0-0.2,0.2c0,0.1,0.1,0.1,0.1,0.1c0,0,0.1,0,0.1,0c0.1,0,0.2,0,0.3,0
		c0,0,0,0,0,0c0.6,0,1.3-0.1,2.1-0.3c0.1,0,0.3-0.1,0.4-0.1c-0.1,0.1-0.1,0.1,0,0.2c0.1,0.1,0.1,0.1,0.2,0.1c0,0,0.1,0,0.1-0.1
		c0.1,0,0.2-0.1,0.3-0.1c0,0,0,0,0,0c0.4-0.2,0.8-0.4,1.3-0.6c0,0,0.1,0,0.1,0c0.2-0.1,0.5-0.2,0.7-0.4c0.4-0.2,0.8-0.4,1.1-0.7
		c0.2-0.1,0.5-0.3,0.7-0.5c0.1-0.1,0.3-0.2,0.4-0.3c0,0,0,0,0,0c0.6-0.1,1.2-0.2,1.9-0.4c-0.3,0.2-0.6,0.4-1,0.6
		c-0.9,0.5-1.7,0.9-2.2,1.3c0,0-0.1,0.1-0.1,0.1c-0.4,0.3-0.4,0.2-0.3,0.4c0.1,0.1,0.1,0.1,0.2,0.1c0,0,0.1,0,0.1-0.1
		c0.1-0.1,0.2-0.1,0.3-0.2c0,0,0,0,0,0c0.6-0.3,1.4-0.7,2.2-1.1c0.4-0.2,0.8-0.5,1.2-0.7c0.3-0.2,0.5-0.3,0.8-0.5
		c0.1-0.1,0.2-0.1,0.2-0.2c2-0.4,1.5-0.3,2.6-0.5c-0.2,0.1-0.4,0.2-0.6,0.3c-1,0.5-1.9,0.9-2.5,1.3c0,0-0.1,0.1-0.1,0.1
		c-0.5,0.3-0.5,0.2-0.4,0.4c0.1,0.1,0.1,0.1,0.2,0.1c0.1,0,0.1,0,0.2-0.1c0.1-0.1,0.2-0.1,0.4-0.2c0,0,0,0,0,0
		c0.7-0.3,1.6-0.7,2.6-1.2c0.5-0.2,0.9-0.5,1.4-0.7c0.3-0.2,0.5-0.3,0.8-0.5c0.3-0.1,0.6-0.1,1-0.2c-0.8,0.4-1.6,0.8-2.2,1.2
		c0,0-0.1,0.1-0.1,0.1c-0.5,0.3-0.5,0.2-0.4,0.4c0.1,0.1,0.1,0.1,0.2,0.1c0.1,0,0.1,0,0.2-0.1c0.1-0.1,0.2-0.1,0.4-0.2c0,0,0,0,0,0
		c0.7-0.3,1.5-0.7,2.5-1.2c0.4-0.2,0.9-0.5,1.3-0.7c0,0,0.1-0.1,0.1-0.1c1.3-0.3,2.5-0.6,3.8-0.9c-0.5,0.3-1,0.5-1.7,0.9
		c-0.9,0.5-1.7,0.8-2.3,1.2c0,0-0.1,0.1-0.1,0.1c-0.1,0.1-0.2,0.1-0.2,0.1c-1.5,0.4-2.8,0.7-3.8,1c-0.1,0-0.2,0.1-0.3,0.1
		c-0.8,0.3-0.8,0.2-0.8,0.4c0,0.1,0.1,0.1,0.2,0.1c0.1,0,0.2,0,0.3-0.1c0.2,0,0.4-0.1,0.6-0.1c0,0,0.1,0,0.1,0
		c1.1-0.2,2.6-0.6,4.3-1c0.8-0.2,1.5-0.4,2.3-0.7c0.2-0.1,0.5-0.1,0.7-0.2c0.1,0.1,0.1,0.1,0.1,0.1c0,0,0.1,0,0.1,0
		c0.1,0,0.2-0.1,0.2-0.1c0,0,0,0,0,0c0.1,0,0.2-0.1,0.4-0.1c0.9-0.1,1.8-0.3,2.8-0.5c0.8-0.1,1.6-0.3,2.4-0.5
		c0.7-0.1,1.8-0.4,2.5-0.6c0.2,0,0.4-0.1,0.5-0.2c0.1-0.1,0-0.3-0.1-0.3c-0.2,0-0.5,0.1-0.7,0.1c-1.5,0.2-2.7,0.5-4.6,0.9
		c-0.4,0.1-0.7,0.1-1,0.2c0.1-0.1,0.3-0.1,0.4-0.2c0.2-0.1,0.4-0.2,0.5-0.3c0.1-0.1,0.2-0.1,0.3-0.2c0,0,0.1-0.1,0.1-0.2
		c0-0.1-0.1-0.3-0.2-0.3c-0.1,0-0.2,0.1-0.3,0.1c-0.6,0.2-1,0.5-1.7,0.9c-0.3,0.2-0.6,0.3-0.9,0.4c-0.4,0.1-0.7,0.2-1,0.3
		c-0.2,0-0.5,0.1-0.7,0.2c0,0,0,0,0,0c0,0,0,0,0,0c0.4-0.2,0.8-0.4,1.2-0.7c0.3-0.1,0.5-0.3,0.8-0.5c0.2-0.1,0.3-0.2,0.5-0.3
		c0.1-0.1,0.2-0.1,0.2-0.2c0,0,0,0,0,0c0.3-0.1,0.5-0.1,0.8-0.2c1.9-0.4,3.8-0.9,5.8-1.3C188.8,86.9,191,87.7,193.1,88.6z
		 M106.3,104.8c0.1,0.1,0.1,0.1,0.2,0.1c0.1,0,0.1-0.1,0.2-0.1c0.1-0.1,0.3-0.2,0.4-0.2c0,0,0,0,0.1,0c0.7-0.4,1.7-1,2.8-1.7
		c0.3-0.2,0.6-0.4,0.9-0.6c0.9-0.2,1.9-0.4,2.8-0.6c-1.6,1.1-3.1,2-3.7,2.5c-2.7,0.6-3.6,0.8-6.1,1.4c1.6-0.9,2.4-1.4,4.2-2.7
		c0.5-0.1,0.9-0.2,1.4-0.3c-1,0.6-1.9,1.2-2.5,1.6c-0.1,0-0.1,0.1-0.2,0.1C106.2,104.7,106.2,104.6,106.3,104.8z M115,101.4
		c1.1-0.2,2.1-0.4,3.2-0.6c-0.5,0.3-1.1,0.7-1.9,1.1c-0.8,0.5-1.6,0.9-2.3,1.3c-0.9,0.2-1.7,0.4-2.6,0.6
		C112.8,103,114.3,102,115,101.4z M103.2,105.7c-0.7,0.1-1.3,0.3-2,0.4c1.3-0.8,2.7-1.8,3.8-2.7c0.5-0.1,1.1-0.2,1.6-0.3
		C105.7,103.8,103.1,105.4,103.2,105.7z M100.1,106.4c-0.4,0.1-0.9,0.2-1.2,0.3c-0.2,0-0.3,0.1-0.5,0.1c-0.2,0.1-0.4,0.1-0.5,0.1
		c3.1-1.7,4.9-3.1,5-3.1c0.3-0.1,0.7-0.1,1-0.2C101.4,105.5,101.3,105.4,100.1,106.4z M126.1,99.7c0.2-0.2,0.5-0.3,0.7-0.5
		c0.2-0.1,0.3-0.2,0.5-0.4c0.5-0.1,0.9-0.2,1.4-0.3c-0.1,0-0.1,0.1-0.2,0.1c-0.4,0.3-0.8,0.5-1.2,0.8
		C126.8,99.6,126.3,99.7,126.1,99.7z M151.6,92.3c0.1,0.1,0.1,0.1,0.1,0.1c0,0,0.1,0,0.1-0.1c0.1,0,0.2-0.1,0.3-0.1c0,0,0,0,0,0
		c0.5-0.2,1.1-0.5,1.8-0.9c0.5-0.3,1.4-0.8,1.8-1.2c0.4,0.1,0.5,0.1,1.2,0.3c-0.9,0.4-2.8,1.3-2.8,1.3c0,0-0.1,0-0.1,0.1
		c-0.3,0.2-0.4,0.2-0.3,0.4c0.1,0.1,0.1,0.1,0.1,0.1c0,0,0.1,0,0.1,0c0.1,0,0.2-0.1,0.3-0.1c0,0,0,0,0,0c1.3-0.4,2.4-1,3.3-1.5
		c1.2,0.4,1.2,0.5,1.9,0.6c-0.5,0.3-0.8,0.4-1.4,0.8c-0.1-0.3-0.2-0.2-6.2,1.1c-1,0.2-2,0.4-2.9,0.6c-1.3,0.2-2.6,0.5-4.3,0.8
		c-0.3,0.1-0.7,0.1-1,0.2c0.1,0,0.1-0.1,0.2-0.1c0,0,0,0,0,0c0.5-0.3,1-0.8,1.6-1.3c0.2,0,0.4-0.1,0.7-0.1c-0.1,0.1-0.1,0.1,0,0.2
		c0.1,0.1,0.1,0.1,0.2,0.1c0.1,0,0.1-0.1,0.2-0.1c0.1-0.1,0.2-0.1,0.4-0.2c0,0,0,0,0,0c0.1-0.1,0.2-0.1,0.3-0.2
		c0.6-0.1,1.1-0.3,1.7-0.4c0.1,0,0.1,0,0.2,0c0,0,0.1,0,0.1,0c0,0,0.1,0,0.1,0c0.4-0.1,0.8-0.2,1.2-0.3c0.3-0.1,0.6-0.2,0.9-0.3
		c0.2-0.1,0.3-0.1,0.5-0.2c0.1-0.1,0-0.3-0.1-0.3c-0.2,0-0.5,0.1-0.7,0.1c0,0,0,0,0,0c0.3-0.2,0.6-0.4,1-0.6c1.1-0.7,1.4-0.9,1.6-1
		c0.5,0,1,0.1,1.5,0.2c-0.1,0-3,1.8-3.1,1.8c0,0-0.1,0.1-0.1,0.1C151.5,92.2,151.5,92.1,151.6,92.3z M159.8,91.8
		c0.5-0.3,0.6-0.4,0.7-0.4c0.8,0,1.6-0.1,2.5-0.3c-1.2,0.7-1,0.6-2.2,1.2c-0.6,0.1-1.1,0.2-1.9,0.4c-0.4,0.1-0.8,0.1-1.1,0.2
		c0.3-0.1,0.7-0.3,1.1-0.5C159.1,92.2,159.4,92,159.8,91.8z M149,90.5c-0.1,0-0.3,0-0.4,0.1c0,0,0.1-0.1,0.2-0.1
		c0.2-0.2,0.3-0.3,0.5-0.5c0,0,0,0,0,0c0.4,0,0.8-0.1,1.1-0.1c0.1,0,0.2,0,0.4,0c-0.5,0.4-1,0.8-1.7,1.3c-0.7,0.5-1.4,0.9-1.9,1.3
		c-0.2,0.1-0.4,0.1-0.7,0.2c0,0,0,0,0,0c0,0,0,0,0,0c0.4-0.4,0.9-0.8,1.3-1.2c0.1,0,0.2-0.1,0.3-0.1c0.2-0.1,0.4-0.1,0.6-0.2
		c0.1,0,0.2-0.1,0.3-0.2C149.2,90.6,149.1,90.5,149,90.5z M151.6,89.8c0,0,0.1-0.1,0.1-0.1c0.3,0,0.6,0,1,0c-0.3,0.2-0.6,0.4-1,0.6
		c-0.8,0.5-1.6,0.9-2.1,1.3c-0.3,0.1-0.5,0.1-0.8,0.2c0.2-0.2,0.5-0.3,0.7-0.5c0.4-0.3,0.9-0.6,1.3-0.9
		C151,90.3,151.3,90.1,151.6,89.8z M146.2,92c-0.3,0.2-0.5,0.5-0.8,0.7c-0.6,0.1-1.2,0.2-1.7,0.4c0.2-0.1,0.4-0.3,0.5-0.5
		c0.2-0.2,0.3-0.3,0.5-0.5c0.3-0.1,0.6-0.1,0.9-0.2c0.3-0.1,0.7-0.2,1-0.3C146.5,91.8,146.3,91.9,146.2,92z M147.5,90.8
		c-0.6,0.2-1.2,0.3-1.9,0.6c0.2-0.2,0.4-0.3,0.5-0.5c0.1-0.1,0.3-0.3,0.4-0.5c0,0,0.1-0.1,0.1-0.1c0.6-0.1,1.3-0.2,1.9-0.3
		C148.2,90.2,147.9,90.5,147.5,90.8z M144.4,91.6c-0.4,0.1-0.8,0.2-1.1,0.3c0.1-0.1,0.3-0.3,0.4-0.4c0.2-0.2,0.5-0.4,0.7-0.7
		c0.5-0.1,0.9-0.3,1.4-0.4C145.3,90.8,144.9,91.2,144.4,91.6z M143.6,92.4c-0.4,0.3-0.8,0.7-1.1,1c0,0-0.1,0-0.1,0
		c-0.1,0-0.2,0.1-0.3,0.1c-0.4,0.1-0.6,0.2-0.7,0.2c0.4-0.3,0.8-0.7,1.1-1c0,0,0,0,0.1-0.1c0,0,0,0,0.1,0c0,0,0,0,0.1,0
		C142.9,92.5,143.2,92.5,143.6,92.4z M141.5,94c0.1,0,0.2,0,0.3,0c0,0,0,0,0.1,0c-0.1,0.1-0.1,0.1-0.2,0.2c0,0-0.1,0.1-0.1,0.1
		c-0.4,0.4-0.4,0.4-0.3,0.5c0.1,0.1,0.2,0.1,0.2,0.1c0,0,0.1-0.1,0.1-0.1c0.1-0.1,0.2-0.2,0.3-0.2c0,0,0,0,0,0
		c0.3-0.2,0.5-0.4,0.9-0.7c0.5-0.1,1.1-0.2,1.7-0.3c-0.3,0.3-0.6,0.5-0.8,0.8c0,0.1-0.1,0.1-0.1,0.1c-0.3,0.3-0.4,0.4-0.4,0.5
		c-1.4,0.2-2.7,0.4-3.8,0.6c0.4-0.4,0.9-0.7,1.4-1.2c0.2-0.2,0.4-0.4,0.6-0.5c0,0,0,0.1,0,0.1C141.3,94,141.4,94,141.5,94z
		 M154.2,88.8c-1.3-0.1-2.6-0.1-3.7,0c-3,0.2-6.2,0.9-8.9,2.3c1-0.9,2.1-1.6,3.4-2.1c3-1,6.2-1,9.3-0.3
		C154.3,88.8,154.2,88.8,154.2,88.8z M143.2,91.3c-0.4,0.3-0.8,0.7-1.2,1.1c-0.1,0-0.1,0.1-0.1,0.1c-0.5,0.4-1,0.9-1.5,1.4
		c-0.8,0.7-1.5,1.3-2.1,1.8c-0.1,0-0.1,0-0.2,0c0,0,0,0,0,0c0.2-0.3,0.4-0.5,0.6-0.9c0.5-0.8,1.1-1.6,1.7-2.4
		C141.3,92,142.2,91.6,143.2,91.3z M200.5,81.5c-6.4,1.4-12.7,2.9-19.1,4.4c-6.4,1.5-12.9,2.7-19.1,4.6c-0.4,0-0.8,0-1.2-0.1
		c-1.2-1.7-7.6-4.3-14.5-3c-2.5,0.5-4.7,1.5-6.5,3.4c-1.1,1.2-1.7,3-2.8,4.1c-1.1,1-2.9,1-4.3,1.3c-1.8,0.4-3.6,0.8-5.4,1.2
		c-9.2,1.9-14.5,3-14.5,3c-0.1-0.1-0.1,0-0.3,0.1c-17.3,3.5-25.3,5-36.3,7.3c-0.1,0-0.1,0-0.2,0c-0.1,0-10,2.1-10,2.1
		c-3.1,0.7-6.2,1.4-9.3,2.4c-0.2-0.2-1,0.2-1.7,0.4c-0.1-0.8-6-4.9-7.1-5.8c-2.2-1.7-4.4-3.4-6.6-5.1c-4.5-3.4-9.1-6.9-13.6-10.3
		c-3.1-2.4-6.2-4.9-9.3-7.3c0,0,0,0,0,0h-0.1c-5.9-4.8-11.8-9.6-17.7-14.4c0.1-0.3,0.1-0.7,0.1-1c0.6,0.4,1.2,0.7,1.9,1
		c2.2,2.3,5.1,4.3,7.5,6.2c4.1,3.3,8.2,6.5,12.4,9.7c8.3,6.4,16.6,12.7,24.8,19.2c2.5,2,5,4.4,7.7,6.1c0,0-0.1,0-0.1,0
		c0.1,0,0.1,0.1,0.2,0.1c0,0,0.8,0,1.1,0c0,0,0,0,0-0.1c0.3-0.1,0.7-0.1,1-0.2c0.4,0,53.5-10.7,69.1-14.2c3.1-0.7,6.4-1.2,9.4-2.1
		c0.3-0.2,0.8-0.3,1.1-0.4c0,0,0.1,0,0.1,0c0.1,0,0.1-0.1,0.2-0.1c0,0,0,0,0,0c0.3-0.1,0.4-0.4,0.5-0.6c0.1-0.2,0-0.3-0.1-0.4
		c2.6-3.2,6-6.1,10-6.9c6.1-1.2,10.7,2.3,12.9,3.5c0,0.1,0.2,0.2,0.3,0.2c0.2,0.1,0.4,0.2,0.6,0.3c0,0,0.1,0.1,0.2,0.1
		c0.2,0.1,0.4,0,0.5-0.1c2.7-0.8,5.4-1.4,8.1-2.1c0,0,0,0,0.1,0c9.6-2.1,19.1-4.5,28.6-6.8c6.3-1.5,12.7-2.9,19-4.4
		c13.8-3.2,19.7-4.4,20.9-5.1c0.1,0.6,0.1,0.9,0.2,1.5C226.1,75.6,213.3,78.6,200.5,81.5z"/>
	<path class="st0" d="M66.4,77.1l1.1,0.1c0.9,0.1,1.8,0.1,2.6,0.2l0.3,0c4.7,0.4,11.2,1.1,18.4,2c3.3,0.5,6.6,1,10,1.6
		c2.2,0.4,4.4,0.8,6.6,1.2l3.9,0.7c0.7,0.1,1.4,0.3,2.1,0.4c0.6,0.1,0.3-0.2-0.1-0.3c-1-0.2-2-0.5-3-0.7c-6.1-1.3-11.1-2.2-19.3-3.4
		c-7.2-1-13.7-1.7-18.4-1.9l-1.1-0.1c-3.7-0.2-3.6-0.2-3.7,0C65.7,77,66.1,77.1,66.4,77.1z"/>
</g>
</svg>
